<svg xmlns="http://www.w3.org/2000/svg" width="960" height="600" viewBox="0 0 960 600"><rect width="960" height="600" fill="#6aa03c"/><polygon points="394,155 455,255 509,275 534,270 551,178 508,134 513,72 480,30 498,3 546,-22 639,5 681,5 707,17 722,-12 723,-54 711,-88 730,-144 787,-155 832,-207 919,-383 929,-500 879,-607 835,-684 777,-725 730,-740 599,-771 529,-767 483,-721 394,-699 257,-555 183,-514 118,-427 182,-407 170,-350 142,-299 83,-213 68,-111 161,-28 230,29 354,116 394,155" fill="#4c8a2c" opacity="0.7"/><polygon points="-85,628 -58,600 -31,617 57,616 86,635 90,673 115,690 70,766 24,731 41,726 42,707 21,694 -17,694 -18,709 -39,706 -62,675 -58,642 -85,628" fill="#4c8a2c" opacity="0.7"/><polygon points="982,542 1052,573 1057,594 1049,623 949,790 932,782 916,782 899,773 963,667 967,667 973,655 1002,628 1009,610 1016,583 1014,578 982,542" fill="#4c8a2c" opacity="0.7"/><polygon points="-12,172 -12,162 -22,136 18,137 43,133 31,95 46,83 74,108 87,138 85,168 -12,172" fill="#4c8a2c" opacity="0.7"/><polygon points="286,223 313,188 335,150 354,166 369,185 420,256 384,239 344,225 286,223" fill="#4c8a2c" opacity="0.7"/><polygon points="267,269 233,292 196,347 261,395 262,305 267,269" fill="#4c8a2c" opacity="0.7"/><polygon points="148,152 149,180 110,181 109,154 148,152" fill="#4c8a2c" opacity="0.7"/><polygon points="63,432 -49,538 -53,538 -67,522 -69,495 -60,486 -12,486 -4,478 -3,433" fill="#3d8b46" stroke="#fff"/><polygon points="-13,386 -63,386 -63,455 -13,455 -13,386" fill="#3d8b46" stroke="#fff"/><polygon points="-3,433 -3,417 0,415 68,417 68,429 65,433 0,432" fill="#3d8b46" stroke="#fff"/><polygon points="58,139 69,157 79,150 68,133 58,139" fill="#3d8b46" stroke="#fff"/><polygon points="-49,531 -55,525 -42,513 -36,519 -49,531" fill="#3d8b46" stroke="#fff"/><polygon points="-30,512 -36,507 -23,494 -17,500 -30,512" fill="#3d8b46" stroke="#fff"/><polygon points="-1311,1463 -1284,1525 -1292,1539 -1266,1566 -1262,1587 -1254,1592 -1232,1597 -1197,1597 -1190,1588 -1187,1573 -1177,1567 -1163,1568 -1153,1586 -1109,1599 -1096,1599 -1072,1610 -1058,1609 -1033,1597 -998,1588 -973,1592 -967,1601 -957,1603 -936,1614 -927,1630 -913,1636 -886,1634 -874,1644 -850,1649 -836,1660 -756,1701 -741,1710 -733,1722 -704,1725 -699,1744 -687,1754 -672,1761 -659,1761 -630,1747 -614,1749 -593,1743 -578,1730 -561,1698 -554,1702 -538,1721 -516,1726 -486,1721 -455,1712 -427,1698 -418,1686 -411,1667 -385,1673 -366,1672 -351,1662 -330,1627 -322,1595 -308,1590 -271,1534 -254,1545 -240,1547 -223,1543 -196,1518 -192,1480 -183,1475 -167,1486 -149,1488 -133,1482 -119,1469 -114,1456 -121,1421 -118,1406 -121,1389 -133,1376 -156,1371 -156,1351 -146,1349 -128,1338 -77,1296 -57,1276 -38,1265 5,1207 4,1189 25,1166 42,1153 75,1114 109,1088 115,1077 111,1050 125,1036 129,1025 127,1011 131,1000 129,990 120,969 127,956 127,944 177,901 182,889 183,872 214,826 211,806 226,786 242,785 257,776 300,730 310,713 338,698 360,680 418,619 443,576 468,524 474,503 476,422 501,355 506,345 515,345 520,333 551,348 544,368 544,374 552,384 560,388 571,386 586,364 600,366 982,542 1014,578 1013,597 1002,628 973,655 967,667 963,667 957,680 951,686 932,721 902,767 871,825 852,904 861,907 860,912 851,915 845,952 852,957 853,963 842,966 824,994 755,986 721,1036 715,1053 707,1049 697,1058 694,1057 670,1086 687,1116 678,1139 676,1156 653,1173 646,1186 634,1194 622,1217 606,1231 578,1245 552,1265 559,1279 534,1306 495,1336 465,1335 426,1356 409,1372 407,1388 359,1443 340,1446 321,1459 287,1472 290,1486 287,1493 272,1494 269,1501 274,1523 270,1546 275,1552 259,1557 257,1547 248,1539 232,1541 222,1535 214,1522 209,1520 184,1538 166,1545 166,1559 131,1613 118,1622 110,1650 102,1662 93,1669 73,1674 61,1689 67,1715 73,1723 65,1729 64,1737 48,1743 23,1767 25,1778 23,1786 14,1794 9,1791 -9,1797 -21,1806 -24,1813 -31,1819 -40,1819 -47,1810 -92,1838 -115,1863 -148,1882 -191,1916 -229,1953 -240,1954 -239,1964 -234,1964 -233,1969 -247,1974 -247,1985 -260,1982 -268,1995 -283,1998 -287,2009 -296,2001 -307,2005 -305,2012 -319,2011 -330,2020 -344,2022 -364,2046 -389,2053 -404,2049 -427,2056 -427,2065 -437,2083 -446,2081 -451,2074 -473,2070 -489,2079 -500,2100 -491,2111 -484,2153 -484,2189 -477,2196 -473,2216 -490,2238 -498,2257 -480,2274 -478,2288 -470,2291 -474,2299 -463,2340 -479,2365 -486,2366 -520,2394 -533,2393 -547,2379 -544,2375 -563,2359 -569,2350 -581,2345 -598,2332 -590,2323 -594,2317 -615,2316 -657,2300 -660,2276 -667,2264 -668,2244 -648,2236 -662,2224 -680,2231 -690,2222 -685,2198 -677,2182 -678,2161 -690,2164 -696,2171 -690,2176 -692,2194 -728,2206 -739,2204 -750,2208 -760,2231 -777,2238 -765,2246 -750,2247 -752,2268 -762,2303 -773,2300 -777,2320 -774,2334 -776,2349 -805,2372 -799,2382 -802,2391 -785,2417 -798,2433 -816,2443 -834,2470 -852,2513 -913,2557 -967,2572 -1010,2578 -1058,2554 -1089,2551 -1135,2559 -1158,2580 -1174,2570 -1262,2537 -1345,2488 -1369,2463 -1386,2452 -1366,2427 -1363,2410 -1342,2360 -1323,2345 -1294,2351 -1278,2337 -1264,2316 -1277,2270 -1324,2219 -1372,2219 -1390,2223 -1403,2209 -1398,2145 -1403,2086 -1389,2046 -1366,2024 -1321,1994 -1320,1974 -1267,1943 -1246,1942 -1177,1890 -1196,1873 -1200,1857 -1217,1856 -1254,1835 -1313,1832 -1331,1839 -1351,1827 -1363,1832 -1360,1845 -1441,1865 -1487,1869 -1527,1882 -1619,1922 -1644,1937 -1660,1955 -1704,1987 -1719,2010 -1721,2034 -1741,2120 -1741,2133 -1759,2150 -1785,2166 -1794,2150 -1803,2168 -1821,2179 -1857,2176 -1872,2166 -1876,2141 -1866,2011 -1853,1960 -1828,1889 -1799,1831 -1781,1786 -1765,1716 -1763,1674 -1752,1649 -1759,1644 -1744,1646 -1731,1658 -1719,1636 -1710,1628 -1699,1622 -1691,1624 -1682,1622 -1678,1611 -1681,1581 -1677,1579 -1674,1580 -1669,1614 -1659,1616 -1630,1610 -1619,1611 -1611,1619 -1575,1605 -1545,1597 -1543,1600 -1530,1588 -1473,1558 -1431,1526 -1414,1530 -1407,1529 -1402,1522 -1391,1518 -1383,1519 -1381,1512 -1387,1496 -1362,1482 -1311,1463" fill="#2e7bb4"/><rect x="744" y="0" width="216" height="24" fill="#2e7bb4"/><rect x="728" y="24" width="232" height="8" fill="#2e7bb4"/><rect x="720" y="32" width="240" height="8" fill="#2e7bb4"/><rect x="0" y="40" width="24" height="8" fill="#2e7bb4"/><rect x="704" y="40" width="256" height="8" fill="#2e7bb4"/><rect x="0" y="48" width="40" height="8" fill="#2e7bb4"/><rect x="696" y="48" width="264" height="8" fill="#2e7bb4"/><rect x="8" y="56" width="56" height="8" fill="#2e7bb4"/><rect x="680" y="56" width="280" height="8" fill="#2e7bb4"/><rect x="24" y="64" width="64" height="8" fill="#2e7bb4"/><rect x="672" y="64" width="288" height="8" fill="#2e7bb4"/><rect x="40" y="72" width="72" height="8" fill="#2e7bb4"/><rect x="664" y="72" width="296" height="8" fill="#2e7bb4"/><rect x="64" y="80" width="72" height="8" fill="#2e7bb4"/><rect x="600" y="80" width="32" height="8" fill="#2e7bb4"/><rect x="648" y="80" width="312" height="8" fill="#2e7bb4"/><rect x="80" y="88" width="72" height="8" fill="#2e7bb4"/><rect x="600" y="88" width="360" height="24" fill="#2e7bb4"/><rect x="96" y="96" width="72" height="8" fill="#2e7bb4"/><rect x="120" y="104" width="64" height="8" fill="#2e7bb4"/><rect x="136" y="112" width="64" height="8" fill="#2e7bb4"/><rect x="592" y="112" width="368" height="16" fill="#2e7bb4"/><rect x="152" y="120" width="64" height="8" fill="#2e7bb4"/><rect x="176" y="128" width="56" height="8" fill="#2e7bb4"/><rect x="584" y="128" width="376" height="16" fill="#2e7bb4"/><rect x="192" y="136" width="56" height="8" fill="#2e7bb4"/><rect x="208" y="144" width="56" height="8" fill="#2e7bb4"/><rect x="576" y="144" width="384" height="32" fill="#2e7bb4"/><rect x="232" y="152" width="48" height="8" fill="#2e7bb4"/><rect x="248" y="160" width="48" height="8" fill="#2e7bb4"/><rect x="264" y="168" width="48" height="8" fill="#2e7bb4"/><rect x="288" y="176" width="40" height="8" fill="#2e7bb4"/><rect x="568" y="176" width="392" height="8" fill="#2e7bb4"/><rect x="304" y="184" width="40" height="8" fill="#2e7bb4"/><rect x="576" y="184" width="384" height="32" fill="#2e7bb4"/><rect x="320" y="192" width="40" height="8" fill="#2e7bb4"/><rect x="344" y="200" width="32" height="8" fill="#2e7bb4"/><rect x="360" y="208" width="32" height="8" fill="#2e7bb4"/><rect x="376" y="216" width="32" height="8" fill="#2e7bb4"/><rect x="560" y="216" width="400" height="24" fill="#2e7bb4"/><rect x="400" y="224" width="16" height="8" fill="#2e7bb4"/><rect x="416" y="232" width="16" height="8" fill="#2e7bb4"/><rect x="432" y="240" width="16" height="8" fill="#2e7bb4"/><rect x="552" y="240" width="408" height="16" fill="#2e7bb4"/><rect x="456" y="248" width="8" height="8" fill="#2e7bb4"/><rect x="472" y="256" width="8" height="8" fill="#2e7bb4"/><rect x="544" y="256" width="416" height="16" fill="#2e7bb4"/><rect x="488" y="264" width="8" height="8" fill="#2e7bb4"/><rect x="536" y="272" width="424" height="32" fill="#2e7bb4"/><rect x="544" y="304" width="24" height="8" fill="#2e7bb4"/><rect x="600" y="304" width="360" height="16" fill="#2e7bb4"/><rect x="560" y="312" width="8" height="8" fill="#2e7bb4"/><rect x="608" y="320" width="352" height="16" fill="#2e7bb4"/><rect x="624" y="336" width="336" height="8" fill="#2e7bb4"/><rect x="640" y="344" width="320" height="8" fill="#2e7bb4"/><rect x="656" y="352" width="304" height="8" fill="#2e7bb4"/><rect x="680" y="360" width="280" height="8" fill="#2e7bb4"/><rect x="696" y="368" width="264" height="8" fill="#2e7bb4"/><rect x="712" y="376" width="248" height="8" fill="#2e7bb4"/><rect x="728" y="384" width="232" height="8" fill="#2e7bb4"/><rect x="744" y="392" width="216" height="8" fill="#2e7bb4"/><rect x="520" y="400" width="8" height="8" fill="#2e7bb4"/><rect x="768" y="400" width="192" height="8" fill="#2e7bb4"/><rect x="784" y="408" width="176" height="8" fill="#2e7bb4"/><rect x="512" y="416" width="8" height="8" fill="#2e7bb4"/><rect x="800" y="416" width="160" height="8" fill="#2e7bb4"/><rect x="816" y="424" width="144" height="8" fill="#2e7bb4"/><rect x="504" y="432" width="8" height="8" fill="#2e7bb4"/><rect x="832" y="432" width="128" height="8" fill="#2e7bb4"/><rect x="848" y="440" width="112" height="8" fill="#2e7bb4"/><rect x="864" y="448" width="96" height="8" fill="#2e7bb4"/><rect x="880" y="456" width="80" height="8" fill="#2e7bb4"/><rect x="904" y="464" width="56" height="8" fill="#2e7bb4"/><rect x="928" y="472" width="32" height="8" fill="#2e7bb4"/><rect x="936" y="480" width="24" height="8" fill="#2e7bb4"/><rect x="952" y="488" width="8" height="8" fill="#2e7bb4"/><rect x="448" y="552" width="8" height="8" fill="#2e7bb4"/><rect x="440" y="568" width="8" height="8" fill="#2e7bb4"/><rect x="432" y="584" width="8" height="8" fill="#2e7bb4"/><polyline points="-40,551 98,425 129,393" fill="none" stroke="#8a8f98" stroke-width="10" stroke-linecap="round"/><polyline points="180,346 145,392 108,432 14,518" fill="none" stroke="#8a8f98" stroke-width="10" stroke-linecap="round"/><polyline points="-76,547 -59,554 -40,551" fill="none" stroke="#8a8f98" stroke-width="10" stroke-linecap="round"/><polyline points="-76,307 -7,307" fill="none" stroke="#8a8f98" stroke-width="5" stroke-linecap="round"/><polyline points="25,311 4,312" fill="none" stroke="#8a8f98" stroke-width="5" stroke-linecap="round"/><polyline points="-46,314 -69,313" fill="none" stroke="#8a8f98" stroke-width="5" stroke-linecap="round"/><polyline points="30,327 61,395" fill="none" stroke="#8a8f98" stroke-width="3" stroke-linecap="round"/><polyline points="-76,474 -16,474" fill="none" stroke="#8a8f98" stroke-width="3" stroke-linecap="round"/><polyline points="-2,532 -52,575" fill="none" stroke="#8a8f98" stroke-width="10" stroke-linecap="round"/><polyline points="-9,313 -46,314" fill="none" stroke="#8a8f98" stroke-width="5" stroke-linecap="round"/><polyline points="-59,567 -40,551" fill="none" stroke="#8a8f98" stroke-width="10" stroke-linecap="round"/><polyline points="-7,307 8,306" fill="none" stroke="#8a8f98" stroke-width="5" stroke-linecap="round"/><polyline points="8,306 23,306" fill="none" stroke="#8a8f98" stroke-width="5" stroke-linecap="round"/><polyline points="4,312 -9,313" fill="none" stroke="#8a8f98" stroke-width="5" stroke-linecap="round"/><polyline points="171,340 175,335" fill="none" stroke="#8a8f98" stroke-width="10" stroke-linecap="round"/><polyline points="129,393 159,356" fill="none" stroke="#8a8f98" stroke-width="10" stroke-linecap="round"/><polyline points="14,518 -2,532" fill="none" stroke="#8a8f98" stroke-width="10" stroke-linecap="round"/><polyline points="159,356 158,336 156,329" fill="none" stroke="#8a8f98" stroke-width="10" stroke-linecap="round"/><polyline points="156,320 173,322 187,318" fill="none" stroke="#8a8f98" stroke-width="10" stroke-linecap="round"/><polyline points="159,356 171,340" fill="none" stroke="#8a8f98" stroke-width="10" stroke-linecap="round"/><polyline points="175,335 183,341" fill="none" stroke="#8a8f98" stroke-width="5" stroke-linecap="round"/><polyline points="180,346 171,340" fill="none" stroke="#8a8f98" stroke-width="5" stroke-linecap="round"/><polyline points="183,341 180,346" fill="none" stroke="#8a8f98" stroke-width="10" stroke-linecap="round"/><polyline points="117,336 73,389" fill="none" stroke="#8a8f98" stroke-width="3" stroke-linecap="round"/><polyline points="117,336 94,321 74,324 46,338" fill="none" stroke="#8a8f98" stroke-width="3" stroke-linecap="round"/><polyline points="134,313 122,304" fill="none" stroke="#8a8f98" stroke-width="5" stroke-linecap="round"/><polyline points="171,340 156,329" fill="none" stroke="#8a8f98" stroke-width="5" stroke-linecap="round"/><polyline points="156,320 175,335" fill="none" stroke="#8a8f98" stroke-width="5" stroke-linecap="round"/><polyline points="133,303 156,320" fill="none" stroke="#8a8f98" stroke-width="5" stroke-linecap="round"/><polyline points="156,329 134,313" fill="none" stroke="#8a8f98" stroke-width="5" stroke-linecap="round"/><polyline points="-69,379 -8,379 -8,397" fill="none" stroke="#8a8f98" stroke-width="3" stroke-linecap="round"/><polyline points="536,323 504,309" fill="none" stroke="#8a8f98" stroke-width="10" stroke-linecap="round"/><polyline points="582,345 571,340" fill="none" stroke="#8a8f98" stroke-width="10" stroke-linecap="round"/><polyline points="559,334 536,323" fill="none" stroke="#8a8f98" stroke-width="10" stroke-linecap="round"/><polyline points="571,340 559,334" fill="none" stroke="#8a8f98" stroke-width="10" stroke-linecap="round"/><polyline points="1022,551 582,345" fill="none" stroke="#8a8f98" stroke-width="10" stroke-linecap="round"/><polyline points="331,115 342,123" fill="none" stroke="#8a8f98" stroke-width="10" stroke-linecap="round"/><polyline points="431,275 345,236 295,235 272,244 226,280" fill="none" stroke="#8a8f98" stroke-width="10" stroke-linecap="round"/><polyline points="335,132 293,188" fill="none" stroke="#8a8f98" stroke-width="10" stroke-linecap="round"/><polyline points="175,335 258,218" fill="none" stroke="#8a8f98" stroke-width="10" stroke-linecap="round"/><polyline points="419,231 455,272 473,285 508,302" fill="none" stroke="#8a8f98" stroke-width="10" stroke-linecap="round"/><polyline points="122,304 96,282" fill="none" stroke="#8a8f98" stroke-width="5" stroke-linecap="round"/><polyline points="335,132 324,122" fill="none" stroke="#8a8f98" stroke-width="10" stroke-linecap="round"/><polyline points="504,309 468,292" fill="none" stroke="#8a8f98" stroke-width="10" stroke-linecap="round"/><polyline points="508,302 1025,544" fill="none" stroke="#8a8f98" stroke-width="10" stroke-linecap="round"/><polyline points="352,355 390,307 431,275" fill="none" stroke="#8a8f98" stroke-width="3" stroke-linecap="round"/><polyline points="66,285 52,302 25,311" fill="none" stroke="#8a8f98" stroke-width="5" stroke-linecap="round"/><polyline points="23,306 47,296 72,263" fill="none" stroke="#8a8f98" stroke-width="5" stroke-linecap="round"/><polyline points="121,293 133,303" fill="none" stroke="#8a8f98" stroke-width="5" stroke-linecap="round"/><polyline points="218,292 183,341" fill="none" stroke="#8a8f98" stroke-width="10" stroke-linecap="round"/><polyline points="306,110 246,75 180,31" fill="none" stroke="#8a8f98" stroke-width="10" stroke-linecap="round"/><polyline points="133,-24 176,14 233,54" fill="none" stroke="#8a8f98" stroke-width="10" stroke-linecap="round"/><polyline points="258,218 310,146" fill="none" stroke="#8a8f98" stroke-width="10" stroke-linecap="round"/><polyline points="310,146 312,128 306,110" fill="none" stroke="#8a8f98" stroke-width="10" stroke-linecap="round"/><polyline points="310,146 324,122" fill="none" stroke="#8a8f98" stroke-width="10" stroke-linecap="round"/><polyline points="101,145 104,220 96,242" fill="none" stroke="#8a8f98" stroke-width="5" stroke-linecap="round"/><polyline points="76,258 88,238 96,215 96,145" fill="none" stroke="#8a8f98" stroke-width="5" stroke-linecap="round"/><polyline points="-45,-21 -10,-8 6,2 35,29 48,31 90,-13 92,-18 89,-28 40,-73" fill="none" stroke="#8a8f98" stroke-width="3" stroke-linecap="round"/><polyline points="103,-5 106,-20 105,-34" fill="none" stroke="#8a8f98" stroke-width="10" stroke-linecap="round"/><polyline points="25,40 43,45 57,43" fill="none" stroke="#8a8f98" stroke-width="5" stroke-linecap="round"/><polyline points="43,57 80,19" fill="none" stroke="#8a8f98" stroke-width="5" stroke-linecap="round"/><polyline points="67,43 60,61 65,77" fill="none" stroke="#8a8f98" stroke-width="5" stroke-linecap="round"/><polyline points="145,2 124,-4 108,0" fill="none" stroke="#8a8f98" stroke-width="10" stroke-linecap="round"/><polyline points="123,-16 95,13" fill="none" stroke="#8a8f98" stroke-width="5" stroke-linecap="round"/><polyline points="324,122 331,115" fill="none" stroke="#8a8f98" stroke-width="10" stroke-linecap="round"/><polyline points="38,62 43,57" fill="none" stroke="#8a8f98" stroke-width="5" stroke-linecap="round"/><polyline points="-82,-9 -45,-8 -24,-2 5,21 43,57" fill="none" stroke="#8a8f98" stroke-width="5" stroke-linecap="round"/><polyline points="80,19 103,-5" fill="none" stroke="#8a8f98" stroke-width="5" stroke-linecap="round"/><polyline points="118,-21 13,-121" fill="none" stroke="#8a8f98" stroke-width="10" stroke-linecap="round"/><polyline points="118,-21 127,-30" fill="none" stroke="#8a8f98" stroke-width="5" stroke-linecap="round"/><polyline points="43,57 48,62" fill="none" stroke="#8a8f98" stroke-width="5" stroke-linecap="round"/><polyline points="67,43 48,62" fill="none" stroke="#8a8f98" stroke-width="5" stroke-linecap="round"/><polyline points="48,62 43,67" fill="none" stroke="#8a8f98" stroke-width="5" stroke-linecap="round"/><polyline points="133,-24 123,-16" fill="none" stroke="#8a8f98" stroke-width="5" stroke-linecap="round"/><polyline points="123,-16 118,-21" fill="none" stroke="#8a8f98" stroke-width="10" stroke-linecap="round"/><polyline points="145,2 123,-16" fill="none" stroke="#8a8f98" stroke-width="10" stroke-linecap="round"/><polyline points="78,267 72,263" fill="none" stroke="#8a8f98" stroke-width="5" stroke-linecap="round"/><polyline points="38,62 -25,6 -49,-2 -79,-3" fill="none" stroke="#8a8f98" stroke-width="5" stroke-linecap="round"/><polyline points="43,67 38,62" fill="none" stroke="#8a8f98" stroke-width="5" stroke-linecap="round"/><polyline points="127,-30 133,-24" fill="none" stroke="#8a8f98" stroke-width="10" stroke-linecap="round"/><polyline points="103,-5 118,-21" fill="none" stroke="#8a8f98" stroke-width="5" stroke-linecap="round"/><polyline points="226,280 218,292" fill="none" stroke="#8a8f98" stroke-width="10" stroke-linecap="round"/><polyline points="-49,101 -52,35 -50,33 -41,33 -32,41" fill="none" stroke="#8a8f98" stroke-width="3" stroke-linecap="round"/><polyline points="-34,101 -17,71 -1,61 4,53" fill="none" stroke="#8a8f98" stroke-width="3" stroke-linecap="round"/><polyline points="96,282 81,279 66,285" fill="none" stroke="#8a8f98" stroke-width="5" stroke-linecap="round"/><polyline points="96,242 94,260 98,275" fill="none" stroke="#8a8f98" stroke-width="5" stroke-linecap="round"/><polyline points="82,262 98,275" fill="none" stroke="#8a8f98" stroke-width="5" stroke-linecap="round"/><polyline points="76,258 82,262" fill="none" stroke="#8a8f98" stroke-width="5" stroke-linecap="round"/><polyline points="82,262 78,267" fill="none" stroke="#8a8f98" stroke-width="5" stroke-linecap="round"/><polyline points="72,263 76,258" fill="none" stroke="#8a8f98" stroke-width="5" stroke-linecap="round"/><polyline points="54,77 43,67" fill="none" stroke="#8a8f98" stroke-width="5" stroke-linecap="round"/><polyline points="79,-74 127,-30" fill="none" stroke="#8a8f98" stroke-width="10" stroke-linecap="round"/><polyline points="180,31 145,2" fill="none" stroke="#8a8f98" stroke-width="10" stroke-linecap="round"/><polyline points="233,54 331,115" fill="none" stroke="#8a8f98" stroke-width="10" stroke-linecap="round"/><polyline points="-34,101 -31,114 -24,125 -14,130 0,132" fill="none" stroke="#8a8f98" stroke-width="3" stroke-linecap="round"/><polyline points="-21,293 -72,292 -81,285 -84,239" fill="none" stroke="#8a8f98" stroke-width="3" stroke-linecap="round"/><polyline points="98,98 74,70 73,60 121,10 127,10 155,34 178,47 198,64 284,113 290,141 283,154" fill="none" stroke="#8a8f98" stroke-width="3" stroke-linecap="round"/><polyline points="-89,97 -58,96 -49,101" fill="none" stroke="#8a8f98" stroke-width="3" stroke-linecap="round"/><polyline points="96,282 78,267" fill="none" stroke="#8a8f98" stroke-width="5" stroke-linecap="round"/><polyline points="89,20 67,43" fill="none" stroke="#8a8f98" stroke-width="5" stroke-linecap="round"/><polyline points="293,188 226,280" fill="none" stroke="#8a8f98" stroke-width="10" stroke-linecap="round"/><polyline points="78,267 66,285" fill="none" stroke="#8a8f98" stroke-width="5" stroke-linecap="round"/><polyline points="95,13 89,20" fill="none" stroke="#8a8f98" stroke-width="5" stroke-linecap="round"/><polyline points="324,122 306,110" fill="none" stroke="#8a8f98" stroke-width="10" stroke-linecap="round"/><polyline points="96,145 86,112 65,87 54,77" fill="none" stroke="#8a8f98" stroke-width="5" stroke-linecap="round"/><polyline points="48,62 88,104 98,124 101,145" fill="none" stroke="#8a8f98" stroke-width="5" stroke-linecap="round"/><polyline points="81,220 71,241 39,288 24,293 -21,293" fill="none" stroke="#8a8f98" stroke-width="3" stroke-linecap="round"/><polyline points="137,185 146,185 153,180 151,152 148,147 116,148 107,115 98,98" fill="none" stroke="#8a8f98" stroke-width="3" stroke-linecap="round"/><polyline points="98,275 121,293" fill="none" stroke="#8a8f98" stroke-width="5" stroke-linecap="round"/><polyline points="96,242 82,262" fill="none" stroke="#8a8f98" stroke-width="5" stroke-linecap="round"/><polyline points="156,175 166,175 213,209" fill="none" stroke="#8a8f98" stroke-width="3" stroke-linecap="round"/><polyline points="195,196 139,273" fill="none" stroke="#8a8f98" stroke-width="3" stroke-linecap="round"/><polyline points="131,248 166,273" fill="none" stroke="#8a8f98" stroke-width="3" stroke-linecap="round"/><polyline points="150,215 191,244" fill="none" stroke="#8a8f98" stroke-width="3" stroke-linecap="round"/><polyline points="375,177 359,157 335,132" fill="none" stroke="#8a8f98" stroke-width="10" stroke-linecap="round"/><polyline points="342,123 335,132" fill="none" stroke="#8a8f98" stroke-width="10" stroke-linecap="round"/><polyline points="412,235 375,177" fill="none" stroke="#8a8f98" stroke-width="10" stroke-linecap="round"/><polyline points="438,266 412,235" fill="none" stroke="#8a8f98" stroke-width="10" stroke-linecap="round"/><polyline points="468,292 438,266" fill="none" stroke="#8a8f98" stroke-width="10" stroke-linecap="round"/><polyline points="412,235 419,231" fill="none" stroke="#8a8f98" stroke-width="10" stroke-linecap="round"/><polyline points="399,199 418,229" fill="none" stroke="#8a8f98" stroke-width="10" stroke-linecap="round"/><polyline points="342,123 370,155 399,199" fill="none" stroke="#8a8f98" stroke-width="10" stroke-linecap="round"/><polyline points="418,229 419,231" fill="none" stroke="#8a8f98" stroke-width="10" stroke-linecap="round"/><polyline points="468,292 431,275" fill="none" stroke="#8a8f98" stroke-width="10" stroke-linecap="round"/><polygon points="156,170 164,167 176,168 180,166 178,168 192,175 190,178 196,180 201,186 204,181 202,177 213,185 215,188 210,186 205,190 220,200 222,197 225,199 224,206 230,205 234,222 225,225 224,238 222,241 208,244 209,254 208,256 197,257 198,264 184,267 185,274 189,273 191,278 181,288 181,276 176,280 163,281 168,288 159,289 155,286 159,281 153,279 146,271 144,277 134,269 126,276 108,262 106,257 116,223 114,197 136,196 137,220 147,220 149,193 157,180 156,170" fill="#c8c2b8" stroke="#00000033"/><polygon points="-8,343 -8,335 -38,336 -38,332 -62,335 -62,363 -65,363 -65,378 -6,378 -6,406 2,406 2,410 31,410 31,413 41,413 41,410 57,410 57,392 51,392 51,390 15,392 15,382 23,382 23,379 36,379 36,358 30,358 30,343 23,343 23,339 13,339 13,355 8,355 8,331 -6,331 -8,343" fill="#c8c2b8" stroke="#00000033"/><polygon points="68,390 112,338 94,325 72,327 47,341 68,390" fill="#c8c2b8" stroke="#00000033"/><polygon points="70,497 90,509 92,506 96,509 51,569 27,551 70,497" fill="#c8c2b8" stroke="#00000033"/><polygon points="44,437 -2,437 -1,476 -12,490 -7,495 50,443 44,437" fill="#c8c2b8" stroke="#00000033"/><polygon points="168,50 177,56 179,54 213,81 197,103 152,73 168,50" fill="#c8c2b8" stroke="#00000033"/><polygon points="109,467 139,427 163,445 131,487 109,470 109,467" fill="#c8c2b8" stroke="#00000033"/><polygon points="-35,-47 -17,-47 13,-29 16,-28 15,-32 21,-29 6,-3 -30,-24 -31,-21 -42,-27 -35,-47" fill="#c8c2b8" stroke="#00000033"/><polygon points="135,126 135,114 159,113 165,123 166,134 162,134 165,141 155,141 153,136 153,140 150,136 146,136 147,141 136,142 136,136 131,136 132,142 121,142 122,131 116,136 111,117 119,119 120,112 125,110 128,126 135,126" fill="#c8c2b8" stroke="#00000033"/><polygon points="39,321 45,320 49,325 53,323 47,319 63,309 65,314 63,315 66,315 71,309 64,308 76,293 80,297 78,302 86,301 87,293 101,305 95,308 100,311 102,306 114,313 111,318 115,316 124,319 121,323 116,323 116,330 99,320 106,316 97,311 95,318 88,309 85,310 85,307 79,309 78,303 76,307 78,311 74,318 70,317 70,313 64,318 68,322 56,329 54,324 49,326 50,333 45,335 39,321" fill="#c8c2b8" stroke="#00000033"/><polygon points="-83,151 -72,157 -67,152 -69,158 -60,161 -55,159 -55,154 -51,154 -54,160 -40,162 -39,157 -44,153 -31,149 -29,154 -35,159 -33,164 -17,161 -21,153 -28,153 -28,151 -21,151 -28,133 -33,136 -32,147 -35,148 -35,141 -52,147 -48,153 -58,152 -57,146 -67,145 -69,150 -69,145 -77,141 -83,151" fill="#c8c2b8" stroke="#00000033"/><polygon points="-29,114 -18,121 -13,116 -15,121 -6,125 -1,124 -1,118 3,119 0,124 14,127 15,122 10,118 23,114 25,120 19,125 20,129 36,127 33,119 27,119 26,116 33,117 28,99 22,101 23,112 19,113 20,106 2,112 6,118 -3,116 -2,111 -13,109 -15,114 -14,109 -22,104 -29,114" fill="#c8c2b8" stroke="#00000033"/><polygon points="104,54 86,50 86,57 91,58 90,60 85,59 84,63 80,60 75,63 87,78 91,71 97,77 90,81 100,91 104,88 102,85 115,86 115,89 107,91 106,96 124,98 123,92 116,87 121,88 119,85 124,84 126,78 107,77 109,84 103,83 100,79 106,76 96,66 92,71 89,68 92,65 91,62 102,59 104,54" fill="#c8c2b8" stroke="#00000033"/><polygon points="33,207 54,206 51,213 61,213 58,206 70,206 69,211 65,214 69,216 71,211 81,213 71,231 66,227 69,217 63,214 60,214 63,221 48,222 42,222 45,215 37,215 36,221 31,221 31,215 26,215 30,219 28,224 11,215 15,211 20,212 20,203 28,208 27,214 36,214 33,207" fill="#c8c2b8" stroke="#00000033"/><polygon points="12,240 33,239 30,246 40,246 37,239 49,238 48,244 44,247 48,249 50,244 60,245 50,264 45,260 48,250 42,247 39,247 42,254 27,255 21,255 24,248 16,248 15,254 10,254 10,248 5,248 8,252 7,257 -10,248 -6,244 -1,245 -1,236 7,241 5,247 15,247 12,240" fill="#c8c2b8" stroke="#00000033"/><polygon points="114,638 113,646 98,637 101,633 107,633 103,628 105,624 122,633 116,638 123,642 126,637 132,641 135,638 140,640 135,649 131,646 134,650 129,659 123,652 117,662 125,663 116,679 111,675 112,669 107,673 102,671 113,652 118,658 127,646 114,638" fill="#c8c2b8" stroke="#00000033"/><polygon points="172,112 178,121 181,115 188,113 182,105 176,106 177,100 173,98 170,102 167,100 170,96 163,91 159,95 156,93 159,88 151,82 148,87 144,86 148,79 129,78 130,84 135,87 132,87 134,92 129,92 128,98 146,99 145,94 140,92 141,89 146,87 153,92 150,97 159,103 161,98 166,101 162,105 171,111 174,106 177,109 172,112" fill="#c8c2b8" stroke="#00000033"/><polygon points="-77,239 -68,239 -68,244 -63,244 -63,238 -52,238 -51,244 -47,244 -46,238 -38,237 -37,243 -33,245 -29,241 -33,238 -31,232 -14,241 -18,246 -23,245 -26,251 -22,254 -24,259 -40,250 -35,247 -36,245 -42,245 -42,250 -51,251 -51,245 -55,245 -55,251 -64,251 -64,246 -67,246 -67,252 -78,252 -77,239" fill="#c8c2b8" stroke="#00000033"/><polygon points="20,417 65,416 65,431 20,432 20,417" fill="#c8c2b8" stroke="#00000033"/><polygon points="22,176 33,175 36,181 37,175 48,174 45,181 56,181 52,174 71,173 68,180 72,180 74,174 80,172 81,191 75,190 72,182 70,182 68,188 64,187 63,182 56,182 59,189 38,190 41,182 33,183 34,189 22,189 25,181 22,181 22,176" fill="#c8c2b8" stroke="#00000033"/><polygon points="110,24 114,42 119,40 121,28 124,30 126,26 130,29 125,33 137,42 139,36 146,42 140,45 154,57 157,52 154,48 159,49 164,45 156,40 151,43 146,40 151,36 140,27 137,33 130,27 136,24 122,12 119,18 122,21 118,22 120,28 116,24 110,24" fill="#c8c2b8" stroke="#00000033"/><polygon points="-43,178 9,177 1,195 -9,190 -43,191 -43,178" fill="#c8c2b8" stroke="#00000033"/><polygon points="174,141 193,140 190,135 192,134 199,139 197,146 203,151 205,142 211,147 204,150 220,162 222,156 219,151 222,153 223,147 228,149 232,145 217,135 215,140 218,144 215,148 204,140 210,137 195,126 194,133 188,133 191,126 180,128 174,141" fill="#c8c2b8" stroke="#00000033"/><polygon points="260,104 241,94 240,102 234,98 240,93 222,83 219,92 224,95 213,101 231,112 233,106 224,98 226,95 243,105 241,110 236,108 233,113 248,122 251,116 247,113 248,110 250,111 250,107 256,109 260,104" fill="#c8c2b8" stroke="#00000033"/><polygon points="150,479 154,474 157,481 164,472 156,470 170,452 174,456 172,464 178,459 183,461 176,470 171,466 166,472 174,473 163,488 159,481 156,485 158,487 155,491 163,494 156,503 152,499 154,494 151,492 149,497 140,490 144,486 150,490 148,483 150,479" fill="#c8c2b8" stroke="#00000033"/><polygon points="-44,79 -29,78 -10,60 -16,53 -32,71 -38,71 -39,36 -49,38 -44,79" fill="#c8c2b8" stroke="#00000033"/><polygon points="41,-32 54,-25 56,-32 61,-29 58,-24 65,-20 68,-25 73,-22 70,-13 64,-14 60,-6 79,-5 75,-12 76,-16 82,-11 85,-12 81,-30 77,-30 75,-23 72,-26 75,-29 67,-34 66,-29 63,-31 66,-35 57,-39 56,-35 53,-37 56,-40 52,-43 41,-32" fill="#c8c2b8" stroke="#00000033"/><polygon points="13,-2 25,5 27,-2 32,1 29,6 37,11 40,6 45,9 42,15 36,13 31,21 49,25 50,22 46,17 48,13 53,18 56,18 54,-1 45,7 43,4 47,1 39,-3 37,1 34,-1 37,-5 29,-9 27,-5 24,-7 27,-10 23,-13 13,-2" fill="#c8c2b8" stroke="#00000033"/><polygon points="175,504 180,495 184,500 191,502 187,509 185,507 185,513 193,517 194,510 209,519 203,523 208,526 214,520 219,522 207,540 202,530 205,526 198,522 197,530 181,521 188,516 182,513 180,518 170,512 174,508 178,509 180,506 175,504" fill="#c8c2b8" stroke="#00000033"/><polygon points="155,170 162,169 164,164 166,164 166,169 176,168 176,163 180,163 178,168 187,174 189,170 194,173 190,178 196,180 201,186 204,181 201,178 207,177 210,173 194,163 193,170 189,167 192,163 184,157 179,161 179,156 169,156 170,162 164,162 165,156 154,157 158,164 155,165 155,170" fill="#c8c2b8" stroke="#00000033"/><polygon points="117,209 125,209 126,204 132,202 133,221 126,218 126,225 130,227 133,223 140,228 137,232 140,235 142,230 151,236 147,240 149,242 152,238 160,242 157,246 154,245 153,252 144,247 148,242 145,240 143,245 138,242 141,238 137,235 135,240 127,235 129,233 125,230 124,233 117,227 120,222 124,223 123,216 118,216 117,209" fill="#c8c2b8" stroke="#00000033"/><polygon points="-86,119 -75,119 -75,113 -68,113 -66,114 -71,119 -59,123 -53,125 -53,118 -47,120 -51,122 -50,128 -32,123 -34,118 -42,116 -41,109 -50,112 -49,117 -57,115 -54,109 -67,105 -68,112 -70,111 -70,106 -85,107 -83,113 -86,113 -86,119" fill="#c8c2b8" stroke="#00000033"/><polygon points="-72,270 -63,275 -66,280 -63,282 -62,276 -53,276 -52,281 -48,275 -43,275 -43,281 -36,281 -39,274 -21,273 -21,277 -29,282 -26,288 -46,289 -43,282 -50,283 -50,289 -59,289 -60,283 -64,283 -67,288 -77,283 -72,270" fill="#c8c2b8" stroke="#00000033"/><polygon points="-16,93 -6,90 -7,85 0,83 2,84 -1,90 18,91 15,84 22,85 21,93 37,84 34,79 26,79 25,72 17,77 20,82 11,82 13,76 -1,75 0,81 -3,82 -4,76 -17,81 -14,87 -17,88 -16,93" fill="#c8c2b8" stroke="#00000033"/><polygon points="71,396 77,403 81,401 78,403 81,403 84,409 97,396 92,392 83,398 81,395 94,381 97,384 95,390 98,394 111,380 105,379 101,374 102,370 98,367 91,374 95,376 92,379 90,375 84,382 87,384 85,387 82,383 76,390 79,393 74,392 71,396" fill="#c8c2b8" stroke="#00000033"/><polygon points="173,448 184,434 188,441 192,435 188,429 191,425 187,422 184,427 175,420 181,416 182,410 188,415 185,419 188,421 191,416 200,423 194,427 195,431 203,426 208,429 195,446 191,439 187,443 191,449 185,458 182,454 184,448 178,451 173,448" fill="#c8c2b8" stroke="#00000033"/><polygon points="130,327 138,332 136,336 138,333 139,336 146,337 134,352 130,348 135,339 131,337 120,352 123,355 128,351 133,354 121,369 119,363 113,360 110,362 106,358 112,350 115,353 117,351 113,349 119,342 122,344 124,342 120,340 125,333 128,335 127,331 130,327" fill="#c8c2b8" stroke="#00000033"/><polygon points="-43,214 -34,214 -34,208 -31,208 -31,214 -22,214 -22,207 -14,207 -10,209 -12,214 -17,212 -21,217 -4,226 -2,220 -6,217 -2,213 -3,211 2,213 5,208 -11,199 -12,207 -17,206 -17,201 -26,201 -26,206 -31,206 -31,200 -42,201 -43,214" fill="#c8c2b8" stroke="#00000033"/><polygon points="33,267 26,272 28,277 26,279 24,273 15,274 15,279 10,273 6,273 6,279 -1,280 2,273 -17,274 -17,277 -8,281 -11,288 10,287 6,281 13,281 14,287 23,286 22,280 27,280 30,285 39,279 33,267" fill="#c8c2b8" stroke="#00000033"/><polygon points="-52,20 -30,29 -33,33 -31,35 -28,32 -4,54 0,50 -1,44 -23,24 -47,13 -52,20" fill="#c8c2b8" stroke="#00000033"/><polygon points="122,599 124,596 133,601 131,608 137,611 138,605 150,609 155,603 162,604 153,619 149,613 147,617 151,623 149,628 133,619 140,614 132,610 132,618 116,609 119,605 126,605 122,599" fill="#c8c2b8" stroke="#00000033"/><polygon points="232,411 237,414 240,409 247,414 244,419 238,417 236,420 241,423 236,430 231,427 228,432 233,434 227,444 224,439 216,437 222,431 226,434 227,431 222,428 229,419 233,423 237,416 220,413 215,410 218,406 225,407 221,401 223,397 238,407 232,411" fill="#c8c2b8" stroke="#00000033"/><polygon points="190,210 200,219 203,219 199,225 203,227 212,225 208,219 225,214 226,224 218,225 222,232 201,236 203,229 198,226 197,233 182,222 186,218 191,220 188,215 190,210" fill="#c8c2b8" stroke="#00000033"/><polygon points="263,107 279,116 273,120 275,124 282,120 286,141 279,139 266,144 267,138 276,134 274,123 269,119 266,124 270,128 268,133 252,124 256,119 260,121 261,115 264,117 261,112 263,107" fill="#c8c2b8" stroke="#00000033"/><polygon points="203,469 213,455 217,461 213,470 218,472 214,478 221,482 222,474 239,487 236,490 229,488 232,494 228,502 224,495 227,488 222,484 220,492 203,480 211,475 210,471 203,469" fill="#c8c2b8" stroke="#00000033"/><polygon points="223,164 238,175 240,168 244,171 242,179 263,174 258,169 258,155 252,158 251,168 245,170 238,165 241,161 246,163 250,159 235,148 233,151 236,157 234,160 232,158 232,163 228,160 223,164" fill="#c8c2b8" stroke="#00000033"/><polygon points="57,608 50,608 50,604 53,601 63,599 58,592 60,587 70,596 79,598 72,603 79,606 82,601 94,607 90,613 86,611 91,617 90,622 71,611 78,607 67,600 65,603 68,604 68,608 57,608" fill="#c8c2b8" stroke="#00000033"/><polygon points="146,271 153,279 159,281 155,286 159,289 168,288 163,281 176,280 181,276 182,285 173,287 178,294 157,298 159,291 154,288 153,295 138,284 142,280 148,281 144,277 146,271" fill="#c8c2b8" stroke="#00000033"/><polygon points="198,264 194,258 202,256 201,246 196,251 184,251 188,258 175,260 178,254 175,254 165,245 164,253 157,257 172,268 174,261 179,261 177,268 198,264" fill="#c8c2b8" stroke="#00000033"/><polygon points="147,557 149,552 159,557 154,561 153,566 160,570 161,562 177,572 170,576 179,580 176,589 160,580 167,575 158,570 157,577 151,574 151,569 148,567 144,571 139,569 145,559 149,563 150,560 147,557" fill="#c8c2b8" stroke="#00000033"/><polygon points="190,374 205,385 198,389 203,393 209,389 218,395 214,399 209,399 212,404 210,409 195,398 202,394 197,390 194,395 179,386 183,382 191,385 188,379 190,374" fill="#c8c2b8" stroke="#00000033"/><polygon points="5,609 -16,609 -13,602 -16,602 -23,609 -29,602 -24,598 -25,596 -29,599 -34,594 -29,592 -25,586 -18,595 -22,598 -19,602 -11,600 -11,594 5,593 4,598 -2,601 4,603 5,609" fill="#c8c2b8" stroke="#00000033"/><polygon points="15,572 8,570 9,576 -4,576 -4,570 0,569 0,564 11,564 10,569 18,569 15,562 22,562 22,564 31,564 29,572 32,572 33,577 12,577 12,572 15,572" fill="#c8c2b8" stroke="#00000033"/><polygon points="107,521 125,532 118,536 124,540 126,535 136,540 131,544 130,551 118,544 122,540 117,537 114,542 100,536 103,532 110,532 105,526 107,521" fill="#c8c2b8" stroke="#00000033"/><polygon points="205,190 216,195 220,200 223,194 229,198 223,201 224,206 234,203 241,204 239,195 230,197 225,194 232,190 214,177 212,183 216,187 208,187 205,190" fill="#c8c2b8" stroke="#00000033"/><polygon points="44,608 23,608 27,601 18,601 19,607 9,607 12,601 9,595 23,594 22,600 25,600 25,594 41,592 40,598 35,601 43,603 44,608" fill="#c8c2b8" stroke="#00000033"/><polygon points="155,184 151,188 155,192 150,197 157,202 160,198 162,200 159,204 167,210 170,205 173,207 169,211 177,217 180,212 178,210 185,206 175,201 175,198 171,204 167,201 170,196 163,192 158,195 161,191 155,184" fill="#c8c2b8" stroke="#00000033"/><polygon points="81,545 84,540 93,546 84,553 89,555 83,565 79,561 76,566 82,573 80,577 65,568 70,565 73,557 78,560 81,555 75,553 78,547 82,547 81,545" fill="#c8c2b8" stroke="#00000033"/><polygon points="96,582 93,580 90,586 83,581 89,574 87,573 89,569 101,577 98,582 102,584 106,578 114,578 104,597 100,593 101,591 94,587 96,582" fill="#c8c2b8" stroke="#00000033"/><polygon points="117,242 123,242 123,256 116,255 117,257 122,261 127,258 133,261 130,266 125,265 127,268 125,273 110,263 116,258 113,252 110,252 110,246 116,247 117,242" fill="#c8c2b8" stroke="#00000033"/><polyline points="-54,554 -40,551 98,425 129,393 175,335 183,341 335,132 368,167 412,235 419,231 443,261 473,285 862,468" fill="none" stroke="#ffdd44" stroke-width="6" opacity="0.85"/><circle cx="-54" cy="554" r="10" fill="#a0f"/><circle cx="862" cy="468" r="10" fill="#f00"/><path d="M-61.19693094573136,528.9514066496167 L-45.19693094573136,528.9514066496167 M-53.19693094573136,520.9514066496167 L-53.19693094573136,536.9514066496167" stroke="#0ff" stroke-width="2"/><path d="M986.37340153497,103.3759590792954 L1002.37340153497,103.3759590792954 M994.37340153497,95.3759590792954 L994.37340153497,111.3759590792954" stroke="#0ff" stroke-width="2"/><rect x="89" y="480" width="22" height="16" fill="#b8c2cc" stroke="#333"/><rect x="137" y="516" width="22" height="16" fill="#b8c2cc" stroke="#333"/><rect x="149" y="420" width="22" height="16" fill="#b8c2cc" stroke="#333"/><rect x="209" y="360" width="22" height="16" fill="#b8c2cc" stroke="#333"/><rect x="245" y="312" width="22" height="16" fill="#b8c2cc" stroke="#333"/><rect x="257" y="396" width="22" height="16" fill="#b8c2cc" stroke="#333"/><rect x="281" y="264" width="22" height="16" fill="#b8c2cc" stroke="#333"/><rect x="293" y="348" width="22" height="16" fill="#b8c2cc" stroke="#333"/><rect x="329" y="300" width="22" height="16" fill="#b8c2cc" stroke="#333"/><rect x="305" y="72" width="22" height="16" fill="#b8c2cc" stroke="#333"/><rect x="365" y="96" width="22" height="16" fill="#b8c2cc" stroke="#333"/><rect x="401" y="144" width="22" height="16" fill="#b8c2cc" stroke="#333"/><rect x="461" y="216" width="22" height="16" fill="#b8c2cc" stroke="#333"/><rect x="413" y="300" width="22" height="16" fill="#b8c2cc" stroke="#333"/><rect x="521" y="228" width="22" height="16" fill="#b8c2cc" stroke="#333"/><rect x="461" y="372" width="22" height="16" fill="#b8c2cc" stroke="#333"/><circle cx="188" cy="485" r="6" fill="#e8862a" stroke="#333"/><circle cx="196" cy="410" r="6" fill="#e8862a" stroke="#333"/><circle cx="111" cy="456" r="6" fill="#e8862a" stroke="#333"/><circle cx="106" cy="563" r="6" fill="#e8862a" stroke="#333"/><circle cx="50" cy="121" r="6" fill="#e8862a" stroke="#333"/><circle cx="46" cy="200" r="6" fill="#e8862a" stroke="#333"/><circle cx="210" cy="125" r="6" fill="#e8862a" stroke="#333"/><circle cx="143" cy="59" r="6" fill="#e8862a" stroke="#333"/><text x="471" y="333" font-size="13" fill="#fff" text-anchor="middle" stroke="#000" stroke-width="0.4">Yishun Dam</text><text x="480" y="20" font-size="16" fill="#fff" text-anchor="middle">3: Yishun Dam</text></svg>