<svg xmlns="http://www.w3.org/2000/svg" width="960" height="600" viewBox="0 0 960 600"><rect width="960" height="600" fill="#6aa03c"/><polygon points="391,155 441,237 485,253 505,249 519,174 484,138 488,88 461,54 476,32 515,11 590,34 624,34 646,43 658,19 659,-15 649,-42 665,-88 711,-97 748,-140 819,-283 826,-378 786,-466 750,-528 703,-562 665,-574 558,-599 501,-596 464,-559 391,-540 279,-423 219,-390 166,-319 218,-303 208,-256 186,-215 137,-144 125,-61 201,7 257,52 358,124 391,155" fill="#4c8a2c" opacity="0.7"/><polygon points="-77,622 0,541 23,552 20,579 38,604 55,607 56,594 87,594 104,605 103,620 89,625 127,653 106,678 65,652 57,658 -54,645 -77,622" fill="#4c8a2c" opacity="0.7"/><polygon points="0,541 23,518 45,532 116,531 140,546 143,578 164,591 127,653 89,625 103,620 104,605 87,594 56,594 55,607 38,604 20,579 23,552 0,541" fill="#4c8a2c" opacity="0.7"/><polygon points="870,471 927,496 931,513 924,537 843,673 829,666 816,666 802,659 855,572 858,573 863,563 886,541 892,526 898,504 896,500 870,471" fill="#4c8a2c" opacity="0.7"/><polygon points="60,169 52,140 84,141 105,138 95,107 108,97 130,117 140,141 140,166 60,169" fill="#4c8a2c" opacity="0.7"/><polygon points="303,211 325,182 343,151 371,180 412,238 383,223 350,212 303,211" fill="#4c8a2c" opacity="0.7"/><polygon points="288,248 259,267 230,312 283,350 283,278 288,248" fill="#4c8a2c" opacity="0.7"/><polygon points="59,343 18,343 18,400 59,400 59,343" fill="#4c8a2c" opacity="0.7"/><polygon points="-998,1221 -976,1272 -982,1283 -961,1305 -958,1322 -951,1326 -934,1330 -905,1330 -899,1323 -897,1310 -889,1306 -878,1306 -869,1321 -834,1332 -823,1332 -803,1340 -792,1340 -771,1330 -743,1323 -723,1326 -718,1333 -692,1344 -685,1357 -674,1362 -652,1360 -642,1369 -623,1372 -611,1381 -546,1415 -534,1422 -527,1432 -503,1434 -500,1449 -478,1463 -467,1464 -443,1452 -430,1453 -413,1449 -401,1438 -387,1413 -381,1415 -368,1431 -351,1435 -301,1423 -278,1412 -264,1387 -244,1392 -228,1391 -216,1383 -199,1355 -192,1329 -181,1324 -151,1279 -137,1288 -126,1289 -111,1286 -90,1266 -87,1235 -79,1231 -66,1240 -51,1241 -38,1236 -27,1226 -23,1215 -28,1187 -26,1174 -29,1160 -39,1150 -57,1146 -57,1130 -34,1119 23,1069 39,1059 74,1013 73,998 91,979 105,968 131,937 159,915 164,907 161,884 172,873 175,864 175,836 168,818 173,808 173,798 214,763 219,740 244,702 242,686 254,670 267,669 279,661 314,624 322,610 345,598 363,583 410,534 451,456 456,439 458,373 478,318 483,310 489,310 494,301 519,312 513,329 520,342 526,345 535,343 547,326 559,327 870,471 896,500 896,515 886,541 863,563 858,573 855,572 844,588 829,617 804,654 779,701 764,765 771,768 771,772 763,774 758,804 764,809 764,814 756,816 741,838 685,832 657,873 653,887 646,883 638,891 635,890 616,914 630,939 622,957 621,970 586,1002 577,1020 564,1032 541,1044 519,1060 525,1071 505,1093 473,1118 448,1117 417,1133 403,1146 401,1159 362,1204 347,1207 332,1218 304,1228 306,1240 304,1245 291,1246 289,1252 293,1270 290,1288 294,1294 281,1297 279,1289 272,1283 259,1285 240,1267 205,1288 205,1299 177,1343 166,1350 160,1373 153,1383 146,1389 129,1392 120,1405 124,1426 130,1432 123,1437 123,1444 109,1449 89,1468 89,1484 81,1491 78,1488 63,1493 44,1511 38,1511 32,1504 -5,1526 -24,1547 -51,1562 -86,1590 -117,1620 -125,1621 -125,1629 -120,1629 -120,1633 -131,1637 -131,1646 -142,1644 -148,1654 -160,1657 -164,1666 -171,1659 -180,1663 -179,1668 -190,1667 -199,1675 -211,1676 -227,1695 -247,1702 -259,1699 -278,1704 -278,1712 -286,1726 -294,1725 -298,1719 -315,1715 -328,1723 -337,1740 -330,1748 -324,1783 -324,1812 -319,1818 -315,1834 -329,1852 -336,1868 -321,1882 -319,1893 -313,1896 -316,1902 -307,1935 -320,1956 -326,1956 -353,1979 -364,1979 -376,1967 -373,1964 -389,1951 -393,1943 -417,1929 -411,1922 -414,1917 -431,1916 -465,1903 -468,1883 -473,1873 -474,1857 -458,1851 -469,1841 -484,1847 -492,1839 -488,1820 -481,1806 -482,1790 -492,1792 -497,1798 -492,1802 -494,1816 -523,1826 -532,1825 -541,1828 -549,1847 -563,1852 -553,1859 -541,1859 -542,1876 -551,1905 -560,1903 -563,1919 -561,1930 -562,1943 -586,1962 -581,1970 -583,1977 -569,1998 -580,2011 -595,2019 -610,2041 -624,2077 -673,2112 -718,2124 -753,2129 -792,2110 -817,2108 -855,2114 -873,2131 -887,2123 -958,2096 -1025,2056 -1045,2035 -1059,2027 -1043,2006 -1041,1992 -1023,1951 -1008,1939 -984,1944 -971,1933 -960,1916 -970,1878 -1008,1836 -1048,1836 -1062,1840 -1073,1829 -1069,1777 -1073,1728 -1062,1696 -1042,1678 -1006,1653 -1006,1637 -962,1612 -945,1611 -889,1569 -905,1555 -907,1542 -921,1541 -952,1524 -1000,1521 -1015,1528 -1030,1517 -1041,1522 -1038,1532 -1103,1548 -1141,1552 -1174,1562 -1249,1595 -1269,1607 -1282,1622 -1318,1648 -1330,1666 -1332,1686 -1348,1756 -1348,1766 -1363,1780 -1384,1794 -1391,1780 -1399,1795 -1413,1804 -1443,1802 -1455,1793 -1458,1773 -1450,1668 -1440,1625 -1419,1568 -1381,1484 -1368,1427 -1366,1392 -1357,1372 -1363,1368 -1350,1370 -1340,1380 -1331,1362 -1323,1356 -1314,1350 -1300,1350 -1297,1341 -1299,1317 -1296,1316 -1293,1316 -1289,1344 -1281,1345 -1258,1340 -1249,1341 -1242,1348 -1213,1336 -1189,1330 -1187,1333 -1177,1323 -1130,1298 -1095,1272 -1081,1275 -1076,1274 -1072,1269 -1057,1266 -1055,1261 -1060,1247 -1039,1236 -998,1221" fill="#2e7bb4"/><rect x="680" y="0" width="280" height="16" fill="#2e7bb4"/><rect x="672" y="16" width="288" height="32" fill="#2e7bb4"/><rect x="664" y="48" width="296" height="8" fill="#2e7bb4"/><rect x="656" y="56" width="304" height="8" fill="#2e7bb4"/><rect x="640" y="64" width="320" height="8" fill="#2e7bb4"/><rect x="632" y="72" width="328" height="8" fill="#2e7bb4"/><rect x="616" y="80" width="344" height="8" fill="#2e7bb4"/><rect x="608" y="88" width="352" height="8" fill="#2e7bb4"/><rect x="560" y="96" width="24" height="8" fill="#2e7bb4"/><rect x="600" y="96" width="360" height="8" fill="#2e7bb4"/><rect x="560" y="104" width="400" height="16" fill="#2e7bb4"/><rect x="552" y="120" width="408" height="16" fill="#2e7bb4"/><rect x="544" y="136" width="416" height="16" fill="#2e7bb4"/><rect x="536" y="152" width="424" height="56" fill="#2e7bb4"/><rect x="528" y="208" width="432" height="8" fill="#2e7bb4"/><rect x="520" y="216" width="440" height="24" fill="#2e7bb4"/><rect x="512" y="240" width="448" height="16" fill="#2e7bb4"/><rect x="504" y="256" width="456" height="8" fill="#2e7bb4"/><rect x="512" y="264" width="448" height="8" fill="#2e7bb4"/><rect x="504" y="272" width="32" height="8" fill="#2e7bb4"/><rect x="544" y="272" width="416" height="8" fill="#2e7bb4"/><rect x="520" y="280" width="8" height="8" fill="#2e7bb4"/><rect x="560" y="280" width="400" height="16" fill="#2e7bb4"/><rect x="568" y="296" width="392" height="8" fill="#2e7bb4"/><rect x="584" y="304" width="376" height="8" fill="#2e7bb4"/><rect x="600" y="312" width="360" height="8" fill="#2e7bb4"/><rect x="616" y="320" width="344" height="8" fill="#2e7bb4"/><rect x="632" y="328" width="328" height="8" fill="#2e7bb4"/><rect x="656" y="336" width="304" height="8" fill="#2e7bb4"/><rect x="672" y="344" width="288" height="8" fill="#2e7bb4"/><rect x="688" y="352" width="272" height="8" fill="#2e7bb4"/><rect x="704" y="360" width="256" height="8" fill="#2e7bb4"/><rect x="720" y="368" width="240" height="8" fill="#2e7bb4"/><rect x="744" y="376" width="192" height="8" fill="#2e7bb4"/><rect x="760" y="384" width="168" height="8" fill="#2e7bb4"/><rect x="776" y="392" width="144" height="8" fill="#2e7bb4"/><rect x="792" y="400" width="152" height="8" fill="#2e7bb4"/><rect x="816" y="408" width="136" height="8" fill="#2e7bb4"/><rect x="824" y="416" width="128" height="8" fill="#2e7bb4"/><rect x="840" y="424" width="112" height="8" fill="#2e7bb4"/><rect x="856" y="432" width="88" height="8" fill="#2e7bb4"/><rect x="872" y="440" width="64" height="8" fill="#2e7bb4"/><rect x="888" y="448" width="40" height="8" fill="#2e7bb4"/><polyline points="24,502 17,495" fill="none" stroke="#8a8f98" stroke-width="8" stroke-linecap="round"/><polyline points="37,478 150,375 175,349" fill="none" stroke="#8a8f98" stroke-width="10" stroke-linecap="round"/><polyline points="17,495 3,479" fill="none" stroke="#8a8f98" stroke-width="8" stroke-linecap="round"/><polyline points="24,502 0,524 -28,555" fill="none" stroke="#8a8f98" stroke-width="10" stroke-linecap="round"/><polyline points="216,311 188,348 158,381 81,451" fill="none" stroke="#8a8f98" stroke-width="10" stroke-linecap="round"/><polyline points="8,475 22,491" fill="none" stroke="#8a8f98" stroke-width="8" stroke-linecap="round"/><polyline points="-3,514 4,500 3,479" fill="none" stroke="#8a8f98" stroke-width="10" stroke-linecap="round"/><polyline points="8,475 22,481 37,478" fill="none" stroke="#8a8f98" stroke-width="10" stroke-linecap="round"/><polyline points="8,279 64,279" fill="none" stroke="#8a8f98" stroke-width="5" stroke-linecap="round"/><polyline points="-3,514 17,495" fill="none" stroke="#8a8f98" stroke-width="10" stroke-linecap="round"/><polyline points="-1,455 8,475" fill="none" stroke="#8a8f98" stroke-width="8" stroke-linecap="round"/><polyline points="14,284 -3,291 -10,303" fill="none" stroke="#8a8f98" stroke-width="8" stroke-linecap="round"/><polyline points="14,284 -10,284" fill="none" stroke="#8a8f98" stroke-width="5" stroke-linecap="round"/><polyline points="91,283 73,283" fill="none" stroke="#8a8f98" stroke-width="5" stroke-linecap="round"/><polyline points="33,285 14,284" fill="none" stroke="#8a8f98" stroke-width="5" stroke-linecap="round"/><polyline points="28,498 24,502" fill="none" stroke="#8a8f98" stroke-width="10" stroke-linecap="round"/><polyline points="22,491 28,498" fill="none" stroke="#8a8f98" stroke-width="8" stroke-linecap="round"/><polyline points="17,495 22,491" fill="none" stroke="#8a8f98" stroke-width="10" stroke-linecap="round"/><polyline points="95,296 120,351" fill="none" stroke="#8a8f98" stroke-width="3" stroke-linecap="round"/><polyline points="8,361 8,415" fill="none" stroke="#8a8f98" stroke-width="3" stroke-linecap="round"/><polyline points="8,415 57,415" fill="none" stroke="#8a8f98" stroke-width="3" stroke-linecap="round"/><polyline points="68,463 28,498" fill="none" stroke="#8a8f98" stroke-width="10" stroke-linecap="round"/><polyline points="62,284 33,285" fill="none" stroke="#8a8f98" stroke-width="5" stroke-linecap="round"/><polyline points="-10,279 8,279" fill="none" stroke="#8a8f98" stroke-width="5" stroke-linecap="round"/><polyline points="22,491 37,478" fill="none" stroke="#8a8f98" stroke-width="10" stroke-linecap="round"/><polyline points="64,279 76,279" fill="none" stroke="#8a8f98" stroke-width="5" stroke-linecap="round"/><polyline points="76,279 89,278" fill="none" stroke="#8a8f98" stroke-width="5" stroke-linecap="round"/><polyline points="73,283 62,284" fill="none" stroke="#8a8f98" stroke-width="5" stroke-linecap="round"/><polyline points="209,306 213,302" fill="none" stroke="#8a8f98" stroke-width="10" stroke-linecap="round"/><polyline points="175,349 200,319" fill="none" stroke="#8a8f98" stroke-width="10" stroke-linecap="round"/><polyline points="81,451 68,463" fill="none" stroke="#8a8f98" stroke-width="10" stroke-linecap="round"/><polyline points="200,319 197,297" fill="none" stroke="#8a8f98" stroke-width="10" stroke-linecap="round"/><polyline points="197,290 211,291 222,288" fill="none" stroke="#8a8f98" stroke-width="10" stroke-linecap="round"/><polyline points="200,319 209,306" fill="none" stroke="#8a8f98" stroke-width="10" stroke-linecap="round"/><polyline points="213,302 219,307" fill="none" stroke="#8a8f98" stroke-width="5" stroke-linecap="round"/><polyline points="216,311 209,306" fill="none" stroke="#8a8f98" stroke-width="5" stroke-linecap="round"/><polyline points="219,307 216,311" fill="none" stroke="#8a8f98" stroke-width="10" stroke-linecap="round"/><polyline points="165,303 130,346" fill="none" stroke="#8a8f98" stroke-width="3" stroke-linecap="round"/><polyline points="165,303 147,291 130,293 108,305" fill="none" stroke="#8a8f98" stroke-width="3" stroke-linecap="round"/><polyline points="179,284 170,277" fill="none" stroke="#8a8f98" stroke-width="5" stroke-linecap="round"/><polyline points="209,306 197,297" fill="none" stroke="#8a8f98" stroke-width="5" stroke-linecap="round"/><polyline points="197,290 213,302" fill="none" stroke="#8a8f98" stroke-width="5" stroke-linecap="round"/><polyline points="179,276 197,290" fill="none" stroke="#8a8f98" stroke-width="5" stroke-linecap="round"/><polyline points="3,479 -6,461" fill="none" stroke="#8a8f98" stroke-width="8" stroke-linecap="round"/><polyline points="197,297 179,284" fill="none" stroke="#8a8f98" stroke-width="5" stroke-linecap="round"/><polyline points="14,338 63,338 63,353" fill="none" stroke="#8a8f98" stroke-width="3" stroke-linecap="round"/><polyline points="507,292 481,281" fill="none" stroke="#8a8f98" stroke-width="10" stroke-linecap="round"/><polyline points="544,310 535,306" fill="none" stroke="#8a8f98" stroke-width="10" stroke-linecap="round"/><polyline points="526,301 507,292" fill="none" stroke="#8a8f98" stroke-width="10" stroke-linecap="round"/><polyline points="535,306 526,301" fill="none" stroke="#8a8f98" stroke-width="10" stroke-linecap="round"/><polyline points="902,478 544,310" fill="none" stroke="#8a8f98" stroke-width="10" stroke-linecap="round"/><polyline points="339,123 348,130" fill="none" stroke="#8a8f98" stroke-width="10" stroke-linecap="round"/><polyline points="421,253 351,222 310,220 292,228 254,258" fill="none" stroke="#8a8f98" stroke-width="10" stroke-linecap="round"/><polyline points="343,137 309,182" fill="none" stroke="#8a8f98" stroke-width="10" stroke-linecap="round"/><polyline points="-11,256 -4,270 1,276 8,279" fill="none" stroke="#8a8f98" stroke-width="8" stroke-linecap="round"/><polyline points="213,302 280,207" fill="none" stroke="#8a8f98" stroke-width="10" stroke-linecap="round"/><polyline points="411,217 440,251 455,261 484,275" fill="none" stroke="#8a8f98" stroke-width="10" stroke-linecap="round"/><polyline points="170,277 148,259" fill="none" stroke="#8a8f98" stroke-width="5" stroke-linecap="round"/><polyline points="343,137 334,129" fill="none" stroke="#8a8f98" stroke-width="10" stroke-linecap="round"/><polyline points="481,281 451,267" fill="none" stroke="#8a8f98" stroke-width="10" stroke-linecap="round"/><polyline points="484,275 905,473" fill="none" stroke="#8a8f98" stroke-width="10" stroke-linecap="round"/><polyline points="357,319 387,279 421,253" fill="none" stroke="#8a8f98" stroke-width="3" stroke-linecap="round"/><polyline points="123,262 112,275 91,283" fill="none" stroke="#8a8f98" stroke-width="5" stroke-linecap="round"/><polyline points="89,278 108,270 129,243" fill="none" stroke="#8a8f98" stroke-width="5" stroke-linecap="round"/><polyline points="169,268 179,276" fill="none" stroke="#8a8f98" stroke-width="5" stroke-linecap="round"/><polyline points="247,267 219,307" fill="none" stroke="#8a8f98" stroke-width="10" stroke-linecap="round"/><polyline points="320,119 270,90 216,54" fill="none" stroke="#8a8f98" stroke-width="10" stroke-linecap="round"/><polyline points="178,9 213,41 260,73" fill="none" stroke="#8a8f98" stroke-width="10" stroke-linecap="round"/><polyline points="280,207 322,148" fill="none" stroke="#8a8f98" stroke-width="10" stroke-linecap="round"/><polyline points="322,148 324,133 320,119" fill="none" stroke="#8a8f98" stroke-width="10" stroke-linecap="round"/><polyline points="322,148 334,129" fill="none" stroke="#8a8f98" stroke-width="10" stroke-linecap="round"/><polyline points="153,147 154,209 148,227" fill="none" stroke="#8a8f98" stroke-width="5" stroke-linecap="round"/><polyline points="132,239 149,204 148,147" fill="none" stroke="#8a8f98" stroke-width="5" stroke-linecap="round"/><polyline points="34,12 62,23 99,53 109,54 145,14 142,6 102,-30" fill="none" stroke="#8a8f98" stroke-width="3" stroke-linecap="round"/><polyline points="154,25 156,13 155,2" fill="none" stroke="#8a8f98" stroke-width="10" stroke-linecap="round"/><polyline points="91,62 105,66 116,64" fill="none" stroke="#8a8f98" stroke-width="5" stroke-linecap="round"/><polyline points="105,76 135,45" fill="none" stroke="#8a8f98" stroke-width="5" stroke-linecap="round"/><polyline points="125,64 119,79 123,92" fill="none" stroke="#8a8f98" stroke-width="5" stroke-linecap="round"/><polyline points="188,31 171,26 158,29" fill="none" stroke="#8a8f98" stroke-width="10" stroke-linecap="round"/><polyline points="171,16 148,40" fill="none" stroke="#8a8f98" stroke-width="5" stroke-linecap="round"/><polyline points="334,129 339,123" fill="none" stroke="#8a8f98" stroke-width="10" stroke-linecap="round"/><polyline points="101,80 105,76" fill="none" stroke="#8a8f98" stroke-width="5" stroke-linecap="round"/><polyline points="3,21 33,23 50,28 105,76" fill="none" stroke="#8a8f98" stroke-width="5" stroke-linecap="round"/><polyline points="135,45 154,25" fill="none" stroke="#8a8f98" stroke-width="5" stroke-linecap="round"/><polyline points="166,12 81,-69" fill="none" stroke="#8a8f98" stroke-width="10" stroke-linecap="round"/><polyline points="166,12 173,5" fill="none" stroke="#8a8f98" stroke-width="5" stroke-linecap="round"/><polyline points="105,76 109,79" fill="none" stroke="#8a8f98" stroke-width="5" stroke-linecap="round"/><polyline points="125,64 109,79" fill="none" stroke="#8a8f98" stroke-width="5" stroke-linecap="round"/><polyline points="109,79 105,84" fill="none" stroke="#8a8f98" stroke-width="5" stroke-linecap="round"/><polyline points="178,9 171,16" fill="none" stroke="#8a8f98" stroke-width="5" stroke-linecap="round"/><polyline points="171,16 166,12" fill="none" stroke="#8a8f98" stroke-width="10" stroke-linecap="round"/><polyline points="188,31 171,16" fill="none" stroke="#8a8f98" stroke-width="10" stroke-linecap="round"/><polyline points="134,247 129,243" fill="none" stroke="#8a8f98" stroke-width="5" stroke-linecap="round"/><polyline points="101,80 49,34 30,27 6,27" fill="none" stroke="#8a8f98" stroke-width="5" stroke-linecap="round"/><polyline points="105,84 101,80" fill="none" stroke="#8a8f98" stroke-width="5" stroke-linecap="round"/><polyline points="173,5 178,9" fill="none" stroke="#8a8f98" stroke-width="10" stroke-linecap="round"/><polyline points="154,25 166,12" fill="none" stroke="#8a8f98" stroke-width="5" stroke-linecap="round"/><polyline points="254,258 247,267" fill="none" stroke="#8a8f98" stroke-width="10" stroke-linecap="round"/><polyline points="30,111 28,58 37,56 44,63" fill="none" stroke="#8a8f98" stroke-width="3" stroke-linecap="round"/><polyline points="42,112 56,87 69,79 73,72" fill="none" stroke="#8a8f98" stroke-width="3" stroke-linecap="round"/><polyline points="148,259 136,257 123,262" fill="none" stroke="#8a8f98" stroke-width="5" stroke-linecap="round"/><polyline points="148,227 146,241 150,253" fill="none" stroke="#8a8f98" stroke-width="5" stroke-linecap="round"/><polyline points="137,242 150,253" fill="none" stroke="#8a8f98" stroke-width="5" stroke-linecap="round"/><polyline points="132,239 137,242" fill="none" stroke="#8a8f98" stroke-width="5" stroke-linecap="round"/><polyline points="137,242 134,247" fill="none" stroke="#8a8f98" stroke-width="5" stroke-linecap="round"/><polyline points="129,243 132,239" fill="none" stroke="#8a8f98" stroke-width="5" stroke-linecap="round"/><polyline points="114,92 105,84" fill="none" stroke="#8a8f98" stroke-width="5" stroke-linecap="round"/><polyline points="135,-31 173,5" fill="none" stroke="#8a8f98" stroke-width="10" stroke-linecap="round"/><polyline points="216,54 188,31" fill="none" stroke="#8a8f98" stroke-width="10" stroke-linecap="round"/><polyline points="260,73 339,123" fill="none" stroke="#8a8f98" stroke-width="10" stroke-linecap="round"/><polyline points="42,112 44,122 51,131 70,137" fill="none" stroke="#8a8f98" stroke-width="3" stroke-linecap="round"/><polyline points="53,268 11,267 4,261 1,224" fill="none" stroke="#8a8f98" stroke-width="3" stroke-linecap="round"/><polyline points="150,109 130,86 129,78 168,37 174,37 231,82 301,121 306,144 301,154" fill="none" stroke="#8a8f98" stroke-width="3" stroke-linecap="round"/><polyline points="148,259 134,247" fill="none" stroke="#8a8f98" stroke-width="5" stroke-linecap="round"/><polyline points="142,45 125,64" fill="none" stroke="#8a8f98" stroke-width="5" stroke-linecap="round"/><polyline points="309,182 254,258" fill="none" stroke="#8a8f98" stroke-width="10" stroke-linecap="round"/><polyline points="134,247 123,262" fill="none" stroke="#8a8f98" stroke-width="5" stroke-linecap="round"/><polyline points="148,40 142,45" fill="none" stroke="#8a8f98" stroke-width="5" stroke-linecap="round"/><polyline points="334,129 320,119" fill="none" stroke="#8a8f98" stroke-width="10" stroke-linecap="round"/><polyline points="148,147 140,121 114,92" fill="none" stroke="#8a8f98" stroke-width="5" stroke-linecap="round"/><polyline points="109,79 142,114 150,130 153,147" fill="none" stroke="#8a8f98" stroke-width="5" stroke-linecap="round"/><polyline points="1,219 0,171" fill="none" stroke="#8a8f98" stroke-width="3" stroke-linecap="round"/><polyline points="136,208 128,226 101,264 90,268 53,268" fill="none" stroke="#8a8f98" stroke-width="3" stroke-linecap="round"/><polyline points="182,180 194,176 193,153 190,149 164,150 157,123 150,109" fill="none" stroke="#8a8f98" stroke-width="3" stroke-linecap="round"/><polyline points="150,253 169,268" fill="none" stroke="#8a8f98" stroke-width="5" stroke-linecap="round"/><polyline points="-18,22 3,21" fill="none" stroke="#8a8f98" stroke-width="5" stroke-linecap="round"/><polyline points="6,27 -18,27" fill="none" stroke="#8a8f98" stroke-width="5" stroke-linecap="round"/><polyline points="6,27 -7,32 -14,39 -17,48" fill="none" stroke="#8a8f98" stroke-width="8" stroke-linecap="round"/><polyline points="-19,1 -12,16 3,21" fill="none" stroke="#8a8f98" stroke-width="8" stroke-linecap="round"/><polyline points="148,227 137,242" fill="none" stroke="#8a8f98" stroke-width="5" stroke-linecap="round"/><polyline points="197,172 205,172 243,199" fill="none" stroke="#8a8f98" stroke-width="3" stroke-linecap="round"/><polyline points="229,189 183,251" fill="none" stroke="#8a8f98" stroke-width="3" stroke-linecap="round"/><polyline points="192,204 225,228" fill="none" stroke="#8a8f98" stroke-width="3" stroke-linecap="round"/><polyline points="375,173 343,137" fill="none" stroke="#8a8f98" stroke-width="10" stroke-linecap="round"/><polyline points="348,130 343,137" fill="none" stroke="#8a8f98" stroke-width="10" stroke-linecap="round"/><polyline points="405,221 375,173" fill="none" stroke="#8a8f98" stroke-width="10" stroke-linecap="round"/><polyline points="427,246 405,221" fill="none" stroke="#8a8f98" stroke-width="10" stroke-linecap="round"/><polyline points="451,267 427,246" fill="none" stroke="#8a8f98" stroke-width="10" stroke-linecap="round"/><polyline points="405,221 411,217" fill="none" stroke="#8a8f98" stroke-width="10" stroke-linecap="round"/><polyline points="395,191 410,216" fill="none" stroke="#8a8f98" stroke-width="10" stroke-linecap="round"/><polyline points="348,130 371,155 395,191" fill="none" stroke="#8a8f98" stroke-width="10" stroke-linecap="round"/><polyline points="410,216 411,217" fill="none" stroke="#8a8f98" stroke-width="10" stroke-linecap="round"/><polyline points="451,267 421,253" fill="none" stroke="#8a8f98" stroke-width="10" stroke-linecap="round"/><polyline points="958,508 933,544 882,631" fill="none" stroke="#8a8f98" stroke-width="8" stroke-linecap="round"/><polyline points="927,538 933,513 933,505 927,490 919,485" fill="none" stroke="#8a8f98" stroke-width="10" stroke-linecap="round"/><polyline points="996,463 958,508" fill="none" stroke="#8a8f98" stroke-width="8" stroke-linecap="round"/><polyline points="955,501 958,508" fill="none" stroke="#8a8f98" stroke-width="10" stroke-linecap="round"/><polyline points="958,508 951,505" fill="none" stroke="#8a8f98" stroke-width="10" stroke-linecap="round"/><polyline points="928,483 948,490 966,487" fill="none" stroke="#8a8f98" stroke-width="10" stroke-linecap="round"/><polyline points="892,597 901,580" fill="none" stroke="#8a8f98" stroke-width="8" stroke-linecap="round"/><polyline points="919,485 902,478" fill="none" stroke="#8a8f98" stroke-width="10" stroke-linecap="round"/><polyline points="905,473 928,483" fill="none" stroke="#8a8f98" stroke-width="10" stroke-linecap="round"/><polyline points="928,483 955,501" fill="none" stroke="#8a8f98" stroke-width="10" stroke-linecap="round"/><polyline points="951,505 919,485" fill="none" stroke="#8a8f98" stroke-width="10" stroke-linecap="round"/><polyline points="921,601 958,539 981,510 996,500 1022,492" fill="none" stroke="#8a8f98" stroke-width="5" stroke-linecap="round"/><polyline points="856,654 892,597" fill="none" stroke="#8a8f98" stroke-width="8" stroke-linecap="round"/><polyline points="885,561 860,587 824,648 819,670" fill="none" stroke="#8a8f98" stroke-width="3" stroke-linecap="round"/><polyline points="901,580 927,538" fill="none" stroke="#8a8f98" stroke-width="8" stroke-linecap="round"/><polygon points="197,168 217,164 215,166 226,172 224,174 234,180 236,177 234,173 244,180 245,182 241,181 237,184 249,192 251,189 253,191 252,197 258,196 260,210 253,212 253,223 239,228 241,236 231,238 232,244 220,247 220,252 224,251 225,255 218,264 217,254 203,258 207,263 200,265 196,262 200,258 189,250 188,255 179,248 173,254 156,239 165,210 163,190 181,189 182,208 190,208 191,186 198,175 197,168" fill="#c8c2b8" stroke="#00000033"/><polygon points="64,308 64,302 39,303 39,299 20,302 20,325 17,325 17,337 65,337 65,360 71,360 71,363 95,363 95,366 117,363 117,349 111,349 111,347 82,349 82,340 99,338 99,321 94,321 94,308 80,305 80,318 77,318 77,299 65,299 64,308" fill="#c8c2b8" stroke="#00000033"/><polygon points="-2,45 -2,100 1,103 25,102 26,53 21,47 21,39 2,40 -2,45" fill="#c8c2b8" stroke="#00000033"/><polygon points="126,347 161,305 146,294 128,296 108,307 126,347" fill="#c8c2b8" stroke="#00000033"/><polygon points="127,434 143,444 145,441 148,444 111,493 92,478 127,434" fill="#c8c2b8" stroke="#00000033"/><polygon points="106,385 68,385 69,417 60,428 64,432 111,390 106,385" fill="#c8c2b8" stroke="#00000033"/><polygon points="159,409 183,377 203,392 177,426 159,409" fill="#c8c2b8" stroke="#00000033"/><polygon points="41,-9 56,-9 81,5 82,3 87,5 75,27 36,7 41,-9" fill="#c8c2b8" stroke="#00000033"/><polygon points="207,70 214,75 215,73 243,95 231,113 194,89 207,70" fill="#c8c2b8" stroke="#00000033"/><polygon points="28,174 6,175 4,200 8,216 29,215 28,174" fill="#c8c2b8" stroke="#00000033"/><polygon points="180,132 180,122 199,121 205,130 205,138 202,138 205,144 196,144 194,140 194,143 189,140 190,144 181,145 181,140 177,140 177,145 169,145 169,136 165,140 161,125 167,126 168,121 172,119 174,132 180,132" fill="#c8c2b8" stroke="#00000033"/><polygon points="101,291 107,289 110,294 113,292 108,289 122,281 123,286 128,281 122,280 132,268 135,271 133,275 140,274 141,268 153,277 148,280 152,283 153,278 163,284 161,289 164,286 171,289 169,292 165,292 164,298 151,290 156,287 149,282 148,288 139,279 134,281 134,276 131,288 127,287 127,284 122,288 125,292 116,297 114,293 110,295 111,301 107,302 101,291" fill="#c8c2b8" stroke="#00000033"/><polygon points="941,595 942,593 974,613 965,629 934,606 941,595" fill="#c8c2b8" stroke="#00000033"/><polygon points="2,152 11,157 15,153 14,158 21,160 28,155 26,160 38,161 38,157 34,154 45,150 46,155 41,159 43,163 56,160 53,154 47,154 47,152 53,152 48,138 43,140 44,149 41,150 41,144 27,149 31,154 23,153 24,148 15,147 13,152 14,147 8,144 2,152" fill="#c8c2b8" stroke="#00000033"/><polygon points="46,122 55,127 59,123 58,128 65,131 72,126 70,130 81,133 82,129 78,125 89,122 90,127 85,131 86,135 100,133 97,126 92,126 91,124 97,124 92,110 88,112 88,120 86,121 86,116 72,120 75,125 67,124 68,119 60,118 58,122 58,118 52,114 46,122" fill="#c8c2b8" stroke="#00000033"/><polygon points="155,73 140,70 143,78 131,81 141,92 144,87 149,92 144,95 151,104 155,101 153,98 164,99 156,108 171,109 170,104 165,100 168,101 167,98 171,97 172,93 157,92 159,97 154,97 151,94 156,91 149,83 145,87 143,84 144,80 153,77 155,73" fill="#c8c2b8" stroke="#00000033"/><polygon points="97,198 114,197 111,203 120,203 118,197 127,197 123,203 126,205 128,201 136,202 127,217 124,214 126,206 121,204 119,204 121,209 109,210 104,210 107,204 100,204 99,209 95,209 95,205 91,205 94,207 93,212 79,205 82,201 86,202 86,194 93,199 92,204 100,203 97,198" fill="#c8c2b8" stroke="#00000033"/><polygon points="80,224 97,224 94,230 103,229 100,224 110,223 106,230 109,232 111,228 119,229 110,244 107,241 109,233 104,230 101,230 104,236 92,236 87,237 89,231 83,231 82,236 78,236 78,231 74,231 77,234 76,239 62,231 65,228 69,229 69,221 75,226 74,230 83,230 80,224" fill="#c8c2b8" stroke="#00000033"/><polygon points="210,120 215,128 217,123 223,121 218,114 213,116 214,111 206,111 208,107 202,103 200,107 197,105 200,101 193,96 190,100 188,99 191,93 175,93 176,97 180,100 174,109 189,110 189,106 184,104 189,100 195,104 192,108 199,113 201,109 205,111 202,115 209,120 211,116 214,118 210,120" fill="#c8c2b8" stroke="#00000033"/><polygon points="163,549 162,556 150,548 157,545 154,541 156,538 170,545 164,549 170,552 173,548 177,551 184,550 180,558 176,556 179,558 175,566 170,560 165,569 172,569 164,582 161,579 161,574 157,578 153,576 162,560 166,565 174,555 163,549" fill="#c8c2b8" stroke="#00000033"/><polygon points="7,223 15,223 15,228 19,228 19,223 28,223 28,228 32,228 32,223 39,223 43,229 47,226 43,223 45,218 58,226 55,229 51,228 49,233 52,236 51,240 37,233 40,228 36,228 36,233 29,233 28,229 25,229 25,234 18,234 18,229 15,229 15,234 6,234 7,223" fill="#c8c2b8" stroke="#00000033"/><polygon points="86,369 123,368 123,380 86,381 86,369" fill="#c8c2b8" stroke="#00000033"/><polygon points="35,174 77,173 71,188 63,183 35,185 35,174" fill="#c8c2b8" stroke="#00000033"/><polygon points="281,114 267,106 266,112 261,109 266,105 250,96 248,104 253,107 243,112 258,120 260,116 253,109 254,107 268,115 267,119 262,117 259,121 272,129 272,119 278,118 281,114" fill="#c8c2b8" stroke="#00000033"/><polygon points="160,49 163,64 167,62 169,52 173,51 176,53 172,56 181,64 183,59 189,63 184,66 196,75 198,71 195,68 199,69 203,66 197,62 193,64 189,61 193,58 184,51 182,56 176,51 181,48 169,39 167,52 160,49" fill="#c8c2b8" stroke="#00000033"/><polygon points="212,144 228,143 227,138 232,142 231,148 236,152 237,145 242,149 236,152 249,161 251,156 248,152 251,154 252,149 256,151 259,148 247,139 245,143 247,146 245,150 236,144 241,141 229,132 228,137 223,137 225,132 217,133 212,144" fill="#c8c2b8" stroke="#00000033"/><polygon points="88,172 97,172 99,177 100,172 109,171 107,176 116,176 113,171 128,170 125,176 129,176 131,171 135,169 136,185 131,184 129,177 125,182 122,182 122,177 116,177 118,183 101,183 103,178 97,178 97,183 88,183 90,177 88,172" fill="#c8c2b8" stroke="#00000033"/><polygon points="212,440 217,432 225,438 222,444 220,442 220,447 227,451 228,444 241,452 235,455 239,457 244,453 248,454 239,469 234,461 237,457 231,454 231,461 218,453 223,449 218,447 217,451 209,446 217,442 212,440" fill="#c8c2b8" stroke="#00000033"/><polygon points="34,94 46,92 62,78 57,72 44,87 39,87 38,59 30,60 34,94" fill="#c8c2b8" stroke="#00000033"/><polygon points="104,3 114,9 115,3 120,6 117,10 123,13 126,9 129,11 127,18 122,17 119,24 134,25 132,16 139,20 136,4 131,11 129,8 131,5 125,2 124,5 121,4 123,1 117,-3 116,1 113,-1 116,-4 112,-6 104,3" fill="#c8c2b8" stroke="#00000033"/><polygon points="196,168 202,167 203,162 205,167 214,166 213,162 217,162 215,166 222,171 224,167 228,170 224,174 234,180 236,177 234,174 241,170 228,162 227,168 224,165 226,162 220,157 216,161 216,156 208,156 208,161 204,161 204,157 196,157 198,162 196,168" fill="#c8c2b8" stroke="#00000033"/><polygon points="192,419 195,415 198,421 204,414 197,412 209,397 212,400 210,407 215,403 219,405 213,412 209,408 205,413 211,415 202,427 199,421 197,424 199,426 197,429 203,431 197,438 194,435 195,432 193,430 191,434 184,428 187,425 193,428 192,419" fill="#c8c2b8" stroke="#00000033"/><polygon points="80,27 91,33 92,27 96,30 94,34 100,38 102,34 107,36 104,41 99,40 95,46 110,50 107,43 109,39 116,44 114,28 107,35 108,30 101,26 100,30 98,28 100,25 93,22 92,25 89,24 92,21 89,19 80,27" fill="#c8c2b8" stroke="#00000033"/><polygon points="0,126 9,126 9,121 14,121 12,126 22,129 27,131 27,125 31,127 29,133 44,129 42,125 35,124 36,118 29,120 30,124 23,123 26,118 15,115 15,120 13,115 1,116 0,126" fill="#c8c2b8" stroke="#00000033"/><polygon points="57,105 66,102 64,98 70,97 69,102 85,103 83,97 88,98 87,105 100,97 98,94 91,94 90,88 84,92 86,96 79,96 80,91 69,90 70,95 67,91 56,95 57,105" fill="#c8c2b8" stroke="#00000033"/><polygon points="97,246 91,251 91,256 89,252 82,252 82,256 78,252 75,252 75,257 69,257 71,251 56,252 56,255 63,258 61,264 78,263 75,258 81,258 81,263 88,262 88,257 92,257 95,261 102,256 97,246" fill="#c8c2b8" stroke="#00000033"/><polygon points="166,199 172,199 173,195 177,194 178,209 172,207 173,212 176,214 178,211 184,215 181,219 184,220 186,216 193,221 190,225 192,226 194,223 201,226 198,230 195,229 194,235 188,230 191,226 188,225 186,229 183,226 185,223 182,220 180,225 172,216 171,219 165,214 171,210 171,205 166,205 166,199" fill="#c8c2b8" stroke="#00000033"/><polygon points="128,352 133,357 136,355 134,357 136,357 138,363 149,351 145,349 138,353 136,351 147,340 150,350 160,339 156,338 149,328 144,334 147,336 145,338 143,335 138,340 141,342 139,344 137,341 132,347 134,349 131,348 128,352" fill="#c8c2b8" stroke="#00000033"/><polygon points="176,296 183,299 181,302 183,300 183,303 189,304 179,316 176,313 180,305 177,304 168,316 178,317 169,329 167,325 157,321 161,315 164,317 165,315 162,313 167,307 169,310 171,308 168,306 172,300 175,302 173,299 176,296" fill="#c8c2b8" stroke="#00000033"/><polygon points="12,249 18,253 18,259 20,254 27,254 28,258 31,253 35,253 35,258 41,258 38,252 53,252 53,255 46,259 49,264 32,264 35,259 29,259 29,264 22,264 21,260 18,260 15,264 8,259 12,249" fill="#c8c2b8" stroke="#00000033"/><polygon points="211,394 220,383 223,388 226,384 223,379 226,375 222,373 220,377 212,371 218,368 219,363 223,367 221,370 223,372 225,368 233,374 228,377 229,380 235,376 239,378 229,392 226,386 223,390 226,395 221,402 218,399 220,394 215,396 211,394" fill="#c8c2b8" stroke="#00000033"/><polygon points="35,204 42,204 42,198 45,198 45,203 52,203 52,198 58,198 62,200 60,203 56,202 53,206 67,213 68,208 65,206 67,201 71,202 74,199 61,191 60,198 57,197 56,193 49,193 49,197 45,197 45,192 36,193 35,204" fill="#c8c2b8" stroke="#00000033"/><polygon points="169,517 171,514 178,519 177,524 181,527 182,522 192,525 196,520 202,521 195,534 191,529 189,532 193,537 192,541 179,533 184,530 178,526 177,533 165,525 167,522 173,522 169,517" fill="#c8c2b8" stroke="#00000033"/><polygon points="28,45 45,53 43,56 45,57 47,55 67,73 70,70 69,65 51,49 32,39 28,45" fill="#c8c2b8" stroke="#00000033"/><polygon points="235,412 244,399 247,405 243,412 248,414 245,418 250,422 251,415 265,426 262,429 256,427 259,432 255,438 252,433 255,427 251,424 250,430 235,420 242,416 241,413 235,412" fill="#c8c2b8" stroke="#00000033"/><polygon points="189,250 200,258 196,262 200,265 207,263 203,258 217,254 218,262 211,263 215,268 198,272 199,266 196,263 194,269 182,260 186,257 190,258 187,255 189,250" fill="#c8c2b8" stroke="#00000033"/><polygon points="259,364 263,367 266,362 271,366 269,370 264,368 262,371 266,374 262,380 258,377 256,381 260,383 255,391 252,386 246,385 250,380 254,382 255,380 251,378 256,370 260,373 263,368 245,363 248,360 253,360 250,356 252,352 264,360 259,364" fill="#c8c2b8" stroke="#00000033"/><polygon points="225,200 236,207 232,212 235,214 243,213 239,208 253,204 254,211 247,213 251,218 234,221 235,216 232,213 230,219 218,210 222,207 225,208 225,200" fill="#c8c2b8" stroke="#00000033"/><polygon points="252,163 264,172 265,166 269,169 267,175 284,171 280,167 280,155 275,158 275,166 269,167 264,163 274,158 261,149 261,159 252,163" fill="#c8c2b8" stroke="#00000033"/><polygon points="116,524 111,524 111,521 121,517 117,511 119,507 127,514 134,516 129,520 134,523 137,519 146,523 144,528 140,527 145,532 143,536 128,527 133,523 124,518 126,524 116,524" fill="#c8c2b8" stroke="#00000033"/><polygon points="284,116 297,124 292,127 294,130 299,127 303,144 298,142 287,147 287,142 295,138 293,129 289,126 287,130 290,133 288,137 275,130 278,126 282,128 283,123 285,124 282,120 284,116" fill="#c8c2b8" stroke="#00000033"/><polygon points="232,244 228,239 235,238 234,230 230,233 220,234 223,239 213,241 215,236 205,229 204,235 198,238 210,247 211,241 216,242 214,248 232,244" fill="#c8c2b8" stroke="#00000033"/><polygon points="190,483 191,479 199,483 195,490 200,494 201,487 214,495 209,499 216,502 213,509 201,502 206,498 199,494 198,499 190,491 187,495 183,493 188,485 191,488 190,483" fill="#c8c2b8" stroke="#00000033"/><polygon points="225,334 237,343 231,346 236,350 240,346 247,351 240,354 243,358 241,362 229,353 235,350 231,347 228,351 216,343 219,340 225,343 223,338 225,334" fill="#c8c2b8" stroke="#00000033"/><polygon points="74,525 57,525 60,519 57,519 51,525 47,520 51,517 46,517 42,513 47,512 50,506 56,514 52,516 55,520 61,518 61,513 74,512 73,516 69,519 73,521 74,525" fill="#c8c2b8" stroke="#00000033"/><polyline points="-40,498 26,481 37,478 150,375 213,302 219,307 343,137 370,165 405,221 411,217 431,242 455,261 772,410" fill="none" stroke="#ffdd44" stroke-width="6" opacity="0.85"/><circle cx="-40" cy="498" r="10" fill="#a0f"/><circle cx="772" cy="410" r="10" fill="#f00"/><path d="M18.666666666614034,459.99999999999903 L34.666666666614034,459.99999999999903 M26.666666666614034,451.99999999999903 L26.666666666614034,467.99999999999903" stroke="#0ff" stroke-width="2"/><path d="M872.0000000001579,113.33333333333694 L888.0000000001579,113.33333333333694 M880.0000000001579,105.33333333333694 L880.0000000001579,121.33333333333694" stroke="#0ff" stroke-width="2"/><rect x="29" y="540" width="22" height="16" fill="#b8c2cc" stroke="#333"/><rect x="29" y="396" width="22" height="16" fill="#b8c2cc" stroke="#333"/><rect x="149" y="456" width="22" height="16" fill="#b8c2cc" stroke="#333"/><rect x="245" y="324" width="22" height="16" fill="#b8c2cc" stroke="#333"/><rect x="281" y="276" width="22" height="16" fill="#b8c2cc" stroke="#333"/><rect x="269" y="384" width="22" height="16" fill="#b8c2cc" stroke="#333"/><rect x="305" y="336" width="22" height="16" fill="#b8c2cc" stroke="#333"/><rect x="329" y="240" width="22" height="16" fill="#b8c2cc" stroke="#333"/><rect x="317" y="84" width="22" height="16" fill="#b8c2cc" stroke="#333"/><rect x="377" y="108" width="22" height="16" fill="#b8c2cc" stroke="#333"/><rect x="425" y="168" width="22" height="16" fill="#b8c2cc" stroke="#333"/><rect x="473" y="216" width="22" height="16" fill="#b8c2cc" stroke="#333"/><rect x="389" y="276" width="22" height="16" fill="#b8c2cc" stroke="#333"/><rect x="425" y="336" width="22" height="16" fill="#b8c2cc" stroke="#333"/><rect x="509" y="168" width="22" height="16" fill="#b8c2cc" stroke="#333"/><text x="453" y="300" font-size="13" fill="#fff" text-anchor="middle" stroke="#000" stroke-width="0.4">Yishun Dam</text><text x="480" y="20" font-size="16" fill="#fff" text-anchor="middle">3: Yishun Dam</text></svg>