<svg xmlns="http://www.w3.org/2000/svg" width="960" height="600" viewBox="0 0 960 600"><rect width="960" height="600" fill="#6aa03c"/><polygon points="75,106 -161,-106 -169,-76 -166,-28 -192,-1 -207,10 -206,30 -213,38 -233,24 -240,29 -241,73 -273,115 -290,105 -301,112 -306,106 -346,163 -363,156 -435,155 -502,61 -525,-13 -599,-73 -1448,925 -1604,1120 -1350,1352 -1310,1412 -1256,1361 -1263,1314 -1324,1269 -1337,1254 -1344,1217 -1310,1133 -1206,1038 -1121,1087 -1059,1142 -867,948 -770,1036 75,106" fill="#4c8a2c" opacity="0.7"/><polygon points="123,-240 60,-206 57,-196 77,-158 121,-98 168,-22 245,131 259,136 267,153 299,143 367,133 363,108 351,68 311,-4 238,-10 123,-240" fill="#4c8a2c" opacity="0.7"/><polygon points="234,169 246,181 265,229 280,251 288,242 348,245 365,163 339,163 317,152 309,144 234,169" fill="#4c8a2c" opacity="0.7"/><polygon points="493,194 545,186 546,193 556,201 574,206 614,207 625,203 655,175 664,152 670,146 701,126 716,138 664,199 635,221 565,249 512,263 500,229 493,194" fill="#4c8a2c" opacity="0.7"/><polygon points="129,23 150,14 161,13 167,17 249,164 234,169 122,33 123,26 129,23" fill="#4c8a2c" opacity="0.7"/><polygon points="355,340 378,345 275,427 235,405 225,389 245,346 311,380 320,362 330,367 335,359 343,362 355,340" fill="#4c8a2c" opacity="0.7"/><polygon points="794,516 865,512 863,456 791,462 794,516" fill="#4c8a2c" opacity="0.7"/><polygon points="545,633 532,482 515,400 522,397 555,544 558,606 555,627 562,646 565,692 559,690 551,641 545,633" fill="#4c8a2c" opacity="0.7"/><polygon points="129,-53 148,-16 145,-1 107,16 99,16 64,-10 129,-53" fill="#4c8a2c" opacity="0.7"/><polygon points="488,423 488,490 447,490 447,454 451,454 452,423 488,423" fill="#4c8a2c" opacity="0.7"/><polygon points="559,52 556,46 561,40 573,8 581,-32 624,15 585,43 559,52" fill="#4c8a2c" opacity="0.7"/><polygon points="851,273 876,314 907,295 882,254 851,273" fill="#4c8a2c" opacity="0.7"/><polygon points="402,346 402,367 419,360 440,362 480,373 481,370 468,360 460,332 402,346" fill="#4c8a2c" opacity="0.7"/><polygon points="390,359 391,353 379,353 329,389 305,380 219,332 217,337 324,394 231,464 218,467 157,472 159,480 220,473 233,469 368,368 382,359 390,359" fill="#2e7bb4"/><polygon points="488,275 491,289 461,313 427,317 435,306 457,301 488,275" fill="#2e7bb4"/><polygon points="849,-171 835,-158 823,-137 759,83 739,118 668,203 644,222 556,256 509,269 514,280 583,264 651,233 672,218 748,127 767,96 773,79 837,-135 842,-146 855,-159 849,-171" fill="#2e7bb4"/><polyline points="564,583 561,533 551,473 536,406" fill="none" stroke="#8a8f98" stroke-width="10" stroke-linecap="round"/><polyline points="369,812 344,779 331,746 328,724 332,560 325,535 314,520" fill="none" stroke="#8a8f98" stroke-width="3" stroke-linecap="round"/><polyline points="673,559 658,562 655,580 649,584" fill="none" stroke="#8a8f98" stroke-width="3" stroke-linecap="round"/><polyline points="444,594 446,548 443,543 437,540 393,541" fill="none" stroke="#8a8f98" stroke-width="3" stroke-linecap="round"/><polyline points="788,589 787,556" fill="none" stroke="#8a8f98" stroke-width="8" stroke-linecap="round"/><polyline points="493,421 494,575" fill="none" stroke="#8a8f98" stroke-width="3" stroke-linecap="round"/><polyline points="390,595 392,554" fill="none" stroke="#8a8f98" stroke-width="3" stroke-linecap="round"/><polyline points="792,555 794,589" fill="none" stroke="#8a8f98" stroke-width="8" stroke-linecap="round"/><polyline points="570,520 574,581" fill="none" stroke="#8a8f98" stroke-width="10" stroke-linecap="round"/><polyline points="444,594 443,638" fill="none" stroke="#8a8f98" stroke-width="3" stroke-linecap="round"/><polyline points="649,584 646,589 612,591 608,588" fill="none" stroke="#8a8f98" stroke-width="3" stroke-linecap="round"/><polyline points="445,576 494,575" fill="none" stroke="#8a8f98" stroke-width="3" stroke-linecap="round"/><polyline points="494,575 494,619" fill="none" stroke="#8a8f98" stroke-width="3" stroke-linecap="round"/><polyline points="389,637 390,595" fill="none" stroke="#8a8f98" stroke-width="3" stroke-linecap="round"/><polyline points="608,588 612,584 647,582 649,584" fill="none" stroke="#8a8f98" stroke-width="3" stroke-linecap="round"/><polyline points="568,650 564,583" fill="none" stroke="#8a8f98" stroke-width="10" stroke-linecap="round"/><polyline points="574,581 577,632" fill="none" stroke="#8a8f98" stroke-width="10" stroke-linecap="round"/><polyline points="735,581 753,580 758,585 758,592 754,595 736,595 735,581" fill="none" stroke="#8a8f98" stroke-width="3" stroke-linecap="round"/><polyline points="827,600 828,582 832,580 862,578" fill="none" stroke="#8a8f98" stroke-width="3" stroke-linecap="round"/><polyline points="888,577 928,576" fill="none" stroke="#8a8f98" stroke-width="3" stroke-linecap="round"/><polyline points="789,616 788,589" fill="none" stroke="#8a8f98" stroke-width="8" stroke-linecap="round"/><polyline points="794,589 796,615" fill="none" stroke="#8a8f98" stroke-width="8" stroke-linecap="round"/><polyline points="507,315 440,335 413,335 371,328 349,322 301,298 277,279 257,251 251,237 241,193 236,185 116,42 -3,-46 -31,-70" fill="none" stroke="#8a8f98" stroke-width="10" stroke-linecap="round"/><polyline points="241,451 199,412 190,394 191,373 221,317 224,289 219,271 169,191" fill="none" stroke="#8a8f98" stroke-width="3" stroke-linecap="round"/><polyline points="-62,-98 120,36 241,182 250,200 254,223 264,249 271,261 293,283 319,300 352,315 392,324 419,325" fill="none" stroke="#8a8f98" stroke-width="10" stroke-linecap="round"/><polyline points="-105,-78 -66,-48 112,116 130,134 169,191" fill="none" stroke="#8a8f98" stroke-width="3" stroke-linecap="round"/><polyline points="55,-215 49,-198 51,-188 113,-97 241,135 258,145 261,152 257,159 249,158 247,155 108,-96 46,-183 35,-190 18,-189" fill="none" stroke="#8a8f98" stroke-width="5" stroke-linecap="round"/><polyline points="513,303 540,294" fill="none" stroke="#8a8f98" stroke-width="10" stroke-linecap="round"/><polyline points="548,88 553,105 555,130" fill="none" stroke="#8a8f98" stroke-width="5" stroke-linecap="round"/><polyline points="632,102 599,128" fill="none" stroke="#8a8f98" stroke-width="5" stroke-linecap="round"/><polyline points="547,418 562,469 570,520" fill="none" stroke="#8a8f98" stroke-width="10" stroke-linecap="round"/><polyline points="507,315 504,306" fill="none" stroke="#8a8f98" stroke-width="10" stroke-linecap="round"/><polyline points="601,156 599,128" fill="none" stroke="#8a8f98" stroke-width="5" stroke-linecap="round"/><polyline points="501,131 555,130" fill="none" stroke="#8a8f98" stroke-width="5" stroke-linecap="round"/><polyline points="555,130 549,171 550,186 558,196 574,199 607,202 622,196 650,174 658,145" fill="none" stroke="#8a8f98" stroke-width="5" stroke-linecap="round"/><polyline points="480,314 494,302 498,289" fill="none" stroke="#8a8f98" stroke-width="10" stroke-linecap="round"/><polyline points="506,285 524,293 540,294" fill="none" stroke="#8a8f98" stroke-width="10" stroke-linecap="round"/><polyline points="513,303 515,312" fill="none" stroke="#8a8f98" stroke-width="10" stroke-linecap="round"/><polyline points="504,306 513,303" fill="none" stroke="#8a8f98" stroke-width="10" stroke-linecap="round"/><polyline points="498,288 492,270" fill="none" stroke="#8a8f98" stroke-width="10" stroke-linecap="round"/><polyline points="515,312 507,315" fill="none" stroke="#8a8f98" stroke-width="10" stroke-linecap="round"/><polyline points="613,388 604,387 589,375 584,366 583,355" fill="none" stroke="#8a8f98" stroke-width="3" stroke-linecap="round"/><polyline points="699,306 686,319 665,321 654,312 643,312" fill="none" stroke="#8a8f98" stroke-width="3" stroke-linecap="round"/><polyline points="661,254 669,276 678,290" fill="none" stroke="#8a8f98" stroke-width="3" stroke-linecap="round"/><polyline points="686,408 662,388 613,388" fill="none" stroke="#8a8f98" stroke-width="3" stroke-linecap="round"/><polyline points="671,526 626,529" fill="none" stroke="#8a8f98" stroke-width="3" stroke-linecap="round"/><polyline points="451,367 450,421" fill="none" stroke="#8a8f98" stroke-width="3" stroke-linecap="round"/><polyline points="478,375 478,421" fill="none" stroke="#8a8f98" stroke-width="3" stroke-linecap="round"/><polyline points="464,371 464,421" fill="none" stroke="#8a8f98" stroke-width="3" stroke-linecap="round"/><polyline points="420,364 419,450" fill="none" stroke="#8a8f98" stroke-width="3" stroke-linecap="round"/><polyline points="439,364 438,450" fill="none" stroke="#8a8f98" stroke-width="3" stroke-linecap="round"/><polyline points="396,503 437,503 440,497 436,494 397,494" fill="none" stroke="#8a8f98" stroke-width="3" stroke-linecap="round"/><polyline points="658,145 632,102" fill="none" stroke="#8a8f98" stroke-width="5" stroke-linecap="round"/><polyline points="423,147 431,160 443,157 462,162 460,198" fill="none" stroke="#8a8f98" stroke-width="3" stroke-linecap="round"/><polyline points="556,298 544,317 530,357" fill="none" stroke="#8a8f98" stroke-width="10" stroke-linecap="round"/><polyline points="515,340 493,327 481,323" fill="none" stroke="#8a8f98" stroke-width="10" stroke-linecap="round"/><polyline points="419,325 445,323" fill="none" stroke="#8a8f98" stroke-width="10" stroke-linecap="round"/><polyline points="445,323 480,314" fill="none" stroke="#8a8f98" stroke-width="10" stroke-linecap="round"/><polyline points="480,314 504,306" fill="none" stroke="#8a8f98" stroke-width="10" stroke-linecap="round"/><polyline points="515,340 507,315" fill="none" stroke="#8a8f98" stroke-width="10" stroke-linecap="round"/><polyline points="556,298 515,312" fill="none" stroke="#8a8f98" stroke-width="10" stroke-linecap="round"/><polyline points="506,285 513,303" fill="none" stroke="#8a8f98" stroke-width="10" stroke-linecap="round"/><polyline points="518,351 515,340" fill="none" stroke="#8a8f98" stroke-width="10" stroke-linecap="round"/><polyline points="481,132 486,205" fill="none" stroke="#8a8f98" stroke-width="10" stroke-linecap="round"/><polyline points="314,520 328,518 394,525" fill="none" stroke="#8a8f98" stroke-width="3" stroke-linecap="round"/><polyline points="494,382 512,400 515,487" fill="none" stroke="#8a8f98" stroke-width="3" stroke-linecap="round"/><polyline points="523,366 518,351" fill="none" stroke="#8a8f98" stroke-width="10" stroke-linecap="round"/><polyline points="536,406 523,366" fill="none" stroke="#8a8f98" stroke-width="10" stroke-linecap="round"/><polyline points="575,291 556,298" fill="none" stroke="#8a8f98" stroke-width="10" stroke-linecap="round"/><polyline points="592,284 575,291" fill="none" stroke="#8a8f98" stroke-width="10" stroke-linecap="round"/><polyline points="490,228 501,268" fill="none" stroke="#8a8f98" stroke-width="10" stroke-linecap="round"/><polyline points="501,268 506,285" fill="none" stroke="#8a8f98" stroke-width="10" stroke-linecap="round"/><polyline points="500,296 498,288" fill="none" stroke="#8a8f98" stroke-width="10" stroke-linecap="round"/><polyline points="504,306 500,296" fill="none" stroke="#8a8f98" stroke-width="10" stroke-linecap="round"/><polyline points="604,268 688,232" fill="none" stroke="#8a8f98" stroke-width="10" stroke-linecap="round"/><polyline points="534,371 547,418" fill="none" stroke="#8a8f98" stroke-width="10" stroke-linecap="round"/><polyline points="515,312 530,357" fill="none" stroke="#8a8f98" stroke-width="10" stroke-linecap="round"/><polyline points="471,164 470,147" fill="none" stroke="#8a8f98" stroke-width="10" stroke-linecap="round"/><polyline points="470,147 469,127" fill="none" stroke="#8a8f98" stroke-width="10" stroke-linecap="round"/><polyline points="469,112 468,95" fill="none" stroke="#8a8f98" stroke-width="10" stroke-linecap="round"/><polyline points="477,89 481,132" fill="none" stroke="#8a8f98" stroke-width="10" stroke-linecap="round"/><polyline points="477,89 468,95" fill="none" stroke="#8a8f98" stroke-width="10" stroke-linecap="round"/><polyline points="423,147 442,142" fill="none" stroke="#8a8f98" stroke-width="5" stroke-linecap="round"/><polyline points="501,131 491,181 484,190" fill="none" stroke="#8a8f98" stroke-width="5" stroke-linecap="round"/><polyline points="397,494 398,450" fill="none" stroke="#8a8f98" stroke-width="3" stroke-linecap="round"/><polyline points="398,450 399,373" fill="none" stroke="#8a8f98" stroke-width="3" stroke-linecap="round"/><polyline points="583,355 589,352 592,354 611,373 613,388" fill="none" stroke="#8a8f98" stroke-width="3" stroke-linecap="round"/><polyline points="314,520 249,459" fill="none" stroke="#8a8f98" stroke-width="3" stroke-linecap="round"/><polyline points="599,128 555,130" fill="none" stroke="#8a8f98" stroke-width="5" stroke-linecap="round"/><polyline points="476,208 471,164" fill="none" stroke="#8a8f98" stroke-width="10" stroke-linecap="round"/><polyline points="486,205 490,228" fill="none" stroke="#8a8f98" stroke-width="10" stroke-linecap="round"/><polyline points="469,127 469,112" fill="none" stroke="#8a8f98" stroke-width="10" stroke-linecap="round"/><polyline points="530,357 534,371" fill="none" stroke="#8a8f98" stroke-width="10" stroke-linecap="round"/><polyline points="442,97 455,98" fill="none" stroke="#8a8f98" stroke-width="5" stroke-linecap="round"/><polyline points="442,142 470,147" fill="none" stroke="#8a8f98" stroke-width="5" stroke-linecap="round"/><polyline points="659,472 594,476" fill="none" stroke="#8a8f98" stroke-width="3" stroke-linecap="round"/><polyline points="492,270 476,208" fill="none" stroke="#8a8f98" stroke-width="10" stroke-linecap="round"/><polyline points="368,158 423,147" fill="none" stroke="#8a8f98" stroke-width="5" stroke-linecap="round"/><polyline points="508,383 470,356 465,338 478,334 497,342 508,383" fill="none" stroke="#8a8f98" stroke-width="3" stroke-linecap="round"/><polyline points="399,382 378,382 362,391 359,475 359,488 363,490 397,490" fill="none" stroke="#8a8f98" stroke-width="3" stroke-linecap="round"/><polyline points="399,453 399,470 412,470 412,483 446,483 446,453 399,453" fill="none" stroke="#8a8f98" stroke-width="3" stroke-linecap="round"/><polyline points="585,425 574,437 580,453 577,460 594,476" fill="none" stroke="#8a8f98" stroke-width="3" stroke-linecap="round"/><polyline points="540,294 604,268" fill="none" stroke="#8a8f98" stroke-width="10" stroke-linecap="round"/><polyline points="873,164 783,203" fill="none" stroke="#8a8f98" stroke-width="10" stroke-linecap="round"/><polyline points="787,390 801,372 826,357" fill="none" stroke="#8a8f98" stroke-width="8" stroke-linecap="round"/><polyline points="908,226 934,227 965,203 992,206" fill="none" stroke="#8a8f98" stroke-width="3" stroke-linecap="round"/><polyline points="755,325 764,333 738,362 739,372 734,378" fill="none" stroke="#8a8f98" stroke-width="3" stroke-linecap="round"/><polyline points="734,378 726,372 725,358 755,325" fill="none" stroke="#8a8f98" stroke-width="3" stroke-linecap="round"/><polyline points="884,491 974,486" fill="none" stroke="#8a8f98" stroke-width="3" stroke-linecap="round"/><polyline points="882,465 940,462" fill="none" stroke="#8a8f98" stroke-width="3" stroke-linecap="round"/><polyline points="846,529 847,541 843,544 826,544 818,531" fill="none" stroke="#8a8f98" stroke-width="3" stroke-linecap="round"/><polyline points="816,433 816,406 825,399 838,395" fill="none" stroke="#8a8f98" stroke-width="3" stroke-linecap="round"/><polyline points="795,305 836,277 863,318" fill="none" stroke="#8a8f98" stroke-width="3" stroke-linecap="round"/><polyline points="785,415 788,498" fill="none" stroke="#8a8f98" stroke-width="8" stroke-linecap="round"/><polyline points="730,215 780,192" fill="none" stroke="#8a8f98" stroke-width="10" stroke-linecap="round"/><polyline points="780,192 812,178" fill="none" stroke="#8a8f98" stroke-width="10" stroke-linecap="round"/><polyline points="783,203 733,224" fill="none" stroke="#8a8f98" stroke-width="10" stroke-linecap="round"/><polyline points="812,178 850,162" fill="none" stroke="#8a8f98" stroke-width="10" stroke-linecap="round"/><polyline points="850,162 859,151 863,138" fill="none" stroke="#8a8f98" stroke-width="10" stroke-linecap="round"/><polyline points="876,152 898,143" fill="none" stroke="#8a8f98" stroke-width="10" stroke-linecap="round"/><polyline points="869,136 883,144 898,143" fill="none" stroke="#8a8f98" stroke-width="10" stroke-linecap="round"/><polyline points="869,154 876,152" fill="none" stroke="#8a8f98" stroke-width="10" stroke-linecap="round"/><polyline points="850,162 869,154" fill="none" stroke="#8a8f98" stroke-width="10" stroke-linecap="round"/><polyline points="879,161 873,164" fill="none" stroke="#8a8f98" stroke-width="10" stroke-linecap="round"/><polyline points="873,164 869,154" fill="none" stroke="#8a8f98" stroke-width="5" stroke-linecap="round"/><polyline points="876,152 879,161" fill="none" stroke="#8a8f98" stroke-width="5" stroke-linecap="round"/><polyline points="982,185 958,183 949,169 971,171 982,185 991,183" fill="none" stroke="#8a8f98" stroke-width="3" stroke-linecap="round"/><polyline points="843,112 851,138 851,144 846,149 767,180" fill="none" stroke="#8a8f98" stroke-width="3" stroke-linecap="round"/><polyline points="826,357 819,345 863,318" fill="none" stroke="#8a8f98" stroke-width="3" stroke-linecap="round"/><polyline points="991,358 947,323" fill="none" stroke="#8a8f98" stroke-width="8" stroke-linecap="round"/><polyline points="953,317 980,340" fill="none" stroke="#8a8f98" stroke-width="8" stroke-linecap="round"/><polyline points="923,305 938,308 953,317" fill="none" stroke="#8a8f98" stroke-width="8" stroke-linecap="round"/><polyline points="860,336 870,329" fill="none" stroke="#8a8f98" stroke-width="8" stroke-linecap="round"/><polyline points="870,329 907,307 923,305" fill="none" stroke="#8a8f98" stroke-width="8" stroke-linecap="round"/><polyline points="789,401 785,415" fill="none" stroke="#8a8f98" stroke-width="8" stroke-linecap="round"/><polyline points="947,323 937,317 925,314" fill="none" stroke="#8a8f98" stroke-width="8" stroke-linecap="round"/><polyline points="780,439 778,415" fill="none" stroke="#8a8f98" stroke-width="8" stroke-linecap="round"/><polyline points="787,556 786,552" fill="none" stroke="#8a8f98" stroke-width="8" stroke-linecap="round"/><polyline points="784,521 782,486" fill="none" stroke="#8a8f98" stroke-width="8" stroke-linecap="round"/><polyline points="786,552 784,521" fill="none" stroke="#8a8f98" stroke-width="8" stroke-linecap="round"/><polyline points="790,520 792,551" fill="none" stroke="#8a8f98" stroke-width="8" stroke-linecap="round"/><polyline points="782,486 780,439" fill="none" stroke="#8a8f98" stroke-width="8" stroke-linecap="round"/><polyline points="898,143 967,114" fill="none" stroke="#8a8f98" stroke-width="10" stroke-linecap="round"/><polyline points="869,136 876,152" fill="none" stroke="#8a8f98" stroke-width="5" stroke-linecap="round"/><polyline points="830,364 800,384 789,401" fill="none" stroke="#8a8f98" stroke-width="8" stroke-linecap="round"/><polyline points="792,551 792,555" fill="none" stroke="#8a8f98" stroke-width="8" stroke-linecap="round"/><polyline points="816,517 843,516 846,529" fill="none" stroke="#8a8f98" stroke-width="3" stroke-linecap="round"/><polyline points="826,357 860,336" fill="none" stroke="#8a8f98" stroke-width="8" stroke-linecap="round"/><polyline points="778,415 787,390" fill="none" stroke="#8a8f98" stroke-width="8" stroke-linecap="round"/><polyline points="788,498 790,520" fill="none" stroke="#8a8f98" stroke-width="8" stroke-linecap="round"/><polyline points="936,137 917,145" fill="none" stroke="#8a8f98" stroke-width="10" stroke-linecap="round"/><polyline points="917,145 879,161" fill="none" stroke="#8a8f98" stroke-width="10" stroke-linecap="round"/><polyline points="925,314 908,316 903,319" fill="none" stroke="#8a8f98" stroke-width="8" stroke-linecap="round"/><polyline points="903,319 874,337" fill="none" stroke="#8a8f98" stroke-width="8" stroke-linecap="round"/><polyline points="856,106 869,136" fill="none" stroke="#8a8f98" stroke-width="5" stroke-linecap="round"/><polyline points="848,86 854,100" fill="none" stroke="#8a8f98" stroke-width="5" stroke-linecap="round"/><polyline points="851,108 848,101" fill="none" stroke="#8a8f98" stroke-width="5" stroke-linecap="round"/><polyline points="869,154 851,108" fill="none" stroke="#8a8f98" stroke-width="5" stroke-linecap="round"/><polyline points="760,414 720,417" fill="none" stroke="#8a8f98" stroke-width="3" stroke-linecap="round"/><polyline points="838,395 911,347" fill="none" stroke="#8a8f98" stroke-width="3" stroke-linecap="round"/><polyline points="919,343 924,343 942,360 942,365 936,371" fill="none" stroke="#8a8f98" stroke-width="3" stroke-linecap="round"/><polyline points="895,522 940,519" fill="none" stroke="#8a8f98" stroke-width="3" stroke-linecap="round"/><polyline points="838,395 838,432 816,433" fill="none" stroke="#8a8f98" stroke-width="3" stroke-linecap="round"/><polyline points="886,215 894,208 889,199 891,195 909,197 914,202" fill="none" stroke="#8a8f98" stroke-width="3" stroke-linecap="round"/><polyline points="1016,106 936,137" fill="none" stroke="#8a8f98" stroke-width="10" stroke-linecap="round"/><polyline points="848,101 843,88" fill="none" stroke="#8a8f98" stroke-width="5" stroke-linecap="round"/><polyline points="854,100 856,106" fill="none" stroke="#8a8f98" stroke-width="5" stroke-linecap="round"/><polyline points="874,337 830,364" fill="none" stroke="#8a8f98" stroke-width="8" stroke-linecap="round"/><polyline points="930,270 923,259 925,255 945,257 955,270" fill="none" stroke="#8a8f98" stroke-width="3" stroke-linecap="round"/><polyline points="942,207 949,202 929,177 930,169 919,168 925,169 925,177 917,176 917,179 942,207" fill="none" stroke="#8a8f98" stroke-width="3" stroke-linecap="round"/><polyline points="835,59 848,86" fill="none" stroke="#8a8f98" stroke-width="5" stroke-linecap="round"/><polyline points="484,66 500,111 501,131" fill="none" stroke="#8a8f98" stroke-width="5" stroke-linecap="round"/><polyline points="658,145 723,106 740,78" fill="none" stroke="#8a8f98" stroke-width="5" stroke-linecap="round"/><polyline points="740,78 752,56 731,40" fill="none" stroke="#8a8f98" stroke-width="5" stroke-linecap="round"/><polyline points="671,526 738,521 745,517 749,512 748,487" fill="none" stroke="#8a8f98" stroke-width="3" stroke-linecap="round"/><polyline points="713,288 755,325" fill="none" stroke="#8a8f98" stroke-width="3" stroke-linecap="round"/><polyline points="617,-369 676,-281 691,-247 692,-218 679,-102 683,-74 694,-53 706,-42 774,10" fill="none" stroke="#8a8f98" stroke-width="5" stroke-linecap="round"/><polyline points="787,556 706,563 689,561" fill="none" stroke="#8a8f98" stroke-width="3" stroke-linecap="round"/><polyline points="848,86 855,82 854,63 859,58 872,58 892,74 934,52" fill="none" stroke="#8a8f98" stroke-width="3" stroke-linecap="round"/><polyline points="734,378 719,396 720,417" fill="none" stroke="#8a8f98" stroke-width="3" stroke-linecap="round"/><polyline points="843,88 829,62" fill="none" stroke="#8a8f98" stroke-width="5" stroke-linecap="round"/><polyline points="689,561 706,557 761,552" fill="none" stroke="#8a8f98" stroke-width="3" stroke-linecap="round"/><polyline points="733,224 592,284" fill="none" stroke="#8a8f98" stroke-width="10" stroke-linecap="round"/><polyline points="772,16 700,-40 691,-49 678,-69 674,-105 687,-219 685,-246 669,-282 612,-367" fill="none" stroke="#8a8f98" stroke-width="5" stroke-linecap="round"/><polyline points="688,232 730,215" fill="none" stroke="#8a8f98" stroke-width="10" stroke-linecap="round"/><polyline points="468,95 467,71" fill="none" stroke="#8a8f98" stroke-width="10" stroke-linecap="round"/><polyline points="474,69 477,89" fill="none" stroke="#8a8f98" stroke-width="10" stroke-linecap="round"/><polyline points="528,43 548,88" fill="none" stroke="#8a8f98" stroke-width="5" stroke-linecap="round"/><polyline points="422,58 436,91 442,97" fill="none" stroke="#8a8f98" stroke-width="5" stroke-linecap="round"/><polyline points="591,68 548,88" fill="none" stroke="#8a8f98" stroke-width="5" stroke-linecap="round"/><polyline points="731,40 632,102" fill="none" stroke="#8a8f98" stroke-width="5" stroke-linecap="round"/><polyline points="790,53 794,48 800,48 816,62 827,77 839,104" fill="none" stroke="#8a8f98" stroke-width="3" stroke-linecap="round"/><polyline points="636,41 591,68" fill="none" stroke="#8a8f98" stroke-width="5" stroke-linecap="round"/><polyline points="391,-9 422,58" fill="none" stroke="#8a8f98" stroke-width="5" stroke-linecap="round"/><polyline points="576,-192 572,-125 553,-13 545,15 528,43" fill="none" stroke="#8a8f98" stroke-width="5" stroke-linecap="round"/><polyline points="528,43 511,54" fill="none" stroke="#8a8f98" stroke-width="5" stroke-linecap="round"/><polyline points="623,19 636,41" fill="none" stroke="#8a8f98" stroke-width="5" stroke-linecap="round"/><polyline points="581,45 591,68" fill="none" stroke="#8a8f98" stroke-width="5" stroke-linecap="round"/><polyline points="422,58 434,53" fill="none" stroke="#8a8f98" stroke-width="5" stroke-linecap="round"/><polyline points="467,71 466,61" fill="none" stroke="#8a8f98" stroke-width="10" stroke-linecap="round"/><polyline points="466,61 461,41" fill="none" stroke="#8a8f98" stroke-width="10" stroke-linecap="round"/><polyline points="461,41 456,21 419,-70" fill="none" stroke="#8a8f98" stroke-width="10" stroke-linecap="round"/><polyline points="449,-25 469,39" fill="none" stroke="#8a8f98" stroke-width="10" stroke-linecap="round"/><polyline points="469,39 474,69" fill="none" stroke="#8a8f98" stroke-width="10" stroke-linecap="round"/><polyline points="511,54 484,66" fill="none" stroke="#8a8f98" stroke-width="5" stroke-linecap="round"/><polyline points="484,66 474,69" fill="none" stroke="#8a8f98" stroke-width="5" stroke-linecap="round"/><polyline points="506,-9 528,43" fill="none" stroke="#8a8f98" stroke-width="5" stroke-linecap="round"/><polyline points="688,5 636,41" fill="none" stroke="#8a8f98" stroke-width="5" stroke-linecap="round"/><polyline points="464,53 470,44" fill="none" stroke="#8a8f98" stroke-width="10" stroke-linecap="round"/><polyline points="434,53 444,49" fill="none" stroke="#8a8f98" stroke-width="5" stroke-linecap="round"/><polyline points="444,49 461,41" fill="none" stroke="#8a8f98" stroke-width="5" stroke-linecap="round"/><polyline points="774,10 797,26" fill="none" stroke="#8a8f98" stroke-width="5" stroke-linecap="round"/><polyline points="797,26 798,27" fill="none" stroke="#8a8f98" stroke-width="5" stroke-linecap="round"/><polyline points="798,27 812,-11" fill="none" stroke="#8a8f98" stroke-width="3" stroke-linecap="round"/><polyline points="818,-10 803,31" fill="none" stroke="#8a8f98" stroke-width="3" stroke-linecap="round"/><polyline points="794,32 772,16" fill="none" stroke="#8a8f98" stroke-width="5" stroke-linecap="round"/><polyline points="798,27 803,31" fill="none" stroke="#8a8f98" stroke-width="5" stroke-linecap="round"/><polyline points="794,32 794,32" fill="none" stroke="#8a8f98" stroke-width="5" stroke-linecap="round"/><polyline points="800,36 794,32" fill="none" stroke="#8a8f98" stroke-width="5" stroke-linecap="round"/><polyline points="803,31 835,59" fill="none" stroke="#8a8f98" stroke-width="5" stroke-linecap="round"/><polyline points="829,62 800,36" fill="none" stroke="#8a8f98" stroke-width="5" stroke-linecap="round"/><polyline points="648,2792 648,2685 659,2598 675,2546 726,2431 739,2391 749,2332 750,2230 765,2171 787,2123 861,2021 925,1905 972,1809 995,1749 1061,1614 1140,1470 1160,1414 1168,1362 1191,920 1186,839 1195,597 1188,550 1130,323 1112,272 1097,242 964,12 659,-486 617,-543 600,-562 489,-665 431,-707 389,-727 350,-740 294,-750 224,-748 -19,-694 -101,-681 -592,-564 -652,-543 -697,-521 -757,-483 -804,-444 -864,-378 -958,-291 -992,-262 -1020,-244 -1049,-227 -1199,-157 -1264,-121 -1443,-42 -1530,-11 -1590,16 -1650,35 -1683,40 -2007,56 -2073,63 -2105,70 -2170,91 -2388,172" fill="none" stroke="#444" stroke-width="4" stroke-dasharray="8,4"/><polygon points="674,502 646,505 645,492 638,487 608,487 590,506 593,546 601,553 620,553 621,556 622,552 658,550 656,541 623,542 623,544 604,543 602,528 598,528 597,524 600,523 600,510 613,496 635,497 637,509 649,513 674,511 674,502" fill="#c8c2b8" stroke="#00000033"/><polygon points="569,328 572,326 580,329 597,328 601,332 604,329 604,332 617,344 615,347 619,348 614,354 595,337 587,340 585,335 581,335 580,339 564,339 564,346 571,350 569,358 575,362 571,369 579,373 576,381 579,380 600,400 609,397 610,402 613,401 615,398 624,399 624,397 634,396 635,406 630,405 630,408 624,408 624,412 621,412 621,408 598,409 586,401 583,404 581,402 584,399 570,387 574,382 566,376 570,371 563,366 560,367 566,360 556,352 554,340 563,331 569,328" fill="#c8c2b8" stroke="#00000033"/><polygon points="695,579 693,568 756,564 775,580 777,612 728,614 728,603 765,601 764,585 753,576 695,579" fill="#c8c2b8" stroke="#00000033"/><polygon points="649,559 649,571 607,573 601,579 601,596 658,592 658,604 592,608 590,575 602,561 649,559" fill="#c8c2b8" stroke="#00000033"/><polygon points="376,385 393,386 391,471 374,471 376,385" fill="#c8c2b8" stroke="#00000033"/><polygon points="368,168 388,172 376,236 356,232 368,168" fill="#c8c2b8" stroke="#00000033"/><polygon points="495,398 510,398 510,481 495,482 495,398" fill="#c8c2b8" stroke="#00000033"/><polygon points="799,316 841,289 855,309 813,337 799,316" fill="#c8c2b8" stroke="#00000033"/><polygon points="325,-46 349,4 330,13 306,-37 325,-46" fill="#c8c2b8" stroke="#00000033"/><polygon points="758,494 769,494 771,524 754,545 686,548 686,539 750,535 760,522 758,494" fill="#c8c2b8" stroke="#00000033"/><polygon points="916,399 898,399 872,415 877,487 869,488 867,478 864,478 868,470 867,456 865,448 863,448 865,446 862,409 874,406 895,388 916,391 916,399" fill="#c8c2b8" stroke="#00000033"/><polygon points="627,366 674,365 709,395 708,402 700,404 669,377 627,378 623,371 627,366" fill="#c8c2b8" stroke="#00000033"/><polygon points="421,290 416,294 410,286 423,275 429,282 424,287 426,288 431,284 433,286 433,282 439,278 433,280 427,273 441,262 446,269 443,275 449,270 450,272 457,266 452,268 447,260 461,251 466,259 462,263 469,258 474,266 455,277 454,275 421,305 415,298 422,291 421,290" fill="#c8c2b8" stroke="#00000033"/><polygon points="696,330 654,334 640,322 633,330 649,343 702,340 727,313 718,306 696,330" fill="#c8c2b8" stroke="#00000033"/><polygon points="683,305 676,313 663,302 622,304 636,316 628,324 615,314 615,302 625,291 665,291 683,305" fill="#c8c2b8" stroke="#00000033"/><polygon points="692,262 683,272 684,284 695,294 701,286 692,280 692,274 730,271 749,286 757,279 732,261 692,262" fill="#c8c2b8" stroke="#00000033"/><polygon points="405,184 407,165 427,172 428,169 439,172 438,175 461,180 457,198 449,196 450,193 435,189 434,192 411,183 410,186 405,184" fill="#c8c2b8" stroke="#00000033"/><polygon points="714,433 724,421 750,419 756,423 762,485 753,485 747,429 729,430 722,439 714,433" fill="#c8c2b8" stroke="#00000033"/><polygon points="924,267 917,273 906,259 908,242 918,235 955,240 970,258 962,264 949,249 917,245 916,257 924,267" fill="#c8c2b8" stroke="#00000033"/><polygon points="421,267 409,251 400,255 391,243 399,235 397,232 403,227 408,227 421,243 427,238 437,253 429,258 431,261 421,267" fill="#c8c2b8" stroke="#00000033"/><polygon points="395,599 406,599 406,620 422,620 422,598 433,598 433,631 396,631 395,599" fill="#c8c2b8" stroke="#00000033"/><polygon points="950,185 941,174 942,162 974,166 988,182 995,176 980,157 945,153 934,160 931,177 943,191 950,185" fill="#c8c2b8" stroke="#00000033"/><polygon points="539,594 539,629 525,629 528,598 514,598 514,602 499,603 497,588 535,588 539,594" fill="#c8c2b8" stroke="#00000033"/><polygon points="712,442 713,453 697,454 698,467 735,467 736,476 696,478 688,472 686,453 697,442 712,442" fill="#c8c2b8" stroke="#00000033"/><polygon points="854,555 855,558 850,561 816,561 806,573 805,590 807,590 811,607 819,607 814,572 866,566 868,568 867,560 854,555" fill="#c8c2b8" stroke="#00000033"/><polygon points="356,259 365,258 365,262 372,262 373,258 382,260 385,264 390,261 386,257 391,252 407,265 398,274 390,277 390,280 380,279 381,277 356,274 356,259" fill="#c8c2b8" stroke="#00000033"/><polygon points="866,367 862,361 865,359 864,357 912,326 931,325 941,333 939,335 942,338 937,343 930,335 912,336 866,367" fill="#c8c2b8" stroke="#00000033"/><polygon points="852,365 857,372 811,401 805,411 805,422 796,423 795,407 806,393 852,365" fill="#c8c2b8" stroke="#00000033"/><polygon points="501,491 531,491 531,528 500,527 500,517 521,517 521,499 500,499 501,491" fill="#c8c2b8" stroke="#00000033"/><polygon points="736,317 743,323 715,354 716,376 724,383 718,390 705,379 707,377 706,351 722,333 722,329 723,331 736,317" fill="#c8c2b8" stroke="#00000033"/><polygon points="896,366 873,378 877,385 887,381 889,384 893,376 906,370 919,381 923,400 932,399 929,396 931,396 929,388 931,382 926,373 907,359 895,364 896,366" fill="#c8c2b8" stroke="#00000033"/><polygon points="964,58 976,51 975,47 978,46 955,6 944,12 957,35 952,37 964,58" fill="#c8c2b8" stroke="#00000033"/><polygon points="881,215 870,201 872,185 882,177 918,181 933,198 926,204 914,189 918,186 916,184 910,189 879,184 880,196 874,200 882,201 888,209 881,215" fill="#c8c2b8" stroke="#00000033"/><polygon points="947,339 964,354 964,367 953,379 955,401 945,402 943,382 946,372 955,362 940,347 947,339" fill="#c8c2b8" stroke="#00000033"/><polygon points="423,545 440,545 440,588 424,588 423,545" fill="#c8c2b8" stroke="#00000033"/><polygon points="599,446 611,436 603,427 595,437 591,434 595,428 590,424 578,437 583,441 588,436 591,438 588,440 589,450 595,454 591,457 586,453 581,458 595,471 600,466 594,461 598,456 607,464 611,459 599,446" fill="#c8c2b8" stroke="#00000033"/><polygon points="495,565 537,565 537,581 495,581 495,565" fill="#c8c2b8" stroke="#00000033"/><polygon points="898,586 899,594 909,595 909,598 916,593 951,590 959,594 958,591 968,589 968,581 965,580 936,582 935,587 930,582 898,586" fill="#c8c2b8" stroke="#00000033"/><polygon points="775,316 786,324 786,336 760,367 760,380 751,380 751,370 757,367 752,361 780,329 769,322 775,316" fill="#c8c2b8" stroke="#00000033"/><polygon points="924,509 962,506 961,498 951,497 949,494 949,497 944,499 909,501 901,497 901,500 891,502 892,511 924,509" fill="#c8c2b8" stroke="#00000033"/><polygon points="662,569 688,568 689,593 663,594 662,569" fill="#c8c2b8" stroke="#00000033"/><polygon points="497,545 535,545 535,562 497,562 497,545" fill="#c8c2b8" stroke="#00000033"/><polygon points="305,268 303,266 306,254 352,259 351,270 330,266 330,270 334,271 333,277 319,272 321,267 305,268" fill="#c8c2b8" stroke="#00000033"/><polygon points="815,444 810,446 808,444 809,432 801,432 801,436 799,437 801,450 799,453 806,452 817,454 841,451 849,455 849,452 859,449 858,441 845,444 845,442 833,445 833,443 821,446 815,444" fill="#c8c2b8" stroke="#00000033"/><polygon points="927,474 959,470 959,479 949,481 949,484 942,480 906,482 901,484 901,487 899,485 889,483 888,475 927,474" fill="#c8c2b8" stroke="#00000033"/><polygon points="947,196 959,187 993,192 1001,185 1007,193 995,202 960,197 952,204 947,196" fill="#c8c2b8" stroke="#00000033"/><polygon points="945,407 945,404 953,403 956,422 959,422 956,432 957,447 961,454 959,454 958,464 950,465 945,407" fill="#c8c2b8" stroke="#00000033"/><polygon points="953,524 952,515 960,514 964,533 966,533 963,543 964,558 968,565 966,565 965,575 957,576 953,524" fill="#c8c2b8" stroke="#00000033"/><polygon points="882,550 878,492 870,493 869,503 866,503 871,510 872,525 869,535 871,534 874,554 883,553 882,550" fill="#c8c2b8" stroke="#00000033"/><polygon points="635,465 615,465 611,459 607,464 613,474 648,472 647,465 659,463 658,452 644,453 645,459 634,459 635,465" fill="#c8c2b8" stroke="#00000033"/><polygon points="921,280 932,271 959,274 974,263 979,270 961,284 935,280 927,287 921,280" fill="#c8c2b8" stroke="#00000033"/><polygon points="907,565 897,565 897,558 934,555 941,551 952,554 952,562 949,564 921,566 918,561 915,566 907,565" fill="#c8c2b8" stroke="#00000033"/><polygon points="881,587 890,587 891,594 853,597 846,601 836,598 835,590 838,588 867,586 870,591 873,586 881,587" fill="#c8c2b8" stroke="#00000033"/><polygon points="463,558 448,558 448,546 487,546 487,558 463,562 463,558" fill="#c8c2b8" stroke="#00000033"/><polygon points="912,537 945,536 950,534 949,527 932,526 931,531 926,527 894,531 895,538 905,541 912,537" fill="#c8c2b8" stroke="#00000033"/><polygon points="712,505 702,506 702,509 691,508 691,499 697,498 697,495 702,499 716,495 727,497 730,493 739,496 740,505 734,504 735,507 719,505 719,508 712,509 712,505" fill="#c8c2b8" stroke="#00000033"/><polygon points="855,401 868,393 866,391 870,389 866,382 865,385 851,391 848,402 844,403 847,425 846,435 854,434 856,424 859,424 853,417 855,401" fill="#c8c2b8" stroke="#00000033"/><polygon points="885,223 899,211 902,214 909,208 927,210 928,216 931,216 933,215 930,210 937,204 943,210 931,220 906,217 890,230 885,223" fill="#c8c2b8" stroke="#00000033"/><polygon points="758,383 765,383 768,393 760,404 735,405 725,394 730,388 738,395 758,394 758,383" fill="#c8c2b8" stroke="#00000033"/><polygon points="393,546 403,546 404,588 393,588 393,546" fill="#c8c2b8" stroke="#00000033"/><polygon points="913,418 887,418 887,427 898,428 898,430 905,425 943,422 943,414 913,418" fill="#c8c2b8" stroke="#00000033"/><polygon points="493,345 499,364 494,366 473,353 470,342 479,339 493,345" fill="#c8c2b8" stroke="#00000033"/><polygon points="919,451 945,451 945,443 935,442 934,439 927,444 889,447 889,455 919,451" fill="#c8c2b8" stroke="#00000033"/><polygon points="844,273 836,259 857,246 867,260 844,273" fill="#c8c2b8" stroke="#00000033"/><polygon points="657,436 643,437 643,430 630,430 630,435 611,436 603,427 657,425 657,436" fill="#c8c2b8" stroke="#00000033"/><polygon points="457,222 461,221 463,231 446,233 445,224 449,221 443,222 441,212 462,208 463,219 457,220 457,222" fill="#c8c2b8" stroke="#00000033"/><polygon points="412,211 416,211 418,220 401,223 400,213 405,211 398,212 397,201 417,198 418,208 412,209 412,211" fill="#c8c2b8" stroke="#00000033"/><polygon points="435,216 439,216 440,225 424,228 422,218 427,215 421,216 419,206 439,203 441,213 434,214 435,216" fill="#c8c2b8" stroke="#00000033"/><polygon points="345,287 349,290 345,299 326,289 333,281 338,284 335,281 341,273 354,280 350,289 345,287" fill="#c8c2b8" stroke="#00000033"/><polygon points="354,290 358,281 372,286 370,295 365,295 370,296 368,307 348,300 353,291 357,292 354,290" fill="#c8c2b8" stroke="#00000033"/><polygon points="385,297 391,300 391,310 370,307 373,297 378,298 374,296 377,287 391,289 390,298 385,297" fill="#c8c2b8" stroke="#00000033"/><polygon points="406,299 412,300 413,310 392,310 394,300 398,300 394,299 395,289 410,290 410,299 406,299" fill="#c8c2b8" stroke="#00000033"/><polygon points="668,417 689,415 689,425 678,425 679,439 670,440 668,417" fill="#c8c2b8" stroke="#00000033"/><polygon points="908,37 915,35 912,30 918,26 923,32 922,28 926,26 930,33 924,39 930,41 928,48 912,44 908,37" fill="#c8c2b8" stroke="#00000033"/><polygon points="890,47 894,44 897,46 894,40 900,37 904,40 908,37 912,44 912,47 904,46 911,49 907,59 901,57 901,52 895,54 890,47" fill="#c8c2b8" stroke="#00000033"/><polygon points="741,11 743,8 753,14 753,17 761,19 756,26 760,31 757,34 737,19 744,14 741,11" fill="#c8c2b8" stroke="#00000033"/><polyline points="199,412 314,520 328,518 394,525 402,334 440,335 481,323 556,298 661,254 672,283 699,306 713,288 755,325 725,358 726,372 734,378 719,396 720,417 785,415 800,384 859,347" fill="none" stroke="#ffdd44" stroke-width="6" opacity="0.85"/><circle cx="199" cy="412" r="10" fill="#a0f"/><circle cx="859" cy="347" r="10" fill="#f00"/><path d="M29.49999999911737,540.0000000000067 L45.49999999911737,540.0000000000067 M37.49999999911737,532.0000000000067 L37.49999999911737,548.0000000000067" stroke="#0ff" stroke-width="2"/><path d="M621.9999999996669,270.00000000000335 L637.9999999996669,270.00000000000335 M629.9999999996669,262.00000000000335 L629.9999999996669,278.00000000000335" stroke="#0ff" stroke-width="2"/><path d="M854.49999999995,367.4999999999925 L870.49999999995,367.4999999999925 M862.49999999995,359.4999999999925 L862.49999999995,375.4999999999925" stroke="#0ff" stroke-width="2"/><rect x="245" y="396" width="22" height="16" fill="#b8c2cc" stroke="#333"/><rect x="233" y="516" width="22" height="16" fill="#b8c2cc" stroke="#333"/><rect x="305" y="444" width="22" height="16" fill="#b8c2cc" stroke="#333"/><rect x="281" y="552" width="22" height="16" fill="#b8c2cc" stroke="#333"/><rect x="437" y="504" width="22" height="16" fill="#b8c2cc" stroke="#333"/><rect x="449" y="432" width="22" height="16" fill="#b8c2cc" stroke="#333"/><rect x="341" y="336" width="22" height="16" fill="#b8c2cc" stroke="#333"/><rect x="461" y="360" width="22" height="16" fill="#b8c2cc" stroke="#333"/><rect x="509" y="240" width="22" height="16" fill="#b8c2cc" stroke="#333"/><rect x="569" y="216" width="22" height="16" fill="#b8c2cc" stroke="#333"/><rect x="605" y="168" width="22" height="16" fill="#b8c2cc" stroke="#333"/><rect x="749" y="240" width="22" height="16" fill="#b8c2cc" stroke="#333"/><rect x="701" y="192" width="22" height="16" fill="#b8c2cc" stroke="#333"/><rect x="797" y="276" width="22" height="16" fill="#b8c2cc" stroke="#333"/><rect x="665" y="396" width="22" height="16" fill="#b8c2cc" stroke="#333"/><rect x="797" y="468" width="22" height="16" fill="#b8c2cc" stroke="#333"/><rect x="821" y="408" width="22" height="16" fill="#b8c2cc" stroke="#333"/><rect x="665" y="456" width="22" height="16" fill="#b8c2cc" stroke="#333"/><text x="652" y="233" font-size="13" fill="#fff" text-anchor="middle" stroke="#000" stroke-width="0.4">Hot Spring</text><text x="480" y="20" font-size="16" fill="#fff" text-anchor="middle">4: Sembawang Hot Spring</text></svg>