<svg xmlns="http://www.w3.org/2000/svg" width="960" height="600" viewBox="0 0 960 600"><rect width="960" height="600" fill="#6aa03c"/><polygon points="-135,-515 -219,-470 -222,-456 -196,-406 -137,-327 -76,-226 27,-22 45,-17 56,7 98,-6 189,-20 184,-54 168,-106 115,-202 17,-210 -135,-515" fill="#4c8a2c" opacity="0.7"/><polygon points="12,27 28,44 50,94 53,108 73,137 84,124 164,129 186,20 152,20 122,5 112,-5 12,27" fill="#4c8a2c" opacity="0.7"/><polygon points="356,61 425,51 427,60 439,71 464,77 517,79 531,73 571,35 582,5 591,-2 632,-29 652,-14 583,68 544,97 452,134 381,153 365,107 356,61" fill="#4c8a2c" opacity="0.7"/><polygon points="-127,-166 -99,-178 -85,-179 -76,-174 32,21 12,27 -65,-69 -137,-153 -135,-161 -127,-166" fill="#4c8a2c" opacity="0.7"/><polygon points="172,254 203,261 66,370 13,341 0,320 27,263 114,309 126,284 140,291 146,280 157,285 172,254" fill="#4c8a2c" opacity="0.7"/><polygon points="755,489 849,483 846,409 751,416 755,489" fill="#4c8a2c" opacity="0.7"/><polygon points="425,644 408,443 384,334 395,330 439,525 442,608 438,636 447,661 452,722 443,719 433,654 425,644" fill="#4c8a2c" opacity="0.7"/><polygon points="349,365 349,453 295,455 295,406 300,406 301,366 349,365" fill="#4c8a2c" opacity="0.7"/><polygon points="235,262 235,291 257,282 285,284 338,299 340,294 322,282 312,244 235,262" fill="#4c8a2c" opacity="0.7"/><polygon points="895,597 984,595 985,611 896,615 895,597" fill="#4c8a2c" opacity="0.7"/><polygon points="650,-41 665,-28 685,-54 702,-87 712,-121 709,-125 668,-53 650,-41" fill="#4c8a2c" opacity="0.7"/><polygon points="831,166 864,220 905,195 872,141 831,166" fill="#3d8b46" stroke="#fff"/><polygon points="801,86 819,75 837,105 819,116 801,86" fill="#3d8b46" stroke="#fff"/><polygon points="595,433 613,432 616,462 598,463 595,433" fill="#3d8b46" stroke="#fff"/><polygon points="810,78 803,63 777,73 783,89 810,78" fill="#3d8b46" stroke="#fff"/><polygon points="318,456 333,456 333,484 318,484 318,456" fill="#3d8b46" stroke="#fff"/><polygon points="616,83 632,62 643,70 626,91 616,83" fill="#3d8b46" stroke="#fff"/><polygon points="787,425 788,439 809,437 808,424 787,425" fill="#3d8b46" stroke="#fff"/><polygon points="928,600 955,598 955,608 929,609 928,600" fill="#3d8b46" stroke="#fff"/><polygon points="298,464 298,482 312,482 311,464 298,464" fill="#3d8b46" stroke="#fff"/><polygon points="218,87 228,89 224,110 214,108 218,87" fill="#3d8b46" stroke="#fff"/><polygon points="758,270 747,282 740,276 751,264 758,270" fill="#3d8b46" stroke="#fff"/><polygon points="241,532 259,532 260,577 242,578 241,532" fill="#3ec6e8"/><polygon points="284,21 306,27 305,32 283,27 284,21" fill="#3ec6e8"/><polygon points="180,115 178,126 202,131 204,120 180,115" fill="#3ec6e8"/><polygon points="716,10 721,8 725,18 729,16 734,27 704,39 700,29 720,20 716,10" fill="#3ec6e8"/><polygon points="777,-52 771,-50 772,-43 762,-43 756,-35 763,-32 771,-37 776,-31 777,-52" fill="#3ec6e8"/><polygon points="757,-30 761,-29 769,-33 774,-29 770,-21 758,-10 734,-6 730,-14 751,-23 753,-31 757,-30" fill="#3ec6e8"/><polygon points="779,-51 786,-53 789,-49 784,-31 779,-28 779,-51" fill="#3ec6e8"/><polygon points="220,280 221,271 205,273 138,320 107,309 -8,245 -11,251 104,314 132,326 8,419 -9,424 -90,430 -87,440 -7,432 11,427 190,292 208,280 220,280" fill="#2e7bb4"/><polygon points="349,169 353,187 314,219 268,225 279,210 308,203 349,169" fill="#2e7bb4"/><polygon points="349,169 377,160 384,176 353,187 349,169" fill="#2e7bb4"/><polygon points="828,-424 809,-406 794,-379 709,-87 683,-39 588,73 556,99 440,143 377,160 384,176 475,154 566,113 594,92 695,-28 719,-69 728,-92 812,-375 820,-391 836,-408 828,-424" fill="#2e7bb4"/><polyline points="450,577 446,512 433,432 412,343" fill="none" stroke="#8a8f98" stroke-width="10" stroke-linecap="round"/><polyline points="191,881 158,838 140,794 137,764 143,546 133,514 118,494" fill="none" stroke="#8a8f98" stroke-width="3" stroke-linecap="round"/><polyline points="595,546 575,550 571,573 563,579" fill="none" stroke="#8a8f98" stroke-width="3" stroke-linecap="round"/><polyline points="291,592 293,531 289,524 281,520 223,522" fill="none" stroke="#8a8f98" stroke-width="3" stroke-linecap="round"/><polyline points="640,571 640,575 644,578 677,574" fill="none" stroke="#8a8f98" stroke-width="3" stroke-linecap="round"/><polyline points="748,586 746,542" fill="none" stroke="#8a8f98" stroke-width="8" stroke-linecap="round"/><polyline points="356,362 357,567" fill="none" stroke="#8a8f98" stroke-width="3" stroke-linecap="round"/><polyline points="219,593 222,539" fill="none" stroke="#8a8f98" stroke-width="3" stroke-linecap="round"/><polyline points="752,541 755,585" fill="none" stroke="#8a8f98" stroke-width="8" stroke-linecap="round"/><polyline points="459,493 464,575" fill="none" stroke="#8a8f98" stroke-width="10" stroke-linecap="round"/><polyline points="291,592 290,650" fill="none" stroke="#8a8f98" stroke-width="3" stroke-linecap="round"/><polyline points="563,579 559,585 513,587 508,584" fill="none" stroke="#8a8f98" stroke-width="3" stroke-linecap="round"/><polyline points="292,568 357,567" fill="none" stroke="#8a8f98" stroke-width="3" stroke-linecap="round"/><polyline points="357,567 357,625" fill="none" stroke="#8a8f98" stroke-width="3" stroke-linecap="round"/><polyline points="217,649 219,593" fill="none" stroke="#8a8f98" stroke-width="3" stroke-linecap="round"/><polyline points="508,584 514,578 560,576 563,579" fill="none" stroke="#8a8f98" stroke-width="3" stroke-linecap="round"/><polyline points="323,594 357,625" fill="none" stroke="#8a8f98" stroke-width="3" stroke-linecap="round"/><polyline points="455,666 450,577" fill="none" stroke="#8a8f98" stroke-width="10" stroke-linecap="round"/><polyline points="464,575 468,643" fill="none" stroke="#8a8f98" stroke-width="10" stroke-linecap="round"/><polyline points="677,574 701,574 708,581 707,590 702,593 679,594 677,574" fill="none" stroke="#8a8f98" stroke-width="3" stroke-linecap="round"/><polyline points="799,601 798,583 801,577 806,573 846,571" fill="none" stroke="#8a8f98" stroke-width="3" stroke-linecap="round"/><polyline points="880,570 933,568" fill="none" stroke="#8a8f98" stroke-width="3" stroke-linecap="round"/><polyline points="749,621 748,586" fill="none" stroke="#8a8f98" stroke-width="8" stroke-linecap="round"/><polyline points="755,585 758,620" fill="none" stroke="#8a8f98" stroke-width="8" stroke-linecap="round"/><polyline points="-53,43 -14,15" fill="none" stroke="#8a8f98" stroke-width="3" stroke-linecap="round"/><polyline points="374,222 285,248 267,250 250,249 194,239 165,231 144,222 102,199 69,173 53,154 42,137 35,119 21,60 14,50 -145,-141 -302,-258 -340,-290" fill="none" stroke="#8a8f98" stroke-width="10" stroke-linecap="round"/><polyline points="22,402 -35,351 -47,326 -45,298 -6,224 -1,202 -1,187 -8,163 -74,57" fill="none" stroke="#8a8f98" stroke-width="3" stroke-linecap="round"/><polyline points="-381,-326 -336,-295 -139,-148 22,45 33,69 39,99 53,134 62,150 90,180 125,202 168,222 222,234 258,236" fill="none" stroke="#8a8f98" stroke-width="10" stroke-linecap="round"/><polyline points="-225,-482 -233,-460 -230,-445 -149,-326 22,-17 40,-9 44,-4 48,5 43,14 33,14 29,9 -156,-324 -237,-440 -252,-448 -275,-447" fill="none" stroke="#8a8f98" stroke-width="5" stroke-linecap="round"/><polyline points="382,206 418,193" fill="none" stroke="#8a8f98" stroke-width="10" stroke-linecap="round"/><polyline points="429,-80 436,-57 438,-23" fill="none" stroke="#8a8f98" stroke-width="5" stroke-linecap="round"/><polyline points="540,-60 496,-26" fill="none" stroke="#8a8f98" stroke-width="5" stroke-linecap="round"/><polyline points="428,359 448,426 459,493" fill="none" stroke="#8a8f98" stroke-width="10" stroke-linecap="round"/><polyline points="374,222 370,210" fill="none" stroke="#8a8f98" stroke-width="10" stroke-linecap="round"/><polyline points="500,11 496,-26" fill="none" stroke="#8a8f98" stroke-width="5" stroke-linecap="round"/><polyline points="366,-23 438,-23" fill="none" stroke="#8a8f98" stroke-width="5" stroke-linecap="round"/><polyline points="438,-23 430,31 432,51 434,58 442,63 464,68 507,71 528,64 564,34 575,-4" fill="none" stroke="#8a8f98" stroke-width="5" stroke-linecap="round"/><polyline points="339,221 357,204 362,187" fill="none" stroke="#8a8f98" stroke-width="10" stroke-linecap="round"/><polyline points="374,182 397,192 418,193" fill="none" stroke="#8a8f98" stroke-width="10" stroke-linecap="round"/><polyline points="382,206 386,218" fill="none" stroke="#8a8f98" stroke-width="10" stroke-linecap="round"/><polyline points="370,210 382,206" fill="none" stroke="#8a8f98" stroke-width="10" stroke-linecap="round"/><polyline points="362,186 355,163" fill="none" stroke="#8a8f98" stroke-width="10" stroke-linecap="round"/><polyline points="386,218 374,222" fill="none" stroke="#8a8f98" stroke-width="10" stroke-linecap="round"/><polyline points="533,506 522,509 517,505 518,487 530,486" fill="none" stroke="#8a8f98" stroke-width="3" stroke-linecap="round"/><polyline points="516,318 503,318 484,301 476,289 475,274" fill="none" stroke="#8a8f98" stroke-width="3" stroke-linecap="round"/><polyline points="629,361 607,392 597,400" fill="none" stroke="#8a8f98" stroke-width="3" stroke-linecap="round"/><polyline points="629,210 612,228 584,230 570,217 555,218" fill="none" stroke="#8a8f98" stroke-width="3" stroke-linecap="round"/><polyline points="579,141 589,170 602,188" fill="none" stroke="#8a8f98" stroke-width="3" stroke-linecap="round"/><polyline points="612,345 580,318 516,318" fill="none" stroke="#8a8f98" stroke-width="3" stroke-linecap="round"/><polyline points="592,502 533,506" fill="none" stroke="#8a8f98" stroke-width="3" stroke-linecap="round"/><polyline points="300,291 299,362" fill="none" stroke="#8a8f98" stroke-width="3" stroke-linecap="round"/><polyline points="336,301 335,362" fill="none" stroke="#8a8f98" stroke-width="3" stroke-linecap="round"/><polyline points="318,297 318,362" fill="none" stroke="#8a8f98" stroke-width="3" stroke-linecap="round"/><polyline points="259,287 258,401" fill="none" stroke="#8a8f98" stroke-width="3" stroke-linecap="round"/><polyline points="284,287 284,401" fill="none" stroke="#8a8f98" stroke-width="3" stroke-linecap="round"/><polyline points="227,471 281,472 286,464 281,459 228,460" fill="none" stroke="#8a8f98" stroke-width="3" stroke-linecap="round"/><polyline points="575,-4 540,-60" fill="none" stroke="#8a8f98" stroke-width="5" stroke-linecap="round"/><polyline points="263,-1 273,16 289,12 315,18 317,25 312,67" fill="none" stroke="#8a8f98" stroke-width="3" stroke-linecap="round"/><polyline points="440,200 424,225 406,278" fill="none" stroke="#8a8f98" stroke-width="10" stroke-linecap="round"/><polyline points="385,255 356,238 340,233" fill="none" stroke="#8a8f98" stroke-width="10" stroke-linecap="round"/><polyline points="258,236 292,233" fill="none" stroke="#8a8f98" stroke-width="10" stroke-linecap="round"/><polyline points="292,233 339,221" fill="none" stroke="#8a8f98" stroke-width="10" stroke-linecap="round"/><polyline points="339,221 370,210" fill="none" stroke="#8a8f98" stroke-width="10" stroke-linecap="round"/><polyline points="385,255 374,222" fill="none" stroke="#8a8f98" stroke-width="10" stroke-linecap="round"/><polyline points="440,200 386,218" fill="none" stroke="#8a8f98" stroke-width="10" stroke-linecap="round"/><polyline points="374,182 382,206" fill="none" stroke="#8a8f98" stroke-width="10" stroke-linecap="round"/><polyline points="390,270 385,255" fill="none" stroke="#8a8f98" stroke-width="10" stroke-linecap="round"/><polyline points="339,-22 347,76" fill="none" stroke="#8a8f98" stroke-width="10" stroke-linecap="round"/><polyline points="118,494 137,491 225,501" fill="none" stroke="#8a8f98" stroke-width="3" stroke-linecap="round"/><polyline points="357,311 381,334 385,450" fill="none" stroke="#8a8f98" stroke-width="3" stroke-linecap="round"/><polyline points="396,290 390,270" fill="none" stroke="#8a8f98" stroke-width="10" stroke-linecap="round"/><polyline points="412,343 396,290" fill="none" stroke="#8a8f98" stroke-width="10" stroke-linecap="round"/><polyline points="465,189 440,200" fill="none" stroke="#8a8f98" stroke-width="10" stroke-linecap="round"/><polyline points="488,180 465,189" fill="none" stroke="#8a8f98" stroke-width="10" stroke-linecap="round"/><polyline points="352,106 366,159" fill="none" stroke="#8a8f98" stroke-width="10" stroke-linecap="round"/><polyline points="366,159 374,182" fill="none" stroke="#8a8f98" stroke-width="10" stroke-linecap="round"/><polyline points="366,197 362,186" fill="none" stroke="#8a8f98" stroke-width="10" stroke-linecap="round"/><polyline points="370,210 366,197" fill="none" stroke="#8a8f98" stroke-width="10" stroke-linecap="round"/><polyline points="503,160 615,112" fill="none" stroke="#8a8f98" stroke-width="10" stroke-linecap="round"/><polyline points="411,296 428,359" fill="none" stroke="#8a8f98" stroke-width="10" stroke-linecap="round"/><polyline points="386,218 406,278" fill="none" stroke="#8a8f98" stroke-width="10" stroke-linecap="round"/><polyline points="327,21 326,-2" fill="none" stroke="#8a8f98" stroke-width="10" stroke-linecap="round"/><polyline points="326,-2 324,-28" fill="none" stroke="#8a8f98" stroke-width="10" stroke-linecap="round"/><polyline points="324,-48 322,-71" fill="none" stroke="#8a8f98" stroke-width="10" stroke-linecap="round"/><polyline points="334,-78 339,-22" fill="none" stroke="#8a8f98" stroke-width="10" stroke-linecap="round"/><polyline points="263,-1 288,-8" fill="none" stroke="#8a8f98" stroke-width="5" stroke-linecap="round"/><polyline points="366,-23 353,43 344,56" fill="none" stroke="#8a8f98" stroke-width="5" stroke-linecap="round"/><polyline points="231,298 235,246" fill="none" stroke="#8a8f98" stroke-width="3" stroke-linecap="round"/><polyline points="357,311 356,362" fill="none" stroke="#8a8f98" stroke-width="3" stroke-linecap="round"/><polyline points="228,460 230,400" fill="none" stroke="#8a8f98" stroke-width="3" stroke-linecap="round"/><polyline points="230,400 231,298" fill="none" stroke="#8a8f98" stroke-width="3" stroke-linecap="round"/><polyline points="475,274 484,271 488,274 513,299 516,318" fill="none" stroke="#8a8f98" stroke-width="3" stroke-linecap="round"/><polyline points="118,494 32,413" fill="none" stroke="#8a8f98" stroke-width="3" stroke-linecap="round"/><polyline points="496,-26 438,-23" fill="none" stroke="#8a8f98" stroke-width="5" stroke-linecap="round"/><polyline points="333,80 327,21" fill="none" stroke="#8a8f98" stroke-width="10" stroke-linecap="round"/><polyline points="347,76 352,106" fill="none" stroke="#8a8f98" stroke-width="10" stroke-linecap="round"/><polyline points="324,-28 324,-48" fill="none" stroke="#8a8f98" stroke-width="10" stroke-linecap="round"/><polyline points="406,278 411,296" fill="none" stroke="#8a8f98" stroke-width="10" stroke-linecap="round"/><polyline points="288,-8 326,-2" fill="none" stroke="#8a8f98" stroke-width="5" stroke-linecap="round"/><polyline points="576,430 490,435" fill="none" stroke="#8a8f98" stroke-width="3" stroke-linecap="round"/><polyline points="355,163 340,113 333,80" fill="none" stroke="#8a8f98" stroke-width="10" stroke-linecap="round"/><polyline points="190,13 232,8 263,-1" fill="none" stroke="#8a8f98" stroke-width="5" stroke-linecap="round"/><polyline points="376,313 325,276 318,252 336,247 361,258 376,313" fill="none" stroke="#8a8f98" stroke-width="3" stroke-linecap="round"/><polyline points="169,274 178,255 194,239" fill="none" stroke="#8a8f98" stroke-width="3" stroke-linecap="round"/><polyline points="231,311 204,310 182,322 178,434 177,451 183,454 228,455" fill="none" stroke="#8a8f98" stroke-width="3" stroke-linecap="round"/><polyline points="404,449 356,450" fill="none" stroke="#8a8f98" stroke-width="3" stroke-linecap="round"/><polyline points="231,405 231,427 248,427 248,445 293,445 294,405 231,405" fill="none" stroke="#8a8f98" stroke-width="3" stroke-linecap="round"/><polyline points="221,551 207,541 207,526 211,522 223,522" fill="none" stroke="#8a8f98" stroke-width="3" stroke-linecap="round"/><polyline points="479,367 464,384 470,393 471,405 467,414 490,435" fill="none" stroke="#8a8f98" stroke-width="3" stroke-linecap="round"/><polyline points="418,193 503,160" fill="none" stroke="#8a8f98" stroke-width="10" stroke-linecap="round"/><polyline points="861,21 741,72" fill="none" stroke="#8a8f98" stroke-width="10" stroke-linecap="round"/><polyline points="746,322 765,297 797,277" fill="none" stroke="#8a8f98" stroke-width="8" stroke-linecap="round"/><polyline points="907,104 941,105 983,74 1018,77" fill="none" stroke="#8a8f98" stroke-width="3" stroke-linecap="round"/><polyline points="695,450 740,449" fill="none" stroke="#8a8f98" stroke-width="3" stroke-linecap="round"/><polyline points="703,235 716,245 682,284 682,298 676,305" fill="none" stroke="#8a8f98" stroke-width="3" stroke-linecap="round"/><polyline points="676,305 665,297 664,279 703,235" fill="none" stroke="#8a8f98" stroke-width="3" stroke-linecap="round"/><polyline points="875,455 994,448" fill="none" stroke="#8a8f98" stroke-width="3" stroke-linecap="round"/><polyline points="873,421 950,417" fill="none" stroke="#8a8f98" stroke-width="3" stroke-linecap="round"/><polyline points="871,384 920,382" fill="none" stroke="#8a8f98" stroke-width="3" stroke-linecap="round"/><polyline points="825,506 825,521 820,525 797,525 790,517 787,508" fill="none" stroke="#8a8f98" stroke-width="3" stroke-linecap="round"/><polyline points="784,378 782,350 785,343 796,334 813,327" fill="none" stroke="#8a8f98" stroke-width="3" stroke-linecap="round"/><polyline points="757,208 811,171 847,226" fill="none" stroke="#8a8f98" stroke-width="3" stroke-linecap="round"/><polyline points="743,354 748,465" fill="none" stroke="#8a8f98" stroke-width="8" stroke-linecap="round"/><polyline points="670,88 737,59" fill="none" stroke="#8a8f98" stroke-width="10" stroke-linecap="round"/><polyline points="737,59 779,39" fill="none" stroke="#8a8f98" stroke-width="10" stroke-linecap="round"/><polyline points="741,72 675,101" fill="none" stroke="#8a8f98" stroke-width="10" stroke-linecap="round"/><polyline points="779,39 830,18" fill="none" stroke="#8a8f98" stroke-width="10" stroke-linecap="round"/><polyline points="830,18 842,4 847,-13" fill="none" stroke="#8a8f98" stroke-width="10" stroke-linecap="round"/><polyline points="864,5 894,-7" fill="none" stroke="#8a8f98" stroke-width="10" stroke-linecap="round"/><polyline points="856,-15 867,-7 874,-5 894,-7" fill="none" stroke="#8a8f98" stroke-width="10" stroke-linecap="round"/><polyline points="762,64 768,78 767,86 747,100" fill="none" stroke="#8a8f98" stroke-width="3" stroke-linecap="round"/><polyline points="855,8 864,5" fill="none" stroke="#8a8f98" stroke-width="10" stroke-linecap="round"/><polyline points="830,18 855,8" fill="none" stroke="#8a8f98" stroke-width="10" stroke-linecap="round"/><polyline points="869,17 861,21" fill="none" stroke="#8a8f98" stroke-width="10" stroke-linecap="round"/><polyline points="861,21 855,8" fill="none" stroke="#8a8f98" stroke-width="5" stroke-linecap="round"/><polyline points="864,5 869,17" fill="none" stroke="#8a8f98" stroke-width="5" stroke-linecap="round"/><polyline points="1005,49 973,46 962,33 962,28 965,27 990,31 1005,49 1017,46" fill="none" stroke="#8a8f98" stroke-width="3" stroke-linecap="round"/><polyline points="820,-48 832,-13 832,-6 825,2 720,43" fill="none" stroke="#8a8f98" stroke-width="3" stroke-linecap="round"/><polyline points="797,277 788,261 847,226" fill="none" stroke="#8a8f98" stroke-width="3" stroke-linecap="round"/><polyline points="1017,279 958,232" fill="none" stroke="#8a8f98" stroke-width="8" stroke-linecap="round"/><polyline points="966,224 1002,255" fill="none" stroke="#8a8f98" stroke-width="8" stroke-linecap="round"/><polyline points="927,209 946,213 966,224" fill="none" stroke="#8a8f98" stroke-width="8" stroke-linecap="round"/><polyline points="843,250 856,240" fill="none" stroke="#8a8f98" stroke-width="8" stroke-linecap="round"/><polyline points="856,240 905,211 927,209" fill="none" stroke="#8a8f98" stroke-width="8" stroke-linecap="round"/><polyline points="749,336 743,354" fill="none" stroke="#8a8f98" stroke-width="8" stroke-linecap="round"/><polyline points="958,232 945,224 930,220" fill="none" stroke="#8a8f98" stroke-width="8" stroke-linecap="round"/><polyline points="737,387 734,355" fill="none" stroke="#8a8f98" stroke-width="8" stroke-linecap="round"/><polyline points="746,542 745,536" fill="none" stroke="#8a8f98" stroke-width="8" stroke-linecap="round"/><polyline points="743,495 740,449" fill="none" stroke="#8a8f98" stroke-width="8" stroke-linecap="round"/><polyline points="745,536 743,495" fill="none" stroke="#8a8f98" stroke-width="8" stroke-linecap="round"/><polyline points="750,494 752,535" fill="none" stroke="#8a8f98" stroke-width="8" stroke-linecap="round"/><polyline points="740,449 737,387" fill="none" stroke="#8a8f98" stroke-width="8" stroke-linecap="round"/><polyline points="894,-7 985,-46" fill="none" stroke="#8a8f98" stroke-width="10" stroke-linecap="round"/><polyline points="856,-15 864,5" fill="none" stroke="#8a8f98" stroke-width="5" stroke-linecap="round"/><polyline points="804,287 763,314 749,336" fill="none" stroke="#8a8f98" stroke-width="8" stroke-linecap="round"/><polyline points="752,535 752,541" fill="none" stroke="#8a8f98" stroke-width="8" stroke-linecap="round"/><polyline points="875,455 877,497" fill="none" stroke="#8a8f98" stroke-width="3" stroke-linecap="round"/><polyline points="784,490 821,488 825,506" fill="none" stroke="#8a8f98" stroke-width="3" stroke-linecap="round"/><polyline points="797,277 843,250" fill="none" stroke="#8a8f98" stroke-width="8" stroke-linecap="round"/><polyline points="734,355 746,322" fill="none" stroke="#8a8f98" stroke-width="8" stroke-linecap="round"/><polyline points="748,465 750,494" fill="none" stroke="#8a8f98" stroke-width="8" stroke-linecap="round"/><polyline points="944,-15 918,-4" fill="none" stroke="#8a8f98" stroke-width="10" stroke-linecap="round"/><polyline points="918,-4 869,17" fill="none" stroke="#8a8f98" stroke-width="10" stroke-linecap="round"/><polyline points="930,220 907,223 900,227" fill="none" stroke="#8a8f98" stroke-width="8" stroke-linecap="round"/><polyline points="900,227 862,251" fill="none" stroke="#8a8f98" stroke-width="8" stroke-linecap="round"/><polyline points="838,-56 856,-15" fill="none" stroke="#8a8f98" stroke-width="5" stroke-linecap="round"/><polyline points="855,8 831,-53" fill="none" stroke="#8a8f98" stroke-width="5" stroke-linecap="round"/><polyline points="711,353 657,357" fill="none" stroke="#8a8f98" stroke-width="3" stroke-linecap="round"/><polyline points="910,264 943,296" fill="none" stroke="#8a8f98" stroke-width="3" stroke-linecap="round"/><polyline points="813,327 910,264" fill="none" stroke="#8a8f98" stroke-width="3" stroke-linecap="round"/><polyline points="921,258 928,259 952,282 951,288 943,296" fill="none" stroke="#8a8f98" stroke-width="3" stroke-linecap="round"/><polyline points="889,496 950,493" fill="none" stroke="#8a8f98" stroke-width="3" stroke-linecap="round"/><polyline points="813,327 814,376 788,381 784,378" fill="none" stroke="#8a8f98" stroke-width="3" stroke-linecap="round"/><polyline points="878,89 889,79 882,68 884,63 909,64 915,71" fill="none" stroke="#8a8f98" stroke-width="3" stroke-linecap="round"/><polyline points="945,338 937,344 898,343" fill="none" stroke="#8a8f98" stroke-width="3" stroke-linecap="round"/><polyline points="1050,-56 944,-15" fill="none" stroke="#8a8f98" stroke-width="10" stroke-linecap="round"/><polyline points="862,251 804,287" fill="none" stroke="#8a8f98" stroke-width="8" stroke-linecap="round"/><polyline points="936,162 926,147 929,142 956,145 969,163" fill="none" stroke="#8a8f98" stroke-width="3" stroke-linecap="round"/><polyline points="952,79 961,72 934,38 935,28 922,26 930,28 929,38 919,37 919,41 922,42 952,79" fill="none" stroke="#8a8f98" stroke-width="3" stroke-linecap="round"/><polyline points="344,-109 365,-49 366,-23" fill="none" stroke="#8a8f98" stroke-width="5" stroke-linecap="round"/><polyline points="575,-4 661,-56 683,-93" fill="none" stroke="#8a8f98" stroke-width="5" stroke-linecap="round"/><polyline points="592,502 681,495 691,490 695,483 695,450" fill="none" stroke="#8a8f98" stroke-width="3" stroke-linecap="round"/><polyline points="648,186 703,235" fill="none" stroke="#8a8f98" stroke-width="3" stroke-linecap="round"/><polyline points="746,542 638,550 616,548" fill="none" stroke="#8a8f98" stroke-width="3" stroke-linecap="round"/><polyline points="676,305 656,329 657,357" fill="none" stroke="#8a8f98" stroke-width="3" stroke-linecap="round"/><polyline points="616,548 639,543 712,537" fill="none" stroke="#8a8f98" stroke-width="3" stroke-linecap="round"/><polyline points="675,101 488,180" fill="none" stroke="#8a8f98" stroke-width="10" stroke-linecap="round"/><polyline points="692,413 641,416" fill="none" stroke="#8a8f98" stroke-width="3" stroke-linecap="round"/><polyline points="648,186 654,178 661,177 681,191" fill="none" stroke="#8a8f98" stroke-width="3" stroke-linecap="round"/><polyline points="615,112 670,88" fill="none" stroke="#8a8f98" stroke-width="10" stroke-linecap="round"/><polygon points="596,469 559,473 557,456 548,450 509,450 484,475 489,528 499,538 524,537 522,539 525,542 527,537 575,534 573,521 563,522 563,524 528,523 528,526 503,524 501,504 495,504 494,499 499,498 498,481 515,462 545,463 547,479 563,485 576,481 576,484 596,482 596,469" fill="#c8c2b8" stroke="#00000033"/><polygon points="457,240 460,236 471,240 494,239 500,244 503,240 503,244 521,260 518,264 523,265 516,273 491,251 480,254 478,248 473,249 471,253 459,252 459,255 453,255 450,253 450,263 460,269 457,279 465,283 460,293 470,298 466,309 470,308 476,313 474,315 477,318 479,316 485,321 483,323 486,325 488,323 491,326 489,328 492,330 494,328 498,334 501,331 510,330 512,337 516,336 518,331 527,331 527,334 530,334 530,330 543,329 544,342 538,341 538,345 530,346 530,351 526,351 526,346 495,347 479,336 476,340 473,337 476,333 458,317 463,311 453,302 458,296 449,289 446,293 444,291 452,282 439,270 437,254 448,243 457,240" fill="#c8c2b8" stroke="#00000033"/><polygon points="624,572 622,557 705,553 730,574 733,616 668,619 667,604 717,601 716,580 701,568 624,572" fill="#c8c2b8" stroke="#00000033"/><polygon points="563,546 563,561 507,564 499,572 499,595 574,590 575,605 487,610 484,566 501,548 563,546" fill="#c8c2b8" stroke="#00000033"/><polygon points="200,315 223,316 221,429 198,428 200,315" fill="#c8c2b8" stroke="#00000033"/><polygon points="190,27 217,32 201,116 174,111 190,27" fill="#c8c2b8" stroke="#00000033"/><polygon points="358,332 378,332 379,443 359,443 358,332" fill="#c8c2b8" stroke="#00000033"/><polygon points="762,223 818,187 836,214 780,250 762,223" fill="#c8c2b8" stroke="#00000033"/><polygon points="708,460 722,459 726,499 702,527 612,531 612,519 696,513 711,496 708,460" fill="#c8c2b8" stroke="#00000033"/><polygon points="534,290 596,287 642,328 641,337 631,340 590,304 534,305 529,296 534,290" fill="#c8c2b8" stroke="#00000033"/><polygon points="918,334 893,333 859,355 866,450 855,451 852,438 849,438 854,428 852,408 850,408 850,398 847,398 850,396 846,346 850,347 861,340 862,342 878,332 877,330 890,322 889,319 892,322 917,323 918,334" fill="#c8c2b8" stroke="#00000033"/><polygon points="260,188 254,193 246,184 262,169 271,178 264,184 266,186 274,180 276,183 278,181 276,178 284,173 282,171 276,176 269,166 286,152 294,161 288,166 290,168 297,163 299,165 308,157 307,155 301,159 294,148 313,137 319,147 313,151 315,153 325,146 331,156 306,172 304,169 304,172 283,188 280,187 281,189 260,208 252,199 262,190 260,188" fill="#c8c2b8" stroke="#00000033"/><polygon points="625,242 570,246 551,231 542,242 563,259 634,254 667,219 655,210 625,242" fill="#c8c2b8" stroke="#00000033"/><polygon points="608,209 598,219 581,204 528,207 546,223 535,234 518,220 518,204 531,190 584,190 608,209" fill="#c8c2b8" stroke="#00000033"/><polygon points="239,48 242,23 269,32 270,28 284,31 283,35 313,42 308,66 298,64 299,59 279,55 278,58 263,55 264,51 247,47 246,50 239,48" fill="#c8c2b8" stroke="#00000033"/><polygon points="620,152 608,164 609,180 624,193 632,183 621,175 620,167 671,164 696,183 706,174 673,150 620,152" fill="#c8c2b8" stroke="#00000033"/><polygon points="650,378 662,362 697,360 705,365 712,447 701,448 694,373 669,375 660,386 650,378" fill="#c8c2b8" stroke="#00000033"/><polygon points="647,390 647,405 627,406 628,423 678,424 678,436 625,438 614,431 612,405 627,390 647,390" fill="#c8c2b8" stroke="#00000033"/><polygon points="417,592 417,639 398,639 398,618 402,618 402,597 384,597 384,603 364,603 361,584 411,584 417,592" fill="#c8c2b8" stroke="#00000033"/><polygon points="260,158 245,136 233,143 221,126 231,116 228,112 237,106 238,108 243,105 260,126 268,120 282,139 271,147 274,150 260,158" fill="#c8c2b8" stroke="#00000033"/><polygon points="963,49 950,34 952,18 995,24 1013,45 1022,37 1002,12 956,6 941,15 938,38 953,57 963,49" fill="#c8c2b8" stroke="#00000033"/><polygon points="226,599 241,599 241,627 262,627 262,598 276,598 276,641 227,641 226,599" fill="#c8c2b8" stroke="#00000033"/><polygon points="928,158 919,167 904,148 907,125 920,116 970,123 989,147 978,154 961,133 919,128 917,144 928,158" fill="#c8c2b8" stroke="#00000033"/><polygon points="836,541 836,545 829,545 829,548 785,548 785,552 771,565 772,584 770,587 773,587 774,605 777,605 778,610 788,609 785,608 785,605 788,604 787,596 785,597 787,594 786,586 784,586 783,581 786,581 782,562 785,560 794,562 793,559 809,560 809,558 817,557 818,560 826,559 828,556 828,559 836,559 836,556 841,555 841,558 849,558 852,555 853,557 853,547 839,544 839,541 836,541" fill="#c8c2b8" stroke="#00000033"/><polygon points="174,147 186,146 186,151 196,152 197,146 208,148 213,154 219,149 214,145 220,138 241,156 230,167 219,171 220,175 206,175 207,171 185,171 185,168 174,167 174,147" fill="#c8c2b8" stroke="#00000033"/><polygon points="851,291 846,282 850,280 848,277 913,237 937,234 950,246 948,249 951,252 945,259 935,248 920,247 920,250 911,250 912,253 905,257 903,255 891,266 889,264 880,273 878,271 851,291" fill="#c8c2b8" stroke="#00000033"/><polygon points="833,287 839,297 779,335 769,349 771,364 758,365 756,344 772,325 833,287" fill="#c8c2b8" stroke="#00000033"/><polygon points="366,455 407,456 406,504 365,503 366,489 393,490 393,467 366,466 366,455" fill="#c8c2b8" stroke="#00000033"/><polygon points="871,89 857,71 859,49 872,38 920,43 940,67 930,74 928,68 927,70 915,55 920,50 918,48 914,47 914,52 910,54 871,50 869,47 869,63 867,67 862,66 861,70 863,72 867,69 870,72 872,70 877,77 875,78 880,81 871,89" fill="#c8c2b8" stroke="#00000033"/><polygon points="678,224 687,232 667,253 668,254 651,274 652,303 663,312 655,321 641,307 637,307 637,304 640,304 638,270 660,245 659,241 662,243 678,224" fill="#c8c2b8" stroke="#00000033"/><polygon points="891,289 875,296 877,298 873,300 871,298 863,306 860,305 866,314 879,310 881,313 884,311 882,308 888,304 886,302 905,294 922,309 924,329 927,329 927,334 938,334 935,329 938,329 937,321 934,319 937,319 937,311 934,311 934,305 929,301 931,299 906,280 889,287 891,289" fill="#c8c2b8" stroke="#00000033"/><polygon points="263,527 285,527 285,584 264,585 263,527" fill="#c8c2b8" stroke="#00000033"/><polygon points="497,396 512,382 501,371 492,383 486,379 492,372 485,367 469,383 475,389 482,382 486,385 482,388 483,400 491,406 487,411 480,404 473,412 491,429 497,423 490,415 496,409 507,420 513,413 497,396" fill="#c8c2b8" stroke="#00000033"/><polygon points="361,527 412,527 412,550 361,550 361,527" fill="#c8c2b8" stroke="#00000033"/><polygon points="958,254 981,274 981,290 967,307 969,336 956,337 954,311 957,310 958,297 969,285 969,281 949,264 958,254" fill="#c8c2b8" stroke="#00000033"/><polygon points="359,554 414,554 414,575 359,575 359,554" fill="#c8c2b8" stroke="#00000033"/><polygon points="581,559 615,558 616,591 581,592 581,559" fill="#c8c2b8" stroke="#00000033"/><polygon points="894,582 895,592 908,593 909,597 911,593 918,590 931,589 931,591 964,587 964,589 971,588 974,592 974,588 987,585 986,575 982,576 982,573 952,578 952,575 944,576 942,582 936,576 928,577 928,580 898,579 898,582 894,582" fill="#c8c2b8" stroke="#00000033"/><polygon points="730,222 744,234 745,250 710,290 711,307 699,308 698,295 701,294 700,291 706,290 700,283 737,241 723,231 730,222" fill="#c8c2b8" stroke="#00000033"/><polygon points="106,160 103,156 104,151 107,151 104,149 108,141 120,144 120,142 133,143 133,145 168,147 167,162 147,160 147,157 140,156 140,162 145,163 144,171 133,170 133,167 124,165 127,158 106,160" fill="#c8c2b8" stroke="#00000033"/><polygon points="932,433 932,431 940,430 940,432 942,430 948,432 948,429 962,431 962,428 972,430 974,428 975,439 962,442 962,446 959,442 952,443 952,441 939,442 939,444 905,444 905,446 897,446 898,450 895,450 895,447 881,445 881,434 883,436 907,432 909,434 912,432 912,434 917,432 932,433" fill="#c8c2b8" stroke="#00000033"/><polygon points="927,479 927,476 936,476 936,478 944,478 944,475 947,478 950,475 952,477 966,474 966,476 977,473 979,475 978,464 964,463 964,459 961,459 962,463 954,463 955,465 920,466 920,468 907,469 907,467 900,467 897,463 898,467 884,471 885,482 887,479 897,481 897,479 911,480 913,477 917,480 917,477 927,479" fill="#c8c2b8" stroke="#00000033"/><polygon points="783,393 783,396 777,396 773,393 773,390 776,389 773,379 775,377 764,377 765,383 762,383 765,401 761,406 764,408 771,403 786,404 786,407 818,402 818,405 825,404 825,408 828,408 828,404 841,400 840,389 839,392 828,390 828,393 823,393 823,390 807,394 807,391 791,395 791,392 783,393" fill="#c8c2b8" stroke="#00000033"/><polygon points="966,499 965,487 976,486 981,512 984,511 979,525 981,544 987,553 984,554 982,567 971,568 966,499" fill="#c8c2b8" stroke="#00000033"/><polygon points="958,64 975,52 1019,58 1030,50 1038,59 1022,72 976,65 966,74 958,64" fill="#c8c2b8" stroke="#00000033"/><polygon points="873,533 867,457 856,458 855,471 852,471 857,481 859,500 855,513 858,513 862,538 873,537 873,533" fill="#c8c2b8" stroke="#00000033"/><polygon points="956,344 956,340 967,339 971,364 974,364 970,377 971,396 977,406 974,406 973,420 962,421 956,344" fill="#c8c2b8" stroke="#00000033"/><polygon points="924,175 939,163 974,167 995,153 1002,162 978,180 942,176 932,184 924,175" fill="#c8c2b8" stroke="#00000033"/><polygon points="545,421 518,420 513,413 507,420 516,432 561,430 560,421 576,418 575,403 557,405 558,413 543,413 545,421" fill="#c8c2b8" stroke="#00000033"/><polygon points="316,545 296,545 296,528 347,528 348,545 328,545 328,549 316,549 316,545" fill="#c8c2b8" stroke="#00000033"/><polygon points="913,517 956,516 956,513 962,513 962,503 958,504 957,501 949,502 949,504 939,502 937,509 931,503 922,503 923,506 893,506 893,508 889,508 889,518 903,519 903,522 913,517" fill="#c8c2b8" stroke="#00000033"/><polygon points="871,583 871,581 883,582 884,592 878,592 878,595 834,595 825,601 825,598 811,597 810,587 815,587 815,584 844,585 844,582 853,582 857,588 860,581 871,583" fill="#c8c2b8" stroke="#00000033"/><polygon points="905,553 905,556 893,554 892,544 898,544 898,542 942,541 951,535 951,538 965,539 966,549 961,549 962,552 932,551 932,554 924,555 920,548 916,555 905,553" fill="#c8c2b8" stroke="#00000033"/><polygon points="913,358 910,356 907,359 905,357 897,357 897,359 879,358 879,370 893,371 893,375 896,375 895,371 903,370 903,368 948,367 947,365 954,364 953,353 949,356 949,354 921,358 921,355 913,356 913,358" fill="#c8c2b8" stroke="#00000033"/><polygon points="836,336 853,326 852,323 856,320 850,311 850,314 848,316 846,313 840,318 841,320 831,323 828,337 822,339 823,347 825,347 823,363 826,362 826,368 824,368 827,379 824,381 835,380 838,366 841,366 841,363 837,363 837,356 834,357 836,336" fill="#c8c2b8" stroke="#00000033"/><polygon points="922,403 925,405 928,402 930,404 944,401 944,403 952,403 952,401 956,403 956,391 942,390 942,386 939,386 940,390 932,391 932,393 887,394 888,396 881,397 882,408 886,405 886,407 914,403 914,406 922,405 922,403" fill="#c8c2b8" stroke="#00000033"/><polygon points="876,99 894,84 898,88 908,80 924,84 925,81 933,82 933,90 937,91 939,88 936,82 945,74 953,83 938,95 904,92 884,108 876,99" fill="#c8c2b8" stroke="#00000033"/><polygon points="646,475 633,475 633,479 626,479 626,476 619,478 618,466 627,464 627,460 630,460 630,464 634,465 652,461 657,464 667,463 670,462 670,458 674,457 674,462 683,463 683,474 676,473 677,476 670,477 669,473 656,474 656,478 647,479 646,475" fill="#c8c2b8" stroke="#00000033"/><polygon points="707,313 717,312 721,325 710,339 677,341 664,327 671,319 681,328 708,326 707,313" fill="#c8c2b8" stroke="#00000033"/><polygon points="356,261 364,287 357,289 329,272 325,258 338,254 356,261" fill="#c8c2b8" stroke="#00000033"/><polygon points="223,529 237,529 237,583 223,583 223,529" fill="#c8c2b8" stroke="#00000033"/><polygon points="821,166 811,148 840,130 852,148 821,166" fill="#c8c2b8" stroke="#00000033"/><polygon points="574,382 555,384 555,375 538,374 538,381 512,382 501,371 574,368 574,382" fill="#c8c2b8" stroke="#00000033"/><polygon points="308,98 314,97 316,110 294,113 292,101 299,99 298,97 290,98 287,84 314,80 317,94 308,95 308,98" fill="#c8c2b8" stroke="#00000033"/><polygon points="279,91 284,90 286,103 264,106 262,93 269,92 268,90 260,91 258,77 285,73 287,87 278,88 279,91" fill="#c8c2b8" stroke="#00000033"/><polygon points="249,84 254,83 256,96 234,100 232,87 239,86 239,83 230,84 228,71 255,66 257,80 248,81 249,84" fill="#c8c2b8" stroke="#00000033"/><polygon points="171,188 177,177 195,183 193,195 186,194 193,197 190,211 163,202 170,189 175,191 171,188" fill="#c8c2b8" stroke="#00000033"/><polygon points="159,185 164,188 159,201 134,187 143,176 150,180 147,176 154,166 171,176 166,187 159,185" fill="#c8c2b8" stroke="#00000033"/><polygon points="212,198 221,201 221,215 193,211 197,198 203,199 198,196 201,184 221,187 220,199 212,198" fill="#c8c2b8" stroke="#00000033"/><polygon points="240,200 249,201 250,215 222,215 225,201 230,201 224,200 226,188 245,188 246,200 240,200" fill="#c8c2b8" stroke="#00000033"/><polygon points="589,357 615,355 616,367 602,368 603,387 591,388 589,357" fill="#c8c2b8" stroke="#00000033"/><polygon points="899,-73 897,-65 904,-62 897,-59 897,-50 900,-48 905,-54 909,-52 910,-46 918,-49 913,-60 915,-62 918,-57 923,-60 917,-71 909,-67 911,-71 899,-73" fill="#c8c2b8" stroke="#00000033"/><polygon points="692,192 716,212 707,222 683,202 692,192" fill="#c8c2b8" stroke="#00000033"/><polygon points="847,-71 853,-75 858,-69 858,-72 868,-78 876,-66 867,-58 864,-59 868,-53 862,-49 847,-71" fill="#c8c2b8" stroke="#00000033"/><polygon points="745,-50 748,-55 737,-54 735,-61 758,-70 760,-63 756,-62 759,-59 754,-55 763,-56 766,-50 743,-44 742,-49 745,-50" fill="#c8c2b8" stroke="#00000033"/><polygon points="719,-38 721,-31 731,-33 732,-31 725,-27 727,-22 749,-28 746,-34 738,-33 743,-36 740,-40 744,-41 742,-48 719,-38" fill="#c8c2b8" stroke="#00000033"/><polygon points="809,-3 797,4 788,5 786,0 792,-5 787,-3 781,-12 802,-19 804,-14 799,-10 800,-7 807,-8 809,-3" fill="#c8c2b8" stroke="#00000033"/><polygon points="767,14 756,21 747,22 745,17 751,12 745,14 739,5 761,-2 763,3 757,7 758,10 765,9 767,14" fill="#c8c2b8" stroke="#00000033"/><polygon points="688,18 693,17 695,12 685,14 684,8 694,2 705,0 706,5 703,6 706,9 700,11 708,12 710,18 690,25 688,18" fill="#c8c2b8" stroke="#00000033"/><polygon points="705,-1 712,-5 711,-7 702,-6 700,-12 722,-22 723,-16 719,-15 722,-11 716,-9 725,-7 727,-1 709,4 705,-1" fill="#c8c2b8" stroke="#00000033"/><polygon points="112,164 114,166 118,161 137,175 131,187 108,171 112,164" fill="#c8c2b8" stroke="#00000033"/><polygon points="667,25 669,32 678,31 679,34 672,38 673,43 694,37 692,31 684,31 690,28 688,19 667,25" fill="#c8c2b8" stroke="#00000033"/><polygon points="553,328 554,345 569,344 578,333 571,327 553,328" fill="#c8c2b8" stroke="#00000033"/><polygon points="360,508 385,507 385,521 360,521 360,508" fill="#c8c2b8" stroke="#00000033"/><polygon points="802,-19 821,-29 824,-19 818,-17 826,-18 828,-12 809,-3 807,-8 813,-13 812,-15 804,-14 802,-19" fill="#c8c2b8" stroke="#00000033"/><polygon points="236,497 267,497 267,508 237,508 236,497" fill="#c8c2b8" stroke="#00000033"/><polygon points="651,45 653,52 657,51 657,54 653,54 654,60 666,58 665,53 668,57 678,53 677,48 673,49 671,39 664,41 663,45 662,42 651,45" fill="#c8c2b8" stroke="#00000033"/><polygon points="230,427 248,427 248,445 230,445 230,427" fill="#c8c2b8" stroke="#00000033"/><polygon points="761,-2 780,-12 782,-2 777,0 784,0 786,5 767,14 765,9 771,5 770,2 763,3 761,-2" fill="#c8c2b8" stroke="#00000033"/><polygon points="876,-48 876,-52 894,-54 892,-47 897,-46 899,-40 883,-29 880,-35 885,-40 876,-48" fill="#c8c2b8" stroke="#00000033"/><polyline points="-40,346 -35,351 118,494 137,491 225,501 235,246 267,250 285,248 340,233 440,200 579,141 594,179 629,210 648,186 703,235 664,279 665,297 676,305 656,329 657,357 743,354 749,336 763,314 841,264" fill="none" stroke="#ffdd44" stroke-width="6" opacity="0.85"/><circle cx="-40" cy="346" r="10" fill="#a0f"/><circle cx="841" cy="264" r="10" fill="#f00"/><path d="M-256.76106194670155,520.3539823008931 L-240.76106194670155,520.3539823008931 M-248.76106194670155,512.3539823008931 L-248.76106194670155,528.3539823008931" stroke="#0ff" stroke-width="2"/><path d="M529.7433628317226,161.94690265486824 L545.7433628317226,161.94690265486824 M537.7433628317226,153.94690265486824 L537.7433628317226,169.94690265486824" stroke="#0ff" stroke-width="2"/><path d="M838.3716814157508,291.37168141591684 L854.3716814157508,291.37168141591684 M846.3716814157508,283.37168141591684 L846.3716814157508,299.37168141591684" stroke="#0ff" stroke-width="2"/><rect x="29" y="348" width="22" height="16" fill="#b8c2cc" stroke="#333"/><rect x="89" y="408" width="22" height="16" fill="#b8c2cc" stroke="#333"/><rect x="149" y="432" width="22" height="16" fill="#b8c2cc" stroke="#333"/><rect x="89" y="528" width="22" height="16" fill="#b8c2cc" stroke="#333"/><rect x="185" y="540" width="22" height="16" fill="#b8c2cc" stroke="#333"/><rect x="269" y="408" width="22" height="16" fill="#b8c2cc" stroke="#333"/><rect x="149" y="276" width="22" height="16" fill="#b8c2cc" stroke="#333"/><rect x="149" y="336" width="22" height="16" fill="#b8c2cc" stroke="#333"/><rect x="269" y="288" width="22" height="16" fill="#b8c2cc" stroke="#333"/><rect x="377" y="132" width="22" height="16" fill="#b8c2cc" stroke="#333"/><rect x="437" y="108" width="22" height="16" fill="#b8c2cc" stroke="#333"/><rect x="509" y="84" width="22" height="16" fill="#b8c2cc" stroke="#333"/><rect x="653" y="120" width="22" height="16" fill="#b8c2cc" stroke="#333"/><rect x="713" y="180" width="22" height="16" fill="#b8c2cc" stroke="#333"/><rect x="713" y="288" width="22" height="16" fill="#b8c2cc" stroke="#333"/><rect x="605" y="264" width="22" height="16" fill="#b8c2cc" stroke="#333"/><rect x="605" y="336" width="22" height="16" fill="#b8c2cc" stroke="#333"/><rect x="785" y="348" width="22" height="16" fill="#b8c2cc" stroke="#333"/><circle cx="578" cy="446" r="6" fill="#e8862a" stroke="#333"/><circle cx="622" cy="449" r="6" fill="#e8862a" stroke="#333"/><circle cx="827" cy="425" r="6" fill="#e8862a" stroke="#333"/><circle cx="923" cy="31" r="6" fill="#e8862a" stroke="#333"/><text x="568" y="112" font-size="13" fill="#fff" text-anchor="middle" stroke="#000" stroke-width="0.4">Hot Spring</text><text x="480" y="20" font-size="16" fill="#fff" text-anchor="middle">4: Sembawang Hot Spring</text></svg>