<svg xmlns="http://www.w3.org/2000/svg" width="960" height="600" viewBox="0 0 960 600"><rect width="960" height="600" fill="#6aa03c"/><polygon points="200,74 112,32 116,39 143,50 159,62 196,77 200,74" fill="#e8d8a8"/><polygon points="458,158 426,159 403,154 355,137 341,127 339,123 339,129 350,140 401,164 451,170 457,167 458,158" fill="#e8d8a8"/><polygon points="98,18 86,18 -26,-49 -90,-104 -97,-113 -97,-121 -101,-124 -103,-113 -94,-100 -52,-61 -46,-51 -37,-48 -23,-34 -17,-39 5,-20 82,21 92,22 100,20 98,18" fill="#e8d8a8"/><polygon points="592,191 531,181 475,164 473,168 506,181 580,202 584,202 592,191" fill="#e8d8a8"/><polygon points="976,244 968,246 893,234 870,224 861,224 814,229 749,228 721,223 689,209 689,199 683,189 678,188 664,199 664,206 667,211 676,212 678,222 681,219 694,217 728,230 767,237 773,238 777,234 859,233 880,238 961,248 969,251 975,250 976,244" fill="#e8d8a8"/><polygon points="55,160 61,148 74,149 83,143 91,144 143,172 152,185 152,198 166,209 170,207 211,232 208,248 205,252 189,237 55,160" fill="#9aa0a8"/><polygon points="158,424 171,412 182,417 238,483 241,495 236,502 225,506 201,482 158,424" fill="#9aa0a8"/><polygon points="634,479 644,476 652,460 651,456 640,452 635,440 623,442 625,453 617,467 634,479" fill="#3ec6e8"/><polygon points="700,472 698,468 693,469 691,475 698,479 702,475 700,472" fill="#3ec6e8"/><polygon points="666,538 651,537 647,550 654,561 663,564 670,560 667,555 670,543 666,538" fill="#3ec6e8"/><polygon points="949,567 961,571 963,587 973,599 964,609 950,584 949,567" fill="#3ec6e8"/><polygon points="882,448 885,450 880,468 875,466 882,448" fill="#3ec6e8"/><polygon points="837,593 844,594 844,598 810,597 810,594 837,593" fill="#3ec6e8"/><polygon points="897,595 897,601 862,599 862,595 897,595" fill="#3ec6e8"/><polygon points="-241,1797 63,1798 136,1787 197,1766 237,1747 279,1723 355,1661 572,1438 607,1388 619,1364 636,1314 650,1238 651,1023 635,953 616,907 576,825 557,767 547,722 543,569 550,544 553,518 563,504 567,488 573,482 579,451 599,415 599,404 607,393 618,329 640,250 641,233 650,221 658,217 666,219 672,231 677,225 676,212 667,211 664,206 621,202 629,211 628,229 632,233 621,252 613,304 590,401 583,403 562,447 556,480 538,514 531,542 528,573 523,577 528,582 523,642 525,694 540,784 558,835 620,975 627,1026 631,1164 626,1266 611,1334 577,1406 521,1472 481,1509 468,1514 458,1522 446,1542 336,1655 306,1679 298,1691 277,1702 216,1742 154,1766 113,1776 49,1784 -245,1783 -241,1797" fill="#2e7bb4"/><polygon points="-509,890 -526,883 -466,849 -441,844 -379,849 -350,848 -319,839 -292,822 -250,768 -76,511 -49,479 -28,464 56,427 92,416 140,390 221,288 242,257 263,202 274,186 288,144 288,134 283,120 265,102 339,117 325,121 314,134 300,173 283,236 270,264 173,391 138,417 103,432 69,442 -2,474 -35,496 -57,522 -264,813 -288,838 -319,856 -350,864 -377,865 -436,858 -456,861 -471,866 -509,890" fill="#2e7bb4"/><polygon points="467,601 468,605 478,611 491,606 492,600 485,593 468,593 465,598 467,601" fill="#2e7bb4"/><rect x="64" y="0" width="896" height="8" fill="#2e7bb4"/><rect x="72" y="8" width="888" height="8" fill="#2e7bb4"/><rect x="112" y="16" width="848" height="8" fill="#2e7bb4"/><rect x="120" y="24" width="840" height="16" fill="#2e7bb4"/><rect x="136" y="40" width="824" height="8" fill="#2e7bb4"/><rect x="160" y="48" width="800" height="8" fill="#2e7bb4"/><rect x="176" y="56" width="784" height="8" fill="#2e7bb4"/><rect x="184" y="64" width="776" height="8" fill="#2e7bb4"/><rect x="200" y="72" width="760" height="8" fill="#2e7bb4"/><rect x="216" y="80" width="744" height="8" fill="#2e7bb4"/><rect x="232" y="88" width="728" height="8" fill="#2e7bb4"/><rect x="248" y="96" width="712" height="8" fill="#2e7bb4"/><rect x="296" y="104" width="664" height="8" fill="#2e7bb4"/><rect x="328" y="112" width="632" height="8" fill="#2e7bb4"/><rect x="344" y="120" width="616" height="8" fill="#2e7bb4"/><rect x="352" y="128" width="608" height="8" fill="#2e7bb4"/><rect x="360" y="136" width="600" height="8" fill="#2e7bb4"/><rect x="384" y="144" width="576" height="8" fill="#2e7bb4"/><rect x="416" y="152" width="544" height="8" fill="#2e7bb4"/><rect x="480" y="160" width="480" height="8" fill="#2e7bb4"/><rect x="504" y="168" width="456" height="8" fill="#2e7bb4"/><rect x="528" y="176" width="432" height="8" fill="#2e7bb4"/><rect x="576" y="184" width="384" height="8" fill="#2e7bb4"/><rect x="600" y="192" width="64" height="8" fill="#2e7bb4"/><rect x="688" y="192" width="272" height="16" fill="#2e7bb4"/><rect x="640" y="200" width="24" height="8" fill="#2e7bb4"/><rect x="696" y="208" width="264" height="8" fill="#2e7bb4"/><rect x="712" y="216" width="248" height="8" fill="#2e7bb4"/><rect x="760" y="224" width="64" height="8" fill="#2e7bb4"/><rect x="880" y="224" width="80" height="8" fill="#2e7bb4"/><rect x="904" y="232" width="56" height="8" fill="#2e7bb4"/><rect x="952" y="240" width="8" height="8" fill="#2e7bb4"/><rect x="656" y="248" width="8" height="56" fill="#2e7bb4"/><polyline points="567,576 572,547 583,523 597,472 616,427 617,408 635,375 637,345 641,333 662,300" fill="none" stroke="#8a8f98" stroke-width="3" stroke-linecap="round"/><polyline points="567,272 573,303 568,328 563,335 553,340 513,325 474,324 441,303 427,305 420,310 407,329 406,340 385,377 367,388 343,393 335,408 332,437 324,475 317,488 298,505 268,519 260,511 217,443 192,416 186,404 185,390 188,383 257,301 284,289 290,267 311,236 315,188" fill="none" stroke="#8a8f98" stroke-width="3" stroke-linecap="round"/><polyline points="478,375 432,369 419,374 400,408 372,429 354,485 344,495 329,498 320,494" fill="none" stroke="#8a8f98" stroke-width="3" stroke-linecap="round"/><polyline points="547,411 554,369 542,348" fill="none" stroke="#8a8f98" stroke-width="3" stroke-linecap="round"/><polyline points="-36,417 94,364 114,347 134,319" fill="none" stroke="#8a8f98" stroke-width="5" stroke-linecap="round"/><polyline points="167,327 165,334 121,383 107,391 72,403 -38,450 -62,470 -82,503" fill="none" stroke="#8a8f98" stroke-width="3" stroke-linecap="round"/><polyline points="-224,780 -202,742 -148,668 -146,657 -131,644 -94,583 -29,507 -5,488 159,419 173,408 186,404" fill="none" stroke="#8a8f98" stroke-width="3" stroke-linecap="round"/><polyline points="343,393 397,244" fill="none" stroke="#8a8f98" stroke-width="3" stroke-linecap="round"/><polyline points="47,338 64,384" fill="none" stroke="#8a8f98" stroke-width="3" stroke-linecap="round"/><polyline points="63,599 100,617" fill="none" stroke="#8a8f98" stroke-width="10" stroke-linecap="round"/><polyline points="266,518 258,485 236,451 235,441 250,416 286,385 300,354" fill="none" stroke="#8a8f98" stroke-width="3" stroke-linecap="round"/><polyline points="343,393 295,346 293,339 297,318 284,289" fill="none" stroke="#8a8f98" stroke-width="3" stroke-linecap="round"/><polyline points="83,629 76,617 55,605 27,594 -45,552" fill="none" stroke="#8a8f98" stroke-width="3" stroke-linecap="round"/><polyline points="-3,561 7,543 206,646 218,642 242,592 234,578 227,574 187,525 163,485 109,483 101,469" fill="none" stroke="#8a8f98" stroke-width="3" stroke-linecap="round"/><polyline points="64,585 84,600 161,641 169,641 200,656 213,656 219,652 231,631 257,576 263,557 262,546 227,504 229,500" fill="none" stroke="#8a8f98" stroke-width="3" stroke-linecap="round"/><polyline points="-108,493 -76,451 -64,440 -28,419 94,368 115,349 137,319 117,300 98,300 94,301 82,317 69,326 -2,354 -6,352 -18,320" fill="none" stroke="#8a8f98" stroke-width="3" stroke-linecap="round"/><polyline points="48,341 -51,381 -53,397 -47,415 -42,417 60,374" fill="none" stroke="#8a8f98" stroke-width="3" stroke-linecap="round"/><polyline points="60,374 105,352 129,324 130,319 112,304 100,305 82,325 48,341" fill="none" stroke="#8a8f98" stroke-width="3" stroke-linecap="round"/><polyline points="300,354 313,348 322,348 347,381" fill="none" stroke="#8a8f98" stroke-width="3" stroke-linecap="round"/><polyline points="24,577 58,595" fill="none" stroke="#8a8f98" stroke-width="10" stroke-linecap="round"/><polyline points="58,595 57,599 54,602" fill="none" stroke="#8a8f98" stroke-width="10" stroke-linecap="round"/><polyline points="58,595 63,599" fill="none" stroke="#8a8f98" stroke-width="10" stroke-linecap="round"/><polyline points="54,602 -43,546" fill="none" stroke="#8a8f98" stroke-width="10" stroke-linecap="round"/><polyline points="-39,540 24,577" fill="none" stroke="#8a8f98" stroke-width="10" stroke-linecap="round"/><polyline points="-37,535 0,556 64,585" fill="none" stroke="#8a8f98" stroke-width="3" stroke-linecap="round"/><polyline points="541,518 524,510 494,515 488,513 453,497 436,479 434,471" fill="none" stroke="#8a8f98" stroke-width="3" stroke-linecap="round"/><polyline points="511,510 533,476 535,462 545,441 543,427 547,411" fill="none" stroke="#8a8f98" stroke-width="3" stroke-linecap="round"/><polyline points="434,471 446,461 448,453 385,437 365,435" fill="none" stroke="#8a8f98" stroke-width="3" stroke-linecap="round"/><polyline points="477,620 486,619 494,611 496,589 471,586 461,591 464,612 477,620" fill="none" stroke="#8a8f98" stroke-width="3" stroke-linecap="round"/><polyline points="332,437 332,470 325,486 310,504 282,525" fill="none" stroke="#8a8f98" stroke-width="3" stroke-linecap="round"/><polyline points="478,375 484,387 503,393 531,421 543,427" fill="none" stroke="#8a8f98" stroke-width="3" stroke-linecap="round"/><polyline points="500,569 501,538 511,510" fill="none" stroke="#8a8f98" stroke-width="3" stroke-linecap="round"/><polyline points="324,700 354,568 353,550 349,529 340,520 305,500" fill="none" stroke="#8a8f98" stroke-width="3" stroke-linecap="round"/><polyline points="516,702 519,578 524,578" fill="none" stroke="#8a8f98" stroke-width="3" stroke-linecap="round"/><polyline points="236,633 270,553 265,543 229,500" fill="none" stroke="#8a8f98" stroke-width="5" stroke-linecap="round"/><polyline points="274,541 274,561 241,634 238,668" fill="none" stroke="#8a8f98" stroke-width="3" stroke-linecap="round"/><polyline points="164,428 167,422 175,420 196,440" fill="none" stroke="#8a8f98" stroke-width="3" stroke-linecap="round"/><polyline points="229,500 207,474" fill="none" stroke="#8a8f98" stroke-width="5" stroke-linecap="round"/><polyline points="196,462 187,453" fill="none" stroke="#8a8f98" stroke-width="5" stroke-linecap="round"/><polyline points="207,474 196,462" fill="none" stroke="#8a8f98" stroke-width="5" stroke-linecap="round"/><polyline points="170,435 164,428" fill="none" stroke="#8a8f98" stroke-width="5" stroke-linecap="round"/><polyline points="187,453 170,435" fill="none" stroke="#8a8f98" stroke-width="5" stroke-linecap="round"/><polyline points="207,453 236,486" fill="none" stroke="#8a8f98" stroke-width="3" stroke-linecap="round"/><polyline points="143,545 143,534 170,534 187,525" fill="none" stroke="#8a8f98" stroke-width="3" stroke-linecap="round"/><polyline points="553,637 566,597 567,576" fill="none" stroke="#8a8f98" stroke-width="3" stroke-linecap="round"/><polyline points="786,273 825,325 817,376 798,413 784,430" fill="none" stroke="#8a8f98" stroke-width="3" stroke-linecap="round"/><polyline points="850,339 828,383 810,403 798,413" fill="none" stroke="#8a8f98" stroke-width="3" stroke-linecap="round"/><polyline points="717,338 739,365 742,373" fill="none" stroke="#8a8f98" stroke-width="3" stroke-linecap="round"/><polyline points="737,374 730,364 705,355 701,349" fill="none" stroke="#8a8f98" stroke-width="3" stroke-linecap="round"/><polyline points="692,362 691,378 697,398 697,408 685,428 663,433" fill="none" stroke="#8a8f98" stroke-width="3" stroke-linecap="round"/><polyline points="782,539 779,517 782,506 792,503 807,508" fill="none" stroke="#8a8f98" stroke-width="8" stroke-linecap="round"/><polyline points="784,430 774,458 776,555" fill="none" stroke="#8a8f98" stroke-width="3" stroke-linecap="round"/><polyline points="825,516 846,524 862,525" fill="none" stroke="#8a8f98" stroke-width="8" stroke-linecap="round"/><polyline points="862,525 825,529" fill="none" stroke="#8a8f98" stroke-width="8" stroke-linecap="round"/><polyline points="928,488 907,494 892,489" fill="none" stroke="#8a8f98" stroke-width="5" stroke-linecap="round"/><polyline points="807,508 810,520 799,536" fill="none" stroke="#8a8f98" stroke-width="8" stroke-linecap="round"/><polyline points="969,407 962,412 948,410 928,412" fill="none" stroke="#8a8f98" stroke-width="3" stroke-linecap="round"/><polyline points="799,536 794,542" fill="none" stroke="#8a8f98" stroke-width="8" stroke-linecap="round"/><polyline points="766,506 769,475 753,457" fill="none" stroke="#8a8f98" stroke-width="3" stroke-linecap="round"/><polyline points="768,538 727,539" fill="none" stroke="#8a8f98" stroke-width="3" stroke-linecap="round"/><polyline points="992,413 978,456 993,479 996,492 920,530 911,531 894,525" fill="none" stroke="#8a8f98" stroke-width="3" stroke-linecap="round"/><polyline points="773,495 804,500 841,517 873,518 894,525" fill="none" stroke="#8a8f98" stroke-width="3" stroke-linecap="round"/><polyline points="798,555 805,539 814,533 864,530 909,541 920,538 990,504 1002,506" fill="none" stroke="#8a8f98" stroke-width="3" stroke-linecap="round"/><polyline points="978,453 961,423 950,418 780,439" fill="none" stroke="#8a8f98" stroke-width="3" stroke-linecap="round"/><polyline points="950,520 919,535 900,535" fill="none" stroke="#8a8f98" stroke-width="8" stroke-linecap="round"/><polyline points="774,479 764,480 765,503 724,503" fill="none" stroke="#8a8f98" stroke-width="3" stroke-linecap="round"/><polyline points="912,414 854,421" fill="none" stroke="#8a8f98" stroke-width="3" stroke-linecap="round"/><polyline points="973,509 950,520" fill="none" stroke="#8a8f98" stroke-width="8" stroke-linecap="round"/><polyline points="900,535 870,526 862,525" fill="none" stroke="#8a8f98" stroke-width="8" stroke-linecap="round"/><polyline points="794,542 792,551" fill="none" stroke="#8a8f98" stroke-width="8" stroke-linecap="round"/><polyline points="792,551 794,612" fill="none" stroke="#8a8f98" stroke-width="8" stroke-linecap="round"/><polyline points="784,569 783,555" fill="none" stroke="#8a8f98" stroke-width="8" stroke-linecap="round"/><polyline points="785,614 784,569" fill="none" stroke="#8a8f98" stroke-width="8" stroke-linecap="round"/><polyline points="825,529 809,530 799,536" fill="none" stroke="#8a8f98" stroke-width="8" stroke-linecap="round"/><polyline points="807,508 825,516" fill="none" stroke="#8a8f98" stroke-width="8" stroke-linecap="round"/><polyline points="783,555 782,539" fill="none" stroke="#8a8f98" stroke-width="8" stroke-linecap="round"/><polyline points="975,475 928,488" fill="none" stroke="#8a8f98" stroke-width="5" stroke-linecap="round"/><polyline points="753,457 740,442 738,408" fill="none" stroke="#8a8f98" stroke-width="3" stroke-linecap="round"/><polyline points="983,466 980,471 908,492 892,487 892,489" fill="none" stroke="#8a8f98" stroke-width="3" stroke-linecap="round"/><polyline points="989,474 908,497 891,491 892,489" fill="none" stroke="#8a8f98" stroke-width="3" stroke-linecap="round"/><polyline points="809,661 805,656 801,634 798,555" fill="none" stroke="#8a8f98" stroke-width="3" stroke-linecap="round"/><polyline points="724,680 723,618 739,604 739,549" fill="none" stroke="#8a8f98" stroke-width="3" stroke-linecap="round"/><polyline points="776,495 784,482 785,471 780,439" fill="none" stroke="#8a8f98" stroke-width="3" stroke-linecap="round"/><polyline points="776,555 780,663" fill="none" stroke="#8a8f98" stroke-width="3" stroke-linecap="round"/><polyline points="825,516 828,523 825,529" fill="none" stroke="#8a8f98" stroke-width="8" stroke-linecap="round"/><polyline points="-125,16 -126,32 -123,39 -109,53 -85,64 -68,78 -44,92 7,102" fill="none" stroke="#8a8f98" stroke-width="3" stroke-linecap="round"/><polyline points="42,48 24,53 -1,81" fill="none" stroke="#8a8f98" stroke-width="3" stroke-linecap="round"/><polyline points="44,25 42,54 38,63 12,89 7,102" fill="none" stroke="#8a8f98" stroke-width="3" stroke-linecap="round"/><polyline points="31,152 16,181 18,241" fill="none" stroke="#8a8f98" stroke-width="5" stroke-linecap="round"/><polyline points="19,307 19,312" fill="none" stroke="#8a8f98" stroke-width="5" stroke-linecap="round"/><polyline points="19,312 -23,318" fill="none" stroke="#8a8f98" stroke-width="8" stroke-linecap="round"/><polyline points="-24,313 19,307" fill="none" stroke="#8a8f98" stroke-width="8" stroke-linecap="round"/><polyline points="18,241 19,307" fill="none" stroke="#8a8f98" stroke-width="5" stroke-linecap="round"/><polyline points="31,152 -12,128" fill="none" stroke="#8a8f98" stroke-width="5" stroke-linecap="round"/><polyline points="51,164 31,152" fill="none" stroke="#8a8f98" stroke-width="5" stroke-linecap="round"/><polyline points="14,352 -6,360" fill="none" stroke="#8a8f98" stroke-width="5" stroke-linecap="round"/><polyline points="68,174 51,164" fill="none" stroke="#8a8f98" stroke-width="5" stroke-linecap="round"/><polyline points="26,347 14,352" fill="none" stroke="#8a8f98" stroke-width="5" stroke-linecap="round"/><polyline points="177,315 170,325 156,327 148,320 134,303 123,295 109,289 99,290" fill="none" stroke="#8a8f98" stroke-width="8" stroke-linecap="round"/><polyline points="213,268 201,254" fill="none" stroke="#8a8f98" stroke-width="5" stroke-linecap="round"/><polyline points="421,223 434,275 445,288 468,309 481,315 506,321" fill="none" stroke="#8a8f98" stroke-width="3" stroke-linecap="round"/><polyline points="406,340 433,323 443,323 478,336 513,361 527,359 542,348" fill="none" stroke="#8a8f98" stroke-width="3" stroke-linecap="round"/><polyline points="533,270 528,276 527,287 534,296 542,297 550,295 556,288 555,277 549,269" fill="none" stroke="#8a8f98" stroke-width="3" stroke-linecap="round"/><polyline points="371,170 358,171 342,163 320,160" fill="none" stroke="#8a8f98" stroke-width="3" stroke-linecap="round"/><polyline points="506,321 546,323" fill="none" stroke="#8a8f98" stroke-width="3" stroke-linecap="round"/><polyline points="315,188 332,191 363,207 410,218 474,248 516,272 541,267 567,272" fill="none" stroke="#8a8f98" stroke-width="3" stroke-linecap="round"/><polyline points="273,180 253,175 241,166 233,148 226,121 214,111 201,107 159,105 132,98" fill="none" stroke="#8a8f98" stroke-width="3" stroke-linecap="round"/><polyline points="132,98 138,148 159,185 177,202 215,225" fill="none" stroke="#8a8f98" stroke-width="3" stroke-linecap="round"/><polyline points="134,143 137,160 159,192 191,218 200,223 215,225" fill="none" stroke="#8a8f98" stroke-width="3" stroke-linecap="round"/><polyline points="542,348 546,315 542,297" fill="none" stroke="#8a8f98" stroke-width="3" stroke-linecap="round"/><polyline points="215,225 225,214 229,192 233,185 253,175" fill="none" stroke="#8a8f98" stroke-width="3" stroke-linecap="round"/><polyline points="98,285 96,267 106,248" fill="none" stroke="#8a8f98" stroke-width="5" stroke-linecap="round"/><polyline points="134,319 125,309 110,301" fill="none" stroke="#8a8f98" stroke-width="5" stroke-linecap="round"/><polyline points="177,315 212,274 213,268" fill="none" stroke="#8a8f98" stroke-width="5" stroke-linecap="round"/><polyline points="154,214 158,213 206,238 209,244 201,254" fill="none" stroke="#8a8f98" stroke-width="3" stroke-linecap="round"/><polyline points="98,285 108,284 120,287 134,296 147,311" fill="none" stroke="#8a8f98" stroke-width="8" stroke-linecap="round"/><polyline points="233,185 214,181 190,181 172,161 168,141" fill="none" stroke="#8a8f98" stroke-width="3" stroke-linecap="round"/><polyline points="395,214 369,191 364,182 363,171" fill="none" stroke="#8a8f98" stroke-width="3" stroke-linecap="round"/><polyline points="535,269 539,254 534,243 520,238 506,237 488,220 452,214 419,222" fill="none" stroke="#8a8f98" stroke-width="3" stroke-linecap="round"/><polyline points="99,290 98,285" fill="none" stroke="#8a8f98" stroke-width="5" stroke-linecap="round"/><polyline points="106,248 128,209" fill="none" stroke="#8a8f98" stroke-width="5" stroke-linecap="round"/><polyline points="165,231 162,229" fill="none" stroke="#8a8f98" stroke-width="5" stroke-linecap="round"/><polyline points="150,221 128,209" fill="none" stroke="#8a8f98" stroke-width="5" stroke-linecap="round"/><polyline points="128,209 87,185" fill="none" stroke="#8a8f98" stroke-width="5" stroke-linecap="round"/><polyline points="201,254 165,231" fill="none" stroke="#8a8f98" stroke-width="5" stroke-linecap="round"/><polyline points="147,311 156,320 160,321 168,320 177,315" fill="none" stroke="#8a8f98" stroke-width="8" stroke-linecap="round"/><polyline points="162,229 150,221" fill="none" stroke="#8a8f98" stroke-width="5" stroke-linecap="round"/><polyline points="395,216 419,224 425,241 404,247 376,236 373,214 395,216" fill="none" stroke="#8a8f98" stroke-width="3" stroke-linecap="round"/><polyline points="486,295 493,298 495,292 491,288 503,293 499,290 500,286 506,285 510,277" fill="none" stroke="#8a8f98" stroke-width="3" stroke-linecap="round"/><polyline points="516,272 515,276 510,277 494,271 491,277 485,275 493,280 488,291 493,293 492,295 487,293 482,300 488,283 491,282" fill="none" stroke="#8a8f98" stroke-width="3" stroke-linecap="round"/><polyline points="333,361 328,347 329,333 336,321 360,310 373,308" fill="none" stroke="#8a8f98" stroke-width="3" stroke-linecap="round"/><polyline points="343,318 330,320 316,310 313,302 320,270 349,241 371,233 381,223 383,213" fill="none" stroke="#8a8f98" stroke-width="3" stroke-linecap="round"/><polyline points="349,241 356,269 361,275 383,281" fill="none" stroke="#8a8f98" stroke-width="3" stroke-linecap="round"/><polyline points="168,141 144,124 132,124" fill="none" stroke="#8a8f98" stroke-width="3" stroke-linecap="round"/><polyline points="168,141 182,127 178,106" fill="none" stroke="#8a8f98" stroke-width="3" stroke-linecap="round"/><polyline points="-91,-71 -93,-60 -90,-44 -83,-31 -65,-17 58,31 80,42 124,81 146,92 159,98 202,101 230,114 241,126 249,141 254,167 263,177" fill="none" stroke="#8a8f98" stroke-width="3" stroke-linecap="round"/><polyline points="7,102 47,136 59,140 108,138 126,144 134,143" fill="none" stroke="#8a8f98" stroke-width="3" stroke-linecap="round"/><polyline points="567,272 573,250 564,222 556,215 526,203 477,189 451,196 441,195 364,167 348,154 332,151 320,160 315,188" fill="none" stroke="#8a8f98" stroke-width="3" stroke-linecap="round"/><polyline points="14,105 28,98 46,106 69,100 74,101 108,151" fill="none" stroke="#8a8f98" stroke-width="3" stroke-linecap="round"/><polyline points="38,63 55,75 59,86 63,90 79,93 94,107 111,102 128,108" fill="none" stroke="#8a8f98" stroke-width="3" stroke-linecap="round"/><polyline points="87,185 57,238 51,241 18,241" fill="none" stroke="#8a8f98" stroke-width="5" stroke-linecap="round"/><polyline points="110,301 95,303 80,322 71,328 26,347" fill="none" stroke="#8a8f98" stroke-width="5" stroke-linecap="round"/><polyline points="150,221 154,208 144,198 66,154 57,155 51,164" fill="none" stroke="#8a8f98" stroke-width="3" stroke-linecap="round"/><polyline points="76,158 80,151 86,150 146,184 148,189 144,198" fill="none" stroke="#8a8f98" stroke-width="3" stroke-linecap="round"/><polyline points="99,290 28,312 19,312" fill="none" stroke="#8a8f98" stroke-width="8" stroke-linecap="round"/><polyline points="19,307 28,306 98,285" fill="none" stroke="#8a8f98" stroke-width="8" stroke-linecap="round"/><polyline points="87,185 68,174" fill="none" stroke="#8a8f98" stroke-width="5" stroke-linecap="round"/><polyline points="-287,357 -267,340 -245,326 -225,317 -208,313 -30,309 28,303 104,281 117,281 136,292 158,316 164,318 177,315" fill="none" stroke="#8a8f98" stroke-width="3" stroke-linecap="round"/><polyline points="213,268 132,214 -16,128" fill="none" stroke="#8a8f98" stroke-width="3" stroke-linecap="round"/><polyline points="166,330 147,326 129,303 117,295 108,293 33,314 2,316 -57,325" fill="none" stroke="#8a8f98" stroke-width="3" stroke-linecap="round"/><polyline points="132,98 88,56 76,49 31,28 -13,18 -61,-4 -90,-23 -93,-29 -98,-72" fill="none" stroke="#8a8f98" stroke-width="3" stroke-linecap="round"/><polyline points="896,322 879,334 856,340 835,333 825,325" fill="none" stroke="#8a8f98" stroke-width="3" stroke-linecap="round"/><polyline points="600,284 640,295" fill="none" stroke="#8a8f98" stroke-width="3" stroke-linecap="round"/><polyline points="864,339 848,315 841,292" fill="none" stroke="#8a8f98" stroke-width="3" stroke-linecap="round"/><polyline points="1033,296 1008,300 950,297 923,305 927,313" fill="none" stroke="#8a8f98" stroke-width="3" stroke-linecap="round"/><polyline points="692,362 675,361 675,340 693,326" fill="none" stroke="#8a8f98" stroke-width="3" stroke-linecap="round"/><polyline points="716,243 709,238 694,239 682,245 677,252" fill="none" stroke="#8a8f98" stroke-width="3" stroke-linecap="round"/><polyline points="712,239 722,234 749,234 771,243 776,256" fill="none" stroke="#8a8f98" stroke-width="3" stroke-linecap="round"/><polyline points="823,348 831,352 854,352 885,339 944,306 961,304 1012,308 1037,305 1069,289" fill="none" stroke="#8a8f98" stroke-width="3" stroke-linecap="round"/><polyline points="640,295 662,300 669,289 677,252 716,243 761,254 786,273 839,274 865,262 878,263 958,288 970,288 1006,275 1047,278 1069,289 1095,275 1135,271 1174,254 1244,254 1262,252 1309,226 1417,213 1429,205" fill="none" stroke="#8a8f98" stroke-width="3" stroke-linecap="round"/><polyline points="761,254 818,269 838,268 859,257 871,258 965,280 987,276 1007,267 1016,265 1081,273 1115,268 1155,248 1188,244 1246,243 1309,216 1325,212 1402,203 1429,205 1456,211" fill="none" stroke="#8a8f98" stroke-width="3" stroke-linecap="round"/><polyline points="324,656 333,616 341,535" fill="none" stroke="#444" stroke-width="4" stroke-dasharray="8,4"/><polygon points="113,562 108,554 94,563 73,551 77,543 70,542 72,537 52,525 52,518 41,498 64,485 77,506 78,511 73,515 90,525 91,518 94,519 99,511 133,489 163,489 180,519 167,526 159,526 159,530 133,530 116,538 124,555 113,562" fill="#c8c2b8" stroke="#00000033"/><polygon points="117,559 113,562 117,570 110,574 112,579 109,584 113,581 118,588 125,592 125,598 127,595 160,595 160,602 167,602 165,595 207,596 221,586 217,579 223,575 223,572 202,547 191,554 188,550 174,561 154,561 153,553 150,553 148,554 150,561 141,561 141,555 137,555 139,561 132,565 130,560 127,561 130,566 123,570 117,559" fill="#c8c2b8" stroke="#00000033"/><polygon points="699,569 684,504 716,491 721,474 750,473 757,481 761,481 762,496 730,498 720,508 724,510 722,516 728,516 729,533 723,533 722,536 727,543 727,553 733,552 733,567 699,569" fill="#c8c2b8" stroke="#00000033"/><polygon points="653,611 653,617 614,618 612,580 650,578 651,585 674,584 683,589 686,599 681,607 675,610 653,611" fill="#c8c2b8" stroke="#00000033"/><polygon points="747,614 744,543 771,542 773,613 747,614" fill="#c8c2b8" stroke="#00000033"/><polygon points="696,625 701,616 699,569 733,567 735,602 719,605 719,624 696,625" fill="#c8c2b8" stroke="#00000033"/><polygon points="727,337 723,334 715,334 684,356 680,351 686,347 683,343 713,322 723,321 729,323 759,354 756,358 758,360 753,365 727,337" fill="#c8c2b8" stroke="#00000033"/><polygon points="948,390 953,394 963,381 972,388 967,402 964,399 959,404 947,392 935,407 878,361 917,390 931,372 950,388 948,390" fill="#c8c2b8" stroke="#00000033"/><polygon points="906,448 929,455 923,483 908,486 898,477 906,448" fill="#c8c2b8" stroke="#00000033"/><polygon points="145,474 133,474 133,469 140,468 141,463 124,463 125,468 132,469 132,474 120,474 120,468 115,465 122,464 116,455 116,449 98,459 105,464 111,459 116,469 112,474 117,474 111,476 111,481 125,481 123,475 130,475 127,482 145,481 142,475 146,475 149,480 157,478 147,461 143,465 145,474" fill="#c8c2b8" stroke="#00000033"/><polygon points="816,488 809,485 815,476 810,475 812,465 819,465 819,468 826,450 824,449 822,454 816,452 818,441 827,440 829,444 833,437 839,441 816,488" fill="#c8c2b8" stroke="#00000033"/><polygon points="176,549 164,547 164,542 172,541 173,536 153,536 153,541 162,542 158,548 163,550 154,551 153,557 170,557 167,550 175,550 172,554 174,559 188,550 183,546 189,543 194,551 200,549 190,531 186,537 175,542 180,546 176,549" fill="#c8c2b8" stroke="#00000033"/><polygon points="27,547 25,550 43,559 43,553 48,546 42,545 47,536 57,542 51,546 59,550 64,546 67,548 64,554 69,558 77,543 72,541 68,546 63,544 69,540 52,530 51,537 47,534 50,529 41,524 41,533 45,536 43,540 38,538 36,541 40,546 38,549 27,547" fill="#c8c2b8" stroke="#00000033"/><polygon points="849,380 875,359 880,364 849,393 844,414 838,412 842,388 849,380" fill="#c8c2b8" stroke="#00000033"/><polygon points="937,436 933,453 906,446 908,437 927,426 937,436" fill="#c8c2b8" stroke="#00000033"/><polygon points="93,500 99,496 100,503 114,495 111,491 103,494 104,489 99,490 98,488 104,483 102,479 90,485 93,490 97,489 99,492 94,495 95,497 89,505 86,502 91,498 89,493 75,501 78,505 85,503 88,506 84,514 76,511 73,515 90,525 92,516 86,513 92,514 97,505 90,505 93,500" fill="#c8c2b8" stroke="#00000033"/><polygon points="8,509 2,512 11,517 14,512 22,517 15,516 11,520 26,529 28,523 23,519 29,517 25,514 27,512 35,516 39,512 21,502 20,507 25,512 24,514 21,512 20,514 9,508 9,506 15,506 9,497 9,491 -8,501 -2,506 4,501 8,509" fill="#c8c2b8" stroke="#00000033"/><polygon points="886,368 892,374 859,415 852,409 886,368" fill="#c8c2b8" stroke="#00000033"/><polygon points="208,602 210,601 213,606 220,602 217,597 225,598 227,594 225,592 228,590 232,596 238,594 229,579 226,584 217,588 223,592 219,594 216,590 209,594 211,599 207,601 205,601 205,595 190,595 190,600 199,601 195,603 195,608 208,608 208,602" fill="#c8c2b8" stroke="#00000033"/><polygon points="137,555 141,555 141,561 150,561 147,549 141,550 141,554 139,550 133,552 132,549 137,547 133,539 128,542 130,538 128,531 116,538 119,542 125,540 134,556 130,559 126,554 117,559 123,570 130,566 127,561 130,560 132,565 139,561 137,555" fill="#c8c2b8" stroke="#00000033"/><polygon points="845,508 850,510 853,508 853,510 859,512 866,499 874,503 876,497 874,494 877,495 879,490 864,484 858,498 849,495 845,508" fill="#c8c2b8" stroke="#00000033"/><polygon points="939,441 944,439 943,442 952,444 946,475 939,473 938,476 933,474 939,441" fill="#c8c2b8" stroke="#00000033"/><polygon points="794,445 811,444 803,486 795,486 796,474 803,469 797,468 796,460 807,459 807,455 794,456 794,445" fill="#c8c2b8" stroke="#00000033"/><polygon points="275,605 271,613 273,614 272,619 261,617 264,613 269,613 270,610 264,610 268,598 273,599 273,603 279,602 274,598 277,596 272,596 269,592 286,586 286,591 282,594 284,596 280,602 290,601 293,605 277,611 277,604 275,605" fill="#c8c2b8" stroke="#00000033"/><polygon points="87,577 85,581 102,590 107,576 99,575 102,569 104,568 108,574 117,570 113,565 106,568 104,564 110,560 108,554 94,563 97,567 103,567 99,572 94,571 96,575 94,578 87,577" fill="#c8c2b8" stroke="#00000033"/><polygon points="868,443 873,432 882,436 882,442 871,466 861,461 868,443" fill="#c8c2b8" stroke="#00000033"/><polygon points="-11,507 -3,512 -10,526 6,534 2,541 -23,526 -11,507" fill="#c8c2b8" stroke="#00000033"/><polygon points="890,437 902,438 899,448 897,447 898,450 893,469 890,469 882,467 890,437" fill="#c8c2b8" stroke="#00000033"/><polygon points="127,595 127,601 131,602 132,607 140,607 141,602 144,602 144,608 152,607 153,602 154,609 160,606 160,595 152,595 151,601 147,601 146,595 140,595 139,601 136,601 135,595 127,595" fill="#c8c2b8" stroke="#00000033"/><polygon points="896,376 902,382 880,410 874,404 896,376" fill="#c8c2b8" stroke="#00000033"/><polygon points="302,591 300,596 304,596 299,598 298,604 316,601 314,596 309,596 309,591 306,590 316,587 317,581 309,584 310,588 305,589 307,582 290,585 291,590 302,591" fill="#c8c2b8" stroke="#00000033"/><polygon points="185,616 178,615 178,612 183,612 183,604 178,604 178,602 185,601 185,595 176,595 176,601 173,601 173,595 165,595 165,601 172,602 174,609 177,609 177,613 172,613 171,621 185,621 185,616" fill="#c8c2b8" stroke="#00000033"/><polyline points="-42,524 -29,507 -5,488 159,419 173,408 186,404 188,383 257,301 284,289 290,267 311,236 315,188 332,191 363,207 410,218 516,272 544,268 662,300 669,289 677,252 716,243 818,269 838,268 859,257 901,264" fill="none" stroke="#ffdd44" stroke-width="6" opacity="0.85"/><circle cx="-42" cy="524" r="10" fill="#a0f"/><circle cx="901" cy="264" r="10" fill="#f00"/><path d="M-67.99999999986677,525.0000000000083 L-51.99999999986677,525.0000000000083 M-59.99999999986677,517.0000000000083 L-59.99999999986677,533.0000000000083" stroke="#0ff" stroke-width="2"/><path d="M892.0000000001332,202.50000000001083 L908.0000000001332,202.50000000001083 M900.0000000001332,194.50000000001083 L900.0000000001332,210.50000000001083" stroke="#0ff" stroke-width="2"/><rect x="29" y="396" width="22" height="16" fill="#b8c2cc" stroke="#333"/><rect x="89" y="372" width="22" height="16" fill="#b8c2cc" stroke="#333"/><rect x="161" y="456" width="22" height="16" fill="#b8c2cc" stroke="#333"/><rect x="221" y="396" width="22" height="16" fill="#b8c2cc" stroke="#333"/><rect x="269" y="336" width="22" height="16" fill="#b8c2cc" stroke="#333"/><rect x="317" y="288" width="22" height="16" fill="#b8c2cc" stroke="#333"/><rect x="365" y="252" width="22" height="16" fill="#b8c2cc" stroke="#333"/><rect x="233" y="192" width="22" height="16" fill="#b8c2cc" stroke="#333"/><rect x="413" y="168" width="22" height="16" fill="#b8c2cc" stroke="#333"/><rect x="257" y="132" width="22" height="16" fill="#b8c2cc" stroke="#333"/><rect x="485" y="204" width="22" height="16" fill="#b8c2cc" stroke="#333"/><rect x="449" y="336" width="22" height="16" fill="#b8c2cc" stroke="#333"/><rect x="545" y="192" width="22" height="16" fill="#b8c2cc" stroke="#333"/><rect x="545" y="312" width="22" height="16" fill="#b8c2cc" stroke="#333"/><rect x="593" y="228" width="22" height="16" fill="#b8c2cc" stroke="#333"/><rect x="641" y="336" width="22" height="16" fill="#b8c2cc" stroke="#333"/><rect x="713" y="288" width="22" height="16" fill="#b8c2cc" stroke="#333"/><rect x="773" y="300" width="22" height="16" fill="#b8c2cc" stroke="#333"/><text x="405" y="75" font-size="13" fill="#fff" text-anchor="middle" stroke="#000" stroke-width="0.4">Pasir Ris Beach</text><text x="480" y="20" font-size="16" fill="#fff" text-anchor="middle">7: Pasir Ris Park</text></svg>