<svg xmlns="http://www.w3.org/2000/svg" width="960" height="600" viewBox="0 0 960 600"><rect width="960" height="600" fill="#6aa03c"/><polygon points="234,-130 125,-142 101,-140 84,-126 55,-74 213,34 246,-1 282,-12 315,-10 454,62 476,85 493,130 493,143 485,165 455,245 458,257 465,264 493,277 592,338 605,341 612,338 664,254 724,149 724,132 713,109 650,50 448,-71 365,-104 234,-130" fill="#4c8a2c" opacity="0.7"/><polygon points="1069,-111 1146,-137 1283,106 1159,194 1090,281 1045,252 1034,272 805,93 803,79 807,65 816,70 820,81 826,88 862,113 891,140 905,144 918,137 923,119 971,57 1010,26 1048,8 1056,42 1081,31 1086,43 1111,25 1094,-54 1081,-89 1069,-111" fill="#4c8a2c" opacity="0.7"/><polygon points="1690,1056 1776,988 1751,999 1731,1001 1713,995 1696,984 1620,923 1451,802 1426,776 1375,706 1359,690 1329,666 1285,647 1222,629 1186,611 1084,539 1341,185 1347,180 1333,164 1326,170 1068,526 983,464 967,446 910,369 869,333 849,320 805,301 769,292 720,286 682,271 668,299 714,317 753,325 803,341 846,363 876,384 903,410 942,463 967,493 1061,574 1089,594 1145,630 1173,645 1221,663 1280,677 1308,691 1346,725 1398,795 1437,832 1595,943 1677,1010 1686,1022 1691,1034 1690,1056" fill="#4c8a2c" opacity="0.7"/><polygon points="293,-11 290,126 277,176 268,201 225,284 210,294 194,293 180,286 108,213 73,185 45,169 -3,149 -111,113 -136,110 -316,109 -297,69 -291,66 -284,73 -270,78 -117,80 -71,93 30,129 69,146 161,204 180,209 206,205 225,194 244,163 262,104 265,62 260,33 246,-1 282,-12 293,-11" fill="#4c8a2c" opacity="0.7"/><polygon points="552,-176 510,-92 619,-41 704,5 709,-109 649,-114 633,-133 644,-242 627,-247 584,-236 552,-176" fill="#4c8a2c" opacity="0.7"/><polygon points="729,-273 715,-123 710,-123 709,-109 704,5 725,15 751,-280 783,-556 762,-558 729,-273" fill="#4c8a2c" opacity="0.7"/><polygon points="299,19 294,126 269,204 299,223 390,53 319,13 298,11 299,19" fill="#4c8a2c" opacity="0.7"/><polygon points="848,199 788,296 720,286 682,271 708,228 757,255 784,207 735,180 750,154 760,148 775,148 792,156 848,199" fill="#4c8a2c" opacity="0.7"/><polygon points="942,463 889,535 889,547 894,554 980,619 1030,548 967,493 942,463" fill="#4c8a2c" opacity="0.7"/><polygon points="161,204 180,209 206,205 225,194 244,163 262,104 265,62 256,23 241,36 235,47 161,204" fill="#4c8a2c" opacity="0.7"/><polygon points="245,321 264,331 384,115 365,105 245,321" fill="#4c8a2c" opacity="0.7"/><polygon points="270,366 284,359 351,395 380,344 289,310 260,367 270,366" fill="#4c8a2c" opacity="0.7"/><polygon points="155,536 135,525 79,621 69,631 47,639 109,664 104,654 102,633 155,536" fill="#4c8a2c" opacity="0.7"/><polygon points="804,271 788,296 849,320 884,345 898,319 879,313 883,301 854,292 857,282 826,271 823,278 804,271" fill="#4c8a2c" opacity="0.7"/><polygon points="147,489 63,446 49,477 131,523 147,489" fill="#4c8a2c" opacity="0.7"/><polygon points="991,720 838,611 849,596 1001,706 991,720" fill="#4c8a2c" opacity="0.7"/><polygon points="-117,466 10,506 22,480 -79,449 -117,466" fill="#4c8a2c" opacity="0.7"/><polygon points="162,465 147,489 63,446 67,417 162,465" fill="#4c8a2c" opacity="0.7"/><polygon points="695,545 654,603 660,607 640,636 643,648 639,653 646,659 716,560 695,545" fill="#4c8a2c" opacity="0.7"/><polygon points="-3,149 45,169 73,185 48,200 5,185 -3,167 -3,149" fill="#4c8a2c" opacity="0.7"/><polygon points="535,442 509,491 479,475 505,426 535,442" fill="#4c8a2c" opacity="0.7"/><polygon points="741,568 757,545 785,567 774,583 776,584 774,587 772,586 770,589 741,568" fill="#4c8a2c" opacity="0.7"/><polygon points="1699,1049 1701,1029 1688,1005 1662,981 1587,923 1441,822 1402,782 1346,703 1320,681 1282,664 1243,656 1193,638 1113,595 1061,557 978,484 920,409 866,363 807,330 780,321 710,305 648,276 632,257 626,241 618,136 609,96 596,69 577,44 551,22 475,-28 431,-51 380,-71 324,-83 287,-83 270,-72 263,-54 279,14 284,55 279,125 268,171 243,225 227,254 217,259 213,268 206,270 199,271 194,263 183,256 167,254 94,189 33,156 -54,121 -79,107 -137,103 -313,102 -350,108 -365,116 -303,45 -297,69 -288,79 -273,85 -141,87 -88,95 -42,119 -32,123 -10,122 38,139 91,167 157,215 177,221 205,225 211,216 233,202 247,182 267,136 275,92 276,54 271,18 260,-12 227,-62 225,-71 229,-85 240,-93 256,-96 332,-91 382,-80 434,-60 557,12 599,42 632,70 644,89 651,114 651,167 639,227 643,251 654,266 710,293 774,303 840,325 865,341 896,368 925,398 970,460 987,477 1057,526 1137,588 1201,628 1232,641 1308,664 1339,683 1371,716 1422,787 1464,826 1633,945 1711,1006 1724,1011 1738,1011 1752,1006 1699,1049" fill="#2e7bb4"/><polygon points="1719,1030 1677,987 1641,957 1442,814 1418,790 1374,729 1344,694 1305,668 1280,658 1225,645 1175,622 1124,592 982,479 953,447 920,401 863,350 822,329 794,320 704,299 650,269 642,263 635,247 635,209 641,146 637,115 630,92 615,70 558,18 434,-54 380,-75 326,-86 292,-89 273,-83 264,-75 255,-55 278,35 279,84 277,121 266,161 251,192 233,219 212,232 193,233 166,228 92,177 67,163 -13,129 -36,125 -83,104 -146,97 -279,95 -327,79 -380,47" fill="#2e7bb4"/><polyline points="128,528 85,608 76,619 59,633 44,635 9,621 3,615 2,605 12,581" fill="none" stroke="#8a8f98" stroke-width="3" stroke-linecap="round"/><polyline points="89,389 73,372" fill="none" stroke="#8a8f98" stroke-width="8" stroke-linecap="round"/><polyline points="53,484 118,519" fill="none" stroke="#8a8f98" stroke-width="3" stroke-linecap="round"/><polyline points="69,388 51,449" fill="none" stroke="#8a8f98" stroke-width="5" stroke-linecap="round"/><polyline points="-49,455 20,474" fill="none" stroke="#8a8f98" stroke-width="3" stroke-linecap="round"/><polyline points="56,411 64,385" fill="none" stroke="#8a8f98" stroke-width="5" stroke-linecap="round"/><polyline points="50,428 56,411" fill="none" stroke="#8a8f98" stroke-width="5" stroke-linecap="round"/><polyline points="9,555 1,573" fill="none" stroke="#8a8f98" stroke-width="5" stroke-linecap="round"/><polyline points="1,573 -9,598" fill="none" stroke="#8a8f98" stroke-width="5" stroke-linecap="round"/><polyline points="51,449 40,477" fill="none" stroke="#8a8f98" stroke-width="5" stroke-linecap="round"/><polyline points="40,477 22,523" fill="none" stroke="#8a8f98" stroke-width="5" stroke-linecap="round"/><polyline points="22,523 9,555" fill="none" stroke="#8a8f98" stroke-width="5" stroke-linecap="round"/><polyline points="19,507 31,478" fill="none" stroke="#8a8f98" stroke-width="5" stroke-linecap="round"/><polyline points="-4,565 19,507" fill="none" stroke="#8a8f98" stroke-width="5" stroke-linecap="round"/><polyline points="31,478 50,428" fill="none" stroke="#8a8f98" stroke-width="5" stroke-linecap="round"/><polyline points="64,385 69,388" fill="none" stroke="#8a8f98" stroke-width="5" stroke-linecap="round"/><polyline points="594,393 592,375 583,358" fill="none" stroke="#8a8f98" stroke-width="8" stroke-linecap="round"/><polyline points="636,380 660,396" fill="none" stroke="#8a8f98" stroke-width="8" stroke-linecap="round"/><polyline points="594,393 604,373" fill="none" stroke="#8a8f98" stroke-width="8" stroke-linecap="round"/><polyline points="582,417 594,393" fill="none" stroke="#8a8f98" stroke-width="8" stroke-linecap="round"/><polyline points="600,403 571,459 554,496" fill="none" stroke="#8a8f98" stroke-width="8" stroke-linecap="round"/><polyline points="632,394 612,378" fill="none" stroke="#8a8f98" stroke-width="8" stroke-linecap="round"/><polyline points="612,378 600,403" fill="none" stroke="#8a8f98" stroke-width="8" stroke-linecap="round"/><polyline points="549,532 646,602 648,608 655,609" fill="none" stroke="#8a8f98" stroke-width="3" stroke-linecap="round"/><polyline points="406,362 382,410" fill="none" stroke="#8a8f98" stroke-width="3" stroke-linecap="round"/><polyline points="392,350 361,396" fill="none" stroke="#8a8f98" stroke-width="5" stroke-linecap="round"/><polyline points="88,378 110,396" fill="none" stroke="#8a8f98" stroke-width="8" stroke-linecap="round"/><polyline points="957,406 1019,322" fill="none" stroke="#8a8f98" stroke-width="5" stroke-linecap="round"/><polyline points="348,404 385,346" fill="none" stroke="#8a8f98" stroke-width="5" stroke-linecap="round"/><polyline points="361,396 351,411" fill="none" stroke="#8a8f98" stroke-width="5" stroke-linecap="round"/><polyline points="496,604 499,595" fill="none" stroke="#8a8f98" stroke-width="8" stroke-linecap="round"/><polyline points="477,591 423,557" fill="none" stroke="#8a8f98" stroke-width="8" stroke-linecap="round"/><polyline points="315,463 303,490" fill="none" stroke="#8a8f98" stroke-width="8" stroke-linecap="round"/><polyline points="297,487 309,461" fill="none" stroke="#8a8f98" stroke-width="8" stroke-linecap="round"/><polyline points="343,490 372,516 395,530" fill="none" stroke="#8a8f98" stroke-width="8" stroke-linecap="round"/><polyline points="499,595 508,601" fill="none" stroke="#8a8f98" stroke-width="8" stroke-linecap="round"/><polyline points="293,427 253,446" fill="none" stroke="#8a8f98" stroke-width="8" stroke-linecap="round"/><polyline points="309,461 315,463" fill="none" stroke="#8a8f98" stroke-width="8" stroke-linecap="round"/><polyline points="471,578 500,573 511,563" fill="none" stroke="#8a8f98" stroke-width="8" stroke-linecap="round"/><polyline points="511,563 530,519" fill="none" stroke="#8a8f98" stroke-width="8" stroke-linecap="round"/><polyline points="303,490 297,487" fill="none" stroke="#8a8f98" stroke-width="8" stroke-linecap="round"/><polyline points="254,588 223,639" fill="none" stroke="#8a8f98" stroke-width="5" stroke-linecap="round"/><polyline points="303,490 294,514" fill="none" stroke="#8a8f98" stroke-width="5" stroke-linecap="round"/><polyline points="247,585 251,579" fill="none" stroke="#8a8f98" stroke-width="5" stroke-linecap="round"/><polyline points="187,683 247,585" fill="none" stroke="#8a8f98" stroke-width="5" stroke-linecap="round"/><polyline points="487,624 484,603 477,591" fill="none" stroke="#8a8f98" stroke-width="8" stroke-linecap="round"/><polyline points="519,575 521,602 525,611" fill="none" stroke="#8a8f98" stroke-width="8" stroke-linecap="round"/><polyline points="315,463 343,490" fill="none" stroke="#8a8f98" stroke-width="8" stroke-linecap="round"/><polyline points="331,504 303,490" fill="none" stroke="#8a8f98" stroke-width="8" stroke-linecap="round"/><polyline points="330,429 319,425 306,424 293,427" fill="none" stroke="#8a8f98" stroke-width="8" stroke-linecap="round"/><polyline points="308,415 334,424" fill="none" stroke="#8a8f98" stroke-width="8" stroke-linecap="round"/><polyline points="294,514 288,529" fill="none" stroke="#8a8f98" stroke-width="5" stroke-linecap="round"/><polyline points="309,461 312,454" fill="none" stroke="#8a8f98" stroke-width="8" stroke-linecap="round"/><polyline points="327,446 315,463" fill="none" stroke="#8a8f98" stroke-width="8" stroke-linecap="round"/><polyline points="294,502 297,487" fill="none" stroke="#8a8f98" stroke-width="5" stroke-linecap="round"/><polyline points="331,504 308,505 294,514" fill="none" stroke="#8a8f98" stroke-width="8" stroke-linecap="round"/><polyline points="308,415 329,412 348,404" fill="none" stroke="#8a8f98" stroke-width="8" stroke-linecap="round"/><polyline points="312,454 314,441 310,433 300,427 293,427" fill="none" stroke="#8a8f98" stroke-width="8" stroke-linecap="round"/><polyline points="312,454 330,429" fill="none" stroke="#8a8f98" stroke-width="8" stroke-linecap="round"/><polyline points="152,409 187,418" fill="none" stroke="#8a8f98" stroke-width="8" stroke-linecap="round"/><polyline points="187,418 210,427" fill="none" stroke="#8a8f98" stroke-width="8" stroke-linecap="round"/><polyline points="210,427 235,439" fill="none" stroke="#8a8f98" stroke-width="8" stroke-linecap="round"/><polyline points="214,437 198,427 182,423" fill="none" stroke="#8a8f98" stroke-width="8" stroke-linecap="round"/><polyline points="235,439 249,439 264,435 292,419 308,415" fill="none" stroke="#8a8f98" stroke-width="8" stroke-linecap="round"/><polyline points="417,544 436,556" fill="none" stroke="#8a8f98" stroke-width="8" stroke-linecap="round"/><polyline points="395,530 417,544" fill="none" stroke="#8a8f98" stroke-width="8" stroke-linecap="round"/><polyline points="392,538 373,526" fill="none" stroke="#8a8f98" stroke-width="8" stroke-linecap="round"/><polyline points="423,557 392,538" fill="none" stroke="#8a8f98" stroke-width="8" stroke-linecap="round"/><polyline points="436,556 449,563" fill="none" stroke="#8a8f98" stroke-width="8" stroke-linecap="round"/><polyline points="471,578 499,595" fill="none" stroke="#8a8f98" stroke-width="8" stroke-linecap="round"/><polyline points="530,519 543,489" fill="none" stroke="#8a8f98" stroke-width="8" stroke-linecap="round"/><polyline points="543,489 563,454" fill="none" stroke="#8a8f98" stroke-width="8" stroke-linecap="round"/><polyline points="540,527 531,546" fill="none" stroke="#8a8f98" stroke-width="8" stroke-linecap="round"/><polyline points="554,496 540,527" fill="none" stroke="#8a8f98" stroke-width="8" stroke-linecap="round"/><polyline points="563,454 572,436" fill="none" stroke="#8a8f98" stroke-width="8" stroke-linecap="round"/><polyline points="110,404 89,389" fill="none" stroke="#8a8f98" stroke-width="8" stroke-linecap="round"/><polyline points="182,423 136,412" fill="none" stroke="#8a8f98" stroke-width="8" stroke-linecap="round"/><polyline points="277,535 285,519" fill="none" stroke="#8a8f98" stroke-width="5" stroke-linecap="round"/><polyline points="340,428 336,433" fill="none" stroke="#8a8f98" stroke-width="8" stroke-linecap="round"/><polyline points="253,485 255,498 220,557 209,561" fill="none" stroke="#8a8f98" stroke-width="3" stroke-linecap="round"/><polyline points="453,675 471,609 464,598 447,590" fill="none" stroke="#8a8f98" stroke-width="3" stroke-linecap="round"/><polyline points="266,594 312,619" fill="none" stroke="#8a8f98" stroke-width="3" stroke-linecap="round"/><polyline points="156,545 112,621" fill="none" stroke="#8a8f98" stroke-width="3" stroke-linecap="round"/><polyline points="224,583 162,546 156,545" fill="none" stroke="#8a8f98" stroke-width="3" stroke-linecap="round"/><polyline points="202,636 216,610 215,601 224,583" fill="none" stroke="#8a8f98" stroke-width="3" stroke-linecap="round"/><polyline points="496,604 477,591" fill="none" stroke="#8a8f98" stroke-width="8" stroke-linecap="round"/><polyline points="519,575 508,601" fill="none" stroke="#8a8f98" stroke-width="8" stroke-linecap="round"/><polyline points="499,595 511,563" fill="none" stroke="#8a8f98" stroke-width="8" stroke-linecap="round"/><polyline points="367,522 331,504" fill="none" stroke="#8a8f98" stroke-width="8" stroke-linecap="round"/><polyline points="221,568 194,551 189,529 220,469 224,467 267,494 269,504 232,568" fill="none" stroke="#8a8f98" stroke-width="3" stroke-linecap="round"/><polyline points="549,532 528,594 532,602 564,625" fill="none" stroke="#8a8f98" stroke-width="3" stroke-linecap="round"/><polyline points="576,479 557,515" fill="none" stroke="#8a8f98" stroke-width="3" stroke-linecap="round"/><polyline points="233,645 262,597 266,594" fill="none" stroke="#8a8f98" stroke-width="3" stroke-linecap="round"/><polyline points="559,420 500,391" fill="none" stroke="#8a8f98" stroke-width="3" stroke-linecap="round"/><polyline points="527,382 571,405" fill="none" stroke="#8a8f98" stroke-width="3" stroke-linecap="round"/><polyline points="531,546 519,575" fill="none" stroke="#8a8f98" stroke-width="8" stroke-linecap="round"/><polyline points="572,436 582,417" fill="none" stroke="#8a8f98" stroke-width="8" stroke-linecap="round"/><polyline points="288,529 257,583" fill="none" stroke="#8a8f98" stroke-width="5" stroke-linecap="round"/><polyline points="449,455 383,421" fill="none" stroke="#8a8f98" stroke-width="3" stroke-linecap="round"/><polyline points="351,411 340,428" fill="none" stroke="#8a8f98" stroke-width="5" stroke-linecap="round"/><polyline points="334,424 348,404" fill="none" stroke="#8a8f98" stroke-width="5" stroke-linecap="round"/><polyline points="285,519 294,502" fill="none" stroke="#8a8f98" stroke-width="5" stroke-linecap="round"/><polyline points="133,405 152,409" fill="none" stroke="#8a8f98" stroke-width="8" stroke-linecap="round"/><polyline points="257,583 254,588" fill="none" stroke="#8a8f98" stroke-width="5" stroke-linecap="round"/><polyline points="251,579 277,535" fill="none" stroke="#8a8f98" stroke-width="5" stroke-linecap="round"/><polyline points="136,412 110,404" fill="none" stroke="#8a8f98" stroke-width="8" stroke-linecap="round"/><polyline points="371,591 348,630" fill="none" stroke="#8a8f98" stroke-width="3" stroke-linecap="round"/><polyline points="449,563 471,578" fill="none" stroke="#8a8f98" stroke-width="8" stroke-linecap="round"/><polyline points="253,446 234,446 214,437" fill="none" stroke="#8a8f98" stroke-width="8" stroke-linecap="round"/><polyline points="387,504 443,541" fill="none" stroke="#8a8f98" stroke-width="3" stroke-linecap="round"/><polyline points="240,477 239,487 206,543 192,547" fill="none" stroke="#8a8f98" stroke-width="3" stroke-linecap="round"/><polyline points="116,399 133,405" fill="none" stroke="#8a8f98" stroke-width="8" stroke-linecap="round"/><polyline points="110,396 116,399" fill="none" stroke="#8a8f98" stroke-width="8" stroke-linecap="round"/><polyline points="334,424 340,428" fill="none" stroke="#8a8f98" stroke-width="8" stroke-linecap="round"/><polyline points="336,433 327,446" fill="none" stroke="#8a8f98" stroke-width="8" stroke-linecap="round"/><polyline points="330,429 334,424" fill="none" stroke="#8a8f98" stroke-width="8" stroke-linecap="round"/><polyline points="330,429 336,433" fill="none" stroke="#8a8f98" stroke-width="8" stroke-linecap="round"/><polyline points="321,547 304,543 307,531 325,538" fill="none" stroke="#8a8f98" stroke-width="3" stroke-linecap="round"/><polyline points="335,545 323,586" fill="none" stroke="#8a8f98" stroke-width="3" stroke-linecap="round"/><polyline points="342,598 349,587 365,581 359,568 373,562" fill="none" stroke="#8a8f98" stroke-width="3" stroke-linecap="round"/><polyline points="349,550 331,595" fill="none" stroke="#8a8f98" stroke-width="3" stroke-linecap="round"/><polyline points="373,526 367,522" fill="none" stroke="#8a8f98" stroke-width="8" stroke-linecap="round"/><polyline points="302,581 303,573 285,569 288,557 317,563" fill="none" stroke="#8a8f98" stroke-width="3" stroke-linecap="round"/><polyline points="362,519 358,515 361,507" fill="none" stroke="#8a8f98" stroke-width="8" stroke-linecap="round"/><polyline points="729,465 716,456" fill="none" stroke="#8a8f98" stroke-width="8" stroke-linecap="round"/><polyline points="868,545 859,557" fill="none" stroke="#8a8f98" stroke-width="5" stroke-linecap="round"/><polyline points="836,574 843,559 839,543" fill="none" stroke="#8a8f98" stroke-width="8" stroke-linecap="round"/><polyline points="881,573 867,569 850,570" fill="none" stroke="#8a8f98" stroke-width="8" stroke-linecap="round"/><polyline points="632,394 615,394 600,403" fill="none" stroke="#8a8f98" stroke-width="8" stroke-linecap="round"/><polyline points="853,553 862,541" fill="none" stroke="#8a8f98" stroke-width="5" stroke-linecap="round"/><polyline points="882,524 868,545" fill="none" stroke="#8a8f98" stroke-width="5" stroke-linecap="round"/><polyline points="887,559 1048,676" fill="none" stroke="#8a8f98" stroke-width="8" stroke-linecap="round"/><polyline points="882,524 879,545 887,559" fill="none" stroke="#8a8f98" stroke-width="8" stroke-linecap="round"/><polyline points="844,527 859,529 875,524" fill="none" stroke="#8a8f98" stroke-width="8" stroke-linecap="round"/><polyline points="823,513 844,527" fill="none" stroke="#8a8f98" stroke-width="8" stroke-linecap="round"/><polyline points="844,527 862,541" fill="none" stroke="#8a8f98" stroke-width="8" stroke-linecap="round"/><polyline points="868,545 887,559" fill="none" stroke="#8a8f98" stroke-width="8" stroke-linecap="round"/><polyline points="836,574 845,563" fill="none" stroke="#8a8f98" stroke-width="5" stroke-linecap="round"/><polyline points="893,507 882,524" fill="none" stroke="#8a8f98" stroke-width="5" stroke-linecap="round"/><polyline points="655,413 632,394" fill="none" stroke="#8a8f98" stroke-width="8" stroke-linecap="round"/><polyline points="859,557 853,553" fill="none" stroke="#8a8f98" stroke-width="8" stroke-linecap="round"/><polyline points="862,541 868,545" fill="none" stroke="#8a8f98" stroke-width="8" stroke-linecap="round"/><polyline points="914,477 903,493" fill="none" stroke="#8a8f98" stroke-width="5" stroke-linecap="round"/><polyline points="962,410 914,477" fill="none" stroke="#8a8f98" stroke-width="5" stroke-linecap="round"/><polyline points="909,473 957,406" fill="none" stroke="#8a8f98" stroke-width="5" stroke-linecap="round"/><polyline points="862,541 875,524" fill="none" stroke="#8a8f98" stroke-width="5" stroke-linecap="round"/><polyline points="785,518 736,482" fill="none" stroke="#8a8f98" stroke-width="3" stroke-linecap="round"/><polyline points="806,602 826,565 830,552" fill="none" stroke="#8a8f98" stroke-width="3" stroke-linecap="round"/><polyline points="774,417 788,395 811,381" fill="none" stroke="#8a8f98" stroke-width="3" stroke-linecap="round"/><polyline points="760,456 767,447 774,417" fill="none" stroke="#8a8f98" stroke-width="3" stroke-linecap="round"/><polyline points="669,637 712,576 726,572 790,619 776,634" fill="none" stroke="#8a8f98" stroke-width="3" stroke-linecap="round"/><polyline points="881,573 859,557" fill="none" stroke="#8a8f98" stroke-width="8" stroke-linecap="round"/><polyline points="928,607 901,588" fill="none" stroke="#8a8f98" stroke-width="8" stroke-linecap="round"/><polyline points="853,553 839,543" fill="none" stroke="#8a8f98" stroke-width="8" stroke-linecap="round"/><polyline points="864,397 837,434" fill="none" stroke="#8a8f98" stroke-width="3" stroke-linecap="round"/><polyline points="830,616 849,587 859,578 890,595" fill="none" stroke="#8a8f98" stroke-width="3" stroke-linecap="round"/><polyline points="798,613 737,570" fill="none" stroke="#8a8f98" stroke-width="3" stroke-linecap="round"/><polyline points="845,563 853,553" fill="none" stroke="#8a8f98" stroke-width="5" stroke-linecap="round"/><polyline points="896,492 909,473" fill="none" stroke="#8a8f98" stroke-width="5" stroke-linecap="round"/><polyline points="875,524 896,492" fill="none" stroke="#8a8f98" stroke-width="5" stroke-linecap="round"/><polyline points="903,493 893,507" fill="none" stroke="#8a8f98" stroke-width="5" stroke-linecap="round"/><polyline points="809,502 823,513" fill="none" stroke="#8a8f98" stroke-width="8" stroke-linecap="round"/><polyline points="668,422 655,413" fill="none" stroke="#8a8f98" stroke-width="8" stroke-linecap="round"/><polyline points="716,456 668,422" fill="none" stroke="#8a8f98" stroke-width="8" stroke-linecap="round"/><polyline points="839,543 729,465" fill="none" stroke="#8a8f98" stroke-width="8" stroke-linecap="round"/><polyline points="859,557 850,570" fill="none" stroke="#8a8f98" stroke-width="5" stroke-linecap="round"/><polyline points="660,396 791,492 809,502" fill="none" stroke="#8a8f98" stroke-width="8" stroke-linecap="round"/><polyline points="645,421 656,424 688,447" fill="none" stroke="#8a8f98" stroke-width="3" stroke-linecap="round"/><polyline points="710,465 645,421" fill="none" stroke="#8a8f98" stroke-width="3" stroke-linecap="round"/><polyline points="850,570 832,596" fill="none" stroke="#8a8f98" stroke-width="5" stroke-linecap="round"/><polyline points="901,588 881,573" fill="none" stroke="#8a8f98" stroke-width="8" stroke-linecap="round"/><polyline points="829,586 836,574" fill="none" stroke="#8a8f98" stroke-width="5" stroke-linecap="round"/><polyline points="815,605 829,586" fill="none" stroke="#8a8f98" stroke-width="5" stroke-linecap="round"/><polyline points="832,596 810,625" fill="none" stroke="#8a8f98" stroke-width="5" stroke-linecap="round"/><polyline points="830,552 825,545 785,518" fill="none" stroke="#8a8f98" stroke-width="3" stroke-linecap="round"/><polyline points="-125,324 -42,334 14,335" fill="none" stroke="#8a8f98" stroke-width="8" stroke-linecap="round"/><polyline points="23,-28 23,-6 25,2 34,13" fill="none" stroke="#8a8f98" stroke-width="10" stroke-linecap="round"/><polyline points="32,21 10,21 -8,30" fill="none" stroke="#8a8f98" stroke-width="10" stroke-linecap="round"/><polyline points="9,-1 5,5" fill="none" stroke="#8a8f98" stroke-width="10" stroke-linecap="round"/><polyline points="14,335 46,342" fill="none" stroke="#8a8f98" stroke-width="8" stroke-linecap="round"/><polyline points="46,342 52,344" fill="none" stroke="#8a8f98" stroke-width="8" stroke-linecap="round"/><polyline points="52,344 67,353 70,358" fill="none" stroke="#8a8f98" stroke-width="8" stroke-linecap="round"/><polyline points="50,351 17,343 -41,339" fill="none" stroke="#8a8f98" stroke-width="8" stroke-linecap="round"/><polyline points="73,372 69,366" fill="none" stroke="#8a8f98" stroke-width="8" stroke-linecap="round"/><polyline points="70,358 76,364" fill="none" stroke="#8a8f98" stroke-width="8" stroke-linecap="round"/><polyline points="5,5 -8,-2" fill="none" stroke="#8a8f98" stroke-width="5" stroke-linecap="round"/><polyline points="5,5 -8,30" fill="none" stroke="#8a8f98" stroke-width="10" stroke-linecap="round"/><polyline points="32,21 5,5" fill="none" stroke="#8a8f98" stroke-width="5" stroke-linecap="round"/><polyline points="9,-1 34,13" fill="none" stroke="#8a8f98" stroke-width="5" stroke-linecap="round"/><polyline points="69,366 50,351" fill="none" stroke="#8a8f98" stroke-width="8" stroke-linecap="round"/><polyline points="55,37 32,21" fill="none" stroke="#8a8f98" stroke-width="5" stroke-linecap="round"/><polyline points="32,358 -21,350" fill="none" stroke="#8a8f98" stroke-width="3" stroke-linecap="round"/><polyline points="14,335 16,319 -4,316 -10,329 -10,334" fill="none" stroke="#8a8f98" stroke-width="3" stroke-linecap="round"/><polyline points="166,106 55,37" fill="none" stroke="#8a8f98" stroke-width="5" stroke-linecap="round"/><polyline points="62,-66 162,3" fill="none" stroke="#8a8f98" stroke-width="3" stroke-linecap="round"/><polyline points="34,13 142,81" fill="none" stroke="#8a8f98" stroke-width="5" stroke-linecap="round"/><polyline points="76,364 88,378" fill="none" stroke="#8a8f98" stroke-width="8" stroke-linecap="round"/><polyline points="473,161 478,134 475,115 465,94 445,73" fill="none" stroke="#8a8f98" stroke-width="5" stroke-linecap="round"/><polyline points="329,214 334,214 388,237" fill="none" stroke="#8a8f98" stroke-width="8" stroke-linecap="round"/><polyline points="418,287 429,266" fill="none" stroke="#8a8f98" stroke-width="5" stroke-linecap="round"/><polyline points="189,121 184,117" fill="none" stroke="#8a8f98" stroke-width="5" stroke-linecap="round"/><polyline points="157,175 161,167" fill="none" stroke="#8a8f98" stroke-width="5" stroke-linecap="round"/><polyline points="122,252 157,175" fill="none" stroke="#8a8f98" stroke-width="5" stroke-linecap="round"/><polyline points="130,255 120,279" fill="none" stroke="#8a8f98" stroke-width="5" stroke-linecap="round"/><polyline points="165,179 130,255" fill="none" stroke="#8a8f98" stroke-width="5" stroke-linecap="round"/><polyline points="480,110 485,128 483,150 466,202" fill="none" stroke="#8a8f98" stroke-width="5" stroke-linecap="round"/><polyline points="227,25 247,7 266,-2 292,-7 312,-5" fill="none" stroke="#8a8f98" stroke-width="5" stroke-linecap="round"/><polyline points="233,31 205,87" fill="none" stroke="#8a8f98" stroke-width="5" stroke-linecap="round"/><polyline points="323,8 300,1 269,5 251,14 233,31" fill="none" stroke="#8a8f98" stroke-width="5" stroke-linecap="round"/><polyline points="435,270 429,266" fill="none" stroke="#8a8f98" stroke-width="8" stroke-linecap="round"/><polyline points="468,273 557,326" fill="none" stroke="#8a8f98" stroke-width="8" stroke-linecap="round"/><polyline points="189,121 178,148" fill="none" stroke="#8a8f98" stroke-width="5" stroke-linecap="round"/><polyline points="214,49 227,25" fill="none" stroke="#8a8f98" stroke-width="5" stroke-linecap="round"/><polyline points="161,94 182,96 198,85" fill="none" stroke="#8a8f98" stroke-width="5" stroke-linecap="round"/><polyline points="174,136 174,126 166,106" fill="none" stroke="#8a8f98" stroke-width="5" stroke-linecap="round"/><polyline points="418,287 416,270 409,257" fill="none" stroke="#8a8f98" stroke-width="8" stroke-linecap="round"/><polyline points="461,284 439,282 423,294" fill="none" stroke="#8a8f98" stroke-width="8" stroke-linecap="round"/><polyline points="450,235 453,258 468,273" fill="none" stroke="#8a8f98" stroke-width="8" stroke-linecap="round"/><polyline points="413,247 429,244 442,235" fill="none" stroke="#8a8f98" stroke-width="8" stroke-linecap="round"/><polyline points="467,307 509,327 544,348" fill="none" stroke="#8a8f98" stroke-width="3" stroke-linecap="round"/><polyline points="184,117 187,110" fill="none" stroke="#8a8f98" stroke-width="5" stroke-linecap="round"/><polyline points="161,94 187,110" fill="none" stroke="#8a8f98" stroke-width="5" stroke-linecap="round"/><polyline points="433,257 439,260" fill="none" stroke="#8a8f98" stroke-width="8" stroke-linecap="round"/><polyline points="461,284 435,270" fill="none" stroke="#8a8f98" stroke-width="8" stroke-linecap="round"/><polyline points="435,270 423,294" fill="none" stroke="#8a8f98" stroke-width="5" stroke-linecap="round"/><polyline points="439,260 435,270" fill="none" stroke="#8a8f98" stroke-width="5" stroke-linecap="round"/><polyline points="433,257 442,235" fill="none" stroke="#8a8f98" stroke-width="5" stroke-linecap="round"/><polyline points="450,235 439,260" fill="none" stroke="#8a8f98" stroke-width="5" stroke-linecap="round"/><polyline points="328,221 327,218 329,214" fill="none" stroke="#8a8f98" stroke-width="8" stroke-linecap="round"/><polyline points="142,81 161,94" fill="none" stroke="#8a8f98" stroke-width="5" stroke-linecap="round"/><polyline points="466,202 450,235" fill="none" stroke="#8a8f98" stroke-width="5" stroke-linecap="round"/><polyline points="205,87 193,113" fill="none" stroke="#8a8f98" stroke-width="5" stroke-linecap="round"/><polyline points="475,98 485,94 486,87 472,70 442,46 444,34 465,-6 467,-5 447,35 446,43 475,67 494,90 480,110" fill="none" stroke="#8a8f98" stroke-width="3" stroke-linecap="round"/><polyline points="439,260 468,273" fill="none" stroke="#8a8f98" stroke-width="8" stroke-linecap="round"/><polyline points="429,266 433,257" fill="none" stroke="#8a8f98" stroke-width="5" stroke-linecap="round"/><polyline points="429,266 409,257" fill="none" stroke="#8a8f98" stroke-width="8" stroke-linecap="round"/><polyline points="187,110 193,113" fill="none" stroke="#8a8f98" stroke-width="5" stroke-linecap="round"/><polyline points="187,110 198,85" fill="none" stroke="#8a8f98" stroke-width="5" stroke-linecap="round"/><polyline points="183,85 174,86 142,67" fill="none" stroke="#8a8f98" stroke-width="3" stroke-linecap="round"/><polyline points="204,44 188,79 183,85" fill="none" stroke="#8a8f98" stroke-width="3" stroke-linecap="round"/><polyline points="193,113 189,121" fill="none" stroke="#8a8f98" stroke-width="5" stroke-linecap="round"/><polyline points="314,240 303,260 297,260 284,253 297,230" fill="none" stroke="#8a8f98" stroke-width="3" stroke-linecap="round"/><polyline points="184,117 166,106" fill="none" stroke="#8a8f98" stroke-width="5" stroke-linecap="round"/><polyline points="174,136 184,117" fill="none" stroke="#8a8f98" stroke-width="5" stroke-linecap="round"/><polyline points="413,247 433,257" fill="none" stroke="#8a8f98" stroke-width="8" stroke-linecap="round"/><polyline points="496,302 461,284" fill="none" stroke="#8a8f98" stroke-width="8" stroke-linecap="round"/><polyline points="388,237 413,247" fill="none" stroke="#8a8f98" stroke-width="8" stroke-linecap="round"/><polyline points="412,298 418,287" fill="none" stroke="#8a8f98" stroke-width="5" stroke-linecap="round"/><polyline points="167,154 174,136" fill="none" stroke="#8a8f98" stroke-width="5" stroke-linecap="round"/><polyline points="423,294 415,309" fill="none" stroke="#8a8f98" stroke-width="5" stroke-linecap="round"/><polyline points="178,148 165,179" fill="none" stroke="#8a8f98" stroke-width="5" stroke-linecap="round"/><polyline points="415,56 410,66 406,67 394,59 397,47" fill="none" stroke="#8a8f98" stroke-width="3" stroke-linecap="round"/><polyline points="415,309 392,350" fill="none" stroke="#8a8f98" stroke-width="5" stroke-linecap="round"/><polyline points="398,322 412,298" fill="none" stroke="#8a8f98" stroke-width="5" stroke-linecap="round"/><polyline points="385,346 390,337" fill="none" stroke="#8a8f98" stroke-width="5" stroke-linecap="round"/><polyline points="390,337 398,322" fill="none" stroke="#8a8f98" stroke-width="5" stroke-linecap="round"/><polyline points="442,235 473,161" fill="none" stroke="#8a8f98" stroke-width="5" stroke-linecap="round"/><polyline points="409,257 328,221" fill="none" stroke="#8a8f98" stroke-width="8" stroke-linecap="round"/><polyline points="161,167 167,154" fill="none" stroke="#8a8f98" stroke-width="5" stroke-linecap="round"/><polyline points="121,256 122,252" fill="none" stroke="#8a8f98" stroke-width="5" stroke-linecap="round"/><polyline points="120,279 115,291" fill="none" stroke="#8a8f98" stroke-width="5" stroke-linecap="round"/><polyline points="475,98 480,110" fill="none" stroke="#8a8f98" stroke-width="5" stroke-linecap="round"/><polyline points="467,84 475,98" fill="none" stroke="#8a8f98" stroke-width="5" stroke-linecap="round"/><polyline points="434,58 447,65 467,84" fill="none" stroke="#8a8f98" stroke-width="5" stroke-linecap="round"/><polyline points="339,7 349,12" fill="none" stroke="#8a8f98" stroke-width="5" stroke-linecap="round"/><polyline points="312,-5 339,7" fill="none" stroke="#8a8f98" stroke-width="5" stroke-linecap="round"/><polyline points="204,71 214,49" fill="none" stroke="#8a8f98" stroke-width="5" stroke-linecap="round"/><polyline points="198,85 204,71" fill="none" stroke="#8a8f98" stroke-width="5" stroke-linecap="round"/><polyline points="558,340 496,302" fill="none" stroke="#8a8f98" stroke-width="8" stroke-linecap="round"/><polyline points="379,258 402,268 408,279 405,289 385,300" fill="none" stroke="#8a8f98" stroke-width="3" stroke-linecap="round"/><polyline points="385,300 375,300 313,271 317,258 329,257" fill="none" stroke="#8a8f98" stroke-width="3" stroke-linecap="round"/><polyline points="404,43 413,26" fill="none" stroke="#8a8f98" stroke-width="5" stroke-linecap="round"/><polyline points="455,-13 428,33" fill="none" stroke="#8a8f98" stroke-width="5" stroke-linecap="round"/><polyline points="386,32 400,32 413,26" fill="none" stroke="#8a8f98" stroke-width="5" stroke-linecap="round"/><polyline points="428,33 429,46 434,58" fill="none" stroke="#8a8f98" stroke-width="5" stroke-linecap="round"/><polyline points="350,221 365,182" fill="none" stroke="#8a8f98" stroke-width="3" stroke-linecap="round"/><polyline points="358,199 377,203 392,214 388,218 384,218 357,204" fill="none" stroke="#8a8f98" stroke-width="3" stroke-linecap="round"/><polyline points="408,53 397,47" fill="none" stroke="#8a8f98" stroke-width="5" stroke-linecap="round"/><polyline points="408,53 404,43" fill="none" stroke="#8a8f98" stroke-width="5" stroke-linecap="round"/><polyline points="349,12 386,32" fill="none" stroke="#8a8f98" stroke-width="5" stroke-linecap="round"/><polyline points="386,32 404,43" fill="none" stroke="#8a8f98" stroke-width="5" stroke-linecap="round"/><polyline points="404,43 419,50" fill="none" stroke="#8a8f98" stroke-width="5" stroke-linecap="round"/><polyline points="419,50 434,58" fill="none" stroke="#8a8f98" stroke-width="5" stroke-linecap="round"/><polyline points="419,50 415,56" fill="none" stroke="#8a8f98" stroke-width="5" stroke-linecap="round"/><polyline points="397,47 323,8" fill="none" stroke="#8a8f98" stroke-width="5" stroke-linecap="round"/><polyline points="415,56 408,53" fill="none" stroke="#8a8f98" stroke-width="5" stroke-linecap="round"/><polyline points="445,73 415,56" fill="none" stroke="#8a8f98" stroke-width="5" stroke-linecap="round"/><polyline points="413,26 438,-21" fill="none" stroke="#8a8f98" stroke-width="5" stroke-linecap="round"/><polyline points="428,33 419,50" fill="none" stroke="#8a8f98" stroke-width="5" stroke-linecap="round"/><polyline points="115,291 107,288" fill="none" stroke="#8a8f98" stroke-width="5" stroke-linecap="round"/><polyline points="107,288 121,256" fill="none" stroke="#8a8f98" stroke-width="5" stroke-linecap="round"/><polyline points="618,366 612,378" fill="none" stroke="#8a8f98" stroke-width="8" stroke-linecap="round"/><polyline points="640,309 678,241" fill="none" stroke="#8a8f98" stroke-width="8" stroke-linecap="round"/><polyline points="687,246 650,311" fill="none" stroke="#8a8f98" stroke-width="8" stroke-linecap="round"/><polyline points="622,341 640,309" fill="none" stroke="#8a8f98" stroke-width="8" stroke-linecap="round"/><polyline points="650,311 644,322" fill="none" stroke="#8a8f98" stroke-width="8" stroke-linecap="round"/><polyline points="678,241 692,217" fill="none" stroke="#8a8f98" stroke-width="8" stroke-linecap="round"/><polyline points="629,347 629,366 636,380" fill="none" stroke="#8a8f98" stroke-width="8" stroke-linecap="round"/><polyline points="584,343 606,347 622,341" fill="none" stroke="#8a8f98" stroke-width="8" stroke-linecap="round"/><polyline points="584,343 591,347" fill="none" stroke="#8a8f98" stroke-width="8" stroke-linecap="round"/><polyline points="644,322 629,347" fill="none" stroke="#8a8f98" stroke-width="8" stroke-linecap="round"/><polyline points="629,347 618,366" fill="none" stroke="#8a8f98" stroke-width="8" stroke-linecap="round"/><polyline points="692,217 737,139" fill="none" stroke="#8a8f98" stroke-width="8" stroke-linecap="round"/><polyline points="604,373 610,361" fill="none" stroke="#8a8f98" stroke-width="8" stroke-linecap="round"/><polyline points="610,361 618,366" fill="none" stroke="#8a8f98" stroke-width="8" stroke-linecap="round"/><polyline points="612,378 604,373" fill="none" stroke="#8a8f98" stroke-width="8" stroke-linecap="round"/><polyline points="823,250 846,211 850,209 906,248" fill="none" stroke="#8a8f98" stroke-width="3" stroke-linecap="round"/><polyline points="748,141 687,246" fill="none" stroke="#8a8f98" stroke-width="8" stroke-linecap="round"/><polyline points="604,373 588,362" fill="none" stroke="#8a8f98" stroke-width="8" stroke-linecap="round"/><polyline points="618,366 636,380" fill="none" stroke="#8a8f98" stroke-width="8" stroke-linecap="round"/><polyline points="610,361 622,341" fill="none" stroke="#8a8f98" stroke-width="8" stroke-linecap="round"/><polyline points="737,139 767,86" fill="none" stroke="#8a8f98" stroke-width="8" stroke-linecap="round"/><polyline points="916,119 915,131 910,136 904,137 895,133 893,124 895,119 911,110" fill="none" stroke="#8a8f98" stroke-width="5" stroke-linecap="round"/><polyline points="774,91 748,141" fill="none" stroke="#8a8f98" stroke-width="8" stroke-linecap="round"/><polyline points="591,347 610,361" fill="none" stroke="#8a8f98" stroke-width="8" stroke-linecap="round"/><polyline points="588,362 583,358" fill="none" stroke="#8a8f98" stroke-width="8" stroke-linecap="round"/><polyline points="906,248 958,286" fill="none" stroke="#8a8f98" stroke-width="3" stroke-linecap="round"/><polyline points="911,110 954,56 980,29 1024,-1 1066,-20 1074,-29 1077,-43" fill="none" stroke="#8a8f98" stroke-width="5" stroke-linecap="round"/><polyline points="1083,-16 1077,-10 1006,21 980,40 926,103" fill="none" stroke="#8a8f98" stroke-width="5" stroke-linecap="round"/><polyline points="793,118 772,118 756,127" fill="none" stroke="#8a8f98" stroke-width="8" stroke-linecap="round"/><polyline points="745,123 745,87" fill="none" stroke="#8a8f98" stroke-width="8" stroke-linecap="round"/><polyline points="790,63 791,98 797,107" fill="none" stroke="#8a8f98" stroke-width="8" stroke-linecap="round"/><polyline points="745,71 763,72 777,66" fill="none" stroke="#8a8f98" stroke-width="8" stroke-linecap="round"/><polyline points="926,103 916,119" fill="none" stroke="#8a8f98" stroke-width="5" stroke-linecap="round"/><polyline points="557,326 584,343" fill="none" stroke="#8a8f98" stroke-width="8" stroke-linecap="round"/><polyline points="583,358 558,340" fill="none" stroke="#8a8f98" stroke-width="8" stroke-linecap="round"/><polyline points="767,86 834,-44 860,-107 880,-190" fill="none" stroke="#8a8f98" stroke-width="8" stroke-linecap="round"/><polyline points="887,-162 861,-67 774,91" fill="none" stroke="#8a8f98" stroke-width="8" stroke-linecap="round"/><polyline points="549,352 584,375" fill="none" stroke="#8a8f98" stroke-width="3" stroke-linecap="round"/><polyline points="711,38 742,-276 754,-371" fill="none" stroke="#8a8f98" stroke-width="3" stroke-linecap="round"/><polyline points="1016,292 871,177 793,118 591,-15 515,-58" fill="none" stroke="#8a8f98" stroke-width="8" stroke-linecap="round"/><polyline points="510,-70 558,-47 745,71 797,107 1037,298" fill="none" stroke="#8a8f98" stroke-width="8" stroke-linecap="round"/><polyline points="153,522 104,611 98,629 98,648 102,658 109,670 122,681 405,823 453,853 515,898 637,1004 967,1269 1073,1360 1108,1378 1133,1379 1148,1375 1161,1369 1177,1355 1411,1029 1419,999 1417,976 1406,951 1387,930 1312,879 1187,785 947,616 883,567 594,360 504,301 400,249 378,242 351,241 323,250 302,266 282,287 237,369 227,402 211,432 153,522 146,547 107,616 77,648 66,654 45,659 33,658 -10,643" fill="none" stroke="#444" stroke-width="4" stroke-dasharray="8,4"/><polyline points="250,332 257,310 301,230 316,214 329,206 352,201 368,204 386,213 697,427 885,565 1020,659 1315,873 1389,929 1414,958 1422,983 1420,1012 1407,1042 1272,1235 1181,1355 1169,1366 1149,1378 1133,1382 1107,1381 1078,1368 1013,1317 548,934 404,827 120,686 108,676 96,658 93,630 98,610 147,520" fill="none" stroke="#444" stroke-width="4" stroke-dasharray="8,4"/><polyline points="196,417 210,392 232,364 250,332 325,196 340,159 358,126 370,113 597,-298 611,-327 616,-345 616,-369 611,-393 606,-407 588,-433 553,-458 461,-504 426,-517 391,-521 371,-519 351,-514 313,-496 225,-439 144,-346 136,-327 82,-154 -139,270 -172,359 -217,520 -216,532 -205,555 -196,564 -181,573 12,637 41,643 56,641 70,635 83,622 135,534 147,520 165,486 180,446 196,417" fill="none" stroke="#444" stroke-width="4" stroke-dasharray="8,4"/><polyline points="497,-493 561,-462 599,-423 614,-395 619,-369 619,-345 613,-324 603,-294 282,287" fill="none" stroke="#444" stroke-width="4" stroke-dasharray="8,4"/><polygon points="552,264 516,245 519,237 490,224 488,230 469,220 495,151 500,125 496,126 494,116 512,89 508,86 543,38 554,46 556,44 568,57 587,86 597,111 596,120 580,144 581,159 601,169 603,165 612,168 606,193 610,195 579,279 558,267 560,261 554,259 552,264" fill="#c8c2b8" stroke="#00000033"/><polygon points="195,398 113,352 109,347 109,338 131,280 143,257 170,283 185,281 195,290 197,301 209,301 219,296 231,286 247,255 271,268 243,319 238,320 195,398" fill="#c8c2b8" stroke="#00000033"/><polygon points="413,82 434,84 448,93 458,107 463,131 458,150 442,173 450,177 432,212 417,204 413,212 404,215 373,198 378,189 358,178 388,123 392,125 395,120 393,119 413,82" fill="#c8c2b8" stroke="#00000033"/><polygon points="46,505 14,589 29,597 27,601 36,607 55,614 56,609 68,612 68,614 72,617 82,609 126,530 118,525 112,532 77,515 46,505" fill="#c8c2b8" stroke="#00000033"/><polygon points="482,-10 496,2 508,5 511,12 528,19 532,26 533,36 508,71 511,73 509,75 502,70 483,72 453,49 449,43 451,35 459,24 469,-8 476,-11 482,-10" fill="#c8c2b8" stroke="#00000033"/><polygon points="235,339 255,350 177,495 165,514 147,504 155,483 235,339" fill="#c8c2b8" stroke="#00000033"/><polygon points="134,592 151,602 155,595 152,593 164,572 179,580 182,576 189,579 186,584 199,592 195,599 198,601 188,617 186,616 184,620 196,627 190,637 178,630 176,634 178,635 162,659 127,639 139,617 142,618 145,612 129,602 134,592" fill="#c8c2b8" stroke="#00000033"/><polygon points="991,720 838,611 849,596 1001,706 991,720" fill="#c8c2b8" stroke="#00000033"/><polygon points="749,355 743,350 733,357 735,360 726,377 723,378 719,374 717,379 722,380 722,383 717,394 705,405 707,415 713,419 721,416 721,408 741,413 738,418 745,420 747,419 744,414 752,410 754,413 754,409 761,405 767,414 774,405 767,400 761,390 776,381 777,388 780,386 779,380 794,368 783,351 775,352 767,347 766,350 772,353 754,358 749,355" fill="#c8c2b8" stroke="#00000033"/><polygon points="881,485 860,516 833,499 856,464 859,466 861,463 863,458 861,456 859,459 852,454 854,451 858,448 863,452 865,448 868,450 875,441 845,443 846,433 877,431 876,421 859,425 861,412 895,409 898,411 899,418 880,420 881,430 913,428 916,440 889,439 883,448 892,454 886,463 885,476 881,485" fill="#c8c2b8" stroke="#00000033"/><polygon points="812,383 835,381 842,399 822,411 825,417 803,430 809,441 796,448 794,450 798,453 794,455 789,449 770,442 776,418 767,414 772,407 775,409 785,395 785,391 794,386 788,371 790,370 796,381 806,374 812,383" fill="#c8c2b8" stroke="#00000033"/><polygon points="335,240 402,270 405,278 402,287 385,296 377,297 354,286 349,286 314,267 317,259 324,263 330,257 319,255 322,246 335,240" fill="#c8c2b8" stroke="#00000033"/><polygon points="430,677 406,684 382,599 406,592 430,677" fill="#c8c2b8" stroke="#00000033"/><polygon points="127,12 80,-17 63,13 74,19 85,-1 122,20 109,44 141,62 158,32 132,18 127,12" fill="#c8c2b8" stroke="#00000033"/><polygon points="63,208 60,203 66,200 61,193 55,200 50,199 57,215 62,208 64,213 59,216 62,221 66,221 67,217 69,222 66,222 68,225 66,231 66,227 61,226 54,240 61,240 58,245 53,242 50,247 55,251 45,256 48,250 30,249 30,253 34,257 39,257 39,264 48,263 45,257 50,258 48,260 51,262 54,261 56,264 53,262 50,266 57,279 61,273 64,278 58,281 61,286 66,286 66,282 68,285 69,288 66,288 69,291 68,295 63,289 55,303 62,303 60,308 54,305 51,313 60,314 62,319 71,304 63,304 66,299 73,300 74,296 69,295 76,289 76,295 82,295 82,283 76,283 77,288 69,284 67,282 71,283 74,279 67,266 63,268 63,272 60,268 66,265 61,258 57,263 56,253 57,250 58,254 62,254 70,240 62,241 65,236 71,239 74,232 68,231 74,225 79,225 76,227 78,231 94,231 91,225 95,225 95,231 104,231 101,222 104,218 86,217 89,223 84,224 84,217 78,217 77,223 68,217 72,218 74,214 67,201 63,208" fill="#c8c2b8" stroke="#00000033"/><polygon points="274,481 268,491 219,463 182,529 189,555 176,547 171,528 187,499 181,495 185,488 191,492 215,448 274,481" fill="#c8c2b8" stroke="#00000033"/><polygon points="705,337 706,340 695,346 667,357 668,372 675,372 677,378 680,375 692,380 693,384 700,387 704,384 700,383 700,378 714,372 717,376 718,373 714,363 709,364 707,360 723,352 723,361 727,359 730,362 732,360 730,356 733,353 728,345 732,342 726,332 722,330 709,337 705,333 705,337" fill="#c8c2b8" stroke="#00000033"/><polygon points="757,200 771,206 775,218 764,238 753,244 731,233 725,222 738,197 749,194 757,200" fill="#c8c2b8" stroke="#00000033"/><polygon points="655,463 669,441 715,474 701,495 675,476 673,479 670,476 672,474 655,463" fill="#c8c2b8" stroke="#00000033"/><polygon points="909,255 956,287 942,307 896,274 909,255" fill="#c8c2b8" stroke="#00000033"/><polygon points="105,95 109,90 119,96 116,102 112,97 111,101 114,101 111,106 113,109 113,106 117,105 120,111 115,114 117,119 121,113 129,126 126,130 122,129 126,133 127,130 128,134 134,136 131,130 150,130 150,135 147,135 150,136 147,138 150,139 150,144 132,144 131,139 134,137 123,141 122,143 125,141 128,145 119,160 115,158 116,155 114,157 114,154 111,156 106,153 115,138 121,139 120,143 123,134 121,129 121,133 116,133 113,128 119,125 116,120 112,126 104,112 107,109 111,110 102,103 100,104 102,109 94,109 94,103 89,103 86,98 86,94 101,95 103,99 100,101 103,101 111,97 105,95" fill="#c8c2b8" stroke="#00000033"/><polygon points="-7,221 -6,223 -11,223 -8,221 -10,217 -25,217 -22,225 -16,225 -16,231 -7,230 -11,225 -5,226 -7,228 -5,230 -1,228 0,231 -4,229 -7,233 1,247 5,241 8,246 2,249 5,254 10,254 11,250 13,255 10,255 12,262 7,258 5,263 15,269 19,264 14,261 23,257 20,260 22,264 38,264 34,256 29,256 29,249 20,250 23,256 15,254 12,250 15,251 18,247 11,234 6,240 4,235 9,232 5,225 2,230 0,228 1,218 5,223 14,208 7,208 9,203 15,206 18,199 13,199 9,197 10,194 5,194 -2,207 5,207 2,212 -3,209 -6,217 0,217 -7,221" fill="#c8c2b8" stroke="#00000033"/><polygon points="607,522 621,502 659,529 645,549 607,522" fill="#c8c2b8" stroke="#00000033"/><polygon points="62,84 60,79 65,76 61,69 57,74 55,69 58,69 56,62 60,67 63,61 53,55 49,60 54,63 45,67 48,64 46,59 30,59 34,68 39,68 39,74 48,73 45,68 53,70 56,75 52,73 49,77 56,90 61,84 63,90 58,92 61,98 65,98 65,94 67,97 65,107 65,104 61,103 52,116 60,117 57,121 51,118 48,123 50,127 53,125 56,128 58,132 68,118 61,117 64,113 69,116 73,111 71,107 66,108 70,104 78,102 75,108 92,109 89,101 83,101 83,95 75,95 78,101 72,100 74,97 72,96 68,97 67,94 71,95 73,92 67,78 62,84" fill="#c8c2b8" stroke="#00000033"/><polygon points="489,560 470,551 489,512 511,522 495,559 489,560" fill="#c8c2b8" stroke="#00000033"/><polygon points="561,577 577,555 607,577 592,599 561,577" fill="#c8c2b8" stroke="#00000033"/><polygon points="741,568 757,545 785,567 774,583 776,584 774,587 772,586 770,589 741,568" fill="#c8c2b8" stroke="#00000033"/><polygon points="-11,97 -2,91 -8,90 -4,83 1,86 4,81 -3,81 5,68 9,68 10,72 11,70 12,67 9,67 12,64 11,59 7,65 -3,48 2,46 3,49 3,45 6,47 6,44 10,41 18,57 14,61 12,59 13,61 23,66 20,61 28,60 28,66 34,66 37,74 20,73 23,67 14,69 11,73 18,74 14,81 8,78 5,82 13,83 5,96 0,96 -1,92 -3,96 -2,104 3,100 5,105 -5,111 -8,108 -3,104 -5,101 -11,98 -10,104 -16,103 -16,92 -10,91 -11,97" fill="#c8c2b8" stroke="#00000033"/><polygon points="367,425 352,461 374,471 387,440 381,431 367,425" fill="#c8c2b8" stroke="#00000033"/><polygon points="133,337 132,343 127,347 141,356 145,352 143,356 154,364 158,359 155,364 170,372 173,368 171,374 183,381 186,376 184,381 198,390 201,385 199,383 202,384 204,380 203,377 198,375 196,380 197,375 185,368 181,371 182,367 178,363 169,359 167,363 163,355 155,351 152,355 152,349 144,344 140,347 137,346 140,342 133,337" fill="#c8c2b8" stroke="#00000033"/><polygon points="5,280 2,290 6,293 -2,314 25,318 38,299 5,280" fill="#c8c2b8" stroke="#00000033"/><polygon points="6,98 8,105 17,103 16,98 23,86 42,86 48,101 41,115 45,124 58,100 45,77 19,77 6,98" fill="#c8c2b8" stroke="#00000033"/><polygon points="61,133 70,134 81,119 95,120 104,133 99,145 105,151 114,135 101,112 77,111 61,133" fill="#c8c2b8" stroke="#00000033"/><polygon points="65,-31 57,-18 54,-20 54,-25 51,-20 54,-15 51,-14 52,-8 56,-6 54,-9 56,-15 67,-7 64,-2 62,-4 58,7 47,0 48,-6 44,-3 40,-21 48,-19 44,-24 50,-36 65,-31" fill="#c8c2b8" stroke="#00000033"/><polygon points="554,383 545,379 547,382 544,388 530,380 538,369 535,368 539,363 552,370 547,374 544,371 546,377 555,381 553,378 557,373 571,381 563,391 566,393 562,398 548,390 554,383" fill="#c8c2b8" stroke="#00000033"/><polygon points="437,294 440,296 443,290 458,299 444,324 429,315 431,312 428,310 437,294" fill="#c8c2b8" stroke="#00000033"/><polygon points="472,329 480,333 474,340 488,347 491,341 489,340 497,330 484,323 483,330 487,331 482,332 473,327 477,327 479,321 464,314 461,326 458,324 456,330 470,338 474,332 472,329" fill="#c8c2b8" stroke="#00000033"/><polygon points="428,353 437,357 432,363 444,370 447,358 450,359 453,354 439,347 436,355 429,351 433,350 435,345 420,337 417,342 419,344 411,354 426,362 430,356 428,353" fill="#c8c2b8" stroke="#00000033"/><polygon points="508,353 517,358 513,358 511,364 525,371 528,366 525,364 533,355 520,348 519,354 524,355 518,357 509,351 513,351 515,345 500,337 497,342 500,344 492,354 507,362 510,356 508,353" fill="#c8c2b8" stroke="#00000033"/><polygon points="476,378 468,376 468,373 465,382 453,374 460,365 458,363 461,359 474,366 469,371 477,376 476,373 479,368 493,376 485,386 488,388 485,393 470,385 476,378" fill="#c8c2b8" stroke="#00000033"/><polygon points="734,329 737,337 741,337 728,345 730,348 734,348 735,356 746,347 743,337 759,340 750,342 749,346 766,351 765,342 772,336 756,331 753,334 755,337 748,336 751,333 750,329 734,329" fill="#c8c2b8" stroke="#00000033"/><polygon points="210,340 204,351 207,353 205,356 202,353 196,361 196,364 204,369 211,358 209,351 213,353 223,336 220,332 224,335 227,333 232,320 229,318 227,320 224,315 222,317 217,326 221,328 220,331 216,329 210,339 213,342 210,340" fill="#c8c2b8" stroke="#00000033"/><polygon points="128,-1 127,2 143,13 144,5 150,9 144,13 163,26 165,23 161,16 170,15 171,12 155,4 156,11 146,5 153,2 137,-12 135,-9 138,-1 135,-3 132,0 128,-1" fill="#c8c2b8" stroke="#00000033"/><polygon points="812,362 805,362 806,376 796,381 796,373 792,373 790,370 804,362 800,362 796,354 812,354 813,359 810,361 817,362 815,356 834,361 833,364 826,367 828,376 813,372 812,368 822,365 812,362" fill="#c8c2b8" stroke="#00000033"/><polygon points="295,312 311,283 324,290 310,318 295,312" fill="#c8c2b8" stroke="#00000033"/><polygon points="387,591 391,591 395,576 396,580 401,581 397,582 393,594 407,591 408,587 402,583 413,585 408,568 402,575 398,570 400,571 401,565 384,570 393,576 388,578 385,574 382,575 387,591" fill="#c8c2b8" stroke="#00000033"/><polygon points="415,619 418,618 423,604 423,607 429,609 424,610 420,622 435,619 436,614 429,610 440,612 435,596 429,603 425,598 427,598 429,592 412,597 420,604 416,605 413,601 410,602 415,619" fill="#c8c2b8" stroke="#00000033"/><polygon points="175,69 182,69 183,66 187,72 194,56 187,56 186,60 186,56 182,50 179,56 180,60 183,62 181,68 177,68 178,62 167,62 164,63 165,69 160,63 161,58 154,53 155,61 148,67 160,74 162,68 173,69 166,74 168,78 184,76 180,70 175,69" fill="#c8c2b8" stroke="#00000033"/><polygon points="712,382 709,383 713,384 721,369 707,360 723,352 725,355 722,358 722,367 728,363 733,364 726,377 721,377 720,372 719,374 717,379 722,380 722,383 715,396 708,387 709,384 702,384 698,380 714,372 712,382" fill="#c8c2b8" stroke="#00000033"/><polygon points="815,440 803,430 819,421 821,424 817,428 818,437 824,432 828,433 820,446 816,446 816,442 814,444 811,450 815,448 818,451 811,465 803,457 803,451 798,453 794,450 809,441 810,446 805,452 808,453 815,440" fill="#c8c2b8" stroke="#00000033"/><polygon points="810,564 806,562 802,566 815,578 818,571 815,567 819,569 824,565 816,560 812,564 814,559 811,552 815,547 800,537 798,540 801,547 796,544 791,548 805,559 808,555 810,564" fill="#c8c2b8" stroke="#00000033"/><polygon points="87,517 82,514 78,518 93,526 95,520 90,517 105,525 101,524 97,528 112,537 113,531 107,528 109,524 114,527 119,523 103,514 102,520 106,524 91,515 97,517 102,513 84,503 83,509 89,513 84,513 87,517" fill="#c8c2b8" stroke="#00000033"/><polygon points="141,305 145,306 145,309 142,312 137,311 141,313 131,329 127,328 131,330 121,343 123,345 121,348 113,339 119,331 124,332 120,329 128,317 132,318 128,316 134,303 137,301 141,305" fill="#c8c2b8" stroke="#00000033"/><polygon points="850,595 860,599 861,594 868,596 865,604 881,611 880,607 886,597 868,593 872,593 874,588 858,582 850,595" fill="#c8c2b8" stroke="#00000033"/><polygon points="43,533 37,530 32,534 48,542 49,537 45,535 50,536 61,542 56,540 51,544 67,553 68,547 63,544 65,541 70,544 74,539 59,531 57,537 63,542 46,532 52,534 56,530 41,521 40,527 45,529 43,533" fill="#c8c2b8" stroke="#00000033"/><polygon points="247,255 271,268 280,252 272,247 250,248 247,255" fill="#c8c2b8" stroke="#00000033"/><polygon points="827,263 828,267 834,267 841,272 844,269 842,265 850,268 845,272 859,278 862,275 857,269 863,269 865,265 850,260 847,263 849,266 844,264 842,259 847,256 833,251 830,254 833,262 827,263" fill="#c8c2b8" stroke="#00000033"/><polygon points="931,344 923,351 927,355 926,359 909,350 915,347 908,343 909,347 905,349 893,341 894,339 902,338 898,336 901,334 900,329 913,335 913,339 905,340 914,344 918,341 917,336 931,344" fill="#c8c2b8" stroke="#00000033"/><polygon points="173,13 171,16 174,18 169,26 167,24 165,28 179,37 181,34 179,27 185,31 182,34 191,45 194,43 192,41 202,38 196,29 192,32 183,29 190,25 173,13" fill="#c8c2b8" stroke="#00000033"/><polygon points="936,353 943,361 939,364 939,368 957,363 952,358 960,356 958,359 961,362 975,357 973,354 967,354 971,352 968,349 971,344 956,347 955,351 963,353 953,356 950,353 952,348 936,353" fill="#c8c2b8" stroke="#00000033"/><polygon points="882,236 876,239 872,238 875,245 872,248 867,243 862,243 857,240 863,236 856,232 857,236 854,238 841,231 844,228 849,229 846,226 849,224 848,218 861,224 861,229 854,230 861,233 864,232 863,235 865,233 868,234 867,228 882,236" fill="#c8c2b8" stroke="#00000033"/><polygon points="905,308 899,307 903,308 904,315 888,310 893,307 892,303 896,304 892,299 893,296 907,300 905,306 911,307 911,301 924,305 923,309 919,310 922,312 920,316 922,321 907,317 907,313 911,311 909,308 905,308" fill="#c8c2b8" stroke="#00000033"/><polygon points="528,434 534,427 528,427 526,432 517,429 525,419 523,418 526,412 533,418 531,423 535,425 532,422 536,418 550,425 547,430 544,429 541,441 528,434" fill="#c8c2b8" stroke="#00000033"/><polygon points="180,560 188,565 186,568 181,567 180,572 184,577 179,580 166,573 167,567 175,567 167,565 168,562 164,568 157,562 159,559 162,561 163,556 161,554 164,551 177,558 175,564 180,560" fill="#c8c2b8" stroke="#00000033"/><polygon points="697,320 698,327 691,325 694,319 676,320 675,324 680,328 692,327 686,335 688,338 705,337 701,331 714,328 715,324 697,320" fill="#c8c2b8" stroke="#00000033"/><polygon points="74,515 47,505 50,500 57,502 58,498 52,496 52,489 79,500 76,505 70,503 74,505 73,507 69,506 74,509 74,515" fill="#c8c2b8" stroke="#00000033"/><polygon points="513,405 511,410 507,410 511,411 514,407 522,409 520,415 517,414 513,426 507,422 509,417 506,415 507,413 504,420 491,413 493,408 496,409 499,398 513,405" fill="#c8c2b8" stroke="#00000033"/><polygon points="774,538 776,541 774,547 760,537 765,533 768,535 766,532 768,525 775,530 774,536 777,532 783,534 780,530 783,524 797,534 792,538 788,537 791,540 789,546 782,541 783,536 776,540 774,538" fill="#c8c2b8" stroke="#00000033"/><polygon points="743,424 736,422 738,419 736,417 740,417 741,413 721,408 722,414 727,416 718,423 730,427 732,424 732,427 739,430 741,427 740,432 751,437 753,429 743,424" fill="#c8c2b8" stroke="#00000033"/><polygon points="726,550 728,553 727,558 712,550 717,545 720,547 718,544 720,537 728,542 726,548 733,544 735,546 733,542 735,536 749,546 744,551 740,549 743,552 741,558 734,553 736,548 732,551 726,550" fill="#c8c2b8" stroke="#00000033"/><polygon points="786,572 784,578 787,581 783,579 779,583 791,591 790,596 787,593 783,598 796,608 799,602 797,598 800,601 805,597 798,592 794,594 795,587 792,585 796,586 801,582 786,572" fill="#c8c2b8" stroke="#00000033"/><polygon points="33,614 18,606 18,602 16,605 7,601 12,596 17,599 20,595 14,592 15,586 40,600 36,605 31,602 33,607 29,604 34,608 33,614" fill="#c8c2b8" stroke="#00000033"/><polygon points="-30,501 -14,503 -16,507 -21,508 -15,514 -10,511 -12,504 2,508 1,517 -14,516 -8,519 -10,524 -27,518 -26,513 -19,513 -26,512 -21,511 -22,509 -32,507 -30,501" fill="#c8c2b8" stroke="#00000033"/><polygon points="945,378 934,375 928,383 946,404 955,386 944,382 945,378" fill="#c8c2b8" stroke="#00000033"/><polygon points="752,512 756,513 761,509 747,499 745,505 748,507 744,506 739,510 746,515 750,512 749,521 752,522 748,521 743,525 757,535 759,529 757,525 760,527 765,523 758,518 754,521 756,517 752,512" fill="#c8c2b8" stroke="#00000033"/><polygon points="783,386 785,391 794,386 793,382 789,383 788,375 779,380 780,386 777,388 776,381 761,390 763,393 773,395 771,400 775,409 786,393 783,391 775,395 773,391 783,386" fill="#c8c2b8" stroke="#00000033"/><polygon points="653,368 653,362 649,365 642,359 657,350 658,360 654,362 660,365 660,360 667,357 668,372 664,374 661,366 658,366 659,371 655,372 658,375 657,380 641,372 650,366 653,368" fill="#c8c2b8" stroke="#00000033"/><polygon points="668,548 667,554 670,555 663,555 661,560 667,564 671,561 668,565 673,569 683,553 678,552 672,556 673,550 670,547 676,548 678,545 664,535 662,540 665,544 660,542 656,546 661,550 668,548" fill="#c8c2b8" stroke="#00000033"/><polygon points="646,579 654,578 652,574 653,569 660,574 660,577 662,573 668,576 656,591 653,588 655,580 651,583 646,581 649,587 646,590 632,579 637,576 641,577 638,573 641,568 647,571 646,579" fill="#c8c2b8" stroke="#00000033"/><polygon points="48,579 20,570 24,565 30,567 31,563 25,561 26,555 35,558 33,564 36,565 36,559 53,564 49,569 44,567 47,572 43,571 48,573 48,579" fill="#c8c2b8" stroke="#00000033"/><polygon points="788,458 786,454 791,450 775,444 775,449 770,455 770,460 782,465 786,462 784,458 787,459 792,462 788,463 788,467 801,474 802,466 788,458" fill="#c8c2b8" stroke="#00000033"/><polygon points="572,519 570,524 573,527 567,526 563,529 579,541 580,536 577,532 586,529 578,525 575,529 576,525 573,520 578,522 583,517 568,506 565,512 567,514 560,517 565,523 572,519" fill="#c8c2b8" stroke="#00000033"/><polygon points="60,568 76,575 72,580 75,581 77,576 86,579 82,584 76,582 75,586 80,589 80,595 54,582 57,578 63,579 59,577 64,576 59,574 60,568" fill="#c8c2b8" stroke="#00000033"/><polygon points="201,586 200,580 202,584 207,585 204,593 208,595 214,586 219,584 206,575 200,578 203,573 194,569 193,572 197,576 193,580 187,579 186,584 199,592 204,587 201,586" fill="#c8c2b8" stroke="#00000033"/><polygon points="77,540 103,551 99,556 94,553 92,557 97,560 97,566 88,562 91,557 88,556 87,562 71,555 75,550 80,552 78,548 82,548 77,546 77,540" fill="#c8c2b8" stroke="#00000033"/><polygon points="625,567 628,563 625,557 631,559 635,555 619,543 617,549 620,552 612,555 617,559 624,557 621,562 624,566 619,563 616,568 628,577 631,572 629,568 634,570 638,567 630,562 625,567" fill="#c8c2b8" stroke="#00000033"/><polygon points="756,422 761,422 756,437 763,442 767,429 763,428 767,428 770,415 763,416 762,420 759,419 763,417 760,412 765,409 761,405 754,409 754,413 752,410 744,414 747,419 755,416 756,422" fill="#c8c2b8" stroke="#00000033"/><polygon points="81,27 90,10 106,20 97,36 81,27" fill="#c8c2b8" stroke="#00000033"/><polygon points="726,501 729,498 728,493 733,495 737,491 728,487 721,479 718,482 722,489 717,487 713,491 718,495 723,492 726,493 723,495 725,503 720,500 715,503 723,507 731,514 733,509 729,506 734,506 739,503 734,499 726,501" fill="#c8c2b8" stroke="#00000033"/><polygon points="590,543 594,539 600,539 597,535 599,530 615,541 610,545 607,543 607,551 601,548 601,541 597,545 592,543 596,547 593,552 581,543 584,538 589,540 586,536 587,531 594,536 590,543" fill="#c8c2b8" stroke="#00000033"/><polyline points="153,153 214,49 227,25 247,7 277,-5 312,-5 404,43 408,53 453,79 471,105 478,134 473,161 427,271 385,346 348,404 329,412 292,419 264,435 235,439" fill="none" stroke="#ffdd44" stroke-width="6" opacity="0.85"/><polyline points="808,640 836,574 843,559 839,543 558,340 461,284 439,282 423,294 392,350 340,428 308,415 292,419 264,435 235,439" fill="none" stroke="#ff44dd" stroke-width="6" opacity="0.85"/><circle cx="153" cy="153" r="10" fill="#a0f"/><circle cx="235" cy="439" r="10" fill="#f00"/><circle cx="808" cy="640" r="10" fill="#a0f"/><circle cx="235" cy="439" r="10" fill="#f00"/><path d="M164.3076923075802,38.461538461551164 L180.3076923075802,38.461538461551164 M172.3076923075802,30.461538461551164 L172.3076923075802,46.461538461551164" stroke="#0ff" stroke-width="2"/><path d="M225.84615384584552,415.3846153846193 L241.84615384584552,415.3846153846193 M233.84615384584552,407.3846153846193 L233.84615384584552,423.3846153846193" stroke="#0ff" stroke-width="2"/><path d="M818.1538461530158,569.2307692307727 L834.1538461530158,569.2307692307727 M826.1538461530158,561.2307692307727 L826.1538461530158,577.2307692307727" stroke="#0ff" stroke-width="2"/><path d="M225.84615384584552,415.3846153846193 L241.84615384584552,415.3846153846193 M233.84615384584552,407.3846153846193 L233.84615384584552,423.3846153846193" stroke="#0ff" stroke-width="2"/><rect x="209" y="120" width="22" height="16" fill="#b8c2cc" stroke="#333"/><rect x="245" y="60" width="22" height="16" fill="#b8c2cc" stroke="#333"/><rect x="401" y="444" width="22" height="16" fill="#b8c2cc" stroke="#333"/><rect x="257" y="372" width="22" height="16" fill="#b8c2cc" stroke="#333"/><rect x="641" y="540" width="22" height="16" fill="#b8c2cc" stroke="#333"/><rect x="581" y="516" width="22" height="16" fill="#b8c2cc" stroke="#333"/><rect x="509" y="480" width="22" height="16" fill="#b8c2cc" stroke="#333"/><rect x="701" y="264" width="22" height="16" fill="#b8c2cc" stroke="#333"/><rect x="317" y="516" width="22" height="16" fill="#b8c2cc" stroke="#333"/><rect x="137" y="432" width="22" height="16" fill="#b8c2cc" stroke="#333"/><text x="518" y="300" font-size="13" fill="#fff" text-anchor="middle" stroke="#000" stroke-width="0.4">Punggol Waterway</text><text x="480" y="20" font-size="16" fill="#fff" text-anchor="middle">9: Punggol Waterway</text></svg>