<svg xmlns="http://www.w3.org/2000/svg" width="960" height="600" viewBox="0 0 960 600"><rect width="960" height="600" fill="#6aa03c"/><polygon points="32,844 205,970 240,935 205,874 225,833 260,797 322,747 341,766 363,757 356,506 349,506 290,436 296,147 228,114 202,163 195,271 230,306 166,340 135,345 123,353 105,467 103,582 26,747 32,844" fill="#4c8a2c" opacity="0.7"/><polygon points="1079,231 948,220 902,211 891,206 891,201 871,194 869,197 853,188 853,186 811,166 799,155 777,143 739,129 709,122 695,122 665,116 664,119 573,107 562,103 527,133 522,132 497,104 480,68 473,60 472,52 465,39 447,21 427,13 374,3 368,-7 374,-29 382,-41 397,-48 423,-45 459,-34 527,-10 550,2 553,9 730,79 751,91 756,88 863,143 941,171 958,173 964,167 968,157 1065,209 1067,206 1088,215 1100,207 1179,236 1254,249 1295,265 1337,291 1331,296 1319,296 1262,256 1148,237 1079,231" fill="#4c8a2c" opacity="0.7"/><polygon points="135,787 164,764 218,751 209,735 254,718 271,704 295,653 300,631 316,650 317,624 297,612 307,597 324,604 311,537 269,512 212,509 162,535 150,549 129,653 107,678 85,685 69,731 56,789 57,806 81,802 87,787 128,782 135,787" fill="#4c8a2c" opacity="0.7"/><polygon points="375,351 337,228 387,210 381,193 340,160 308,140 268,126 270,145 254,142 250,162 281,166 286,151 301,156 310,150 373,197 373,205 347,211 332,219 309,222 298,193 283,201 281,247 269,280 265,328 283,340 289,355 284,371 266,382 231,369 226,383 218,387 190,381 188,371 146,375 127,365 127,355 166,351 164,343 140,349 133,344 132,331 118,332 116,343 74,336 54,341 47,361 26,359 7,361 -11,373 -8,385 83,367 119,371 107,388 120,405 127,408 243,417 246,437 254,442 256,461 272,460 275,432 286,451 309,475 325,484 330,498 359,511 355,527 355,581 359,580 358,533 366,532 370,559 438,577 435,560 405,552 384,532 393,525 410,526 415,539 437,537 436,506 422,497 434,486 434,477 416,476 402,487 403,498 395,502 375,498 354,500 339,497 341,475 331,474 313,455 310,462 296,428 299,419 369,429 374,403 375,351" fill="#4c8a2c" opacity="0.7"/><polygon points="680,219 792,229 802,247 799,280 788,307 781,342 828,368 876,381 932,353 906,406 885,416 765,365 748,384 731,372 737,353 711,312 728,279 735,285 746,279 737,258 728,260 719,244 680,231 680,219" fill="#4c8a2c" opacity="0.7"/><polygon points="889,509 892,507 926,524 942,543 951,565 959,648 924,662 844,626 842,622 889,509" fill="#4c8a2c" opacity="0.7"/><polygon points="906,410 921,416 887,499 721,434 723,430 782,451 808,388 899,426 906,410" fill="#4c8a2c" opacity="0.7"/><polygon points="933,340 899,351 872,353 842,345 822,328 830,299 834,255 834,240 824,217 821,191 859,215 862,235 885,302 889,346 936,333 933,340" fill="#4c8a2c" opacity="0.7"/><polygon points="928,419 984,443 1055,387 1096,374 1030,411 989,446 981,458 951,532 947,535 943,534 929,520 893,500 928,419" fill="#4c8a2c" opacity="0.7"/><polygon points="548,326 592,309 622,238 648,236 621,314 605,338 588,356 563,374 548,326" fill="#4c8a2c" opacity="0.7"/><polygon points="950,545 963,514 965,546 971,569 1010,649 1010,674 1007,686 1003,690 983,676 968,654 963,636 956,568 950,545" fill="#4c8a2c" opacity="0.7"/><polygon points="752,452 749,463 733,456 726,471 731,472 676,598 679,600 635,703 630,705 654,630 728,454 737,448 752,452" fill="#4c8a2c" opacity="0.7"/><polygon points="117,30 114,36 150,52 178,59 199,50 217,48 228,42 241,45 240,40 228,35 211,38 165,36 158,39 131,28 117,30" fill="#4c8a2c" opacity="0.7"/><polygon points="733,199 749,204 770,199 774,201 778,211 791,212 799,208 794,194 778,183 761,180 754,183 743,182 732,186 733,199" fill="#4c8a2c" opacity="0.7"/><polygon points="1106,409 1111,385 1102,357 1087,342 1068,334 951,339 886,364" fill="#2e7bb4"/><polygon points="661,202 662,196 672,197 681,160 687,151 751,155 762,172 792,176 821,191 824,217 834,240 834,255 830,299 822,328 842,345 872,353 899,351 953,333 1058,326 1078,329 1100,344 1113,362 1119,385 1116,412 1097,405 1101,390 1095,365 1082,348 1068,341 966,339 950,343 876,381 828,368 781,342 788,307 799,280 802,247 792,229 680,219 661,202" fill="#2e7bb4"/><rect x="64" y="0" width="304" height="8" fill="#2e7bb4"/><rect x="552" y="0" width="408" height="8" fill="#2e7bb4"/><rect x="88" y="8" width="168" height="8" fill="#2e7bb4"/><rect x="264" y="8" width="144" height="8" fill="#2e7bb4"/><rect x="568" y="8" width="392" height="8" fill="#2e7bb4"/><rect x="168" y="16" width="80" height="8" fill="#2e7bb4"/><rect x="272" y="16" width="168" height="8" fill="#2e7bb4"/><rect x="592" y="16" width="368" height="8" fill="#2e7bb4"/><rect x="272" y="24" width="176" height="8" fill="#2e7bb4"/><rect x="608" y="24" width="352" height="8" fill="#2e7bb4"/><rect x="280" y="32" width="176" height="8" fill="#2e7bb4"/><rect x="632" y="32" width="328" height="8" fill="#2e7bb4"/><rect x="280" y="40" width="184" height="8" fill="#2e7bb4"/><rect x="648" y="40" width="312" height="8" fill="#2e7bb4"/><rect x="304" y="48" width="168" height="8" fill="#2e7bb4"/><rect x="672" y="48" width="288" height="8" fill="#2e7bb4"/><rect x="328" y="56" width="144" height="8" fill="#2e7bb4"/><rect x="688" y="56" width="272" height="8" fill="#2e7bb4"/><rect x="352" y="64" width="128" height="8" fill="#2e7bb4"/><rect x="712" y="64" width="248" height="8" fill="#2e7bb4"/><rect x="384" y="72" width="96" height="8" fill="#2e7bb4"/><rect x="728" y="72" width="232" height="8" fill="#2e7bb4"/><rect x="408" y="80" width="80" height="8" fill="#2e7bb4"/><rect x="752" y="80" width="208" height="8" fill="#2e7bb4"/><rect x="424" y="88" width="64" height="8" fill="#2e7bb4"/><rect x="768" y="88" width="192" height="8" fill="#2e7bb4"/><rect x="432" y="96" width="64" height="8" fill="#2e7bb4"/><rect x="784" y="96" width="176" height="8" fill="#2e7bb4"/><rect x="440" y="104" width="64" height="8" fill="#2e7bb4"/><rect x="792" y="104" width="168" height="8" fill="#2e7bb4"/><rect x="448" y="112" width="56" height="8" fill="#2e7bb4"/><rect x="808" y="112" width="152" height="8" fill="#2e7bb4"/><rect x="456" y="120" width="56" height="8" fill="#2e7bb4"/><rect x="832" y="120" width="128" height="8" fill="#2e7bb4"/><rect x="464" y="128" width="64" height="8" fill="#2e7bb4"/><rect x="536" y="128" width="8" height="8" fill="#2e7bb4"/><rect x="848" y="128" width="112" height="8" fill="#2e7bb4"/><rect x="472" y="136" width="80" height="8" fill="#2e7bb4"/><rect x="864" y="136" width="96" height="8" fill="#2e7bb4"/><rect x="480" y="144" width="112" height="8" fill="#2e7bb4"/><rect x="600" y="144" width="48" height="8" fill="#2e7bb4"/><rect x="888" y="144" width="72" height="8" fill="#2e7bb4"/><rect x="496" y="152" width="96" height="8" fill="#2e7bb4"/><rect x="600" y="152" width="64" height="24" fill="#2e7bb4"/><rect x="904" y="152" width="56" height="8" fill="#2e7bb4"/><rect x="512" y="160" width="80" height="8" fill="#2e7bb4"/><rect x="928" y="160" width="32" height="8" fill="#2e7bb4"/><rect x="528" y="168" width="64" height="8" fill="#2e7bb4"/><rect x="544" y="176" width="120" height="8" fill="#2e7bb4"/><rect x="560" y="184" width="104" height="8" fill="#2e7bb4"/><rect x="576" y="192" width="88" height="8" fill="#2e7bb4"/><rect x="600" y="200" width="56" height="8" fill="#2e7bb4"/><rect x="616" y="208" width="40" height="8" fill="#2e7bb4"/><polyline points="60,579 8,585" fill="none" stroke="#8a8f98" stroke-width="3" stroke-linecap="round"/><polyline points="-8,634 4,635 9,632 8,585" fill="none" stroke="#8a8f98" stroke-width="3" stroke-linecap="round"/><polyline points="-14,716 45,645 61,608 60,579" fill="none" stroke="#8a8f98" stroke-width="3" stroke-linecap="round"/><polyline points="567,548 606,586 643,603" fill="none" stroke="#8a8f98" stroke-width="3" stroke-linecap="round"/><polyline points="536,599 526,607 515,608 437,587" fill="none" stroke="#8a8f98" stroke-width="3" stroke-linecap="round"/><polyline points="622,716 652,629 675,572" fill="none" stroke="#8a8f98" stroke-width="3" stroke-linecap="round"/><polyline points="448,965 445,711 437,587" fill="none" stroke="#8a8f98" stroke-width="3" stroke-linecap="round"/><polyline points="567,548 536,599" fill="none" stroke="#8a8f98" stroke-width="3" stroke-linecap="round"/><polyline points="437,587 416,580 396,579 386,585 379,594 374,605 371,709" fill="none" stroke="#8a8f98" stroke-width="3" stroke-linecap="round"/><polyline points="629,723 684,595" fill="none" stroke="#8a8f98" stroke-width="3" stroke-linecap="round"/><polyline points="948,228 928,226 897,218 844,196" fill="none" stroke="#8a8f98" stroke-width="10" stroke-linecap="round"/><polyline points="437,561 436,504" fill="none" stroke="#8a8f98" stroke-width="3" stroke-linecap="round"/><polyline points="367,499 355,594 347,628 356,644 357,674" fill="none" stroke="#8a8f98" stroke-width="3" stroke-linecap="round"/><polyline points="268,410 325,493 340,500 367,499" fill="none" stroke="#8a8f98" stroke-width="3" stroke-linecap="round"/><polyline points="261,401 333,408" fill="none" stroke="#8a8f98" stroke-width="10" stroke-linecap="round"/><polyline points="848,188 901,212 950,221" fill="none" stroke="#8a8f98" stroke-width="10" stroke-linecap="round"/><polyline points="324,142 332,149" fill="none" stroke="#8a8f98" stroke-width="5" stroke-linecap="round"/><polyline points="757,451 889,503" fill="none" stroke="#8a8f98" stroke-width="3" stroke-linecap="round"/><polyline points="326,418 268,410" fill="none" stroke="#8a8f98" stroke-width="10" stroke-linecap="round"/><polyline points="585,511 567,548" fill="none" stroke="#8a8f98" stroke-width="3" stroke-linecap="round"/><polyline points="549,535 541,545 534,547 479,519 478,516 485,502" fill="none" stroke="#8a8f98" stroke-width="3" stroke-linecap="round"/><polyline points="675,572 726,452 732,446" fill="none" stroke="#8a8f98" stroke-width="3" stroke-linecap="round"/><polyline points="889,503 840,623 844,627 920,660 923,664" fill="none" stroke="#8a8f98" stroke-width="3" stroke-linecap="round"/><polyline points="842,483 781,626 784,755" fill="none" stroke="#8a8f98" stroke-width="3" stroke-linecap="round"/><polyline points="59,392 36,393 12,397 -74,427" fill="none" stroke="#8a8f98" stroke-width="10" stroke-linecap="round"/><polyline points="62,518 70,504 72,480" fill="none" stroke="#8a8f98" stroke-width="3" stroke-linecap="round"/><polyline points="55,314 68,318 137,322 161,313 195,281" fill="none" stroke="#8a8f98" stroke-width="5" stroke-linecap="round"/><polyline points="26,164 12,232 4,247" fill="none" stroke="#8a8f98" stroke-width="5" stroke-linecap="round"/><polyline points="126,173 128,126" fill="none" stroke="#8a8f98" stroke-width="5" stroke-linecap="round"/><polyline points="16,291 15,307 39,323 45,323 55,314" fill="none" stroke="#8a8f98" stroke-width="3" stroke-linecap="round"/><polyline points="164,141 151,141" fill="none" stroke="#8a8f98" stroke-width="5" stroke-linecap="round"/><polyline points="60,383 62,387 59,392" fill="none" stroke="#8a8f98" stroke-width="10" stroke-linecap="round"/><polyline points="5,390 36,384 60,383" fill="none" stroke="#8a8f98" stroke-width="10" stroke-linecap="round"/><polyline points="268,410 124,395 59,392" fill="none" stroke="#8a8f98" stroke-width="10" stroke-linecap="round"/><polyline points="60,383 192,393" fill="none" stroke="#8a8f98" stroke-width="10" stroke-linecap="round"/><polyline points="13,498 24,493 45,492 50,497 47,503 19,503" fill="none" stroke="#8a8f98" stroke-width="3" stroke-linecap="round"/><polyline points="10,495 0,487 -4,474 -5,429 -1,422 17,417" fill="none" stroke="#8a8f98" stroke-width="3" stroke-linecap="round"/><polyline points="41,90 63,79 70,79 74,85 71,94 57,97 41,90" fill="none" stroke="#8a8f98" stroke-width="3" stroke-linecap="round"/><polyline points="37,55 25,46 13,48 6,60 10,72" fill="none" stroke="#8a8f98" stroke-width="3" stroke-linecap="round"/><polyline points="91,439 17,442" fill="none" stroke="#8a8f98" stroke-width="3" stroke-linecap="round"/><polyline points="4,247 -21,253" fill="none" stroke="#8a8f98" stroke-width="5" stroke-linecap="round"/><polyline points="148,88 184,85 232,97" fill="none" stroke="#8a8f98" stroke-width="5" stroke-linecap="round"/><polyline points="276,121 300,130" fill="none" stroke="#8a8f98" stroke-width="5" stroke-linecap="round"/><polyline points="4,247 19,256 42,255" fill="none" stroke="#8a8f98" stroke-width="5" stroke-linecap="round"/><polyline points="42,255 60,249 70,238" fill="none" stroke="#8a8f98" stroke-width="5" stroke-linecap="round"/><polyline points="16,291 55,314" fill="none" stroke="#8a8f98" stroke-width="5" stroke-linecap="round"/><polyline points="-5,289 16,291" fill="none" stroke="#8a8f98" stroke-width="5" stroke-linecap="round"/><polyline points="128,126 151,125" fill="none" stroke="#8a8f98" stroke-width="5" stroke-linecap="round"/><polyline points="106,200 126,173" fill="none" stroke="#8a8f98" stroke-width="5" stroke-linecap="round"/><polyline points="151,125 164,126" fill="none" stroke="#8a8f98" stroke-width="5" stroke-linecap="round"/><polyline points="164,126 164,141" fill="none" stroke="#8a8f98" stroke-width="5" stroke-linecap="round"/><polyline points="26,136 26,164" fill="none" stroke="#8a8f98" stroke-width="5" stroke-linecap="round"/><polyline points="25,119 26,136" fill="none" stroke="#8a8f98" stroke-width="5" stroke-linecap="round"/><polyline points="25,119 60,113" fill="none" stroke="#8a8f98" stroke-width="5" stroke-linecap="round"/><polyline points="192,393 261,401" fill="none" stroke="#8a8f98" stroke-width="10" stroke-linecap="round"/><polyline points="-54,410 5,390" fill="none" stroke="#8a8f98" stroke-width="10" stroke-linecap="round"/><polyline points="264,116 276,121" fill="none" stroke="#8a8f98" stroke-width="5" stroke-linecap="round"/><polyline points="242,103 264,116" fill="none" stroke="#8a8f98" stroke-width="5" stroke-linecap="round"/><polyline points="238,101 242,103" fill="none" stroke="#8a8f98" stroke-width="5" stroke-linecap="round"/><polyline points="232,97 238,101" fill="none" stroke="#8a8f98" stroke-width="5" stroke-linecap="round"/><polyline points="314,137 324,142" fill="none" stroke="#8a8f98" stroke-width="5" stroke-linecap="round"/><polyline points="300,130 314,137" fill="none" stroke="#8a8f98" stroke-width="5" stroke-linecap="round"/><polyline points="90,216 106,200" fill="none" stroke="#8a8f98" stroke-width="5" stroke-linecap="round"/><polyline points="60,113 74,110" fill="none" stroke="#8a8f98" stroke-width="5" stroke-linecap="round"/><polyline points="-10,121 25,119" fill="none" stroke="#8a8f98" stroke-width="5" stroke-linecap="round"/><polyline points="67,67 122,83 148,88" fill="none" stroke="#8a8f98" stroke-width="3" stroke-linecap="round"/><polyline points="74,110 113,103 148,88" fill="none" stroke="#8a8f98" stroke-width="5" stroke-linecap="round"/><polyline points="72,480 60,441" fill="none" stroke="#8a8f98" stroke-width="3" stroke-linecap="round"/><polyline points="151,141 151,125" fill="none" stroke="#8a8f98" stroke-width="5" stroke-linecap="round"/><polyline points="70,238 90,216" fill="none" stroke="#8a8f98" stroke-width="5" stroke-linecap="round"/><polyline points="149,203 152,185 162,187 159,195 149,195" fill="none" stroke="#8a8f98" stroke-width="3" stroke-linecap="round"/><polyline points="162,204 187,199 191,175" fill="none" stroke="#8a8f98" stroke-width="3" stroke-linecap="round"/><polyline points="58,250 67,210 79,193" fill="none" stroke="#8a8f98" stroke-width="3" stroke-linecap="round"/><polyline points="589,113 559,106 552,101 541,82" fill="none" stroke="#8a8f98" stroke-width="5" stroke-linecap="round"/><polyline points="660,247 641,302 630,324 622,338 587,373" fill="none" stroke="#8a8f98" stroke-width="10" stroke-linecap="round"/><polyline points="670,225 660,247" fill="none" stroke="#8a8f98" stroke-width="10" stroke-linecap="round"/><polyline points="506,217 513,208 522,210" fill="none" stroke="#8a8f98" stroke-width="5" stroke-linecap="round"/><polyline points="661,212 665,196" fill="none" stroke="#8a8f98" stroke-width="10" stroke-linecap="round"/><polyline points="665,196 673,159" fill="none" stroke="#8a8f98" stroke-width="10" stroke-linecap="round"/><polyline points="477,263 483,288 462,293 448,244" fill="none" stroke="#8a8f98" stroke-width="3" stroke-linecap="round"/><polyline points="430,374 427,340" fill="none" stroke="#8a8f98" stroke-width="5" stroke-linecap="round"/><polyline points="410,247 429,240" fill="none" stroke="#8a8f98" stroke-width="5" stroke-linecap="round"/><polyline points="452,169 440,163" fill="none" stroke="#8a8f98" stroke-width="5" stroke-linecap="round"/><polyline points="699,429 648,411" fill="none" stroke="#8a8f98" stroke-width="3" stroke-linecap="round"/><polyline points="388,205 380,191" fill="none" stroke="#8a8f98" stroke-width="5" stroke-linecap="round"/><polyline points="705,128 722,131" fill="none" stroke="#8a8f98" stroke-width="5" stroke-linecap="round"/><polyline points="773,167 743,170 706,185 683,205 670,225" fill="none" stroke="#8a8f98" stroke-width="10" stroke-linecap="round"/><polyline points="685,134 681,137 675,137" fill="none" stroke="#8a8f98" stroke-width="5" stroke-linecap="round"/><polyline points="659,233 661,212" fill="none" stroke="#8a8f98" stroke-width="10" stroke-linecap="round"/><polyline points="458,183 468,179 467,164 475,158 497,159 500,166" fill="none" stroke="#8a8f98" stroke-width="3" stroke-linecap="round"/><polyline points="739,424 772,436 780,421" fill="none" stroke="#8a8f98" stroke-width="3" stroke-linecap="round"/><polyline points="513,462 510,449 513,439 543,429" fill="none" stroke="#8a8f98" stroke-width="3" stroke-linecap="round"/><polyline points="431,415 431,390" fill="none" stroke="#8a8f98" stroke-width="5" stroke-linecap="round"/><polyline points="403,414 424,406 428,402 431,390" fill="none" stroke="#8a8f98" stroke-width="10" stroke-linecap="round"/><polyline points="333,408 403,414" fill="none" stroke="#8a8f98" stroke-width="10" stroke-linecap="round"/><polyline points="403,414 431,415" fill="none" stroke="#8a8f98" stroke-width="10" stroke-linecap="round"/><polyline points="416,268 421,283" fill="none" stroke="#8a8f98" stroke-width="5" stroke-linecap="round"/><polyline points="427,340 420,306" fill="none" stroke="#8a8f98" stroke-width="5" stroke-linecap="round"/><polyline points="438,390 440,415" fill="none" stroke="#8a8f98" stroke-width="5" stroke-linecap="round"/><polyline points="506,217 492,221" fill="none" stroke="#8a8f98" stroke-width="5" stroke-linecap="round"/><polyline points="440,424 431,424" fill="none" stroke="#8a8f98" stroke-width="10" stroke-linecap="round"/><polyline points="440,415 440,424" fill="none" stroke="#8a8f98" stroke-width="5" stroke-linecap="round"/><polyline points="387,188 395,202" fill="none" stroke="#8a8f98" stroke-width="5" stroke-linecap="round"/><polyline points="590,384 570,385" fill="none" stroke="#8a8f98" stroke-width="10" stroke-linecap="round"/><polyline points="663,223 680,198 702,179 724,168 742,163 772,160" fill="none" stroke="#8a8f98" stroke-width="10" stroke-linecap="round"/><polyline points="772,160 787,162" fill="none" stroke="#8a8f98" stroke-width="10" stroke-linecap="round"/><polyline points="793,171 790,166" fill="none" stroke="#8a8f98" stroke-width="5" stroke-linecap="round"/><polyline points="817,182 793,171" fill="none" stroke="#8a8f98" stroke-width="10" stroke-linecap="round"/><polyline points="786,170 773,167" fill="none" stroke="#8a8f98" stroke-width="10" stroke-linecap="round"/><polyline points="431,415 440,415" fill="none" stroke="#8a8f98" stroke-width="10" stroke-linecap="round"/><polyline points="431,424 431,415" fill="none" stroke="#8a8f98" stroke-width="5" stroke-linecap="round"/><polyline points="431,390 430,374" fill="none" stroke="#8a8f98" stroke-width="5" stroke-linecap="round"/><polyline points="406,262 405,256" fill="none" stroke="#8a8f98" stroke-width="5" stroke-linecap="round"/><polyline points="412,254 416,268" fill="none" stroke="#8a8f98" stroke-width="5" stroke-linecap="round"/><polyline points="388,163 418,159 433,146" fill="none" stroke="#8a8f98" stroke-width="3" stroke-linecap="round"/><polyline points="380,191 375,185" fill="none" stroke="#8a8f98" stroke-width="5" stroke-linecap="round"/><polyline points="387,188 380,191" fill="none" stroke="#8a8f98" stroke-width="5" stroke-linecap="round"/><polyline points="405,256 403,249" fill="none" stroke="#8a8f98" stroke-width="5" stroke-linecap="round"/><polyline points="410,247 412,254" fill="none" stroke="#8a8f98" stroke-width="5" stroke-linecap="round"/><polyline points="403,249 410,247" fill="none" stroke="#8a8f98" stroke-width="5" stroke-linecap="round"/><polyline points="584,367 597,357 621,328 631,310 642,282" fill="none" stroke="#8a8f98" stroke-width="10" stroke-linecap="round"/><polyline points="570,385 549,399" fill="none" stroke="#8a8f98" stroke-width="10" stroke-linecap="round"/><polyline points="705,128 685,134" fill="none" stroke="#8a8f98" stroke-width="5" stroke-linecap="round"/><polyline points="684,125 705,128" fill="none" stroke="#8a8f98" stroke-width="5" stroke-linecap="round"/><polyline points="671,128 659,122" fill="none" stroke="#8a8f98" stroke-width="5" stroke-linecap="round"/><polyline points="491,404 543,386" fill="none" stroke="#8a8f98" stroke-width="3" stroke-linecap="round"/><polyline points="787,162 779,153" fill="none" stroke="#8a8f98" stroke-width="5" stroke-linecap="round"/><polyline points="789,156 793,163" fill="none" stroke="#8a8f98" stroke-width="5" stroke-linecap="round"/><polyline points="549,439 528,460 513,462" fill="none" stroke="#8a8f98" stroke-width="3" stroke-linecap="round"/><polyline points="348,160 352,161" fill="none" stroke="#8a8f98" stroke-width="5" stroke-linecap="round"/><polyline points="835,191 826,186" fill="none" stroke="#8a8f98" stroke-width="10" stroke-linecap="round"/><polyline points="844,196 835,191" fill="none" stroke="#8a8f98" stroke-width="10" stroke-linecap="round"/><polyline points="403,249 388,205" fill="none" stroke="#8a8f98" stroke-width="5" stroke-linecap="round"/><polyline points="369,197 373,205 369,210 328,224" fill="none" stroke="#8a8f98" stroke-width="3" stroke-linecap="round"/><polyline points="494,420 440,424" fill="none" stroke="#8a8f98" stroke-width="10" stroke-linecap="round"/><polyline points="573,403 591,405 620,431 619,439 601,476" fill="none" stroke="#8a8f98" stroke-width="3" stroke-linecap="round"/><polyline points="399,182 387,188" fill="none" stroke="#8a8f98" stroke-width="5" stroke-linecap="round"/><polyline points="538,406 494,420" fill="none" stroke="#8a8f98" stroke-width="10" stroke-linecap="round"/><polyline points="587,373 584,375" fill="none" stroke="#8a8f98" stroke-width="10" stroke-linecap="round"/><polyline points="549,399 538,406" fill="none" stroke="#8a8f98" stroke-width="10" stroke-linecap="round"/><polyline points="793,163 817,172" fill="none" stroke="#8a8f98" stroke-width="10" stroke-linecap="round"/><polyline points="492,412 523,404 546,392" fill="none" stroke="#8a8f98" stroke-width="10" stroke-linecap="round"/><polyline points="580,369 584,367" fill="none" stroke="#8a8f98" stroke-width="10" stroke-linecap="round"/><polyline points="440,415 492,412" fill="none" stroke="#8a8f98" stroke-width="10" stroke-linecap="round"/><polyline points="584,375 570,385" fill="none" stroke="#8a8f98" stroke-width="10" stroke-linecap="round"/><polyline points="793,171 786,170" fill="none" stroke="#8a8f98" stroke-width="10" stroke-linecap="round"/><polyline points="793,163 790,166" fill="none" stroke="#8a8f98" stroke-width="5" stroke-linecap="round"/><polyline points="787,162 793,163" fill="none" stroke="#8a8f98" stroke-width="10" stroke-linecap="round"/><polyline points="790,166 787,162" fill="none" stroke="#8a8f98" stroke-width="5" stroke-linecap="round"/><polyline points="395,202 410,247" fill="none" stroke="#8a8f98" stroke-width="5" stroke-linecap="round"/><polyline points="546,392 567,379" fill="none" stroke="#8a8f98" stroke-width="10" stroke-linecap="round"/><polyline points="817,172 825,176" fill="none" stroke="#8a8f98" stroke-width="10" stroke-linecap="round"/><polyline points="825,176 848,188" fill="none" stroke="#8a8f98" stroke-width="10" stroke-linecap="round"/><polyline points="826,186 817,182" fill="none" stroke="#8a8f98" stroke-width="10" stroke-linecap="round"/><polyline points="790,166 786,170" fill="none" stroke="#8a8f98" stroke-width="5" stroke-linecap="round"/><polyline points="367,499 436,504" fill="none" stroke="#8a8f98" stroke-width="3" stroke-linecap="round"/><polyline points="631,118 589,113" fill="none" stroke="#8a8f98" stroke-width="5" stroke-linecap="round"/><polyline points="659,122 631,118" fill="none" stroke="#8a8f98" stroke-width="5" stroke-linecap="round"/><polyline points="772,150 779,153" fill="none" stroke="#8a8f98" stroke-width="5" stroke-linecap="round"/><polyline points="739,136 772,150" fill="none" stroke="#8a8f98" stroke-width="5" stroke-linecap="round"/><polyline points="659,122 674,124" fill="none" stroke="#8a8f98" stroke-width="5" stroke-linecap="round"/><polyline points="730,358 706,412" fill="none" stroke="#8a8f98" stroke-width="3" stroke-linecap="round"/><polyline points="567,379 580,369" fill="none" stroke="#8a8f98" stroke-width="10" stroke-linecap="round"/><polyline points="659,233 663,223" fill="none" stroke="#8a8f98" stroke-width="10" stroke-linecap="round"/><polyline points="654,244 659,233" fill="none" stroke="#8a8f98" stroke-width="10" stroke-linecap="round"/><polyline points="642,282 654,244" fill="none" stroke="#8a8f98" stroke-width="10" stroke-linecap="round"/><polyline points="431,424 369,422 326,418" fill="none" stroke="#8a8f98" stroke-width="10" stroke-linecap="round"/><polyline points="437,372 438,390" fill="none" stroke="#8a8f98" stroke-width="5" stroke-linecap="round"/><polyline points="436,353 437,372" fill="none" stroke="#8a8f98" stroke-width="5" stroke-linecap="round"/><polyline points="434,333 436,353" fill="none" stroke="#8a8f98" stroke-width="5" stroke-linecap="round"/><polyline points="414,285 406,262" fill="none" stroke="#8a8f98" stroke-width="5" stroke-linecap="round"/><polyline points="420,306 414,285" fill="none" stroke="#8a8f98" stroke-width="5" stroke-linecap="round"/><polyline points="371,174 378,179" fill="none" stroke="#8a8f98" stroke-width="5" stroke-linecap="round"/><polyline points="375,185 371,182" fill="none" stroke="#8a8f98" stroke-width="5" stroke-linecap="round"/><polyline points="371,182 350,164" fill="none" stroke="#8a8f98" stroke-width="5" stroke-linecap="round"/><polyline points="378,179 387,188" fill="none" stroke="#8a8f98" stroke-width="5" stroke-linecap="round"/><polyline points="421,283 434,333" fill="none" stroke="#8a8f98" stroke-width="5" stroke-linecap="round"/><polyline points="779,153 789,156" fill="none" stroke="#8a8f98" stroke-width="5" stroke-linecap="round"/><polyline points="722,131 739,136" fill="none" stroke="#8a8f98" stroke-width="5" stroke-linecap="round"/><polyline points="673,159 675,137" fill="none" stroke="#8a8f98" stroke-width="10" stroke-linecap="round"/><polyline points="413,175 399,182" fill="none" stroke="#8a8f98" stroke-width="5" stroke-linecap="round"/><polyline points="440,163 413,175" fill="none" stroke="#8a8f98" stroke-width="5" stroke-linecap="round"/><polyline points="457,179 452,169" fill="none" stroke="#8a8f98" stroke-width="5" stroke-linecap="round"/><polyline points="461,193 458,183" fill="none" stroke="#8a8f98" stroke-width="5" stroke-linecap="round"/><polyline points="464,204 461,193" fill="none" stroke="#8a8f98" stroke-width="5" stroke-linecap="round"/><polyline points="482,225 468,216" fill="none" stroke="#8a8f98" stroke-width="5" stroke-linecap="round"/><polyline points="442,236 462,230" fill="none" stroke="#8a8f98" stroke-width="5" stroke-linecap="round"/><polyline points="429,240 442,236" fill="none" stroke="#8a8f98" stroke-width="5" stroke-linecap="round"/><polyline points="396,399 394,347 368,253" fill="none" stroke="#8a8f98" stroke-width="3" stroke-linecap="round"/><polyline points="655,394 706,412" fill="none" stroke="#8a8f98" stroke-width="3" stroke-linecap="round"/><polyline points="462,486 503,484" fill="none" stroke="#8a8f98" stroke-width="3" stroke-linecap="round"/><polyline points="468,216 464,204" fill="none" stroke="#8a8f98" stroke-width="5" stroke-linecap="round"/><polyline points="462,230 468,216" fill="none" stroke="#8a8f98" stroke-width="5" stroke-linecap="round"/><polyline points="492,221 482,225" fill="none" stroke="#8a8f98" stroke-width="5" stroke-linecap="round"/><polyline points="462,230 482,225" fill="none" stroke="#8a8f98" stroke-width="5" stroke-linecap="round"/><polyline points="458,183 457,179" fill="none" stroke="#8a8f98" stroke-width="5" stroke-linecap="round"/><polyline points="350,164 348,160" fill="none" stroke="#8a8f98" stroke-width="5" stroke-linecap="round"/><polyline points="352,161 371,174" fill="none" stroke="#8a8f98" stroke-width="5" stroke-linecap="round"/><polyline points="332,149 348,160" fill="none" stroke="#8a8f98" stroke-width="5" stroke-linecap="round"/><polyline points="674,124 684,125" fill="none" stroke="#8a8f98" stroke-width="5" stroke-linecap="round"/><polyline points="684,125 685,134" fill="none" stroke="#8a8f98" stroke-width="5" stroke-linecap="round"/><polyline points="675,137 671,128" fill="none" stroke="#8a8f98" stroke-width="5" stroke-linecap="round"/><polyline points="671,128 674,124" fill="none" stroke="#8a8f98" stroke-width="5" stroke-linecap="round"/><polyline points="485,266 488,276 518,267 515,257 485,266" fill="none" stroke="#8a8f98" stroke-width="3" stroke-linecap="round"/><polyline points="757,451 747,475 730,468 735,459 751,465" fill="none" stroke="#8a8f98" stroke-width="3" stroke-linecap="round"/><polyline points="492,306 497,307 533,296 538,311 456,336 450,319 492,306" fill="none" stroke="#8a8f98" stroke-width="3" stroke-linecap="round"/><polyline points="567,279 582,276 608,288 638,295" fill="none" stroke="#8a8f98" stroke-width="3" stroke-linecap="round"/><polyline points="448,244 470,238 477,263" fill="none" stroke="#8a8f98" stroke-width="3" stroke-linecap="round"/><polyline points="889,503 925,520 945,542 954,569 960,633" fill="none" stroke="#8a8f98" stroke-width="3" stroke-linecap="round"/><polyline points="945,542 951,535 964,504" fill="none" stroke="#8a8f98" stroke-width="3" stroke-linecap="round"/><polyline points="889,503 925,417" fill="none" stroke="#8a8f98" stroke-width="3" stroke-linecap="round"/><polyline points="1006,234 948,228" fill="none" stroke="#8a8f98" stroke-width="10" stroke-linecap="round"/><polyline points="950,221 1008,227" fill="none" stroke="#8a8f98" stroke-width="10" stroke-linecap="round"/><polyline points="945,295 936,317 922,325 892,320 894,307" fill="none" stroke="#8a8f98" stroke-width="3" stroke-linecap="round"/><polyline points="945,295 879,267" fill="none" stroke="#8a8f98" stroke-width="3" stroke-linecap="round"/><polyline points="925,417 943,377" fill="none" stroke="#8a8f98" stroke-width="3" stroke-linecap="round"/><polygon points="308,153 368,199 365,203 335,208 334,216 312,221 300,161 308,153" fill="#c8c2b8" stroke="#00000033"/><polygon points="475,236 506,227 515,257 502,261 505,271 518,267 528,298 497,307 488,276 499,273 496,263 485,266 475,236" fill="#ef8354" stroke="#00000033"/><polygon points="130,181 159,178 159,163 168,163 170,193 184,193 183,173 189,173 189,146 129,146 130,181" fill="#c8c2b8" stroke="#00000033"/><polygon points="366,235 397,336 398,392 410,392 408,331 377,231 366,235" fill="#c8c2b8" stroke="#00000033"/><polygon points="467,433 499,432 500,450 506,450 507,464 500,465 501,476 469,477 467,433" fill="#c8c2b8" stroke="#00000033"/><polygon points="67,189 62,188 62,185 35,180 26,225 56,231 67,189" fill="#c8c2b8" stroke="#00000033"/><polygon points="376,158 373,131 413,127 431,144 427,149 420,150 420,155 376,158" fill="#c8c2b8" stroke="#00000033"/><polygon points="551,495 574,469 572,467 575,462 559,449 556,452 553,449 550,452 546,449 528,469 534,474 531,478 551,495" fill="#c8c2b8" stroke="#00000033"/><polygon points="586,408 615,434 594,458 565,432 586,408" fill="#c8c2b8" stroke="#00000033"/><polygon points="685,239 701,245 694,263 726,275 720,293 700,286 702,279 690,275 689,279 673,273 676,264 671,262 674,255 679,257 685,239" fill="#c8c2b8" stroke="#00000033"/><polygon points="442,259 456,304 488,293 492,306 448,320 430,262 442,259" fill="#c8c2b8" stroke="#00000033"/><polygon points="329,99 295,87 291,95 293,99 324,109 322,115 338,120 339,115 350,123 352,119 357,121 359,136 369,135 364,106 360,108 353,104 346,104 343,99 337,102 340,107 337,110 327,107 329,99" fill="#c8c2b8" stroke="#00000033"/><polygon points="463,403 462,338 469,335 471,342 530,323 526,313 456,336 457,403 463,403" fill="#c8c2b8" stroke="#00000033"/><polygon points="-4,523 53,520 54,538 -3,541 -4,523" fill="#c8c2b8" stroke="#00000033"/><polygon points="171,107 197,107 197,112 206,112 207,131 198,131 198,136 190,136 190,140 171,140 171,107" fill="#c8c2b8" stroke="#00000033"/><polygon points="537,384 494,398 489,384 533,370 537,384" fill="#c8c2b8" stroke="#00000033"/><polygon points="527,238 541,234 549,238 550,231 565,226 561,213 551,210 548,218 523,225 527,238" fill="#c8c2b8" stroke="#00000033"/><polygon points="230,58 225,65 237,67 239,75 243,74 242,67 247,66 252,58 254,59 263,45 251,37 241,50 245,52 242,57 230,58" fill="#c8c2b8" stroke="#00000033"/><polygon points="400,441 354,441 354,431 400,431 400,441" fill="#c8c2b8" stroke="#00000033"/><polygon points="608,124 641,128 640,141 607,137 608,124" fill="#c8c2b8" stroke="#00000033"/><polygon points="519,553 540,570 531,582 510,565 519,553" fill="#c8c2b8" stroke="#00000033"/><polygon points="81,487 96,487 96,513 81,513 81,487" fill="#c8c2b8" stroke="#00000033"/><polygon points="-18,502 10,500 11,513 -17,516 -18,502" fill="#c8c2b8" stroke="#00000033"/><polygon points="255,83 286,94 285,104 249,93 255,83" fill="#c8c2b8" stroke="#00000033"/><polygon points="-24,141 -22,133 22,143 20,151 -24,141" fill="#c8c2b8" stroke="#00000033"/><polygon points="-15,264 26,268 26,277 -15,273 -15,264" fill="#c8c2b8" stroke="#00000033"/><polygon points="87,528 105,545 95,556 77,538 87,528" fill="#c8c2b8" stroke="#00000033"/><polygon points="39,281 45,274 75,299 69,306 39,281" fill="#c8c2b8" stroke="#00000033"/><polygon points="401,428 410,427 410,432 424,432 424,445 401,445 401,428" fill="#c8c2b8" stroke="#00000033"/><polygon points="92,116 104,113 107,133 105,141 93,138 92,116" fill="#c8c2b8" stroke="#00000033"/><polygon points="90,451 106,468 97,478 80,461 90,451" fill="#c8c2b8" stroke="#00000033"/><polygon points="91,299 131,294 130,286 90,291 91,299" fill="#c8c2b8" stroke="#00000033"/><polygon points="509,579 504,575 508,569 493,559 497,554 492,551 481,566 486,570 488,567 507,582 509,579" fill="#c8c2b8" stroke="#00000033"/><polygon points="14,450 52,449 53,457 14,458 14,450" fill="#c8c2b8" stroke="#00000033"/><polygon points="17,479 61,479 61,486 17,486 17,479" fill="#c8c2b8" stroke="#00000033"/><polygon points="-26,199 -20,194 9,223 4,228 -26,199" fill="#c8c2b8" stroke="#00000033"/><polygon points="147,288 179,265 174,259 143,281 147,288" fill="#c8c2b8" stroke="#00000033"/><polygon points="488,526 456,513 453,523 486,533 488,526" fill="#c8c2b8" stroke="#00000033"/><polygon points="82,161 93,144 106,148 91,170 82,161" fill="#c8c2b8" stroke="#00000033"/><polygon points="191,324 223,302 219,296 187,317 191,324" fill="#c8c2b8" stroke="#00000033"/><polygon points="519,540 549,562 544,568 515,547 519,540" fill="#c8c2b8" stroke="#00000033"/><polygon points="15,340 48,354 51,346 18,333 15,340" fill="#c8c2b8" stroke="#00000033"/><polygon points="81,328 116,333 115,341 80,336 81,328" fill="#c8c2b8" stroke="#00000033"/><polygon points="169,326 171,333 134,345 132,338 169,326" fill="#c8c2b8" stroke="#00000033"/><polygon points="530,515 538,505 521,491 513,501 530,515" fill="#c8c2b8" stroke="#00000033"/><polygon points="594,403 599,397 627,421 622,426 594,403" fill="#c8c2b8" stroke="#00000033"/><polygon points="57,160 73,164 81,162 83,171 66,174 54,169 57,160" fill="#c8c2b8" stroke="#00000033"/><polyline points="259,410 369,422 440,424 440,415 488,413 523,404 567,379 608,344 631,310 659,233 675,137 671,128 659,122 566,109 552,101 541,82" fill="none" stroke="#ffdd44" stroke-width="6" opacity="0.85"/><circle cx="259" cy="410" r="10" fill="#a0f"/><circle cx="541" cy="82" r="10" fill="#f00"/><path d="M176.00000000041686,572.0000000000114 L192.00000000041686,572.0000000000114 M184.00000000041686,564.0000000000114 L184.00000000041686,580.0000000000114" stroke="#0ff" stroke-width="2"/><path d="M480.00000000026523,100 L496.00000000026523,100 M488.00000000026523,92 L488.00000000026523,108" stroke="#0ff" stroke-width="2"/><rect x="269" y="360" width="22" height="16" fill="#b8c2cc" stroke="#333"/><rect x="317" y="456" width="22" height="16" fill="#b8c2cc" stroke="#333"/><rect x="365" y="360" width="22" height="16" fill="#b8c2cc" stroke="#333"/><rect x="377" y="468" width="22" height="16" fill="#b8c2cc" stroke="#333"/><rect x="437" y="468" width="22" height="16" fill="#b8c2cc" stroke="#333"/><rect x="485" y="348" width="22" height="16" fill="#b8c2cc" stroke="#333"/><rect x="545" y="312" width="22" height="16" fill="#b8c2cc" stroke="#333"/><rect x="509" y="444" width="22" height="16" fill="#b8c2cc" stroke="#333"/><rect x="617" y="384" width="22" height="16" fill="#b8c2cc" stroke="#333"/><rect x="653" y="336" width="22" height="16" fill="#b8c2cc" stroke="#333"/><rect x="581" y="252" width="22" height="16" fill="#b8c2cc" stroke="#333"/><rect x="713" y="240" width="22" height="16" fill="#b8c2cc" stroke="#333"/><rect x="713" y="312" width="22" height="16" fill="#b8c2cc" stroke="#333"/><rect x="521" y="192" width="22" height="16" fill="#b8c2cc" stroke="#333"/><rect x="713" y="108" width="22" height="16" fill="#b8c2cc" stroke="#333"/><rect x="665" y="72" width="22" height="16" fill="#b8c2cc" stroke="#333"/><rect x="605" y="60" width="22" height="16" fill="#b8c2cc" stroke="#333"/><rect x="773" y="120" width="22" height="16" fill="#b8c2cc" stroke="#333"/><text x="499" y="264" font-size="13" fill="#fff" text-anchor="middle" stroke="#000" stroke-width="0.4">Hawker Centre</text><text x="512" y="52" font-size="13" fill="#fff" text-anchor="middle" stroke="#000" stroke-width="0.4">Changi Pt Jetty</text><text x="480" y="20" font-size="16" fill="#fff" text-anchor="middle">10: Changi Village</text></svg>