<svg xmlns="http://www.w3.org/2000/svg" width="960" height="600" viewBox="0 0 960 600"><rect width="960" height="600" fill="#6aa03c"/><polygon points="-72,952 123,1093 162,1055 123,985 146,940 184,899 255,843 276,864 300,853 293,571 284,570 218,491 225,166 149,129 119,183 112,306 151,345 79,384 44,389 30,399 10,527 8,656 -79,843 -72,952" fill="#4c8a2c" opacity="0.7"/><polygon points="1108,260 960,248 909,238 896,232 897,226 873,218 871,222 853,212 854,210 806,187 793,174 767,162 725,145 691,137 675,138 641,131 640,135 538,121 525,116 485,150 480,149 452,117 433,77 424,68 424,59 415,47 416,44 395,24 373,15 323,7 313,3 306,-8 313,-32 322,-46 339,-54 368,-51 409,-39 485,-11 512,2 515,10 715,89 738,103 744,99 802,131 864,161 953,192 971,195 979,188 983,177 1093,236 1094,233 1118,243 1131,233 1221,266 1283,274 1306,280 1352,299 1399,329 1393,334 1379,334 1346,308 1315,289 1187,268 1108,260" fill="#4c8a2c" opacity="0.7"/><polygon points="44,888 76,861 137,847 127,829 178,810 197,794 224,736 230,711 248,733 249,704 238,700 226,690 238,673 257,681 242,605 195,578 130,574 74,603 60,619 47,695 36,736 12,765 -13,772 -31,824 -46,890 -45,909 -18,904 -11,887 35,882 44,888" fill="#4c8a2c" opacity="0.7"/><polygon points="314,396 271,258 328,236 321,218 275,181 239,158 193,142 196,164 177,160 173,183 208,187 214,171 231,176 241,169 268,187 312,222 312,231 283,238 266,247 239,250 228,218 210,226 208,278 194,316 190,370 210,383 217,400 212,418 191,431 152,417 146,432 137,436 106,430 104,418 56,423 34,412 35,400 78,396 76,386 49,393 42,388 40,374 24,375 22,386 -25,379 -47,385 -56,407 -79,405 -101,408 -121,421 -118,435 -15,414 26,419 12,438 26,456 35,460 165,470 168,493 177,499 180,520 198,518 201,487 214,508 240,536 257,546 263,562 287,570 296,577 292,595 291,655 296,655 295,601 304,600 309,631 385,650 382,631 348,622 325,600 335,592 353,593 359,608 384,606 383,571 367,561 381,548 381,539 360,537 345,549 346,562 336,566 314,561 291,564 274,560 276,535 265,534 244,513 241,521 225,483 229,472 288,483 308,484 313,455 314,396" fill="#4c8a2c" opacity="0.7"/><polygon points="659,247 785,258 796,279 793,316 780,346 772,386 799,398 825,415 879,430 942,398 913,458 889,469 754,412 734,434 716,420 722,398 693,352 712,315 721,321 732,314 723,291 712,293 702,275 658,260 659,247" fill="#4c8a2c" opacity="0.7"/><polygon points="894,574 898,572 935,591 954,612 964,637 973,731 933,746 930,743 843,706 840,702 894,574" fill="#4c8a2c" opacity="0.7"/><polygon points="913,462 930,469 914,514 892,562 705,490 706,485 773,509 802,438 905,481 913,462" fill="#4c8a2c" opacity="0.7"/><polygon points="944,383 905,396 874,399 841,389 819,370 827,337 832,287 831,270 821,245 818,215 860,242 864,265 889,340 894,390 947,376 944,383" fill="#4c8a2c" opacity="0.7"/><polygon points="938,473 1002,500 1081,437 1126,420 1127,422 1053,464 1006,503 997,517 964,600 960,604 955,603 939,587 899,564 938,473" fill="#4c8a2c" opacity="0.7"/><polygon points="509,368 559,349 593,268 622,266 592,354 574,381 554,401 526,422 509,368" fill="#4c8a2c" opacity="0.7"/><polygon points="963,614 977,580 980,616 987,642 1030,732 1030,760 1027,774 1022,778 1000,763 983,738 977,717 970,641 963,614" fill="#4c8a2c" opacity="0.7"/><polygon points="740,509 736,522 718,514 711,531 716,533 653,675 657,677 608,792 602,796 628,710 712,512 722,505 740,509" fill="#4c8a2c" opacity="0.7"/><polygon points="23,34 20,41 61,58 92,67 116,56 136,54 148,48 163,50 162,45 148,40 129,43 77,40 69,43 62,43 39,32 23,34" fill="#4c8a2c" opacity="0.7"/><polygon points="718,225 736,230 760,224 765,227 769,237 783,239 792,234 787,219 769,207 749,204 742,207 729,205 717,210 718,225" fill="#4c8a2c" opacity="0.7"/><polygon points="509,54 515,51 519,54 538,47 545,49 539,58 542,62 542,67 538,69 541,88 537,97 543,104 549,104 540,112 530,102 527,78 523,70 509,65 509,54" fill="#4c8a2c" opacity="0.7"/><polygon points="-7,13 7,29 38,31 69,43 77,40 129,42 161,39 165,35 169,23 117,28 89,26 59,18 -7,13" fill="#e8d8a8"/><polygon points="445,394 488,381 509,437 453,457 433,460 426,400 445,394" fill="#9aa0a8"/><polygon points="336,212 392,192 413,249 357,269 336,212" fill="#9aa0a8"/><polygon points="966,229 960,248 1060,256 1060,244 1024,241 1018,234 1021,226 988,218 984,233 966,229" fill="#9aa0a8"/><polygon points="566,86 600,93 597,108 614,111 612,128 549,120 566,86" fill="#9aa0a8"/><polygon points="815,169 862,191 854,210 806,187 815,169" fill="#9aa0a8"/><polygon points="242,121 255,125 253,132 275,142 278,139 288,147 284,162 261,146 237,136 242,121" fill="#9aa0a8"/><polygon points="294,272 298,271 331,379 326,380 294,272" fill="#9aa0a8"/><polygon points="736,144 742,131 769,143 764,155 736,144" fill="#9aa0a8"/><polygon points="520,126 617,140 614,163 574,157 570,161 563,161 563,158 516,160 520,126" fill="#3d8b46" stroke="#fff"/><polygon points="316,178 312,148 357,143 378,163 373,168 365,169 365,175 318,180 316,178" fill="#3d8b46" stroke="#fff"/><polygon points="686,282 710,292 706,304 682,294 686,282" fill="#3d8b46" stroke="#fff"/><polygon points="258,106 261,96 255,94 257,89 263,92 264,88 245,82 244,85 250,87 249,92 242,90 239,99 258,106" fill="#3ec6e8"/><polygon points="686,329 657,318 651,334 680,345 686,329" fill="#3ec6e8"/><polygon points="1139,461 1144,434 1134,403 1118,386 1095,377 1081,375 964,382 890,411" fill="#2e7bb4"/><polygon points="637,228 638,221 650,223 660,180 666,171 738,175 750,194 772,195 785,198 818,215 821,245 831,270 832,287 827,337 819,370 841,389 874,399 905,396 966,376 1084,368 1107,371 1132,388 1147,409 1154,434 1150,465 1128,456 1133,440 1127,411 1111,392 1096,385 980,382 962,386 900,421 879,430 825,415 799,398 772,386 780,346 793,316 796,279 785,258 659,247 637,228" fill="#2e7bb4"/><rect x="0" y="0" width="312" height="8" fill="#2e7bb4"/><rect x="512" y="0" width="448" height="8" fill="#2e7bb4"/><rect x="0" y="8" width="184" height="8" fill="#2e7bb4"/><rect x="192" y="8" width="144" height="8" fill="#2e7bb4"/><rect x="528" y="8" width="432" height="8" fill="#2e7bb4"/><rect x="64" y="16" width="112" height="8" fill="#2e7bb4"/><rect x="200" y="16" width="176" height="8" fill="#2e7bb4"/><rect x="552" y="16" width="408" height="8" fill="#2e7bb4"/><rect x="200" y="24" width="192" height="8" fill="#2e7bb4"/><rect x="568" y="24" width="392" height="8" fill="#2e7bb4"/><rect x="200" y="32" width="208" height="8" fill="#2e7bb4"/><rect x="592" y="32" width="368" height="8" fill="#2e7bb4"/><rect x="208" y="40" width="208" height="16" fill="#2e7bb4"/><rect x="608" y="40" width="352" height="8" fill="#2e7bb4"/><rect x="632" y="48" width="328" height="8" fill="#2e7bb4"/><rect x="240" y="56" width="184" height="8" fill="#2e7bb4"/><rect x="648" y="56" width="312" height="8" fill="#2e7bb4"/><rect x="264" y="64" width="160" height="8" fill="#2e7bb4"/><rect x="672" y="64" width="288" height="8" fill="#2e7bb4"/><rect x="288" y="72" width="144" height="8" fill="#2e7bb4"/><rect x="688" y="72" width="272" height="8" fill="#2e7bb4"/><rect x="312" y="80" width="128" height="8" fill="#2e7bb4"/><rect x="712" y="80" width="248" height="8" fill="#2e7bb4"/><rect x="352" y="88" width="88" height="8" fill="#2e7bb4"/><rect x="728" y="88" width="232" height="8" fill="#2e7bb4"/><rect x="360" y="96" width="80" height="8" fill="#2e7bb4"/><rect x="744" y="96" width="216" height="8" fill="#2e7bb4"/><rect x="368" y="104" width="80" height="8" fill="#2e7bb4"/><rect x="760" y="104" width="200" height="8" fill="#2e7bb4"/><rect x="376" y="112" width="72" height="8" fill="#2e7bb4"/><rect x="776" y="112" width="184" height="8" fill="#2e7bb4"/><rect x="384" y="120" width="72" height="8" fill="#2e7bb4"/><rect x="792" y="120" width="168" height="8" fill="#2e7bb4"/><rect x="400" y="128" width="64" height="8" fill="#2e7bb4"/><rect x="808" y="128" width="152" height="8" fill="#2e7bb4"/><rect x="408" y="136" width="64" height="8" fill="#2e7bb4"/><rect x="824" y="136" width="136" height="8" fill="#2e7bb4"/><rect x="416" y="144" width="64" height="8" fill="#2e7bb4"/><rect x="848" y="144" width="112" height="8" fill="#2e7bb4"/><rect x="424" y="152" width="88" height="8" fill="#2e7bb4"/><rect x="864" y="152" width="96" height="8" fill="#2e7bb4"/><rect x="432" y="160" width="40" height="8" fill="#2e7bb4"/><rect x="480" y="160" width="128" height="8" fill="#2e7bb4"/><rect x="880" y="160" width="80" height="8" fill="#2e7bb4"/><rect x="440" y="168" width="200" height="8" fill="#2e7bb4"/><rect x="904" y="168" width="56" height="8" fill="#2e7bb4"/><rect x="472" y="176" width="168" height="16" fill="#2e7bb4"/><rect x="920" y="176" width="40" height="8" fill="#2e7bb4"/><rect x="944" y="184" width="16" height="8" fill="#2e7bb4"/><rect x="488" y="192" width="152" height="8" fill="#2e7bb4"/><rect x="504" y="200" width="136" height="8" fill="#2e7bb4"/><rect x="520" y="208" width="120" height="8" fill="#2e7bb4"/><rect x="544" y="216" width="96" height="8" fill="#2e7bb4"/><rect x="560" y="224" width="72" height="8" fill="#2e7bb4"/><rect x="576" y="232" width="56" height="8" fill="#2e7bb4"/><rect x="952" y="488" width="8" height="16" fill="#2e7bb4"/><rect x="944" y="504" width="16" height="16" fill="#2e7bb4"/><rect x="936" y="520" width="24" height="16" fill="#2e7bb4"/><rect x="928" y="536" width="32" height="16" fill="#2e7bb4"/><rect x="920" y="552" width="40" height="16" fill="#2e7bb4"/><rect x="912" y="568" width="48" height="16" fill="#2e7bb4"/><rect x="904" y="584" width="56" height="8" fill="#2e7bb4"/><rect x="896" y="592" width="64" height="8" fill="#2e7bb4"/><polyline points="10,641 -34,651" fill="none" stroke="#8a8f98" stroke-width="3" stroke-linecap="round"/><polyline points="531,618 575,661 616,680" fill="none" stroke="#8a8f98" stroke-width="3" stroke-linecap="round"/><polyline points="593,807 626,709 653,645" fill="none" stroke="#8a8f98" stroke-width="3" stroke-linecap="round"/><polyline points="531,618 496,676" fill="none" stroke="#8a8f98" stroke-width="3" stroke-linecap="round"/><polyline points="960,258 938,255 903,246 843,221" fill="none" stroke="#8a8f98" stroke-width="10" stroke-linecap="round"/><polyline points="384,633 383,569" fill="none" stroke="#8a8f98" stroke-width="3" stroke-linecap="round"/><polyline points="306,563 292,670 283,708 292,727 294,760" fill="none" stroke="#8a8f98" stroke-width="3" stroke-linecap="round"/><polyline points="194,463 257,556 275,564 306,563" fill="none" stroke="#8a8f98" stroke-width="3" stroke-linecap="round"/><polyline points="186,452 266,460" fill="none" stroke="#8a8f98" stroke-width="10" stroke-linecap="round"/><polyline points="847,212 908,239 963,249" fill="none" stroke="#8a8f98" stroke-width="10" stroke-linecap="round"/><polyline points="257,160 266,169" fill="none" stroke="#8a8f98" stroke-width="5" stroke-linecap="round"/><polyline points="746,508 894,568" fill="none" stroke="#8a8f98" stroke-width="3" stroke-linecap="round"/><polyline points="259,471 194,463" fill="none" stroke="#8a8f98" stroke-width="10" stroke-linecap="round"/><polyline points="551,577 531,618" fill="none" stroke="#8a8f98" stroke-width="3" stroke-linecap="round"/><polyline points="510,603 502,615 494,617 432,586 431,582 438,566" fill="none" stroke="#8a8f98" stroke-width="3" stroke-linecap="round"/><polyline points="653,645 710,510 716,503" fill="none" stroke="#8a8f98" stroke-width="3" stroke-linecap="round"/><polyline points="894,568 838,702 843,708 929,744 932,749" fill="none" stroke="#8a8f98" stroke-width="3" stroke-linecap="round"/><polyline points="841,545 773,707 776,851" fill="none" stroke="#8a8f98" stroke-width="3" stroke-linecap="round"/><polyline points="-42,442 -68,443 -95,448 -193,482" fill="none" stroke="#8a8f98" stroke-width="10" stroke-linecap="round"/><polyline points="-39,584 -30,568 -26,552 -27,542" fill="none" stroke="#8a8f98" stroke-width="3" stroke-linecap="round"/><polyline points="-47,354 -31,359 46,363 73,352 87,342 111,317" fill="none" stroke="#8a8f98" stroke-width="5" stroke-linecap="round"/><polyline points="34,195 36,142" fill="none" stroke="#8a8f98" stroke-width="5" stroke-linecap="round"/><polyline points="-91,329 -92,347 -65,364 -58,365 -47,354" fill="none" stroke="#8a8f98" stroke-width="3" stroke-linecap="round"/><polyline points="77,159 61,159" fill="none" stroke="#8a8f98" stroke-width="5" stroke-linecap="round"/><polyline points="-41,432 -39,436 -42,442" fill="none" stroke="#8a8f98" stroke-width="10" stroke-linecap="round"/><polyline points="-103,440 -68,433 -41,432" fill="none" stroke="#8a8f98" stroke-width="10" stroke-linecap="round"/><polyline points="194,463 32,446 -42,442" fill="none" stroke="#8a8f98" stroke-width="10" stroke-linecap="round"/><polyline points="-41,432 73,439 108,443" fill="none" stroke="#8a8f98" stroke-width="10" stroke-linecap="round"/><polyline points="-63,102 -37,90 -30,89 -25,95 -29,106 -44,110 -63,102" fill="none" stroke="#8a8f98" stroke-width="3" stroke-linecap="round"/><polyline points="-6,495 -90,498" fill="none" stroke="#8a8f98" stroke-width="3" stroke-linecap="round"/><polyline points="58,99 99,96 131,102 153,110" fill="none" stroke="#8a8f98" stroke-width="5" stroke-linecap="round"/><polyline points="202,136 230,146" fill="none" stroke="#8a8f98" stroke-width="5" stroke-linecap="round"/><polyline points="-62,288 -41,280 -30,268" fill="none" stroke="#8a8f98" stroke-width="5" stroke-linecap="round"/><polyline points="-91,329 -47,354" fill="none" stroke="#8a8f98" stroke-width="5" stroke-linecap="round"/><polyline points="36,142 61,141" fill="none" stroke="#8a8f98" stroke-width="5" stroke-linecap="round"/><polyline points="11,225 34,195" fill="none" stroke="#8a8f98" stroke-width="5" stroke-linecap="round"/><polyline points="61,141 76,142" fill="none" stroke="#8a8f98" stroke-width="5" stroke-linecap="round"/><polyline points="76,142 77,159" fill="none" stroke="#8a8f98" stroke-width="5" stroke-linecap="round"/><polyline points="-61,150 -21,141" fill="none" stroke="#8a8f98" stroke-width="3" stroke-linecap="round"/><polyline points="-81,134 -42,127" fill="none" stroke="#8a8f98" stroke-width="5" stroke-linecap="round"/><polyline points="-81,586 -39,584" fill="none" stroke="#8a8f98" stroke-width="3" stroke-linecap="round"/><polyline points="108,443 186,452" fill="none" stroke="#8a8f98" stroke-width="10" stroke-linecap="round"/><polyline points="189,131 202,136" fill="none" stroke="#8a8f98" stroke-width="5" stroke-linecap="round"/><polyline points="164,116 189,131" fill="none" stroke="#8a8f98" stroke-width="5" stroke-linecap="round"/><polyline points="160,114 164,116" fill="none" stroke="#8a8f98" stroke-width="5" stroke-linecap="round"/><polyline points="153,110 160,114" fill="none" stroke="#8a8f98" stroke-width="5" stroke-linecap="round"/><polyline points="246,154 257,160" fill="none" stroke="#8a8f98" stroke-width="5" stroke-linecap="round"/><polyline points="230,146 246,154" fill="none" stroke="#8a8f98" stroke-width="5" stroke-linecap="round"/><polyline points="-8,244 11,225" fill="none" stroke="#8a8f98" stroke-width="5" stroke-linecap="round"/><polyline points="-42,127 -25,124" fill="none" stroke="#8a8f98" stroke-width="5" stroke-linecap="round"/><polyline points="-33,76 29,94 58,99" fill="none" stroke="#8a8f98" stroke-width="3" stroke-linecap="round"/><polyline points="-25,124 19,116 58,99" fill="none" stroke="#8a8f98" stroke-width="5" stroke-linecap="round"/><polyline points="-27,542 -41,497" fill="none" stroke="#8a8f98" stroke-width="3" stroke-linecap="round"/><polyline points="61,159 61,141" fill="none" stroke="#8a8f98" stroke-width="5" stroke-linecap="round"/><polyline points="-30,268 -8,244" fill="none" stroke="#8a8f98" stroke-width="5" stroke-linecap="round"/><polyline points="59,229 60,214 63,209 73,211 74,215 71,220 60,220" fill="none" stroke="#8a8f98" stroke-width="3" stroke-linecap="round"/><polyline points="73,230 91,229 103,224 107,209 106,198" fill="none" stroke="#8a8f98" stroke-width="3" stroke-linecap="round"/><polyline points="-43,281 -33,236 -20,217" fill="none" stroke="#8a8f98" stroke-width="3" stroke-linecap="round"/><polyline points="556,127 522,120 514,114 502,93" fill="none" stroke="#8a8f98" stroke-width="5" stroke-linecap="round"/><polyline points="636,278 614,340 601,366 593,381 554,421" fill="none" stroke="#8a8f98" stroke-width="10" stroke-linecap="round"/><polyline points="647,254 636,278" fill="none" stroke="#8a8f98" stroke-width="10" stroke-linecap="round"/><polyline points="462,245 470,234 480,237" fill="none" stroke="#8a8f98" stroke-width="5" stroke-linecap="round"/><polyline points="637,239 641,221" fill="none" stroke="#8a8f98" stroke-width="10" stroke-linecap="round"/><polyline points="641,221 650,179" fill="none" stroke="#8a8f98" stroke-width="10" stroke-linecap="round"/><polyline points="430,297 436,325 412,330 397,275" fill="none" stroke="#8a8f98" stroke-width="3" stroke-linecap="round"/><polyline points="376,422 373,383" fill="none" stroke="#8a8f98" stroke-width="5" stroke-linecap="round"/><polyline points="353,279 375,271" fill="none" stroke="#8a8f98" stroke-width="5" stroke-linecap="round"/><polyline points="401,190 388,184" fill="none" stroke="#8a8f98" stroke-width="5" stroke-linecap="round"/><polyline points="680,484 623,463" fill="none" stroke="#8a8f98" stroke-width="3" stroke-linecap="round"/><polyline points="328,231 320,215" fill="none" stroke="#8a8f98" stroke-width="5" stroke-linecap="round"/><polyline points="356,287 397,275" fill="none" stroke="#8a8f98" stroke-width="3" stroke-linecap="round"/><polyline points="686,144 706,148" fill="none" stroke="#8a8f98" stroke-width="5" stroke-linecap="round"/><polyline points="763,189 729,191 714,196 688,209 662,231 647,254" fill="none" stroke="#8a8f98" stroke-width="10" stroke-linecap="round"/><polyline points="664,151 659,155 652,154" fill="none" stroke="#8a8f98" stroke-width="5" stroke-linecap="round"/><polyline points="634,263 637,239" fill="none" stroke="#8a8f98" stroke-width="10" stroke-linecap="round"/><polyline points="408,207 420,201 418,185 427,178 451,179 455,187" fill="none" stroke="#8a8f98" stroke-width="3" stroke-linecap="round"/><polyline points="724,478 762,491 771,475" fill="none" stroke="#8a8f98" stroke-width="3" stroke-linecap="round"/><polyline points="470,522 467,506 470,495 477,490 503,483" fill="none" stroke="#8a8f98" stroke-width="3" stroke-linecap="round"/><polyline points="377,468 377,440" fill="none" stroke="#8a8f98" stroke-width="5" stroke-linecap="round"/><polyline points="329,184 319,184 293,164" fill="none" stroke="#8a8f98" stroke-width="3" stroke-linecap="round"/><polyline points="346,467 369,457 373,453 377,440" fill="none" stroke="#8a8f98" stroke-width="10" stroke-linecap="round"/><polyline points="266,460 346,467" fill="none" stroke="#8a8f98" stroke-width="10" stroke-linecap="round"/><polyline points="346,467 377,468" fill="none" stroke="#8a8f98" stroke-width="10" stroke-linecap="round"/><polyline points="361,303 366,319" fill="none" stroke="#8a8f98" stroke-width="5" stroke-linecap="round"/><polyline points="373,383 365,345" fill="none" stroke="#8a8f98" stroke-width="5" stroke-linecap="round"/><polyline points="386,440 388,468" fill="none" stroke="#8a8f98" stroke-width="5" stroke-linecap="round"/><polyline points="462,245 447,250" fill="none" stroke="#8a8f98" stroke-width="5" stroke-linecap="round"/><polyline points="388,478 378,479" fill="none" stroke="#8a8f98" stroke-width="10" stroke-linecap="round"/><polyline points="388,468 388,478" fill="none" stroke="#8a8f98" stroke-width="5" stroke-linecap="round"/><polyline points="328,212 336,228" fill="none" stroke="#8a8f98" stroke-width="5" stroke-linecap="round"/><polyline points="557,433 534,435" fill="none" stroke="#8a8f98" stroke-width="10" stroke-linecap="round"/><polyline points="639,252 658,224 684,202 708,190 728,184 762,181" fill="none" stroke="#8a8f98" stroke-width="10" stroke-linecap="round"/><polyline points="762,181 779,182" fill="none" stroke="#8a8f98" stroke-width="10" stroke-linecap="round"/><polyline points="785,193 782,188" fill="none" stroke="#8a8f98" stroke-width="5" stroke-linecap="round"/><polyline points="813,205 785,193" fill="none" stroke="#8a8f98" stroke-width="10" stroke-linecap="round"/><polyline points="778,191 763,189" fill="none" stroke="#8a8f98" stroke-width="10" stroke-linecap="round"/><polyline points="377,468 388,468" fill="none" stroke="#8a8f98" stroke-width="10" stroke-linecap="round"/><polyline points="378,479 377,468" fill="none" stroke="#8a8f98" stroke-width="5" stroke-linecap="round"/><polyline points="377,440 376,422" fill="none" stroke="#8a8f98" stroke-width="5" stroke-linecap="round"/><polyline points="349,295 348,289" fill="none" stroke="#8a8f98" stroke-width="5" stroke-linecap="round"/><polyline points="356,287 361,303" fill="none" stroke="#8a8f98" stroke-width="5" stroke-linecap="round"/><polyline points="329,184 362,180 379,165" fill="none" stroke="#8a8f98" stroke-width="3" stroke-linecap="round"/><polyline points="320,215 314,208" fill="none" stroke="#8a8f98" stroke-width="5" stroke-linecap="round"/><polyline points="328,212 320,215" fill="none" stroke="#8a8f98" stroke-width="5" stroke-linecap="round"/><polyline points="348,289 345,281" fill="none" stroke="#8a8f98" stroke-width="5" stroke-linecap="round"/><polyline points="353,279 356,287" fill="none" stroke="#8a8f98" stroke-width="5" stroke-linecap="round"/><polyline points="345,281 353,279" fill="none" stroke="#8a8f98" stroke-width="5" stroke-linecap="round"/><polyline points="550,414 564,402 592,370 603,350 615,318" fill="none" stroke="#8a8f98" stroke-width="10" stroke-linecap="round"/><polyline points="534,435 511,450" fill="none" stroke="#8a8f98" stroke-width="10" stroke-linecap="round"/><polyline points="686,144 664,151" fill="none" stroke="#8a8f98" stroke-width="5" stroke-linecap="round"/><polyline points="663,141 686,144" fill="none" stroke="#8a8f98" stroke-width="5" stroke-linecap="round"/><polyline points="648,145 635,137" fill="none" stroke="#8a8f98" stroke-width="5" stroke-linecap="round"/><polyline points="445,456 504,435" fill="none" stroke="#8a8f98" stroke-width="3" stroke-linecap="round"/><polyline points="779,182 770,173" fill="none" stroke="#8a8f98" stroke-width="5" stroke-linecap="round"/><polyline points="781,176 785,184" fill="none" stroke="#8a8f98" stroke-width="5" stroke-linecap="round"/><polyline points="511,495 487,518 470,522" fill="none" stroke="#8a8f98" stroke-width="3" stroke-linecap="round"/><polyline points="284,180 289,182" fill="none" stroke="#8a8f98" stroke-width="5" stroke-linecap="round"/><polyline points="833,216 823,210" fill="none" stroke="#8a8f98" stroke-width="10" stroke-linecap="round"/><polyline points="843,221 833,216" fill="none" stroke="#8a8f98" stroke-width="10" stroke-linecap="round"/><polyline points="345,281 328,231" fill="none" stroke="#8a8f98" stroke-width="5" stroke-linecap="round"/><polyline points="308,222 312,232 307,236 261,253" fill="none" stroke="#8a8f98" stroke-width="3" stroke-linecap="round"/><polyline points="448,474 388,478" fill="none" stroke="#8a8f98" stroke-width="10" stroke-linecap="round"/><polyline points="569,537 551,577" fill="none" stroke="#8a8f98" stroke-width="3" stroke-linecap="round"/><polyline points="538,455 558,457 590,486 589,495 569,537" fill="none" stroke="#8a8f98" stroke-width="3" stroke-linecap="round"/><polyline points="342,205 328,212" fill="none" stroke="#8a8f98" stroke-width="5" stroke-linecap="round"/><polyline points="498,458 448,474" fill="none" stroke="#8a8f98" stroke-width="10" stroke-linecap="round"/><polyline points="554,421 550,423" fill="none" stroke="#8a8f98" stroke-width="10" stroke-linecap="round"/><polyline points="511,450 498,458" fill="none" stroke="#8a8f98" stroke-width="10" stroke-linecap="round"/><polyline points="785,184 812,194" fill="none" stroke="#8a8f98" stroke-width="10" stroke-linecap="round"/><polyline points="447,465 481,455 507,442" fill="none" stroke="#8a8f98" stroke-width="10" stroke-linecap="round"/><polyline points="546,416 550,414" fill="none" stroke="#8a8f98" stroke-width="10" stroke-linecap="round"/><polyline points="388,468 447,465" fill="none" stroke="#8a8f98" stroke-width="10" stroke-linecap="round"/><polyline points="550,423 534,435" fill="none" stroke="#8a8f98" stroke-width="10" stroke-linecap="round"/><polyline points="785,193 778,191" fill="none" stroke="#8a8f98" stroke-width="10" stroke-linecap="round"/><polyline points="785,184 782,188" fill="none" stroke="#8a8f98" stroke-width="5" stroke-linecap="round"/><polyline points="779,182 785,184" fill="none" stroke="#8a8f98" stroke-width="10" stroke-linecap="round"/><polyline points="387,515 387,558" fill="none" stroke="#8a8f98" stroke-width="3" stroke-linecap="round"/><polyline points="782,188 779,182" fill="none" stroke="#8a8f98" stroke-width="5" stroke-linecap="round"/><polyline points="336,228 353,279" fill="none" stroke="#8a8f98" stroke-width="5" stroke-linecap="round"/><polyline points="507,442 531,427" fill="none" stroke="#8a8f98" stroke-width="10" stroke-linecap="round"/><polyline points="812,194 822,199" fill="none" stroke="#8a8f98" stroke-width="10" stroke-linecap="round"/><polyline points="822,199 847,212" fill="none" stroke="#8a8f98" stroke-width="10" stroke-linecap="round"/><polyline points="823,210 813,205" fill="none" stroke="#8a8f98" stroke-width="10" stroke-linecap="round"/><polyline points="782,188 778,191" fill="none" stroke="#8a8f98" stroke-width="5" stroke-linecap="round"/><polyline points="306,563 383,569" fill="none" stroke="#8a8f98" stroke-width="3" stroke-linecap="round"/><polyline points="603,133 556,127" fill="none" stroke="#8a8f98" stroke-width="5" stroke-linecap="round"/><polyline points="635,137 603,133" fill="none" stroke="#8a8f98" stroke-width="5" stroke-linecap="round"/><polyline points="511,495 545,519" fill="none" stroke="#8a8f98" stroke-width="3" stroke-linecap="round"/><polyline points="762,169 770,173" fill="none" stroke="#8a8f98" stroke-width="5" stroke-linecap="round"/><polyline points="725,153 762,169" fill="none" stroke="#8a8f98" stroke-width="5" stroke-linecap="round"/><polyline points="635,137 652,140" fill="none" stroke="#8a8f98" stroke-width="5" stroke-linecap="round"/><polyline points="715,403 688,465" fill="none" stroke="#8a8f98" stroke-width="3" stroke-linecap="round"/><polyline points="771,475 730,462" fill="none" stroke="#8a8f98" stroke-width="3" stroke-linecap="round"/><polyline points="531,427 546,416" fill="none" stroke="#8a8f98" stroke-width="10" stroke-linecap="round"/><polyline points="634,263 639,252" fill="none" stroke="#8a8f98" stroke-width="10" stroke-linecap="round"/><polyline points="629,275 634,263" fill="none" stroke="#8a8f98" stroke-width="10" stroke-linecap="round"/><polyline points="615,318 629,275" fill="none" stroke="#8a8f98" stroke-width="10" stroke-linecap="round"/><polyline points="378,479 307,476 259,471" fill="none" stroke="#8a8f98" stroke-width="10" stroke-linecap="round"/><polyline points="384,420 386,440" fill="none" stroke="#8a8f98" stroke-width="5" stroke-linecap="round"/><polyline points="383,398 384,420" fill="none" stroke="#8a8f98" stroke-width="5" stroke-linecap="round"/><polyline points="381,375 383,398" fill="none" stroke="#8a8f98" stroke-width="5" stroke-linecap="round"/><polyline points="412,533 413,493" fill="none" stroke="#8a8f98" stroke-width="3" stroke-linecap="round"/><polyline points="358,322 349,295" fill="none" stroke="#8a8f98" stroke-width="5" stroke-linecap="round"/><polyline points="365,345 358,322" fill="none" stroke="#8a8f98" stroke-width="5" stroke-linecap="round"/><polyline points="309,196 318,202" fill="none" stroke="#8a8f98" stroke-width="5" stroke-linecap="round"/><polyline points="314,208 310,205" fill="none" stroke="#8a8f98" stroke-width="5" stroke-linecap="round"/><polyline points="310,205 286,185" fill="none" stroke="#8a8f98" stroke-width="5" stroke-linecap="round"/><polyline points="318,202 328,212" fill="none" stroke="#8a8f98" stroke-width="5" stroke-linecap="round"/><polyline points="366,319 381,375" fill="none" stroke="#8a8f98" stroke-width="5" stroke-linecap="round"/><polyline points="770,173 781,176" fill="none" stroke="#8a8f98" stroke-width="5" stroke-linecap="round"/><polyline points="706,148 725,153" fill="none" stroke="#8a8f98" stroke-width="5" stroke-linecap="round"/><polyline points="650,179 652,154" fill="none" stroke="#8a8f98" stroke-width="10" stroke-linecap="round"/><polyline points="357,197 342,205" fill="none" stroke="#8a8f98" stroke-width="5" stroke-linecap="round"/><polyline points="388,184 357,197" fill="none" stroke="#8a8f98" stroke-width="5" stroke-linecap="round"/><polyline points="407,202 401,190" fill="none" stroke="#8a8f98" stroke-width="5" stroke-linecap="round"/><polyline points="411,217 408,207" fill="none" stroke="#8a8f98" stroke-width="5" stroke-linecap="round"/><polyline points="414,230 411,217" fill="none" stroke="#8a8f98" stroke-width="5" stroke-linecap="round"/><polyline points="435,254 419,244" fill="none" stroke="#8a8f98" stroke-width="5" stroke-linecap="round"/><polyline points="390,266 412,259" fill="none" stroke="#8a8f98" stroke-width="5" stroke-linecap="round"/><polyline points="375,271 390,266" fill="none" stroke="#8a8f98" stroke-width="5" stroke-linecap="round"/><polyline points="337,450 335,391 307,285" fill="none" stroke="#8a8f98" stroke-width="3" stroke-linecap="round"/><polyline points="630,444 688,465" fill="none" stroke="#8a8f98" stroke-width="3" stroke-linecap="round"/><polyline points="412,548 459,546" fill="none" stroke="#8a8f98" stroke-width="3" stroke-linecap="round"/><polyline points="419,244 414,230" fill="none" stroke="#8a8f98" stroke-width="5" stroke-linecap="round"/><polyline points="412,259 419,244" fill="none" stroke="#8a8f98" stroke-width="5" stroke-linecap="round"/><polyline points="447,250 435,254" fill="none" stroke="#8a8f98" stroke-width="5" stroke-linecap="round"/><polyline points="412,259 435,254" fill="none" stroke="#8a8f98" stroke-width="5" stroke-linecap="round"/><polyline points="408,207 407,202" fill="none" stroke="#8a8f98" stroke-width="5" stroke-linecap="round"/><polyline points="286,185 284,180" fill="none" stroke="#8a8f98" stroke-width="5" stroke-linecap="round"/><polyline points="289,182 309,196" fill="none" stroke="#8a8f98" stroke-width="5" stroke-linecap="round"/><polyline points="266,169 284,180" fill="none" stroke="#8a8f98" stroke-width="5" stroke-linecap="round"/><polyline points="652,140 658,138 663,141" fill="none" stroke="#8a8f98" stroke-width="5" stroke-linecap="round"/><polyline points="663,141 664,151" fill="none" stroke="#8a8f98" stroke-width="5" stroke-linecap="round"/><polyline points="652,154 648,145" fill="none" stroke="#8a8f98" stroke-width="5" stroke-linecap="round"/><polyline points="648,145 652,140" fill="none" stroke="#8a8f98" stroke-width="5" stroke-linecap="round"/><polyline points="438,300 441,312 476,301 472,290 438,300" fill="none" stroke="#8a8f98" stroke-width="3" stroke-linecap="round"/><polyline points="746,508 734,535 714,528 720,517 739,525" fill="none" stroke="#8a8f98" stroke-width="3" stroke-linecap="round"/><polyline points="446,345 452,346 492,334 498,351 405,379 399,360 446,345" fill="none" stroke="#8a8f98" stroke-width="3" stroke-linecap="round"/><polyline points="531,314 548,311 577,325 611,332" fill="none" stroke="#8a8f98" stroke-width="3" stroke-linecap="round"/><polyline points="397,275 421,268 430,297" fill="none" stroke="#8a8f98" stroke-width="3" stroke-linecap="round"/><polyline points="894,568 934,587 957,611 967,642 974,714" fill="none" stroke="#8a8f98" stroke-width="3" stroke-linecap="round"/><polyline points="957,611 964,604 979,568" fill="none" stroke="#8a8f98" stroke-width="3" stroke-linecap="round"/><polyline points="894,568 934,470" fill="none" stroke="#8a8f98" stroke-width="3" stroke-linecap="round"/><polyline points="1025,264 960,258" fill="none" stroke="#8a8f98" stroke-width="10" stroke-linecap="round"/><polyline points="963,249 1028,256" fill="none" stroke="#8a8f98" stroke-width="10" stroke-linecap="round"/><polyline points="957,333 947,358 941,364 931,367 898,360 899,347" fill="none" stroke="#8a8f98" stroke-width="3" stroke-linecap="round"/><polyline points="957,333 883,302" fill="none" stroke="#8a8f98" stroke-width="3" stroke-linecap="round"/><polyline points="955,425 971,388" fill="none" stroke="#8a8f98" stroke-width="3" stroke-linecap="round"/><polyline points="934,470 955,425" fill="none" stroke="#8a8f98" stroke-width="3" stroke-linecap="round"/><polygon points="238,173 307,224 303,229 269,235 268,243 243,249 229,182 238,173" fill="#c8c2b8" stroke="#00000033"/><polygon points="427,266 462,256 472,290 457,295 460,306 476,301 486,336 452,346 441,312 454,308 451,297 438,300 427,266" fill="#ef8354" stroke="#00000033"/><polygon points="37,204 71,201 71,184 80,184 83,217 98,217 98,195 105,195 105,164 37,165 37,204" fill="#c8c2b8" stroke="#00000033"/><polygon points="304,265 339,379 340,443 354,442 351,373 316,260 304,265" fill="#c8c2b8" stroke="#00000033"/><polygon points="418,489 454,488 455,508 462,507 463,524 456,524 456,536 420,538 418,489" fill="#c8c2b8" stroke="#00000033"/><polygon points="-33,213 -39,212 -39,209 -70,203 -80,254 -46,260 -33,213" fill="#c8c2b8" stroke="#00000033"/><polygon points="316,178 312,148 357,143 378,163 373,168 365,169 365,175 318,180 316,178" fill="#c8c2b8" stroke="#00000033"/><polygon points="513,558 538,528 536,526 540,521 522,506 518,510 514,507 512,510 507,506 487,529 494,535 490,539 513,558" fill="#c8c2b8" stroke="#00000033"/><polygon points="664,270 682,276 674,297 711,310 703,331 681,323 683,315 670,310 668,315 650,308 654,298 649,296 652,288 657,290 664,270" fill="#c8c2b8" stroke="#00000033"/><polygon points="390,292 406,342 442,331 446,345 397,361 376,296 390,292" fill="#c8c2b8" stroke="#00000033"/><polygon points="552,461 585,489 561,516 529,487 552,461" fill="#c8c2b8" stroke="#00000033"/><polygon points="263,111 224,99 220,107 222,108 221,111 257,123 255,129 272,135 274,130 281,133 280,137 286,139 288,135 294,137 296,153 308,152 306,132 304,132 305,127 302,119 297,122 290,117 281,117 279,111 272,115 275,120 271,124 260,120 263,111" fill="#c8c2b8" stroke="#00000033"/><polygon points="413,455 412,381 420,378 423,386 489,365 485,353 405,379 406,455 413,455" fill="#c8c2b8" stroke="#00000033"/><polygon points="84,121 113,121 113,127 124,127 124,148 115,148 115,154 106,154 106,158 84,158 84,121" fill="#c8c2b8" stroke="#00000033"/><polygon points="-113,590 -49,587 -48,607 -112,610 -113,590" fill="#c8c2b8" stroke="#00000033"/><polygon points="497,433 448,449 443,433 493,418 497,433" fill="#c8c2b8" stroke="#00000033"/><polygon points="485,269 502,264 510,268 511,261 529,255 524,240 520,241 513,237 509,246 481,254 485,269" fill="#c8c2b8" stroke="#00000033"/><polygon points="150,65 145,74 151,77 159,76 161,84 165,84 164,76 170,75 176,66 178,67 188,51 174,42 164,56 168,58 164,65 150,65" fill="#c8c2b8" stroke="#00000033"/><polygon points="343,498 291,498 291,486 343,486 343,498" fill="#c8c2b8" stroke="#00000033"/><polygon points="577,140 615,144 613,158 576,155 577,140" fill="#c8c2b8" stroke="#00000033"/><polygon points="476,624 500,643 490,656 466,637 476,624" fill="#c8c2b8" stroke="#00000033"/><polygon points="-17,550 0,550 0,578 -17,578 -17,550" fill="#c8c2b8" stroke="#00000033"/><polygon points="-11,595 9,615 -2,627 -22,607 -11,595" fill="#c8c2b8" stroke="#00000033"/><polygon points="179,94 214,106 213,118 173,104 179,94" fill="#c8c2b8" stroke="#00000033"/><polygon points="-64,317 -58,309 -24,337 -31,345 -64,317" fill="#c8c2b8" stroke="#00000033"/><polygon points="-5,131 9,128 12,150 10,159 -4,156 -5,131" fill="#c8c2b8" stroke="#00000033"/><polygon points="343,482 354,482 354,487 369,487 369,501 344,502 343,482" fill="#c8c2b8" stroke="#00000033"/><polygon points="466,653 459,649 464,642 448,630 452,625 446,621 434,638 439,643 441,640 463,656 466,653" fill="#c8c2b8" stroke="#00000033"/><polygon points="-93,508 -50,506 -49,516 -93,517 -93,508" fill="#c8c2b8" stroke="#00000033"/><polygon points="-7,509 11,528 0,539 -18,519 -7,509" fill="#c8c2b8" stroke="#00000033"/><polygon points="-89,540 -39,540 -39,548 -89,548 -89,540" fill="#c8c2b8" stroke="#00000033"/><polygon points="441,593 430,590 431,587 405,579 402,590 439,601 441,593" fill="#c8c2b8" stroke="#00000033"/><polygon points="57,325 93,299 88,292 52,317 57,325" fill="#c8c2b8" stroke="#00000033"/><polygon points="-6,337 39,331 38,323 -7,328 -6,337" fill="#c8c2b8" stroke="#00000033"/><polygon points="-16,181 -3,163 10,167 0,186 -6,192 -16,181" fill="#c8c2b8" stroke="#00000033"/><polygon points="477,609 510,634 504,641 472,617 477,609" fill="#c8c2b8" stroke="#00000033"/><polygon points="107,365 143,341 138,334 102,358 107,365" fill="#c8c2b8" stroke="#00000033"/><polygon points="489,581 498,570 479,553 470,564 489,581" fill="#c8c2b8" stroke="#00000033"/><polygon points="82,368 85,375 42,389 40,381 82,368" fill="#c8c2b8" stroke="#00000033"/><polygon points="105,69 128,58 134,70 111,81 105,69" fill="#c8c2b8" stroke="#00000033"/><polygon points="561,454 566,448 598,474 593,481 561,454" fill="#c8c2b8" stroke="#00000033"/><polygon points="-17,370 22,376 21,384 -18,379 -17,370" fill="#c8c2b8" stroke="#00000033"/><polygon points="-44,181 -27,185 -18,183 -15,193 -34,196 -48,191 -44,181" fill="#c8c2b8" stroke="#00000033"/><polygon points="49,63 73,69 69,82 46,76 49,63" fill="#c8c2b8" stroke="#00000033"/><polygon points="24,54 46,60 42,73 20,67 24,54" fill="#c8c2b8" stroke="#00000033"/><polygon points="317,534 340,534 340,540 333,540 333,551 318,551 317,534" fill="#c8c2b8" stroke="#00000033"/><polygon points="280,537 308,536 308,546 289,546 289,550 280,550 280,537" fill="#c8c2b8" stroke="#00000033"/><polygon points="466,583 496,601 492,609 462,590 466,583" fill="#c8c2b8" stroke="#00000033"/><polygon points="-93,521 -48,520 -48,527 -93,527 -93,521" fill="#c8c2b8" stroke="#00000033"/><polygon points="275,527 248,501 243,506 269,533 275,527" fill="#c8c2b8" stroke="#00000033"/><polygon points="403,177 400,174 403,171 393,161 400,154 419,172 412,179 406,174 403,177" fill="#c8c2b8" stroke="#00000033"/><polygon points="554,145 567,146 565,157 553,156 554,149 543,148 542,154 530,153 531,144 554,147 554,145" fill="#c8c2b8" stroke="#00000033"/><polyline points="184,462 307,476 388,478 388,468 442,466 481,455 531,427 577,388 603,350 634,263 652,154 648,145 635,137 529,122 514,114 502,93" fill="none" stroke="#ffdd44" stroke-width="6" opacity="0.85"/><circle cx="184" cy="462" r="10" fill="#a0f"/><circle cx="502" cy="93" r="10" fill="#f00"/><path d="M90.79699248183567,645.1127819548819 L106.79699248183567,645.1127819548819 M98.79699248183567,637.1127819548819 L98.79699248183567,653.1127819548819" stroke="#0ff" stroke-width="2"/><path d="M433.6541353389785,112.78195488721488 L449.6541353389785,112.78195488721488 M441.6541353389785,104.78195488721488 L441.6541353389785,120.78195488721488" stroke="#0ff" stroke-width="2"/><rect x="197" y="504" width="22" height="16" fill="#b8c2cc" stroke="#333"/><rect x="197" y="408" width="22" height="16" fill="#b8c2cc" stroke="#333"/><rect x="269" y="420" width="22" height="16" fill="#b8c2cc" stroke="#333"/><rect x="353" y="516" width="22" height="16" fill="#b8c2cc" stroke="#333"/><rect x="401" y="552" width="22" height="16" fill="#b8c2cc" stroke="#333"/><rect x="425" y="396" width="22" height="16" fill="#b8c2cc" stroke="#333"/><rect x="473" y="492" width="22" height="16" fill="#b8c2cc" stroke="#333"/><rect x="485" y="384" width="22" height="16" fill="#b8c2cc" stroke="#333"/><rect x="581" y="432" width="22" height="16" fill="#b8c2cc" stroke="#333"/><rect x="533" y="348" width="22" height="16" fill="#b8c2cc" stroke="#333"/><rect x="617" y="384" width="22" height="16" fill="#b8c2cc" stroke="#333"/><rect x="557" y="288" width="22" height="16" fill="#b8c2cc" stroke="#333"/><rect x="653" y="336" width="22" height="16" fill="#b8c2cc" stroke="#333"/><rect x="701" y="276" width="22" height="16" fill="#b8c2cc" stroke="#333"/><rect x="497" y="300" width="22" height="16" fill="#b8c2cc" stroke="#333"/><rect x="689" y="384" width="22" height="16" fill="#b8c2cc" stroke="#333"/><rect x="485" y="216" width="22" height="16" fill="#b8c2cc" stroke="#333"/><rect x="689" y="120" width="22" height="16" fill="#b8c2cc" stroke="#333"/><circle cx="480" cy="31" r="6" fill="#e8862a" stroke="#333"/><circle cx="522" cy="337" r="6" fill="#e8862a" stroke="#333"/><circle cx="937" cy="220" r="6" fill="#e8862a" stroke="#333"/><text x="454" y="298" font-size="13" fill="#fff" text-anchor="middle" stroke="#000" stroke-width="0.4">Hawker Centre</text><text x="469" y="59" font-size="13" fill="#fff" text-anchor="middle" stroke="#000" stroke-width="0.4">Changi Pt Jetty</text><text x="480" y="20" font-size="16" fill="#fff" text-anchor="middle">10: Changi Village</text></svg>