<svg xmlns="http://www.w3.org/2000/svg" width="960" height="600" viewBox="0 0 960 600"><rect width="960" height="600" fill="#6aa03c"/><polygon points="498,509 507,510 541,573 546,573 542,565 549,562 553,570 561,566 565,560 570,466 552,433 524,425 496,440 468,462 411,440 375,443 367,446 338,472 328,482 323,500 324,512 334,528 445,623 452,620 466,564 498,509" fill="#4c8a2c" opacity="0.7"/><polygon points="951,599 951,704 957,708 1039,694 1127,693 1137,690 1152,599 951,599" fill="#4c8a2c" opacity="0.7"/><polygon points="950,536 980,531 981,520 1029,504 1060,478 1076,470 1096,466 1095,524 1084,525 1082,597 951,599 950,536" fill="#4c8a2c" opacity="0.7"/><polygon points="676,-171 664,-164 650,-165 643,-171 633,-160 629,-164 622,-146 626,-142 631,-146 637,-144 639,-130 627,-127 623,-111 632,-111 677,-139 700,-145 717,-156 772,-168 790,-117 789,-94 785,-81 774,-64 778,-43 777,-33 768,-39 764,-13 781,128 793,28 790,19 795,13 795,4 791,0 791,-21 797,-33 803,-58 801,-105 793,-135 780,-164 752,-208 742,-207 676,-171" fill="#4c8a2c" opacity="0.7"/><polygon points="949,121 942,128 953,148 970,135 984,130 991,132 1003,152 1013,155 1034,145 1045,132 1047,106 1026,93 1016,79 1015,66 985,41 940,65 932,89 949,121" fill="#4c8a2c" opacity="0.7"/><polygon points="853,598 860,607 865,625 880,643 896,680 854,693 858,728 869,742 866,748 867,769 859,771 853,765 843,765 834,777 820,778 821,749 818,735 828,666 846,654 853,598" fill="#4c8a2c" opacity="0.7"/><polygon points="951,704 946,701 917,625 905,586 900,521 909,517 949,517 951,704" fill="#4c8a2c" opacity="0.7"/><polygon points="869,584 885,583 905,662 905,675 909,682 861,697 872,740 919,726 920,729 872,743 859,728 855,694 897,680 881,643 866,625 854,582 869,579 869,584" fill="#4c8a2c" opacity="0.7"/><polygon points="621,291 629,308 655,335 674,424 678,516 666,700 667,738 681,763 717,780 762,837 830,1014" fill="#2e7bb4"/><polygon points="-1100,-176 -1099,-258 -1040,-216 -1027,-216 -1009,-199 -1004,-187 -995,-180 -902,-138 -886,-106 -809,-33 -797,-32 -787,-36 -770,-53 -759,-85 -754,-137 -760,-171 -766,-187 -765,-202 -754,-237 -753,-263 -737,-268 -735,-253 -729,-241 -733,-217 -725,-182 -714,-164 -709,-146 -692,-130 -680,-108 -675,-76 -676,-58 -671,-40 -656,-24 -631,-6 -597,-3 -565,13 -525,24 -470,24 -428,10 -414,-9 -401,-39 -393,-89 -391,-166 -399,-202 -412,-234 -409,-242 -395,-231 -391,-213 -348,-92 -315,-70 -272,-97 -258,-96 -235,-64 -227,-58 -189,-47 -125,-45 -106,-52 -81,-76 -52,-135 -35,-139 -36,-122 -47,-104 -41,-84 -29,-61 -19,-57 1,-56 6,-51 29,-18 39,-12 84,7 121,9 148,-2 165,-2 175,-10 186,-36 187,-49 181,-120 172,-160 153,-209 142,-227 120,-246 96,-256 82,-265 63,-253 55,-258 15,-245 -4,-243 -35,-252 -63,-253 -42,-264 -19,-258 8,-266 50,-285 58,-304 57,-313 31,-348 10,-389 11,-395 46,-362 74,-346 81,-337 97,-335 112,-340 116,-346 120,-367 122,-414 125,-417 130,-416 144,-379 157,-366 169,-363 199,-380 205,-388 216,-422 223,-416 233,-379 251,-366 269,-363 278,-351 277,-348 258,-353 218,-349 192,-328 181,-298 186,-258 221,-194 236,-179 246,-176 255,-176 288,-199 274,-172 254,-155 245,-119 246,-100 255,-60 271,-28 285,-10 300,-6 315,-10 347,-29 378,3 389,9 416,10 430,3 454,-42 460,-65 460,-118 445,-153 423,-170 400,-220 393,-238 395,-241 406,-234 432,-184 445,-172 469,-136 494,-78 513,-47 523,-41 534,-39 578,-42 618,-27 658,-26 666,-29 660,-19 603,-2 586,8 562,24 550,39 547,46 549,58 579,89 602,128 473,210 434,209 426,212 422,210 421,203 416,204 418,210 370,221 364,246 363,267 354,275 330,285 314,267 318,227 316,207 310,182 301,174 260,168 230,157 209,163 200,159 173,165 170,176 173,181 170,186 169,220 176,250 153,215 121,186 73,152 55,143 18,139 1,120 -101,68 -154,65 -190,68 -210,76 -229,92 -243,114 -251,147 -257,130 -271,108 -284,101 -300,96 -343,100 -417,123 -435,126 -479,146 -490,163 -494,175 -489,203 -466,232 -475,245 -482,242 -501,241 -513,257 -513,262 -490,294 -497,303 -535,298 -556,307 -572,328 -580,344 -582,360 -593,383 -620,416 -653,435 -683,478 -692,484 -682,457 -639,403 -612,364 -606,329 -598,316 -570,249 -567,209 -575,179 -587,154 -607,143 -668,131 -707,125 -727,125 -743,128 -757,135 -781,159 -811,182 -835,220 -849,225 -853,224 -858,182 -833,143 -820,112 -821,100 -827,85 -841,72 -852,67 -858,60 -872,56 -916,56 -941,61 -958,60 -987,49 -991,-3 -977,-11 -971,-19 -967,-34 -967,-42 -978,-69 -1009,-112 -1020,-119 -1035,-135 -1072,-158 -1085,-173 -1100,-176" fill="#2e7bb4"/><polyline points="330,346 332,364 339,381 364,422" fill="none" stroke="#8a8f98" stroke-width="5" stroke-linecap="round"/><polyline points="51,482 164,535 187,548 239,585 249,602 248,613 243,623 236,627 199,624 188,634 187,656" fill="none" stroke="#8a8f98" stroke-width="3" stroke-linecap="round"/><polyline points="670,506 644,506 638,510 596,596 578,620 568,625 559,625 547,617 543,606 538,579" fill="none" stroke="#8a8f98" stroke-width="5" stroke-linecap="round"/><polyline points="-46,441 -2,411 42,393 62,393 110,413 167,454 210,467" fill="none" stroke="#8a8f98" stroke-width="3" stroke-linecap="round"/><polyline points="48,360 102,342 156,328 210,321" fill="none" stroke="#8a8f98" stroke-width="13" stroke-linecap="round"/><polyline points="269,340 239,349 203,365 183,372 160,371 141,363" fill="none" stroke="#8a8f98" stroke-width="8" stroke-linecap="round"/><polyline points="490,348 472,354 437,358" fill="none" stroke="#8a8f98" stroke-width="10" stroke-linecap="round"/><polyline points="437,358 410,358 374,352" fill="none" stroke="#8a8f98" stroke-width="10" stroke-linecap="round"/><polyline points="490,348 488,367" fill="none" stroke="#8a8f98" stroke-width="5" stroke-linecap="round"/><polyline points="141,363 96,330" fill="none" stroke="#8a8f98" stroke-width="8" stroke-linecap="round"/><polyline points="159,343 109,356 55,375" fill="none" stroke="#8a8f98" stroke-width="13" stroke-linecap="round"/><polyline points="56,494 61,509 63,529 43,653" fill="none" stroke="#8a8f98" stroke-width="3" stroke-linecap="round"/><polyline points="-138,432 -87,376 -71,368 11,368 33,376 42,393" fill="none" stroke="#8a8f98" stroke-width="3" stroke-linecap="round"/><polyline points="23,387 -41,418 -73,437 -330,608" fill="none" stroke="#8a8f98" stroke-width="13" stroke-linecap="round"/><polyline points="-337,593 -80,423 -18,388 48,360" fill="none" stroke="#8a8f98" stroke-width="13" stroke-linecap="round"/><polyline points="-46,441 12,461 42,476" fill="none" stroke="#8a8f98" stroke-width="3" stroke-linecap="round"/><polyline points="55,375 23,387" fill="none" stroke="#8a8f98" stroke-width="13" stroke-linecap="round"/><polyline points="536,425 557,433 571,458 573,467 568,560 558,571 538,579" fill="none" stroke="#8a8f98" stroke-width="5" stroke-linecap="round"/><polyline points="506,515 498,517 473,558" fill="none" stroke="#8a8f98" stroke-width="5" stroke-linecap="round"/><polyline points="438,446 417,438 397,438" fill="none" stroke="#8a8f98" stroke-width="5" stroke-linecap="round"/><polyline points="430,389 383,366 369,362" fill="none" stroke="#8a8f98" stroke-width="5" stroke-linecap="round"/><polyline points="340,439 325,424 305,418" fill="none" stroke="#8a8f98" stroke-width="5" stroke-linecap="round"/><polyline points="302,435 285,480" fill="none" stroke="#8a8f98" stroke-width="5" stroke-linecap="round"/><polyline points="285,480 266,471" fill="none" stroke="#8a8f98" stroke-width="5" stroke-linecap="round"/><polyline points="272,513 255,511" fill="none" stroke="#8a8f98" stroke-width="5" stroke-linecap="round"/><polyline points="324,482 320,492 320,511 329,530" fill="none" stroke="#8a8f98" stroke-width="5" stroke-linecap="round"/><polyline points="538,579 533,567" fill="none" stroke="#8a8f98" stroke-width="5" stroke-linecap="round"/><polyline points="473,558 498,590" fill="none" stroke="#8a8f98" stroke-width="5" stroke-linecap="round"/><polyline points="302,435 275,425" fill="none" stroke="#8a8f98" stroke-width="5" stroke-linecap="round"/><polyline points="370,439 352,453" fill="none" stroke="#8a8f98" stroke-width="5" stroke-linecap="round"/><polyline points="473,558 453,632" fill="none" stroke="#8a8f98" stroke-width="5" stroke-linecap="round"/><polyline points="533,567 506,515" fill="none" stroke="#8a8f98" stroke-width="5" stroke-linecap="round"/><polyline points="472,453 518,424 526,423 536,425" fill="none" stroke="#8a8f98" stroke-width="5" stroke-linecap="round"/><polyline points="472,453 465,454" fill="none" stroke="#8a8f98" stroke-width="5" stroke-linecap="round"/><polyline points="374,439 370,439" fill="none" stroke="#8a8f98" stroke-width="5" stroke-linecap="round"/><polyline points="465,454 438,446" fill="none" stroke="#8a8f98" stroke-width="5" stroke-linecap="round"/><polyline points="488,367 475,385 462,392" fill="none" stroke="#8a8f98" stroke-width="5" stroke-linecap="round"/><polyline points="462,392 443,394 430,389" fill="none" stroke="#8a8f98" stroke-width="5" stroke-linecap="round"/><polyline points="269,527 270,546" fill="none" stroke="#8a8f98" stroke-width="5" stroke-linecap="round"/><polyline points="285,480 272,513" fill="none" stroke="#8a8f98" stroke-width="5" stroke-linecap="round"/><polyline points="302,395 306,401 305,418" fill="none" stroke="#8a8f98" stroke-width="5" stroke-linecap="round"/><polyline points="352,453 340,439" fill="none" stroke="#8a8f98" stroke-width="5" stroke-linecap="round"/><polyline points="305,418 302,435" fill="none" stroke="#8a8f98" stroke-width="5" stroke-linecap="round"/><polyline points="476,400 526,383" fill="none" stroke="#8a8f98" stroke-width="3" stroke-linecap="round"/><polyline points="364,422 370,439" fill="none" stroke="#8a8f98" stroke-width="5" stroke-linecap="round"/><polyline points="397,438 374,439" fill="none" stroke="#8a8f98" stroke-width="5" stroke-linecap="round"/><polyline points="329,530 423,613 453,632" fill="none" stroke="#8a8f98" stroke-width="5" stroke-linecap="round"/><polyline points="352,453 324,482" fill="none" stroke="#8a8f98" stroke-width="5" stroke-linecap="round"/><polyline points="348,575 332,562" fill="none" stroke="#8a8f98" stroke-width="5" stroke-linecap="round"/><polyline points="361,558 338,588" fill="none" stroke="#8a8f98" stroke-width="5" stroke-linecap="round"/><polyline points="255,511 243,502" fill="none" stroke="#8a8f98" stroke-width="5" stroke-linecap="round"/><polyline points="272,513 269,527" fill="none" stroke="#8a8f98" stroke-width="5" stroke-linecap="round"/><polyline points="-240,312 -179,293 -126,284 -82,284 61,292" fill="none" stroke="#8a8f98" stroke-width="8" stroke-linecap="round"/><polyline points="96,330 78,317 52,304 30,296 9,294" fill="none" stroke="#8a8f98" stroke-width="8" stroke-linecap="round"/><polyline points="9,294 -103,288 -159,294" fill="none" stroke="#8a8f98" stroke-width="8" stroke-linecap="round"/><polyline points="308,325 364,334" fill="none" stroke="#8a8f98" stroke-width="13" stroke-linecap="round"/><polyline points="308,325 354,329" fill="none" stroke="#8a8f98" stroke-width="10" stroke-linecap="round"/><polyline points="314,300 442,297 528,241" fill="none" stroke="#8a8f98" stroke-width="3" stroke-linecap="round"/><polyline points="570,293 555,302 529,329 514,339 490,348" fill="none" stroke="#8a8f98" stroke-width="10" stroke-linecap="round"/><polyline points="368,344 339,341" fill="none" stroke="#8a8f98" stroke-width="13" stroke-linecap="round"/><polyline points="556,244 550,253 545,252 541,247 546,238 554,240 556,244" fill="none" stroke="#8a8f98" stroke-width="3" stroke-linecap="round"/><polyline points="550,283 555,291 555,302" fill="none" stroke="#8a8f98" stroke-width="10" stroke-linecap="round"/><polyline points="370,334 389,336" fill="none" stroke="#8a8f98" stroke-width="13" stroke-linecap="round"/><polyline points="524,263 459,299 458,303 463,306" fill="none" stroke="#8a8f98" stroke-width="3" stroke-linecap="round"/><polyline points="570,293 560,277" fill="none" stroke="#8a8f98" stroke-width="10" stroke-linecap="round"/><polyline points="463,306 502,291" fill="none" stroke="#8a8f98" stroke-width="3" stroke-linecap="round"/><polyline points="354,329 382,331" fill="none" stroke="#8a8f98" stroke-width="10" stroke-linecap="round"/><polyline points="497,312 550,283" fill="none" stroke="#8a8f98" stroke-width="10" stroke-linecap="round"/><polyline points="364,334 370,334" fill="none" stroke="#8a8f98" stroke-width="13" stroke-linecap="round"/><polyline points="339,341 292,335" fill="none" stroke="#8a8f98" stroke-width="13" stroke-linecap="round"/><polyline points="374,352 350,348" fill="none" stroke="#8a8f98" stroke-width="10" stroke-linecap="round"/><polyline points="350,348 330,346" fill="none" stroke="#8a8f98" stroke-width="10" stroke-linecap="round"/><polyline points="187,338 159,343" fill="none" stroke="#8a8f98" stroke-width="13" stroke-linecap="round"/><polyline points="389,347 368,344" fill="none" stroke="#8a8f98" stroke-width="13" stroke-linecap="round"/><polyline points="389,336 413,337 444,335 475,329" fill="none" stroke="#8a8f98" stroke-width="13" stroke-linecap="round"/><polyline points="292,335 258,333" fill="none" stroke="#8a8f98" stroke-width="13" stroke-linecap="round"/><polyline points="539,301 559,285" fill="none" stroke="#8a8f98" stroke-width="13" stroke-linecap="round"/><polyline points="258,333 244,333" fill="none" stroke="#8a8f98" stroke-width="13" stroke-linecap="round"/><polyline points="480,338 439,346 389,347" fill="none" stroke="#8a8f98" stroke-width="13" stroke-linecap="round"/><polyline points="581,286 570,293" fill="none" stroke="#8a8f98" stroke-width="10" stroke-linecap="round"/><polyline points="473,320 497,312" fill="none" stroke="#8a8f98" stroke-width="10" stroke-linecap="round"/><polyline points="550,283 560,277" fill="none" stroke="#8a8f98" stroke-width="10" stroke-linecap="round"/><polyline points="446,328 473,320" fill="none" stroke="#8a8f98" stroke-width="10" stroke-linecap="round"/><polyline points="382,331 412,331 446,328" fill="none" stroke="#8a8f98" stroke-width="10" stroke-linecap="round"/><polyline points="269,340 212,341 187,338" fill="none" stroke="#8a8f98" stroke-width="10" stroke-linecap="round"/><polyline points="286,323 308,325" fill="none" stroke="#8a8f98" stroke-width="13" stroke-linecap="round"/><polyline points="252,320 286,323" fill="none" stroke="#8a8f98" stroke-width="13" stroke-linecap="round"/><polyline points="330,346 269,340" fill="none" stroke="#8a8f98" stroke-width="10" stroke-linecap="round"/><polyline points="530,305 539,301" fill="none" stroke="#8a8f98" stroke-width="13" stroke-linecap="round"/><polyline points="210,321 252,320" fill="none" stroke="#8a8f98" stroke-width="13" stroke-linecap="round"/><polyline points="244,333 187,338" fill="none" stroke="#8a8f98" stroke-width="13" stroke-linecap="round"/><polyline points="475,329 496,322 530,305" fill="none" stroke="#8a8f98" stroke-width="13" stroke-linecap="round"/><polyline points="314,300 288,306 254,302 247,308 252,320" fill="none" stroke="#8a8f98" stroke-width="3" stroke-linecap="round"/><polyline points="587,295 556,316" fill="none" stroke="#8a8f98" stroke-width="5" stroke-linecap="round"/><polyline points="670,239 610,270 524,322 500,333 480,338" fill="none" stroke="#8a8f98" stroke-width="13" stroke-linecap="round"/><polyline points="539,301 549,299 650,238" fill="none" stroke="#8a8f98" stroke-width="13" stroke-linecap="round"/><polyline points="560,277 583,262" fill="none" stroke="#8a8f98" stroke-width="10" stroke-linecap="round"/><polyline points="579,206 582,216 567,250" fill="none" stroke="#8a8f98" stroke-width="3" stroke-linecap="round"/><polyline points="559,285 646,232" fill="none" stroke="#8a8f98" stroke-width="13" stroke-linecap="round"/><polyline points="581,286 587,295" fill="none" stroke="#8a8f98" stroke-width="5" stroke-linecap="round"/><polyline points="594,278 581,286" fill="none" stroke="#8a8f98" stroke-width="10" stroke-linecap="round"/><polyline points="61,292 89,300 123,317 138,322 210,321" fill="none" stroke="#8a8f98" stroke-width="8" stroke-linecap="round"/><polyline points="755,409 775,390 853,331" fill="none" stroke="#8a8f98" stroke-width="10" stroke-linecap="round"/><polyline points="702,355 699,363 695,364 689,361" fill="none" stroke="#8a8f98" stroke-width="10" stroke-linecap="round"/><polyline points="1067,229 1081,243 1098,340 1090,347 1009,390 968,389 952,382 949,378 952,348 991,335" fill="none" stroke="#8a8f98" stroke-width="5" stroke-linecap="round"/><polyline points="859,337 836,358" fill="none" stroke="#8a8f98" stroke-width="10" stroke-linecap="round"/><polyline points="702,355 712,372" fill="none" stroke="#8a8f98" stroke-width="10" stroke-linecap="round"/><polyline points="882,353 904,359 904,362 898,371 881,362" fill="none" stroke="#8a8f98" stroke-width="3" stroke-linecap="round"/><polyline points="587,295 600,367" fill="none" stroke="#8a8f98" stroke-width="5" stroke-linecap="round"/><polyline points="689,361 675,341" fill="none" stroke="#8a8f98" stroke-width="10" stroke-linecap="round"/><polyline points="721,389 738,399 744,400 775,390" fill="none" stroke="#8a8f98" stroke-width="10" stroke-linecap="round"/><polyline points="600,367 605,388 626,399" fill="none" stroke="#8a8f98" stroke-width="5" stroke-linecap="round"/><polyline points="731,507 755,512 777,523" fill="none" stroke="#8a8f98" stroke-width="8" stroke-linecap="round"/><polyline points="721,479 718,452" fill="none" stroke="#8a8f98" stroke-width="10" stroke-linecap="round"/><polyline points="747,437 735,468" fill="none" stroke="#8a8f98" stroke-width="10" stroke-linecap="round"/><polyline points="626,399 619,378 600,367" fill="none" stroke="#8a8f98" stroke-width="3" stroke-linecap="round"/><polyline points="892,514 900,589 907,620 929,670 927,677 921,679" fill="none" stroke="#8a8f98" stroke-width="5" stroke-linecap="round"/><polyline points="680,507 674,507" fill="none" stroke="#8a8f98" stroke-width="5" stroke-linecap="round"/><polyline points="715,509 722,507" fill="none" stroke="#8a8f98" stroke-width="5" stroke-linecap="round"/><polyline points="722,507 721,479" fill="none" stroke="#8a8f98" stroke-width="10" stroke-linecap="round"/><polyline points="731,541 727,598" fill="none" stroke="#8a8f98" stroke-width="10" stroke-linecap="round"/><polyline points="731,512 731,541" fill="none" stroke="#8a8f98" stroke-width="10" stroke-linecap="round"/><polyline points="763,521 754,517 731,512" fill="none" stroke="#8a8f98" stroke-width="8" stroke-linecap="round"/><polyline points="763,521 754,521 743,526 731,541" fill="none" stroke="#8a8f98" stroke-width="10" stroke-linecap="round"/><polyline points="731,507 731,512" fill="none" stroke="#8a8f98" stroke-width="10" stroke-linecap="round"/><polyline points="731,512 722,512" fill="none" stroke="#8a8f98" stroke-width="8" stroke-linecap="round"/><polyline points="722,586 722,568" fill="none" stroke="#8a8f98" stroke-width="10" stroke-linecap="round"/><polyline points="722,568 722,512" fill="none" stroke="#8a8f98" stroke-width="10" stroke-linecap="round"/><polyline points="698,375 689,361" fill="none" stroke="#8a8f98" stroke-width="10" stroke-linecap="round"/><polyline points="721,389 730,405" fill="none" stroke="#8a8f98" stroke-width="10" stroke-linecap="round"/><polyline points="836,358 834,359" fill="none" stroke="#8a8f98" stroke-width="10" stroke-linecap="round"/><polyline points="787,392 762,414" fill="none" stroke="#8a8f98" stroke-width="10" stroke-linecap="round"/><polyline points="735,468 731,507" fill="none" stroke="#8a8f98" stroke-width="10" stroke-linecap="round"/><polyline points="835,532 848,527 873,510 885,507" fill="none" stroke="#8a8f98" stroke-width="8" stroke-linecap="round"/><polyline points="932,506 973,504 1007,495" fill="none" stroke="#8a8f98" stroke-width="8" stroke-linecap="round"/><polyline points="719,610 722,586" fill="none" stroke="#8a8f98" stroke-width="10" stroke-linecap="round"/><polyline points="727,598 724,623" fill="none" stroke="#8a8f98" stroke-width="10" stroke-linecap="round"/><polyline points="715,509 696,507" fill="none" stroke="#8a8f98" stroke-width="5" stroke-linecap="round"/><polyline points="708,679 701,656 699,632 707,532 703,524" fill="none" stroke="#8a8f98" stroke-width="5" stroke-linecap="round"/><polyline points="703,429 706,440 707,479 696,507" fill="none" stroke="#8a8f98" stroke-width="3" stroke-linecap="round"/><polyline points="721,479 742,427" fill="none" stroke="#8a8f98" stroke-width="10" stroke-linecap="round"/><polyline points="742,427 747,437" fill="none" stroke="#8a8f98" stroke-width="10" stroke-linecap="round"/><polyline points="722,507 731,507" fill="none" stroke="#8a8f98" stroke-width="8" stroke-linecap="round"/><polyline points="722,512 722,507" fill="none" stroke="#8a8f98" stroke-width="10" stroke-linecap="round"/><polyline points="885,507 892,507" fill="none" stroke="#8a8f98" stroke-width="8" stroke-linecap="round"/><polyline points="886,514 878,514 838,537 818,541" fill="none" stroke="#8a8f98" stroke-width="8" stroke-linecap="round"/><polyline points="892,514 886,514" fill="none" stroke="#8a8f98" stroke-width="8" stroke-linecap="round"/><polyline points="886,514 885,507" fill="none" stroke="#8a8f98" stroke-width="5" stroke-linecap="round"/><polyline points="892,507 892,514" fill="none" stroke="#8a8f98" stroke-width="5" stroke-linecap="round"/><polyline points="932,506 933,455 930,447 923,444" fill="none" stroke="#8a8f98" stroke-width="5" stroke-linecap="round"/><polyline points="742,427 755,409" fill="none" stroke="#8a8f98" stroke-width="10" stroke-linecap="round"/><polyline points="762,414 747,437" fill="none" stroke="#8a8f98" stroke-width="10" stroke-linecap="round"/><polyline points="730,405 742,427" fill="none" stroke="#8a8f98" stroke-width="10" stroke-linecap="round"/><polyline points="715,410 698,375" fill="none" stroke="#8a8f98" stroke-width="10" stroke-linecap="round"/><polyline points="718,452 718,423 715,410" fill="none" stroke="#8a8f98" stroke-width="10" stroke-linecap="round"/><polyline points="774,527 763,521" fill="none" stroke="#8a8f98" stroke-width="8" stroke-linecap="round"/><polyline points="804,540 774,527" fill="none" stroke="#8a8f98" stroke-width="8" stroke-linecap="round"/><polyline points="892,507 932,506" fill="none" stroke="#8a8f98" stroke-width="8" stroke-linecap="round"/><polyline points="888,551 886,514" fill="none" stroke="#8a8f98" stroke-width="5" stroke-linecap="round"/><polyline points="805,380 787,392" fill="none" stroke="#8a8f98" stroke-width="10" stroke-linecap="round"/><polyline points="696,507 680,507" fill="none" stroke="#8a8f98" stroke-width="5" stroke-linecap="round"/><polyline points="674,507 670,506" fill="none" stroke="#8a8f98" stroke-width="5" stroke-linecap="round"/><polyline points="654,571 646,594 646,604" fill="none" stroke="#8a8f98" stroke-width="5" stroke-linecap="round"/><polyline points="670,506 668,532 654,571" fill="none" stroke="#8a8f98" stroke-width="5" stroke-linecap="round"/><polyline points="669,457 670,506" fill="none" stroke="#8a8f98" stroke-width="5" stroke-linecap="round"/><polyline points="626,399 643,408 662,426 669,438 669,457" fill="none" stroke="#8a8f98" stroke-width="5" stroke-linecap="round"/><polyline points="818,541 804,540" fill="none" stroke="#8a8f98" stroke-width="8" stroke-linecap="round"/><polyline points="712,372 721,389" fill="none" stroke="#8a8f98" stroke-width="10" stroke-linecap="round"/><polyline points="812,535 835,532" fill="none" stroke="#8a8f98" stroke-width="8" stroke-linecap="round"/><polyline points="777,523 797,532" fill="none" stroke="#8a8f98" stroke-width="8" stroke-linecap="round"/><polyline points="703,524 696,507" fill="none" stroke="#8a8f98" stroke-width="5" stroke-linecap="round"/><polyline points="951,510 892,514" fill="none" stroke="#8a8f98" stroke-width="8" stroke-linecap="round"/><polyline points="1001,504 988,508 951,510" fill="none" stroke="#8a8f98" stroke-width="8" stroke-linecap="round"/><polyline points="722,512 715,509" fill="none" stroke="#8a8f98" stroke-width="5" stroke-linecap="round"/><polyline points="933,455 940,410 954,414" fill="none" stroke="#8a8f98" stroke-width="3" stroke-linecap="round"/><polyline points="797,532 801,468 817,445 853,432 871,416 873,399 839,364" fill="none" stroke="#8a8f98" stroke-width="3" stroke-linecap="round"/><polyline points="797,532 812,535" fill="none" stroke="#8a8f98" stroke-width="8" stroke-linecap="round"/><polyline points="834,359 805,380" fill="none" stroke="#8a8f98" stroke-width="10" stroke-linecap="round"/><polyline points="921,679 914,666 896,607 888,551" fill="none" stroke="#8a8f98" stroke-width="5" stroke-linecap="round"/><polyline points="918,512 917,506" fill="none" stroke="#8a8f98" stroke-width="8" stroke-linecap="round"/><polyline points="775,149 798,127" fill="none" stroke="#8a8f98" stroke-width="10" stroke-linecap="round"/><polyline points="881,234 886,259 886,276 885,290 875,315" fill="none" stroke="#8a8f98" stroke-width="10" stroke-linecap="round"/><polyline points="821,-61 814,37" fill="none" stroke="#8a8f98" stroke-width="13" stroke-linecap="round"/><polyline points="800,116 793,105 789,78" fill="none" stroke="#8a8f98" stroke-width="10" stroke-linecap="round"/><polyline points="615,241 628,235" fill="none" stroke="#8a8f98" stroke-width="10" stroke-linecap="round"/><polyline points="624,260 614,266" fill="none" stroke="#8a8f98" stroke-width="10" stroke-linecap="round"/><polyline points="828,-63 823,44" fill="none" stroke="#8a8f98" stroke-width="10" stroke-linecap="round"/><polyline points="736,152 672,180 650,198" fill="none" stroke="#8a8f98" stroke-width="5" stroke-linecap="round"/><polyline points="745,-18 748,-15 753,20" fill="none" stroke="#8a8f98" stroke-width="5" stroke-linecap="round"/><polyline points="768,18 762,19" fill="none" stroke="#8a8f98" stroke-width="5" stroke-linecap="round"/><polyline points="755,58 711,64" fill="none" stroke="#8a8f98" stroke-width="5" stroke-linecap="round"/><polyline points="759,97 716,103" fill="none" stroke="#8a8f98" stroke-width="5" stroke-linecap="round"/><polyline points="646,232 724,188" fill="none" stroke="#8a8f98" stroke-width="13" stroke-linecap="round"/><polyline points="862,108 807,144" fill="none" stroke="#8a8f98" stroke-width="10" stroke-linecap="round"/><polyline points="687,226 673,244" fill="none" stroke="#8a8f98" stroke-width="10" stroke-linecap="round"/><polyline points="675,341 674,327 680,325 686,329" fill="none" stroke="#8a8f98" stroke-width="10" stroke-linecap="round"/><polyline points="583,262 615,241" fill="none" stroke="#8a8f98" stroke-width="10" stroke-linecap="round"/><polyline points="807,152 854,125 890,90" fill="none" stroke="#8a8f98" stroke-width="13" stroke-linecap="round"/><polyline points="817,162 759,194 670,239" fill="none" stroke="#8a8f98" stroke-width="13" stroke-linecap="round"/><polyline points="896,95 872,122 840,147 817,162" fill="none" stroke="#8a8f98" stroke-width="13" stroke-linecap="round"/><polyline points="814,37 804,127 796,147 782,167 755,189" fill="none" stroke="#8a8f98" stroke-width="13" stroke-linecap="round"/><polyline points="687,226 638,252" fill="none" stroke="#8a8f98" stroke-width="10" stroke-linecap="round"/><polyline points="675,308 686,329" fill="none" stroke="#8a8f98" stroke-width="10" stroke-linecap="round"/><polyline points="819,92 817,117" fill="none" stroke="#8a8f98" stroke-width="10" stroke-linecap="round"/><polyline points="807,144 798,155 781,170" fill="none" stroke="#8a8f98" stroke-width="10" stroke-linecap="round"/><polyline points="819,92 827,105 833,109 841,111" fill="none" stroke="#8a8f98" stroke-width="10" stroke-linecap="round"/><polyline points="634,277 625,270 614,266" fill="none" stroke="#8a8f98" stroke-width="10" stroke-linecap="round"/><polyline points="671,247 681,321" fill="none" stroke="#8a8f98" stroke-width="3" stroke-linecap="round"/><polyline points="792,242 771,241 767,238 769,229 783,227" fill="none" stroke="#8a8f98" stroke-width="3" stroke-linecap="round"/><polyline points="790,255 803,257 859,250 858,243" fill="none" stroke="#8a8f98" stroke-width="3" stroke-linecap="round"/><polyline points="628,235 676,208" fill="none" stroke="#8a8f98" stroke-width="10" stroke-linecap="round"/><polyline points="628,235 638,252" fill="none" stroke="#8a8f98" stroke-width="10" stroke-linecap="round"/><polyline points="676,208 732,180" fill="none" stroke="#8a8f98" stroke-width="10" stroke-linecap="round"/><polyline points="617,237 632,219 664,212" fill="none" stroke="#8a8f98" stroke-width="3" stroke-linecap="round"/><polyline points="617,237 664,212" fill="none" stroke="#8a8f98" stroke-width="3" stroke-linecap="round"/><polyline points="745,173 736,152" fill="none" stroke="#8a8f98" stroke-width="5" stroke-linecap="round"/><polyline points="736,152 727,144 692,139" fill="none" stroke="#8a8f98" stroke-width="5" stroke-linecap="round"/><polyline points="854,266 855,284 844,300 784,345 763,346" fill="none" stroke="#8a8f98" stroke-width="3" stroke-linecap="round"/><polyline points="675,341 660,318" fill="none" stroke="#8a8f98" stroke-width="10" stroke-linecap="round"/><polyline points="634,277 624,260" fill="none" stroke="#8a8f98" stroke-width="10" stroke-linecap="round"/><polyline points="745,173 764,161" fill="none" stroke="#8a8f98" stroke-width="10" stroke-linecap="round"/><polyline points="732,180 745,173" fill="none" stroke="#8a8f98" stroke-width="10" stroke-linecap="round"/><polyline points="796,22 808,-102" fill="none" stroke="#8a8f98" stroke-width="10" stroke-linecap="round"/><polyline points="789,78 796,22" fill="none" stroke="#8a8f98" stroke-width="10" stroke-linecap="round"/><polyline points="917,69 891,85 862,108" fill="none" stroke="#8a8f98" stroke-width="10" stroke-linecap="round"/><polyline points="958,45 942,55" fill="none" stroke="#8a8f98" stroke-width="10" stroke-linecap="round"/><polyline points="866,311 871,301 877,275 874,244" fill="none" stroke="#8a8f98" stroke-width="10" stroke-linecap="round"/><polyline points="853,331 866,311" fill="none" stroke="#8a8f98" stroke-width="10" stroke-linecap="round"/><polyline points="875,315 859,337" fill="none" stroke="#8a8f98" stroke-width="10" stroke-linecap="round"/><polyline points="643,259 675,308" fill="none" stroke="#8a8f98" stroke-width="10" stroke-linecap="round"/><polyline points="673,244 669,253 668,278 675,308" fill="none" stroke="#8a8f98" stroke-width="10" stroke-linecap="round"/><polyline points="614,266 594,278" fill="none" stroke="#8a8f98" stroke-width="10" stroke-linecap="round"/><polyline points="638,252 624,260" fill="none" stroke="#8a8f98" stroke-width="10" stroke-linecap="round"/><polyline points="638,252 643,259" fill="none" stroke="#8a8f98" stroke-width="10" stroke-linecap="round"/><polyline points="624,260 615,241" fill="none" stroke="#8a8f98" stroke-width="10" stroke-linecap="round"/><polyline points="686,329 695,345" fill="none" stroke="#8a8f98" stroke-width="10" stroke-linecap="round"/><polyline points="817,117 841,111" fill="none" stroke="#8a8f98" stroke-width="10" stroke-linecap="round"/><polyline points="862,108 829,122 816,123" fill="none" stroke="#8a8f98" stroke-width="10" stroke-linecap="round"/><polyline points="858,103 917,45" fill="none" stroke="#8a8f98" stroke-width="10" stroke-linecap="round"/><polyline points="942,55 929,62" fill="none" stroke="#8a8f98" stroke-width="10" stroke-linecap="round"/><polyline points="977,36 958,45" fill="none" stroke="#8a8f98" stroke-width="10" stroke-linecap="round"/><polyline points="917,45 920,41" fill="none" stroke="#8a8f98" stroke-width="10" stroke-linecap="round"/><polyline points="841,111 858,103" fill="none" stroke="#8a8f98" stroke-width="10" stroke-linecap="round"/><polyline points="816,123 807,144" fill="none" stroke="#8a8f98" stroke-width="10" stroke-linecap="round"/><polyline points="748,190 701,218" fill="none" stroke="#8a8f98" stroke-width="10" stroke-linecap="round"/><polyline points="816,123 807,121" fill="none" stroke="#8a8f98" stroke-width="10" stroke-linecap="round"/><polyline points="807,121 817,117" fill="none" stroke="#8a8f98" stroke-width="10" stroke-linecap="round"/><polyline points="817,117 816,123" fill="none" stroke="#8a8f98" stroke-width="10" stroke-linecap="round"/><polyline points="823,44 821,75" fill="none" stroke="#8a8f98" stroke-width="10" stroke-linecap="round"/><polyline points="796,22 768,18" fill="none" stroke="#8a8f98" stroke-width="5" stroke-linecap="round"/><polyline points="821,75 819,92" fill="none" stroke="#8a8f98" stroke-width="10" stroke-linecap="round"/><polyline points="759,97 760,117 757,131 751,140 736,152" fill="none" stroke="#8a8f98" stroke-width="5" stroke-linecap="round"/><polyline points="807,121 800,116" fill="none" stroke="#8a8f98" stroke-width="10" stroke-linecap="round"/><polyline points="798,127 807,121" fill="none" stroke="#8a8f98" stroke-width="10" stroke-linecap="round"/><polyline points="874,244 873,237" fill="none" stroke="#8a8f98" stroke-width="10" stroke-linecap="round"/><polyline points="753,20 705,25" fill="none" stroke="#8a8f98" stroke-width="5" stroke-linecap="round"/><polyline points="755,58 759,97" fill="none" stroke="#8a8f98" stroke-width="5" stroke-linecap="round"/><polyline points="753,20 755,58" fill="none" stroke="#8a8f98" stroke-width="5" stroke-linecap="round"/><polyline points="695,345 702,355" fill="none" stroke="#8a8f98" stroke-width="10" stroke-linecap="round"/><polyline points="701,218 687,226" fill="none" stroke="#8a8f98" stroke-width="10" stroke-linecap="round"/><polyline points="858,243 802,246 792,242" fill="none" stroke="#8a8f98" stroke-width="3" stroke-linecap="round"/><polyline points="953,311 988,305" fill="none" stroke="#8a8f98" stroke-width="5" stroke-linecap="round"/><polyline points="775,149 783,119 789,78" fill="none" stroke="#8a8f98" stroke-width="10" stroke-linecap="round"/><polyline points="764,161 769,157" fill="none" stroke="#8a8f98" stroke-width="10" stroke-linecap="round"/><polyline points="660,318 634,277" fill="none" stroke="#8a8f98" stroke-width="10" stroke-linecap="round"/><polyline points="781,170 748,190" fill="none" stroke="#8a8f98" stroke-width="10" stroke-linecap="round"/><polyline points="803,36 808,-23" fill="none" stroke="#8a8f98" stroke-width="13" stroke-linecap="round"/><polyline points="769,157 775,149" fill="none" stroke="#8a8f98" stroke-width="10" stroke-linecap="round"/><polyline points="762,19 753,20" fill="none" stroke="#8a8f98" stroke-width="5" stroke-linecap="round"/><polyline points="873,237 862,218 853,180 853,170 859,160 889,144 908,120 920,98 925,75 926,64" fill="none" stroke="#8a8f98" stroke-width="10" stroke-linecap="round"/><polyline points="859,-41 866,-33 874,-30 905,-26 919,-12 923,-1 922,17 924,38" fill="none" stroke="#8a8f98" stroke-width="10" stroke-linecap="round"/><polyline points="924,38 931,33" fill="none" stroke="#8a8f98" stroke-width="10" stroke-linecap="round"/><polyline points="924,38 929,62" fill="none" stroke="#8a8f98" stroke-width="10" stroke-linecap="round"/><polyline points="920,41 924,38" fill="none" stroke="#8a8f98" stroke-width="10" stroke-linecap="round"/><polyline points="920,41 918,22 919,-5 912,-16 898,-24 874,-26 865,-30 854,-40 849,-49" fill="none" stroke="#8a8f98" stroke-width="10" stroke-linecap="round"/><polyline points="929,62 926,64" fill="none" stroke="#8a8f98" stroke-width="10" stroke-linecap="round"/><polyline points="929,62 928,85 925,99 913,121 893,146 882,155 863,163 856,170 855,180 865,217 881,234" fill="none" stroke="#8a8f98" stroke-width="10" stroke-linecap="round"/><polyline points="922,66 917,69" fill="none" stroke="#8a8f98" stroke-width="10" stroke-linecap="round"/><polyline points="926,64 920,41" fill="none" stroke="#8a8f98" stroke-width="10" stroke-linecap="round"/><polyline points="926,64 922,66" fill="none" stroke="#8a8f98" stroke-width="10" stroke-linecap="round"/><polyline points="650,238 754,181 772,166 780,155 788,141 798,111 803,36" fill="none" stroke="#8a8f98" stroke-width="13" stroke-linecap="round"/><polyline points="755,189 670,239" fill="none" stroke="#8a8f98" stroke-width="13" stroke-linecap="round"/><polyline points="724,188 760,169 807,152" fill="none" stroke="#8a8f98" stroke-width="13" stroke-linecap="round"/><polyline points="1080,31 1045,19 1032,18 1008,19 983,25 958,36 932,53 912,72 896,95" fill="none" stroke="#8a8f98" stroke-width="13" stroke-linecap="round"/><polyline points="890,90 904,70 926,47 954,29 981,17 1007,11 1033,10 1060,14 1083,25" fill="none" stroke="#8a8f98" stroke-width="13" stroke-linecap="round"/><polyline points="1066,189 929,218 921,217 917,195" fill="none" stroke="#8a8f98" stroke-width="3" stroke-linecap="round"/><polyline points="1047,106 1045,132 1034,145 1013,155 1003,152 991,132 984,130 970,135 953,148" fill="none" stroke="#8a8f98" stroke-width="3" stroke-linecap="round"/><polyline points="931,33 954,17 977,9 1011,2 1051,4 1088,17" fill="none" stroke="#8a8f98" stroke-width="10" stroke-linecap="round"/><polygon points="775,193 786,192 791,198 793,219 760,222 761,250 764,250 764,247 786,245 788,258 773,259 772,254 760,255 760,261 768,260 769,266 723,271 722,265 758,261 758,255 751,256 749,240 736,243 728,242 728,240 711,241 711,233 757,229 754,223 740,222 739,216 756,214 757,208 760,208 760,211 766,211 765,203 776,202 775,193" fill="#c8c2b8" stroke="#00000033"/><polygon points="944,416 942,420 955,425 954,429 972,435 970,442 957,438 953,445 941,441 939,447 952,451 955,444 968,448 965,458 951,456 950,459 963,463 961,469 943,463 939,474 953,479 954,473 947,472 948,467 969,474 969,479 985,484 990,483 992,478 1005,483 1007,477 992,472 991,465 974,460 976,453 991,458 993,451 979,447 981,438 995,442 996,438 974,430 975,426 988,430 990,425 976,421 971,433 971,428 944,416" fill="#c8c2b8" stroke="#00000033"/><polygon points="835,163 842,177 819,190 821,193 849,190 849,203 810,208 794,189 800,184 799,180 835,163" fill="#c8c2b8" stroke="#00000033"/><polygon points="665,367 679,428 704,414 690,388 687,390 684,385 681,372 675,373 674,365 665,367" fill="#c8c2b8" stroke="#00000033"/><polygon points="694,447 701,447 701,460 694,460 695,498 680,498 680,429 698,429 698,432 694,432 694,447" fill="#c8c2b8" stroke="#00000033"/><polygon points="947,287 942,265 979,256 985,277 947,287" fill="#c8c2b8" stroke="#00000033"/><polygon points="608,313 600,316 597,308 619,300 623,310 621,337 615,341 615,348 606,347 608,313" fill="#c8c2b8" stroke="#00000033"/><polygon points="557,354 562,377 534,383 529,359 557,354" fill="#c8c2b8" stroke="#00000033"/><polygon points="856,240 861,243 862,251 804,259 803,247 856,240" fill="#c8c2b8" stroke="#00000033"/><polygon points="827,294 830,291 826,286 829,280 837,274 838,276 843,273 852,284 832,297 831,303 826,302 822,305 825,311 819,315 808,305 811,299 822,288 827,294" fill="#c8c2b8" stroke="#00000033"/><polygon points="781,322 799,304 810,315 796,330 788,323 784,326 791,334 773,344 770,335 767,337 764,332 781,322" fill="#c8c2b8" stroke="#00000033"/><polygon points="679,587 696,589 695,622 675,620 679,587" fill="#c8c2b8" stroke="#00000033"/><polygon points="628,380 653,369 659,382 655,384 664,403 654,407 645,387 633,392 628,380" fill="#c8c2b8" stroke="#00000033"/><polygon points="678,558 701,558 702,574 698,575 698,581 679,582 678,558" fill="#c8c2b8" stroke="#00000033"/><polygon points="595,538 594,564 609,565 616,538 595,538" fill="#c8c2b8" stroke="#00000033"/><polygon points="690,252 691,264 685,265 684,247 707,245 709,274 695,276 695,270 702,269 701,251 690,252" fill="#c8c2b8" stroke="#00000033"/><polygon points="619,345 629,330 647,342 636,357 619,345" fill="#c8c2b8" stroke="#00000033"/><polygon points="905,404 897,392 919,377 927,389 905,404" fill="#c8c2b8" stroke="#00000033"/><polygon points="597,438 597,446 594,446 595,450 600,449 600,457 582,458 581,455 575,455 574,447 581,446 580,439 597,438" fill="#c8c2b8" stroke="#00000033"/><polygon points="753,361 760,366 753,372 749,370 751,375 744,376 729,370 722,358 733,356 735,361 747,364 749,369 749,364 753,361" fill="#c8c2b8" stroke="#00000033"/><polygon points="531,356 530,350 533,349 532,345 539,344 538,340 558,336 561,349 531,356" fill="#c8c2b8" stroke="#00000033"/><polygon points="958,317 978,313 982,330 962,335 958,317" fill="#c8c2b8" stroke="#00000033"/><polygon points="566,356 573,355 572,352 569,352 567,343 579,341 579,354 588,352 590,361 575,364 576,370 571,371 566,356" fill="#c8c2b8" stroke="#00000033"/><polygon points="611,430 640,430 640,433 632,433 632,437 637,437 637,441 632,441 632,450 625,450 624,441 618,441 618,447 612,447 612,438 618,438 618,436 611,436 611,430" fill="#c8c2b8" stroke="#00000033"/><polygon points="885,199 895,197 897,200 896,197 906,196 907,202 901,203 903,211 908,210 909,216 901,217 899,215 899,218 888,219 887,213 891,212 890,205 886,206 885,199" fill="#c8c2b8" stroke="#00000033"/><polygon points="600,423 609,398 621,403 612,429 600,423" fill="#c8c2b8" stroke="#00000033"/><polygon points="776,439 766,480 758,478 768,437 776,439" fill="#c8c2b8" stroke="#00000033"/><polygon points="626,564 641,570 637,578 629,574 627,578 645,585 643,590 616,581 626,564" fill="#c8c2b8" stroke="#00000033"/><polygon points="549,195 552,200 558,200 568,211 577,205 568,187 549,195" fill="#c8c2b8" stroke="#00000033"/><polygon points="468,592 473,575 479,577 473,593 476,594 479,586 482,587 480,595 485,596 484,600 478,599 478,601 482,602 478,608 465,604 468,592" fill="#c8c2b8" stroke="#00000033"/><polygon points="638,485 638,497 663,497 663,492 668,492 668,489 664,489 664,485 638,485" fill="#c8c2b8" stroke="#00000033"/><polygon points="880,561 884,564 881,582 871,583 870,555 880,554 880,561" fill="#c8c2b8" stroke="#00000033"/><polygon points="573,542 578,543 578,541 584,541 586,546 589,546 589,558 584,557 583,566 572,566 575,545 572,545 573,542" fill="#c8c2b8" stroke="#00000033"/><polygon points="607,616 606,599 619,599 619,606 615,608 633,607 633,615 607,616" fill="#c8c2b8" stroke="#00000033"/><polygon points="932,177 939,176 942,179 941,175 950,174 951,180 946,181 948,188 953,187 954,194 946,196 943,193 944,196 935,198 934,192 939,190 932,177" fill="#c8c2b8" stroke="#00000033"/><polygon points="501,576 512,572 523,578 512,597 501,582 501,576" fill="#c8c2b8" stroke="#00000033"/><polygon points="733,320 746,315 754,316 753,324 756,323 757,329 735,333 734,328 737,326 734,327 733,320" fill="#c8c2b8" stroke="#00000033"/><polygon points="527,596 527,594 531,594 529,600 525,598 532,603 523,618 518,615 521,606 516,599 523,584 530,580 532,583 524,590 527,596" fill="#c8c2b8" stroke="#00000033"/><polygon points="975,517 976,529 951,532 950,520 975,517" fill="#c8c2b8" stroke="#00000033"/><polygon points="913,234 922,233 923,235 924,232 934,231 935,237 929,238 929,244 936,243 936,249 917,251 916,246 921,245 920,240 914,241 913,234" fill="#c8c2b8" stroke="#00000033"/><polygon points="670,556 666,586 653,586 664,556 670,556" fill="#c8c2b8" stroke="#00000033"/><polygon points="718,316 714,321 716,327 720,327 721,331 716,331 717,339 712,339 708,321 699,311 702,307 707,311 711,307 718,316" fill="#c8c2b8" stroke="#00000033"/><polygon points="782,473 778,493 765,490 769,470 782,473" fill="#c8c2b8" stroke="#00000033"/><polygon points="915,622 926,619 920,596 909,599 915,622" fill="#c8c2b8" stroke="#00000033"/><polygon points="563,430 582,425 590,430 591,435 573,441 571,435 565,437 563,430" fill="#c8c2b8" stroke="#00000033"/><polygon points="579,493 576,493 575,486 579,486 579,480 598,480 598,485 587,485 587,491 598,491 598,496 579,496 579,493" fill="#c8c2b8" stroke="#00000033"/><polygon points="783,472 790,439 798,441 790,474 783,472" fill="#c8c2b8" stroke="#00000033"/><polyline points="243,502 255,511 272,513 300,440 305,418 325,424 352,453 370,439 363,418 339,381 332,364 330,346 410,358 472,354 529,329 555,302 614,266 634,277 689,361 699,363 702,355 747,437 772,404 845,351 863,334 875,315 885,290 886,259 881,234 865,217" fill="none" stroke="#ffdd44" stroke-width="6" opacity="0.85"/><circle cx="243" cy="502" r="10" fill="#a0f"/><circle cx="865" cy="217" r="10" fill="#f00"/><path d="M83.76470588241196,554.1176470588217 L99.76470588241196,554.1176470588217 M91.76470588241196,546.1176470588217 L91.76470588241196,562.1176470588217" stroke="#0ff" stroke-width="2"/><path d="M874.3529411768836,201.17647058823252 L890.3529411768836,201.17647058823252 M882.3529411768836,193.17647058823252 L882.3529411768836,209.17647058823252" stroke="#0ff" stroke-width="2"/><rect x="293" y="540" width="22" height="16" fill="#b8c2cc" stroke="#333"/><rect x="245" y="420" width="22" height="16" fill="#b8c2cc" stroke="#333"/><rect x="329" y="492" width="22" height="16" fill="#b8c2cc" stroke="#333"/><rect x="401" y="396" width="22" height="16" fill="#b8c2cc" stroke="#333"/><rect x="269" y="360" width="22" height="16" fill="#b8c2cc" stroke="#333"/><rect x="293" y="276" width="22" height="16" fill="#b8c2cc" stroke="#333"/><rect x="401" y="300" width="22" height="16" fill="#b8c2cc" stroke="#333"/><rect x="485" y="396" width="22" height="16" fill="#b8c2cc" stroke="#333"/><rect x="485" y="240" width="22" height="16" fill="#b8c2cc" stroke="#333"/><rect x="569" y="384" width="22" height="16" fill="#b8c2cc" stroke="#333"/><rect x="581" y="216" width="22" height="16" fill="#b8c2cc" stroke="#333"/><rect x="725" y="288" width="22" height="16" fill="#b8c2cc" stroke="#333"/><rect x="641" y="456" width="22" height="16" fill="#b8c2cc" stroke="#333"/><rect x="785" y="276" width="22" height="16" fill="#b8c2cc" stroke="#333"/><rect x="809" y="420" width="22" height="16" fill="#b8c2cc" stroke="#333"/><rect x="809" y="480" width="22" height="16" fill="#b8c2cc" stroke="#333"/><rect x="869" y="372" width="22" height="16" fill="#b8c2cc" stroke="#333"/><rect x="905" y="324" width="22" height="16" fill="#b8c2cc" stroke="#333"/><text x="409" y="166" font-size="13" fill="#fff" text-anchor="middle" stroke="#000" stroke-width="0.4">MacRitchie Reservoir</text><text x="480" y="20" font-size="16" fill="#fff" text-anchor="middle">15: MacRitchie Trail</text></svg>