<svg xmlns="http://www.w3.org/2000/svg" width="960" height="600" viewBox="0 0 960 600"><rect width="960" height="600" fill="#6aa03c"/><polygon points="366,557 378,558 420,639 428,640 422,629 430,625 436,635 446,630 451,622 458,501 435,459 399,449 362,468 327,496 253,468 207,472 197,475 159,509 147,522 140,545 142,561 155,582 272,685 297,703 307,700 324,628 366,557" fill="#4c8a2c" opacity="0.7"/><polygon points="947,591 986,585 987,570 1049,550 1089,517 1109,507 1135,501 1134,575 1120,577 1117,670 948,672 947,591" fill="#4c8a2c" opacity="0.7"/><polygon points="594,-318 579,-309 561,-311 552,-318 539,-305 535,-309 525,-286 531,-281 536,-286 544,-284 547,-265 531,-262 527,-242 538,-242 596,-278 625,-285 647,-299 718,-314 741,-249 740,-220 735,-203 720,-181 726,-153 724,-141 713,-148 708,-115 730,66 745,-62 741,-73 747,-81 747,-93 742,-98 742,-126 750,-141 757,-173 755,-234 745,-272 729,-309 693,-366 680,-365 594,-318" fill="#4c8a2c" opacity="0.7"/><polygon points="946,57 936,66 951,92 972,76 991,69 1000,72 1015,97 1022,101 1028,101 1056,88 1070,72 1072,38 1045,22 1033,4 1031,-13 993,-45 934,-15 924,16 946,57" fill="#4c8a2c" opacity="0.7"/><polygon points="949,808 942,804 905,706 890,656 882,573 894,567 946,568 949,808" fill="#4c8a2c" opacity="0.7"/><polygon points="843,654 863,652 889,753 889,771 895,780 833,799 847,854 907,836 908,840 847,858 830,839 825,795 879,777 858,729 839,706 824,650 842,647 843,654" fill="#4c8a2c" opacity="0.7"/><polygon points="635,47 626,34 622,10 616,-2 611,-3 609,-11 609,-15 619,-14 615,-51 612,-59 615,-69 624,-65 635,47" fill="#4c8a2c" opacity="0.7"/><polygon points="832,577 833,586 826,586 827,608 841,613 860,612 857,579 853,576 832,577" fill="#4c8a2c" opacity="0.7"/><polygon points="648,265 677,261 681,289 652,294 648,265" fill="#3d8b46" stroke="#fff"/><polygon points="473,635 486,635 485,662 473,662 473,635" fill="#3d8b46" stroke="#fff"/><polygon points="329,384 339,374 335,371 339,368 344,374 331,386 329,384" fill="#3ec6e8"/><polygon points="95,570 99,582 92,584 88,572 95,570" fill="#3ec6e8"/><polygon points="521,471 527,471 527,483 521,483 521,471" fill="#3ec6e8"/><polygon points="711,282 721,288 741,281 750,273 753,262 749,259 742,271 728,271 711,282" fill="#3ec6e8"/><polygon points="917,261 915,251 902,249 902,242 928,236 931,259 917,261" fill="#3ec6e8"/><polygon points="524,277 525,285 534,298 568,333 592,447 597,566 593,598 594,632 582,803 582,851 601,884 647,905 705,979 792,1207" fill="#2e7bb4"/><polygon points="-1691,-324 -1689,-430 -1614,-377 -1598,-377 -1574,-355 -1567,-339 -1556,-329 -1461,-285 -1436,-276 -1432,-272 -1416,-235 -1316,-141 -1301,-139 -1288,-145 -1266,-166 -1252,-207 -1246,-275 -1253,-318 -1261,-339 -1259,-358 -1246,-403 -1244,-436 -1232,-442 -1224,-443 -1222,-424 -1214,-409 -1219,-377 -1208,-333 -1194,-309 -1187,-287 -1165,-265 -1150,-237 -1144,-196 -1146,-173 -1139,-150 -1120,-129 -1088,-106 -1043,-102 -1002,-82 -985,-79 -951,-67 -931,-65 -880,-67 -826,-85 -808,-110 -791,-149 -781,-212 -779,-311 -789,-358 -805,-399 -801,-410 -783,-396 -778,-372 -723,-217 -681,-189 -625,-223 -607,-222 -577,-180 -567,-173 -518,-159 -473,-156 -455,-159 -436,-156 -412,-165 -379,-196 -343,-272 -321,-277 -322,-255 -336,-233 -328,-206 -320,-196 -313,-177 -300,-172 -275,-170 -267,-164 -238,-121 -225,-114 -167,-90 -119,-87 -85,-100 -63,-101 -50,-111 -37,-144 -35,-161 -42,-252 -54,-304 -78,-367 -93,-391 -107,-406 -121,-414 -152,-427 -170,-439 -191,-429 -194,-424 -205,-430 -257,-414 -280,-411 -321,-422 -356,-424 -330,-437 -300,-430 -265,-440 -216,-459 -211,-465 -201,-490 -202,-500 -209,-513 -235,-546 -263,-599 -262,-607 -217,-564 -181,-543 -172,-532 -150,-529 -132,-535 -126,-543 -121,-571 -118,-632 -114,-634 -109,-634 -90,-586 -73,-570 -58,-565 -19,-587 -11,-597 3,-641 12,-633 25,-586 47,-569 70,-565 82,-551 81,-546 57,-552 6,-548 -28,-520 -43,-482 -35,-430 9,-348 29,-329 42,-324 53,-325 62,-329 96,-354 94,-346 77,-319 52,-297 43,-271 40,-252 41,-226 53,-175 73,-134 91,-112 111,-106 130,-111 171,-135 200,-103 211,-94 225,-87 260,-86 277,-95 309,-153 316,-182 317,-250 298,-295 293,-301 274,-311 269,-317 261,-339 239,-381 230,-405 233,-409 247,-399 280,-336 297,-320 328,-274 360,-199 385,-158 397,-151 412,-149 469,-153 520,-133 572,-132 582,-135 574,-123 542,-111 501,-101 478,-89 448,-68 432,-48 429,-40 431,-24 470,17 499,66 334,172 283,171 272,174 267,172 266,163 260,164 262,172 201,186 193,219 192,245 180,256 149,269 128,245 134,193 132,168 123,136 112,126 91,120 59,118 52,113 20,104 -7,111 -18,107 -48,116 -53,114 -57,128 -53,134 -57,141 -58,185 -47,221 -49,224 -78,178 -120,141 -181,98 -204,86 -238,84 -252,80 -274,56 -406,-11 -474,-15 -520,-11 -545,-1 -570,20 -588,49 -599,91 -607,69 -623,41 -641,31 -661,26 -717,30 -746,37 -813,60 -836,63 -877,80 -892,90 -903,103 -906,112 -911,126 -905,162 -888,188 -875,200 -886,218 -896,213 -920,211 -935,232 -936,239 -905,280 -916,292 -964,285 -992,297 -1012,324 -1021,344 -1025,365 -1039,395 -1058,415 -1073,437 -1116,461 -1154,517 -1166,525 -1168,523 -1159,510 -1152,489 -1097,421 -1063,370 -1055,325 -1045,308 -1039,287 -1009,222 -1005,171 -1016,132 -1031,100 -1043,91 -1056,86 -1136,70 -1186,63 -1212,62 -1232,67 -1250,75 -1265,87 -1280,107 -1319,136 -1350,184 -1368,192 -1372,190 -1379,136 -1347,86 -1331,46 -1331,31 -1340,11 -1357,-5 -1371,-12 -1379,-21 -1398,-26 -1454,-27 -1464,-23 -1487,-20 -1508,-21 -1538,-29 -1546,-35 -1551,-102 -1533,-112 -1525,-122 -1520,-142 -1520,-152 -1534,-187 -1574,-242 -1588,-251 -1607,-272 -1623,-280 -1639,-294 -1655,-302 -1672,-320 -1691,-324" fill="#2e7bb4"/><polyline points="149,347 151,370 161,392 193,445" fill="none" stroke="#8a8f98" stroke-width="5" stroke-linecap="round"/><polyline points="-210,522 -65,590 -35,607 32,654 45,676 44,690 38,704 29,708 -19,705 -34,717 -35,746" fill="none" stroke="#8a8f98" stroke-width="3" stroke-linecap="round"/><polyline points="586,553 553,553 546,558 491,669 468,699 456,706 445,706 429,695 423,681 418,647" fill="none" stroke="#8a8f98" stroke-width="5" stroke-linecap="round"/><polyline points="-334,469 -300,443 -278,431 -221,407 -195,408 -164,418 -133,433 -61,486 -5,502" fill="none" stroke="#8a8f98" stroke-width="3" stroke-linecap="round"/><polyline points="-214,366 -144,341 -75,324 -5,315" fill="none" stroke="#8a8f98" stroke-width="13" stroke-linecap="round"/><polyline points="70,340 32,351 -14,372 -40,380 -69,379 -94,368" fill="none" stroke="#8a8f98" stroke-width="8" stroke-linecap="round"/><polyline points="355,350 332,358 287,363" fill="none" stroke="#8a8f98" stroke-width="10" stroke-linecap="round"/><polyline points="287,363 253,362 206,354" fill="none" stroke="#8a8f98" stroke-width="10" stroke-linecap="round"/><polyline points="355,350 352,374" fill="none" stroke="#8a8f98" stroke-width="5" stroke-linecap="round"/><polyline points="415,449 441,459 460,491 462,503 455,623 452,630 443,637 418,647" fill="none" stroke="#8a8f98" stroke-width="5" stroke-linecap="round"/><polyline points="376,565 365,567 333,619" fill="none" stroke="#8a8f98" stroke-width="5" stroke-linecap="round"/><polyline points="288,476 261,466 236,465" fill="none" stroke="#8a8f98" stroke-width="5" stroke-linecap="round"/><polyline points="278,403 218,373 199,367" fill="none" stroke="#8a8f98" stroke-width="5" stroke-linecap="round"/><polyline points="162,467 143,447 117,440" fill="none" stroke="#8a8f98" stroke-width="5" stroke-linecap="round"/><polyline points="113,461 91,519" fill="none" stroke="#8a8f98" stroke-width="5" stroke-linecap="round"/><polyline points="91,519 67,508" fill="none" stroke="#8a8f98" stroke-width="5" stroke-linecap="round"/><polyline points="75,562 53,559" fill="none" stroke="#8a8f98" stroke-width="5" stroke-linecap="round"/><polyline points="142,522 137,534 137,560 148,584" fill="none" stroke="#8a8f98" stroke-width="5" stroke-linecap="round"/><polyline points="418,647 411,631" fill="none" stroke="#8a8f98" stroke-width="5" stroke-linecap="round"/><polyline points="333,619 365,661" fill="none" stroke="#8a8f98" stroke-width="5" stroke-linecap="round"/><polyline points="113,461 79,449" fill="none" stroke="#8a8f98" stroke-width="5" stroke-linecap="round"/><polyline points="201,467 190,473 177,484" fill="none" stroke="#8a8f98" stroke-width="5" stroke-linecap="round"/><polyline points="333,619 327,635 307,715" fill="none" stroke="#8a8f98" stroke-width="5" stroke-linecap="round"/><polyline points="411,631 376,565" fill="none" stroke="#8a8f98" stroke-width="5" stroke-linecap="round"/><polyline points="333,485 392,448 402,445 415,449" fill="none" stroke="#8a8f98" stroke-width="5" stroke-linecap="round"/><polyline points="333,485 323,486" fill="none" stroke="#8a8f98" stroke-width="5" stroke-linecap="round"/><polyline points="206,467 201,467" fill="none" stroke="#8a8f98" stroke-width="5" stroke-linecap="round"/><polyline points="323,486 288,476" fill="none" stroke="#8a8f98" stroke-width="5" stroke-linecap="round"/><polyline points="352,374 336,397 319,407" fill="none" stroke="#8a8f98" stroke-width="5" stroke-linecap="round"/><polyline points="319,407 295,409 278,403" fill="none" stroke="#8a8f98" stroke-width="5" stroke-linecap="round"/><polyline points="71,579 72,605" fill="none" stroke="#8a8f98" stroke-width="5" stroke-linecap="round"/><polyline points="91,519 75,562" fill="none" stroke="#8a8f98" stroke-width="5" stroke-linecap="round"/><polyline points="113,410 118,418 117,440" fill="none" stroke="#8a8f98" stroke-width="5" stroke-linecap="round"/><polyline points="177,484 162,467" fill="none" stroke="#8a8f98" stroke-width="5" stroke-linecap="round"/><polyline points="117,440 113,461" fill="none" stroke="#8a8f98" stroke-width="5" stroke-linecap="round"/><polyline points="337,417 378,405 402,395" fill="none" stroke="#8a8f98" stroke-width="3" stroke-linecap="round"/><polyline points="193,445 201,467" fill="none" stroke="#8a8f98" stroke-width="5" stroke-linecap="round"/><polyline points="236,465 206,467" fill="none" stroke="#8a8f98" stroke-width="5" stroke-linecap="round"/><polyline points="148,584 269,690 307,715" fill="none" stroke="#8a8f98" stroke-width="5" stroke-linecap="round"/><polyline points="177,484 142,522" fill="none" stroke="#8a8f98" stroke-width="5" stroke-linecap="round"/><polyline points="172,642 152,625" fill="none" stroke="#8a8f98" stroke-width="5" stroke-linecap="round"/><polyline points="190,620 159,658" fill="none" stroke="#8a8f98" stroke-width="5" stroke-linecap="round"/><polyline points="313,456 310,426 317,415" fill="none" stroke="#8a8f98" stroke-width="3" stroke-linecap="round"/><polyline points="53,559 37,548" fill="none" stroke="#8a8f98" stroke-width="5" stroke-linecap="round"/><polyline points="75,562 71,579" fill="none" stroke="#8a8f98" stroke-width="5" stroke-linecap="round"/><polyline points="120,320 193,331" fill="none" stroke="#8a8f98" stroke-width="13" stroke-linecap="round"/><polyline points="120,320 124,319 180,325" fill="none" stroke="#8a8f98" stroke-width="10" stroke-linecap="round"/><polyline points="129,288 158,289 294,284 364,241 404,212" fill="none" stroke="#8a8f98" stroke-width="3" stroke-linecap="round"/><polyline points="458,278 439,291 405,326 385,338 355,350" fill="none" stroke="#8a8f98" stroke-width="10" stroke-linecap="round"/><polyline points="194,271 202,262 211,259 238,259" fill="none" stroke="#8a8f98" stroke-width="3" stroke-linecap="round"/><polyline points="198,345 161,341" fill="none" stroke="#8a8f98" stroke-width="13" stroke-linecap="round"/><polyline points="440,216 438,223 433,227 426,227 420,219 421,212 427,208 437,210 440,216" fill="none" stroke="#8a8f98" stroke-width="3" stroke-linecap="round"/><polyline points="432,266 438,276 439,291" fill="none" stroke="#8a8f98" stroke-width="10" stroke-linecap="round"/><polyline points="201,332 225,334" fill="none" stroke="#8a8f98" stroke-width="13" stroke-linecap="round"/><polyline points="398,241 315,286 314,291 321,295" fill="none" stroke="#8a8f98" stroke-width="3" stroke-linecap="round"/><polyline points="458,278 445,258" fill="none" stroke="#8a8f98" stroke-width="10" stroke-linecap="round"/><polyline points="321,295 371,277" fill="none" stroke="#8a8f98" stroke-width="3" stroke-linecap="round"/><polyline points="180,325 216,327" fill="none" stroke="#8a8f98" stroke-width="10" stroke-linecap="round"/><polyline points="364,303 432,266" fill="none" stroke="#8a8f98" stroke-width="10" stroke-linecap="round"/><polyline points="193,331 201,332" fill="none" stroke="#8a8f98" stroke-width="13" stroke-linecap="round"/><polyline points="161,341 101,333" fill="none" stroke="#8a8f98" stroke-width="13" stroke-linecap="round"/><polyline points="206,354 175,349" fill="none" stroke="#8a8f98" stroke-width="10" stroke-linecap="round"/><polyline points="175,349 149,347" fill="none" stroke="#8a8f98" stroke-width="10" stroke-linecap="round"/><polyline points="-35,337 -71,344" fill="none" stroke="#8a8f98" stroke-width="13" stroke-linecap="round"/><polyline points="225,348 198,345" fill="none" stroke="#8a8f98" stroke-width="13" stroke-linecap="round"/><polyline points="225,334 256,336 295,333 336,325" fill="none" stroke="#8a8f98" stroke-width="13" stroke-linecap="round"/><polyline points="101,333 57,330" fill="none" stroke="#8a8f98" stroke-width="13" stroke-linecap="round"/><polyline points="418,289 444,268" fill="none" stroke="#8a8f98" stroke-width="13" stroke-linecap="round"/><polyline points="57,330 39,330" fill="none" stroke="#8a8f98" stroke-width="13" stroke-linecap="round"/><polyline points="343,337 326,342 289,347 258,349 225,348" fill="none" stroke="#8a8f98" stroke-width="13" stroke-linecap="round"/><polyline points="472,269 458,278" fill="none" stroke="#8a8f98" stroke-width="10" stroke-linecap="round"/><polyline points="334,314 364,303" fill="none" stroke="#8a8f98" stroke-width="10" stroke-linecap="round"/><polyline points="432,266 445,258" fill="none" stroke="#8a8f98" stroke-width="10" stroke-linecap="round"/><polyline points="299,323 334,314" fill="none" stroke="#8a8f98" stroke-width="10" stroke-linecap="round"/><polyline points="216,327 255,327 299,323" fill="none" stroke="#8a8f98" stroke-width="10" stroke-linecap="round"/><polyline points="70,340 -3,340 -35,337" fill="none" stroke="#8a8f98" stroke-width="10" stroke-linecap="round"/><polyline points="92,317 120,320" fill="none" stroke="#8a8f98" stroke-width="13" stroke-linecap="round"/><polyline points="49,314 92,317" fill="none" stroke="#8a8f98" stroke-width="13" stroke-linecap="round"/><polyline points="149,347 70,340" fill="none" stroke="#8a8f98" stroke-width="10" stroke-linecap="round"/><polyline points="407,294 418,289" fill="none" stroke="#8a8f98" stroke-width="13" stroke-linecap="round"/><polyline points="-5,315 49,314" fill="none" stroke="#8a8f98" stroke-width="13" stroke-linecap="round"/><polyline points="39,330 -35,337" fill="none" stroke="#8a8f98" stroke-width="13" stroke-linecap="round"/><polyline points="336,325 362,316 407,294" fill="none" stroke="#8a8f98" stroke-width="13" stroke-linecap="round"/><polyline points="129,288 95,296 52,290 43,298 49,314" fill="none" stroke="#8a8f98" stroke-width="3" stroke-linecap="round"/><polyline points="440,220 465,227 475,238" fill="none" stroke="#8a8f98" stroke-width="3" stroke-linecap="round"/><polyline points="480,281 440,308" fill="none" stroke="#8a8f98" stroke-width="5" stroke-linecap="round"/><polyline points="587,210 510,250 399,316 368,330 343,337" fill="none" stroke="#8a8f98" stroke-width="13" stroke-linecap="round"/><polyline points="418,289 431,286 503,241 562,208" fill="none" stroke="#8a8f98" stroke-width="13" stroke-linecap="round"/><polyline points="445,258 475,238" fill="none" stroke="#8a8f98" stroke-width="10" stroke-linecap="round"/><polyline points="470,167 474,180 455,224" fill="none" stroke="#8a8f98" stroke-width="3" stroke-linecap="round"/><polyline points="444,268 498,233 556,201" fill="none" stroke="#8a8f98" stroke-width="13" stroke-linecap="round"/><polyline points="472,269 480,281" fill="none" stroke="#8a8f98" stroke-width="5" stroke-linecap="round"/><polyline points="489,260 472,269" fill="none" stroke="#8a8f98" stroke-width="10" stroke-linecap="round"/><polyline points="-197,278 -161,287 -118,310 -98,317 -28,314 -5,315" fill="none" stroke="#8a8f98" stroke-width="8" stroke-linecap="round"/><polyline points="697,428 721,403 803,344 822,328" fill="none" stroke="#8a8f98" stroke-width="10" stroke-linecap="round"/><polyline points="628,358 625,369 619,371 612,366" fill="none" stroke="#8a8f98" stroke-width="10" stroke-linecap="round"/><polyline points="1098,196 1111,206 1116,215 1138,329 1137,339 1128,348 1037,398 1023,403 971,402 949,393 946,388 950,350 1000,333" fill="none" stroke="#8a8f98" stroke-width="5" stroke-linecap="round"/><polyline points="831,335 800,362" fill="none" stroke="#8a8f98" stroke-width="10" stroke-linecap="round"/><polyline points="628,358 641,380" fill="none" stroke="#8a8f98" stroke-width="10" stroke-linecap="round"/><polyline points="860,355 887,364 888,368 880,379 858,368" fill="none" stroke="#8a8f98" stroke-width="3" stroke-linecap="round"/><polyline points="480,281 484,292 497,374" fill="none" stroke="#8a8f98" stroke-width="5" stroke-linecap="round"/><polyline points="612,366 593,340" fill="none" stroke="#8a8f98" stroke-width="10" stroke-linecap="round"/><polyline points="652,402 675,415 683,416 721,403" fill="none" stroke="#8a8f98" stroke-width="10" stroke-linecap="round"/><polyline points="497,374 503,401 530,415" fill="none" stroke="#8a8f98" stroke-width="5" stroke-linecap="round"/><polyline points="666,554 696,560 725,575" fill="none" stroke="#8a8f98" stroke-width="8" stroke-linecap="round"/><polyline points="653,518 649,483" fill="none" stroke="#8a8f98" stroke-width="10" stroke-linecap="round"/><polyline points="686,464 671,504" fill="none" stroke="#8a8f98" stroke-width="10" stroke-linecap="round"/><polyline points="544,491 586,490" fill="none" stroke="#8a8f98" stroke-width="3" stroke-linecap="round"/><polyline points="530,415 527,399 521,388 497,374" fill="none" stroke="#8a8f98" stroke-width="3" stroke-linecap="round"/><polyline points="873,563 882,660 892,700 920,763 918,773 909,775" fill="none" stroke="#8a8f98" stroke-width="5" stroke-linecap="round"/><polyline points="599,554 592,554" fill="none" stroke="#8a8f98" stroke-width="5" stroke-linecap="round"/><polyline points="644,556 654,554" fill="none" stroke="#8a8f98" stroke-width="5" stroke-linecap="round"/><polyline points="654,554 653,518" fill="none" stroke="#8a8f98" stroke-width="10" stroke-linecap="round"/><polyline points="666,597 661,671" fill="none" stroke="#8a8f98" stroke-width="10" stroke-linecap="round"/><polyline points="666,561 666,597" fill="none" stroke="#8a8f98" stroke-width="10" stroke-linecap="round"/><polyline points="706,572 695,567 666,561" fill="none" stroke="#8a8f98" stroke-width="8" stroke-linecap="round"/><polyline points="706,572 694,573 681,578 666,597" fill="none" stroke="#8a8f98" stroke-width="10" stroke-linecap="round"/><polyline points="666,554 666,561" fill="none" stroke="#8a8f98" stroke-width="10" stroke-linecap="round"/><polyline points="666,561 654,560" fill="none" stroke="#8a8f98" stroke-width="8" stroke-linecap="round"/><polyline points="654,656 654,633" fill="none" stroke="#8a8f98" stroke-width="10" stroke-linecap="round"/><polyline points="654,633 654,560" fill="none" stroke="#8a8f98" stroke-width="10" stroke-linecap="round"/><polyline points="623,385 612,366" fill="none" stroke="#8a8f98" stroke-width="10" stroke-linecap="round"/><polyline points="652,402 663,422" fill="none" stroke="#8a8f98" stroke-width="10" stroke-linecap="round"/><polyline points="800,362 798,363" fill="none" stroke="#8a8f98" stroke-width="10" stroke-linecap="round"/><polyline points="737,407 718,421 705,435" fill="none" stroke="#8a8f98" stroke-width="10" stroke-linecap="round"/><polyline points="671,504 666,539 666,554" fill="none" stroke="#8a8f98" stroke-width="10" stroke-linecap="round"/><polyline points="800,586 815,580 848,558 864,555" fill="none" stroke="#8a8f98" stroke-width="8" stroke-linecap="round"/><polyline points="924,553 977,550 997,546 1020,538" fill="none" stroke="#8a8f98" stroke-width="8" stroke-linecap="round"/><polyline points="644,556 620,555" fill="none" stroke="#8a8f98" stroke-width="5" stroke-linecap="round"/><polyline points="636,775 627,746 624,715 635,587 629,576" fill="none" stroke="#8a8f98" stroke-width="5" stroke-linecap="round"/><polyline points="630,454 634,468 634,519 630,531 621,546 620,555" fill="none" stroke="#8a8f98" stroke-width="3" stroke-linecap="round"/><polyline points="653,518 671,468 679,451" fill="none" stroke="#8a8f98" stroke-width="10" stroke-linecap="round"/><polyline points="679,451 686,464" fill="none" stroke="#8a8f98" stroke-width="10" stroke-linecap="round"/><polyline points="654,554 666,554" fill="none" stroke="#8a8f98" stroke-width="8" stroke-linecap="round"/><polyline points="654,560 654,554" fill="none" stroke="#8a8f98" stroke-width="10" stroke-linecap="round"/><polyline points="864,555 872,555" fill="none" stroke="#8a8f98" stroke-width="8" stroke-linecap="round"/><polyline points="864,563 854,564 828,580 803,592 778,598" fill="none" stroke="#8a8f98" stroke-width="8" stroke-linecap="round"/><polyline points="873,563 864,563" fill="none" stroke="#8a8f98" stroke-width="8" stroke-linecap="round"/><polyline points="864,563 864,555" fill="none" stroke="#8a8f98" stroke-width="5" stroke-linecap="round"/><polyline points="872,555 873,563" fill="none" stroke="#8a8f98" stroke-width="5" stroke-linecap="round"/><polyline points="924,553 925,488 921,476 912,473" fill="none" stroke="#8a8f98" stroke-width="5" stroke-linecap="round"/><polyline points="679,451 697,428" fill="none" stroke="#8a8f98" stroke-width="10" stroke-linecap="round"/><polyline points="705,435 686,464" fill="none" stroke="#8a8f98" stroke-width="10" stroke-linecap="round"/><polyline points="663,422 679,451" fill="none" stroke="#8a8f98" stroke-width="10" stroke-linecap="round"/><polyline points="644,429 623,385" fill="none" stroke="#8a8f98" stroke-width="10" stroke-linecap="round"/><polyline points="649,483 648,446 644,429" fill="none" stroke="#8a8f98" stroke-width="10" stroke-linecap="round"/><polyline points="721,580 706,572" fill="none" stroke="#8a8f98" stroke-width="8" stroke-linecap="round"/><polyline points="759,597 721,580" fill="none" stroke="#8a8f98" stroke-width="8" stroke-linecap="round"/><polyline points="872,555 924,553" fill="none" stroke="#8a8f98" stroke-width="8" stroke-linecap="round"/><polyline points="867,611 864,563" fill="none" stroke="#8a8f98" stroke-width="5" stroke-linecap="round"/><polyline points="760,391 737,407" fill="none" stroke="#8a8f98" stroke-width="10" stroke-linecap="round"/><polyline points="620,555 599,554" fill="none" stroke="#8a8f98" stroke-width="5" stroke-linecap="round"/><polyline points="592,554 586,553" fill="none" stroke="#8a8f98" stroke-width="5" stroke-linecap="round"/><polyline points="567,636 556,666 556,679" fill="none" stroke="#8a8f98" stroke-width="5" stroke-linecap="round"/><polyline points="586,553 585,586 567,636" fill="none" stroke="#8a8f98" stroke-width="5" stroke-linecap="round"/><polyline points="586,490 586,553" fill="none" stroke="#8a8f98" stroke-width="5" stroke-linecap="round"/><polyline points="530,415 553,427 577,449 586,465 586,490" fill="none" stroke="#8a8f98" stroke-width="5" stroke-linecap="round"/><polyline points="778,598 759,597" fill="none" stroke="#8a8f98" stroke-width="8" stroke-linecap="round"/><polyline points="641,380 652,402" fill="none" stroke="#8a8f98" stroke-width="10" stroke-linecap="round"/><polyline points="769,591 800,586" fill="none" stroke="#8a8f98" stroke-width="8" stroke-linecap="round"/><polyline points="725,575 751,587" fill="none" stroke="#8a8f98" stroke-width="8" stroke-linecap="round"/><polyline points="629,576 622,564 620,555" fill="none" stroke="#8a8f98" stroke-width="5" stroke-linecap="round"/><polyline points="949,558 873,563" fill="none" stroke="#8a8f98" stroke-width="8" stroke-linecap="round"/><polyline points="1012,550 996,555 949,558" fill="none" stroke="#8a8f98" stroke-width="8" stroke-linecap="round"/><polyline points="654,560 644,556" fill="none" stroke="#8a8f98" stroke-width="5" stroke-linecap="round"/><polyline points="925,488 934,429 953,435" fill="none" stroke="#8a8f98" stroke-width="3" stroke-linecap="round"/><polyline points="751,587 755,504 776,474 822,457 846,437 848,416 804,370" fill="none" stroke="#8a8f98" stroke-width="3" stroke-linecap="round"/><polyline points="751,587 769,591" fill="none" stroke="#8a8f98" stroke-width="8" stroke-linecap="round"/><polyline points="804,370 816,371 846,362" fill="none" stroke="#8a8f98" stroke-width="3" stroke-linecap="round"/><polyline points="798,363 760,391" fill="none" stroke="#8a8f98" stroke-width="10" stroke-linecap="round"/><polyline points="909,775 901,759 878,683 867,611" fill="none" stroke="#8a8f98" stroke-width="5" stroke-linecap="round"/><polyline points="906,561 905,553" fill="none" stroke="#8a8f98" stroke-width="8" stroke-linecap="round"/><polyline points="722,93 751,65" fill="none" stroke="#8a8f98" stroke-width="10" stroke-linecap="round"/><polyline points="858,202 865,235 865,256 863,275 858,293 851,308" fill="none" stroke="#8a8f98" stroke-width="10" stroke-linecap="round"/><polyline points="754,52 749,45 746,36 740,1" fill="none" stroke="#8a8f98" stroke-width="10" stroke-linecap="round"/><polyline points="516,212 533,204" fill="none" stroke="#8a8f98" stroke-width="10" stroke-linecap="round"/><polyline points="528,237 515,244" fill="none" stroke="#8a8f98" stroke-width="10" stroke-linecap="round"/><polyline points="790,-180 790,-150 784,-42" fill="none" stroke="#8a8f98" stroke-width="10" stroke-linecap="round"/><polyline points="671,97 589,134 561,156" fill="none" stroke="#8a8f98" stroke-width="5" stroke-linecap="round"/><polyline points="696,-23 639,-15" fill="none" stroke="#8a8f98" stroke-width="5" stroke-linecap="round"/><polyline points="701,27 646,34" fill="none" stroke="#8a8f98" stroke-width="5" stroke-linecap="round"/><polyline points="556,201 656,143" fill="none" stroke="#8a8f98" stroke-width="13" stroke-linecap="round"/><polyline points="834,41 763,88" fill="none" stroke="#8a8f98" stroke-width="10" stroke-linecap="round"/><polyline points="609,192 590,215" fill="none" stroke="#8a8f98" stroke-width="10" stroke-linecap="round"/><polyline points="593,340 591,328 592,323 600,320 607,325" fill="none" stroke="#8a8f98" stroke-width="10" stroke-linecap="round"/><polyline points="475,238 516,212" fill="none" stroke="#8a8f98" stroke-width="10" stroke-linecap="round"/><polyline points="763,97 785,87 823,63 847,42 870,18" fill="none" stroke="#8a8f98" stroke-width="13" stroke-linecap="round"/><polyline points="775,110 701,152 587,210" fill="none" stroke="#8a8f98" stroke-width="13" stroke-linecap="round"/><polyline points="877,24 846,59 805,91 775,110" fill="none" stroke="#8a8f98" stroke-width="13" stroke-linecap="round"/><polyline points="772,-51 765,28 759,65 749,91 731,117 696,145" fill="none" stroke="#8a8f98" stroke-width="13" stroke-linecap="round"/><polyline points="609,192 546,227" fill="none" stroke="#8a8f98" stroke-width="10" stroke-linecap="round"/><polyline points="593,299 607,325" fill="none" stroke="#8a8f98" stroke-width="10" stroke-linecap="round"/><polyline points="779,20 775,52" fill="none" stroke="#8a8f98" stroke-width="10" stroke-linecap="round"/><polyline points="763,88 752,102 730,120" fill="none" stroke="#8a8f98" stroke-width="10" stroke-linecap="round"/><polyline points="779,20 789,37 797,42 807,44" fill="none" stroke="#8a8f98" stroke-width="10" stroke-linecap="round"/><polyline points="541,259 529,249 515,244" fill="none" stroke="#8a8f98" stroke-width="10" stroke-linecap="round"/><polyline points="741,230 736,236 703,236" fill="none" stroke="#8a8f98" stroke-width="3" stroke-linecap="round"/><polyline points="588,219 601,314" fill="none" stroke="#8a8f98" stroke-width="3" stroke-linecap="round"/><polyline points="743,213 717,212 712,208 710,201 714,196 732,194" fill="none" stroke="#8a8f98" stroke-width="3" stroke-linecap="round"/><polyline points="741,230 758,233 830,223 828,214" fill="none" stroke="#8a8f98" stroke-width="3" stroke-linecap="round"/><polyline points="533,204 595,169" fill="none" stroke="#8a8f98" stroke-width="10" stroke-linecap="round"/><polyline points="533,204 546,227" fill="none" stroke="#8a8f98" stroke-width="10" stroke-linecap="round"/><polyline points="595,169 667,133" fill="none" stroke="#8a8f98" stroke-width="10" stroke-linecap="round"/><polyline points="519,207 538,184 549,179 580,175" fill="none" stroke="#8a8f98" stroke-width="3" stroke-linecap="round"/><polyline points="519,207 555,186 580,175" fill="none" stroke="#8a8f98" stroke-width="3" stroke-linecap="round"/><polyline points="683,124 671,97" fill="none" stroke="#8a8f98" stroke-width="5" stroke-linecap="round"/><polyline points="671,97 668,91 660,87 615,81" fill="none" stroke="#8a8f98" stroke-width="5" stroke-linecap="round"/><polyline points="823,244 825,268 810,287 733,345 707,347" fill="none" stroke="#8a8f98" stroke-width="3" stroke-linecap="round"/><polyline points="593,340 574,311" fill="none" stroke="#8a8f98" stroke-width="10" stroke-linecap="round"/><polyline points="541,259 528,237" fill="none" stroke="#8a8f98" stroke-width="10" stroke-linecap="round"/><polyline points="683,124 707,109" fill="none" stroke="#8a8f98" stroke-width="10" stroke-linecap="round"/><polyline points="667,133 683,124" fill="none" stroke="#8a8f98" stroke-width="10" stroke-linecap="round"/><polyline points="740,1 749,-71" fill="none" stroke="#8a8f98" stroke-width="10" stroke-linecap="round"/><polyline points="904,-10 872,11 834,41" fill="none" stroke="#8a8f98" stroke-width="10" stroke-linecap="round"/><polyline points="957,-41 937,-28" fill="none" stroke="#8a8f98" stroke-width="10" stroke-linecap="round"/><polyline points="839,302 845,288 853,256 850,216" fill="none" stroke="#8a8f98" stroke-width="10" stroke-linecap="round"/><polyline points="822,328 839,302" fill="none" stroke="#8a8f98" stroke-width="10" stroke-linecap="round"/><polyline points="851,308 831,335" fill="none" stroke="#8a8f98" stroke-width="10" stroke-linecap="round"/><polyline points="552,236 593,299" fill="none" stroke="#8a8f98" stroke-width="10" stroke-linecap="round"/><polyline points="590,215 586,227 584,259 586,274 593,299" fill="none" stroke="#8a8f98" stroke-width="10" stroke-linecap="round"/><polyline points="515,244 489,260" fill="none" stroke="#8a8f98" stroke-width="10" stroke-linecap="round"/><polyline points="546,227 528,237" fill="none" stroke="#8a8f98" stroke-width="10" stroke-linecap="round"/><polyline points="546,227 552,236" fill="none" stroke="#8a8f98" stroke-width="10" stroke-linecap="round"/><polyline points="528,237 516,212" fill="none" stroke="#8a8f98" stroke-width="10" stroke-linecap="round"/><polyline points="607,325 620,345" fill="none" stroke="#8a8f98" stroke-width="10" stroke-linecap="round"/><polyline points="775,52 807,44" fill="none" stroke="#8a8f98" stroke-width="10" stroke-linecap="round"/><polyline points="834,41 792,59 775,60" fill="none" stroke="#8a8f98" stroke-width="10" stroke-linecap="round"/><polyline points="829,35 840,26 905,-40" fill="none" stroke="#8a8f98" stroke-width="10" stroke-linecap="round"/><polyline points="700,237 653,241" fill="none" stroke="#8a8f98" stroke-width="3" stroke-linecap="round"/><polyline points="937,-28 920,-19" fill="none" stroke="#8a8f98" stroke-width="10" stroke-linecap="round"/><polyline points="982,-52 957,-41" fill="none" stroke="#8a8f98" stroke-width="10" stroke-linecap="round"/><polyline points="905,-40 909,-45" fill="none" stroke="#8a8f98" stroke-width="10" stroke-linecap="round"/><polyline points="807,44 829,35" fill="none" stroke="#8a8f98" stroke-width="10" stroke-linecap="round"/><polyline points="775,60 763,88" fill="none" stroke="#8a8f98" stroke-width="10" stroke-linecap="round"/><polyline points="687,147 626,182" fill="none" stroke="#8a8f98" stroke-width="10" stroke-linecap="round"/><polyline points="775,60 763,57" fill="none" stroke="#8a8f98" stroke-width="10" stroke-linecap="round"/><polyline points="763,57 775,52" fill="none" stroke="#8a8f98" stroke-width="10" stroke-linecap="round"/><polyline points="775,52 775,60" fill="none" stroke="#8a8f98" stroke-width="10" stroke-linecap="round"/><polyline points="784,-42 781,-1" fill="none" stroke="#8a8f98" stroke-width="10" stroke-linecap="round"/><polyline points="781,-1 779,20" fill="none" stroke="#8a8f98" stroke-width="10" stroke-linecap="round"/><polyline points="701,27 703,52 699,70 692,81 671,97" fill="none" stroke="#8a8f98" stroke-width="5" stroke-linecap="round"/><polyline points="763,57 754,52" fill="none" stroke="#8a8f98" stroke-width="10" stroke-linecap="round"/><polyline points="751,65 763,57" fill="none" stroke="#8a8f98" stroke-width="10" stroke-linecap="round"/><polyline points="850,216 848,207" fill="none" stroke="#8a8f98" stroke-width="10" stroke-linecap="round"/><polyline points="663,344 620,345" fill="none" stroke="#8a8f98" stroke-width="3" stroke-linecap="round"/><polyline points="707,347 663,344" fill="none" stroke="#8a8f98" stroke-width="3" stroke-linecap="round"/><polyline points="696,-23 701,27" fill="none" stroke="#8a8f98" stroke-width="5" stroke-linecap="round"/><polyline points="693,-73 696,-23" fill="none" stroke="#8a8f98" stroke-width="5" stroke-linecap="round"/><polyline points="620,345 628,358" fill="none" stroke="#8a8f98" stroke-width="10" stroke-linecap="round"/><polyline points="626,182 609,192" fill="none" stroke="#8a8f98" stroke-width="10" stroke-linecap="round"/><polyline points="828,214 757,218 743,213" fill="none" stroke="#8a8f98" stroke-width="3" stroke-linecap="round"/><polyline points="860,355 859,340 870,316" fill="none" stroke="#8a8f98" stroke-width="3" stroke-linecap="round"/><polyline points="951,302 996,294" fill="none" stroke="#8a8f98" stroke-width="5" stroke-linecap="round"/><polyline points="722,93 733,55 740,1" fill="none" stroke="#8a8f98" stroke-width="10" stroke-linecap="round"/><polyline points="707,109 714,104" fill="none" stroke="#8a8f98" stroke-width="10" stroke-linecap="round"/><polyline points="574,311 541,259" fill="none" stroke="#8a8f98" stroke-width="10" stroke-linecap="round"/><polyline points="730,120 687,147" fill="none" stroke="#8a8f98" stroke-width="10" stroke-linecap="round"/><polyline points="714,104 722,93" fill="none" stroke="#8a8f98" stroke-width="10" stroke-linecap="round"/><polyline points="728,135 700,148 687,147" fill="none" stroke="#8a8f98" stroke-width="3" stroke-linecap="round"/><polyline points="848,207 835,182 822,133 822,121 825,113 830,108 857,95 868,87 894,56 909,28 916,-2 916,-16" fill="none" stroke="#8a8f98" stroke-width="10" stroke-linecap="round"/><polyline points="830,-151 839,-141 849,-137 880,-135 889,-132 896,-127 908,-114 913,-99 911,-76 914,-49" fill="none" stroke="#8a8f98" stroke-width="10" stroke-linecap="round"/><polyline points="914,-49 922,-56" fill="none" stroke="#8a8f98" stroke-width="10" stroke-linecap="round"/><polyline points="914,-49 920,-19" fill="none" stroke="#8a8f98" stroke-width="10" stroke-linecap="round"/><polyline points="909,-45 914,-49" fill="none" stroke="#8a8f98" stroke-width="10" stroke-linecap="round"/><polyline points="909,-45 906,-71 907,-105 899,-119 891,-125 881,-129 849,-132 838,-137 823,-149 818,-162" fill="none" stroke="#8a8f98" stroke-width="10" stroke-linecap="round"/><polyline points="920,-19 916,-16" fill="none" stroke="#8a8f98" stroke-width="10" stroke-linecap="round"/><polyline points="920,-19 919,12 915,30 900,57 874,89 860,101 835,111 826,121 826,133 838,181 858,202" fill="none" stroke="#8a8f98" stroke-width="10" stroke-linecap="round"/><polyline points="911,-14 904,-10" fill="none" stroke="#8a8f98" stroke-width="10" stroke-linecap="round"/><polyline points="916,-16 909,-45" fill="none" stroke="#8a8f98" stroke-width="10" stroke-linecap="round"/><polyline points="916,-16 911,-14" fill="none" stroke="#8a8f98" stroke-width="10" stroke-linecap="round"/><polyline points="562,208 694,134 718,115 729,102 739,83 751,45 758,-52" fill="none" stroke="#8a8f98" stroke-width="13" stroke-linecap="round"/><polyline points="696,145 587,210" fill="none" stroke="#8a8f98" stroke-width="13" stroke-linecap="round"/><polyline points="656,143 703,119 763,97" fill="none" stroke="#8a8f98" stroke-width="13" stroke-linecap="round"/><polyline points="1114,-58 1070,-73 1053,-75 1021,-74 990,-67 957,-52 925,-30 899,-6 877,24" fill="none" stroke="#8a8f98" stroke-width="13" stroke-linecap="round"/><polyline points="870,18 888,-8 916,-38 952,-61 987,-77 1020,-84 1054,-85 1088,-80 1119,-66" fill="none" stroke="#8a8f98" stroke-width="13" stroke-linecap="round"/><polyline points="1097,145 920,182 910,181 905,153" fill="none" stroke="#8a8f98" stroke-width="3" stroke-linecap="round"/><polyline points="1072,38 1070,72 1056,88 1028,101 1022,101 1015,97 1000,72 991,69 972,76 951,92" fill="none" stroke="#8a8f98" stroke-width="3" stroke-linecap="round"/><polygon points="722,150 736,148 743,156 745,183 702,187 703,223 708,223 708,219 737,217 738,234 719,235 719,228 702,230 703,238 713,237 714,245 655,251 654,243 700,238 700,230 690,231 689,211 672,214 672,212 662,213 662,210 640,212 639,201 698,196 695,188 681,190 680,187 677,187 676,180 697,177 699,169 703,169 703,174 710,173 709,163 723,162 722,150" fill="#c8c2b8" stroke="#00000033"/><polygon points="939,437 937,443 954,448 952,454 976,462 973,471 956,466 951,474 936,469 933,477 950,483 953,473 971,478 967,491 949,488 948,492 964,497 961,506 938,497 933,511 950,518 953,511 943,509 945,503 971,512 971,518 992,524 999,523 1001,517 1018,523 1020,515 1001,509 1002,504 999,503 1000,501 978,494 981,485 1000,491 1003,483 984,477 988,466 1005,471 1007,465 977,455 979,450 996,456 998,449 981,444 974,459 972,458 974,452 961,448 959,443 939,437" fill="#c8c2b8" stroke="#00000033"/><polygon points="799,111 808,130 779,146 781,150 817,147 817,163 768,169 747,145 754,138 752,134 799,111" fill="#c8c2b8" stroke="#00000033"/><polygon points="581,375 598,452 631,434 613,401 609,403 605,397 601,380 594,382 591,371 581,375" fill="#c8c2b8" stroke="#00000033"/><polygon points="618,476 627,476 627,493 618,494 618,542 600,542 599,454 623,454 623,458 618,458 618,476" fill="#c8c2b8" stroke="#00000033"/><polygon points="943,271 937,243 985,231 992,259 943,271" fill="#c8c2b8" stroke="#00000033"/><polygon points="826,210 832,215 834,225 759,235 758,219 826,210" fill="#c8c2b8" stroke="#00000033"/><polygon points="507,305 496,309 493,298 521,288 526,300 524,336 517,340 516,349 505,349 507,305" fill="#c8c2b8" stroke="#00000033"/><polygon points="730,316 753,293 766,306 760,317 749,326 738,318 733,322 736,326 739,324 743,331 719,345 715,333 711,335 707,329 725,316 730,316" fill="#c8c2b8" stroke="#00000033"/><polygon points="441,357 447,387 412,395 406,364 441,357" fill="#c8c2b8" stroke="#00000033"/><polygon points="789,280 793,277 788,269 791,262 802,255 803,257 809,253 821,267 795,284 794,291 791,293 787,290 783,295 786,301 778,307 765,295 768,286 783,273 789,278 786,280 789,280" fill="#c8c2b8" stroke="#00000033"/><polygon points="532,390 565,376 572,394 568,395 579,420 566,426 555,400 539,406 532,390" fill="#c8c2b8" stroke="#00000033"/><polygon points="597,620 627,620 628,641 623,641 623,650 598,650 597,620" fill="#c8c2b8" stroke="#00000033"/><polygon points="490,594 489,628 509,628 517,595 490,594" fill="#c8c2b8" stroke="#00000033"/><polygon points="613,226 614,241 606,242 604,220 634,217 638,255 619,256 618,249 628,248 626,225 613,226" fill="#c8c2b8" stroke="#00000033"/><polygon points="521,345 535,326 557,342 543,361 521,345" fill="#c8c2b8" stroke="#00000033"/><polygon points="889,422 879,406 907,387 917,403 889,422" fill="#c8c2b8" stroke="#00000033"/><polygon points="496,446 508,413 523,420 517,434 521,435 513,453 496,446" fill="#c8c2b8" stroke="#00000033"/><polygon points="530,627 549,635 545,645 534,640 532,645 554,655 552,661 548,659 547,662 517,649 530,627" fill="#c8c2b8" stroke="#00000033"/><polygon points="493,466 493,476 489,476 490,481 496,480 497,489 473,491 473,487 464,487 463,476 472,476 471,467 493,466" fill="#c8c2b8" stroke="#00000033"/><polygon points="694,366 703,372 693,381 691,377 689,378 691,384 682,386 663,378 654,363 667,359 671,367 686,371 688,377 691,376 688,370 694,366" fill="#c8c2b8" stroke="#00000033"/><polygon points="454,360 461,358 461,354 457,355 455,344 470,341 472,352 468,353 469,357 481,354 484,367 465,370 466,378 459,379 454,360" fill="#c8c2b8" stroke="#00000033"/><polygon points="863,157 876,156 876,160 879,159 878,155 891,154 892,162 885,163 886,173 893,172 894,180 884,181 883,177 881,178 881,182 867,184 866,176 871,175 870,166 864,167 863,157" fill="#c8c2b8" stroke="#00000033"/><polygon points="408,359 406,352 411,351 410,346 418,344 417,339 443,334 446,351 408,359" fill="#c8c2b8" stroke="#00000033"/><polygon points="957,310 983,305 988,327 962,332 957,310" fill="#c8c2b8" stroke="#00000033"/><polygon points="511,455 548,455 548,459 538,459 538,465 544,465 544,470 538,470 538,480 528,480 528,470 520,470 520,477 512,477 512,466 520,466 520,462 511,462 511,455" fill="#c8c2b8" stroke="#00000033"/><polygon points="723,466 710,520 700,517 713,464 723,466" fill="#c8c2b8" stroke="#00000033"/><polygon points="432,153 435,159 443,159 455,174 467,165 456,143 438,148 432,153" fill="#c8c2b8" stroke="#00000033"/><polygon points="546,526 546,541 578,541 578,535 585,535 585,531 579,531 579,525 546,526" fill="#c8c2b8" stroke="#00000033"/><polygon points="857,623 860,623 860,628 862,627 858,651 846,652 844,615 857,615 857,623" fill="#c8c2b8" stroke="#00000033"/><polygon points="924,130 934,128 937,131 936,127 947,125 949,133 942,135 945,144 951,143 952,152 942,154 941,150 938,151 939,154 928,157 926,148 933,147 931,137 926,138 924,130" fill="#c8c2b8" stroke="#00000033"/><polygon points="403,669 403,666 408,667 409,671 406,674 401,672 409,678 397,697 391,693 395,682 389,677 388,672 398,653 407,648 409,653 404,654 399,662 403,669" fill="#c8c2b8" stroke="#00000033"/><polygon points="461,599 469,601 469,598 477,598 479,604 483,604 482,619 476,619 475,630 461,630 465,603 461,603 461,599" fill="#c8c2b8" stroke="#00000033"/><polygon points="667,314 684,308 695,308 697,316 694,318 697,318 699,325 671,330 669,323 673,322 669,322 667,314" fill="#c8c2b8" stroke="#00000033"/><polygon points="327,663 329,663 333,642 340,644 334,665 337,666 341,656 345,657 343,668 348,669 347,674 340,672 339,675 345,677 340,684 323,679 327,663" fill="#c8c2b8" stroke="#00000033"/><polygon points="979,567 980,583 949,586 947,570 979,567" fill="#c8c2b8" stroke="#00000033"/><polygon points="370,643 383,638 397,645 384,670 369,650 370,643" fill="#c8c2b8" stroke="#00000033"/><polygon points="900,203 911,201 912,204 914,201 927,199 928,207 920,208 921,216 929,215 930,222 918,223 916,221 916,224 904,225 903,218 910,217 909,210 901,211 900,203" fill="#c8c2b8" stroke="#00000033"/><polygon points="587,617 586,632 582,632 581,656 564,655 579,617 587,617" fill="#c8c2b8" stroke="#00000033"/><polygon points="450,455 474,448 475,452 479,450 480,456 484,455 486,462 462,469 460,462 452,464 450,455" fill="#c8c2b8" stroke="#00000033"/><polygon points="648,309 643,315 646,323 651,322 652,328 646,328 647,338 641,338 636,315 624,301 629,297 634,302 639,297 648,309" fill="#c8c2b8" stroke="#00000033"/><polygon points="731,511 726,536 709,532 715,507 731,511" fill="#c8c2b8" stroke="#00000033"/><polygon points="470,536 465,536 465,527 470,527 470,520 494,520 494,525 480,525 480,533 494,533 494,540 470,540 470,536" fill="#c8c2b8" stroke="#00000033"/><polygon points="489,495 490,515 475,516 474,509 467,509 466,496 489,495" fill="#c8c2b8" stroke="#00000033"/><polygon points="119,469 120,449 127,450 126,461 136,462 136,450 143,451 143,463 150,464 150,471 119,469" fill="#c8c2b8" stroke="#00000033"/><polygon points="732,509 742,467 751,469 741,511 732,509" fill="#c8c2b8" stroke="#00000033"/><polygon points="331,450 350,437 357,442 357,435 361,435 362,454 352,451 341,458 339,455 336,457 331,450" fill="#c8c2b8" stroke="#00000033"/><polygon points="465,640 465,636 472,636 471,664 454,657 455,640 465,640" fill="#c8c2b8" stroke="#00000033"/><polygon points="916,512 887,512 887,500 912,498 915,500 916,512" fill="#c8c2b8" stroke="#00000033"/><polygon points="119,358 136,357 140,363 143,363 143,369 141,372 117,372 114,361 119,358" fill="#c8c2b8" stroke="#00000033"/><polygon points="466,542 477,542 476,566 481,566 480,574 475,574 475,579 468,578 466,565 468,559 472,559 472,554 466,554 466,542" fill="#c8c2b8" stroke="#00000033"/><polygon points="54,571 57,577 60,574 62,585 60,587 67,593 63,595 58,589 56,592 50,587 52,582 48,570 36,569 37,562 60,565 59,572 54,571" fill="#c8c2b8" stroke="#00000033"/><polygon points="167,390 165,381 171,379 167,373 170,372 163,373 161,368 164,367 162,361 170,359 171,364 174,363 177,367 182,385 167,390" fill="#c8c2b8" stroke="#00000033"/><polygon points="520,496 521,517 515,518 514,508 513,515 506,515 503,496 509,496 509,492 517,492 517,496 520,496" fill="#c8c2b8" stroke="#00000033"/><polygon points="549,601 552,623 534,623 534,609 537,609 537,601 549,601" fill="#c8c2b8" stroke="#00000033"/><polygon points="539,83 547,77 567,103 559,109 539,83" fill="#c8c2b8" stroke="#00000033"/><polygon points="826,550 826,542 868,541 869,548 826,550" fill="#c8c2b8" stroke="#00000033"/><polygon points="530,498 537,497 539,502 547,502 547,510 539,510 539,522 528,522 528,503 530,503 530,498" fill="#c8c2b8" stroke="#00000033"/><polygon points="380,617 394,624 392,629 402,634 398,642 374,629 380,617" fill="#c8c2b8" stroke="#00000033"/><polygon points="139,617 148,625 126,649 120,643 133,629 131,626 139,617" fill="#c8c2b8" stroke="#00000033"/><polygon points="106,606 119,618 106,629 102,625 99,629 92,623 99,614 101,616 101,612 106,606" fill="#c8c2b8" stroke="#00000033"/><polygon points="615,592 615,616 604,616 604,599 597,599 597,592 615,592" fill="#c8c2b8" stroke="#00000033"/><polygon points="601,566 612,567 611,581 621,582 621,589 599,587 601,566" fill="#c8c2b8" stroke="#00000033"/><polygon points="120,376 144,375 144,390 135,391 135,382 127,383 128,391 121,391 120,376" fill="#c8c2b8" stroke="#00000033"/><polygon points="520,568 520,576 515,579 510,576 510,570 507,570 507,586 502,586 502,562 515,562 515,568 523,565 526,568 523,571 520,568" fill="#c8c2b8" stroke="#00000033"/><polygon points="202,405 209,389 224,398 222,404 225,405 222,411 202,405" fill="#c8c2b8" stroke="#00000033"/><polygon points="886,487 887,478 919,480 918,489 886,487" fill="#c8c2b8" stroke="#00000033"/><polygon points="468,2 447,-18 454,-25 475,-5 468,2" fill="#c8c2b8" stroke="#00000033"/><polygon points="70,469 79,479 74,486 68,482 63,489 69,493 65,498 53,492 70,469" fill="#c8c2b8" stroke="#00000033"/><polygon points="954,531 928,534 930,545 955,542 954,531" fill="#c8c2b8" stroke="#00000033"/><polygon points="884,571 896,570 897,594 885,594 884,571" fill="#c8c2b8" stroke="#00000033"/><polygon points="323,464 322,470 315,468 315,461 324,456 315,456 316,449 328,450 329,459 337,467 330,474 326,469 329,467 325,462 323,464" fill="#c8c2b8" stroke="#00000033"/><polygon points="529,432 533,434 535,429 541,432 539,437 549,442 546,448 536,444 533,449 523,444 529,432" fill="#c8c2b8" stroke="#00000033"/><polygon points="649,67 649,72 640,73 640,64 652,64 651,61 664,60 665,76 658,77 658,72 653,73 652,67 649,67" fill="#c8c2b8" stroke="#00000033"/><polyline points="-40,496 37,548 53,559 75,562 111,468 117,440 143,447 177,484 201,467 191,440 161,392 151,370 149,347 253,362 332,358 364,347 405,326 439,291 515,244 529,249 541,259 612,366 619,371 625,369 628,358 686,464 718,421 811,353 835,331 851,308 863,275 865,235 858,202 838,181" fill="none" stroke="#ffdd44" stroke-width="6" opacity="0.85"/><circle cx="-40" cy="496" r="10" fill="#a0f"/><circle cx="838" cy="181" r="10" fill="#f00"/><path d="M-165.30011039175525,614.789465384024 L-149.30011039175525,614.789465384024 M-157.30011039175525,606.789465384024 L-157.30011039175525,622.789465384024" stroke="#0ff" stroke-width="2"/><path d="M852.0788519167091,160.60242863901306 L868.0788519167091,160.60242863901306 M860.0788519167091,152.60242863901306 L860.0788519167091,168.60242863901306" stroke="#0ff" stroke-width="2"/><rect x="29" y="456" width="22" height="16" fill="#b8c2cc" stroke="#333"/><rect x="149" y="540" width="22" height="16" fill="#b8c2cc" stroke="#333"/><rect x="65" y="408" width="22" height="16" fill="#b8c2cc" stroke="#333"/><rect x="209" y="504" width="22" height="16" fill="#b8c2cc" stroke="#333"/><rect x="233" y="408" width="22" height="16" fill="#b8c2cc" stroke="#333"/><rect x="209" y="300" width="22" height="16" fill="#b8c2cc" stroke="#333"/><rect x="281" y="288" width="22" height="16" fill="#b8c2cc" stroke="#333"/><rect x="365" y="384" width="22" height="16" fill="#b8c2cc" stroke="#333"/><rect x="413" y="240" width="22" height="16" fill="#b8c2cc" stroke="#333"/><rect x="509" y="180" width="22" height="16" fill="#b8c2cc" stroke="#333"/><rect x="653" y="276" width="22" height="16" fill="#b8c2cc" stroke="#333"/><rect x="677" y="348" width="22" height="16" fill="#b8c2cc" stroke="#333"/><rect x="761" y="444" width="22" height="16" fill="#b8c2cc" stroke="#333"/><rect x="809" y="396" width="22" height="16" fill="#b8c2cc" stroke="#333"/><rect x="869" y="336" width="22" height="16" fill="#b8c2cc" stroke="#333"/><rect x="905" y="252" width="22" height="16" fill="#b8c2cc" stroke="#333"/><circle cx="458" cy="186" r="6" fill="#e8862a" stroke="#333"/><text x="251" y="115" font-size="13" fill="#fff" text-anchor="middle" stroke="#000" stroke-width="0.4">MacRitchie Reservoir</text><text x="480" y="20" font-size="16" fill="#fff" text-anchor="middle">15: MacRitchie Trail</text></svg>