<svg xmlns="http://www.w3.org/2000/svg" width="960" height="600" viewBox="0 0 960 600"><rect width="960" height="600" fill="#6aa03c"/><polygon points="127,664 257,738 265,738 273,733 279,721 280,711 173,575 163,580 127,664" fill="#4c8a2c" opacity="0.7"/><polygon points="378,428 410,444 375,498 344,479 356,453 378,428" fill="#9aa0a8"/><polygon points="745,610 771,620 760,647 735,637 745,610" fill="#3d8b46" stroke="#fff"/><polygon points="737,639 759,647 754,659 733,651 737,639" fill="#3d8b46" stroke="#fff"/><polygon points="19,444 6,460 14,467 27,451 19,444" fill="#3d8b46" stroke="#fff"/><polygon points="-48,519 -56,512 -42,497 -34,503 -48,519" fill="#3d8b46" stroke="#fff"/><polygon points="-29,498 -37,492 -24,477 -16,483 -29,498" fill="#3d8b46" stroke="#fff"/><polygon points="150,570 132,560 137,552 155,562 150,570" fill="#3d8b46" stroke="#fff"/><polygon points="39,422 45,427 32,443 25,437 39,422" fill="#3d8b46" stroke="#fff"/><polygon points="92,593 95,587 100,585 103,607 85,611 83,604 92,593" fill="#3ec6e8"/><polygon points="764,565 783,572 768,614 749,607 764,565" fill="#3ec6e8"/><polygon points="-41,398 -48,397 -49,406 -54,412 -53,420 -46,424 -38,421 -39,406 -28,403 -32,396 -41,398" fill="#3ec6e8"/><polygon points="215,386 195,401 170,369 176,364 193,386 203,378 208,385 211,382 215,386" fill="#3ec6e8"/><polygon points="-9,535 12,536 12,547 7,549 8,545 4,542 -5,543 -9,535" fill="#3ec6e8"/><polygon points="51,487 45,493 46,499 49,500 56,495 62,500 66,499 67,495 63,489 51,487" fill="#3ec6e8"/><polygon points="274,148 268,165 267,210 260,225 253,231 255,239 261,245 257,254 242,271 249,283 248,301 252,310 276,311 301,295 311,293 316,298 323,299 327,293 336,291 346,299 379,297 409,275 425,261 435,248 457,232 472,232 488,221 496,213 510,188 508,181 509,171 501,168 500,148 475,133 469,118 442,104 429,95 417,99 415,110 407,120 398,126 366,121 342,104 318,122 316,134 286,147 274,148" fill="#2e7bb4"/><polyline points="86,677 11,633" fill="none" stroke="#8a8f98" stroke-width="13" stroke-linecap="round"/><polyline points="-35,596 -37,587 -30,577" fill="none" stroke="#8a8f98" stroke-width="13" stroke-linecap="round"/><polyline points="-30,577 0,607 36,632" fill="none" stroke="#8a8f98" stroke-width="13" stroke-linecap="round"/><polyline points="21,639 18,654 27,664 41,667 51,657" fill="none" stroke="#8a8f98" stroke-width="3" stroke-linecap="round"/><polyline points="11,633 0,646 -8,646 -21,640 -27,628 -25,605" fill="none" stroke="#8a8f98" stroke-width="3" stroke-linecap="round"/><polyline points="36,632 154,700" fill="none" stroke="#8a8f98" stroke-width="13" stroke-linecap="round"/><polyline points="11,633 -35,596" fill="none" stroke="#8a8f98" stroke-width="13" stroke-linecap="round"/><polyline points="330,621 319,656" fill="none" stroke="#8a8f98" stroke-width="5" stroke-linecap="round"/><polyline points="306,596 317,611 330,621" fill="none" stroke="#8a8f98" stroke-width="5" stroke-linecap="round"/><polyline points="267,680 216,615" fill="none" stroke="#8a8f98" stroke-width="5" stroke-linecap="round"/><polyline points="348,577 340,596" fill="none" stroke="#8a8f98" stroke-width="5" stroke-linecap="round"/><polyline points="340,596 330,621" fill="none" stroke="#8a8f98" stroke-width="5" stroke-linecap="round"/><polyline points="216,615 177,566" fill="none" stroke="#8a8f98" stroke-width="5" stroke-linecap="round"/><polyline points="837,612 817,613 813,606 819,599 839,604" fill="none" stroke="#8a8f98" stroke-width="3" stroke-linecap="round"/><polyline points="871,647 862,652" fill="none" stroke="#8a8f98" stroke-width="5" stroke-linecap="round"/><polyline points="951,563 907,618 871,647" fill="none" stroke="#8a8f98" stroke-width="5" stroke-linecap="round"/><polyline points="-163,378 -122,438 -51,551 -30,577" fill="none" stroke="#8a8f98" stroke-width="13" stroke-linecap="round"/><polyline points="257,441 275,553 306,596" fill="none" stroke="#8a8f98" stroke-width="5" stroke-linecap="round"/><polyline points="367,530 403,549" fill="none" stroke="#8a8f98" stroke-width="5" stroke-linecap="round"/><polyline points="1183,58 1180,78 1158,120 1125,166 1121,185 1116,335 1109,378 1095,422 1074,449 1072,473 1068,481 1060,486 998,499" fill="none" stroke="#8a8f98" stroke-width="5" stroke-linecap="round"/><polyline points="354,483 354,478 369,448 380,438" fill="none" stroke="#8a8f98" stroke-width="3" stroke-linecap="round"/><polyline points="153,580 -9,484 -23,501" fill="none" stroke="#8a8f98" stroke-width="3" stroke-linecap="round"/><polyline points="153,580 124,649 117,652 111,651 54,621 18,597 1,585 -23,559 -44,533 -44,528 -23,501" fill="none" stroke="#8a8f98" stroke-width="3" stroke-linecap="round"/><polyline points="839,604 859,539 784,508" fill="none" stroke="#8a8f98" stroke-width="3" stroke-linecap="round"/><polyline points="-35,596 -48,582 -64,559 -92,512" fill="none" stroke="#8a8f98" stroke-width="13" stroke-linecap="round"/><polyline points="177,566 62,420" fill="none" stroke="#8a8f98" stroke-width="5" stroke-linecap="round"/><polyline points="367,530 348,577" fill="none" stroke="#8a8f98" stroke-width="5" stroke-linecap="round"/><polyline points="379,502 367,530" fill="none" stroke="#8a8f98" stroke-width="5" stroke-linecap="round"/><polyline points="998,499 974,538 951,563" fill="none" stroke="#8a8f98" stroke-width="5" stroke-linecap="round"/><polyline points="5,347 -33,299" fill="none" stroke="#8a8f98" stroke-width="5" stroke-linecap="round"/><polyline points="-8,357 -34,319 -45,315 -49,317 -120,391 -124,399 -122,407 -72,491 -57,493 -47,491 -25,464 -19,464 -4,477" fill="none" stroke="#8a8f98" stroke-width="3" stroke-linecap="round"/><polyline points="235,398 249,417 257,441" fill="none" stroke="#8a8f98" stroke-width="5" stroke-linecap="round"/><polyline points="62,420 5,347" fill="none" stroke="#8a8f98" stroke-width="5" stroke-linecap="round"/><polyline points="17,481 48,443 54,440 62,441 144,544" fill="none" stroke="#8a8f98" stroke-width="3" stroke-linecap="round"/><polyline points="382,498 476,543" fill="none" stroke="#8a8f98" stroke-width="5" stroke-linecap="round"/><polyline points="498,-60 483,-35 443,-10 429,7 404,59 408,73 415,67" fill="none" stroke="#8a8f98" stroke-width="3" stroke-linecap="round"/><polyline points="442,406 391,484" fill="none" stroke="#8a8f98" stroke-width="3" stroke-linecap="round"/><polyline points="382,497 382,498" fill="none" stroke="#8a8f98" stroke-width="5" stroke-linecap="round"/><polyline points="391,484 382,497" fill="none" stroke="#8a8f98" stroke-width="5" stroke-linecap="round"/><polyline points="382,498 380,500" fill="none" stroke="#8a8f98" stroke-width="5" stroke-linecap="round"/><polyline points="482,350 458,388" fill="none" stroke="#8a8f98" stroke-width="3" stroke-linecap="round"/><polyline points="576,218 559,230 522,268 510,275 501,292 493,328 482,350" fill="none" stroke="#8a8f98" stroke-width="3" stroke-linecap="round"/><polyline points="575,159 579,210" fill="none" stroke="#8a8f98" stroke-width="3" stroke-linecap="round"/><polyline points="568,62 567,72 558,90 560,103 571,132 575,159" fill="none" stroke="#8a8f98" stroke-width="3" stroke-linecap="round"/><polyline points="554,-50 554,-41 543,-8 549,15 559,38" fill="none" stroke="#8a8f98" stroke-width="3" stroke-linecap="round"/><polyline points="476,543 429,523" fill="none" stroke="#8a8f98" stroke-width="5" stroke-linecap="round"/><polyline points="476,543 513,560" fill="none" stroke="#8a8f98" stroke-width="5" stroke-linecap="round"/><polyline points="429,523 380,500" fill="none" stroke="#8a8f98" stroke-width="5" stroke-linecap="round"/><polyline points="380,500 379,502" fill="none" stroke="#8a8f98" stroke-width="5" stroke-linecap="round"/><polygon points="807,525 793,573 858,592 871,544 807,525" fill="#c8c2b8" stroke="#00000033"/><polygon points="780,508 804,516 783,570 759,561 780,508" fill="#c8c2b8" stroke="#00000033"/><polygon points="778,619 812,629 801,664 768,654 778,619" fill="#c8c2b8" stroke="#00000033"/><polygon points="328,487 363,506 352,525 318,507 328,487" fill="#c8c2b8" stroke="#00000033"/><polygon points="140,380 147,383 149,379 150,381 148,374 156,368 166,382 158,388 154,383 152,384 155,387 149,387 152,394 145,399 134,384 136,381 133,383 128,376 131,373 129,372 127,374 121,367 140,348 147,355 138,371 134,367 132,369 139,375 140,380" fill="#c8c2b8" stroke="#00000033"/><polygon points="475,593 507,567 517,579 485,605 475,593" fill="#c8c2b8" stroke="#00000033"/><polygon points="414,612 454,603 458,618 418,627 414,612" fill="#c8c2b8" stroke="#00000033"/><polygon points="428,64 428,80 465,81 466,65 428,64" fill="#c8c2b8" stroke="#00000033"/><polygon points="208,338 219,351 210,356 214,360 221,354 227,361 220,367 216,363 214,365 220,373 214,378 192,352 198,346 205,353 207,352 201,345 208,338" fill="#c8c2b8" stroke="#00000033"/><polygon points="415,408 418,398 428,402 432,391 413,384 409,394 415,397 411,406 405,404 401,415 420,423 424,412 415,408" fill="#c8c2b8" stroke="#00000033"/><polygon points="316,514 351,535 345,546 319,532 320,529 311,524 316,514" fill="#c8c2b8" stroke="#00000033"/><polygon points="215,421 218,419 220,426 210,435 205,426 199,428 195,423 202,417 206,423 212,423 208,419 217,412 215,410 206,418 200,411 217,398 222,404 218,408 223,414 228,411 231,414 223,421 218,415 213,419 215,421" fill="#c8c2b8" stroke="#00000033"/><polygon points="-11,661 -5,650 -39,631 -45,641 -11,661" fill="#c8c2b8" stroke="#00000033"/><polygon points="159,364 173,350 167,344 161,350 159,348 162,345 157,345 162,341 155,333 141,347 148,354 153,349 153,355 156,351 158,353 153,358 159,364" fill="#c8c2b8" stroke="#00000033"/><polygon points="792,582 807,587 799,611 784,606 792,582" fill="#c8c2b8" stroke="#00000033"/><polygon points="175,348 188,335 182,329 176,334 174,332 177,330 172,330 177,325 170,318 156,331 163,338 168,333 168,339 171,336 173,338 169,342 175,348" fill="#c8c2b8" stroke="#00000033"/><polygon points="181,401 192,415 184,421 180,416 178,418 180,420 175,421 178,427 171,432 160,418 166,413 172,417 174,412 178,413 173,407 181,401" fill="#c8c2b8" stroke="#00000033"/><polygon points="168,385 179,399 172,405 168,400 166,401 168,404 162,404 165,411 159,416 147,401 153,397 160,400 162,396 163,398 161,391 168,385" fill="#c8c2b8" stroke="#00000033"/><polygon points="189,334 201,322 195,316 191,320 189,318 192,315 187,315 191,311 184,304 171,316 178,324 183,319 183,324 186,321 188,323 183,328 189,334" fill="#c8c2b8" stroke="#00000033"/><polygon points="181,443 183,441 180,437 178,439 173,433 178,428 181,432 185,429 193,439 202,434 207,440 199,447 195,444 199,449 191,455 187,449 190,447 188,443 190,440 183,445 181,443" fill="#c8c2b8" stroke="#00000033"/><polygon points="447,592 436,579 451,566 462,579 447,592" fill="#c8c2b8" stroke="#00000033"/><polygon points="431,606 420,592 433,581 445,594 431,606" fill="#c8c2b8" stroke="#00000033"/><polygon points="464,576 454,564 469,551 479,563 464,576" fill="#c8c2b8" stroke="#00000033"/><polygon points="464,617 458,603 464,600 465,604 468,603 467,599 475,596 481,611 464,617" fill="#c8c2b8" stroke="#00000033"/><polygon points="-26,368 -11,380 -10,377 -2,381 2,374 -14,363 -15,365 -22,361 -26,368" fill="#c8c2b8" stroke="#00000033"/><polyline points="622,612 513,560 382,498 485,346 501,292 510,275 522,268 559,230 574,222 578,213 574,146 560,103" fill="none" stroke="#ffdd44" stroke-width="6" opacity="0.85"/><circle cx="622" cy="612" r="10" fill="#a0f"/><circle cx="560" cy="103" r="10" fill="#f00"/><path d="M863.6666666669845,732.6923076923011 L879.6666666669845,732.6923076923011 M871.6666666669845,724.6923076923011 L871.6666666669845,740.6923076923011" stroke="#0ff" stroke-width="2"/><path d="M421.35897435840104,136.53846153845882 L437.35897435840104,136.53846153845882 M429.35897435840104,128.53846153845882 L429.35897435840104,144.53846153845882" stroke="#0ff" stroke-width="2"/><rect x="605" y="552" width="22" height="16" fill="#b8c2cc" stroke="#333"/><rect x="545" y="516" width="22" height="16" fill="#b8c2cc" stroke="#333"/><rect x="485" y="492" width="22" height="16" fill="#b8c2cc" stroke="#333"/><rect x="377" y="552" width="22" height="16" fill="#b8c2cc" stroke="#333"/><rect x="473" y="432" width="22" height="16" fill="#b8c2cc" stroke="#333"/><rect x="341" y="444" width="22" height="16" fill="#b8c2cc" stroke="#333"/><rect x="377" y="384" width="22" height="16" fill="#b8c2cc" stroke="#333"/><rect x="413" y="336" width="22" height="16" fill="#b8c2cc" stroke="#333"/><rect x="509" y="384" width="22" height="16" fill="#b8c2cc" stroke="#333"/><rect x="533" y="324" width="22" height="16" fill="#b8c2cc" stroke="#333"/><rect x="449" y="264" width="22" height="16" fill="#b8c2cc" stroke="#333"/><rect x="569" y="264" width="22" height="16" fill="#b8c2cc" stroke="#333"/><rect x="521" y="180" width="22" height="16" fill="#b8c2cc" stroke="#333"/><rect x="617" y="228" width="22" height="16" fill="#b8c2cc" stroke="#333"/><rect x="617" y="168" width="22" height="16" fill="#b8c2cc" stroke="#333"/><rect x="605" y="108" width="22" height="16" fill="#b8c2cc" stroke="#333"/><rect x="509" y="120" width="22" height="16" fill="#b8c2cc" stroke="#333"/><rect x="521" y="60" width="22" height="16" fill="#b8c2cc" stroke="#333"/><circle cx="27" cy="414" r="6" fill="#e8862a" stroke="#333"/><circle cx="321" cy="393" r="6" fill="#e8862a" stroke="#333"/><circle cx="186" cy="370" r="6" fill="#e8862a" stroke="#333"/><text x="381" y="-171" font-size="13" fill="#fff" text-anchor="middle" stroke="#000" stroke-width="0.4">Summit 163m</text><text x="480" y="20" font-size="16" fill="#fff" text-anchor="middle">16: Bukit Timah Hill</text></svg>