<svg xmlns="http://www.w3.org/2000/svg" width="960" height="600" viewBox="0 0 960 600"><rect width="960" height="600" fill="#6aa03c"/><polygon points="154,524 256,582 268,578 273,568 273,560 190,454 182,459 154,524" fill="#4c8a2c" opacity="0.7"/><polygon points="402,694 408,689 296,547 292,563 323,607 317,623 341,642 343,639 360,645 358,651 402,694" fill="#4c8a2c" opacity="0.7"/><polygon points="269,121 264,134 263,170 252,186 259,197 256,204 244,217 249,227 251,248 271,249 290,236 298,235 307,239 317,233 325,239 350,238 374,221 394,199 412,187 423,187 436,179 453,153 452,139 446,137 445,121 426,110 421,98 390,80 380,83 373,100 365,104 341,101 322,87 303,101 301,110 278,121 269,121" fill="#2e7bb4"/><polyline points="288,566 285,564" fill="none" stroke="#8a8f98" stroke-width="5" stroke-linecap="round"/><polyline points="25,567 54,586" fill="none" stroke="#8a8f98" stroke-width="5" stroke-linecap="round"/><polyline points="304,517 315,520 319,524" fill="none" stroke="#8a8f98" stroke-width="5" stroke-linecap="round"/><polyline points="264,587 274,580" fill="none" stroke="#8a8f98" stroke-width="5" stroke-linecap="round"/><polyline points="281,589 280,594" fill="none" stroke="#8a8f98" stroke-width="5" stroke-linecap="round"/><polyline points="164,567 164,573 194,589" fill="none" stroke="#8a8f98" stroke-width="5" stroke-linecap="round"/><polyline points="64,591 50,628" fill="none" stroke="#8a8f98" stroke-width="5" stroke-linecap="round"/><polyline points="38,547 63,558" fill="none" stroke="#8a8f98" stroke-width="5" stroke-linecap="round"/><polyline points="122,534 64,500" fill="none" stroke="#8a8f98" stroke-width="13" stroke-linecap="round"/><polyline points="274,580 281,561" fill="none" stroke="#8a8f98" stroke-width="5" stroke-linecap="round"/><polyline points="38,547 35,538" fill="none" stroke="#8a8f98" stroke-width="5" stroke-linecap="round"/><polyline points="28,471 26,464 32,456" fill="none" stroke="#8a8f98" stroke-width="13" stroke-linecap="round"/><polyline points="32,456 55,480 83,499" fill="none" stroke="#8a8f98" stroke-width="13" stroke-linecap="round"/><polyline points="106,525 100,532 101,538 117,546 121,543 122,534" fill="none" stroke="#8a8f98" stroke-width="3" stroke-linecap="round"/><polyline points="72,505 69,517 76,524 87,526 95,518" fill="none" stroke="#8a8f98" stroke-width="3" stroke-linecap="round"/><polyline points="64,500 55,510 39,505 34,496 36,478" fill="none" stroke="#8a8f98" stroke-width="3" stroke-linecap="round"/><polyline points="163,558 156,566 142,563 135,556 134,542" fill="none" stroke="#8a8f98" stroke-width="3" stroke-linecap="round"/><polyline points="252,597 263,604" fill="none" stroke="#8a8f98" stroke-width="13" stroke-linecap="round"/><polyline points="238,589 264,587" fill="none" stroke="#8a8f98" stroke-width="5" stroke-linecap="round"/><polyline points="83,499 175,552" fill="none" stroke="#8a8f98" stroke-width="13" stroke-linecap="round"/><polyline points="238,589 252,597" fill="none" stroke="#8a8f98" stroke-width="13" stroke-linecap="round"/><polyline points="0,581 22,565" fill="none" stroke="#8a8f98" stroke-width="5" stroke-linecap="round"/><polyline points="-58,623 0,581" fill="none" stroke="#8a8f98" stroke-width="5" stroke-linecap="round"/><polyline points="167,561 163,558" fill="none" stroke="#8a8f98" stroke-width="13" stroke-linecap="round"/><polyline points="240,604 167,561" fill="none" stroke="#8a8f98" stroke-width="13" stroke-linecap="round"/><polyline points="134,542 122,534" fill="none" stroke="#8a8f98" stroke-width="13" stroke-linecap="round"/><polyline points="163,558 134,542" fill="none" stroke="#8a8f98" stroke-width="13" stroke-linecap="round"/><polyline points="64,500 28,471" fill="none" stroke="#8a8f98" stroke-width="13" stroke-linecap="round"/><polyline points="25,567 38,547" fill="none" stroke="#8a8f98" stroke-width="5" stroke-linecap="round"/><polyline points="0,581 12,593 12,598 -2,659" fill="none" stroke="#8a8f98" stroke-width="5" stroke-linecap="round"/><polyline points="64,591 119,603" fill="none" stroke="#8a8f98" stroke-width="5" stroke-linecap="round"/><polyline points="22,565 25,567" fill="none" stroke="#8a8f98" stroke-width="5" stroke-linecap="round"/><polyline points="281,561 263,536" fill="none" stroke="#8a8f98" stroke-width="5" stroke-linecap="round"/><polyline points="313,490 304,517" fill="none" stroke="#8a8f98" stroke-width="5" stroke-linecap="round"/><polyline points="290,555 288,561" fill="none" stroke="#8a8f98" stroke-width="5" stroke-linecap="round"/><polyline points="208,571 238,589" fill="none" stroke="#8a8f98" stroke-width="13" stroke-linecap="round"/><polyline points="194,589 229,614" fill="none" stroke="#8a8f98" stroke-width="5" stroke-linecap="round"/><polyline points="167,561 164,567" fill="none" stroke="#8a8f98" stroke-width="5" stroke-linecap="round"/><polyline points="175,552 208,571" fill="none" stroke="#8a8f98" stroke-width="13" stroke-linecap="round"/><polyline points="293,471 313,490" fill="none" stroke="#8a8f98" stroke-width="5" stroke-linecap="round"/><polyline points="319,524 341,550" fill="none" stroke="#8a8f98" stroke-width="5" stroke-linecap="round"/><polyline points="294,546 290,555" fill="none" stroke="#8a8f98" stroke-width="5" stroke-linecap="round"/><polyline points="304,517 294,546" fill="none" stroke="#8a8f98" stroke-width="5" stroke-linecap="round"/><polyline points="274,580 285,564" fill="none" stroke="#8a8f98" stroke-width="5" stroke-linecap="round"/><polyline points="263,536 224,485" fill="none" stroke="#8a8f98" stroke-width="5" stroke-linecap="round"/><polyline points="288,566 281,589" fill="none" stroke="#8a8f98" stroke-width="5" stroke-linecap="round"/><polyline points="327,456 320,471" fill="none" stroke="#8a8f98" stroke-width="5" stroke-linecap="round"/><polyline points="320,471 313,490" fill="none" stroke="#8a8f98" stroke-width="5" stroke-linecap="round"/><polyline points="224,485 193,448" fill="none" stroke="#8a8f98" stroke-width="5" stroke-linecap="round"/><polyline points="288,561 288,566" fill="none" stroke="#8a8f98" stroke-width="5" stroke-linecap="round"/><polyline points="285,564 288,561" fill="none" stroke="#8a8f98" stroke-width="5" stroke-linecap="round"/><polyline points="285,564 281,561" fill="none" stroke="#8a8f98" stroke-width="5" stroke-linecap="round"/><polyline points="-2,534 4,543" fill="none" stroke="#8a8f98" stroke-width="5" stroke-linecap="round"/><polyline points="4,543 22,565" fill="none" stroke="#8a8f98" stroke-width="5" stroke-linecap="round"/><polyline points="-2,534 12,525" fill="none" stroke="#8a8f98" stroke-width="5" stroke-linecap="round"/><polyline points="280,594 280,606 284,615" fill="none" stroke="#8a8f98" stroke-width="5" stroke-linecap="round"/><polyline points="54,586 64,591" fill="none" stroke="#8a8f98" stroke-width="5" stroke-linecap="round"/><polyline points="708,484 693,484 689,478 694,473 709,477" fill="none" stroke="#8a8f98" stroke-width="3" stroke-linecap="round"/><polyline points="727,515 686,545 652,591 618,671 611,710" fill="none" stroke="#8a8f98" stroke-width="5" stroke-linecap="round"/><polyline points="734,510 727,515" fill="none" stroke="#8a8f98" stroke-width="5" stroke-linecap="round"/><polyline points="797,446 762,488 734,510" fill="none" stroke="#8a8f98" stroke-width="5" stroke-linecap="round"/><polyline points="620,620 631,581" fill="none" stroke="#8a8f98" stroke-width="3" stroke-linecap="round"/><polyline points="-72,301 15,436 32,456" fill="none" stroke="#8a8f98" stroke-width="13" stroke-linecap="round"/><polyline points="255,350 270,437 293,471" fill="none" stroke="#8a8f98" stroke-width="5" stroke-linecap="round"/><polyline points="341,419 369,434" fill="none" stroke="#8a8f98" stroke-width="5" stroke-linecap="round"/><polyline points="977,51 975,67 958,100 933,136 929,151 926,267 920,301 909,335 893,356 888,381 882,385 833,396" fill="none" stroke="#8a8f98" stroke-width="5" stroke-linecap="round"/><polyline points="332,383 343,356 351,348" fill="none" stroke="#8a8f98" stroke-width="3" stroke-linecap="round"/><polyline points="175,459 48,383 37,396" fill="none" stroke="#8a8f98" stroke-width="3" stroke-linecap="round"/><polyline points="175,459 151,512 142,514 97,491 69,472 37,442 21,422 21,418 37,396" fill="none" stroke="#8a8f98" stroke-width="3" stroke-linecap="round"/><polyline points="709,477 725,426 667,402" fill="none" stroke="#8a8f98" stroke-width="3" stroke-linecap="round"/><polyline points="28,471 5,442 -17,406" fill="none" stroke="#8a8f98" stroke-width="13" stroke-linecap="round"/><polyline points="193,448 104,334" fill="none" stroke="#8a8f98" stroke-width="5" stroke-linecap="round"/><polyline points="341,419 327,456" fill="none" stroke="#8a8f98" stroke-width="5" stroke-linecap="round"/><polyline points="351,397 341,419" fill="none" stroke="#8a8f98" stroke-width="5" stroke-linecap="round"/><polyline points="833,396 815,425 797,446" fill="none" stroke="#8a8f98" stroke-width="5" stroke-linecap="round"/><polyline points="59,276 30,239" fill="none" stroke="#8a8f98" stroke-width="5" stroke-linecap="round"/><polyline points="49,285 29,255 20,252 -39,311 -41,317 -1,389 18,389 36,368 52,378" fill="none" stroke="#8a8f98" stroke-width="3" stroke-linecap="round"/><polyline points="238,317 249,331 255,350" fill="none" stroke="#8a8f98" stroke-width="5" stroke-linecap="round"/><polyline points="104,334 59,276" fill="none" stroke="#8a8f98" stroke-width="5" stroke-linecap="round"/><polyline points="68,381 93,352 103,350 168,430" fill="none" stroke="#8a8f98" stroke-width="3" stroke-linecap="round"/><polyline points="353,394 426,429" fill="none" stroke="#8a8f98" stroke-width="5" stroke-linecap="round"/><polyline points="443,-41 432,-21 401,-2 390,11 370,52 373,63 379,59" fill="none" stroke="#8a8f98" stroke-width="3" stroke-linecap="round"/><polyline points="400,322 360,383" fill="none" stroke="#8a8f98" stroke-width="3" stroke-linecap="round"/><polyline points="353,393 353,394" fill="none" stroke="#8a8f98" stroke-width="5" stroke-linecap="round"/><polyline points="360,383 353,393" fill="none" stroke="#8a8f98" stroke-width="5" stroke-linecap="round"/><polyline points="353,394 352,396" fill="none" stroke="#8a8f98" stroke-width="5" stroke-linecap="round"/><polyline points="504,176 453,220 431,279" fill="none" stroke="#8a8f98" stroke-width="3" stroke-linecap="round"/><polyline points="504,130 507,170" fill="none" stroke="#8a8f98" stroke-width="3" stroke-linecap="round"/><polyline points="498,54 498,62 491,76 501,109 504,130" fill="none" stroke="#8a8f98" stroke-width="3" stroke-linecap="round"/><polyline points="487,-33 478,-1 491,36" fill="none" stroke="#8a8f98" stroke-width="3" stroke-linecap="round"/><polyline points="426,429 390,414" fill="none" stroke="#8a8f98" stroke-width="5" stroke-linecap="round"/><polyline points="426,429 455,443" fill="none" stroke="#8a8f98" stroke-width="5" stroke-linecap="round"/><polyline points="390,414 352,396" fill="none" stroke="#8a8f98" stroke-width="5" stroke-linecap="round"/><polyline points="352,396 351,397" fill="none" stroke="#8a8f98" stroke-width="5" stroke-linecap="round"/><polygon points="684,416 673,453 724,468 735,430 684,416" fill="#c8c2b8" stroke="#00000033"/><polygon points="-70,573 -79,561 -6,511 2,523 -70,573" fill="#c8c2b8" stroke="#00000033"/><polygon points="-75,589 -4,538 5,550 -6,558 -8,555 -13,559 -11,562 -43,584 -44,582 -57,591 -56,593 -66,601 -75,589" fill="#c8c2b8" stroke="#00000033"/><polygon points="-37,604 -46,593 8,552 15,561 13,563 14,565 -37,604" fill="#c8c2b8" stroke="#00000033"/><polygon points="664,402 682,409 666,451 647,443 664,402" fill="#c8c2b8" stroke="#00000033"/><polygon points="-1,469 12,489 -33,519 -40,508 -3,484 -10,475 -1,469" fill="#c8c2b8" stroke="#00000033"/><polygon points="662,489 688,496 680,524 654,516 662,489" fill="#c8c2b8" stroke="#00000033"/><polygon points="181,612 183,616 214,635 221,634 225,627 215,615 190,599 181,612" fill="#c8c2b8" stroke="#00000033"/><polygon points="311,386 338,400 330,416 303,401 311,386" fill="#c8c2b8" stroke="#00000033"/><polygon points="164,302 169,305 172,303 170,298 177,293 185,304 179,309 174,306 176,308 171,308 173,313 168,317 160,305 162,303 159,305 155,299 156,296 154,297 149,292 164,277 170,283 162,295 158,294 164,298 164,302" fill="#c8c2b8" stroke="#00000033"/><polygon points="152,584 159,573 187,592 180,602 152,584" fill="#c8c2b8" stroke="#00000033"/><polygon points="378,483 410,476 412,488 381,495 378,483" fill="#c8c2b8" stroke="#00000033"/><polygon points="426,469 450,448 458,458 434,478 426,469" fill="#c8c2b8" stroke="#00000033"/><polygon points="68,557 40,541 46,531 74,546 68,557" fill="#c8c2b8" stroke="#00000033"/><polygon points="217,270 226,280 219,284 222,287 227,282 232,288 227,293 224,289 222,291 227,297 222,301 205,281 210,276 215,282 216,280 212,275 217,270" fill="#c8c2b8" stroke="#00000033"/><polygon points="389,56 389,68 418,69 418,57 389,56" fill="#c8c2b8" stroke="#00000033"/><polygon points="109,561 83,547 87,539 93,542 96,536 110,544 105,553 111,557 109,561" fill="#c8c2b8" stroke="#00000033"/><polygon points="223,334 225,333 227,339 219,345 215,338 211,340 207,336 212,331 220,336 218,333 224,328 223,326 215,332 211,327 224,316 229,321 225,324 229,329 233,326 235,329 229,334 225,330 223,334" fill="#c8c2b8" stroke="#00000033"/><polygon points="301,407 329,423 324,432 297,415 301,407" fill="#c8c2b8" stroke="#00000033"/><polygon points="378,324 381,316 389,319 392,311 377,306 374,314 379,315 376,323 371,321 368,330 383,336 386,327 378,324" fill="#c8c2b8" stroke="#00000033"/><polygon points="62,609 66,596 81,604 82,600 89,602 86,615 62,609" fill="#c8c2b8" stroke="#00000033"/><polygon points="46,522 51,513 24,499 20,506 46,522" fill="#c8c2b8" stroke="#00000033"/><polygon points="56,579 33,563 38,555 61,570 56,579" fill="#c8c2b8" stroke="#00000033"/><polygon points="130,556 125,566 145,578 151,568 130,556" fill="#c8c2b8" stroke="#00000033"/><polygon points="74,555 78,546 103,559 99,567 74,555" fill="#c8c2b8" stroke="#00000033"/><polygon points="53,526 77,540 82,532 58,518 53,526" fill="#c8c2b8" stroke="#00000033"/><polyline points="455,443 353,394 433,276 453,220 491,185 503,179 506,172 503,120 492,86" fill="none" stroke="#ffdd44" stroke-width="6" opacity="0.85"/><circle cx="455" cy="443" r="10" fill="#a0f"/><circle cx="492" cy="86" r="10" fill="#f00"/><path d="M726.9999999999667,577.5000000000025 L742.9999999999667,577.5000000000025 M734.9999999999667,569.5000000000025 L734.9999999999667,585.5000000000025" stroke="#0ff" stroke-width="2"/><path d="M381.99999999913405,112.50000000000416 L397.99999999913405,112.50000000000416 M389.99999999913405,104.50000000000416 L389.99999999913405,120.50000000000416" stroke="#0ff" stroke-width="2"/><rect x="449" y="384" width="22" height="16" fill="#b8c2cc" stroke="#333"/><rect x="353" y="444" width="22" height="16" fill="#b8c2cc" stroke="#333"/><rect x="317" y="336" width="22" height="16" fill="#b8c2cc" stroke="#333"/><rect x="293" y="444" width="22" height="16" fill="#b8c2cc" stroke="#333"/><rect x="269" y="372" width="22" height="16" fill="#b8c2cc" stroke="#333"/><rect x="353" y="276" width="22" height="16" fill="#b8c2cc" stroke="#333"/><rect x="449" y="324" width="22" height="16" fill="#b8c2cc" stroke="#333"/><rect x="389" y="228" width="22" height="16" fill="#b8c2cc" stroke="#333"/><rect x="473" y="264" width="22" height="16" fill="#b8c2cc" stroke="#333"/><rect x="509" y="312" width="22" height="16" fill="#b8c2cc" stroke="#333"/><rect x="509" y="216" width="22" height="16" fill="#b8c2cc" stroke="#333"/><rect x="545" y="168" width="22" height="16" fill="#b8c2cc" stroke="#333"/><rect x="545" y="264" width="22" height="16" fill="#b8c2cc" stroke="#333"/><rect x="437" y="96" width="22" height="16" fill="#b8c2cc" stroke="#333"/><rect x="545" y="108" width="22" height="16" fill="#b8c2cc" stroke="#333"/><rect x="521" y="48" width="22" height="16" fill="#b8c2cc" stroke="#333"/><rect x="581" y="216" width="22" height="16" fill="#b8c2cc" stroke="#333"/><rect x="581" y="60" width="22" height="16" fill="#b8c2cc" stroke="#333"/><text x="353" y="-128" font-size="13" fill="#fff" text-anchor="middle" stroke="#000" stroke-width="0.4">Summit 163m</text><text x="480" y="20" font-size="16" fill="#fff" text-anchor="middle">16: Bukit Timah Hill</text></svg>