<svg xmlns="http://www.w3.org/2000/svg" width="960" height="600" viewBox="0 0 960 600"><rect width="960" height="600" fill="#6aa03c"/><polygon points="775,7 803,22 795,61 746,100 754,114 811,163 935,251 943,249 957,211 1029,83 1023,63 1011,62 996,49 990,28 996,-30 989,-61 963,-61 950,-57 904,-72 884,-87 877,-101 864,-103 849,-80 810,-90 807,-113 786,-151 700,-227 673,-236 663,-252 659,-273 652,-287 642,-295 628,-295 615,-289 608,-290 604,-312 598,-321 595,-331 588,-334 583,-343 592,-363 589,-370 574,-374 560,-372 549,-365 530,-251 445,-272 377,-299 372,-308 409,-439 408,-492 425,-535 399,-541 313,-537 316,-405 327,-397 333,-377 326,-364 335,-337 365,-282 407,-234 412,-222 414,-204 417,-197 428,-197 445,-205 461,-207 500,-192 562,-179 632,-173 646,-160 644,-124 627,-59 605,-37 607,-31 656,9 691,49 699,69 712,81 721,85 724,82 744,18 771,5 775,7" fill="#4c8a2c" opacity="0.7"/><polygon points="340,243 343,271 357,309 337,325 242,324 223,342 222,383 213,392 205,394 199,399 197,423 180,423 161,441 162,480 156,486 149,481 139,482 133,488 132,496 87,495 87,530 91,530 86,548 75,568 9,517 14,508 -15,458 34,462 58,439 72,430 142,428 147,418 147,391 106,391 106,369 159,370 187,342 187,335 214,336 220,327 218,274 233,257 233,249 252,249 252,243 340,243" fill="#4c8a2c" opacity="0.7"/><polygon points="672,486 669,570 679,593 691,610 709,622 731,630 757,630 806,626 817,613 820,581 826,561 863,513 869,487 872,452 869,438 863,429 848,416 773,462 725,479 672,486" fill="#4c8a2c" opacity="0.7"/><polygon points="521,420 546,438 570,448 633,459 689,457 721,450 751,443 786,427 716,375 724,359 621,283 521,420" fill="#4c8a2c" opacity="0.7"/><polygon points="1041,177 1029,191 1004,192 984,222 975,248 980,273 1006,295 1072,321 1088,332 1098,334 1100,321 1097,306 1124,249 1121,233 1067,181 1052,176 1041,177" fill="#4c8a2c" opacity="0.7"/><polygon points="926,337 911,357 939,377 954,357 926,337" fill="#3d8b46" stroke="#fff"/><polygon points="258,275 275,269 285,300 269,306 258,275" fill="#3d8b46" stroke="#fff"/><polygon points="308,264 323,264 323,286 308,286 308,264" fill="#3d8b46" stroke="#fff"/><polygon points="402,320 411,314 421,329 412,335 402,320" fill="#3d8b46" stroke="#fff"/><polygon points="453,370 507,364 506,354 452,360 453,370" fill="#3ec6e8"/><polyline points="497,645 600,645" fill="none" stroke="#8a8f98" stroke-width="3" stroke-linecap="round"/><polyline points="7,670 31,636" fill="none" stroke="#8a8f98" stroke-width="3" stroke-linecap="round"/><polyline points="132,616 161,638" fill="none" stroke="#8a8f98" stroke-width="8" stroke-linecap="round"/><polyline points="171,662 154,649" fill="none" stroke="#8a8f98" stroke-width="8" stroke-linecap="round"/><polyline points="98,627 162,673" fill="none" stroke="#8a8f98" stroke-width="3" stroke-linecap="round"/><polyline points="161,638 184,655" fill="none" stroke="#8a8f98" stroke-width="8" stroke-linecap="round"/><polyline points="176,625 212,650" fill="none" stroke="#8a8f98" stroke-width="3" stroke-linecap="round"/><polyline points="58,682 89,640" fill="none" stroke="#8a8f98" stroke-width="3" stroke-linecap="round"/><polyline points="757,644 720,639 698,625 684,610" fill="none" stroke="#8a8f98" stroke-width="5" stroke-linecap="round"/><polyline points="757,644 757,638" fill="none" stroke="#8a8f98" stroke-width="5" stroke-linecap="round"/><polyline points="764,644 757,644" fill="none" stroke="#8a8f98" stroke-width="5" stroke-linecap="round"/><polyline points="764,637 764,644" fill="none" stroke="#8a8f98" stroke-width="5" stroke-linecap="round"/><polyline points="757,638 764,637" fill="none" stroke="#8a8f98" stroke-width="5" stroke-linecap="round"/><polyline points="764,644 764,693" fill="none" stroke="#8a8f98" stroke-width="5" stroke-linecap="round"/><polyline points="756,715 757,644" fill="none" stroke="#8a8f98" stroke-width="5" stroke-linecap="round"/><polyline points="764,637 818,632 890,632" fill="none" stroke="#8a8f98" stroke-width="5" stroke-linecap="round"/><polyline points="933,631 966,631" fill="none" stroke="#8a8f98" stroke-width="5" stroke-linecap="round"/><polyline points="890,632 933,631" fill="none" stroke="#8a8f98" stroke-width="5" stroke-linecap="round"/><polyline points="933,636 890,637" fill="none" stroke="#8a8f98" stroke-width="5" stroke-linecap="round"/><polyline points="890,637 818,637 764,644" fill="none" stroke="#8a8f98" stroke-width="5" stroke-linecap="round"/><polyline points="1035,644 994,637" fill="none" stroke="#8a8f98" stroke-width="5" stroke-linecap="round"/><polyline points="966,636 933,636" fill="none" stroke="#8a8f98" stroke-width="5" stroke-linecap="round"/><polyline points="966,631 996,631 1057,643" fill="none" stroke="#8a8f98" stroke-width="5" stroke-linecap="round"/><polyline points="994,637 966,636" fill="none" stroke="#8a8f98" stroke-width="5" stroke-linecap="round"/><polyline points="471,416 295,657" fill="none" stroke="#8a8f98" stroke-width="8" stroke-linecap="round"/><polyline points="666,78 628,36 577,-13 533,-39" fill="none" stroke="#8a8f98" stroke-width="10" stroke-linecap="round"/><polyline points="624,205 593,248" fill="none" stroke="#8a8f98" stroke-width="3" stroke-linecap="round"/><polyline points="-74,630 -21,604 -15,605 7,619" fill="none" stroke="#8a8f98" stroke-width="3" stroke-linecap="round"/><polyline points="-10,585 42,621" fill="none" stroke="#8a8f98" stroke-width="3" stroke-linecap="round"/><polyline points="604,154 620,168 611,177 594,166" fill="none" stroke="#8a8f98" stroke-width="3" stroke-linecap="round"/><polyline points="420,-71 491,-66 520,-58 582,-23 642,36" fill="none" stroke="#8a8f98" stroke-width="10" stroke-linecap="round"/><polyline points="266,672 393,501" fill="none" stroke="#8a8f98" stroke-width="8" stroke-linecap="round"/><polyline points="154,649 90,599" fill="none" stroke="#8a8f98" stroke-width="8" stroke-linecap="round"/><polyline points="212,650 237,652 251,641 269,616 271,596 269,578 262,566" fill="none" stroke="#8a8f98" stroke-width="3" stroke-linecap="round"/><polyline points="677,583 686,603 711,627 722,633 757,638" fill="none" stroke="#8a8f98" stroke-width="5" stroke-linecap="round"/><polyline points="97,589 132,616" fill="none" stroke="#8a8f98" stroke-width="8" stroke-linecap="round"/><polyline points="966,631 964,585" fill="none" stroke="#8a8f98" stroke-width="3" stroke-linecap="round"/><polyline points="599,588 639,588" fill="none" stroke="#8a8f98" stroke-width="3" stroke-linecap="round"/><polyline points="600,645 599,588" fill="none" stroke="#8a8f98" stroke-width="3" stroke-linecap="round"/><polyline points="684,610 676,599 670,585" fill="none" stroke="#8a8f98" stroke-width="5" stroke-linecap="round"/><polyline points="664,481 628,479 593,473 568,466" fill="none" stroke="#8a8f98" stroke-width="8" stroke-linecap="round"/><polyline points="605,467 664,471" fill="none" stroke="#8a8f98" stroke-width="8" stroke-linecap="round"/><polyline points="387,599 387,653" fill="none" stroke="#8a8f98" stroke-width="3" stroke-linecap="round"/><polyline points="141,599 176,625" fill="none" stroke="#8a8f98" stroke-width="3" stroke-linecap="round"/><polyline points="-11,-22 -49,-15 -93,1" fill="none" stroke="#8a8f98" stroke-width="10" stroke-linecap="round"/><polyline points="471,416 459,408" fill="none" stroke="#8a8f98" stroke-width="8" stroke-linecap="round"/><polyline points="504,125 561,168" fill="none" stroke="#8a8f98" stroke-width="5" stroke-linecap="round"/><polyline points="363,271 394,291 403,295 414,293" fill="none" stroke="#8a8f98" stroke-width="5" stroke-linecap="round"/><polyline points="475,157 494,124" fill="none" stroke="#8a8f98" stroke-width="5" stroke-linecap="round"/><polyline points="502,129 475,157" fill="none" stroke="#8a8f98" stroke-width="5" stroke-linecap="round"/><polyline points="416,297 403,300 391,311 386,322" fill="none" stroke="#8a8f98" stroke-width="5" stroke-linecap="round"/><polyline points="372,315 358,288 352,267 346,227 345,200" fill="none" stroke="#8a8f98" stroke-width="8" stroke-linecap="round"/><polyline points="422,562 389,591 387,599" fill="none" stroke="#8a8f98" stroke-width="3" stroke-linecap="round"/><polyline points="572,493 533,476 485,476 456,505 456,563" fill="none" stroke="#8a8f98" stroke-width="3" stroke-linecap="round"/><polyline points="151,501 157,505 250,506 248,558 254,566 262,566" fill="none" stroke="#8a8f98" stroke-width="3" stroke-linecap="round"/><polyline points="339,473 326,471 320,462 311,417 304,414 221,411" fill="none" stroke="#8a8f98" stroke-width="3" stroke-linecap="round"/><polyline points="143,486 150,487 154,492 153,498 148,502 142,502 138,497 138,490 143,486" fill="none" stroke="#8a8f98" stroke-width="3" stroke-linecap="round"/><polyline points="221,410 218,415 211,417 204,412 203,406 207,400 214,398 221,403 221,410" fill="none" stroke="#8a8f98" stroke-width="3" stroke-linecap="round"/><polyline points="115,114 110,119 106,153 111,155 138,155" fill="none" stroke="#8a8f98" stroke-width="3" stroke-linecap="round"/><polyline points="218,151 138,155" fill="none" stroke="#8a8f98" stroke-width="3" stroke-linecap="round"/><polyline points="113,68 204,55" fill="none" stroke="#8a8f98" stroke-width="3" stroke-linecap="round"/><polyline points="241,232 234,240 168,238" fill="none" stroke="#8a8f98" stroke-width="3" stroke-linecap="round"/><polyline points="92,380 26,381 24,395 20,398" fill="none" stroke="#8a8f98" stroke-width="3" stroke-linecap="round"/><polyline points="-23,397 -19,438 -7,454 31,457 60,430 71,425 105,424" fill="none" stroke="#8a8f98" stroke-width="3" stroke-linecap="round"/><polyline points="93,-35 77,-30 66,-17 61,-7 57,12" fill="none" stroke="#8a8f98" stroke-width="10" stroke-linecap="round"/><polyline points="42,15 29,-7 22,-14 9,-21 -11,-22" fill="none" stroke="#8a8f98" stroke-width="10" stroke-linecap="round"/><polyline points="-35,231 -43,197 -41,189 -35,184 -7,184" fill="none" stroke="#8a8f98" stroke-width="3" stroke-linecap="round"/><polyline points="-11,132 -48,141 -56,140 -60,131 -65,98" fill="none" stroke="#8a8f98" stroke-width="3" stroke-linecap="round"/><polyline points="492,294 484,303 472,303 464,297 463,282" fill="none" stroke="#8a8f98" stroke-width="5" stroke-linecap="round"/><polyline points="589,72 582,61 514,11 510,4 492,-10 487,-18 488,-30" fill="none" stroke="#8a8f98" stroke-width="3" stroke-linecap="round"/><polyline points="464,185 468,167 475,157" fill="none" stroke="#8a8f98" stroke-width="5" stroke-linecap="round"/><polyline points="469,275 473,251" fill="none" stroke="#8a8f98" stroke-width="5" stroke-linecap="round"/><polyline points="448,277 457,269 458,263 454,222" fill="none" stroke="#8a8f98" stroke-width="3" stroke-linecap="round"/><polyline points="473,251 487,277" fill="none" stroke="#8a8f98" stroke-width="5" stroke-linecap="round"/><polyline points="467,301 452,294 416,297" fill="none" stroke="#8a8f98" stroke-width="5" stroke-linecap="round"/><polyline points="414,293 454,289 466,278" fill="none" stroke="#8a8f98" stroke-width="5" stroke-linecap="round"/><polyline points="569,181 556,182 540,173 521,158 520,143" fill="none" stroke="#8a8f98" stroke-width="3" stroke-linecap="round"/><polyline points="-54,396 -51,352 -47,334" fill="none" stroke="#8a8f98" stroke-width="8" stroke-linecap="round"/><polyline points="22,179 45,117 48,76" fill="none" stroke="#8a8f98" stroke-width="8" stroke-linecap="round"/><polyline points="42,15 38,-28" fill="none" stroke="#8a8f98" stroke-width="8" stroke-linecap="round"/><polyline points="200,23 195,11 184,8 107,23" fill="none" stroke="#8a8f98" stroke-width="3" stroke-linecap="round"/><polyline points="339,473 376,472 383,468 404,442 403,393 369,352" fill="none" stroke="#8a8f98" stroke-width="3" stroke-linecap="round"/><polyline points="138,208 72,193" fill="none" stroke="#8a8f98" stroke-width="3" stroke-linecap="round"/><polyline points="-65,98 13,82" fill="none" stroke="#8a8f98" stroke-width="3" stroke-linecap="round"/><polyline points="107,334 108,276" fill="none" stroke="#8a8f98" stroke-width="3" stroke-linecap="round"/><polyline points="306,6 320,4 326,8 331,34" fill="none" stroke="#8a8f98" stroke-width="3" stroke-linecap="round"/><polyline points="573,184 520,143" fill="none" stroke="#8a8f98" stroke-width="5" stroke-linecap="round"/><polyline points="262,566 301,567 315,560 337,531 339,473" fill="none" stroke="#8a8f98" stroke-width="3" stroke-linecap="round"/><polyline points="498,585 504,588 557,588" fill="none" stroke="#8a8f98" stroke-width="3" stroke-linecap="round"/><polyline points="281,-25 280,-35 283,-38 299,-38 301,-26" fill="none" stroke="#8a8f98" stroke-width="3" stroke-linecap="round"/><polyline points="171,287 170,322 166,330 159,334" fill="none" stroke="#8a8f98" stroke-width="3" stroke-linecap="round"/><polyline points="-2,513 -10,518" fill="none" stroke="#8a8f98" stroke-width="5" stroke-linecap="round"/><polyline points="-17,511 -9,505" fill="none" stroke="#8a8f98" stroke-width="5" stroke-linecap="round"/><polyline points="-2,513 78,576" fill="none" stroke="#8a8f98" stroke-width="8" stroke-linecap="round"/><polyline points="-46,396 -46,413 -38,447 -19,489 -9,505" fill="none" stroke="#8a8f98" stroke-width="8" stroke-linecap="round"/><polyline points="59,75 58,107 54,128 34,183" fill="none" stroke="#8a8f98" stroke-width="8" stroke-linecap="round"/><polyline points="466,400 477,408" fill="none" stroke="#8a8f98" stroke-width="8" stroke-linecap="round"/><polyline points="369,155 362,179 359,205" fill="none" stroke="#8a8f98" stroke-width="8" stroke-linecap="round"/><polyline points="408,11 409,-58" fill="none" stroke="#8a8f98" stroke-width="8" stroke-linecap="round"/><polyline points="435,377 466,400" fill="none" stroke="#8a8f98" stroke-width="8" stroke-linecap="round"/><polyline points="416,470 459,408" fill="none" stroke="#8a8f98" stroke-width="8" stroke-linecap="round"/><polyline points="359,205 359,238 363,271" fill="none" stroke="#8a8f98" stroke-width="8" stroke-linecap="round"/><polyline points="386,322 406,347 435,377" fill="none" stroke="#8a8f98" stroke-width="8" stroke-linecap="round"/><polyline points="477,408 471,416" fill="none" stroke="#8a8f98" stroke-width="8" stroke-linecap="round"/><polyline points="568,466 545,458 515,443 471,416" fill="none" stroke="#8a8f98" stroke-width="8" stroke-linecap="round"/><polyline points="477,408 526,439 555,452 605,467" fill="none" stroke="#8a8f98" stroke-width="8" stroke-linecap="round"/><polyline points="459,408 466,400" fill="none" stroke="#8a8f98" stroke-width="8" stroke-linecap="round"/><polyline points="-9,505 -2,513" fill="none" stroke="#8a8f98" stroke-width="8" stroke-linecap="round"/><polyline points="-10,518 -17,511" fill="none" stroke="#8a8f98" stroke-width="8" stroke-linecap="round"/><polyline points="53,-30 57,12" fill="none" stroke="#8a8f98" stroke-width="8" stroke-linecap="round"/><polyline points="-37,333 -47,334" fill="none" stroke="#8a8f98" stroke-width="5" stroke-linecap="round"/><polyline points="45,42 42,15" fill="none" stroke="#8a8f98" stroke-width="8" stroke-linecap="round"/><polyline points="48,76 45,42" fill="none" stroke="#8a8f98" stroke-width="8" stroke-linecap="round"/><polyline points="-61,-19 -47,-23" fill="none" stroke="#8a8f98" stroke-width="10" stroke-linecap="round"/><polyline points="78,576 97,589" fill="none" stroke="#8a8f98" stroke-width="8" stroke-linecap="round"/><polyline points="70,585 -10,518" fill="none" stroke="#8a8f98" stroke-width="8" stroke-linecap="round"/><polyline points="-10,518 -61,554" fill="none" stroke="#8a8f98" stroke-width="5" stroke-linecap="round"/><polyline points="-83,554 -44,532 -17,511" fill="none" stroke="#8a8f98" stroke-width="5" stroke-linecap="round"/><polyline points="-15,288 -37,333" fill="none" stroke="#8a8f98" stroke-width="8" stroke-linecap="round"/><polyline points="-37,333 -41,346 -46,396" fill="none" stroke="#8a8f98" stroke-width="8" stroke-linecap="round"/><polyline points="90,599 70,585" fill="none" stroke="#8a8f98" stroke-width="8" stroke-linecap="round"/><polyline points="363,271 368,289 378,311" fill="none" stroke="#8a8f98" stroke-width="8" stroke-linecap="round"/><polyline points="418,8 414,29 400,68" fill="none" stroke="#8a8f98" stroke-width="8" stroke-linecap="round"/><polyline points="400,68 447,90" fill="none" stroke="#8a8f98" stroke-width="5" stroke-linecap="round"/><polyline points="390,64 400,68" fill="none" stroke="#8a8f98" stroke-width="5" stroke-linecap="round"/><polyline points="396,77 387,74" fill="none" stroke="#8a8f98" stroke-width="5" stroke-linecap="round"/><polyline points="38,-28 -11,-22" fill="none" stroke="#8a8f98" stroke-width="10" stroke-linecap="round"/><polyline points="390,64 404,27 408,11" fill="none" stroke="#8a8f98" stroke-width="8" stroke-linecap="round"/><polyline points="459,408 403,359" fill="none" stroke="#8a8f98" stroke-width="8" stroke-linecap="round"/><polyline points="358,152 387,74" fill="none" stroke="#8a8f98" stroke-width="8" stroke-linecap="round"/><polyline points="387,74 390,64" fill="none" stroke="#8a8f98" stroke-width="8" stroke-linecap="round"/><polyline points="400,68 396,77" fill="none" stroke="#8a8f98" stroke-width="8" stroke-linecap="round"/><polyline points="-151,339 -47,334" fill="none" stroke="#8a8f98" stroke-width="5" stroke-linecap="round"/><polyline points="-17,511 -32,486 -51,435" fill="none" stroke="#8a8f98" stroke-width="8" stroke-linecap="round"/><polyline points="-47,334 -26,282" fill="none" stroke="#8a8f98" stroke-width="8" stroke-linecap="round"/><polyline points="389,271 406,282 435,278" fill="none" stroke="#8a8f98" stroke-width="3" stroke-linecap="round"/><polyline points="542,72 556,88 569,97 574,95 581,86" fill="none" stroke="#8a8f98" stroke-width="3" stroke-linecap="round"/><polyline points="468,216 466,202" fill="none" stroke="#8a8f98" stroke-width="5" stroke-linecap="round"/><polyline points="473,251 468,216" fill="none" stroke="#8a8f98" stroke-width="5" stroke-linecap="round"/><polyline points="200,23 306,6" fill="none" stroke="#8a8f98" stroke-width="3" stroke-linecap="round"/><polyline points="494,124 497,120" fill="none" stroke="#8a8f98" stroke-width="5" stroke-linecap="round"/><polyline points="504,125 502,129" fill="none" stroke="#8a8f98" stroke-width="5" stroke-linecap="round"/><polyline points="577,179 608,138" fill="none" stroke="#8a8f98" stroke-width="3" stroke-linecap="round"/><polyline points="497,120 504,125" fill="none" stroke="#8a8f98" stroke-width="5" stroke-linecap="round"/><polyline points="502,129 494,124" fill="none" stroke="#8a8f98" stroke-width="5" stroke-linecap="round"/><polyline points="465,99 497,120" fill="none" stroke="#8a8f98" stroke-width="5" stroke-linecap="round"/><polyline points="494,124 463,104" fill="none" stroke="#8a8f98" stroke-width="5" stroke-linecap="round"/><polyline points="463,104 444,96" fill="none" stroke="#8a8f98" stroke-width="5" stroke-linecap="round"/><polyline points="447,90 465,99" fill="none" stroke="#8a8f98" stroke-width="5" stroke-linecap="round"/><polyline points="444,96 396,77" fill="none" stroke="#8a8f98" stroke-width="5" stroke-linecap="round"/><polyline points="217,143 211,101" fill="none" stroke="#8a8f98" stroke-width="3" stroke-linecap="round"/><polyline points="138,155 138,208" fill="none" stroke="#8a8f98" stroke-width="3" stroke-linecap="round"/><polyline points="240,192 175,193" fill="none" stroke="#8a8f98" stroke-width="3" stroke-linecap="round"/><polyline points="171,287 218,286" fill="none" stroke="#8a8f98" stroke-width="3" stroke-linecap="round"/><polyline points="-7,184 -28,230 -35,231" fill="none" stroke="#8a8f98" stroke-width="3" stroke-linecap="round"/><polyline points="-65,98 -72,66 -65,52 -27,47" fill="none" stroke="#8a8f98" stroke-width="3" stroke-linecap="round"/><polyline points="211,101 204,55" fill="none" stroke="#8a8f98" stroke-width="3" stroke-linecap="round"/><polyline points="403,359 372,315" fill="none" stroke="#8a8f98" stroke-width="8" stroke-linecap="round"/><polyline points="396,77 378,130" fill="none" stroke="#8a8f98" stroke-width="8" stroke-linecap="round"/><polyline points="393,501 416,470" fill="none" stroke="#8a8f98" stroke-width="8" stroke-linecap="round"/><polyline points="345,200 351,171 358,152" fill="none" stroke="#8a8f98" stroke-width="8" stroke-linecap="round"/><polyline points="378,130 369,155" fill="none" stroke="#8a8f98" stroke-width="8" stroke-linecap="round"/><polyline points="420,-58 418,8" fill="none" stroke="#8a8f98" stroke-width="8" stroke-linecap="round"/><polyline points="34,183 6,246" fill="none" stroke="#8a8f98" stroke-width="8" stroke-linecap="round"/><polyline points="378,311 386,322" fill="none" stroke="#8a8f98" stroke-width="8" stroke-linecap="round"/><polyline points="561,168 577,179" fill="none" stroke="#8a8f98" stroke-width="5" stroke-linecap="round"/><polyline points="520,143 502,129" fill="none" stroke="#8a8f98" stroke-width="5" stroke-linecap="round"/><polyline points="466,202 464,185" fill="none" stroke="#8a8f98" stroke-width="5" stroke-linecap="round"/><polyline points="456,563 498,585" fill="none" stroke="#8a8f98" stroke-width="3" stroke-linecap="round"/><polyline points="557,588 599,588" fill="none" stroke="#8a8f98" stroke-width="3" stroke-linecap="round"/><polyline points="106,574 141,599" fill="none" stroke="#8a8f98" stroke-width="3" stroke-linecap="round"/><polyline points="573,184 577,179" fill="none" stroke="#8a8f98" stroke-width="5" stroke-linecap="round"/><polyline points="211,101 115,114" fill="none" stroke="#8a8f98" stroke-width="3" stroke-linecap="round"/><polyline points="-10,278 -15,288" fill="none" stroke="#8a8f98" stroke-width="8" stroke-linecap="round"/><polyline points="-26,282 22,179" fill="none" stroke="#8a8f98" stroke-width="8" stroke-linecap="round"/><polyline points="57,12 59,75" fill="none" stroke="#8a8f98" stroke-width="8" stroke-linecap="round"/><polyline points="508,275 504,295 537,289 559,304 592,262 563,240 540,272 508,275" fill="none" stroke="#8a8f98" stroke-width="3" stroke-linecap="round"/><polyline points="607,265 568,235" fill="none" stroke="#8a8f98" stroke-width="3" stroke-linecap="round"/><polyline points="314,145 318,153 318,158 314,160 287,160 283,140" fill="none" stroke="#8a8f98" stroke-width="3" stroke-linecap="round"/><polyline points="358,152 314,145" fill="none" stroke="#8a8f98" stroke-width="3" stroke-linecap="round"/><polyline points="71,334 -7,333 -17,340 -20,349 -24,371 -23,397" fill="none" stroke="#8a8f98" stroke-width="3" stroke-linecap="round"/><polyline points="593,248 557,220 553,212" fill="none" stroke="#8a8f98" stroke-width="3" stroke-linecap="round"/><polyline points="-47,-23 3,-35" fill="none" stroke="#8a8f98" stroke-width="10" stroke-linecap="round"/><polyline points="159,334 107,334" fill="none" stroke="#8a8f98" stroke-width="3" stroke-linecap="round"/><polyline points="20,398 -23,397" fill="none" stroke="#8a8f98" stroke-width="3" stroke-linecap="round"/><polyline points="240,192 241,232" fill="none" stroke="#8a8f98" stroke-width="3" stroke-linecap="round"/><polyline points="256,94 264,137" fill="none" stroke="#8a8f98" stroke-width="3" stroke-linecap="round"/><polyline points="503,301 508,303 522,302 528,308 528,313 523,316 508,321" fill="none" stroke="#8a8f98" stroke-width="3" stroke-linecap="round"/><polyline points="508,321 436,330" fill="none" stroke="#8a8f98" stroke-width="3" stroke-linecap="round"/><polyline points="463,282 475,273 487,277" fill="none" stroke="#8a8f98" stroke-width="5" stroke-linecap="round"/><polyline points="487,277 492,285 492,294" fill="none" stroke="#8a8f98" stroke-width="5" stroke-linecap="round"/><polyline points="82,269 38,269" fill="none" stroke="#8a8f98" stroke-width="3" stroke-linecap="round"/><polyline points="108,276 108,261 132,238 138,238" fill="none" stroke="#8a8f98" stroke-width="3" stroke-linecap="round"/><polyline points="6,246 -10,278" fill="none" stroke="#8a8f98" stroke-width="8" stroke-linecap="round"/><polyline points="670,585 664,481" fill="none" stroke="#8a8f98" stroke-width="5" stroke-linecap="round"/><polyline points="812,185 864,222" fill="none" stroke="#8a8f98" stroke-width="10" stroke-linecap="round"/><polyline points="794,186 700,110" fill="none" stroke="#8a8f98" stroke-width="10" stroke-linecap="round"/><polyline points="931,278 891,254 841,220" fill="none" stroke="#8a8f98" stroke-width="10" stroke-linecap="round"/><polyline points="946,274 1048,328 1178,374 1217,391 1268,423 1290,441" fill="none" stroke="#8a8f98" stroke-width="10" stroke-linecap="round"/><polyline points="936,268 1013,121 1028,98 1037,89 1062,75 1082,71 1107,69" fill="none" stroke="#8a8f98" stroke-width="8" stroke-linecap="round"/><polyline points="972,580 977,548 980,545 999,546 1016,543 1084,554 1098,561 1121,566" fill="none" stroke="#8a8f98" stroke-width="3" stroke-linecap="round"/><polyline points="855,582 930,582" fill="none" stroke="#8a8f98" stroke-width="3" stroke-linecap="round"/><polyline points="991,336 946,393" fill="none" stroke="#8a8f98" stroke-width="3" stroke-linecap="round"/><polyline points="946,393 886,363" fill="none" stroke="#8a8f98" stroke-width="3" stroke-linecap="round"/><polyline points="1080,412 1003,381" fill="none" stroke="#8a8f98" stroke-width="3" stroke-linecap="round"/><polyline points="1128,518 1109,509 1039,498 1034,496 1031,483 1014,475 999,472 980,479 976,495" fill="none" stroke="#8a8f98" stroke-width="3" stroke-linecap="round"/><polyline points="647,235 718,287 733,290 738,288 745,279" fill="none" stroke="#8a8f98" stroke-width="3" stroke-linecap="round"/><polyline points="741,130 801,176" fill="none" stroke="#8a8f98" stroke-width="10" stroke-linecap="round"/><polyline points="931,278 936,268" fill="none" stroke="#8a8f98" stroke-width="8" stroke-linecap="round"/><polyline points="794,186 761,230" fill="none" stroke="#8a8f98" stroke-width="3" stroke-linecap="round"/><polyline points="670,471 694,469 746,457 804,427 829,410 855,386 882,353" fill="none" stroke="#8a8f98" stroke-width="8" stroke-linecap="round"/><polyline points="667,152 745,208" fill="none" stroke="#8a8f98" stroke-width="3" stroke-linecap="round"/><polyline points="806,194 794,186" fill="none" stroke="#8a8f98" stroke-width="10" stroke-linecap="round"/><polyline points="801,176 812,185" fill="none" stroke="#8a8f98" stroke-width="10" stroke-linecap="round"/><polyline points="940,283 935,293" fill="none" stroke="#8a8f98" stroke-width="8" stroke-linecap="round"/><polyline points="946,274 940,283" fill="none" stroke="#8a8f98" stroke-width="8" stroke-linecap="round"/><polyline points="1164,79 1090,83 1070,87 1045,101 1029,120 984,201" fill="none" stroke="#8a8f98" stroke-width="8" stroke-linecap="round"/><polyline points="1071,453 984,416" fill="none" stroke="#8a8f98" stroke-width="3" stroke-linecap="round"/><polyline points="886,363 865,392 839,416 784,451 739,470" fill="none" stroke="#8a8f98" stroke-width="8" stroke-linecap="round"/><polyline points="936,268 946,274" fill="none" stroke="#8a8f98" stroke-width="10" stroke-linecap="round"/><polyline points="995,315 940,283" fill="none" stroke="#8a8f98" stroke-width="10" stroke-linecap="round"/><polyline points="882,353 931,278" fill="none" stroke="#8a8f98" stroke-width="8" stroke-linecap="round"/><polyline points="984,201 946,274" fill="none" stroke="#8a8f98" stroke-width="8" stroke-linecap="round"/><polyline points="864,222 936,268" fill="none" stroke="#8a8f98" stroke-width="10" stroke-linecap="round"/><polyline points="940,283 931,278" fill="none" stroke="#8a8f98" stroke-width="10" stroke-linecap="round"/><polyline points="664,481 664,471" fill="none" stroke="#8a8f98" stroke-width="5" stroke-linecap="round"/><polyline points="682,200 655,180 652,173" fill="none" stroke="#8a8f98" stroke-width="3" stroke-linecap="round"/><polyline points="761,230 751,242 739,243 682,200" fill="none" stroke="#8a8f98" stroke-width="3" stroke-linecap="round"/><polyline points="773,239 806,194" fill="none" stroke="#8a8f98" stroke-width="3" stroke-linecap="round"/><polyline points="745,279 773,239" fill="none" stroke="#8a8f98" stroke-width="3" stroke-linecap="round"/><polyline points="799,383 808,371 808,367 775,343" fill="none" stroke="#8a8f98" stroke-width="3" stroke-linecap="round"/><polyline points="869,292 833,264" fill="none" stroke="#8a8f98" stroke-width="3" stroke-linecap="round"/><polyline points="744,278 717,314" fill="none" stroke="#8a8f98" stroke-width="3" stroke-linecap="round"/><polyline points="670,471 671,481" fill="none" stroke="#8a8f98" stroke-width="5" stroke-linecap="round"/><polyline points="671,481 675,553" fill="none" stroke="#8a8f98" stroke-width="5" stroke-linecap="round"/><polyline points="841,220 817,252" fill="none" stroke="#8a8f98" stroke-width="3" stroke-linecap="round"/><polyline points="841,220 835,216" fill="none" stroke="#8a8f98" stroke-width="10" stroke-linecap="round"/><polyline points="935,293 919,320 886,363" fill="none" stroke="#8a8f98" stroke-width="8" stroke-linecap="round"/><polyline points="700,110 666,78" fill="none" stroke="#8a8f98" stroke-width="10" stroke-linecap="round"/><polyline points="666,78 660,80 651,89 627,120" fill="none" stroke="#8a8f98" stroke-width="3" stroke-linecap="round"/><polyline points="671,481 664,481" fill="none" stroke="#8a8f98" stroke-width="8" stroke-linecap="round"/><polyline points="664,471 670,471" fill="none" stroke="#8a8f98" stroke-width="8" stroke-linecap="round"/><polyline points="835,216 806,194" fill="none" stroke="#8a8f98" stroke-width="10" stroke-linecap="round"/><polyline points="639,250 673,274" fill="none" stroke="#8a8f98" stroke-width="3" stroke-linecap="round"/><polyline points="986,410 946,393" fill="none" stroke="#8a8f98" stroke-width="3" stroke-linecap="round"/><polyline points="812,249 782,290" fill="none" stroke="#8a8f98" stroke-width="3" stroke-linecap="round"/><polyline points="901,418 962,444" fill="none" stroke="#8a8f98" stroke-width="3" stroke-linecap="round"/><polyline points="940,489 930,550" fill="none" stroke="#8a8f98" stroke-width="3" stroke-linecap="round"/><polyline points="739,470 702,478 671,481" fill="none" stroke="#8a8f98" stroke-width="8" stroke-linecap="round"/><polyline points="642,36 712,105" fill="none" stroke="#8a8f98" stroke-width="10" stroke-linecap="round"/><polyline points="1031,333 995,315" fill="none" stroke="#8a8f98" stroke-width="10" stroke-linecap="round"/><polyline points="712,105 741,130" fill="none" stroke="#8a8f98" stroke-width="10" stroke-linecap="round"/><polyline points="675,553 677,583" fill="none" stroke="#8a8f98" stroke-width="5" stroke-linecap="round"/><polyline points="817,252 758,330" fill="none" stroke="#8a8f98" stroke-width="3" stroke-linecap="round"/><polyline points="782,290 754,327" fill="none" stroke="#8a8f98" stroke-width="3" stroke-linecap="round"/><polyline points="701,335 637,287" fill="none" stroke="#8a8f98" stroke-width="3" stroke-linecap="round"/><polyline points="667,152 700,110" fill="none" stroke="#8a8f98" stroke-width="3" stroke-linecap="round"/><polyline points="1083,597 991,583" fill="none" stroke="#8a8f98" stroke-width="3" stroke-linecap="round"/><polyline points="780,32 745,83 681,173 612,276 474,456 397,551 204,813 -211,1361 -351,1555 -419,1639 -458,1701 -475,1739 -490,1799 -493,1858 -490,1900 -480,1944 -467,1980 -386,2139" fill="none" stroke="#444" stroke-width="4" stroke-dasharray="8,4"/><polyline points="-152,1274 308,662 597,265 741,80 776,29" fill="none" stroke="#444" stroke-width="4" stroke-dasharray="8,4"/><polygon points="558,194 508,152 501,153 480,183 480,190 485,194 481,198 490,260 508,275 540,272 563,240 541,224 559,199 558,194" fill="#c8c2b8" stroke="#00000033"/><polygon points="667,221 750,283 779,244 696,182 667,221" fill="#c8c2b8" stroke="#00000033"/><polygon points="488,395 515,415 528,398 523,394 612,276 596,264 507,384 501,379 488,395" fill="#c8c2b8" stroke="#00000033"/><polygon points="292,169 292,202 300,204 297,205 300,238 330,238 330,226 325,226 325,223 335,223 335,194 338,194 338,180 334,180 334,168 305,166 305,168 292,169" fill="#c8c2b8" stroke="#00000033"/><polygon points="133,318 128,313 125,316 123,314 126,311 122,306 122,288 116,288 116,286 122,285 122,267 127,262 121,257 124,254 129,260 134,255 150,255 151,249 154,249 154,256 195,256 195,250 198,250 198,256 209,256 213,250 208,250 208,247 225,247 225,252 230,257 224,264 217,258 215,261 221,266 213,274 210,270 202,270 202,273 181,270 181,273 168,273 168,269 148,273 148,269 141,269 134,277 134,282 139,282 139,292 134,292 134,298 142,306 147,306 147,302 163,301 163,315 160,315 160,318 154,318 154,324 151,324 151,318 133,318" fill="#c8c2b8" stroke="#00000033"/><polygon points="683,663 683,669 680,669 680,680 683,680 683,686 675,693 670,693 670,689 656,689 656,693 646,693 646,689 633,692 631,689 631,702 639,705 639,714 643,714 643,706 684,706 688,702 692,705 694,703 690,699 695,694 696,676 701,676 701,673 696,673 696,654 692,650 696,647 693,644 689,647 685,643 645,643 645,638 640,638 640,643 624,644 624,636 620,636 620,643 616,643 616,648 612,648 612,660 617,658 617,660 627,660 627,656 637,656 637,660 647,660 647,655 657,655 657,660 677,657 683,663" fill="#c8c2b8" stroke="#00000033"/><polygon points="64,603 90,622 43,687 17,668 64,603" fill="#c8c2b8" stroke="#00000033"/><polygon points="448,254 453,259 454,266 449,271 439,272 435,266 439,266 436,241 429,242 429,235 422,232 419,225 421,218 428,214 424,207 429,207 430,183 424,182 426,167 433,147 441,150 450,127 445,125 450,114 467,122 470,128 467,134 458,137 444,171 441,199 448,254" fill="#c8c2b8" stroke="#00000033"/><polygon points="184,438 188,438 188,442 195,442 195,446 206,446 206,442 216,442 216,446 229,446 229,442 239,442 239,447 249,447 249,442 270,446 270,442 291,446 295,439 295,443 303,448 300,455 297,455 297,471 309,471 309,466 313,466 313,461 316,461 313,458 313,441 308,434 301,430 283,430 283,424 280,424 280,430 264,430 264,424 261,424 261,430 243,430 243,424 240,424 240,430 200,430 200,425 197,425 197,430 184,430 181,424 173,432 179,438 177,440 171,434 163,442 169,445 169,448 179,448 185,442 182,440 184,438" fill="#c8c2b8" stroke="#00000033"/><polygon points="304,-39 310,-1 327,-4 325,-14 329,-14 331,-3 370,-9 368,-21 372,-21 375,-1 390,-4 391,-35 378,-34 378,-37 365,-37 327,-31 328,-25 322,-24 320,-41 304,-39" fill="#c8c2b8" stroke="#00000033"/><polygon points="735,374 787,414 799,398 809,406 817,396 817,392 811,388 809,390 754,349 735,374" fill="#c8c2b8" stroke="#00000033"/><polygon points="984,594 1010,599 1010,603 1016,604 1017,600 1036,607 1036,603 1046,605 1045,608 1064,608 1064,612 1074,613 1074,610 1084,611 1084,615 1090,616 1090,612 1118,617 1116,629 1109,628 1108,633 1086,629 1085,633 1081,633 1081,628 1013,617 1012,621 1007,621 1008,616 987,613 988,609 981,608 984,594" fill="#c8c2b8" stroke="#00000033"/><polygon points="572,152 566,136 518,100 526,90 556,112 562,100 511,62 503,72 524,88 516,99 498,85 491,97 568,154 572,152" fill="#c8c2b8" stroke="#00000033"/><polygon points="595,80 566,120 593,140 637,81 623,70 608,89 595,80" fill="#c8c2b8" stroke="#00000033"/><polygon points="29,428 19,428 19,432 12,435 7,426 8,420 11,420 11,404 -3,404 -7,412 -14,412 -14,416 -7,416 -7,433 -2,438 -6,441 -4,443 0,440 5,445 22,445 22,450 26,450 26,443 34,443 40,437 38,434 49,423 52,426 54,424 51,420 61,410 63,414 66,413 65,409 81,409 80,415 84,415 84,409 92,405 92,392 77,392 77,395 62,395 53,398 44,409 41,407 34,414 35,422 29,428" fill="#c8c2b8" stroke="#00000033"/><polygon points="847,553 893,553 893,548 896,548 896,552 920,552 920,556 927,556 927,569 899,569 899,565 893,565 893,569 871,569 871,565 851,568 851,565 844,568 847,571 847,578 844,578 844,587 847,587 846,597 849,601 850,598 863,598 863,612 852,615 852,612 845,612 840,607 835,612 833,609 838,604 834,600 834,594 831,594 832,571 847,553" fill="#c8c2b8" stroke="#00000033"/><polygon points="201,621 202,615 213,616 221,627 221,622 227,622 227,627 239,617 239,603 246,603 246,598 239,598 239,595 246,595 239,586 236,586 236,591 233,591 233,586 216,586 216,592 213,592 213,587 203,583 203,569 205,572 219,569 219,574 229,574 229,569 239,569 239,573 245,571 253,578 247,583 250,586 255,580 262,588 257,591 257,598 262,598 263,608 250,605 250,620 253,623 235,644 229,639 220,639 216,643 207,635 213,628 211,626 206,631 198,624 201,621" fill="#c8c2b8" stroke="#00000033"/><polygon points="263,531 265,526 276,526 283,538 283,533 290,533 290,538 302,528 302,514 309,514 309,509 301,509 301,506 309,506 302,497 299,497 299,502 295,502 295,497 279,497 279,502 275,502 275,497 265,494 265,480 268,483 281,480 281,485 292,485 292,480 302,480 302,484 308,481 315,489 310,494 312,496 318,491 325,498 320,501 323,519 315,519 312,516 313,531 315,534 297,554 292,550 283,550 278,554 269,545 276,539 274,536 268,542 260,534 263,531" fill="#c8c2b8" stroke="#00000033"/><polygon points="-96,505 -107,511 -109,520 -105,526 -85,535 -47,509 -50,493 -48,489 -52,483 -60,484 -60,475 -55,471 -62,461 -67,464 -72,454 -88,466 -65,501 -88,516 -94,505 -96,505" fill="#c8c2b8" stroke="#00000033"/><polygon points="370,391 373,388 380,395 375,400 378,403 383,397 390,405 385,408 385,415 390,415 390,425 377,422 380,433 378,439 383,441 365,462 360,457 351,457 346,462 337,453 344,446 342,444 336,450 328,442 333,439 333,434 344,434 351,445 351,440 358,440 358,445 367,435 367,420 374,420 374,415 366,415 366,412 374,412 374,409 367,402 359,402 359,397 352,397 352,401 348,401 348,397 342,397 342,402 330,402 330,392 340,392 340,388 337,388 337,382 348,382 348,386 354,386 354,381 364,381 364,389 362,391 370,391" fill="#c8c2b8" stroke="#00000033"/><polygon points="163,225 181,225 181,230 184,230 184,225 201,225 201,230 205,230 205,225 222,225 222,232 225,232 225,226 230,226 230,222 234,222 234,208 218,208 218,212 198,209 198,212 188,212 188,208 171,212 163,203 164,197 167,197 164,180 171,174 171,162 163,162 158,166 152,161 150,163 155,169 151,174 150,190 144,190 144,193 150,193 149,211 163,225" fill="#c8c2b8" stroke="#00000033"/><polygon points="980,566 1107,586 1109,570 982,551 980,566" fill="#c8c2b8" stroke="#00000033"/><polygon points="490,518 490,520 494,520 494,523 490,523 490,529 495,528 496,543 504,551 503,547 510,547 510,551 521,540 532,540 531,545 537,548 528,556 523,551 520,553 525,558 516,567 508,558 497,567 489,559 496,553 494,551 488,556 481,548 485,545 484,531 475,533 475,524 479,524 479,516 474,513 481,506 487,511 489,509 484,503 492,496 495,501 507,501 505,491 515,491 515,495 521,495 521,491 531,491 531,499 528,501 540,501 540,512 526,512 526,507 516,510 516,507 510,507 510,511 496,511 490,518" fill="#c8c2b8" stroke="#00000033"/><polygon points="423,604 428,609 423,609 423,615 429,615 429,629 437,637 437,634 443,633 443,638 455,626 465,626 465,631 470,634 461,642 457,637 454,640 458,645 449,653 441,644 430,654 423,645 429,639 427,637 421,642 415,634 418,631 418,617 408,620 408,610 412,610 412,603 407,599 415,592 420,598 423,595 417,590 425,582 428,588 441,588 439,577 449,577 449,582 455,582 455,577 465,577 465,585 462,587 474,587 474,598 460,598 460,593 450,596 450,593 444,593 444,598 430,598 423,604" fill="#c8c2b8" stroke="#00000033"/><polygon points="23,316 26,293 23,293 23,274 72,275 72,280 78,280 78,286 72,286 72,314 30,314 30,317 23,316" fill="#c8c2b8" stroke="#00000033"/><polygon points="-7,620 22,641 13,652 3,645 1,649 -2,647 1,644 -11,635 -11,640 -14,640 -14,635 -30,644 -29,646 -53,656 -51,660 -54,661 -56,658 -75,668 -73,672 -76,674 -78,670 -85,674 -95,655 -87,651 -84,656 -20,622 -7,620" fill="#c8c2b8" stroke="#00000033"/><polygon points="229,520 185,520 185,514 182,514 182,519 164,519 164,514 161,514 161,519 145,519 145,512 142,512 142,519 134,523 134,536 137,533 140,533 140,536 149,536 149,532 160,532 160,536 170,536 170,532 180,532 180,536 191,536 191,532 201,532 201,536 215,536 215,532 222,532 227,537 227,544 224,545 226,558 224,560 236,560 236,556 240,556 240,550 246,550 245,547 241,547 240,530 235,525 238,522 235,520 232,523 229,520" fill="#c8c2b8" stroke="#00000033"/><polygon points="229,347 225,343 233,335 239,341 241,339 235,333 243,326 246,332 258,332 258,326 262,326 262,332 303,332 303,326 305,326 305,332 325,332 329,336 332,332 335,334 331,338 337,343 337,368 333,368 333,372 320,372 320,357 324,357 326,350 323,350 319,342 312,344 312,348 301,348 301,344 290,343 290,348 278,348 278,343 267,342 267,348 257,348 257,343 250,343 250,339 246,339 244,341 250,348 248,350 244,346 240,350 230,350 229,347" fill="#c8c2b8" stroke="#00000033"/><polygon points="905,404 901,405 903,408 900,415 897,414 894,423 896,424 891,432 893,437 907,439 904,450 897,448 896,453 891,451 892,447 886,446 883,439 876,442 875,440 881,436 878,430 881,425 878,424 891,400 908,392 954,409 955,406 959,407 958,410 968,414 967,417 973,419 968,431 954,426 955,423 926,415 927,412 907,408 908,406 905,404" fill="#c8c2b8" stroke="#00000033"/><polygon points="78,50 118,46 118,44 158,40 158,37 192,32 193,40 190,41 188,48 177,53 101,63 98,66 83,63 78,50" fill="#c8c2b8" stroke="#00000033"/><polygon points="955,504 953,516 961,519 952,521 949,543 953,544 952,548 948,547 945,562 950,563 949,568 944,567 943,574 958,576 968,522 982,524 981,531 984,531 987,524 984,538 999,540 1001,528 994,527 994,523 1007,525 1009,512 981,508 980,513 975,512 976,507 965,505 965,507 955,504" fill="#c8c2b8" stroke="#00000033"/><polygon points="433,344 432,335 449,333 450,324 459,323 460,327 486,325 485,322 495,323 494,318 503,317 503,319 508,319 509,323 520,322 521,331 518,332 518,335 507,336 508,343 501,343 501,347 473,348 473,350 458,352 457,350 450,350 449,345 433,344" fill="#c8c2b8" stroke="#00000033"/><polygon points="443,-8 439,-9 438,8 452,29 447,29 434,37 423,64 463,81 470,68 442,57 446,48 443,46 453,42 456,37 467,53 479,46 469,36 443,-8" fill="#c8c2b8" stroke="#00000033"/><polygon points="200,89 196,76 181,76 180,72 178,72 178,76 170,79 105,89 104,84 101,85 102,89 92,92 86,100 88,108 200,89" fill="#c8c2b8" stroke="#00000033"/><polygon points="287,26 289,40 284,40 284,43 234,50 236,65 241,64 242,68 237,70 250,68 250,73 248,73 252,84 240,86 239,78 234,79 235,86 222,88 222,84 224,84 220,64 224,64 224,59 219,60 220,51 218,51 218,40 215,36 227,34 228,41 232,42 236,42 235,34 240,33 241,37 246,37 245,32 256,31 257,35 262,35 261,30 275,27 276,32 281,31 280,27 287,26" fill="#c8c2b8" stroke="#00000033"/><polygon points="7,373 4,375 7,375 7,380 10,380 10,395 -3,395 -3,392 -7,392 -7,386 -14,386 -14,382 -7,382 -7,366 -2,360 -6,356 -4,353 1,358 5,354 13,354 13,351 45,351 45,345 48,345 48,351 65,351 65,343 68,343 68,351 77,355 77,368 62,368 62,364 42,368 42,364 31,364 31,368 18,368 18,364 13,364 7,373" fill="#c8c2b8" stroke="#00000033"/><polygon points="-7,572 39,606 48,595 39,588 42,584 39,582 36,586 19,574 21,570 17,567 15,570 -5,557 -4,551 -7,551 -8,557 -31,568 -34,562 -37,564 -34,569 -46,576 -41,585 -34,582 -32,587 -39,590 -33,600 -21,594 -27,582 -7,572" fill="#c8c2b8" stroke="#00000033"/><polygon points="972,459 977,448 985,451 986,447 979,444 984,433 1000,440 998,446 1001,448 1003,441 1009,444 1007,448 1011,450 1013,446 1023,450 1021,454 1026,456 1028,452 1038,456 1036,461 1040,463 1042,458 1065,468 1060,479 1053,476 1051,480 1059,483 1054,493 1039,488 1044,476 1042,475 1039,483 1036,482 1039,474 992,453 987,464 972,459" fill="#c8c2b8" stroke="#00000033"/><polygon points="942,449 941,454 939,454 936,477 932,477 931,482 934,483 933,493 929,492 928,502 931,502 930,512 927,511 926,518 928,518 925,546 911,544 912,538 909,538 912,514 909,514 910,511 913,512 917,479 915,478 915,475 918,476 921,453 926,453 927,447 942,449" fill="#c8c2b8" stroke="#00000033"/><polygon points="99,695 87,686 109,657 141,681 145,681 151,674 143,667 141,670 138,667 139,665 118,648 116,651 113,648 115,646 104,638 96,649 100,653 88,666 90,668 88,671 85,669 70,686 79,694 81,692 85,694 83,697 96,706 111,706 111,694 99,695" fill="#c8c2b8" stroke="#00000033"/><polygon points="248,387 243,382 241,385 239,383 244,378 242,376 237,380 239,365 224,363 224,373 228,373 228,380 223,383 231,390 236,385 238,387 233,393 240,400 243,395 256,395 256,401 259,402 259,395 299,395 299,403 303,403 303,395 310,395 310,391 314,391 314,378 298,378 298,382 288,382 288,378 275,378 275,382 254,378 254,382 249,382 248,387" fill="#c8c2b8" stroke="#00000033"/><polygon points="180,474 182,460 166,457 166,467 170,467 170,475 165,478 173,485 178,479 181,481 175,487 182,495 186,489 198,489 198,496 201,496 201,489 241,489 241,497 244,497 244,489 253,489 253,486 257,486 257,472 254,475 241,473 241,476 217,473 217,476 197,473 197,476 192,476 192,482 181,477 186,472 184,470 180,474" fill="#c8c2b8" stroke="#00000033"/><polygon points="602,177 613,185 606,195 612,199 619,190 628,196 596,239 587,232 601,214 595,209 582,228 570,220 602,177" fill="#c8c2b8" stroke="#00000033"/><polygon points="496,611 561,611 561,608 565,608 565,611 576,611 576,614 582,614 582,628 576,626 576,628 567,628 567,624 559,624 559,628 546,626 546,628 539,626 539,628 530,628 530,625 518,625 518,628 508,628 508,625 504,624 504,628 490,628 490,615 496,615 496,611" fill="#c8c2b8" stroke="#00000033"/><polygon points="-8,168 -14,152 -66,160 -65,163 -95,165 -97,173 -95,182 -8,168" fill="#c8c2b8" stroke="#00000033"/><polygon points="642,526 647,521 640,514 634,520 631,517 637,512 630,504 627,510 589,510 589,505 584,505 584,510 570,510 567,504 559,512 565,518 562,520 557,514 549,522 554,525 554,529 564,529 569,525 571,528 574,525 571,522 581,522 580,527 591,527 591,522 602,522 602,527 615,527 615,522 625,522 621,525 624,528 628,524 632,528 642,529 642,526" fill="#c8c2b8" stroke="#00000033"/><polygon points="550,571 555,571 555,575 566,575 566,579 568,579 568,575 581,575 581,572 635,575 636,571 642,571 642,557 636,559 636,557 627,557 627,561 622,561 622,557 613,557 613,561 601,561 601,557 592,557 592,559 585,557 585,560 573,557 573,561 564,561 564,557 555,557 555,559 550,557 550,571" fill="#c8c2b8" stroke="#00000033"/><polygon points="155,365 158,368 166,360 160,355 162,353 168,358 175,351 169,347 169,341 153,341 153,344 158,346 152,351 142,351 143,344 139,344 139,350 99,350 99,342 96,342 96,350 90,350 90,354 87,354 87,367 89,365 102,367 102,363 112,363 112,367 126,367 126,364 136,364 136,367 146,367 146,363 155,365" fill="#c8c2b8" stroke="#00000033"/><polygon points="996,392 992,404 997,406 995,410 1051,434 1049,439 1053,440 1055,435 1065,440 1067,436 1072,438 1077,426 1063,420 1062,424 1057,421 1058,418 1048,414 1047,417 1039,414 1040,411 1031,407 1030,410 1021,406 1022,403 996,392" fill="#c8c2b8" stroke="#00000033"/><polygon points="258,182 268,183 268,180 273,176 265,168 260,174 257,172 263,166 255,159 252,165 237,165 237,156 234,156 234,164 195,165 195,156 192,156 192,164 186,164 186,168 183,168 183,182 198,181 198,178 208,178 208,181 221,181 221,178 231,178 231,181 242,181 242,178 247,177 248,180 251,176 258,182" fill="#c8c2b8" stroke="#00000033"/><polygon points="85,176 81,168 77,169 76,167 79,165 75,156 84,119 88,120 90,114 102,117 99,131 96,131 92,156 89,158 92,164 96,162 103,163 102,166 108,168 109,165 123,168 120,181 114,179 113,183 85,176" fill="#c8c2b8" stroke="#00000033"/><polygon points="116,134 133,131 133,133 149,128 150,130 156,129 155,127 176,126 176,123 206,118 207,127 205,127 205,132 202,135 138,146 135,149 120,146 116,134" fill="#c8c2b8" stroke="#00000033"/><polygon points="99,17 129,12 129,9 135,8 136,11 149,9 149,7 169,5 168,3 189,2 187,-7 181,-12 169,-11 168,-16 165,-15 166,-11 157,-8 102,1 97,8 99,17" fill="#c8c2b8" stroke="#00000033"/><polygon points="-48,85 11,78 26,74 24,65 19,57 10,59 10,62 5,63 4,60 -47,67 -50,73 -48,85" fill="#c8c2b8" stroke="#00000033"/><polygon points="679,204 645,179 631,198 736,277 738,274 667,221 679,204" fill="#c8c2b8" stroke="#00000033"/><polygon points="631,267 703,321 715,305 701,294 698,300 639,257 631,267" fill="#c8c2b8" stroke="#00000033"/><polygon points="-88,27 -74,25 -74,21 -71,21 -70,24 -46,20 -46,17 -41,16 -40,19 -14,15 -12,25 -14,33 -37,37 -37,34 -43,35 -43,38 -66,42 -67,39 -82,44 -88,27" fill="#c8c2b8" stroke="#00000033"/><polygon points="872,595 872,608 877,608 877,612 930,613 930,619 934,619 934,613 945,613 945,609 952,609 952,596 937,596 937,599 932,599 932,596 909,596 909,599 899,599 900,595 872,595" fill="#c8c2b8" stroke="#00000033"/><polygon points="714,329 733,343 772,292 756,280 748,290 753,294 731,324 711,310 703,321 714,329" fill="#c8c2b8" stroke="#00000033"/><polygon points="293,133 299,132 299,127 303,126 304,131 318,129 318,124 324,123 324,127 336,126 335,118 330,119 331,111 327,112 325,103 347,100 347,97 351,97 349,83 343,84 344,89 339,89 339,85 324,87 324,92 319,92 318,88 307,90 308,97 311,97 311,105 315,104 318,112 291,118 293,133" fill="#c8c2b8" stroke="#00000033"/><polygon points="-46,112 -30,110 -31,106 -28,106 -27,109 -3,105 -3,102 2,101 3,105 30,101 31,110 29,118 0,120 0,123 -23,126 -23,124 -39,128 -44,121 -46,112" fill="#c8c2b8" stroke="#00000033"/><polygon points="230,-28 235,-29 236,-24 241,-25 240,-30 255,-32 256,-28 261,-29 260,-33 271,-35 273,-27 269,-27 272,-19 268,-19 269,-10 295,-13 297,1 287,-2 287,3 273,5 272,1 266,2 267,6 255,8 258,-16 232,-14 230,-28" fill="#c8c2b8" stroke="#00000033"/><polygon points="329,64 335,63 334,59 339,58 340,62 354,60 354,56 359,55 360,59 371,58 370,50 366,51 367,42 362,43 361,35 387,29 385,15 380,16 380,21 375,22 374,17 360,19 361,24 354,25 354,20 343,22 344,30 347,29 347,37 351,37 354,45 327,50 329,64" fill="#c8c2b8" stroke="#00000033"/><polygon points="986,354 1006,351 1022,359 1014,375 1000,368 1001,363 994,363 996,367 975,401 960,392 969,378 966,376 967,374 970,376 986,354" fill="#c8c2b8" stroke="#00000033"/><polygon points="138,562 188,598 179,610 124,570 124,550 138,550 138,562" fill="#c8c2b8" stroke="#00000033"/><polygon points="471,-30 473,-28 470,-24 481,-16 478,-11 485,-6 483,0 525,30 517,41 474,9 477,5 468,-2 471,-6 462,-13 465,-17 454,-25 454,-30 471,-30" fill="#c8c2b8" stroke="#00000033"/><polygon points="821,224 776,286 760,274 767,264 772,268 810,216 821,224" fill="#c8c2b8" stroke="#00000033"/><polygon points="399,246 436,241 439,266 399,269 392,260 393,252 399,246" fill="#c8c2b8" stroke="#00000033"/><polygon points="393,180 430,183 429,207 392,205 388,202 385,190 393,180" fill="#c8c2b8" stroke="#00000033"/><polygon points="776,319 784,308 847,356 840,366 776,319" fill="#c8c2b8" stroke="#00000033"/><polygon points="557,21 563,14 567,14 598,45 601,42 616,63 616,68 608,73 604,71 595,54 585,52 580,46 582,45 564,30 563,26 558,25 560,23 557,21" fill="#c8c2b8" stroke="#00000033"/><polygon points="531,34 557,58 581,74 575,86 532,52 525,61 515,56 531,34" fill="#c8c2b8" stroke="#00000033"/><polygon points="420,116 450,127 441,150 410,139 409,125 413,119 420,116" fill="#c8c2b8" stroke="#00000033"/><polygon points="550,2 563,14 557,21 552,21 531,4 520,1 515,-8 509,-11 507,-9 502,-14 501,-11 497,-13 498,-15 494,-16 497,-25 525,-16 524,-13 550,2" fill="#c8c2b8" stroke="#00000033"/><polygon points="263,52 276,50 277,54 281,53 282,58 285,57 285,60 281,60 283,76 288,76 288,78 284,79 286,95 290,94 291,97 288,97 289,102 284,103 285,107 272,109 274,103 271,104 270,94 273,94 272,85 269,85 269,66 266,66 263,52" fill="#c8c2b8" stroke="#00000033"/><polygon points="316,21 318,35 314,36 316,45 319,44 321,54 317,55 319,63 322,63 324,78 312,80 311,76 307,76 306,71 303,72 303,69 307,68 305,53 300,54 300,51 304,50 302,35 298,36 297,32 300,32 299,28 304,27 303,23 316,21" fill="#c8c2b8" stroke="#00000033"/><polygon points="114,421 112,418 117,413 115,410 118,407 112,401 115,393 126,394 126,401 131,401 131,393 142,393 145,401 139,407 142,410 139,413 145,418 141,425 131,425 131,419 126,419 125,425 114,425 114,421" fill="#c8c2b8" stroke="#00000033"/><polygon points="255,237 252,234 258,228 255,225 258,222 252,216 256,209 266,209 266,217 271,217 271,209 282,209 286,216 280,222 283,225 280,228 285,234 282,240 271,240 271,235 266,234 266,241 255,240 255,237" fill="#c8c2b8" stroke="#00000033"/><polygon points="186,329 183,326 189,321 186,318 189,315 184,309 187,302 198,302 198,310 203,310 203,301 214,302 217,309 211,315 214,318 211,321 216,327 213,333 202,333 202,327 197,327 197,333 186,333 186,329" fill="#c8c2b8" stroke="#00000033"/><polygon points="92,526 89,522 94,517 92,514 95,511 89,505 92,498 103,498 103,506 108,506 108,498 119,498 123,505 116,511 119,514 116,517 122,523 119,529 108,529 108,523 103,523 103,529 91,529 92,526" fill="#c8c2b8" stroke="#00000033"/><polygon points="270,259 276,256 285,258 300,270 303,289 294,307 288,307 285,299 289,288 287,278 281,272 273,269 270,259" fill="#c8c2b8" stroke="#00000033"/><polygon points="870,524 874,489 895,492 891,526 870,524" fill="#c8c2b8" stroke="#00000033"/><polygon points="804,280 815,288 847,244 837,236 804,280" fill="#c8c2b8" stroke="#00000033"/><polygon points="869,329 877,319 833,286 825,296 869,329" fill="#c8c2b8" stroke="#00000033"/><polygon points="788,301 812,319 824,302 801,285 788,301" fill="#c8c2b8" stroke="#00000033"/><polygon points="61,257 47,257 46,248 67,244 67,241 63,241 62,228 83,228 83,236 74,238 76,249 82,249 82,257 69,257 69,249 66,249 66,254 61,251 61,257" fill="#c8c2b8" stroke="#00000033"/><polygon points="9,167 19,155 17,134 7,135 8,140 1,140 4,152 2,155 -9,155 -8,170 9,167" fill="#c8c2b8" stroke="#00000033"/><polygon points="852,249 844,260 877,284 885,273 852,249" fill="#c8c2b8" stroke="#00000033"/><polygon points="95,35 82,37 81,31 77,32 75,22 72,22 71,19 75,19 73,9 78,8 77,3 89,1 95,35" fill="#c8c2b8" stroke="#00000033"/><polygon points="223,-26 211,-24 212,-18 208,-18 209,-8 206,-8 207,-4 209,-5 211,6 216,5 217,11 229,9 227,-6 224,-5 223,-26" fill="#c8c2b8" stroke="#00000033"/><polyline points="128,879 477,408 435,377 386,322 391,311 403,300 452,294 467,301 462,287 469,275 473,251 464,185 471,162 502,129 573,184" fill="none" stroke="#ffdd44" stroke-width="6" opacity="0.85"/><circle cx="128" cy="879" r="10" fill="#a0f"/><circle cx="573" cy="184" r="10" fill="#f00"/><path d="M166.74999999855316,878.2500000000236 L182.74999999855316,878.2500000000236 M174.74999999855316,870.2500000000236 L174.74999999855316,886.2500000000236" stroke="#0ff" stroke-width="2"/><path d="M574.7499999979564,206.25000000000333 L590.7499999979564,206.25000000000333 M582.7499999979564,198.25000000000333 L582.7499999979564,214.25000000000333" stroke="#0ff" stroke-width="2"/><rect x="257" y="552" width="22" height="16" fill="#b8c2cc" stroke="#333"/><rect x="341" y="492" width="22" height="16" fill="#b8c2cc" stroke="#333"/><rect x="425" y="540" width="22" height="16" fill="#b8c2cc" stroke="#333"/><rect x="485" y="456" width="22" height="16" fill="#b8c2cc" stroke="#333"/><rect x="401" y="408" width="22" height="16" fill="#b8c2cc" stroke="#333"/><rect x="533" y="420" width="22" height="16" fill="#b8c2cc" stroke="#333"/><rect x="557" y="360" width="22" height="16" fill="#b8c2cc" stroke="#333"/><rect x="485" y="360" width="22" height="16" fill="#b8c2cc" stroke="#333"/><rect x="329" y="288" width="22" height="16" fill="#b8c2cc" stroke="#333"/><rect x="341" y="348" width="22" height="16" fill="#b8c2cc" stroke="#333"/><rect x="545" y="276" width="22" height="16" fill="#b8c2cc" stroke="#333"/><rect x="377" y="144" width="22" height="16" fill="#b8c2cc" stroke="#333"/><rect x="365" y="240" width="22" height="16" fill="#b8c2cc" stroke="#333"/><rect x="425" y="96" width="22" height="16" fill="#b8c2cc" stroke="#333"/><rect x="473" y="60" width="22" height="16" fill="#b8c2cc" stroke="#333"/><rect x="617" y="132" width="22" height="16" fill="#b8c2cc" stroke="#333"/><rect x="557" y="120" width="22" height="16" fill="#b8c2cc" stroke="#333"/><circle cx="396" cy="228" r="6" fill="#e8862a" stroke="#333"/><circle cx="84" cy="455" r="6" fill="#e8862a" stroke="#333"/><circle cx="232" cy="299" r="6" fill="#e8862a" stroke="#333"/><circle cx="318" cy="314" r="6" fill="#e8862a" stroke="#333"/><circle cx="71" cy="214" r="6" fill="#e8862a" stroke="#333"/><circle cx="793" cy="504" r="6" fill="#e8862a" stroke="#333"/><text x="403" y="470" font-size="13" fill="#fff" text-anchor="middle" stroke="#000" stroke-width="0.4">Little Guilin</text><text x="480" y="20" font-size="16" fill="#fff" text-anchor="middle">17: Bukit Batok Quarry</text></svg>