<svg xmlns="http://www.w3.org/2000/svg" width="960" height="600" viewBox="0 0 960 600"><rect width="960" height="600" fill="#6aa03c"/><polygon points="668,22 668,56 680,64 679,69 684,79 695,81 701,78 793,99 806,120 829,220 846,273 862,295 899,315 917,338 928,367 929,382 946,412 986,466 1012,447 1028,429 1040,402 1045,386 1048,335 1056,305 1082,255 1083,227 1071,208 877,65 834,45 789,29 738,18 671,15 668,22" fill="#4c8a2c" opacity="0.7"/><polygon points="784,462 804,447 806,433 803,419 782,368 771,368 762,357 762,354 765,356 769,353 772,359 776,354 790,357 817,418 828,433 842,441 850,450 857,448 891,471 922,502 984,535 994,529 990,499 971,489 961,467 902,397 907,343 851,314 817,255 792,257 717,273 697,283 680,303 649,357 639,391 629,411 632,453 671,485 695,485 719,475 775,469 784,462" fill="#4c8a2c" opacity="0.7"/><polygon points="217,113 223,92 244,48 249,25 251,-5 254,-12 264,-17 344,-25 382,-23 441,-14 566,17 597,21 646,22 647,71 628,89 597,105 553,98 542,91 486,42 467,30 454,30 454,26 441,21 419,24 412,21 407,13 369,18 339,25 325,39 313,43 308,41 287,20 278,27 298,48 279,61 263,77 252,95 251,109 257,119 247,124 216,121 217,113" fill="#4c8a2c" opacity="0.7"/><polygon points="909,291 983,188 1005,204 1015,191 1024,188 1070,222 1076,242 1072,250 1069,249 1061,261 1050,286 1031,349 1031,399 1027,416 1020,429 1018,426 992,448 961,407 948,384 928,325 909,291" fill="#4c8a2c" opacity="0.7"/><polygon points="675,-10 681,-9 681,-2 721,-2 772,6 777,4 780,-55 785,-81 801,-103 814,-113 796,-198 781,-214 765,-195 675,-196 675,-10" fill="#4c8a2c" opacity="0.7"/><polygon points="-27,469 -29,484 57,596 83,577 75,554 74,517 27,439 23,436 17,438 -27,469" fill="#4c8a2c" opacity="0.7"/><polygon points="886,21 887,54 1010,146 1029,122 937,52 938,21 886,21" fill="#4c8a2c" opacity="0.7"/><polygon points="501,336 508,335 515,342 521,339 525,334 521,313 528,304 496,291 495,293 485,291 469,294 467,302 474,320 471,329 447,335 440,343 439,348 431,355 448,366 468,371 489,389 507,391 517,367 498,344 501,336" fill="#4c8a2c" opacity="0.7"/><polygon points="108,-111 186,-157 204,-123 199,-116 226,-61 226,-51 221,-39 214,-34 103,3 101,-3 96,-5 106,-8 104,-14 118,-18 122,-15 134,-21 139,-32 141,-23 183,-36 183,-41 185,-39 199,-43 203,-41 213,-46 219,-56 213,-70 208,-74 198,-74 188,-70 174,-58 154,-52 152,-57 207,-89 202,-98 186,-91 182,-97 197,-105 182,-130 173,-133 115,-99 108,-111" fill="#4c8a2c" opacity="0.7"/><polygon points="751,593 775,598 790,617 789,641 780,654 765,662 748,662 740,659 728,647 724,639 722,631 725,614 735,600 751,593" fill="#4c8a2c" opacity="0.7"/><polygon points="532,548 522,556 516,567 514,579 524,599 523,612 531,620 535,639 547,628 552,628 559,633 557,644 565,652 566,659 575,655 587,658 590,653 570,638 581,617 570,601 571,597 549,574 532,548" fill="#4c8a2c" opacity="0.7"/><polygon points="741,294 793,274 808,272 814,298 812,317 807,325 797,332 785,331 757,316 741,294" fill="#4c8a2c" opacity="0.7"/><polygon points="528,304 521,313 525,334 521,339 515,342 508,335 501,336 503,341 513,350 517,350 528,366 542,375 567,354 568,333 560,319 528,304" fill="#4c8a2c" opacity="0.7"/><polygon points="802,416 806,433 804,447 784,462 769,428 776,419 765,392 762,378 783,372 802,416" fill="#4c8a2c" opacity="0.7"/><polygon points="464,20 432,2 403,-5 372,-4 342,7 361,19 406,12 451,24 464,20" fill="#4c8a2c" opacity="0.7"/><polygon points="197,134 197,137 176,139 143,146 111,157 98,165 -42,281 -38,288 -46,294 -45,296 -108,338 -100,351 -106,355 -115,338 94,164 107,155 151,140 197,134" fill="#4c8a2c" opacity="0.7"/><polygon points="-124,320 96,140 149,122 177,116 198,115 198,120 149,127 99,143 -122,323 -124,320" fill="#4c8a2c" opacity="0.7"/><polygon points="144,40 151,68 164,65 163,58 168,57 168,54 208,43 213,26 227,23 228,17 144,40" fill="#4c8a2c" opacity="0.7"/><polygon points="370,479 367,501 396,509 395,518 401,495 411,498 413,491 390,484 393,473 401,476 401,465 379,459 373,480 370,479" fill="#4c8a2c" opacity="0.7"/><polygon points="335,262 338,256 349,253 372,269 383,289 384,313 389,320 411,335 414,345 412,357 400,357 404,360 397,368 393,364 379,342 362,302 336,270 335,262" fill="#9aa0a8"/><polygon points="526,33 515,47 533,63 543,83 550,89 584,98 598,97 630,77 634,72 633,44 622,40 571,36 545,38 526,33" fill="#3d8b46" stroke="#fff"/><polygon points="121,200 77,236 51,205 94,168 121,200" fill="#3d8b46" stroke="#fff"/><polygon points="544,51 562,53 566,48 576,48 581,56 603,57 606,63 602,71 581,73 574,81 551,72 540,58 544,51" fill="#3d8b46" stroke="#fff"/><polygon points="607,74 599,73 576,80 579,93 609,86 607,74" fill="#3d8b46" stroke="#fff"/><polygon points="628,46 629,51 618,60 609,63 604,55 607,49 628,46" fill="#3d8b46" stroke="#fff"/><polygon points="377,480 389,483 383,503 372,500 377,480" fill="#3d8b46" stroke="#fff"/><polygon points="-1,467 9,473 0,491 -11,485 -1,467" fill="#3d8b46" stroke="#fff"/><polygon points="26,64 47,59 49,70 29,75 26,64" fill="#3d8b46" stroke="#fff"/><polygon points="11,68 22,65 28,85 18,89 11,68" fill="#3d8b46" stroke="#fff"/><polygon points="497,538 501,538 501,546 503,546 500,568 497,568 497,560 491,557 497,557 495,549 497,538" fill="#3ec6e8"/><polygon points="57,92 86,84 88,89 58,97 57,92" fill="#3ec6e8"/><polygon points="18,9 7,13 8,18 19,17 22,12 18,9" fill="#3ec6e8"/><polygon points="-696,561 -695,541 -657,430 -651,419 -641,412 -627,408 -593,412 -593,408 -586,411 -586,413 -558,419 -350,439 -314,438 -261,427 -209,394 99,143 119,135 178,122 216,121 247,124 257,119 258,146 242,137 189,134 151,140 107,155 -197,405 -235,430 -280,448 -334,453 -547,437 -622,422 -633,423 -643,432 -646,439 -709,629 -726,651 -751,666 -768,672 -1434,675 -1434,666 -1246,662 -766,662 -742,652 -732,645 -719,628 -696,561" fill="#2e7bb4"/><polygon points="696,291 719,277 730,296 707,310 696,291" fill="#2e7bb4"/><polygon points="434,264 422,263 411,254 411,240 420,231 432,231 441,239 443,253 435,244 426,245 422,251 424,258 434,264" fill="#2e7bb4"/><polygon points="647,2 666,2 664,-340 646,-340 647,2" fill="#2e7bb4"/><polygon points="699,671 697,669 701,666 702,653 706,652 720,657 730,671 744,679 755,679 797,659 826,662 838,657 866,668 930,709 996,768 1029,756 1030,728 1022,669 996,613 978,588 927,546 850,500 826,501 771,516 753,527 746,550 719,567 709,618 698,620 690,616 682,580 660,533 638,516 621,500 615,500 616,495 602,480 599,468 592,460 590,463 588,460 593,454 598,439 599,389 615,348 613,329 582,316 585,303 578,315 550,293 544,299 521,287 505,271 501,261 504,255 465,211 473,199 470,198 467,202 449,196 447,198 447,204 432,201 406,205 371,212 345,222 301,207 291,194 284,191 281,174 259,154 257,119 251,109 252,95 263,77 279,61 298,48 278,27 287,20 308,41 313,43 325,39 339,25 369,18 407,13 412,21 419,24 441,21 454,26 454,30 467,30 486,42 542,91 553,98 597,105 628,89 643,78 647,71 646,22 668,22 668,56 680,64 679,69 684,79 695,81 701,78 793,99 806,120 829,220 846,273 862,295 899,315 917,338 928,367 929,382 946,412 1003,488 1014,528 1014,560 1020,588 1029,594 1071,666 1077,740 1076,749 1069,761 1072,847 1060,868 1031,834 1014,825 998,821 975,810 974,807 959,803 923,780 921,774 913,769 911,753 907,751 904,743 888,736 884,729 880,730 881,733 871,730 870,720 865,717 860,714 846,714 848,723 847,732 837,730 830,718 815,708 803,709 782,728 753,769 736,815 720,834 716,850 720,863 676,933 675,963 681,996 696,1010 735,1014 772,1010 777,1006 783,1006 789,1001 795,1004 802,1003 823,990 850,995 858,993 856,996 863,1002 875,1004 879,1000 893,1003 901,1001 903,1007 911,1011 917,1008 926,1014 924,1024 930,1030 939,1032 949,1020 979,1050 980,1054 970,1067 988,1115 989,1131 998,1143 1010,1149 1006,1157 996,1160 996,1166 974,1170 972,1165 951,1167 943,1178 938,1173 940,1143 931,1118 925,1113 918,1114 896,1062 885,1058 874,1055 843,1057 744,1076 696,1070 674,1062 632,1032 631,1017 635,1002 629,997 636,987 632,983 636,978 634,965 629,959 633,954 630,947 631,931 646,905 639,895 645,885 645,878 650,875 650,861 647,856 657,854 662,849 659,841 651,841 650,838 658,837 673,825 678,808 670,804 677,802 684,795 681,784 688,784 693,774 689,770 682,774 682,766 696,758 704,722 701,718 704,714 703,689 688,677 699,676 703,680 710,696 707,719 709,748 727,714 736,706 740,706 745,694 746,687 743,683 735,683 728,677 718,677 703,670 699,671" fill="#2e7bb4"/><polygon points="802,560 825,549 820,544 830,534 847,550 836,561 843,571 839,580 813,574 817,571 815,568 805,572 801,571 799,569 802,560" fill="#2e7bb4"/><polygon points="738,385 736,384 737,378 740,378 740,369 743,370 750,349 741,337 705,355 707,357 702,364 712,372 708,377 694,365 695,412 691,428 695,436 702,432 703,412 709,410 714,412 730,404 732,396 729,391 738,385" fill="#2e7bb4"/><polygon points="978,658 975,662 978,667 970,672 958,666 963,665 960,658 951,650 936,652 932,649 929,641 937,635 938,626 922,614 921,601 916,596 896,603 872,605 868,609 870,620 867,626 895,647 902,644 905,647 904,655 911,668 943,686 946,694 955,697 961,710 970,704 976,707 975,715 980,704 973,701 965,704 958,695 967,685 972,686 970,694 977,695 985,704 982,717 984,720 995,720 1004,725 1003,731 998,734 1005,739 1011,732 1010,723 1004,721 1006,715 1003,707 999,706 1008,677 1004,676 1006,667 1000,666 992,654 978,658" fill="#2e7bb4"/><polyline points="150,267 107,294" fill="none" stroke="#8a8f98" stroke-width="3" stroke-linecap="round"/><polyline points="372,547 285,603 279,603 274,598 259,559 282,542 280,534 269,514" fill="none" stroke="#8a8f98" stroke-width="3" stroke-linecap="round"/><polyline points="402,413 351,327" fill="none" stroke="#8a8f98" stroke-width="8" stroke-linecap="round"/><polyline points="292,605 375,553" fill="none" stroke="#8a8f98" stroke-width="3" stroke-linecap="round"/><polyline points="363,519 368,517 373,519 375,523 373,528 369,531 364,529 361,524 363,519" fill="none" stroke="#8a8f98" stroke-width="3" stroke-linecap="round"/><polyline points="333,298 312,268 278,238" fill="none" stroke="#8a8f98" stroke-width="8" stroke-linecap="round"/><polyline points="283,233 311,258 339,293" fill="none" stroke="#8a8f98" stroke-width="8" stroke-linecap="round"/><polyline points="346,464 394,432 402,436 425,478 433,499 432,507 378,543" fill="none" stroke="#8a8f98" stroke-width="3" stroke-linecap="round"/><polyline points="334,455 381,425" fill="none" stroke="#8a8f98" stroke-width="5" stroke-linecap="round"/><polyline points="373,433 335,457" fill="none" stroke="#8a8f98" stroke-width="5" stroke-linecap="round"/><polyline points="48,302 45,278" fill="none" stroke="#8a8f98" stroke-width="5" stroke-linecap="round"/><polyline points="368,343 406,410" fill="none" stroke="#8a8f98" stroke-width="8" stroke-linecap="round"/><polyline points="363,293 343,268 343,260 350,259 356,262 371,278" fill="none" stroke="#8a8f98" stroke-width="3" stroke-linecap="round"/><polyline points="179,318 171,306 174,304 150,267" fill="none" stroke="#8a8f98" stroke-width="3" stroke-linecap="round"/><polyline points="157,420 221,376" fill="none" stroke="#8a8f98" stroke-width="5" stroke-linecap="round"/><polyline points="297,478 312,469" fill="none" stroke="#8a8f98" stroke-width="5" stroke-linecap="round"/><polyline points="28,316 48,302" fill="none" stroke="#8a8f98" stroke-width="5" stroke-linecap="round"/><polyline points="108,590 91,576 80,554" fill="none" stroke="#8a8f98" stroke-width="5" stroke-linecap="round"/><polyline points="140,532 158,551 164,552 180,543 190,544 196,551 197,568 178,569" fill="none" stroke="#8a8f98" stroke-width="3" stroke-linecap="round"/><polyline points="32,589 -16,523" fill="none" stroke="#8a8f98" stroke-width="8" stroke-linecap="round"/><polyline points="339,293 342,296" fill="none" stroke="#8a8f98" stroke-width="8" stroke-linecap="round"/><polyline points="145,451 148,430 136,415 114,405 89,405 80,416 63,417 47,426 44,444 73,485 88,488 111,470" fill="none" stroke="#8a8f98" stroke-width="3" stroke-linecap="round"/><polyline points="45,410 72,395 106,390" fill="none" stroke="#8a8f98" stroke-width="5" stroke-linecap="round"/><polyline points="10,328 -3,306" fill="none" stroke="#8a8f98" stroke-width="5" stroke-linecap="round"/><polyline points="91,523 102,521 134,502" fill="none" stroke="#8a8f98" stroke-width="3" stroke-linecap="round"/><polyline points="9,352 14,361" fill="none" stroke="#8a8f98" stroke-width="5" stroke-linecap="round"/><polyline points="199,469 250,436" fill="none" stroke="#8a8f98" stroke-width="3" stroke-linecap="round"/><polyline points="333,298 339,293" fill="none" stroke="#8a8f98" stroke-width="5" stroke-linecap="round"/><polyline points="225,526 226,528" fill="none" stroke="#8a8f98" stroke-width="5" stroke-linecap="round"/><polyline points="222,531 221,529" fill="none" stroke="#8a8f98" stroke-width="5" stroke-linecap="round"/><polyline points="318,468 313,471" fill="none" stroke="#8a8f98" stroke-width="5" stroke-linecap="round"/><polyline points="226,528 222,531" fill="none" stroke="#8a8f98" stroke-width="5" stroke-linecap="round"/><polyline points="342,296 368,343" fill="none" stroke="#8a8f98" stroke-width="8" stroke-linecap="round"/><polyline points="155,424 153,422" fill="none" stroke="#8a8f98" stroke-width="5" stroke-linecap="round"/><polyline points="157,420 158,422" fill="none" stroke="#8a8f98" stroke-width="5" stroke-linecap="round"/><polyline points="158,422 155,424" fill="none" stroke="#8a8f98" stroke-width="5" stroke-linecap="round"/><polyline points="188,401 158,422" fill="none" stroke="#8a8f98" stroke-width="5" stroke-linecap="round"/><polyline points="342,296 336,301" fill="none" stroke="#8a8f98" stroke-width="5" stroke-linecap="round"/><polyline points="221,529 225,526" fill="none" stroke="#8a8f98" stroke-width="5" stroke-linecap="round"/><polyline points="221,529 186,475" fill="none" stroke="#8a8f98" stroke-width="5" stroke-linecap="round"/><polyline points="153,422 157,420" fill="none" stroke="#8a8f98" stroke-width="5" stroke-linecap="round"/><polyline points="153,422 137,408 125,402 106,396 94,396" fill="none" stroke="#8a8f98" stroke-width="5" stroke-linecap="round"/><polyline points="88,306 116,352" fill="none" stroke="#8a8f98" stroke-width="3" stroke-linecap="round"/><polyline points="336,301 333,298" fill="none" stroke="#8a8f98" stroke-width="8" stroke-linecap="round"/><polyline points="251,589 238,558" fill="none" stroke="#8a8f98" stroke-width="5" stroke-linecap="round"/><polyline points="226,528 257,587" fill="none" stroke="#8a8f98" stroke-width="5" stroke-linecap="round"/><polyline points="257,587 273,625" fill="none" stroke="#8a8f98" stroke-width="5" stroke-linecap="round"/><polyline points="257,587 251,589" fill="none" stroke="#8a8f98" stroke-width="5" stroke-linecap="round"/><polyline points="26,429 22,424" fill="none" stroke="#8a8f98" stroke-width="5" stroke-linecap="round"/><polyline points="43,594 103,675" fill="none" stroke="#8a8f98" stroke-width="8" stroke-linecap="round"/><polyline points="43,594 37,596" fill="none" stroke="#8a8f98" stroke-width="5" stroke-linecap="round"/><polyline points="-15,375 -10,384 -1,379 2,368 -15,375" fill="none" stroke="#8a8f98" stroke-width="3" stroke-linecap="round"/><polyline points="14,361 24,376" fill="none" stroke="#8a8f98" stroke-width="5" stroke-linecap="round"/><polyline points="0,334 9,352" fill="none" stroke="#8a8f98" stroke-width="5" stroke-linecap="round"/><polyline points="37,596 32,589" fill="none" stroke="#8a8f98" stroke-width="8" stroke-linecap="round"/><polyline points="32,589 38,588" fill="none" stroke="#8a8f98" stroke-width="5" stroke-linecap="round"/><polyline points="158,422 202,491" fill="none" stroke="#8a8f98" stroke-width="5" stroke-linecap="round"/><polyline points="38,588 43,594" fill="none" stroke="#8a8f98" stroke-width="8" stroke-linecap="round"/><polyline points="22,566 38,588" fill="none" stroke="#8a8f98" stroke-width="8" stroke-linecap="round"/><polyline points="-33,495 22,566" fill="none" stroke="#8a8f98" stroke-width="8" stroke-linecap="round"/><polyline points="22,424 45,410" fill="none" stroke="#8a8f98" stroke-width="5" stroke-linecap="round"/><polyline points="106,390 127,395 140,402 157,420" fill="none" stroke="#8a8f98" stroke-width="5" stroke-linecap="round"/><polyline points="39,451 26,429" fill="none" stroke="#8a8f98" stroke-width="5" stroke-linecap="round"/><polyline points="163,440 155,424" fill="none" stroke="#8a8f98" stroke-width="5" stroke-linecap="round"/><polyline points="336,301 304,323" fill="none" stroke="#8a8f98" stroke-width="5" stroke-linecap="round"/><polyline points="238,558 222,531" fill="none" stroke="#8a8f98" stroke-width="5" stroke-linecap="round"/><polyline points="94,396 68,403 26,429" fill="none" stroke="#8a8f98" stroke-width="5" stroke-linecap="round"/><polyline points="37,596 -2,607" fill="none" stroke="#8a8f98" stroke-width="5" stroke-linecap="round"/><polyline points="330,448 294,472" fill="none" stroke="#8a8f98" stroke-width="3" stroke-linecap="round"/><polyline points="310,424 280,381" fill="none" stroke="#8a8f98" stroke-width="3" stroke-linecap="round"/><polyline points="197,464 185,441 177,434 172,420 236,377" fill="none" stroke="#8a8f98" stroke-width="3" stroke-linecap="round"/><polyline points="294,472 230,512 225,509 199,469" fill="none" stroke="#8a8f98" stroke-width="3" stroke-linecap="round"/><polyline points="-50,601 2,585 -3,562" fill="none" stroke="#8a8f98" stroke-width="3" stroke-linecap="round"/><polyline points="240,592 228,595 198,595" fill="none" stroke="#8a8f98" stroke-width="5" stroke-linecap="round"/><polyline points="88,306 26,342" fill="none" stroke="#8a8f98" stroke-width="3" stroke-linecap="round"/><polyline points="-5,338 0,334" fill="none" stroke="#8a8f98" stroke-width="5" stroke-linecap="round"/><polyline points="197,627 198,595" fill="none" stroke="#8a8f98" stroke-width="5" stroke-linecap="round"/><polyline points="265,344 333,298" fill="none" stroke="#8a8f98" stroke-width="5" stroke-linecap="round"/><polyline points="267,347 233,372" fill="none" stroke="#8a8f98" stroke-width="5" stroke-linecap="round"/><polyline points="240,363 265,344" fill="none" stroke="#8a8f98" stroke-width="5" stroke-linecap="round"/><polyline points="81,523 78,515" fill="none" stroke="#8a8f98" stroke-width="5" stroke-linecap="round"/><polyline points="160,595 121,594 108,590" fill="none" stroke="#8a8f98" stroke-width="5" stroke-linecap="round"/><polyline points="0,334 10,328" fill="none" stroke="#8a8f98" stroke-width="5" stroke-linecap="round"/><polyline points="26,429 0,446" fill="none" stroke="#8a8f98" stroke-width="5" stroke-linecap="round"/><polyline points="-7,443 22,424" fill="none" stroke="#8a8f98" stroke-width="5" stroke-linecap="round"/><polyline points="186,475 163,440" fill="none" stroke="#8a8f98" stroke-width="5" stroke-linecap="round"/><polyline points="265,620 251,589" fill="none" stroke="#8a8f98" stroke-width="5" stroke-linecap="round"/><polyline points="55,619 37,596" fill="none" stroke="#8a8f98" stroke-width="8" stroke-linecap="round"/><polyline points="316,466 334,455" fill="none" stroke="#8a8f98" stroke-width="5" stroke-linecap="round"/><polyline points="335,457 318,468" fill="none" stroke="#8a8f98" stroke-width="5" stroke-linecap="round"/><polyline points="24,376 45,410" fill="none" stroke="#8a8f98" stroke-width="5" stroke-linecap="round"/><polyline points="10,328 28,316" fill="none" stroke="#8a8f98" stroke-width="5" stroke-linecap="round"/><polyline points="81,541 81,523" fill="none" stroke="#8a8f98" stroke-width="5" stroke-linecap="round"/><polyline points="198,595 160,595" fill="none" stroke="#8a8f98" stroke-width="5" stroke-linecap="round"/><polyline points="49,467 39,451" fill="none" stroke="#8a8f98" stroke-width="5" stroke-linecap="round"/><polyline points="251,589 240,592" fill="none" stroke="#8a8f98" stroke-width="5" stroke-linecap="round"/><polyline points="57,480 49,467" fill="none" stroke="#8a8f98" stroke-width="5" stroke-linecap="round"/><polyline points="78,515 57,480" fill="none" stroke="#8a8f98" stroke-width="5" stroke-linecap="round"/><polyline points="80,554 81,541" fill="none" stroke="#8a8f98" stroke-width="5" stroke-linecap="round"/><polyline points="238,520 226,528" fill="none" stroke="#8a8f98" stroke-width="5" stroke-linecap="round"/><polyline points="312,469 316,466" fill="none" stroke="#8a8f98" stroke-width="5" stroke-linecap="round"/><polyline points="313,471 298,480" fill="none" stroke="#8a8f98" stroke-width="5" stroke-linecap="round"/><polyline points="261,502 297,478" fill="none" stroke="#8a8f98" stroke-width="5" stroke-linecap="round"/><polyline points="225,526 261,502" fill="none" stroke="#8a8f98" stroke-width="5" stroke-linecap="round"/><polyline points="298,480 262,504" fill="none" stroke="#8a8f98" stroke-width="5" stroke-linecap="round"/><polyline points="262,504 238,520" fill="none" stroke="#8a8f98" stroke-width="5" stroke-linecap="round"/><polyline points="179,318 198,306 186,287" fill="none" stroke="#8a8f98" stroke-width="3" stroke-linecap="round"/><polyline points="233,372 222,378" fill="none" stroke="#8a8f98" stroke-width="5" stroke-linecap="round"/><polyline points="221,376 231,369" fill="none" stroke="#8a8f98" stroke-width="5" stroke-linecap="round"/><polyline points="231,369 240,363" fill="none" stroke="#8a8f98" stroke-width="5" stroke-linecap="round"/><polyline points="-3,600 32,589" fill="none" stroke="#8a8f98" stroke-width="5" stroke-linecap="round"/><polyline points="269,514 311,486" fill="none" stroke="#8a8f98" stroke-width="3" stroke-linecap="round"/><polyline points="202,491 225,526" fill="none" stroke="#8a8f98" stroke-width="5" stroke-linecap="round"/><polyline points="222,378 188,401" fill="none" stroke="#8a8f98" stroke-width="5" stroke-linecap="round"/><polyline points="351,327 336,301" fill="none" stroke="#8a8f98" stroke-width="8" stroke-linecap="round"/><polyline points="304,323 267,347" fill="none" stroke="#8a8f98" stroke-width="5" stroke-linecap="round"/><polyline points="221,376 222,378" fill="none" stroke="#8a8f98" stroke-width="5" stroke-linecap="round"/><polyline points="516,399 470,394" fill="none" stroke="#8a8f98" stroke-width="3" stroke-linecap="round"/><polyline points="572,578 559,559 539,519 533,486 527,402" fill="none" stroke="#8a8f98" stroke-width="3" stroke-linecap="round"/><polyline points="449,577 448,508" fill="none" stroke="#8a8f98" stroke-width="8" stroke-linecap="round"/><polyline points="454,576 454,622" fill="none" stroke="#8a8f98" stroke-width="8" stroke-linecap="round"/><polyline points="426,576 372,609" fill="none" stroke="#8a8f98" stroke-width="3" stroke-linecap="round"/><polyline points="402,413 406,410" fill="none" stroke="#8a8f98" stroke-width="5" stroke-linecap="round"/><polyline points="406,410 408,412" fill="none" stroke="#8a8f98" stroke-width="8" stroke-linecap="round"/><polyline points="408,412 403,415" fill="none" stroke="#8a8f98" stroke-width="5" stroke-linecap="round"/><polyline points="403,415 402,413" fill="none" stroke="#8a8f98" stroke-width="8" stroke-linecap="round"/><polyline points="448,622 449,577" fill="none" stroke="#8a8f98" stroke-width="8" stroke-linecap="round"/><polyline points="436,460 447,485 452,507" fill="none" stroke="#8a8f98" stroke-width="8" stroke-linecap="round"/><polyline points="403,415 373,433" fill="none" stroke="#8a8f98" stroke-width="5" stroke-linecap="round"/><polyline points="428,456 403,415" fill="none" stroke="#8a8f98" stroke-width="8" stroke-linecap="round"/><polyline points="431,432 462,487 468,503" fill="none" stroke="#8a8f98" stroke-width="3" stroke-linecap="round"/><polyline points="452,507 455,522 454,566" fill="none" stroke="#8a8f98" stroke-width="8" stroke-linecap="round"/><polyline points="454,566 454,576" fill="none" stroke="#8a8f98" stroke-width="8" stroke-linecap="round"/><polyline points="448,508 442,484 428,456" fill="none" stroke="#8a8f98" stroke-width="8" stroke-linecap="round"/><polyline points="527,402 574,416 594,417" fill="none" stroke="#8a8f98" stroke-width="3" stroke-linecap="round"/><polyline points="470,394 469,384 466,382 449,381 443,386 441,396" fill="none" stroke="#8a8f98" stroke-width="3" stroke-linecap="round"/><polyline points="408,371 399,365 380,338" fill="none" stroke="#8a8f98" stroke-width="3" stroke-linecap="round"/><polyline points="390,330 404,338 410,362" fill="none" stroke="#8a8f98" stroke-width="3" stroke-linecap="round"/><polyline points="470,394 434,398 419,404" fill="none" stroke="#8a8f98" stroke-width="3" stroke-linecap="round"/><polyline points="399,396 412,401 423,403" fill="none" stroke="#8a8f98" stroke-width="8" stroke-linecap="round"/><polyline points="408,412 436,460" fill="none" stroke="#8a8f98" stroke-width="8" stroke-linecap="round"/><polyline points="381,425 402,413" fill="none" stroke="#8a8f98" stroke-width="5" stroke-linecap="round"/><polyline points="581,364 584,366 589,391 584,397 569,402 581,364" fill="none" stroke="#8a8f98" stroke-width="3" stroke-linecap="round"/><polyline points="613,654 612,641 602,621 572,578" fill="none" stroke="#8a8f98" stroke-width="3" stroke-linecap="round"/><polyline points="-81,75 27,35" fill="none" stroke="#8a8f98" stroke-width="10" stroke-linecap="round"/><polyline points="191,-13 133,6" fill="none" stroke="#8a8f98" stroke-width="10" stroke-linecap="round"/><polyline points="225,195 240,208 283,233" fill="none" stroke="#8a8f98" stroke-width="8" stroke-linecap="round"/><polyline points="11,262 -16,285" fill="none" stroke="#8a8f98" stroke-width="5" stroke-linecap="round"/><polyline points="209,120 209,136" fill="none" stroke="#8a8f98" stroke-width="8" stroke-linecap="round"/><polyline points="244,14 241,33 232,60" fill="none" stroke="#8a8f98" stroke-width="8" stroke-linecap="round"/><polyline points="186,110 154,115 100,133" fill="none" stroke="#8a8f98" stroke-width="5" stroke-linecap="round"/><polyline points="42,260 54,260" fill="none" stroke="#8a8f98" stroke-width="5" stroke-linecap="round"/><polyline points="291,-28 263,-21 252,-16 247,-8 244,9" fill="none" stroke="#8a8f98" stroke-width="10" stroke-linecap="round"/><polyline points="6,141 32,156 37,168 36,182 32,186 9,192" fill="none" stroke="#8a8f98" stroke-width="3" stroke-linecap="round"/><polyline points="235,5 233,-22" fill="none" stroke="#8a8f98" stroke-width="8" stroke-linecap="round"/><polyline points="235,30 235,5" fill="none" stroke="#8a8f98" stroke-width="8" stroke-linecap="round"/><polyline points="203,136 204,120" fill="none" stroke="#8a8f98" stroke-width="8" stroke-linecap="round"/><polyline points="246,220 229,208 217,196" fill="none" stroke="#8a8f98" stroke-width="8" stroke-linecap="round"/><polyline points="9,192 -31,175" fill="none" stroke="#8a8f98" stroke-width="3" stroke-linecap="round"/><polyline points="100,133 91,104 87,102 79,104" fill="none" stroke="#8a8f98" stroke-width="3" stroke-linecap="round"/><polyline points="204,120 206,110" fill="none" stroke="#8a8f98" stroke-width="8" stroke-linecap="round"/><polyline points="210,111 209,120" fill="none" stroke="#8a8f98" stroke-width="8" stroke-linecap="round"/><polyline points="210,111 206,110" fill="none" stroke="#8a8f98" stroke-width="5" stroke-linecap="round"/><polyline points="235,5 225,-11 206,-17" fill="none" stroke="#8a8f98" stroke-width="10" stroke-linecap="round"/><polyline points="241,-24 244,9" fill="none" stroke="#8a8f98" stroke-width="8" stroke-linecap="round"/><polyline points="68,29 -68,81" fill="none" stroke="#8a8f98" stroke-width="10" stroke-linecap="round"/><polyline points="27,35 174,-18" fill="none" stroke="#8a8f98" stroke-width="10" stroke-linecap="round"/><polyline points="187,144 139,152 107,166" fill="none" stroke="#8a8f98" stroke-width="3" stroke-linecap="round"/><polyline points="60,238 140,237 158,197 192,187" fill="none" stroke="#8a8f98" stroke-width="3" stroke-linecap="round"/><polyline points="244,9 244,14" fill="none" stroke="#8a8f98" stroke-width="8" stroke-linecap="round"/><polyline points="100,133 87,140 57,165 51,162" fill="none" stroke="#8a8f98" stroke-width="5" stroke-linecap="round"/><polyline points="217,196 206,172 203,136" fill="none" stroke="#8a8f98" stroke-width="8" stroke-linecap="round"/><polyline points="278,238 246,220" fill="none" stroke="#8a8f98" stroke-width="8" stroke-linecap="round"/><polyline points="206,110 186,110" fill="none" stroke="#8a8f98" stroke-width="5" stroke-linecap="round"/><polyline points="206,110 214,81" fill="none" stroke="#8a8f98" stroke-width="8" stroke-linecap="round"/><polyline points="9,192 -3,215 -67,268" fill="none" stroke="#8a8f98" stroke-width="3" stroke-linecap="round"/><polyline points="232,60 217,86 210,111" fill="none" stroke="#8a8f98" stroke-width="8" stroke-linecap="round"/><polyline points="234,41 235,30" fill="none" stroke="#8a8f98" stroke-width="8" stroke-linecap="round"/><polyline points="226,60 234,41" fill="none" stroke="#8a8f98" stroke-width="8" stroke-linecap="round"/><polyline points="214,81 226,60" fill="none" stroke="#8a8f98" stroke-width="8" stroke-linecap="round"/><polyline points="209,136 213,171 225,195" fill="none" stroke="#8a8f98" stroke-width="8" stroke-linecap="round"/><polyline points="42,260 11,262" fill="none" stroke="#8a8f98" stroke-width="5" stroke-linecap="round"/><polyline points="133,6 68,29" fill="none" stroke="#8a8f98" stroke-width="10" stroke-linecap="round"/><polyline points="45,278 42,260" fill="none" stroke="#8a8f98" stroke-width="5" stroke-linecap="round"/><polyline points="235,13 188,24" fill="none" stroke="#8a8f98" stroke-width="3" stroke-linecap="round"/><polyline points="314,261 309,265" fill="none" stroke="#8a8f98" stroke-width="8" stroke-linecap="round"/><polyline points="-65,119 8,91" fill="none" stroke="#8a8f98" stroke-width="3" stroke-linecap="round"/><polyline points="14,127 -51,154" fill="none" stroke="#8a8f98" stroke-width="3" stroke-linecap="round"/><polyline points="16,113 -56,142" fill="none" stroke="#8a8f98" stroke-width="3" stroke-linecap="round"/><polyline points="-61,130 4,106" fill="none" stroke="#8a8f98" stroke-width="3" stroke-linecap="round"/><polyline points="19,118 -51,147" fill="none" stroke="#8a8f98" stroke-width="3" stroke-linecap="round"/><polyline points="-61,121 11,94" fill="none" stroke="#8a8f98" stroke-width="3" stroke-linecap="round"/><polyline points="254,7 252,1 260,-5 255,-10 256,-13 264,-17 275,-13 278,-18 283,-19 290,-13 287,-5 281,-6 261,2 255,11 254,7" fill="none" stroke="#8a8f98" stroke-width="3" stroke-linecap="round"/><polyline points="620,15 588,14" fill="none" stroke="#8a8f98" stroke-width="10" stroke-linecap="round"/><polyline points="650,7 671,7" fill="none" stroke="#8a8f98" stroke-width="10" stroke-linecap="round"/><polyline points="671,15 650,15" fill="none" stroke="#8a8f98" stroke-width="10" stroke-linecap="round"/><polyline points="766,14 779,12 786,2" fill="none" stroke="#8a8f98" stroke-width="10" stroke-linecap="round"/><polyline points="782,27 738,18 671,15" fill="none" stroke="#8a8f98" stroke-width="10" stroke-linecap="round"/><polyline points="671,7 707,6 738,9" fill="none" stroke="#8a8f98" stroke-width="10" stroke-linecap="round"/><polyline points="782,27 785,18" fill="none" stroke="#8a8f98" stroke-width="8" stroke-linecap="round"/><polyline points="623,7 650,7" fill="none" stroke="#8a8f98" stroke-width="10" stroke-linecap="round"/><polyline points="766,14 785,18" fill="none" stroke="#8a8f98" stroke-width="10" stroke-linecap="round"/><polyline points="785,18 786,2" fill="none" stroke="#8a8f98" stroke-width="8" stroke-linecap="round"/><polyline points="519,-10 529,-3 526,1" fill="none" stroke="#8a8f98" stroke-width="10" stroke-linecap="round"/><polyline points="519,-10 568,2" fill="none" stroke="#8a8f98" stroke-width="10" stroke-linecap="round"/><polyline points="786,2 787,-19" fill="none" stroke="#8a8f98" stroke-width="8" stroke-linecap="round"/><polyline points="568,2 623,7" fill="none" stroke="#8a8f98" stroke-width="10" stroke-linecap="round"/><polyline points="588,14 562,10 526,1" fill="none" stroke="#8a8f98" stroke-width="10" stroke-linecap="round"/><polyline points="738,9 766,14" fill="none" stroke="#8a8f98" stroke-width="10" stroke-linecap="round"/><polyline points="526,1 478,-12" fill="none" stroke="#8a8f98" stroke-width="10" stroke-linecap="round"/><polyline points="650,15 620,15" fill="none" stroke="#8a8f98" stroke-width="10" stroke-linecap="round"/><polyline points="789,20 786,28" fill="none" stroke="#8a8f98" stroke-width="8" stroke-linecap="round"/><polyline points="791,4 789,20" fill="none" stroke="#8a8f98" stroke-width="8" stroke-linecap="round"/><polyline points="791,-20 791,4" fill="none" stroke="#8a8f98" stroke-width="8" stroke-linecap="round"/><polyline points="786,28 782,27" fill="none" stroke="#8a8f98" stroke-width="10" stroke-linecap="round"/><polyline points="785,18 789,20" fill="none" stroke="#8a8f98" stroke-width="10" stroke-linecap="round"/><polyline points="449,196 467,202 470,198 473,199 464,214 447,209 447,198 449,196" fill="none" stroke="#8a8f98" stroke-width="3" stroke-linecap="round"/><polyline points="791,4 794,15 806,25" fill="none" stroke="#8a8f98" stroke-width="10" stroke-linecap="round"/><polyline points="789,20 806,25" fill="none" stroke="#8a8f98" stroke-width="10" stroke-linecap="round"/><polyline points="811,36 786,28" fill="none" stroke="#8a8f98" stroke-width="10" stroke-linecap="round"/><polyline points="877,57 1041,175" fill="none" stroke="#8a8f98" stroke-width="10" stroke-linecap="round"/><polyline points="1071,208 877,65 834,45" fill="none" stroke="#8a8f98" stroke-width="10" stroke-linecap="round"/><polyline points="806,25 837,37 877,57" fill="none" stroke="#8a8f98" stroke-width="10" stroke-linecap="round"/><polyline points="834,45 811,36" fill="none" stroke="#8a8f98" stroke-width="10" stroke-linecap="round"/><polyline points="6752,3716 6695,3713 6645,3702 6480,3620 6440,3608 6147,3567 6118,3561 6073,3546 6025,3523 5901,3410 5868,3365 5809,3272 5777,3212 5733,3161 5438,2899 5279,2763 5248,2731 5067,2569 5034,2543 4997,2522 4938,2504 4735,2483 4636,2466 4525,2456 4401,2435 4342,2406 3954,2167 3900,2144 3867,2136 3831,2134 3778,2138 3620,2158 3398,2180 3344,2176 3312,2168 3269,2150 3215,2109 3167,2051 3148,2018 3105,1919 3073,1836 2884,1553 2854,1495 2765,1302 2743,1267 2712,1236 2688,1219 2633,1194 2442,1151 2335,1120 2270,1095 2207,1083 2109,1084 2077,1082 2034,1073 1963,1041 1699,908 1653,869 1627,836 1533,670 1473,556 1437,508 1281,384 1143,281 1061,222 998,182 868,86 793,46 767,38 708,29 577,26 401,-15 336,-18 302,-14 32,55 -60,85 -163,126 -516,254 -557,272 -774,380 -880,420 -955,444 -999,455 -1039,461 -1523,468 -1622,488 -1657,503 -1708,540 -1732,565 -1816,665 -1964,862 -1990,911 -2019,996 -2035,1024 -2070,1064 -2092,1081 -2125,1100 -2152,1110 -2182,1116 -2418,1118" fill="none" stroke="#444" stroke-width="4" stroke-dasharray="8,4"/><polyline points="-2493,1115 -2191,1114 -2140,1103 -2093,1079 -2071,1062 -2038,1024 -2021,993 -1986,895 -1967,861 -1818,664 -1712,539 -1677,511 -1624,485 -1588,476 -1475,457 -1329,456 -1103,460 -1039,458 -1000,452 -734,354 -560,268 -517,251 -165,123 -60,81 81,32 271,-16 347,-23 422,-16 572,22 606,25 709,26 750,30 795,41 836,57 873,79 958,140 1281,380 1420,491 1472,536" fill="none" stroke="#444" stroke-width="4" stroke-dasharray="8,4"/><polygon points="119,34 115,21 224,-6 226,11 179,22 181,27 144,37 142,29 119,34" fill="#c8c2b8" stroke="#00000033"/><polygon points="925,142 957,166 962,159 980,172 988,161 921,110 912,121 931,135 925,142" fill="#c8c2b8" stroke="#00000033"/><polygon points="91,309 100,324 158,287 149,272 91,309" fill="#c8c2b8" stroke="#00000033"/><polygon points="264,398 292,441 309,430 281,386 264,398" fill="#c8c2b8" stroke="#00000033"/><polygon points="17,165 19,161 15,159 7,156 4,158 5,155 -1,153 2,145 27,155 35,165 29,183 20,188 8,186 -30,169 -27,161 -22,163 -21,160 -20,164 -7,170 -3,166 0,168 -2,172 18,178 18,175 21,177 23,174 24,167 24,165 23,167 17,165" fill="#c8c2b8" stroke="#00000033"/><polygon points="118,469 127,483 130,482 153,517 168,508 132,459 118,469" fill="#c8c2b8" stroke="#00000033"/><polygon points="213,605 214,626 230,625 233,621 242,624 241,621 263,618 252,594 229,604 213,605" fill="#c8c2b8" stroke="#00000033"/><polygon points="303,498 303,504 306,502 312,513 356,486 346,471 303,498" fill="#c8c2b8" stroke="#00000033"/><polygon points="822,524 834,512 869,545 866,548 871,553 865,560 859,554 857,557 822,524" fill="#c8c2b8" stroke="#00000033"/><polygon points="398,540 418,575 436,564 415,530 398,540" fill="#c8c2b8" stroke="#00000033"/><polygon points="237,529 260,515 276,540 254,553 237,529" fill="#c8c2b8" stroke="#00000033"/><polygon points="291,381 312,417 327,408 306,373 291,381" fill="#c8c2b8" stroke="#00000033"/><polygon points="34,78 41,100 45,100 41,101 49,125 62,120 48,74 34,78" fill="#c8c2b8" stroke="#00000033"/><polygon points="81,262 86,251 90,264 108,253 112,259 92,271 88,265 85,268 97,286 94,288 97,293 77,306 73,300 90,289 78,271 83,268 81,265 77,267 68,253 75,252 81,262" fill="#c8c2b8" stroke="#00000033"/><polygon points="31,368 37,365 52,389 69,378 66,373 61,376 58,370 64,367 67,372 70,370 59,351 65,348 77,368 73,371 74,375 80,372 84,378 77,381 74,377 70,380 73,384 53,397 50,393 48,394 31,368" fill="#c8c2b8" stroke="#00000033"/><polygon points="93,117 60,145 50,134 85,104 93,117" fill="#c8c2b8" stroke="#00000033"/><polygon points="888,-10 888,8 925,7 924,-11 888,-10" fill="#c8c2b8" stroke="#00000033"/><polygon points="190,318 206,306 198,294 204,291 201,287 195,290 191,284 198,280 201,284 206,282 199,272 204,265 212,280 207,283 210,287 222,280 226,286 213,294 210,289 206,292 213,304 210,306 213,310 194,324 190,318" fill="#c8c2b8" stroke="#00000033"/><polygon points="575,317 573,322 576,325 593,332 588,351 598,351 603,345 605,345 605,350 611,350 608,335 612,329 575,317" fill="#c8c2b8" stroke="#00000033"/><polygon points="387,610 385,607 390,604 392,607 395,605 393,602 398,600 399,602 399,599 404,596 410,603 377,623 393,650 385,653 382,648 385,647 381,647 379,642 381,641 379,638 377,639 374,634 376,633 373,633 370,628 373,625 370,620 374,617 374,614 381,613 380,610 387,610" fill="#c8c2b8" stroke="#00000033"/><polygon points="183,307 165,278 169,276 166,270 162,274 153,260 160,259 167,269 170,267 167,263 171,257 176,271 188,265 191,270 178,278 176,274 171,276 192,306 186,311 183,307" fill="#c8c2b8" stroke="#00000033"/><polygon points="826,-47 826,2 838,2 837,-47 826,-47" fill="#c8c2b8" stroke="#00000033"/><polygon points="137,371 135,370 141,366 148,377 151,375 148,371 161,361 166,368 153,376 156,380 162,376 170,389 166,391 167,394 178,387 182,394 169,401 165,395 161,396 164,393 157,382 153,384 156,388 149,393 145,387 150,384 147,380 144,382 137,371" fill="#c8c2b8" stroke="#00000033"/><polygon points="151,329 149,331 145,325 154,319 152,315 148,317 139,305 145,301 153,312 155,311 153,306 166,297 170,302 157,311 160,315 166,311 183,336 177,340 162,316 159,318 161,322 151,329" fill="#c8c2b8" stroke="#00000033"/><polygon points="127,313 135,326 131,328 133,332 143,327 146,332 133,340 131,335 128,338 143,363 137,366 121,340 128,336 125,332 112,339 109,333 123,325 125,329 128,328 122,316 127,313" fill="#c8c2b8" stroke="#00000033"/><polygon points="652,422 650,448 660,448 664,395 654,394 652,422" fill="#c8c2b8" stroke="#00000033"/><polygon points="189,387 187,389 183,383 195,376 193,373 189,376 181,363 187,360 184,356 172,364 168,357 182,349 184,354 187,352 180,340 186,337 194,350 190,352 192,356 197,353 201,360 194,363 192,359 187,361 194,373 199,372 196,375 199,381 189,387" fill="#c8c2b8" stroke="#00000033"/><polygon points="116,568 122,564 128,576 146,576 148,561 140,550 137,552 134,548 144,542 154,559 155,576 148,582 125,582 116,568" fill="#c8c2b8" stroke="#00000033"/><polygon points="870,-21 870,26 881,26 881,-21 870,-21" fill="#c8c2b8" stroke="#00000033"/><polygon points="86,483 76,479 71,480 62,462 65,461 67,464 71,461 69,458 74,456 77,464 71,468 73,472 77,476 78,472 83,473 83,477 101,464 97,459 103,453 106,455 106,462 110,461 112,466 89,480 88,479 86,483" fill="#c8c2b8" stroke="#00000033"/><polygon points="111,284 106,280 130,264 127,259 123,263 114,249 122,248 128,258 133,248 137,255 135,257 137,260 149,252 152,259 138,266 135,261 132,263 135,269 111,284" fill="#c8c2b8" stroke="#00000033"/><polygon points="313,327 319,337 320,333 327,332 329,340 333,339 350,365 349,361 354,357 349,349 340,335 333,336 340,332 340,327 336,326 330,330 332,323 328,321 322,325 323,329 319,323 315,323 313,327" fill="#c8c2b8" stroke="#00000033"/><polygon points="138,450 136,441 140,439 141,434 137,434 136,427 128,419 126,421 128,425 124,427 122,424 118,428 124,434 128,431 132,438 127,437 126,442 131,444 120,452 114,447 109,453 116,456 113,459 118,463 134,449 138,450" fill="#c8c2b8" stroke="#00000033"/><polygon points="72,342 71,343 67,338 73,334 69,330 37,350 34,344 65,324 68,329 72,327 70,322 81,314 85,319 73,327 75,332 81,329 85,335 78,338 75,334 76,339 72,342" fill="#c8c2b8" stroke="#00000033"/><polygon points="368,422 362,411 366,413 370,407 364,401 367,399 353,370 356,374 361,371 366,380 374,394 369,400 377,396 380,398 380,401 374,405 381,407 381,411 374,415 371,412 374,418 372,422 368,422" fill="#c8c2b8" stroke="#00000033"/><polygon points="78,610 76,615 82,618 80,625 83,626 94,600 71,591 65,605 78,610" fill="#c8c2b8" stroke="#00000033"/><polygon points="96,330 111,354 107,358 110,362 115,359 119,365 112,369 108,363 105,365 108,371 97,379 93,373 104,366 101,360 95,364 92,358 98,355 101,359 104,356 89,332 95,328 96,330" fill="#c8c2b8" stroke="#00000033"/><polygon points="353,601 405,567 410,573 394,581 395,583 357,607 353,601" fill="#c8c2b8" stroke="#00000033"/><polygon points="186,545 190,552 172,562 172,574 173,576 193,574 193,583 168,582 165,558 186,545" fill="#c8c2b8" stroke="#00000033"/><polygon points="52,430 52,440 49,445 62,460 64,458 62,455 66,452 68,455 72,452 66,445 60,449 57,446 55,441 59,442 60,436 56,435 69,430 67,436 75,439 77,435 73,434 74,429 79,430 78,425 64,422 55,431 52,430" fill="#c8c2b8" stroke="#00000033"/><polygon points="190,536 193,541 201,536 205,541 205,576 202,582 213,582 211,542 207,531 204,526 198,531 199,533 190,536" fill="#c8c2b8" stroke="#00000033"/><polygon points="607,74 599,73 576,80 579,93 609,86 607,74" fill="#c8c2b8" stroke="#00000033"/><polygon points="11,127 -19,139 -17,133 -24,125 7,113 9,118 5,120 11,127" fill="#c8c2b8" stroke="#00000033"/><polygon points="87,416 87,427 84,431 97,447 99,445 97,441 101,439 103,442 107,438 102,432 96,436 92,433 90,428 94,428 95,423 91,422 104,417 103,423 110,426 112,422 108,421 109,416 114,417 114,412 99,409 90,418 87,416" fill="#c8c2b8" stroke="#00000033"/><polygon points="322,537 326,523 333,525 331,534 354,540 356,532 350,531 352,524 358,525 360,531 359,534 366,536 367,539 364,543 358,540 356,548 322,537" fill="#c8c2b8" stroke="#00000033"/><polygon points="266,287 266,283 268,285 276,278 273,275 267,278 263,275 276,263 279,267 274,274 277,277 284,270 280,263 282,259 294,270 282,274 288,276 272,291 270,285 266,288 264,286 262,288 266,291 261,298 257,295 258,292 254,290 260,282 266,287" fill="#c8c2b8" stroke="#00000033"/><polygon points="57,225 38,240 27,226 45,211 57,225" fill="#c8c2b8" stroke="#00000033"/><polygon points="51,74 55,88 83,80 79,66 51,74" fill="#c8c2b8" stroke="#00000033"/><polygon points="173,211 176,208 176,211 187,211 186,207 180,205 179,201 196,200 196,205 188,207 188,211 198,210 199,202 204,200 206,216 194,212 197,217 175,218 177,212 172,212 172,209 169,210 170,214 165,215 162,216 161,212 163,210 162,206 172,204 173,211" fill="#c8c2b8" stroke="#00000033"/><polygon points="803,-5 803,8 836,22 836,10 803,-5" fill="#c8c2b8" stroke="#00000033"/><polygon points="358,505 354,519 361,521 364,512 387,518 384,526 379,524 377,531 382,533 388,529 388,525 395,529 397,526 397,522 390,520 392,513 358,505" fill="#c8c2b8" stroke="#00000033"/><polygon points="375,568 349,586 345,580 356,573 357,569 358,572 398,547 400,554 375,568" fill="#c8c2b8" stroke="#00000033"/><polygon points="37,-12 39,-4 34,-3 36,2 45,1 41,5 46,8 49,2 55,0 60,3 62,-2 57,-3 64,-9 63,-14 59,-11 55,-19 49,-16 51,-10 46,-8 43,-14 37,-12" fill="#c8c2b8" stroke="#00000033"/><polygon points="1,-3 2,-6 -3,-5 -4,-13 16,-18 18,-13 14,-10 16,-10 15,-8 19,-8 21,0 13,3 12,0 11,3 3,7 -2,0 3,-3 1,-3" fill="#c8c2b8" stroke="#00000033"/><polygon points="313,340 309,335 295,343 298,350 296,351 292,344 287,344 289,353 281,353 284,362 289,361 283,364 283,369 286,370 296,364 292,363 295,361 291,357 300,355 298,351 314,342 317,345 313,340" fill="#c8c2b8" stroke="#00000033"/><polygon points="848,17 848,29 880,45 880,33 848,17" fill="#c8c2b8" stroke="#00000033"/><polygon points="846,-21 846,13 857,13 857,-21 846,-21" fill="#c8c2b8" stroke="#00000033"/><polygon points="195,512 189,506 177,482 167,489 170,493 172,492 182,509 185,509 177,517 180,522 187,515 189,517 195,512" fill="#c8c2b8" stroke="#00000033"/><polygon points="360,420 363,427 352,433 348,427 346,428 350,435 348,439 341,433 339,440 335,439 331,433 334,429 328,433 324,430 325,427 335,421 333,424 339,429 345,422 348,426 359,419 358,415 360,420" fill="#c8c2b8" stroke="#00000033"/><polygon points="221,226 217,222 220,218 224,222 223,226 226,223 234,228 230,232 221,226 219,229 222,232 215,238 211,236 201,239 202,242 209,241 211,246 198,248 197,242 200,239 194,239 192,234 207,231 206,237 209,236 211,234 208,231 212,226 215,223 218,229 221,226" fill="#c8c2b8" stroke="#00000033"/><polygon points="454,436 448,440 448,446 453,447 459,443 463,448 468,449 469,444 465,438 471,434 472,429 467,427 461,431 457,426 451,425 450,430 454,436" fill="#c8c2b8" stroke="#00000033"/><polygon points="299,292 295,289 298,285 301,288 301,293 303,289 312,294 308,298 299,293 296,295 300,299 294,305 290,303 280,307 280,309 288,308 290,313 277,316 276,309 279,307 273,306 271,302 285,298 284,304 288,303 290,301 286,298 293,290 296,295 299,292" fill="#c8c2b8" stroke="#00000033"/><polygon points="472,468 470,473 475,480 468,489 473,491 479,486 483,492 488,492 490,488 486,481 492,477 492,473 488,471 482,474 477,468 472,468" fill="#c8c2b8" stroke="#00000033"/><polygon points="162,233 161,237 152,237 153,227 162,227 164,232 166,230 172,230 170,235 181,239 182,237 175,233 176,228 190,233 182,240 185,241 185,249 169,242 174,238 169,235 166,239 162,238 164,234 162,233" fill="#c8c2b8" stroke="#00000033"/><polygon points="255,311 257,307 266,308 263,319 254,317 254,312 251,314 246,312 248,308 237,302 236,304 242,309 241,314 228,307 237,301 234,300 235,292 250,301 244,305 249,308 253,304 256,306 253,310 255,311" fill="#c8c2b8" stroke="#00000033"/><polygon points="10,93 16,109 22,103 25,111 18,112 19,117 24,115 26,126 34,125 22,89 16,94 15,91 10,93" fill="#c8c2b8" stroke="#00000033"/><polygon points="905,466 922,479 932,467 915,454 905,466" fill="#c8c2b8" stroke="#00000033"/><polygon points="93,491 109,482 112,488 102,494 106,500 116,493 120,500 105,510 101,505 103,502 92,505 100,496 96,497 93,491" fill="#c8c2b8" stroke="#00000033"/><polygon points="415,352 412,358 418,368 433,378 440,377 442,373 439,367 427,366 424,355 415,352" fill="#c8c2b8" stroke="#00000033"/><polygon points="122,517 126,525 105,537 109,545 142,520 138,514 131,522 127,514 122,517" fill="#c8c2b8" stroke="#00000033"/><polygon points="226,322 228,307 244,314 237,329 230,333 229,330 220,336 226,322" fill="#c8c2b8" stroke="#00000033"/><polygon points="491,584 487,578 481,578 486,573 482,570 485,567 494,573 493,578 500,574 500,592 495,592 493,586 493,590 482,597 480,588 486,583 487,586 491,584" fill="#c8c2b8" stroke="#00000033"/><polygon points="956,9 962,9 958,5 954,9 950,7 953,0 951,-6 955,-7 957,-5 961,-8 964,-6 966,-3 962,0 966,4 966,0 971,0 972,7 969,8 973,12 969,16 964,12 963,16 956,14 956,9" fill="#c8c2b8" stroke="#00000033"/><polygon points="245,331 244,327 254,324 255,335 247,337 245,333 241,335 243,338 239,336 233,341 239,344 226,352 224,348 227,344 217,338 229,330 231,334 225,340 228,343 237,337 234,333 240,329 245,331" fill="#c8c2b8" stroke="#00000033"/><polygon points="491,527 491,524 487,521 486,524 480,519 485,516 482,514 483,510 494,516 493,519 500,517 501,522 498,525 500,535 497,536 493,530 494,535 484,540 482,537 486,534 481,529 491,527" fill="#c8c2b8" stroke="#00000033"/><polygon points="285,617 289,611 291,614 326,592 329,598 288,623 285,617" fill="#c8c2b8" stroke="#00000033"/><polygon points="313,368 315,367 314,364 321,363 324,369 322,372 326,371 330,377 336,374 333,367 327,368 334,364 334,359 331,358 324,361 327,355 323,352 316,356 317,360 314,354 309,355 307,357 313,368" fill="#c8c2b8" stroke="#00000033"/><polygon points="331,402 333,400 335,403 339,398 336,392 333,392 335,389 332,382 337,379 342,385 338,390 346,386 349,388 349,392 343,396 349,397 349,401 343,405 340,402 343,408 340,412 337,412 331,402" fill="#c8c2b8" stroke="#00000033"/><polygon points="217,473 217,468 209,469 210,473 213,473 209,480 225,481 226,475 221,475 227,471 226,468 227,473 235,472 234,468 231,468 235,461 219,461 224,466 220,467 218,469 221,471 217,473" fill="#c8c2b8" stroke="#00000033"/><polygon points="274,579 281,581 279,586 283,586 286,590 292,570 298,572 292,594 285,592 283,599 276,597 279,590 272,586 274,579" fill="#c8c2b8" stroke="#00000033"/><polygon points="236,494 236,489 228,490 228,493 232,494 228,501 244,501 243,497 240,496 245,493 245,490 246,494 254,493 253,489 250,489 254,482 239,482 237,487 243,487 236,494" fill="#c8c2b8" stroke="#00000033"/><polygon points="199,418 199,425 207,424 203,417 207,413 192,412 190,417 195,418 188,427 188,420 180,421 184,428 180,432 195,433 197,428 192,427 199,418" fill="#c8c2b8" stroke="#00000033"/><polygon points="249,452 249,448 241,449 242,453 245,453 241,460 256,460 252,454 258,451 258,448 259,453 267,452 266,448 263,448 267,441 251,441 256,446 252,447 250,449 252,451 249,452" fill="#c8c2b8" stroke="#00000033"/><polyline points="345,-40 291,-28 257,-20 247,-8 239,42 217,86 210,111 209,136 213,171 223,192 232,202 283,233 314,261 309,265 338,304 436,469 442,484" fill="none" stroke="#ffdd44" stroke-width="6" opacity="0.85"/><circle cx="345" cy="-40" r="10" fill="#a0f"/><circle cx="442" cy="484" r="10" fill="#f00"/><path d="M305.3333333334254,13.333333333332018 L321.3333333334254,13.333333333332018 M313.3333333334254,5.333333333332018 L313.3333333334254,21.333333333332018" stroke="#0ff" stroke-width="2"/><path d="M411.9999999998816,493.33333333334383 L427.9999999998816,493.33333333334383 M419.9999999998816,485.33333333334383 L419.9999999998816,501.33333333334383" stroke="#0ff" stroke-width="2"/><rect x="161" y="48" width="22" height="16" fill="#b8c2cc" stroke="#333"/><rect x="101" y="48" width="22" height="16" fill="#b8c2cc" stroke="#333"/><rect x="149" y="156" width="22" height="16" fill="#b8c2cc" stroke="#333"/><rect x="113" y="108" width="22" height="16" fill="#b8c2cc" stroke="#333"/><rect x="245" y="168" width="22" height="16" fill="#b8c2cc" stroke="#333"/><rect x="113" y="204" width="22" height="16" fill="#b8c2cc" stroke="#333"/><rect x="221" y="252" width="22" height="16" fill="#b8c2cc" stroke="#333"/><rect x="353" y="228" width="22" height="16" fill="#b8c2cc" stroke="#333"/><rect x="377" y="288" width="22" height="16" fill="#b8c2cc" stroke="#333"/><rect x="257" y="324" width="22" height="16" fill="#b8c2cc" stroke="#333"/><rect x="437" y="276" width="22" height="16" fill="#b8c2cc" stroke="#333"/><rect x="449" y="336" width="22" height="16" fill="#b8c2cc" stroke="#333"/><rect x="365" y="456" width="22" height="16" fill="#b8c2cc" stroke="#333"/><rect x="485" y="408" width="22" height="16" fill="#b8c2cc" stroke="#333"/><rect x="509" y="468" width="22" height="16" fill="#b8c2cc" stroke="#333"/><rect x="401" y="504" width="22" height="16" fill="#b8c2cc" stroke="#333"/><rect x="509" y="528" width="22" height="16" fill="#b8c2cc" stroke="#333"/><circle cx="22" cy="297" r="6" fill="#e8862a" stroke="#333"/><circle cx="25" cy="513" r="6" fill="#e8862a" stroke="#333"/><circle cx="581" cy="521" r="6" fill="#e8862a" stroke="#333"/><circle cx="433" cy="340" r="6" fill="#e8862a" stroke="#333"/><circle cx="561" cy="456" r="6" fill="#e8862a" stroke="#333"/><circle cx="473" cy="542" r="6" fill="#e8862a" stroke="#333"/><circle cx="590" cy="477" r="6" fill="#e8862a" stroke="#333"/><circle cx="277" cy="256" r="6" fill="#e8862a" stroke="#333"/><circle cx="196" cy="227" r="6" fill="#e8862a" stroke="#333"/><text x="753" y="300" font-size="13" fill="#fff" text-anchor="middle" stroke="#000" stroke-width="0.4">Chinese Garden</text><text x="480" y="20" font-size="16" fill="#fff" text-anchor="middle">18: Jurong Lake Gardens</text></svg>