<svg xmlns="http://www.w3.org/2000/svg" width="960" height="600" viewBox="0 0 960 600"><rect width="960" height="600" fill="#6aa03c"/><polygon points="249,208 114,225 49,240 11,261 -94,334 -125,361 -134,374 -137,373 -138,363 -133,353 -138,352 -164,370 -168,368 -167,365 -171,359 -174,360 -185,352 -189,356 -204,348 -210,350 -194,326 -186,308 -181,307 -173,290 -167,256 -127,148 -118,143 -117,134 -119,128 -112,108 -108,110 -104,100 -108,98 -86,38 -77,42 -77,28 -68,9 -71,0 -57,-25 254,175 259,185 258,192 249,208" fill="#4c8a2c" opacity="0.7"/><polygon points="675,4 679,5 691,-1 688,-52 690,-100 701,-257 707,-284 717,-309 769,-390 742,-406 767,-429 754,-433 750,-427 735,-433 705,-375 687,-383 684,-364 672,-364 675,-301 665,-201 674,-104 675,4" fill="#4c8a2c" opacity="0.7"/><polygon points="73,372 88,381 81,398 151,439 133,452 127,461 45,473 -7,502 73,372" fill="#4c8a2c" opacity="0.7"/><polygon points="99,251 134,224 249,208 236,221 204,241 135,265 91,294 74,281 90,255 85,252 86,250 99,251" fill="#4c8a2c" opacity="0.7"/><polygon points="732,601 755,580 853,661 853,684 829,681 815,674 766,634 732,601" fill="#4c8a2c" opacity="0.7"/><polygon points="236,221 196,245 148,260 139,252 126,256 114,268 115,276 91,294 74,282 90,255 93,257 87,265 89,271 95,275 102,273 106,257 113,245 113,240 134,224 249,208 236,221" fill="#4c8a2c" opacity="0.7"/><polygon points="967,167 966,161 962,158 820,100 790,78 775,74 765,75 755,78 754,87 750,87 755,92 757,91 761,99 759,115 805,109 947,166 967,167" fill="#4c8a2c" opacity="0.7"/><polygon points="495,503 494,525 569,521 568,508 525,471 515,505 495,503" fill="#4c8a2c" opacity="0.7"/><polygon points="-7,425 5,400 20,379 17,375 12,376 12,367 0,348 3,342 35,341 37,335 48,335 45,339 51,343 -6,432 -14,434 -7,425" fill="#4c8a2c" opacity="0.7"/><polygon points="95,352 105,336 166,368 148,361 131,395 138,375 95,352" fill="#4c8a2c" opacity="0.7"/><polygon points="1153,142 1096,169 957,178 944,176 802,121 745,128 725,143" fill="#2e7bb4"/><polygon points="433,440 412,455 359,485 219,547" fill="#2e7bb4"/><polygon points="975,188 945,187 803,130 751,137 729,150 717,135 749,113 754,101 753,94 757,91 760,99 757,113 759,116 805,110 947,166 981,168 1095,156 1220,104 1226,117 1101,176 975,188" fill="#2e7bb4"/><polyline points="101,575 50,580 20,573 0,574 -11,569" fill="none" stroke="#8a8f98" stroke-width="3" stroke-linecap="round"/><polyline points="167,599 175,595" fill="none" stroke="#8a8f98" stroke-width="10" stroke-linecap="round"/><polyline points="61,644 167,599" fill="none" stroke="#8a8f98" stroke-width="10" stroke-linecap="round"/><polyline points="675,585 668,570" fill="none" stroke="#8a8f98" stroke-width="5" stroke-linecap="round"/><polyline points="387,594 388,601" fill="none" stroke="#8a8f98" stroke-width="5" stroke-linecap="round"/><polyline points="629,580 645,583 650,589 646,608 627,610" fill="none" stroke="#8a8f98" stroke-width="3" stroke-linecap="round"/><polyline points="488,563 462,605 433,624" fill="none" stroke="#8a8f98" stroke-width="3" stroke-linecap="round"/><polyline points="488,563 466,563 454,567 428,585 408,594" fill="none" stroke="#8a8f98" stroke-width="3" stroke-linecap="round"/><polyline points="691,601 685,595" fill="none" stroke="#8a8f98" stroke-width="10" stroke-linecap="round"/><polyline points="681,590 675,585" fill="none" stroke="#8a8f98" stroke-width="10" stroke-linecap="round"/><polyline points="668,570 685,583" fill="none" stroke="#8a8f98" stroke-width="10" stroke-linecap="round"/><polyline points="384,573 387,594" fill="none" stroke="#8a8f98" stroke-width="5" stroke-linecap="round"/><polyline points="685,583 721,617" fill="none" stroke="#8a8f98" stroke-width="10" stroke-linecap="round"/><polyline points="627,610 617,605 616,588 619,582 629,580" fill="none" stroke="#8a8f98" stroke-width="3" stroke-linecap="round"/><polyline points="685,595 646,656 629,671" fill="none" stroke="#8a8f98" stroke-width="3" stroke-linecap="round"/><polyline points="685,595 681,590" fill="none" stroke="#8a8f98" stroke-width="10" stroke-linecap="round"/><polyline points="675,585 652,571 606,550" fill="none" stroke="#8a8f98" stroke-width="10" stroke-linecap="round"/><polyline points="349,558 305,553 273,558 235,573 179,602" fill="none" stroke="#8a8f98" stroke-width="10" stroke-linecap="round"/><polyline points="773,402 768,383 753,351 752,341 760,318 777,300" fill="none" stroke="#8a8f98" stroke-width="5" stroke-linecap="round"/><polyline points="387,594 374,566 364,559" fill="none" stroke="#8a8f98" stroke-width="10" stroke-linecap="round"/><polyline points="401,557 384,573" fill="none" stroke="#8a8f98" stroke-width="10" stroke-linecap="round"/><polyline points="670,543 673,562 685,583" fill="none" stroke="#8a8f98" stroke-width="10" stroke-linecap="round"/><polyline points="175,595 271,550 299,545 329,546" fill="none" stroke="#8a8f98" stroke-width="10" stroke-linecap="round"/><polyline points="647,558 668,570" fill="none" stroke="#8a8f98" stroke-width="10" stroke-linecap="round"/><polyline points="668,570 670,543" fill="none" stroke="#8a8f98" stroke-width="5" stroke-linecap="round"/><polyline points="384,558 384,573" fill="none" stroke="#8a8f98" stroke-width="5" stroke-linecap="round"/><polyline points="230,-9 271,53 280,74 283,91 306,129" fill="none" stroke="#8a8f98" stroke-width="5" stroke-linecap="round"/><polyline points="306,129 327,95" fill="none" stroke="#8a8f98" stroke-width="10" stroke-linecap="round"/><polyline points="807,265 804,238 796,227 784,220 754,213" fill="none" stroke="#8a8f98" stroke-width="5" stroke-linecap="round"/><polyline points="766,435 765,422 773,402" fill="none" stroke="#8a8f98" stroke-width="5" stroke-linecap="round"/><polyline points="763,452 771,446" fill="none" stroke="#8a8f98" stroke-width="5" stroke-linecap="round"/><polyline points="329,546 343,546" fill="none" stroke="#8a8f98" stroke-width="10" stroke-linecap="round"/><polyline points="771,446 766,435" fill="none" stroke="#8a8f98" stroke-width="5" stroke-linecap="round"/><polyline points="-48,-26 214,133" fill="none" stroke="#8a8f98" stroke-width="5" stroke-linecap="round"/><polyline points="158,517 180,540 183,547 178,574 178,594" fill="none" stroke="#8a8f98" stroke-width="3" stroke-linecap="round"/><polyline points="769,269 783,273 778,274 757,269" fill="none" stroke="#8a8f98" stroke-width="3" stroke-linecap="round"/><polyline points="334,142 323,154" fill="none" stroke="#8a8f98" stroke-width="10" stroke-linecap="round"/><polyline points="420,26 334,142" fill="none" stroke="#8a8f98" stroke-width="10" stroke-linecap="round"/><polyline points="79,265 66,258 67,249 84,255" fill="none" stroke="#8a8f98" stroke-width="3" stroke-linecap="round"/><polyline points="78,371 65,363" fill="none" stroke="#8a8f98" stroke-width="5" stroke-linecap="round"/><polyline points="149,409 180,350" fill="none" stroke="#8a8f98" stroke-width="5" stroke-linecap="round"/><polyline points="117,316 103,309" fill="none" stroke="#8a8f98" stroke-width="5" stroke-linecap="round"/><polyline points="26,314 -29,316 -39,326" fill="none" stroke="#8a8f98" stroke-width="3" stroke-linecap="round"/><polyline points="71,285 25,286" fill="none" stroke="#8a8f98" stroke-width="3" stroke-linecap="round"/><polyline points="-3,512 19,523 28,533 34,548" fill="none" stroke="#8a8f98" stroke-width="3" stroke-linecap="round"/><polyline points="-3,512 42,477 132,464 143,454" fill="none" stroke="#8a8f98" stroke-width="3" stroke-linecap="round"/><polyline points="65,363 36,410" fill="none" stroke="#8a8f98" stroke-width="10" stroke-linecap="round"/><polyline points="289,182 276,206 262,225 245,241 231,251 196,267 151,279 134,286" fill="none" stroke="#8a8f98" stroke-width="10" stroke-linecap="round"/><polyline points="-29,436 -7,439 7,434" fill="none" stroke="#8a8f98" stroke-width="10" stroke-linecap="round"/><polyline points="86,311 102,296" fill="none" stroke="#8a8f98" stroke-width="10" stroke-linecap="round"/><polyline points="102,296 121,282 136,274 206,252 231,238 254,217 278,180" fill="none" stroke="#8a8f98" stroke-width="10" stroke-linecap="round"/><polyline points="281,174 300,140" fill="none" stroke="#8a8f98" stroke-width="10" stroke-linecap="round"/><polyline points="46,371 57,363 65,363" fill="none" stroke="#8a8f98" stroke-width="5" stroke-linecap="round"/><polyline points="124,292 119,295" fill="none" stroke="#8a8f98" stroke-width="10" stroke-linecap="round"/><polyline points="92,323 65,363" fill="none" stroke="#8a8f98" stroke-width="10" stroke-linecap="round"/><polyline points="36,410 6,457" fill="none" stroke="#8a8f98" stroke-width="10" stroke-linecap="round"/><polyline points="237,247 244,257 194,292 197,296" fill="none" stroke="#8a8f98" stroke-width="3" stroke-linecap="round"/><polyline points="296,169 290,168 287,163" fill="none" stroke="#8a8f98" stroke-width="10" stroke-linecap="round"/><polyline points="-4,450 6,457" fill="none" stroke="#8a8f98" stroke-width="5" stroke-linecap="round"/><polyline points="34,389 46,371" fill="none" stroke="#8a8f98" stroke-width="10" stroke-linecap="round"/><polyline points="-4,450 7,434" fill="none" stroke="#8a8f98" stroke-width="10" stroke-linecap="round"/><polyline points="6,457 4,461" fill="none" stroke="#8a8f98" stroke-width="10" stroke-linecap="round"/><polyline points="168,419 149,409" fill="none" stroke="#8a8f98" stroke-width="5" stroke-linecap="round"/><polyline points="180,350 188,334" fill="none" stroke="#8a8f98" stroke-width="5" stroke-linecap="round"/><polyline points="103,309 92,323" fill="none" stroke="#8a8f98" stroke-width="10" stroke-linecap="round"/><polyline points="149,409 78,371" fill="none" stroke="#8a8f98" stroke-width="5" stroke-linecap="round"/><polyline points="180,350 117,316" fill="none" stroke="#8a8f98" stroke-width="5" stroke-linecap="round"/><polyline points="7,434 26,403" fill="none" stroke="#8a8f98" stroke-width="10" stroke-linecap="round"/><polyline points="46,371 79,320" fill="none" stroke="#8a8f98" stroke-width="10" stroke-linecap="round"/><polyline points="79,320 86,311" fill="none" stroke="#8a8f98" stroke-width="10" stroke-linecap="round"/><polyline points="26,403 34,389" fill="none" stroke="#8a8f98" stroke-width="10" stroke-linecap="round"/><polyline points="134,286 124,292" fill="none" stroke="#8a8f98" stroke-width="10" stroke-linecap="round"/><polyline points="119,295 103,309" fill="none" stroke="#8a8f98" stroke-width="10" stroke-linecap="round"/><polyline points="119,295 114,309 117,316" fill="none" stroke="#8a8f98" stroke-width="5" stroke-linecap="round"/><polyline points="4,461 -12,483 -22,503" fill="none" stroke="#8a8f98" stroke-width="10" stroke-linecap="round"/><polyline points="4,461 -7,455" fill="none" stroke="#8a8f98" stroke-width="5" stroke-linecap="round"/><polyline points="216,275 234,292 250,300 284,337" fill="none" stroke="#8a8f98" stroke-width="3" stroke-linecap="round"/><polyline points="281,174 289,182" fill="none" stroke="#8a8f98" stroke-width="5" stroke-linecap="round"/><polyline points="278,180 281,174" fill="none" stroke="#8a8f98" stroke-width="10" stroke-linecap="round"/><polyline points="214,133 281,174" fill="none" stroke="#8a8f98" stroke-width="5" stroke-linecap="round"/><polyline points="289,182 278,180" fill="none" stroke="#8a8f98" stroke-width="5" stroke-linecap="round"/><polyline points="278,180 229,149 214,133" fill="none" stroke="#8a8f98" stroke-width="5" stroke-linecap="round"/><polyline points="296,169 289,182" fill="none" stroke="#8a8f98" stroke-width="10" stroke-linecap="round"/><polyline points="323,154 296,169" fill="none" stroke="#8a8f98" stroke-width="10" stroke-linecap="round"/><polyline points="300,140 306,129" fill="none" stroke="#8a8f98" stroke-width="10" stroke-linecap="round"/><polyline points="497,411 508,411 518,466 548,503 566,511 599,516 650,530 655,533 667,550" fill="none" stroke="#8a8f98" stroke-width="3" stroke-linecap="round"/><polyline points="647,558 662,555 670,543" fill="none" stroke="#8a8f98" stroke-width="10" stroke-linecap="round"/><polyline points="670,535 672,518 692,497" fill="none" stroke="#8a8f98" stroke-width="5" stroke-linecap="round"/><polyline points="751,459 763,452" fill="none" stroke="#8a8f98" stroke-width="5" stroke-linecap="round"/><polyline points="384,553 387,544" fill="none" stroke="#8a8f98" stroke-width="5" stroke-linecap="round"/><polyline points="471,536 481,471 497,411" fill="none" stroke="#8a8f98" stroke-width="3" stroke-linecap="round"/><polyline points="548,538 506,541" fill="none" stroke="#8a8f98" stroke-width="10" stroke-linecap="round"/><polyline points="555,538 548,538" fill="none" stroke="#8a8f98" stroke-width="10" stroke-linecap="round"/><polyline points="540,529 560,530" fill="none" stroke="#8a8f98" stroke-width="10" stroke-linecap="round"/><polyline points="560,530 589,535 620,546" fill="none" stroke="#8a8f98" stroke-width="10" stroke-linecap="round"/><polyline points="620,546 647,558" fill="none" stroke="#8a8f98" stroke-width="10" stroke-linecap="round"/><polyline points="408,543 452,538" fill="none" stroke="#8a8f98" stroke-width="10" stroke-linecap="round"/><polyline points="401,557 384,558" fill="none" stroke="#8a8f98" stroke-width="10" stroke-linecap="round"/><polyline points="387,544 408,543" fill="none" stroke="#8a8f98" stroke-width="10" stroke-linecap="round"/><polyline points="606,550 587,543 555,538" fill="none" stroke="#8a8f98" stroke-width="10" stroke-linecap="round"/><polyline points="420,554 410,555" fill="none" stroke="#8a8f98" stroke-width="10" stroke-linecap="round"/><polyline points="384,558 364,559" fill="none" stroke="#8a8f98" stroke-width="10" stroke-linecap="round"/><polyline points="471,536 540,529" fill="none" stroke="#8a8f98" stroke-width="10" stroke-linecap="round"/><polyline points="566,562 524,555 507,557" fill="none" stroke="#8a8f98" stroke-width="3" stroke-linecap="round"/><polyline points="343,546 387,544" fill="none" stroke="#8a8f98" stroke-width="10" stroke-linecap="round"/><polyline points="670,543 670,535" fill="none" stroke="#8a8f98" stroke-width="5" stroke-linecap="round"/><polyline points="438,550 420,554" fill="none" stroke="#8a8f98" stroke-width="10" stroke-linecap="round"/><polyline points="364,559 349,558" fill="none" stroke="#8a8f98" stroke-width="10" stroke-linecap="round"/><polyline points="410,555 401,557" fill="none" stroke="#8a8f98" stroke-width="10" stroke-linecap="round"/><polyline points="452,538 471,536" fill="none" stroke="#8a8f98" stroke-width="10" stroke-linecap="round"/><polyline points="469,546 438,550" fill="none" stroke="#8a8f98" stroke-width="10" stroke-linecap="round"/><polyline points="384,558 384,553" fill="none" stroke="#8a8f98" stroke-width="5" stroke-linecap="round"/><polyline points="343,546 349,548 373,549 384,553" fill="none" stroke="#8a8f98" stroke-width="10" stroke-linecap="round"/><polyline points="506,541 469,546" fill="none" stroke="#8a8f98" stroke-width="10" stroke-linecap="round"/><polyline points="692,497 751,459" fill="none" stroke="#8a8f98" stroke-width="5" stroke-linecap="round"/><polyline points="481,471 488,473 486,500 476,501" fill="none" stroke="#8a8f98" stroke-width="3" stroke-linecap="round"/><polyline points="476,501 462,502 459,492 467,443" fill="none" stroke="#8a8f98" stroke-width="3" stroke-linecap="round"/><polyline points="983,584 958,581" fill="none" stroke="#8a8f98" stroke-width="5" stroke-linecap="round"/><polyline points="957,595 958,581" fill="none" stroke="#8a8f98" stroke-width="5" stroke-linecap="round"/><polyline points="958,581 943,572" fill="none" stroke="#8a8f98" stroke-width="5" stroke-linecap="round"/><polyline points="899,545 890,580 875,613 878,629" fill="none" stroke="#8a8f98" stroke-width="5" stroke-linecap="round"/><polyline points="907,207 889,192" fill="none" stroke="#8a8f98" stroke-width="5" stroke-linecap="round"/><polyline points="866,183 859,195" fill="none" stroke="#8a8f98" stroke-width="5" stroke-linecap="round"/><polyline points="826,167 819,176" fill="none" stroke="#8a8f98" stroke-width="5" stroke-linecap="round"/><polyline points="925,192 919,196" fill="none" stroke="#8a8f98" stroke-width="5" stroke-linecap="round"/><polyline points="943,337 974,313" fill="none" stroke="#8a8f98" stroke-width="5" stroke-linecap="round"/><polyline points="808,452 812,488 817,491" fill="none" stroke="#8a8f98" stroke-width="5" stroke-linecap="round"/><polyline points="808,452 1011,405" fill="none" stroke="#8a8f98" stroke-width="5" stroke-linecap="round"/><polyline points="859,539 884,533" fill="none" stroke="#8a8f98" stroke-width="5" stroke-linecap="round"/><polyline points="817,491 1019,445" fill="none" stroke="#8a8f98" stroke-width="5" stroke-linecap="round"/><polyline points="773,402 806,369 845,336 853,332 883,330 905,335" fill="none" stroke="#8a8f98" stroke-width="5" stroke-linecap="round"/><polyline points="908,285 912,257" fill="none" stroke="#8a8f98" stroke-width="5" stroke-linecap="round"/><polyline points="908,285 889,288" fill="none" stroke="#8a8f98" stroke-width="5" stroke-linecap="round"/><polyline points="882,370 898,373 939,389 956,387 964,380" fill="none" stroke="#8a8f98" stroke-width="5" stroke-linecap="round"/><polyline points="805,425 872,373 882,370" fill="none" stroke="#8a8f98" stroke-width="5" stroke-linecap="round"/><polyline points="943,337 918,308 908,285" fill="none" stroke="#8a8f98" stroke-width="5" stroke-linecap="round"/><polyline points="964,380 966,368 943,337" fill="none" stroke="#8a8f98" stroke-width="5" stroke-linecap="round"/><polyline points="898,530 914,526" fill="none" stroke="#8a8f98" stroke-width="5" stroke-linecap="round"/><polyline points="771,446 805,425" fill="none" stroke="#8a8f98" stroke-width="5" stroke-linecap="round"/><polyline points="805,425 808,452" fill="none" stroke="#8a8f98" stroke-width="5" stroke-linecap="round"/><polyline points="931,227 923,219" fill="none" stroke="#8a8f98" stroke-width="5" stroke-linecap="round"/><polyline points="931,227 954,207 969,189" fill="none" stroke="#8a8f98" stroke-width="5" stroke-linecap="round"/><polyline points="866,183 857,179" fill="none" stroke="#8a8f98" stroke-width="5" stroke-linecap="round"/><polyline points="907,207 899,215" fill="none" stroke="#8a8f98" stroke-width="5" stroke-linecap="round"/><polyline points="826,167 784,149" fill="none" stroke="#8a8f98" stroke-width="5" stroke-linecap="round"/><polyline points="889,192 879,189" fill="none" stroke="#8a8f98" stroke-width="5" stroke-linecap="round"/><polyline points="879,189 866,183" fill="none" stroke="#8a8f98" stroke-width="5" stroke-linecap="round"/><polyline points="859,195 850,208" fill="none" stroke="#8a8f98" stroke-width="5" stroke-linecap="round"/><polyline points="819,176 814,183" fill="none" stroke="#8a8f98" stroke-width="5" stroke-linecap="round"/><polyline points="919,196 907,207" fill="none" stroke="#8a8f98" stroke-width="5" stroke-linecap="round"/><polyline points="884,533 898,530" fill="none" stroke="#8a8f98" stroke-width="5" stroke-linecap="round"/><polyline points="898,530 899,545" fill="none" stroke="#8a8f98" stroke-width="5" stroke-linecap="round"/><polyline points="800,275 807,265" fill="none" stroke="#8a8f98" stroke-width="5" stroke-linecap="round"/><polyline points="841,173 826,167" fill="none" stroke="#8a8f98" stroke-width="5" stroke-linecap="round"/><polyline points="857,179 841,173" fill="none" stroke="#8a8f98" stroke-width="5" stroke-linecap="round"/><polyline points="923,219 916,214" fill="none" stroke="#8a8f98" stroke-width="5" stroke-linecap="round"/><polyline points="916,214 907,207" fill="none" stroke="#8a8f98" stroke-width="5" stroke-linecap="round"/><polyline points="899,215 888,232" fill="none" stroke="#8a8f98" stroke-width="5" stroke-linecap="round"/><polyline points="777,300 800,275" fill="none" stroke="#8a8f98" stroke-width="5" stroke-linecap="round"/><polyline points="779,298 794,317" fill="none" stroke="#8a8f98" stroke-width="5" stroke-linecap="round"/><polyline points="807,265 818,258" fill="none" stroke="#8a8f98" stroke-width="5" stroke-linecap="round"/><polyline points="800,275 783,273" fill="none" stroke="#8a8f98" stroke-width="5" stroke-linecap="round"/><polyline points="912,257 917,243 931,227" fill="none" stroke="#8a8f98" stroke-width="5" stroke-linecap="round"/><polyline points="68,12 107,-58" fill="none" stroke="#8a8f98" stroke-width="3" stroke-linecap="round"/><polyline points="154,63 194,-8 194,-12" fill="none" stroke="#8a8f98" stroke-width="3" stroke-linecap="round"/><polyline points="154,63 143,74 62,29 62,23" fill="none" stroke="#8a8f98" stroke-width="3" stroke-linecap="round"/><polyline points="386,15 400,-3 415,-32" fill="none" stroke="#8a8f98" stroke-width="10" stroke-linecap="round"/><polyline points="380,24 386,15" fill="none" stroke="#8a8f98" stroke-width="10" stroke-linecap="round"/><polyline points="351,61 380,24" fill="none" stroke="#8a8f98" stroke-width="10" stroke-linecap="round"/><polyline points="340,76 351,61" fill="none" stroke="#8a8f98" stroke-width="10" stroke-linecap="round"/><polyline points="442,-16 434,5 420,26" fill="none" stroke="#8a8f98" stroke-width="10" stroke-linecap="round"/><polyline points="327,95 340,76" fill="none" stroke="#8a8f98" stroke-width="10" stroke-linecap="round"/><polyline points="446,-34 430,-9 440,-3 407,49 398,43 319,168 293,152 287,161 271,151 285,130 300,140 398,-17 389,-22 401,-41 410,-36 420,-51 446,-34" fill="none" stroke="#444" stroke-width="4" stroke-dasharray="8,4"/><polygon points="446,-34 430,-9 440,-3 407,49 398,43 319,168 293,152 287,161 271,151 285,130 300,140 398,-17 389,-22 401,-41 410,-36 420,-51 446,-34" fill="#c8c2b8" stroke="#00000033"/><polygon points="143,72 186,-7 106,-51 63,27 143,72" fill="#c8c2b8" stroke="#00000033"/><polygon points="377,-49 388,-43 383,-33 386,-31 368,4 366,3 361,13 352,9 356,-1 337,-11 334,-4 324,-9 326,-15 313,-21 310,-16 300,-21 303,-27 284,-36 279,-27 269,-32 296,-89 306,-84 300,-73 319,-64 323,-72 334,-66 330,-58 343,-52 347,-60 358,-55 354,-48 372,-39 377,-49" fill="#c8c2b8" stroke="#00000033"/><polygon points="264,-15 256,1 342,44 350,28 264,-15" fill="#c8c2b8" stroke="#00000033"/><polygon points="515,600 528,605 535,604 575,588 594,568 607,572 594,592 586,598 538,616 526,617 509,611 515,600" fill="#c8c2b8" stroke="#00000033"/><polygon points="269,-29 264,-17 340,16 351,6 269,-29" fill="#c8c2b8" stroke="#00000033"/><polygon points="325,51 333,53 335,61 325,70 304,104 293,78 325,51" fill="#c8c2b8" stroke="#00000033"/><polygon points="493,581 525,570 547,577 549,569 522,562 490,573 472,595 480,600 493,581" fill="#c8c2b8" stroke="#00000033"/><polygon points="-30,308 -17,310 -18,307 -9,307 -9,311 -5,311 -5,307 5,309 5,307 15,306 17,309 17,305 21,304 23,300 20,296 7,299 7,296 -5,299 -5,297 -10,297 -10,299 -16,300 -16,297 -22,297 -26,300 -32,294 -37,298 -34,303 -36,307 -30,308" fill="#c8c2b8" stroke="#00000033"/><polygon points="49,333 43,333 31,316 31,306 34,300 42,294 72,294 76,299 74,302 40,302 36,311 48,325 47,329 51,329 49,333" fill="#c8c2b8" stroke="#00000033"/><polygon points="16,274 24,278 66,277 69,273 67,269 62,268 62,264 60,267 41,269 41,265 36,265 36,269 28,269 28,266 20,269 20,264 17,267 12,264 8,269 16,274" fill="#c8c2b8" stroke="#00000033"/><polygon points="285,23 278,33 292,50 299,52 306,47 309,40 293,24 285,23" fill="#c8c2b8" stroke="#00000033"/><polygon points="34,340 32,332 -3,333 -8,343 -8,352 4,371 9,371 11,367 -3,349 1,340 34,340" fill="#c8c2b8" stroke="#00000033"/><polygon points="-40,385 -37,385 -38,388 -35,385 -30,385 -30,382 -26,382 -27,385 -24,382 -18,382 -16,384 -16,381 -11,382 -11,378 -5,381 -6,378 1,378 0,381 11,378 14,380 13,378 17,378 19,380 16,386 -9,387 -9,391 -30,391 -30,394 -38,395 -42,389 -40,385" fill="#c8c2b8" stroke="#00000033"/><polygon points="631,586 631,582 636,582 636,586 648,586 648,592 637,592 637,597 647,597 647,604 635,603 635,607 630,607 630,603 618,603 619,597 628,597 628,592 619,592 619,586 631,586" fill="#c8c2b8" stroke="#00000033"/><polygon points="215,25 228,19 240,44 227,50 215,25" fill="#c8c2b8" stroke="#00000033"/><polygon points="230,55 242,49 255,72 242,79 230,55" fill="#c8c2b8" stroke="#00000033"/><polygon points="918,290 929,284 917,285 916,270 925,270 928,280 935,279 939,290 923,299 918,290" fill="#c8c2b8" stroke="#00000033"/><polygon points="781,451 799,445 805,462 787,470 781,451" fill="#c8c2b8" stroke="#00000033"/><polygon points="241,599 249,596 247,592 243,593 242,589 266,583 268,588 263,591 272,589 274,594 243,604 241,599" fill="#c8c2b8" stroke="#00000033"/><polygon points="249,119 272,108 278,120 256,132 249,119" fill="#c8c2b8" stroke="#00000033"/><polygon points="454,579 463,564 481,575 472,589 454,579" fill="#c8c2b8" stroke="#00000033"/><polygon points="806,403 799,396 801,394 806,401 816,392 805,379 811,374 830,396 824,401 821,398 807,407 806,403" fill="#c8c2b8" stroke="#00000033"/><polygon points="846,345 859,342 859,344 864,344 865,364 850,364 846,345" fill="#c8c2b8" stroke="#00000033"/><polygon points="186,46 208,34 214,46 192,58 186,46" fill="#c8c2b8" stroke="#00000033"/><polygon points="245,83 256,106 268,100 256,77 245,83" fill="#c8c2b8" stroke="#00000033"/><polygon points="295,575 322,575 322,579 314,581 314,583 321,584 321,588 295,588 295,585 301,582 301,579 295,579 295,575" fill="#c8c2b8" stroke="#00000033"/><polygon points="770,318 781,308 789,317 783,322 789,329 793,326 796,330 788,337 770,318" fill="#c8c2b8" stroke="#00000033"/><polygon points="931,578 940,578 939,587 947,587 947,593 940,592 939,604 929,604 931,578" fill="#c8c2b8" stroke="#00000033"/><polygon points="735,329 737,347 732,348 731,339 727,340 729,348 719,350 717,335 723,335 723,331 735,329" fill="#c8c2b8" stroke="#00000033"/><polygon points="806,329 817,349 809,354 801,343 798,345 793,338 806,329" fill="#c8c2b8" stroke="#00000033"/><polygon points="657,593 666,596 656,622 647,619 657,593" fill="#c8c2b8" stroke="#00000033"/><polyline points="158,517 183,547 178,594 271,550 299,545 373,549 384,553 384,558 517,540 555,538 600,547 658,574" fill="none" stroke="#ffdd44" stroke-width="6" opacity="0.85"/><circle cx="158" cy="517" r="10" fill="#a0f"/><circle cx="658" cy="574" r="10" fill="#f00"/><path d="M158.66666666657454,6.666666666666009 L174.66666666657454,6.666666666666009 M166.66666666657454,-1.3333333333339912 L166.66666666657454,14.666666666666009" stroke="#0ff" stroke-width="2"/><path d="M652.0000000003553,573.333333333336 L668.0000000003553,573.333333333336 M660.0000000003553,565.333333333336 L660.0000000003553,581.333333333336" stroke="#0ff" stroke-width="2"/><rect x="125" y="552" width="22" height="16" fill="#b8c2cc" stroke="#333"/><rect x="209" y="504" width="22" height="16" fill="#b8c2cc" stroke="#333"/><rect x="65" y="552" width="22" height="16" fill="#b8c2cc" stroke="#333"/><rect x="269" y="480" width="22" height="16" fill="#b8c2cc" stroke="#333"/><rect x="221" y="444" width="22" height="16" fill="#b8c2cc" stroke="#333"/><rect x="329" y="456" width="22" height="16" fill="#b8c2cc" stroke="#333"/><rect x="377" y="492" width="22" height="16" fill="#b8c2cc" stroke="#333"/><rect x="437" y="492" width="22" height="16" fill="#b8c2cc" stroke="#333"/><rect x="497" y="480" width="22" height="16" fill="#b8c2cc" stroke="#333"/><rect x="449" y="432" width="22" height="16" fill="#b8c2cc" stroke="#333"/><rect x="557" y="480" width="22" height="16" fill="#b8c2cc" stroke="#333"/><rect x="617" y="492" width="22" height="16" fill="#b8c2cc" stroke="#333"/><rect x="593" y="432" width="22" height="16" fill="#b8c2cc" stroke="#333"/><rect x="521" y="420" width="22" height="16" fill="#b8c2cc" stroke="#333"/><rect x="677" y="528" width="22" height="16" fill="#b8c2cc" stroke="#333"/><rect x="677" y="468" width="22" height="16" fill="#b8c2cc" stroke="#333"/><rect x="737" y="552" width="22" height="16" fill="#b8c2cc" stroke="#333"/><text x="480" y="300" font-size="13" fill="#fff" text-anchor="middle" stroke="#000" stroke-width="0.4">Rail Corridor</text><text x="480" y="20" font-size="16" fill="#fff" text-anchor="middle">19: Clementi Forest</text></svg>