<svg xmlns="http://www.w3.org/2000/svg" width="960" height="600" viewBox="0 0 960 600"><rect width="960" height="600" fill="#6aa03c"/><polygon points="182,58 45,78 -4,82 -94,102 -148,132 -292,232 -334,269 -347,288 -351,286 -351,278 -354,272 -345,258 -353,257 -389,282 -395,280 -393,275 -398,267 -403,268 -418,257 -423,263 -445,252 -452,254 -430,222 -420,196 -413,195 -402,172 -393,125 -337,-25 -326,-32 -324,-44 -327,-52 -317,-80 -312,-77 -307,-91 -312,-94 -281,-177 -272,-171 -268,-172 -268,-190 -257,-218 -261,-229 -241,-264 189,12 196,27 195,36 182,58" fill="#4c8a2c" opacity="0.7"/><polygon points="-61,285 -40,298 -50,321 46,378 22,396 13,407 -100,425 -171,465 -61,285" fill="#4c8a2c" opacity="0.7"/><polygon points="-26,117 1,94 23,80 182,58 164,76 120,104 25,137 -13,158 -37,177 -60,159 -38,123 -45,119 -44,117 -26,117" fill="#4c8a2c" opacity="0.7"/><polygon points="850,602 882,573 1018,685 1016,716 984,713 965,702 896,647 850,602" fill="#4c8a2c" opacity="0.7"/><polygon points="164,76 143,92 109,109 42,130 30,119 12,125 -4,140 -3,152 -37,177 -59,160 -38,123 -34,126 -42,137 -40,146 -31,150 -22,148 -17,140 -16,126 -9,119 -5,109 -6,102 1,94 23,80 182,58 164,76" fill="#4c8a2c" opacity="0.7"/><polygon points="522,467 521,496 625,491 623,473 564,421 549,469 522,467" fill="#4c8a2c" opacity="0.7"/><polygon points="-30,257 -16,234 67,279 66,281 43,270 19,317 16,316 29,289 -30,257" fill="#4c8a2c" opacity="0.7"/><polygon points="856,-30 876,-40 948,-49 1144,29 1159,30 1160,35 1141,33 947,-44 877,-35 860,-27 856,-30" fill="#4c8a2c" opacity="0.7"/><polygon points="-77,97 -77,116 -74,107 -44,117 -26,117 -14,109 -21,86 -77,97" fill="#4c8a2c" opacity="0.7"/><polygon points="882,-11 894,-30 912,-18 922,-34 931,-24 939,-44 877,-35 860,-27 882,-11" fill="#4c8a2c" opacity="0.7"/><polygon points="880,-101 877,-81 867,-68 849,-59 829,-44 828,-46 841,-58 858,-94 874,-108 880,-101" fill="#4c8a2c" opacity="0.7"/><polygon points="-74,107 -44,117 -45,119 -38,123 -54,153 -64,148 -59,139 -60,135 -80,128 -74,107" fill="#9aa0a8"/><polygon points="465,449 475,479 468,482 473,495 481,495 486,450 465,449" fill="#9aa0a8"/><polygon points="404,459 427,452 441,492 418,500 404,459" fill="#3d8b46" stroke="#fff"/><polygon points="450,455 459,484 473,479 464,450 450,455" fill="#3d8b46" stroke="#fff"/><polygon points="572,459 572,474 545,473 546,457 572,459" fill="#3d8b46" stroke="#fff"/><polygon points="430,450 437,475 452,470 444,446 430,450" fill="#3d8b46" stroke="#fff"/><polygon points="437,476 444,498 460,493 453,471 437,476" fill="#3d8b46" stroke="#fff"/><polygon points="2,495 7,521 21,519 16,492 2,495" fill="#3d8b46" stroke="#fff"/><polygon points="814,222 823,219 827,238 819,240 814,222" fill="#3d8b46" stroke="#fff"/><polygon points="268,610 273,605 283,608 285,604 276,602 276,595 268,597 267,599 270,603 263,607 265,610 268,610" fill="#3ec6e8"/><polygon points="143,612 162,598 165,601 162,608 166,621 170,621 177,614 190,619 193,626 198,628 213,622 214,612 218,610 223,615 230,615 233,625 224,627 220,636 213,633 200,636 200,646 195,659 190,663 183,662 181,667 172,670 165,666 166,660 174,663 180,657 191,660 197,647 189,635 189,621 175,618 169,624 164,624 161,612 156,618 144,620 140,617 143,612" fill="#3ec6e8"/><polygon points="288,599 292,599 292,594 301,598 295,601 297,605 293,608 286,602 288,599" fill="#3ec6e8"/><polygon points="929,24 926,28 940,35 942,30 929,24" fill="#3ec6e8"/><polygon points="960,54 968,59 946,81 943,77 963,59 960,54" fill="#3ec6e8"/><polygon points="917,327 926,318 931,323 922,332 917,327" fill="#3ec6e8"/><polygon points="1431,-33 1363,2 1352,4 1161,17 1143,14 946,-63 867,-52 840,-32" fill="#2e7bb4"/><polygon points="437,378 408,400 334,441 257,478 141,527" fill="#2e7bb4"/><polygon points="742,41 680,88 661,107 600,214" fill="#2e7bb4"/><polygon points="1186,31 1144,29 948,-49 876,-40 862,-34 846,-22 829,-43 873,-73 880,-90 878,-100 885,-103 889,-93 884,-74 886,-69 951,-78 1147,0 1193,2 1351,-13 1524,-86 1533,-68 1500,-50 1360,13 1186,31" fill="#2e7bb4"/><polyline points="-22,565 -93,572 -135,563 -163,565 -178,558" fill="none" stroke="#8a8f98" stroke-width="3" stroke-linecap="round"/><polyline points="68,598 79,593" fill="none" stroke="#8a8f98" stroke-width="10" stroke-linecap="round"/><polyline points="-77,661 68,598" fill="none" stroke="#8a8f98" stroke-width="10" stroke-linecap="round"/><polyline points="-32,617 -22,565" fill="none" stroke="#8a8f98" stroke-width="3" stroke-linecap="round"/><polyline points="771,579 762,566 761,558" fill="none" stroke="#8a8f98" stroke-width="5" stroke-linecap="round"/><polyline points="373,591 374,601" fill="none" stroke="#8a8f98" stroke-width="5" stroke-linecap="round"/><polyline points="618,616 656,599" fill="none" stroke="#8a8f98" stroke-width="3" stroke-linecap="round"/><polyline points="708,573 730,576 736,585 731,611 705,614" fill="none" stroke="#8a8f98" stroke-width="3" stroke-linecap="round"/><polyline points="513,548 476,607 451,627 437,633" fill="none" stroke="#8a8f98" stroke-width="3" stroke-linecap="round"/><polyline points="513,548 482,549 466,554 430,580 402,592" fill="none" stroke="#8a8f98" stroke-width="3" stroke-linecap="round"/><polyline points="793,601 785,592" fill="none" stroke="#8a8f98" stroke-width="10" stroke-linecap="round"/><polyline points="779,586 771,579" fill="none" stroke="#8a8f98" stroke-width="10" stroke-linecap="round"/><polyline points="761,558 785,576" fill="none" stroke="#8a8f98" stroke-width="10" stroke-linecap="round"/><polyline points="369,563 373,591" fill="none" stroke="#8a8f98" stroke-width="5" stroke-linecap="round"/><polyline points="785,576 835,623" fill="none" stroke="#8a8f98" stroke-width="10" stroke-linecap="round"/><polyline points="705,614 691,607 690,583 694,575 708,573" fill="none" stroke="#8a8f98" stroke-width="3" stroke-linecap="round"/><polyline points="785,592 731,677 707,699" fill="none" stroke="#8a8f98" stroke-width="3" stroke-linecap="round"/><polyline points="785,592 779,586" fill="none" stroke="#8a8f98" stroke-width="10" stroke-linecap="round"/><polyline points="771,579 739,559 676,530" fill="none" stroke="#8a8f98" stroke-width="10" stroke-linecap="round"/><polyline points="321,541 260,534 240,535 215,541 163,563 86,602" fill="none" stroke="#8a8f98" stroke-width="10" stroke-linecap="round"/><polyline points="907,326 899,300 879,256 877,242 889,210 912,186" fill="none" stroke="#8a8f98" stroke-width="5" stroke-linecap="round"/><polyline points="373,591 355,553 341,543" fill="none" stroke="#8a8f98" stroke-width="10" stroke-linecap="round"/><polyline points="392,540 379,550 369,563" fill="none" stroke="#8a8f98" stroke-width="10" stroke-linecap="round"/><polyline points="764,522 769,548 785,576" fill="none" stroke="#8a8f98" stroke-width="10" stroke-linecap="round"/><polyline points="79,593 162,553 213,531 231,526 251,524 292,526" fill="none" stroke="#8a8f98" stroke-width="10" stroke-linecap="round"/><polyline points="732,542 761,558" fill="none" stroke="#8a8f98" stroke-width="10" stroke-linecap="round"/><polyline points="761,558 764,522" fill="none" stroke="#8a8f98" stroke-width="5" stroke-linecap="round"/><polyline points="368,542 369,563" fill="none" stroke="#8a8f98" stroke-width="5" stroke-linecap="round"/><polyline points="613,592 620,547" fill="none" stroke="#8a8f98" stroke-width="3" stroke-linecap="round"/><polyline points="954,137 950,100 939,84 922,74 880,66" fill="none" stroke="#8a8f98" stroke-width="5" stroke-linecap="round"/><polyline points="896,372 895,353 907,326" fill="none" stroke="#8a8f98" stroke-width="5" stroke-linecap="round"/><polyline points="892,395 904,388" fill="none" stroke="#8a8f98" stroke-width="5" stroke-linecap="round"/><polyline points="292,526 312,526" fill="none" stroke="#8a8f98" stroke-width="10" stroke-linecap="round"/><polyline points="904,388 896,372" fill="none" stroke="#8a8f98" stroke-width="5" stroke-linecap="round"/><polyline points="-229,-266 133,-46" fill="none" stroke="#8a8f98" stroke-width="5" stroke-linecap="round"/><polyline points="56,485 87,517 90,527 84,563 84,591" fill="none" stroke="#8a8f98" stroke-width="3" stroke-linecap="round"/><polyline points="901,142 921,147 913,149 885,142" fill="none" stroke="#8a8f98" stroke-width="3" stroke-linecap="round"/><polyline points="300,-33 284,-17" fill="none" stroke="#8a8f98" stroke-width="10" stroke-linecap="round"/><polyline points="418,-194 300,-33" fill="none" stroke="#8a8f98" stroke-width="10" stroke-linecap="round"/><polyline points="-53,136 -71,128 -69,115 -46,123" fill="none" stroke="#8a8f98" stroke-width="3" stroke-linecap="round"/><polyline points="44,336 86,254" fill="none" stroke="#8a8f98" stroke-width="5" stroke-linecap="round"/><polyline points="0,208 -20,198" fill="none" stroke="#8a8f98" stroke-width="5" stroke-linecap="round"/><polyline points="-166,479 -160,471 -104,430 20,413 28,409 36,398" fill="none" stroke="#8a8f98" stroke-width="3" stroke-linecap="round"/><polyline points="237,22 219,55 200,81 177,104 157,118 128,133 109,140 47,156 23,165" fill="none" stroke="#8a8f98" stroke-width="10" stroke-linecap="round"/><polyline points="-43,201 -22,180" fill="none" stroke="#8a8f98" stroke-width="10" stroke-linecap="round"/><polyline points="-22,180 5,161 26,150 123,119 158,99 189,71 206,47 222,19" fill="none" stroke="#8a8f98" stroke-width="10" stroke-linecap="round"/><polyline points="227,10 252,-35" fill="none" stroke="#8a8f98" stroke-width="10" stroke-linecap="round"/><polyline points="10,174 3,178" fill="none" stroke="#8a8f98" stroke-width="10" stroke-linecap="round"/><polyline points="-35,217 -72,273" fill="none" stroke="#8a8f98" stroke-width="10" stroke-linecap="round"/><polyline points="166,112 175,126 105,175 110,180" fill="none" stroke="#8a8f98" stroke-width="3" stroke-linecap="round"/><polyline points="247,4 239,3 235,-5" fill="none" stroke="#8a8f98" stroke-width="10" stroke-linecap="round"/><polyline points="70,349 44,336" fill="none" stroke="#8a8f98" stroke-width="5" stroke-linecap="round"/><polyline points="86,254 97,232" fill="none" stroke="#8a8f98" stroke-width="5" stroke-linecap="round"/><polyline points="-20,198 -35,217" fill="none" stroke="#8a8f98" stroke-width="10" stroke-linecap="round"/><polyline points="44,336 -55,283" fill="none" stroke="#8a8f98" stroke-width="5" stroke-linecap="round"/><polyline points="86,254 0,208" fill="none" stroke="#8a8f98" stroke-width="5" stroke-linecap="round"/><polyline points="-53,213 -43,201" fill="none" stroke="#8a8f98" stroke-width="10" stroke-linecap="round"/><polyline points="23,165 10,174" fill="none" stroke="#8a8f98" stroke-width="10" stroke-linecap="round"/><polyline points="3,178 -20,198" fill="none" stroke="#8a8f98" stroke-width="10" stroke-linecap="round"/><polyline points="3,178 -5,197 0,208" fill="none" stroke="#8a8f98" stroke-width="5" stroke-linecap="round"/><polyline points="136,151 162,174 183,185 201,202 230,237" fill="none" stroke="#8a8f98" stroke-width="3" stroke-linecap="round"/><polyline points="227,10 237,22" fill="none" stroke="#8a8f98" stroke-width="5" stroke-linecap="round"/><polyline points="222,19 227,10" fill="none" stroke="#8a8f98" stroke-width="10" stroke-linecap="round"/><polyline points="133,-46 227,10" fill="none" stroke="#8a8f98" stroke-width="5" stroke-linecap="round"/><polyline points="237,22 222,19" fill="none" stroke="#8a8f98" stroke-width="5" stroke-linecap="round"/><polyline points="222,19 154,-23 133,-46" fill="none" stroke="#8a8f98" stroke-width="5" stroke-linecap="round"/><polyline points="247,4 237,22" fill="none" stroke="#8a8f98" stroke-width="10" stroke-linecap="round"/><polyline points="284,-17 247,4" fill="none" stroke="#8a8f98" stroke-width="10" stroke-linecap="round"/><polyline points="252,-35 261,-51" fill="none" stroke="#8a8f98" stroke-width="10" stroke-linecap="round"/><polyline points="524,338 541,339 554,414 595,466 620,477 666,484 736,504 744,508 760,530" fill="none" stroke="#8a8f98" stroke-width="3" stroke-linecap="round"/><polyline points="732,542 744,541 753,538 760,530 764,522" fill="none" stroke="#8a8f98" stroke-width="10" stroke-linecap="round"/><polyline points="764,510 767,486 779,471 794,458" fill="none" stroke="#8a8f98" stroke-width="5" stroke-linecap="round"/><polyline points="876,406 892,395" fill="none" stroke="#8a8f98" stroke-width="5" stroke-linecap="round"/><polyline points="368,535 373,523" fill="none" stroke="#8a8f98" stroke-width="5" stroke-linecap="round"/><polyline points="676,530 634,544" fill="none" stroke="#8a8f98" stroke-width="3" stroke-linecap="round"/><polyline points="489,511 503,421 524,338" fill="none" stroke="#8a8f98" stroke-width="3" stroke-linecap="round"/><polyline points="596,514 538,518" fill="none" stroke="#8a8f98" stroke-width="10" stroke-linecap="round"/><polyline points="606,514 596,514" fill="none" stroke="#8a8f98" stroke-width="10" stroke-linecap="round"/><polyline points="584,502 612,503" fill="none" stroke="#8a8f98" stroke-width="10" stroke-linecap="round"/><polyline points="612,503 652,510 695,525" fill="none" stroke="#8a8f98" stroke-width="10" stroke-linecap="round"/><polyline points="695,525 732,542" fill="none" stroke="#8a8f98" stroke-width="10" stroke-linecap="round"/><polyline points="402,521 462,514" fill="none" stroke="#8a8f98" stroke-width="10" stroke-linecap="round"/><polyline points="392,540 368,542" fill="none" stroke="#8a8f98" stroke-width="10" stroke-linecap="round"/><polyline points="373,523 402,521" fill="none" stroke="#8a8f98" stroke-width="10" stroke-linecap="round"/><polyline points="676,530 650,522 606,514" fill="none" stroke="#8a8f98" stroke-width="10" stroke-linecap="round"/><polyline points="418,536 405,538" fill="none" stroke="#8a8f98" stroke-width="10" stroke-linecap="round"/><polyline points="368,542 341,543" fill="none" stroke="#8a8f98" stroke-width="10" stroke-linecap="round"/><polyline points="489,511 584,502" fill="none" stroke="#8a8f98" stroke-width="10" stroke-linecap="round"/><polyline points="620,547 562,537 539,541" fill="none" stroke="#8a8f98" stroke-width="3" stroke-linecap="round"/><polyline points="312,526 373,523" fill="none" stroke="#8a8f98" stroke-width="10" stroke-linecap="round"/><polyline points="764,522 764,510" fill="none" stroke="#8a8f98" stroke-width="5" stroke-linecap="round"/><polyline points="443,532 418,536" fill="none" stroke="#8a8f98" stroke-width="10" stroke-linecap="round"/><polyline points="341,543 321,541" fill="none" stroke="#8a8f98" stroke-width="10" stroke-linecap="round"/><polyline points="405,538 392,540" fill="none" stroke="#8a8f98" stroke-width="10" stroke-linecap="round"/><polyline points="462,514 489,511" fill="none" stroke="#8a8f98" stroke-width="10" stroke-linecap="round"/><polyline points="487,525 443,532" fill="none" stroke="#8a8f98" stroke-width="10" stroke-linecap="round"/><polyline points="368,542 368,535" fill="none" stroke="#8a8f98" stroke-width="5" stroke-linecap="round"/><polyline points="312,526 320,529 354,529 368,535" fill="none" stroke="#8a8f98" stroke-width="10" stroke-linecap="round"/><polyline points="538,518 487,525" fill="none" stroke="#8a8f98" stroke-width="10" stroke-linecap="round"/><polyline points="794,458 876,406" fill="none" stroke="#8a8f98" stroke-width="5" stroke-linecap="round"/><polyline points="503,421 513,424 510,461 496,463" fill="none" stroke="#8a8f98" stroke-width="3" stroke-linecap="round"/><polyline points="496,463 477,465 473,451 484,383" fill="none" stroke="#8a8f98" stroke-width="3" stroke-linecap="round"/><polyline points="534,456 541,457 541,465 508,463" fill="none" stroke="#8a8f98" stroke-width="3" stroke-linecap="round"/><polyline points="979,1 970,14" fill="none" stroke="#8a8f98" stroke-width="5" stroke-linecap="round"/><polyline points="955,396 961,445 967,450" fill="none" stroke="#8a8f98" stroke-width="5" stroke-linecap="round"/><polyline points="955,396 1236,331" fill="none" stroke="#8a8f98" stroke-width="5" stroke-linecap="round"/><polyline points="967,450 1246,385" fill="none" stroke="#8a8f98" stroke-width="5" stroke-linecap="round"/><polyline points="907,326 952,281 1007,235 1017,230 1058,226 1090,234" fill="none" stroke="#8a8f98" stroke-width="5" stroke-linecap="round"/><polyline points="950,358 1043,286 1057,282" fill="none" stroke="#8a8f98" stroke-width="5" stroke-linecap="round"/><polyline points="904,388 950,358" fill="none" stroke="#8a8f98" stroke-width="5" stroke-linecap="round"/><polyline points="950,358 955,396" fill="none" stroke="#8a8f98" stroke-width="5" stroke-linecap="round"/><polyline points="979,1 921,-23" fill="none" stroke="#8a8f98" stroke-width="5" stroke-linecap="round"/><polyline points="970,14 964,24" fill="none" stroke="#8a8f98" stroke-width="5" stroke-linecap="round"/><polyline points="944,151 954,137" fill="none" stroke="#8a8f98" stroke-width="5" stroke-linecap="round"/><polyline points="1001,10 979,1" fill="none" stroke="#8a8f98" stroke-width="5" stroke-linecap="round"/><polyline points="1022,18 1001,10" fill="none" stroke="#8a8f98" stroke-width="5" stroke-linecap="round"/><polyline points="912,186 944,151" fill="none" stroke="#8a8f98" stroke-width="5" stroke-linecap="round"/><polyline points="914,183 936,208" fill="none" stroke="#8a8f98" stroke-width="5" stroke-linecap="round"/><polyline points="954,137 969,127" fill="none" stroke="#8a8f98" stroke-width="5" stroke-linecap="round"/><polyline points="944,151 921,147" fill="none" stroke="#8a8f98" stroke-width="5" stroke-linecap="round"/><polyline points="455,-277 433,-242 446,-234 401,-162 388,-171 279,3 243,-20 235,-6 213,-20 231,-49 252,-36 388,-253 376,-260 392,-286 405,-279 418,-300 455,-277" fill="none" stroke="#444" stroke-width="4" stroke-dasharray="8,4"/><polygon points="455,-277 433,-242 446,-234 401,-162 388,-171 279,3 243,-20 235,-6 213,-20 231,-49 252,-36 388,-253 376,-260 392,-286 405,-279 418,-300 455,-277" fill="#c8c2b8" stroke="#00000033"/><polygon points="549,600 568,607 577,606 633,583 659,556 678,561 658,589 647,598 582,622 564,624 541,615 549,600" fill="#c8c2b8" stroke="#00000033"/><polygon points="519,574 564,559 594,568 597,557 560,548 515,562 508,568 491,593 502,600 519,574" fill="#c8c2b8" stroke="#00000033"/><polygon points="710,580 710,576 717,576 717,581 733,581 733,589 719,589 718,596 733,596 733,605 716,605 716,609 709,609 709,604 693,604 693,596 706,596 707,589 693,589 694,580 710,580" fill="#c8c2b8" stroke="#00000033"/><polygon points="171,598 183,594 180,589 174,590 172,585 182,581 183,584 187,583 206,576 208,583 202,588 213,584 216,592 174,606 171,598" fill="#c8c2b8" stroke="#00000033"/><polygon points="918,395 943,386 951,409 926,420 918,395" fill="#c8c2b8" stroke="#00000033"/><polygon points="183,-64 214,-80 223,-63 191,-47 183,-64" fill="#c8c2b8" stroke="#00000033"/><polygon points="1008,247 1025,243 1025,247 1032,246 1033,274 1013,274 1012,264 1008,264 1008,247" fill="#c8c2b8" stroke="#00000033"/><polygon points="951,328 943,318 945,316 953,325 967,313 951,295 959,288 985,318 977,325 973,320 961,331 959,328 953,333 951,328" fill="#c8c2b8" stroke="#00000033"/><polygon points="466,571 478,551 502,566 490,585 466,571" fill="#c8c2b8" stroke="#00000033"/><polygon points="245,565 283,565 283,572 272,573 271,576 281,578 281,584 246,584 245,580 255,575 254,571 245,571 245,565" fill="#c8c2b8" stroke="#00000033"/><polygon points="903,210 917,197 928,209 921,216 929,225 934,221 939,226 927,237 903,210" fill="#c8c2b8" stroke="#00000033"/><polygon points="854,226 857,251 850,252 848,240 843,240 845,252 832,254 829,234 838,233 837,228 854,226" fill="#c8c2b8" stroke="#00000033"/><polygon points="747,590 759,594 752,619 748,618 745,630 732,627 747,590" fill="#c8c2b8" stroke="#00000033"/><polygon points="952,225 957,233 954,234 967,253 956,260 945,245 941,247 934,238 952,225" fill="#c8c2b8" stroke="#00000033"/><polygon points="208,115 191,133 176,118 195,102 208,115" fill="#c8c2b8" stroke="#00000033"/><polygon points="948,71 935,65 949,37 962,44 948,71" fill="#c8c2b8" stroke="#00000033"/><polygon points="869,151 887,152 886,165 880,165 883,179 866,178 869,151" fill="#c8c2b8" stroke="#00000033"/><polygon points="986,298 993,291 1001,300 989,310 966,282 977,272 986,282 978,289 986,298" fill="#c8c2b8" stroke="#00000033"/><polygon points="962,191 973,201 946,221 941,214 946,211 942,206 962,191" fill="#c8c2b8" stroke="#00000033"/><polygon points="972,146 982,159 961,176 952,166 959,160 957,158 972,146" fill="#c8c2b8" stroke="#00000033"/><polygon points="1001,286 1009,279 1015,287 1004,297 981,270 993,260 1002,270 994,277 1001,286" fill="#c8c2b8" stroke="#00000033"/><polygon points="906,218 902,251 890,249 894,216 906,218" fill="#c8c2b8" stroke="#00000033"/><polygon points="912,261 920,254 924,258 928,254 942,270 931,281 912,261" fill="#c8c2b8" stroke="#00000033"/><polygon points="982,144 1002,160 1012,149 989,131 982,144" fill="#c8c2b8" stroke="#00000033"/><polygon points="170,135 183,146 168,164 155,154 170,135" fill="#c8c2b8" stroke="#00000033"/><polygon points="37,487 43,522 54,520 47,485 37,487" fill="#c8c2b8" stroke="#00000033"/><polygon points="1006,478 1027,473 1029,482 1019,484 1024,501 1012,501 1006,478" fill="#c8c2b8" stroke="#00000033"/><polygon points="889,77 905,76 906,82 899,82 901,101 883,103 882,92 890,91 889,77" fill="#c8c2b8" stroke="#00000033"/><polygon points="936,197 926,187 929,183 926,180 932,174 935,177 938,174 940,176 944,172 953,180 936,197" fill="#c8c2b8" stroke="#00000033"/><polygon points="900,88 919,86 921,109 911,110 910,101 901,102 900,88" fill="#c8c2b8" stroke="#00000033"/><polygon points="922,18 910,37 892,25 897,17 905,22 911,12 922,18" fill="#c8c2b8" stroke="#00000033"/><polygon points="1008,220 996,229 995,226 992,228 984,208 993,204 994,208 1001,205 1008,220" fill="#c8c2b8" stroke="#00000033"/><polygon points="987,482 1002,479 1004,490 1001,491 1001,494 1006,497 1008,503 1002,504 1004,510 999,511 998,506 993,507 993,494 987,482" fill="#c8c2b8" stroke="#00000033"/><polygon points="910,266 929,287 921,294 911,282 908,285 899,276 910,266" fill="#c8c2b8" stroke="#00000033"/><polygon points="908,354 922,334 923,335 930,327 935,332 928,343 933,346 928,353 923,349 913,358 908,354" fill="#c8c2b8" stroke="#00000033"/><polygon points="526,353 536,351 543,383 533,385 526,353" fill="#c8c2b8" stroke="#00000033"/><polygon points="920,42 925,43 926,40 935,44 927,65 913,59 920,42" fill="#c8c2b8" stroke="#00000033"/><polygon points="915,123 914,137 909,136 909,140 895,139 897,121 915,123" fill="#c8c2b8" stroke="#00000033"/><polygon points="1010,92 1024,102 1014,116 999,106 1010,92" fill="#c8c2b8" stroke="#00000033"/><polygon points="978,368 975,353 995,349 997,364 978,368" fill="#c8c2b8" stroke="#00000033"/><polygon points="865,182 886,182 886,199 878,199 878,190 872,190 871,199 865,198 865,182" fill="#c8c2b8" stroke="#00000033"/><polygon points="1004,200 1012,196 1016,204 1019,202 1022,207 1026,205 1029,212 1013,220 1004,200" fill="#c8c2b8" stroke="#00000033"/><polygon points="194,148 175,171 168,164 186,142 194,148" fill="#c8c2b8" stroke="#00000033"/><polygon points="886,-4 898,3 889,18 874,9 886,-4" fill="#c8c2b8" stroke="#00000033"/><polyline points="-26,398 56,485 87,517 90,527 84,563 84,591 213,531 251,524 354,529 368,535 368,542 553,516 606,514 668,527 747,564" fill="none" stroke="#ffdd44" stroke-width="6" opacity="0.85"/><circle cx="-26" cy="398" r="10" fill="#a0f"/><circle cx="747" cy="564" r="10" fill="#f00"/><path d="M60.24884792558461,-220.27649769584207 L76.24884792558461,-220.27649769584207 M68.24884792558461,-228.27649769584207 L68.24884792558461,-212.27649769584207" stroke="#0ff" stroke-width="2"/><path d="M742.2764976960551,563.1336405529995 L758.2764976960551,563.1336405529995 M750.2764976960551,555.1336405529995 L750.2764976960551,571.1336405529995" stroke="#0ff" stroke-width="2"/><rect x="41" y="408" width="22" height="16" fill="#b8c2cc" stroke="#333"/><rect x="89" y="456" width="22" height="16" fill="#b8c2cc" stroke="#333"/><rect x="29" y="540" width="22" height="16" fill="#b8c2cc" stroke="#333"/><rect x="137" y="492" width="22" height="16" fill="#b8c2cc" stroke="#333"/><rect x="185" y="456" width="22" height="16" fill="#b8c2cc" stroke="#333"/><rect x="233" y="552" width="22" height="16" fill="#b8c2cc" stroke="#333"/><rect x="137" y="420" width="22" height="16" fill="#b8c2cc" stroke="#333"/><rect x="245" y="432" width="22" height="16" fill="#b8c2cc" stroke="#333"/><rect x="293" y="468" width="22" height="16" fill="#b8c2cc" stroke="#333"/><rect x="365" y="480" width="22" height="16" fill="#b8c2cc" stroke="#333"/><rect x="425" y="480" width="22" height="16" fill="#b8c2cc" stroke="#333"/><rect x="497" y="468" width="22" height="16" fill="#b8c2cc" stroke="#333"/><rect x="557" y="456" width="22" height="16" fill="#b8c2cc" stroke="#333"/><rect x="449" y="420" width="22" height="16" fill="#b8c2cc" stroke="#333"/><rect x="617" y="456" width="22" height="16" fill="#b8c2cc" stroke="#333"/><rect x="677" y="468" width="22" height="16" fill="#b8c2cc" stroke="#333"/><rect x="737" y="480" width="22" height="16" fill="#b8c2cc" stroke="#333"/><rect x="785" y="540" width="22" height="16" fill="#b8c2cc" stroke="#333"/><circle cx="329" cy="574" r="6" fill="#e8862a" stroke="#333"/><text x="501" y="185" font-size="13" fill="#fff" text-anchor="middle" stroke="#000" stroke-width="0.4">Rail Corridor</text><text x="480" y="20" font-size="16" fill="#fff" text-anchor="middle">19: Clementi Forest</text></svg>