<svg xmlns="http://www.w3.org/2000/svg" width="960" height="600" viewBox="0 0 960 600"><rect width="960" height="600" fill="#6aa03c"/><polygon points="1196,96 1178,100 1154,129 1196,142 1331,286 1351,313 1364,417 1394,441 1421,454 1458,436 1492,477 1543,528 1456,676 1403,676 1417,594 1402,570 1441,535 1431,518 1417,505 1378,483 1386,468 1345,436 1312,418 1284,477 1223,422 1170,415 1165,417 1156,441 1152,439 1172,389 1019,325 1029,309 1006,270 1012,203 1012,135 959,120 938,110 892,169 883,161 866,172 856,142 841,114 791,41 771,29 724,13 706,-20 702,-39 706,-64 734,-79 884,-84 890,-110 888,-135 872,-151 853,-157 812,-201 806,-217 882,-266 934,-260 983,-227 1043,-223 1040,-198 1045,-158 1054,-125 1075,-101 1098,-93 1097,-82 1103,-78 1124,-49 1155,-22 1218,24 1241,48 1196,96" fill="#4c8a2c" opacity="0.7"/><polygon points="730,202 756,181 767,185 845,308 866,290 879,271 877,219 828,118 781,45 727,26 712,15 696,-17 692,-38 691,-57 734,-79 810,-83 800,-165 770,-206 759,-198 733,-202 756,-231 734,-243 701,-247 679,-261 680,-298 638,-316 622,-327 608,-310 567,-327 578,-340 521,-387 479,-333 456,-347 463,-386 526,-454 514,-469 417,-370 378,-339 311,-322 469,-284 557,-214 557,-119 592,-79 641,-72 641,-55 572,33 601,102 636,157 688,189 730,202" fill="#4c8a2c" opacity="0.7"/><polygon points="329,100 322,70 302,32 359,4 405,48 470,47 488,58 569,131 444,282 418,244 343,182 338,134 341,117 329,100" fill="#4c8a2c" opacity="0.7"/><polygon points="374,405 377,393 392,379 407,378 415,382 424,393 501,523 548,573 596,607 749,657 757,663 829,687 837,686 1018,747 1031,756 1088,774 1096,788 1094,809 1089,813 1082,813 995,760 935,736 857,714 771,699 707,680 621,642 517,579 495,559 376,417 374,405" fill="#4c8a2c" opacity="0.7"/><polygon points="48,-170 50,-135 152,-47 165,-22 282,130 284,114 290,107 262,63 166,-52 111,-106 70,-154 48,-170" fill="#4c8a2c" opacity="0.7"/><polygon points="970,338 945,378 884,347 862,312 884,294 894,272 950,307 979,316 1004,349 997,361 970,338" fill="#4c8a2c" opacity="0.7"/><polygon points="323,243 260,306 293,325 329,361 356,329 382,306 323,243" fill="#4c8a2c" opacity="0.7"/><polygon points="525,184 558,144 561,146 599,124 630,164 644,174 609,228 525,184" fill="#4c8a2c" opacity="0.7"/><polygon points="599,127 629,168 642,175 608,225 530,183 558,149 599,127" fill="#4c8a2c" opacity="0.7"/><polygon points="585,469 601,510 569,521 557,508 414,299 424,288 436,296 430,306 512,412 556,489 585,469" fill="#4c8a2c" opacity="0.7"/><polygon points="421,362 401,333 391,339 379,322 389,315 385,311 361,335 366,342 349,353 348,364 332,374 337,379 360,368 389,344 391,346 376,362 399,356 409,357 419,364 421,362" fill="#4c8a2c" opacity="0.7"/><polygon points="538,158 502,191 481,167 515,130 538,158" fill="#4c8a2c" opacity="0.7"/><polygon points="518,38 497,61 471,44 441,44 482,13 518,38" fill="#4c8a2c" opacity="0.7"/><polygon points="149,171 140,186 218,233 227,218 149,171" fill="#4c8a2c" opacity="0.7"/><polygon points="553,49 570,86 591,113 598,102 567,34 553,49" fill="#4c8a2c" opacity="0.7"/><polygon points="644,141 628,144 636,157 688,189 732,200 688,185 687,167 644,141" fill="#4c8a2c" opacity="0.7"/><polygon points="390,138 371,112 361,105 365,125 370,130 373,138 377,141 383,137 386,140 390,138" fill="#2e7bb4"/><polygon points="853,323 876,358 1029,435 1031,439 881,365 874,360 851,325 853,323" fill="#2e7bb4"/><polyline points="1098,1210 546,882 -44,525" fill="none" stroke="#8a8f98" stroke-width="3" stroke-linecap="round"/><polyline points="984,1101 -26,495" fill="none" stroke="#8a8f98" stroke-width="3" stroke-linecap="round"/><polyline points="1036,1087 -6,461" fill="none" stroke="#8a8f98" stroke-width="3" stroke-linecap="round"/><polyline points="1157,1113 420,676 13,429" fill="none" stroke="#8a8f98" stroke-width="3" stroke-linecap="round"/><polyline points="348,400 355,408" fill="none" stroke="#8a8f98" stroke-width="8" stroke-linecap="round"/><polyline points="348,413 341,406" fill="none" stroke="#8a8f98" stroke-width="8" stroke-linecap="round"/><polyline points="258,530 34,396" fill="none" stroke="#8a8f98" stroke-width="3" stroke-linecap="round"/><polyline points="258,530 277,498" fill="none" stroke="#8a8f98" stroke-width="5" stroke-linecap="round"/><polyline points="343,475 308,455 303,455 300,460" fill="none" stroke="#8a8f98" stroke-width="3" stroke-linecap="round"/><polyline points="343,475 356,454 360,452 393,487" fill="none" stroke="#8a8f98" stroke-width="3" stroke-linecap="round"/><polyline points="355,408 348,413" fill="none" stroke="#8a8f98" stroke-width="13" stroke-linecap="round"/><polyline points="341,406 348,400" fill="none" stroke="#8a8f98" stroke-width="13" stroke-linecap="round"/><polyline points="329,476 339,482" fill="none" stroke="#8a8f98" stroke-width="5" stroke-linecap="round"/><polyline points="334,489 325,483" fill="none" stroke="#8a8f98" stroke-width="5" stroke-linecap="round"/><polyline points="339,482 347,487" fill="none" stroke="#8a8f98" stroke-width="5" stroke-linecap="round"/><polyline points="340,493 334,489" fill="none" stroke="#8a8f98" stroke-width="5" stroke-linecap="round"/><polyline points="355,408 364,419" fill="none" stroke="#8a8f98" stroke-width="8" stroke-linecap="round"/><polyline points="300,460 329,476" fill="none" stroke="#8a8f98" stroke-width="5" stroke-linecap="round"/><polyline points="245,427 300,460" fill="none" stroke="#8a8f98" stroke-width="5" stroke-linecap="round"/><polyline points="209,405 245,427" fill="none" stroke="#8a8f98" stroke-width="5" stroke-linecap="round"/><polyline points="441,640 258,530" fill="none" stroke="#8a8f98" stroke-width="3" stroke-linecap="round"/><polyline points="297,465 300,460" fill="none" stroke="#8a8f98" stroke-width="5" stroke-linecap="round"/><polyline points="238,565 258,530" fill="none" stroke="#8a8f98" stroke-width="5" stroke-linecap="round"/><polyline points="219,596 238,565" fill="none" stroke="#8a8f98" stroke-width="5" stroke-linecap="round"/><polyline points="199,630 219,596" fill="none" stroke="#8a8f98" stroke-width="5" stroke-linecap="round"/><polyline points="13,429 34,396" fill="none" stroke="#8a8f98" stroke-width="5" stroke-linecap="round"/><polyline points="-6,461 13,429" fill="none" stroke="#8a8f98" stroke-width="5" stroke-linecap="round"/><polyline points="175,672 -51,536" fill="none" stroke="#8a8f98" stroke-width="5" stroke-linecap="round"/><polyline points="402,473 348,413" fill="none" stroke="#8a8f98" stroke-width="8" stroke-linecap="round"/><polyline points="206,411 168,389" fill="none" stroke="#8a8f98" stroke-width="5" stroke-linecap="round"/><polyline points="242,432 206,411" fill="none" stroke="#8a8f98" stroke-width="5" stroke-linecap="round"/><polyline points="325,483 297,465" fill="none" stroke="#8a8f98" stroke-width="5" stroke-linecap="round"/><polyline points="277,498 297,465" fill="none" stroke="#8a8f98" stroke-width="5" stroke-linecap="round"/><polyline points="297,465 242,432" fill="none" stroke="#8a8f98" stroke-width="5" stroke-linecap="round"/><polyline points="348,400 387,368 398,365 408,366 419,370 427,379 447,414" fill="none" stroke="#8a8f98" stroke-width="13" stroke-linecap="round"/><polyline points="445,362 521,488" fill="none" stroke="#8a8f98" stroke-width="13" stroke-linecap="round"/><polyline points="515,493 434,369" fill="none" stroke="#8a8f98" stroke-width="13" stroke-linecap="round"/><polyline points="597,605 563,583 530,552 502,519 477,479 442,417" fill="none" stroke="#8a8f98" stroke-width="13" stroke-linecap="round"/><polyline points="447,414 483,472 547,521 607,575" fill="none" stroke="#8a8f98" stroke-width="13" stroke-linecap="round"/><polyline points="445,362 476,404 551,515 579,544 611,570 630,582 713,618" fill="none" stroke="#8a8f98" stroke-width="13" stroke-linecap="round"/><polyline points="347,487 470,590" fill="none" stroke="#8a8f98" stroke-width="5" stroke-linecap="round"/><polyline points="56,123 -168,-51" fill="none" stroke="#8a8f98" stroke-width="3" stroke-linecap="round"/><polyline points="30,160 -185,33 -207,18 -213,11 -210,-2 -106,-123" fill="none" stroke="#8a8f98" stroke-width="3" stroke-linecap="round"/><polyline points="1030,802 971,770 910,746 853,732 777,719 721,704 682,690 610,655 517,599 495,582 439,513 402,473" fill="none" stroke="#8a8f98" stroke-width="8" stroke-linecap="round"/><polyline points="442,417 421,381 415,377 399,374 380,382" fill="none" stroke="#8a8f98" stroke-width="13" stroke-linecap="round"/><polyline points="375,387 364,409 364,419" fill="none" stroke="#8a8f98" stroke-width="13" stroke-linecap="round"/><polyline points="2,307 -93,468" fill="none" stroke="#8a8f98" stroke-width="3" stroke-linecap="round"/><polyline points="41,331 -54,492" fill="none" stroke="#8a8f98" stroke-width="3" stroke-linecap="round"/><polyline points="530,533 517,519 508,503 434,369" fill="none" stroke="#8a8f98" stroke-width="13" stroke-linecap="round"/><polyline points="341,406 314,374 313,368" fill="none" stroke="#8a8f98" stroke-width="8" stroke-linecap="round"/><polyline points="313,368 321,370 348,400" fill="none" stroke="#8a8f98" stroke-width="8" stroke-linecap="round"/><polyline points="364,419 444,507 501,575 522,592 614,647 685,682 724,696 779,711 881,729 912,738 965,757" fill="none" stroke="#8a8f98" stroke-width="8" stroke-linecap="round"/><polyline points="171,384 209,405" fill="none" stroke="#8a8f98" stroke-width="5" stroke-linecap="round"/><polyline points="277,498 54,362" fill="none" stroke="#8a8f98" stroke-width="3" stroke-linecap="round"/><polyline points="300,354 262,423" fill="none" stroke="#8a8f98" stroke-width="3" stroke-linecap="round"/><polyline points="251,348 276,362 278,367 245,427" fill="none" stroke="#8a8f98" stroke-width="3" stroke-linecap="round"/><polyline points="375,387 355,408" fill="none" stroke="#8a8f98" stroke-width="13" stroke-linecap="round"/><polyline points="441,640 465,599" fill="none" stroke="#8a8f98" stroke-width="5" stroke-linecap="round"/><polyline points="465,599 340,493" fill="none" stroke="#8a8f98" stroke-width="5" stroke-linecap="round"/><polyline points="-129,91 47,197" fill="none" stroke="#8a8f98" stroke-width="8" stroke-linecap="round"/><polyline points="484,-64 438,-36 432,-27 389,-5 378,4" fill="none" stroke="#8a8f98" stroke-width="3" stroke-linecap="round"/><polyline points="-149,190 86,332" fill="none" stroke="#8a8f98" stroke-width="5" stroke-linecap="round"/><polyline points="34,396 55,360" fill="none" stroke="#8a8f98" stroke-width="5" stroke-linecap="round"/><polyline points="465,277 453,292" fill="none" stroke="#8a8f98" stroke-width="5" stroke-linecap="round"/><polyline points="168,389 84,339" fill="none" stroke="#8a8f98" stroke-width="5" stroke-linecap="round"/><polyline points="459,56 464,53 470,54 471,64 461,65 459,56" fill="none" stroke="#8a8f98" stroke-width="3" stroke-linecap="round"/><polyline points="504,-449 479,-419 448,-389 440,-372 432,-342 434,-330 443,-322 473,-317 478,-313 491,-277 507,-265 522,-260 533,-259 548,-261 575,-273 584,-274 594,-269 599,-263 598,-255 587,-194 567,-140 571,-118 581,-97 602,-81 628,-74 665,-101 680,-103 692,-100 702,-93 702,-80 697,-39 700,-21 719,14 732,22 771,34 784,44 819,92 837,123 880,212 885,249 884,270 880,282 871,294 842,319 834,332 811,390 772,477 743,559" fill="none" stroke="#8a8f98" stroke-width="8" stroke-linecap="round"/><polyline points="487,316 464,301" fill="none" stroke="#8a8f98" stroke-width="8" stroke-linecap="round"/><polyline points="173,23 154,10 143,12 134,17" fill="none" stroke="#8a8f98" stroke-width="13" stroke-linecap="round"/><polyline points="150,168 231,217" fill="none" stroke="#8a8f98" stroke-width="3" stroke-linecap="round"/><polyline points="306,235 308,240 269,274 260,266" fill="none" stroke="#8a8f98" stroke-width="3" stroke-linecap="round"/><polyline points="289,192 283,198 283,203 287,208 294,210 311,230 306,235" fill="none" stroke="#8a8f98" stroke-width="3" stroke-linecap="round"/><polyline points="265,184 270,171 261,160 228,135" fill="none" stroke="#8a8f98" stroke-width="3" stroke-linecap="round"/><polyline points="220,197 157,156" fill="none" stroke="#8a8f98" stroke-width="3" stroke-linecap="round"/><polyline points="434,369 387,300 328,226" fill="none" stroke="#8a8f98" stroke-width="13" stroke-linecap="round"/><polyline points="378,4 418,39" fill="none" stroke="#8a8f98" stroke-width="3" stroke-linecap="round"/><polyline points="114,45 173,89 177,96 174,105 110,195 101,199 95,198 30,160" fill="none" stroke="#8a8f98" stroke-width="3" stroke-linecap="round"/><polyline points="84,263 90,240 89,232 84,225" fill="none" stroke="#8a8f98" stroke-width="8" stroke-linecap="round"/><polyline points="143,261 121,256 99,269" fill="none" stroke="#8a8f98" stroke-width="8" stroke-linecap="round"/><polyline points="-5,222 -2,237 5,248 54,274 71,274 84,263" fill="none" stroke="#8a8f98" stroke-width="5" stroke-linecap="round"/><polyline points="99,269 87,286 79,291 66,295 55,293 -46,237 -52,230 -55,212" fill="none" stroke="#8a8f98" stroke-width="5" stroke-linecap="round"/><polyline points="398,294 417,277" fill="none" stroke="#8a8f98" stroke-width="13" stroke-linecap="round"/><polyline points="176,123 265,184" fill="none" stroke="#8a8f98" stroke-width="3" stroke-linecap="round"/><polyline points="234,125 191,99" fill="none" stroke="#8a8f98" stroke-width="3" stroke-linecap="round"/><polyline points="227,185 168,147" fill="none" stroke="#8a8f98" stroke-width="3" stroke-linecap="round"/><polyline points="308,100 310,86 302,67 285,37 264,8" fill="none" stroke="#8a8f98" stroke-width="8" stroke-linecap="round"/><polyline points="432,279 426,284" fill="none" stroke="#8a8f98" stroke-width="13" stroke-linecap="round"/><polyline points="147,-28 231,83" fill="none" stroke="#8a8f98" stroke-width="13" stroke-linecap="round"/><polyline points="223,88 225,83 231,83" fill="none" stroke="#8a8f98" stroke-width="13" stroke-linecap="round"/><polyline points="253,126 223,88" fill="none" stroke="#8a8f98" stroke-width="13" stroke-linecap="round"/><polyline points="260,123 297,172" fill="none" stroke="#8a8f98" stroke-width="13" stroke-linecap="round"/><polyline points="297,172 309,186" fill="none" stroke="#8a8f98" stroke-width="13" stroke-linecap="round"/><polyline points="321,201 335,217" fill="none" stroke="#8a8f98" stroke-width="13" stroke-linecap="round"/><polyline points="398,294 445,362" fill="none" stroke="#8a8f98" stroke-width="13" stroke-linecap="round"/><polyline points="290,177 253,126" fill="none" stroke="#8a8f98" stroke-width="13" stroke-linecap="round"/><polyline points="327,224 304,195" fill="none" stroke="#8a8f98" stroke-width="13" stroke-linecap="round"/><polyline points="320,97 304,124 303,134 307,144 339,188" fill="none" stroke="#8a8f98" stroke-width="8" stroke-linecap="round"/><polyline points="84,339 55,360" fill="none" stroke="#8a8f98" stroke-width="5" stroke-linecap="round"/><polyline points="114,45 30,160" fill="none" stroke="#8a8f98" stroke-width="3" stroke-linecap="round"/><polyline points="426,284 417,277" fill="none" stroke="#8a8f98" stroke-width="8" stroke-linecap="round"/><polyline points="449,296 426,284" fill="none" stroke="#8a8f98" stroke-width="8" stroke-linecap="round"/><polyline points="432,279 453,292" fill="none" stroke="#8a8f98" stroke-width="8" stroke-linecap="round"/><polyline points="421,273 432,279" fill="none" stroke="#8a8f98" stroke-width="8" stroke-linecap="round"/><polyline points="417,277 421,273" fill="none" stroke="#8a8f98" stroke-width="13" stroke-linecap="round"/><polyline points="426,284 406,304" fill="none" stroke="#8a8f98" stroke-width="13" stroke-linecap="round"/><polyline points="453,292 449,296" fill="none" stroke="#8a8f98" stroke-width="5" stroke-linecap="round"/><polyline points="231,83 260,123" fill="none" stroke="#8a8f98" stroke-width="13" stroke-linecap="round"/><polyline points="41,331 2,307" fill="none" stroke="#8a8f98" stroke-width="5" stroke-linecap="round"/><polyline points="55,360 59,344 41,331" fill="none" stroke="#8a8f98" stroke-width="5" stroke-linecap="round"/><polyline points="226,335 200,379" fill="none" stroke="#8a8f98" stroke-width="3" stroke-linecap="round"/><polyline points="123,274 160,294" fill="none" stroke="#8a8f98" stroke-width="3" stroke-linecap="round"/><polyline points="84,225 67,214" fill="none" stroke="#8a8f98" stroke-width="8" stroke-linecap="round"/><polyline points="188,282 175,280 143,261" fill="none" stroke="#8a8f98" stroke-width="8" stroke-linecap="round"/><polyline points="120,237 179,273 188,282" fill="none" stroke="#8a8f98" stroke-width="8" stroke-linecap="round"/><polyline points="199,289 233,307" fill="none" stroke="#8a8f98" stroke-width="8" stroke-linecap="round"/><polyline points="115,244 103,236" fill="none" stroke="#8a8f98" stroke-width="8" stroke-linecap="round"/><polyline points="150,-6 134,17" fill="none" stroke="#8a8f98" stroke-width="13" stroke-linecap="round"/><polyline points="380,382 375,387" fill="none" stroke="#8a8f98" stroke-width="13" stroke-linecap="round"/><polyline points="282,340 300,354" fill="none" stroke="#8a8f98" stroke-width="8" stroke-linecap="round"/><polyline points="173,23 150,-6" fill="none" stroke="#8a8f98" stroke-width="13" stroke-linecap="round"/><polyline points="223,88 173,23" fill="none" stroke="#8a8f98" stroke-width="13" stroke-linecap="round"/><polyline points="84,263 103,236" fill="none" stroke="#8a8f98" stroke-width="5" stroke-linecap="round"/><polyline points="103,236 84,225" fill="none" stroke="#8a8f98" stroke-width="8" stroke-linecap="round"/><polyline points="103,236 107,230" fill="none" stroke="#8a8f98" stroke-width="5" stroke-linecap="round"/><polyline points="115,244 99,269" fill="none" stroke="#8a8f98" stroke-width="5" stroke-linecap="round"/><polyline points="120,237 115,244" fill="none" stroke="#8a8f98" stroke-width="5" stroke-linecap="round"/><polyline points="143,261 115,244" fill="none" stroke="#8a8f98" stroke-width="8" stroke-linecap="round"/><polyline points="107,230 112,232" fill="none" stroke="#8a8f98" stroke-width="8" stroke-linecap="round"/><polyline points="47,197 57,198 107,230" fill="none" stroke="#8a8f98" stroke-width="8" stroke-linecap="round"/><polyline points="300,354 313,368" fill="none" stroke="#8a8f98" stroke-width="8" stroke-linecap="round"/><polyline points="300,189 290,177" fill="none" stroke="#8a8f98" stroke-width="13" stroke-linecap="round"/><polyline points="304,195 300,189" fill="none" stroke="#8a8f98" stroke-width="13" stroke-linecap="round"/><polyline points="188,282 199,289" fill="none" stroke="#8a8f98" stroke-width="8" stroke-linecap="round"/><polyline points="346,104 349,90 354,82 410,51 435,48 460,55" fill="none" stroke="#8a8f98" stroke-width="3" stroke-linecap="round"/><polyline points="339,188 379,237 411,264" fill="none" stroke="#8a8f98" stroke-width="8" stroke-linecap="round"/><polyline points="384,252 359,227 334,194" fill="none" stroke="#8a8f98" stroke-width="8" stroke-linecap="round"/><polyline points="91,335 171,384" fill="none" stroke="#8a8f98" stroke-width="5" stroke-linecap="round"/><polyline points="86,332 91,335" fill="none" stroke="#8a8f98" stroke-width="5" stroke-linecap="round"/><polyline points="2,307 -37,283" fill="none" stroke="#8a8f98" stroke-width="5" stroke-linecap="round"/><polyline points="219,388 242,351 251,348" fill="none" stroke="#8a8f98" stroke-width="3" stroke-linecap="round"/><polyline points="264,8 204,-52" fill="none" stroke="#8a8f98" stroke-width="8" stroke-linecap="round"/><polyline points="208,-56 285,21" fill="none" stroke="#8a8f98" stroke-width="8" stroke-linecap="round"/><polyline points="160,294 226,335" fill="none" stroke="#8a8f98" stroke-width="3" stroke-linecap="round"/><polyline points="180,369 136,344 134,340" fill="none" stroke="#8a8f98" stroke-width="3" stroke-linecap="round"/><polyline points="377,268 398,294" fill="none" stroke="#8a8f98" stroke-width="13" stroke-linecap="round"/><polyline points="335,217 377,268" fill="none" stroke="#8a8f98" stroke-width="13" stroke-linecap="round"/><polyline points="411,264 421,273" fill="none" stroke="#8a8f98" stroke-width="8" stroke-linecap="round"/><polyline points="280,7 281,-1 241,-45" fill="none" stroke="#8a8f98" stroke-width="3" stroke-linecap="round"/><polyline points="84,339 -12,281" fill="none" stroke="#8a8f98" stroke-width="5" stroke-linecap="round"/><polyline points="91,335 84,339" fill="none" stroke="#8a8f98" stroke-width="5" stroke-linecap="round"/><polyline points="79,291 63,318" fill="none" stroke="#8a8f98" stroke-width="5" stroke-linecap="round"/><polyline points="285,21 316,74 320,90 320,97" fill="none" stroke="#8a8f98" stroke-width="8" stroke-linecap="round"/><polyline points="334,194 297,146 292,137 293,120 308,100" fill="none" stroke="#8a8f98" stroke-width="8" stroke-linecap="round"/><polyline points="390,304 348,342 340,333" fill="none" stroke="#8a8f98" stroke-width="3" stroke-linecap="round"/><polyline points="349,173 343,140 346,104" fill="none" stroke="#8a8f98" stroke-width="3" stroke-linecap="round"/><polyline points="346,104 336,86 335,71 340,60 329,34" fill="none" stroke="#8a8f98" stroke-width="3" stroke-linecap="round"/><polyline points="314,118 322,129 316,142 320,154 343,182" fill="none" stroke="#8a8f98" stroke-width="3" stroke-linecap="round"/><polyline points="309,186 321,201" fill="none" stroke="#8a8f98" stroke-width="13" stroke-linecap="round"/><polyline points="417,277 384,252" fill="none" stroke="#8a8f98" stroke-width="8" stroke-linecap="round"/><polyline points="233,307 282,340" fill="none" stroke="#8a8f98" stroke-width="8" stroke-linecap="round"/><polyline points="38,-13 114,45" fill="none" stroke="#8a8f98" stroke-width="3" stroke-linecap="round"/><polyline points="115,234 120,237" fill="none" stroke="#8a8f98" stroke-width="8" stroke-linecap="round"/><polyline points="112,232 115,234" fill="none" stroke="#8a8f98" stroke-width="8" stroke-linecap="round"/><polyline points="328,226 327,224" fill="none" stroke="#8a8f98" stroke-width="13" stroke-linecap="round"/><polyline points="276,201 243,233" fill="none" stroke="#8a8f98" stroke-width="3" stroke-linecap="round"/><polyline points="317,292 355,335" fill="none" stroke="#8a8f98" stroke-width="3" stroke-linecap="round"/><polyline points="86,332 106,295" fill="none" stroke="#8a8f98" stroke-width="3" stroke-linecap="round"/><polyline points="64,240 77,236 79,246 65,262" fill="none" stroke="#8a8f98" stroke-width="3" stroke-linecap="round"/><polyline points="67,214 52,205 47,197" fill="none" stroke="#8a8f98" stroke-width="8" stroke-linecap="round"/><polyline points="453,292 460,296 464,301" fill="none" stroke="#8a8f98" stroke-width="8" stroke-linecap="round"/><polyline points="464,301 458,301 449,296" fill="none" stroke="#8a8f98" stroke-width="8" stroke-linecap="round"/><polyline points="705,637 636,615 609,602 561,566 544,550" fill="none" stroke="#8a8f98" stroke-width="13" stroke-linecap="round"/><polyline points="868,434 884,445" fill="none" stroke="#8a8f98" stroke-width="5" stroke-linecap="round"/><polyline points="971,645 987,631 990,617 985,601 967,584 958,566 957,550 967,522" fill="none" stroke="#8a8f98" stroke-width="5" stroke-linecap="round"/><polyline points="861,442 813,498" fill="none" stroke="#8a8f98" stroke-width="5" stroke-linecap="round"/><polyline points="898,453 940,401" fill="none" stroke="#8a8f98" stroke-width="5" stroke-linecap="round"/><polyline points="937,515 909,546" fill="none" stroke="#8a8f98" stroke-width="5" stroke-linecap="round"/><polyline points="937,515 913,506 897,482 891,481 885,482 860,513" fill="none" stroke="#8a8f98" stroke-width="5" stroke-linecap="round"/><polyline points="552,535 593,575 617,591 693,622 783,649" fill="none" stroke="#8a8f98" stroke-width="13" stroke-linecap="round"/><polyline points="743,559 744,569 737,582" fill="none" stroke="#8a8f98" stroke-width="10" stroke-linecap="round"/><polyline points="762,629 778,593 824,526 852,549" fill="none" stroke="#8a8f98" stroke-width="3" stroke-linecap="round"/><polyline points="828,647 843,622 880,576 904,554" fill="none" stroke="#8a8f98" stroke-width="3" stroke-linecap="round"/><polyline points="848,654 897,584" fill="none" stroke="#8a8f98" stroke-width="3" stroke-linecap="round"/><polyline points="693,515 747,441 751,428 749,422" fill="none" stroke="#8a8f98" stroke-width="5" stroke-linecap="round"/><polyline points="629,411 610,438 583,464 565,449" fill="none" stroke="#8a8f98" stroke-width="3" stroke-linecap="round"/><polyline points="711,566 716,579" fill="none" stroke="#8a8f98" stroke-width="8" stroke-linecap="round"/><polyline points="544,550 530,533" fill="none" stroke="#8a8f98" stroke-width="13" stroke-linecap="round"/><polyline points="715,603 710,587" fill="none" stroke="#8a8f98" stroke-width="8" stroke-linecap="round"/><polyline points="716,579 716,581" fill="none" stroke="#8a8f98" stroke-width="8" stroke-linecap="round"/><polyline points="710,587 709,584" fill="none" stroke="#8a8f98" stroke-width="8" stroke-linecap="round"/><polyline points="717,584 721,600" fill="none" stroke="#8a8f98" stroke-width="8" stroke-linecap="round"/><polyline points="649,707 465,599" fill="none" stroke="#8a8f98" stroke-width="5" stroke-linecap="round"/><polyline points="689,520 693,515" fill="none" stroke="#8a8f98" stroke-width="5" stroke-linecap="round"/><polyline points="709,582 704,568" fill="none" stroke="#8a8f98" stroke-width="8" stroke-linecap="round"/><polyline points="693,515 704,547" fill="none" stroke="#8a8f98" stroke-width="8" stroke-linecap="round"/><polyline points="762,521 759,519" fill="none" stroke="#8a8f98" stroke-width="5" stroke-linecap="round"/><polyline points="751,548 779,572" fill="none" stroke="#8a8f98" stroke-width="5" stroke-linecap="round"/><polyline points="613,490 601,457 644,423" fill="none" stroke="#8a8f98" stroke-width="3" stroke-linecap="round"/><polyline points="779,658 691,628 613,596 588,580 546,538" fill="none" stroke="#8a8f98" stroke-width="13" stroke-linecap="round"/><polyline points="465,599 470,590" fill="none" stroke="#8a8f98" stroke-width="5" stroke-linecap="round"/><polyline points="470,590 629,686" fill="none" stroke="#8a8f98" stroke-width="5" stroke-linecap="round"/><polyline points="814,392 868,434" fill="none" stroke="#8a8f98" stroke-width="5" stroke-linecap="round"/><polyline points="749,422 733,403" fill="none" stroke="#8a8f98" stroke-width="5" stroke-linecap="round"/><polyline points="967,522 937,515" fill="none" stroke="#8a8f98" stroke-width="5" stroke-linecap="round"/><polyline points="685,503 693,515" fill="none" stroke="#8a8f98" stroke-width="8" stroke-linecap="round"/><polyline points="685,503 674,475" fill="none" stroke="#8a8f98" stroke-width="8" stroke-linecap="round"/><polyline points="689,520 685,503" fill="none" stroke="#8a8f98" stroke-width="8" stroke-linecap="round"/><polyline points="644,423 629,411" fill="none" stroke="#8a8f98" stroke-width="8" stroke-linecap="round"/><polyline points="673,472 671,467" fill="none" stroke="#8a8f98" stroke-width="8" stroke-linecap="round"/><polyline points="898,453 932,463" fill="none" stroke="#8a8f98" stroke-width="5" stroke-linecap="round"/><polyline points="932,463 971,474" fill="none" stroke="#8a8f98" stroke-width="5" stroke-linecap="round"/><polyline points="629,411 613,401" fill="none" stroke="#8a8f98" stroke-width="8" stroke-linecap="round"/><polyline points="704,547 711,566" fill="none" stroke="#8a8f98" stroke-width="8" stroke-linecap="round"/><polyline points="693,534 689,520" fill="none" stroke="#8a8f98" stroke-width="8" stroke-linecap="round"/><polyline points="704,568 693,534" fill="none" stroke="#8a8f98" stroke-width="8" stroke-linecap="round"/><polyline points="884,445 898,453" fill="none" stroke="#8a8f98" stroke-width="5" stroke-linecap="round"/><polyline points="868,434 861,442" fill="none" stroke="#8a8f98" stroke-width="5" stroke-linecap="round"/><polyline points="798,419 806,422 792,449 786,446" fill="none" stroke="#8a8f98" stroke-width="3" stroke-linecap="round"/><polyline points="737,582 727,576" fill="none" stroke="#8a8f98" stroke-width="8" stroke-linecap="round"/><polyline points="737,582 730,600 739,628" fill="none" stroke="#8a8f98" stroke-width="10" stroke-linecap="round"/><polyline points="668,460 649,468" fill="none" stroke="#8a8f98" stroke-width="5" stroke-linecap="round"/><polyline points="546,538 515,493" fill="none" stroke="#8a8f98" stroke-width="13" stroke-linecap="round"/><polyline points="521,488 552,535" fill="none" stroke="#8a8f98" stroke-width="13" stroke-linecap="round"/><polyline points="813,498 797,525 790,529 762,521" fill="none" stroke="#8a8f98" stroke-width="5" stroke-linecap="round"/><polyline points="743,559 731,574 716,581" fill="none" stroke="#8a8f98" stroke-width="8" stroke-linecap="round"/><polyline points="709,584 709,582" fill="none" stroke="#8a8f98" stroke-width="8" stroke-linecap="round"/><polyline points="716,581 717,584" fill="none" stroke="#8a8f98" stroke-width="8" stroke-linecap="round"/><polyline points="716,581 709,584" fill="none" stroke="#8a8f98" stroke-width="8" stroke-linecap="round"/><polyline points="811,390 814,392" fill="none" stroke="#8a8f98" stroke-width="5" stroke-linecap="round"/><polyline points="749,546 751,548" fill="none" stroke="#8a8f98" stroke-width="5" stroke-linecap="round"/><polyline points="692,442 680,422 704,406 715,425 692,442" fill="none" stroke="#8a8f98" stroke-width="3" stroke-linecap="round"/><polyline points="607,575 637,590 783,649" fill="none" stroke="#8a8f98" stroke-width="13" stroke-linecap="round"/><polyline points="674,475 673,472" fill="none" stroke="#8a8f98" stroke-width="8" stroke-linecap="round"/><polyline points="668,460 663,447 649,427" fill="none" stroke="#8a8f98" stroke-width="8" stroke-linecap="round"/><polyline points="671,467 668,460" fill="none" stroke="#8a8f98" stroke-width="8" stroke-linecap="round"/><polyline points="649,427 644,423" fill="none" stroke="#8a8f98" stroke-width="8" stroke-linecap="round"/><polyline points="613,401 598,391" fill="none" stroke="#8a8f98" stroke-width="8" stroke-linecap="round"/><polyline points="598,391 594,389" fill="none" stroke="#8a8f98" stroke-width="8" stroke-linecap="round"/><polyline points="585,398 538,441" fill="none" stroke="#8a8f98" stroke-width="3" stroke-linecap="round"/><polyline points="733,403 653,347 584,292" fill="none" stroke="#8a8f98" stroke-width="5" stroke-linecap="round"/><polyline points="733,403 748,376 750,357 744,327" fill="none" stroke="#8a8f98" stroke-width="5" stroke-linecap="round"/><polyline points="956,94 959,108 971,115 1020,114" fill="none" stroke="#8a8f98" stroke-width="3" stroke-linecap="round"/><polyline points="847,364 844,373 845,380 876,402" fill="none" stroke="#8a8f98" stroke-width="3" stroke-linecap="round"/><polyline points="895,361 1015,419" fill="none" stroke="#8a8f98" stroke-width="5" stroke-linecap="round"/><polyline points="563,368 531,399" fill="none" stroke="#8a8f98" stroke-width="3" stroke-linecap="round"/><polyline points="944,379 1014,413" fill="none" stroke="#8a8f98" stroke-width="3" stroke-linecap="round"/><polyline points="594,389 590,386" fill="none" stroke="#8a8f98" stroke-width="8" stroke-linecap="round"/><polyline points="841,121 852,123 882,137 892,137 901,129 912,108 923,97 933,94 956,94" fill="none" stroke="#8a8f98" stroke-width="5" stroke-linecap="round"/><polyline points="855,311 879,349 895,361" fill="none" stroke="#8a8f98" stroke-width="5" stroke-linecap="round"/><polyline points="598,111 632,161 661,181 702,198 721,203 727,207 781,296 798,311" fill="none" stroke="#8a8f98" stroke-width="5" stroke-linecap="round"/><polyline points="702,281 697,257 688,236" fill="none" stroke="#8a8f98" stroke-width="3" stroke-linecap="round"/><polyline points="515,279 473,269 465,277" fill="none" stroke="#8a8f98" stroke-width="5" stroke-linecap="round"/><polyline points="573,6 563,14 551,48 542,49" fill="none" stroke="#8a8f98" stroke-width="3" stroke-linecap="round"/><polyline points="897,250 891,211 885,190 886,182 895,179 915,185 931,183 945,175 966,153 973,161" fill="none" stroke="#8a8f98" stroke-width="3" stroke-linecap="round"/><polyline points="711,307 696,307 669,286" fill="none" stroke="#8a8f98" stroke-width="5" stroke-linecap="round"/><polyline points="695,280 695,283 712,300 711,307" fill="none" stroke="#8a8f98" stroke-width="5" stroke-linecap="round"/><polyline points="564,-8 573,6" fill="none" stroke="#8a8f98" stroke-width="5" stroke-linecap="round"/><polyline points="803,303 790,291 743,213 743,210 761,198" fill="none" stroke="#8a8f98" stroke-width="3" stroke-linecap="round"/><polyline points="799,376 783,364 778,337 784,321 798,311" fill="none" stroke="#8a8f98" stroke-width="3" stroke-linecap="round"/><polyline points="543,354 520,339" fill="none" stroke="#8a8f98" stroke-width="8" stroke-linecap="round"/><polyline points="830,330 834,332" fill="none" stroke="#8a8f98" stroke-width="5" stroke-linecap="round"/><polyline points="904,245 924,269 924,273 917,279" fill="none" stroke="#8a8f98" stroke-width="3" stroke-linecap="round"/><polyline points="853,308 855,311" fill="none" stroke="#8a8f98" stroke-width="5" stroke-linecap="round"/><polyline points="585,335 586,341 597,343 610,326 586,306 586,294" fill="none" stroke="#8a8f98" stroke-width="3" stroke-linecap="round"/><polyline points="702,281 695,280" fill="none" stroke="#8a8f98" stroke-width="5" stroke-linecap="round"/><polyline points="801,313 830,330" fill="none" stroke="#8a8f98" stroke-width="5" stroke-linecap="round"/><polyline points="798,311 801,313" fill="none" stroke="#8a8f98" stroke-width="5" stroke-linecap="round"/><polyline points="952,304 931,292 899,263 897,250" fill="none" stroke="#8a8f98" stroke-width="3" stroke-linecap="round"/><polyline points="956,94 966,72" fill="none" stroke="#8a8f98" stroke-width="5" stroke-linecap="round"/><polyline points="485,77 486,89 515,124" fill="none" stroke="#8a8f98" stroke-width="3" stroke-linecap="round"/><polyline points="485,77 492,74 500,76 564,134 569,135" fill="none" stroke="#8a8f98" stroke-width="3" stroke-linecap="round"/><polyline points="744,327 735,301 702,281" fill="none" stroke="#8a8f98" stroke-width="5" stroke-linecap="round"/><polyline points="637,219 649,225 672,257 694,280" fill="none" stroke="#8a8f98" stroke-width="3" stroke-linecap="round"/><polyline points="895,361 913,321 925,326 911,357 899,351" fill="none" stroke="#8a8f98" stroke-width="3" stroke-linecap="round"/><polyline points="750,361 759,377 766,381 766,385 762,388 756,384 759,377" fill="none" stroke="#8a8f98" stroke-width="3" stroke-linecap="round"/><polyline points="472,269 512,225" fill="none" stroke="#8a8f98" stroke-width="3" stroke-linecap="round"/><polyline points="512,225 565,241" fill="none" stroke="#8a8f98" stroke-width="3" stroke-linecap="round"/><polyline points="565,241 543,284" fill="none" stroke="#8a8f98" stroke-width="3" stroke-linecap="round"/><polyline points="1000,342 980,314 952,304" fill="none" stroke="#8a8f98" stroke-width="3" stroke-linecap="round"/><polyline points="837,123 841,121" fill="none" stroke="#8a8f98" stroke-width="5" stroke-linecap="round"/><polyline points="563,368 543,354" fill="none" stroke="#8a8f98" stroke-width="8" stroke-linecap="round"/><polyline points="580,380 563,368" fill="none" stroke="#8a8f98" stroke-width="8" stroke-linecap="round"/><polyline points="520,339 508,330" fill="none" stroke="#8a8f98" stroke-width="8" stroke-linecap="round"/><polyline points="502,327 487,316" fill="none" stroke="#8a8f98" stroke-width="8" stroke-linecap="round"/><polyline points="508,330 502,327" fill="none" stroke="#8a8f98" stroke-width="8" stroke-linecap="round"/><polyline points="590,386 580,380" fill="none" stroke="#8a8f98" stroke-width="8" stroke-linecap="round"/><polygon points="-5,222 -9,220 -23,224 -26,216 -42,220 -61,208 -63,204 -79,208 -81,201 -108,205 -110,199 -115,200 -132,191 -134,186 -96,176 -95,180 -86,177 -85,182 -68,177 -47,189 -46,194 -18,186 16,206 35,202 40,211 54,211 58,225 8,237 5,229 -5,222" fill="#c8c2b8" stroke="#00000033"/><polygon points="-151,-46 55,106 65,93 -140,-60 -151,-46" fill="#c8c2b8" stroke="#00000033"/><polygon points="90,-46 71,-22 62,-29 52,-17 114,30 136,0 116,-15 119,-18 100,-32 103,-36 90,-46" fill="#c8c2b8" stroke="#00000033"/><polygon points="469,-49 441,-33 444,-27 410,-8 419,3 422,0 430,14 435,12 439,20 446,16 452,27 469,18 465,11 478,-32 475,-36 482,-40 469,-49" fill="#c8c2b8" stroke="#00000033"/><polygon points="504,-36 560,16 539,39 519,19 521,17 510,7 508,9 483,-13 504,-36" fill="#c8c2b8" stroke="#00000033"/><polygon points="887,536 818,604 837,622 901,551 887,536" fill="#c8c2b8" stroke="#00000033"/><polygon points="143,208 150,211 152,208 220,248 208,269 139,229 141,225 135,221 133,214 137,209 143,208" fill="#c8c2b8" stroke="#00000033"/><polygon points="-1,-26 -33,18 -4,39 27,-4 -1,-26" fill="#c8c2b8" stroke="#00000033"/><polygon points="177,120 191,99 230,125 223,136 258,159 267,173 263,179 177,120" fill="#c8c2b8" stroke="#00000033"/><polygon points="277,203 302,235 269,266 242,237 277,203" fill="#c8c2b8" stroke="#00000033"/><polygon points="-167,-25 38,125 42,119 -163,-30 -167,-25" fill="#c8c2b8" stroke="#00000033"/><polygon points="99,76 150,114 165,94 115,56 99,76" fill="#c8c2b8" stroke="#00000033"/><polygon points="923,622 893,603 892,599 899,592 903,594 910,583 914,580 918,581 936,565 952,576 923,622" fill="#c8c2b8" stroke="#00000033"/><polygon points="139,25 127,45 180,85 188,75 152,23 139,25" fill="#c8c2b8" stroke="#00000033"/><polygon points="68,121 118,157 132,137 83,101 68,121" fill="#c8c2b8" stroke="#00000033"/><polygon points="84,97 135,134 148,116 99,79 84,97" fill="#c8c2b8" stroke="#00000033"/><polygon points="78,31 46,75 66,89 99,46 78,31" fill="#c8c2b8" stroke="#00000033"/><polygon points="143,305 157,313 153,320 159,324 162,320 166,320 163,318 167,310 171,312 175,307 184,311 175,327 187,334 194,321 216,334 205,348 176,330 169,342 160,336 162,327 152,322 145,335 131,327 143,305" fill="#c8c2b8" stroke="#00000033"/><polygon points="170,121 164,132 259,197 262,193 256,189 259,184 170,121" fill="#c8c2b8" stroke="#00000033"/><polygon points="890,374 908,385 900,398 891,393 895,385 891,383 889,395 892,398 885,408 845,377 857,349 866,352 865,356 873,372 869,374 862,364 859,373 883,390 885,373 890,374" fill="#c8c2b8" stroke="#00000033"/><polygon points="410,161 436,196 441,200 446,198 442,208 423,215 407,208 402,201 400,183 410,161" fill="#c8c2b8" stroke="#00000033"/><polygon points="956,641 953,644 927,628 935,615 953,627 961,614 943,602 951,590 975,605 978,619 970,631 956,641" fill="#c8c2b8" stroke="#00000033"/><polygon points="48,149 97,185 109,169 61,133 48,149" fill="#c8c2b8" stroke="#00000033"/><polygon points="523,39 508,53 547,94 562,81 523,39" fill="#c8c2b8" stroke="#00000033"/><polygon points="40,2 7,47 24,59 56,14 40,2" fill="#c8c2b8" stroke="#00000033"/><polygon points="59,17 27,61 44,73 75,29 59,17" fill="#c8c2b8" stroke="#00000033"/><polygon points="732,479 748,493 730,539 714,500 732,479" fill="#c8c2b8" stroke="#00000033"/><polygon points="948,408 964,420 935,457 919,444 948,408" fill="#c8c2b8" stroke="#00000033"/><polygon points="517,198 515,207 521,209 520,213 513,211 511,220 553,230 556,221 552,220 553,216 557,217 559,208 517,198" fill="#c8c2b8" stroke="#00000033"/><polygon points="924,361 933,343 926,340 934,324 961,337 942,370 924,361" fill="#c8c2b8" stroke="#00000033"/><polygon points="346,45 338,24 361,14 371,23 375,33 364,38 369,50 353,57 346,45" fill="#c8c2b8" stroke="#00000033"/><polygon points="611,330 667,370 660,381 603,341 611,330" fill="#c8c2b8" stroke="#00000033"/><polygon points="789,627 770,618 789,579 808,588 789,627" fill="#c8c2b8" stroke="#00000033"/><polygon points="886,578 839,636 848,646 894,585 886,578" fill="#c8c2b8" stroke="#00000033"/><polygon points="859,551 824,521 836,506 871,537 859,551" fill="#c8c2b8" stroke="#00000033"/><polygon points="634,565 681,564 689,590 683,592 635,570 634,565" fill="#c8c2b8" stroke="#00000033"/><polygon points="126,300 116,294 124,281 146,295 139,307 128,301 125,305 135,311 126,326 120,322 118,326 106,316 115,300 124,303 126,300" fill="#c8c2b8" stroke="#00000033"/><polygon points="684,250 692,259 671,277 632,228 640,222 670,262 684,250" fill="#c8c2b8" stroke="#00000033"/><polygon points="711,503 698,520 712,556 728,550 711,503" fill="#c8c2b8" stroke="#00000033"/><polygon points="786,245 794,250 792,253 799,260 797,265 806,269 804,273 814,282 807,294 794,286 795,283 788,279 790,275 784,272 786,270 776,260 786,245" fill="#c8c2b8" stroke="#00000033"/><polygon points="599,414 565,444 580,454 612,424 599,414" fill="#c8c2b8" stroke="#00000033"/><polygon points="810,581 798,572 827,532 839,541 810,581" fill="#c8c2b8" stroke="#00000033"/><polygon points="789,319 780,337 786,364 802,373 808,361 799,356 795,336 799,327 789,319" fill="#c8c2b8" stroke="#00000033"/><polygon points="564,86 547,101 565,124 584,108 564,86" fill="#c8c2b8" stroke="#00000033"/><polygon points="732,323 716,346 692,329 701,317 714,327 718,322 712,318 718,309 731,318 729,321 732,323" fill="#c8c2b8" stroke="#00000033"/><polygon points="648,291 658,280 664,286 652,299 648,295 645,299 610,272 607,266 624,248 630,254 617,268 648,291" fill="#c8c2b8" stroke="#00000033"/><polygon points="567,302 559,315 597,339 605,326 567,302" fill="#c8c2b8" stroke="#00000033"/><polygon points="643,201 601,261 594,256 635,196 643,201" fill="#c8c2b8" stroke="#00000033"/><polygon points="505,251 514,253 509,275 498,270 498,272 489,270 490,264 488,269 479,267 484,245 494,247 492,252 501,254 501,258 504,258 505,251" fill="#c8c2b8" stroke="#00000033"/><polygon points="397,494 390,501 430,547 438,541 397,494" fill="#c8c2b8" stroke="#00000033"/><polygon points="938,187 980,224 973,232 931,195 938,187" fill="#c8c2b8" stroke="#00000033"/><polygon points="239,364 233,374 237,376 231,386 242,392 245,388 256,394 265,379 239,364" fill="#c8c2b8" stroke="#00000033"/><polygon points="192,94 233,122 235,119 202,79 192,94" fill="#c8c2b8" stroke="#00000033"/><polygon points="591,542 608,537 607,533 621,532 617,524 613,526 616,522 614,516 585,524 591,542" fill="#c8c2b8" stroke="#00000033"/><polygon points="385,5 394,-1 432,35 426,42 385,5" fill="#c8c2b8" stroke="#00000033"/><polygon points="700,317 692,328 680,319 683,315 681,313 678,318 669,311 672,307 670,305 666,310 658,304 666,293 700,317" fill="#c8c2b8" stroke="#00000033"/><polygon points="605,543 609,554 614,552 619,561 638,555 629,532 618,536 621,543 616,545 614,539 605,543" fill="#c8c2b8" stroke="#00000033"/><polygon points="17,114 5,131 25,145 37,128 17,114" fill="#c8c2b8" stroke="#00000033"/><polygon points="509,285 478,277 474,291 506,299 509,285" fill="#c8c2b8" stroke="#00000033"/><polygon points="369,467 357,478 376,499 388,488 369,467" fill="#c8c2b8" stroke="#00000033"/><polygon points="663,211 685,247 676,252 654,216 663,211" fill="#c8c2b8" stroke="#00000033"/><polygon points="910,212 944,259 938,263 904,217 910,212" fill="#c8c2b8" stroke="#00000033"/><polygon points="542,276 540,299 555,303 557,291 560,292 563,281 542,276" fill="#c8c2b8" stroke="#00000033"/><polygon points="648,541 650,548 655,547 659,557 673,552 674,554 679,553 671,531 662,535 665,542 660,543 658,537 648,541" fill="#c8c2b8" stroke="#00000033"/><polygon points="756,225 751,222 753,219 750,217 758,204 761,206 763,204 770,208 767,213 776,221 766,233 756,225" fill="#c8c2b8" stroke="#00000033"/><polygon points="637,538 635,528 633,528 631,523 657,515 659,520 662,520 664,526 654,529 654,533 637,538" fill="#c8c2b8" stroke="#00000033"/><polygon points="-3,100 -15,116 2,128 14,112 -3,100" fill="#c8c2b8" stroke="#00000033"/><polygon points="325,255 332,249 361,283 354,289 325,255" fill="#c8c2b8" stroke="#00000033"/><polygon points="727,449 710,473 704,472 700,460 696,462 695,459 704,450 713,455 720,444 727,449" fill="#c8c2b8" stroke="#00000033"/><polygon points="218,284 225,271 248,285 240,298 218,284" fill="#c8c2b8" stroke="#00000033"/><polygon points="977,368 984,372 982,378 975,376 975,379 979,381 977,386 953,374 956,369 962,371 961,367 956,366 959,360 977,368" fill="#c8c2b8" stroke="#00000033"/><polygon points="685,383 693,388 686,397 681,393 676,401 664,393 669,385 666,383 672,374 683,382 680,390 685,383" fill="#c8c2b8" stroke="#00000033"/><polygon points="419,138 437,124 447,137 428,151 419,138" fill="#c8c2b8" stroke="#00000033"/><polygon points="498,226 494,244 506,244 505,247 514,249 518,229 511,227 510,231 498,226" fill="#c8c2b8" stroke="#00000033"/><polygon points="556,450 545,458 561,479 572,470 556,450" fill="#c8c2b8" stroke="#00000033"/><polygon points="574,340 565,355 582,366 591,350 574,340" fill="#c8c2b8" stroke="#00000033"/><polygon points="389,141 377,150 386,161 390,159 395,166 406,158 389,141" fill="#c8c2b8" stroke="#00000033"/><polygon points="550,326 541,341 558,351 567,336 550,326" fill="#c8c2b8" stroke="#00000033"/><polygon points="481,181 490,193 472,207 463,195 481,181" fill="#c8c2b8" stroke="#00000033"/><polygon points="519,413 531,427 545,414 533,401 519,413" fill="#c8c2b8" stroke="#00000033"/><polygon points="374,14 379,8 413,38 409,43 374,14" fill="#c8c2b8" stroke="#00000033"/><polygon points="764,358 780,375 770,384 754,367 764,358" fill="#c8c2b8" stroke="#00000033"/><polygon points="554,383 540,395 551,408 565,395 554,383" fill="#c8c2b8" stroke="#00000033"/><polygon points="274,415 268,426 290,439 296,429 274,415" fill="#c8c2b8" stroke="#00000033"/><polygon points="704,350 718,361 708,374 694,364 704,350" fill="#c8c2b8" stroke="#00000033"/><polygon points="238,251 247,243 263,260 254,269 238,251" fill="#c8c2b8" stroke="#00000033"/><polygon points="536,308 526,322 537,331 544,323 546,313 541,306 536,308" fill="#c8c2b8" stroke="#00000033"/><polygon points="402,246 385,234 384,229 389,222 408,237 402,246" fill="#c8c2b8" stroke="#00000033"/><polygon points="318,444 314,451 343,468 347,461 318,444" fill="#c8c2b8" stroke="#00000033"/><polygon points="288,415 294,406 312,417 302,433 299,431 302,424 288,415" fill="#c8c2b8" stroke="#00000033"/><polyline points="860,640 779,572 749,546 738,567 716,581 693,515 685,503 663,447 649,427 460,296 421,273 381,239 304,139 304,124 320,97" fill="none" stroke="#ffdd44" stroke-width="6" opacity="0.85"/><circle cx="860" cy="640" r="10" fill="#a0f"/><circle cx="320" cy="97" r="10" fill="#f00"/><path d="M838.6666666673082,583.3333333333354 L854.6666666673082,583.3333333333354 M846.6666666673082,575.3333333333354 L846.6666666673082,591.3333333333354" stroke="#0ff" stroke-width="2"/><path d="M372.000000000148,100.00000000000617 L388.000000000148,100.00000000000617 M380.000000000148,92.00000000000617 L380.000000000148,108.00000000000617" stroke="#0ff" stroke-width="2"/><rect x="833" y="552" width="22" height="16" fill="#b8c2cc" stroke="#333"/><rect x="773" y="504" width="22" height="16" fill="#b8c2cc" stroke="#333"/><rect x="737" y="456" width="22" height="16" fill="#b8c2cc" stroke="#333"/><rect x="617" y="492" width="22" height="16" fill="#b8c2cc" stroke="#333"/><rect x="653" y="552" width="22" height="16" fill="#b8c2cc" stroke="#333"/><rect x="557" y="492" width="22" height="16" fill="#b8c2cc" stroke="#333"/><rect x="749" y="396" width="22" height="16" fill="#b8c2cc" stroke="#333"/><rect x="689" y="420" width="22" height="16" fill="#b8c2cc" stroke="#333"/><rect x="665" y="336" width="22" height="16" fill="#b8c2cc" stroke="#333"/><rect x="557" y="420" width="22" height="16" fill="#b8c2cc" stroke="#333"/><rect x="497" y="384" width="22" height="16" fill="#b8c2cc" stroke="#333"/><rect x="557" y="252" width="22" height="16" fill="#b8c2cc" stroke="#333"/><rect x="605" y="300" width="22" height="16" fill="#b8c2cc" stroke="#333"/><rect x="449" y="228" width="22" height="16" fill="#b8c2cc" stroke="#333"/><rect x="377" y="336" width="22" height="16" fill="#b8c2cc" stroke="#333"/><rect x="437" y="168" width="22" height="16" fill="#b8c2cc" stroke="#333"/><rect x="317" y="312" width="22" height="16" fill="#b8c2cc" stroke="#333"/><rect x="281" y="264" width="22" height="16" fill="#b8c2cc" stroke="#333"/><text x="380" y="175" font-size="13" fill="#fff" text-anchor="middle" stroke="#000" stroke-width="0.4">Haw Par Villa</text><text x="522" y="75" font-size="13" fill="#fff" text-anchor="middle" stroke="#000" stroke-width="0.4">Ten Courts of Hell</text><text x="480" y="20" font-size="16" fill="#fff" text-anchor="middle">20: Haw Par Villa</text></svg>