<svg xmlns="http://www.w3.org/2000/svg" width="960" height="600" viewBox="0 0 960 600"><rect width="960" height="600" fill="#6aa03c"/><polygon points="785,106 747,256 741,316 742,351 874,293 944,327 948,337 880,368 868,385 875,406 851,416 841,392 792,417 837,530 910,501 923,529 932,523 952,532 1023,399 1073,340 1037,355 1009,395 959,376 976,335 965,324 949,281 952,247 964,238 993,144 1018,131 1017,88 1034,80 1021,55 983,61 948,168 932,174 785,106" fill="#4c8a2c" opacity="0.7"/><polygon points="1156,818 1163,816 1168,808 1138,790 1156,761 1193,783 1207,766 1284,721 1306,692 1312,676 1311,668 1302,656 1092,491 1078,481 1069,482 1059,488 1044,516 998,574 1001,583 949,648 941,676 943,689 952,703 1050,761 1062,757 1156,818" fill="#4c8a2c" opacity="0.7"/><polygon points="784,652 790,661 435,811 423,799 443,790 648,632 663,676 706,683 784,652" fill="#4c8a2c" opacity="0.7"/><polygon points="29,568 29,605 25,622 9,653 83,659 83,639 90,619 110,583 110,565 29,568" fill="#4c8a2c" opacity="0.7"/><polygon points="792,421 759,435 805,545 834,531 792,421" fill="#4c8a2c" opacity="0.7"/><polygon points="123,461 124,515 193,513 191,459 123,461" fill="#4c8a2c" opacity="0.7"/><polygon points="616,263 646,238 676,231 689,238 699,252 694,263 649,303 616,263" fill="#4c8a2c" opacity="0.7"/><polygon points="-237,321 -248,323 -263,336 -254,334 -189,345 -155,347 -4,337 1,339 1,331 -130,333 -182,331 -237,321" fill="#4c8a2c" opacity="0.7"/><polygon points="207,579 243,627 304,578 207,579" fill="#4c8a2c" opacity="0.7"/><polygon points="53,6 52,75 57,81 58,109 73,107 74,96 70,96 71,12 53,6" fill="#4c8a2c" opacity="0.7"/><polygon points="-17,2 34,2 35,62 -17,63 -17,2" fill="#9aa0a8"/><polygon points="467,561 502,534 529,569 494,596 467,561" fill="#9aa0a8"/><polygon points="588,-47 579,-42 586,-3 598,-1 605,-4 600,-45 588,-47" fill="#3d8b46" stroke="#fff"/><polygon points="384,650 367,627 354,637 371,660 384,650" fill="#3d8b46" stroke="#fff"/><polygon points="74,-25 65,-41 73,-46 83,-30 74,-25" fill="#3d8b46" stroke="#fff"/><polygon points="62,376 79,376 81,431 65,432 62,376" fill="#3ec6e8"/><polygon points="1000,303 1024,295 1035,324 1010,333 1000,303" fill="#3ec6e8"/><polygon points="719,121 728,121 732,-2 735,-7 735,-19 729,-15 722,-2 719,121" fill="#2e7bb4"/><polygon points="544,271 562,269 585,260 620,230 632,209 653,188 669,177 697,173 712,167 717,161 723,121 726,-1 730,-10 748,-17 836,-12 853,-17 868,-30 876,-44 882,-63 913,-204" fill="#2e7bb4"/><polygon points="449,250 449,257 544,276 543,267 519,265 449,250" fill="#2e7bb4"/><polygon points="593,246 593,258 623,233 640,206 662,185 672,180 709,173 717,167 723,159 726,135 718,134 715,153 708,164 694,169 666,173 650,184 634,199 617,226 593,246" fill="#2e7bb4"/><polygon points="790,-19 790,-9 838,-8 860,-16 872,-27 865,-32 842,-17 790,-19" fill="#2e7bb4"/><polyline points="801,590 793,579 784,573 752,558" fill="none" stroke="#8a8f98" stroke-width="10" stroke-linecap="round"/><polyline points="691,724 817,677 892,639 940,593 959,569 1019,480" fill="none" stroke="#8a8f98" stroke-width="13" stroke-linecap="round"/><polyline points="1029,487 1002,536 972,579 951,605 894,654 858,676 823,692 700,737" fill="none" stroke="#8a8f98" stroke-width="13" stroke-linecap="round"/><polyline points="196,111 189,91 191,70 206,53 218,49" fill="none" stroke="#8a8f98" stroke-width="3" stroke-linecap="round"/><polyline points="-29,600 -69,605 -81,626" fill="none" stroke="#8a8f98" stroke-width="3" stroke-linecap="round"/><polyline points="690,125 686,46" fill="none" stroke="#8a8f98" stroke-width="3" stroke-linecap="round"/><polyline points="673,125 668,54" fill="none" stroke="#8a8f98" stroke-width="3" stroke-linecap="round"/><polyline points="596,46 599,152 602,159 629,180" fill="none" stroke="#8a8f98" stroke-width="3" stroke-linecap="round"/><polyline points="576,171 579,120 577,84 557,-77" fill="none" stroke="#8a8f98" stroke-width="10" stroke-linecap="round"/><polyline points="783,523 780,538 773,550 765,556 752,558" fill="none" stroke="#8a8f98" stroke-width="10" stroke-linecap="round"/><polyline points="658,601 792,648" fill="none" stroke="#8a8f98" stroke-width="5" stroke-linecap="round"/><polyline points="801,170 775,180 748,202" fill="none" stroke="#8a8f98" stroke-width="3" stroke-linecap="round"/><polyline points="710,35 709,94" fill="none" stroke="#8a8f98" stroke-width="3" stroke-linecap="round"/><polyline points="732,375 786,351" fill="none" stroke="#8a8f98" stroke-width="3" stroke-linecap="round"/><polyline points="732,378 771,375 791,365" fill="none" stroke="#8a8f98" stroke-width="3" stroke-linecap="round"/><polyline points="-116,359 -15,351" fill="none" stroke="#8a8f98" stroke-width="3" stroke-linecap="round"/><polyline points="754,42 746,129" fill="none" stroke="#8a8f98" stroke-width="8" stroke-linecap="round"/><polyline points="754,42 761,145" fill="none" stroke="#8a8f98" stroke-width="10" stroke-linecap="round"/><polyline points="844,11 809,24 783,46 777,59 761,145" fill="none" stroke="#8a8f98" stroke-width="10" stroke-linecap="round"/><polyline points="-14,382 -90,402 -114,411" fill="none" stroke="#8a8f98" stroke-width="3" stroke-linecap="round"/><polyline points="668,54 652,71 652,115" fill="none" stroke="#8a8f98" stroke-width="3" stroke-linecap="round"/><polyline points="801,590 784,587 688,556" fill="none" stroke="#8a8f98" stroke-width="3" stroke-linecap="round"/><polyline points="773,505 783,523" fill="none" stroke="#8a8f98" stroke-width="10" stroke-linecap="round"/><polyline points="218,49 379,75" fill="none" stroke="#8a8f98" stroke-width="3" stroke-linecap="round"/><polyline points="219,141 306,154 349,156 386,151 436,138 467,136" fill="none" stroke="#8a8f98" stroke-width="5" stroke-linecap="round"/><polyline points="571,378 543,348" fill="none" stroke="#8a8f98" stroke-width="8" stroke-linecap="round"/><polyline points="572,354 573,282" fill="none" stroke="#8a8f98" stroke-width="10" stroke-linecap="round"/><polyline points="723,548 730,516 734,511 770,497" fill="none" stroke="#8a8f98" stroke-width="10" stroke-linecap="round"/><polyline points="107,614 114,584 113,523" fill="none" stroke="#8a8f98" stroke-width="5" stroke-linecap="round"/><polyline points="574,382 504,438" fill="none" stroke="#8a8f98" stroke-width="5" stroke-linecap="round"/><polyline points="561,644 497,697" fill="none" stroke="#8a8f98" stroke-width="5" stroke-linecap="round"/><polyline points="457,397 435,393 142,401" fill="none" stroke="#8a8f98" stroke-width="5" stroke-linecap="round"/><polyline points="370,534 377,541" fill="none" stroke="#8a8f98" stroke-width="5" stroke-linecap="round"/><polyline points="56,119 90,115 115,121" fill="none" stroke="#8a8f98" stroke-width="5" stroke-linecap="round"/><polyline points="94,150 93,192 90,196" fill="none" stroke="#8a8f98" stroke-width="3" stroke-linecap="round"/><polyline points="154,244 156,210 175,191 175,155" fill="none" stroke="#8a8f98" stroke-width="3" stroke-linecap="round"/><polyline points="154,244 328,240" fill="none" stroke="#8a8f98" stroke-width="3" stroke-linecap="round"/><polyline points="700,467 632,385" fill="none" stroke="#8a8f98" stroke-width="3" stroke-linecap="round"/><polyline points="746,129 735,181" fill="none" stroke="#8a8f98" stroke-width="8" stroke-linecap="round"/><polyline points="664,224 682,224 690,227 702,244 706,258" fill="none" stroke="#8a8f98" stroke-width="8" stroke-linecap="round"/><polyline points="706,258 689,282" fill="none" stroke="#8a8f98" stroke-width="8" stroke-linecap="round"/><polyline points="706,258 729,331" fill="none" stroke="#8a8f98" stroke-width="8" stroke-linecap="round"/><polyline points="639,325 602,348 572,354" fill="none" stroke="#8a8f98" stroke-width="8" stroke-linecap="round"/><polyline points="176,649 223,710" fill="none" stroke="#8a8f98" stroke-width="3" stroke-linecap="round"/><polyline points="161,630 174,627 182,630 237,699" fill="none" stroke="#8a8f98" stroke-width="3" stroke-linecap="round"/><polyline points="395,72 398,78 396,85 390,88 383,87 379,82 379,75 383,70 390,69 395,72" fill="none" stroke="#8a8f98" stroke-width="3" stroke-linecap="round"/><polyline points="746,129 721,128 710,124 690,125" fill="none" stroke="#8a8f98" stroke-width="3" stroke-linecap="round"/><polyline points="723,548 710,544 698,536" fill="none" stroke="#8a8f98" stroke-width="10" stroke-linecap="round"/><polyline points="732,375 732,378" fill="none" stroke="#8a8f98" stroke-width="10" stroke-linecap="round"/><polyline points="91,683 86,669 88,648 95,630" fill="none" stroke="#8a8f98" stroke-width="5" stroke-linecap="round"/><polyline points="435,481 441,488" fill="none" stroke="#8a8f98" stroke-width="5" stroke-linecap="round"/><polyline points="439,300 521,307 556,296 573,282" fill="none" stroke="#8a8f98" stroke-width="8" stroke-linecap="round"/><polyline points="26,477 19,477" fill="none" stroke="#8a8f98" stroke-width="5" stroke-linecap="round"/><polyline points="639,325 607,352" fill="none" stroke="#8a8f98" stroke-width="8" stroke-linecap="round"/><polyline points="543,348 503,322 454,307 358,308" fill="none" stroke="#8a8f98" stroke-width="8" stroke-linecap="round"/><polyline points="653,565 661,559" fill="none" stroke="#8a8f98" stroke-width="5" stroke-linecap="round"/><polyline points="629,180 639,184 679,146 673,125" fill="none" stroke="#8a8f98" stroke-width="3" stroke-linecap="round"/><polyline points="479,237 481,211 496,209" fill="none" stroke="#8a8f98" stroke-width="3" stroke-linecap="round"/><polyline points="358,240 358,300" fill="none" stroke="#8a8f98" stroke-width="3" stroke-linecap="round"/><polyline points="104,246 154,244" fill="none" stroke="#8a8f98" stroke-width="3" stroke-linecap="round"/><polyline points="549,499 580,535" fill="none" stroke="#8a8f98" stroke-width="3" stroke-linecap="round"/><polyline points="672,298 650,316" fill="none" stroke="#8a8f98" stroke-width="8" stroke-linecap="round"/><polyline points="725,221 718,238 706,258" fill="none" stroke="#8a8f98" stroke-width="8" stroke-linecap="round"/><polyline points="735,413 748,444" fill="none" stroke="#8a8f98" stroke-width="10" stroke-linecap="round"/><polyline points="763,481 770,497" fill="none" stroke="#8a8f98" stroke-width="10" stroke-linecap="round"/><polyline points="761,145 748,202" fill="none" stroke="#8a8f98" stroke-width="10" stroke-linecap="round"/><polyline points="7,649 8,657 15,666" fill="none" stroke="#8a8f98" stroke-width="5" stroke-linecap="round"/><polyline points="114,584 153,583" fill="none" stroke="#8a8f98" stroke-width="5" stroke-linecap="round"/><polyline points="28,546 26,602 17,628" fill="none" stroke="#8a8f98" stroke-width="5" stroke-linecap="round"/><polyline points="-11,663 11,623 19,600" fill="none" stroke="#8a8f98" stroke-width="5" stroke-linecap="round"/><polyline points="21,546 28,546" fill="none" stroke="#8a8f98" stroke-width="5" stroke-linecap="round"/><polyline points="308,584 349,550" fill="none" stroke="#8a8f98" stroke-width="5" stroke-linecap="round"/><polyline points="106,308 104,246" fill="none" stroke="#8a8f98" stroke-width="3" stroke-linecap="round"/><polyline points="106,318 81,319" fill="none" stroke="#8a8f98" stroke-width="8" stroke-linecap="round"/><polyline points="347,395 349,550" fill="none" stroke="#8a8f98" stroke-width="3" stroke-linecap="round"/><polyline points="346,430 110,439" fill="none" stroke="#8a8f98" stroke-width="3" stroke-linecap="round"/><polyline points="198,400 197,584" fill="none" stroke="#8a8f98" stroke-width="3" stroke-linecap="round"/><polyline points="203,587 308,584" fill="none" stroke="#8a8f98" stroke-width="3" stroke-linecap="round"/><polyline points="259,399 264,585" fill="none" stroke="#8a8f98" stroke-width="3" stroke-linecap="round"/><polyline points="197,494 348,490" fill="none" stroke="#8a8f98" stroke-width="3" stroke-linecap="round"/><polyline points="22,322 15,322" fill="none" stroke="#8a8f98" stroke-width="8" stroke-linecap="round"/><polyline points="14,312 21,311" fill="none" stroke="#8a8f98" stroke-width="8" stroke-linecap="round"/><polyline points="15,322 14,312" fill="none" stroke="#8a8f98" stroke-width="5" stroke-linecap="round"/><polyline points="106,318 106,308" fill="none" stroke="#8a8f98" stroke-width="5" stroke-linecap="round"/><polyline points="21,311 106,308" fill="none" stroke="#8a8f98" stroke-width="8" stroke-linecap="round"/><polyline points="21,311 22,322" fill="none" stroke="#8a8f98" stroke-width="5" stroke-linecap="round"/><polyline points="15,322 -50,325" fill="none" stroke="#8a8f98" stroke-width="8" stroke-linecap="round"/><polyline points="24,386 26,443" fill="none" stroke="#8a8f98" stroke-width="5" stroke-linecap="round"/><polyline points="19,477 16,387" fill="none" stroke="#8a8f98" stroke-width="5" stroke-linecap="round"/><polyline points="19,477 7,477" fill="none" stroke="#8a8f98" stroke-width="5" stroke-linecap="round"/><polyline points="26,477 27,489" fill="none" stroke="#8a8f98" stroke-width="5" stroke-linecap="round"/><polyline points="21,546 21,526" fill="none" stroke="#8a8f98" stroke-width="5" stroke-linecap="round"/><polyline points="22,322 24,379" fill="none" stroke="#8a8f98" stroke-width="5" stroke-linecap="round"/><polyline points="16,387 16,379" fill="none" stroke="#8a8f98" stroke-width="5" stroke-linecap="round"/><polyline points="770,497 773,505" fill="none" stroke="#8a8f98" stroke-width="10" stroke-linecap="round"/><polyline points="752,558 745,556" fill="none" stroke="#8a8f98" stroke-width="10" stroke-linecap="round"/><polyline points="399,571 420,597" fill="none" stroke="#8a8f98" stroke-width="5" stroke-linecap="round"/><polyline points="441,488 464,518" fill="none" stroke="#8a8f98" stroke-width="5" stroke-linecap="round"/><polyline points="435,481 482,446" fill="none" stroke="#8a8f98" stroke-width="5" stroke-linecap="round"/><polyline points="370,534 378,527" fill="none" stroke="#8a8f98" stroke-width="5" stroke-linecap="round"/><polyline points="377,541 313,591" fill="none" stroke="#8a8f98" stroke-width="5" stroke-linecap="round"/><polyline points="413,511 384,534" fill="none" stroke="#8a8f98" stroke-width="5" stroke-linecap="round"/><polyline points="571,378 572,354" fill="none" stroke="#8a8f98" stroke-width="10" stroke-linecap="round"/><polyline points="572,354 543,348" fill="none" stroke="#8a8f98" stroke-width="8" stroke-linecap="round"/><polyline points="483,504 556,595" fill="none" stroke="#8a8f98" stroke-width="3" stroke-linecap="round"/><polyline points="441,537 513,629" fill="none" stroke="#8a8f98" stroke-width="3" stroke-linecap="round"/><polyline points="648,573 650,592 658,601" fill="none" stroke="#8a8f98" stroke-width="5" stroke-linecap="round"/><polyline points="-54,161 -6,153" fill="none" stroke="#8a8f98" stroke-width="3" stroke-linecap="round"/><polyline points="661,559 685,538 687,525" fill="none" stroke="#8a8f98" stroke-width="5" stroke-linecap="round"/><polyline points="627,449 574,382" fill="none" stroke="#8a8f98" stroke-width="10" stroke-linecap="round"/><polyline points="607,352 574,382" fill="none" stroke="#8a8f98" stroke-width="8" stroke-linecap="round"/><polyline points="574,220 576,171" fill="none" stroke="#8a8f98" stroke-width="10" stroke-linecap="round"/><polyline points="497,137 539,137" fill="none" stroke="#8a8f98" stroke-width="5" stroke-linecap="round"/><polyline points="106,308 249,303" fill="none" stroke="#8a8f98" stroke-width="8" stroke-linecap="round"/><polyline points="289,311 172,316" fill="none" stroke="#8a8f98" stroke-width="8" stroke-linecap="round"/><polyline points="153,583 174,580 197,584" fill="none" stroke="#8a8f98" stroke-width="5" stroke-linecap="round"/><polyline points="197,584 212,594 228,615" fill="none" stroke="#8a8f98" stroke-width="5" stroke-linecap="round"/><polyline points="7,649 -3,664" fill="none" stroke="#8a8f98" stroke-width="5" stroke-linecap="round"/><polyline points="17,628 7,649" fill="none" stroke="#8a8f98" stroke-width="5" stroke-linecap="round"/><polyline points="19,600 21,546" fill="none" stroke="#8a8f98" stroke-width="5" stroke-linecap="round"/><polyline points="27,499 28,546" fill="none" stroke="#8a8f98" stroke-width="5" stroke-linecap="round"/><polyline points="16,379 15,322" fill="none" stroke="#8a8f98" stroke-width="5" stroke-linecap="round"/><polyline points="689,282 672,298" fill="none" stroke="#8a8f98" stroke-width="8" stroke-linecap="round"/><polyline points="659,490 627,449" fill="none" stroke="#8a8f98" stroke-width="10" stroke-linecap="round"/><polyline points="358,300 439,300" fill="none" stroke="#8a8f98" stroke-width="8" stroke-linecap="round"/><polyline points="313,591 274,622" fill="none" stroke="#8a8f98" stroke-width="5" stroke-linecap="round"/><polyline points="242,634 308,584" fill="none" stroke="#8a8f98" stroke-width="5" stroke-linecap="round"/><polyline points="248,641 272,671" fill="none" stroke="#8a8f98" stroke-width="5" stroke-linecap="round"/><polyline points="377,541 389,561" fill="none" stroke="#8a8f98" stroke-width="5" stroke-linecap="round"/><polyline points="556,595 591,567" fill="none" stroke="#8a8f98" stroke-width="3" stroke-linecap="round"/><polyline points="504,438 498,432" fill="none" stroke="#8a8f98" stroke-width="5" stroke-linecap="round"/><polyline points="623,587 627,590" fill="none" stroke="#8a8f98" stroke-width="5" stroke-linecap="round"/><polyline points="623,587 653,565" fill="none" stroke="#8a8f98" stroke-width="5" stroke-linecap="round"/><polyline points="192,734 139,669 136,662 141,647" fill="none" stroke="#8a8f98" stroke-width="3" stroke-linecap="round"/><polyline points="-7,130 12,127" fill="none" stroke="#8a8f98" stroke-width="5" stroke-linecap="round"/><polyline points="-61,139 -7,130" fill="none" stroke="#8a8f98" stroke-width="5" stroke-linecap="round"/><polyline points="497,156 496,209" fill="none" stroke="#8a8f98" stroke-width="3" stroke-linecap="round"/><polyline points="-6,153 -5,202" fill="none" stroke="#8a8f98" stroke-width="3" stroke-linecap="round"/><polyline points="21,526 20,490" fill="none" stroke="#8a8f98" stroke-width="5" stroke-linecap="round"/><polyline points="26,443 26,477" fill="none" stroke="#8a8f98" stroke-width="5" stroke-linecap="round"/><polyline points="574,382 571,378" fill="none" stroke="#8a8f98" stroke-width="10" stroke-linecap="round"/><polyline points="687,525 659,490" fill="none" stroke="#8a8f98" stroke-width="10" stroke-linecap="round"/><polyline points="610,259 646,230 664,224" fill="none" stroke="#8a8f98" stroke-width="8" stroke-linecap="round"/><polyline points="573,282 610,259" fill="none" stroke="#8a8f98" stroke-width="8" stroke-linecap="round"/><polyline points="95,630 107,614" fill="none" stroke="#8a8f98" stroke-width="5" stroke-linecap="round"/><polyline points="107,614 132,592 153,583" fill="none" stroke="#8a8f98" stroke-width="5" stroke-linecap="round"/><polyline points="573,282 573,272" fill="none" stroke="#8a8f98" stroke-width="10" stroke-linecap="round"/><polyline points="650,316 639,325" fill="none" stroke="#8a8f98" stroke-width="8" stroke-linecap="round"/><polyline points="129,317 106,318" fill="none" stroke="#8a8f98" stroke-width="8" stroke-linecap="round"/><polyline points="735,181 725,221" fill="none" stroke="#8a8f98" stroke-width="8" stroke-linecap="round"/><polyline points="576,171 560,153 531,152 497,156" fill="none" stroke="#8a8f98" stroke-width="5" stroke-linecap="round"/><polyline points="539,137 564,133 579,120" fill="none" stroke="#8a8f98" stroke-width="5" stroke-linecap="round"/><polyline points="536,611 561,644" fill="none" stroke="#8a8f98" stroke-width="5" stroke-linecap="round"/><polyline points="697,313 720,378" fill="none" stroke="#8a8f98" stroke-width="3" stroke-linecap="round"/><polyline points="748,444 763,481" fill="none" stroke="#8a8f98" stroke-width="10" stroke-linecap="round"/><polyline points="504,438 461,472" fill="none" stroke="#8a8f98" stroke-width="5" stroke-linecap="round"/><polyline points="242,634 248,641" fill="none" stroke="#8a8f98" stroke-width="5" stroke-linecap="round"/><polyline points="632,385 607,352" fill="none" stroke="#8a8f98" stroke-width="3" stroke-linecap="round"/><polyline points="384,534 377,541" fill="none" stroke="#8a8f98" stroke-width="5" stroke-linecap="round"/><polyline points="441,488 413,511" fill="none" stroke="#8a8f98" stroke-width="5" stroke-linecap="round"/><polyline points="383,523 415,496" fill="none" stroke="#8a8f98" stroke-width="5" stroke-linecap="round"/><polyline points="378,527 383,523" fill="none" stroke="#8a8f98" stroke-width="5" stroke-linecap="round"/><polyline points="107,347 106,318" fill="none" stroke="#8a8f98" stroke-width="5" stroke-linecap="round"/><polyline points="107,360 107,347" fill="none" stroke="#8a8f98" stroke-width="5" stroke-linecap="round"/><polyline points="109,402 107,360" fill="none" stroke="#8a8f98" stroke-width="5" stroke-linecap="round"/><polyline points="467,136 497,137" fill="none" stroke="#8a8f98" stroke-width="5" stroke-linecap="round"/><polyline points="164,130 191,135" fill="none" stroke="#8a8f98" stroke-width="5" stroke-linecap="round"/><polyline points="113,523 109,402" fill="none" stroke="#8a8f98" stroke-width="5" stroke-linecap="round"/><polyline points="142,401 109,402" fill="none" stroke="#8a8f98" stroke-width="5" stroke-linecap="round"/><polyline points="391,238 441,238" fill="none" stroke="#8a8f98" stroke-width="3" stroke-linecap="round"/><polyline points="12,127 56,119" fill="none" stroke="#8a8f98" stroke-width="5" stroke-linecap="round"/><polyline points="349,550 370,534" fill="none" stroke="#8a8f98" stroke-width="5" stroke-linecap="round"/><polyline points="274,622 248,641" fill="none" stroke="#8a8f98" stroke-width="5" stroke-linecap="round"/><polyline points="228,615 242,634" fill="none" stroke="#8a8f98" stroke-width="5" stroke-linecap="round"/><polyline points="526,599 536,611" fill="none" stroke="#8a8f98" stroke-width="5" stroke-linecap="round"/><polyline points="482,446 498,432" fill="none" stroke="#8a8f98" stroke-width="5" stroke-linecap="round"/><polyline points="415,496 435,481" fill="none" stroke="#8a8f98" stroke-width="5" stroke-linecap="round"/><polyline points="24,379 24,386" fill="none" stroke="#8a8f98" stroke-width="5" stroke-linecap="round"/><polyline points="16,387 -29,396 -30,402 -18,437 -17,478" fill="none" stroke="#8a8f98" stroke-width="3" stroke-linecap="round"/><polyline points="27,489 27,499" fill="none" stroke="#8a8f98" stroke-width="5" stroke-linecap="round"/><polyline points="20,490 19,477" fill="none" stroke="#8a8f98" stroke-width="5" stroke-linecap="round"/><polyline points="249,303 358,300" fill="none" stroke="#8a8f98" stroke-width="8" stroke-linecap="round"/><polyline points="-67,316 14,312" fill="none" stroke="#8a8f98" stroke-width="8" stroke-linecap="round"/><polyline points="81,319 22,322" fill="none" stroke="#8a8f98" stroke-width="8" stroke-linecap="round"/><polyline points="172,316 129,317" fill="none" stroke="#8a8f98" stroke-width="8" stroke-linecap="round"/><polyline points="358,308 289,311" fill="none" stroke="#8a8f98" stroke-width="8" stroke-linecap="round"/><polyline points="7,477 -17,478" fill="none" stroke="#8a8f98" stroke-width="5" stroke-linecap="round"/><polyline points="191,135 219,141" fill="none" stroke="#8a8f98" stroke-width="5" stroke-linecap="round"/><polyline points="391,238 393,189" fill="none" stroke="#8a8f98" stroke-width="3" stroke-linecap="round"/><polyline points="313,240 313,174" fill="none" stroke="#8a8f98" stroke-width="3" stroke-linecap="round"/><polyline points="398,78 465,88" fill="none" stroke="#8a8f98" stroke-width="3" stroke-linecap="round"/><polyline points="498,432 478,409 457,397" fill="none" stroke="#8a8f98" stroke-width="5" stroke-linecap="round"/><polyline points="461,472 441,488" fill="none" stroke="#8a8f98" stroke-width="5" stroke-linecap="round"/><polyline points="627,590 658,601" fill="none" stroke="#8a8f98" stroke-width="5" stroke-linecap="round"/><polyline points="698,536 663,562" fill="none" stroke="#8a8f98" stroke-width="5" stroke-linecap="round"/><polyline points="663,562 648,573" fill="none" stroke="#8a8f98" stroke-width="5" stroke-linecap="round"/><polyline points="648,573 627,590" fill="none" stroke="#8a8f98" stroke-width="5" stroke-linecap="round"/><polyline points="698,536 687,525" fill="none" stroke="#8a8f98" stroke-width="10" stroke-linecap="round"/><polyline points="745,556 723,548" fill="none" stroke="#8a8f98" stroke-width="10" stroke-linecap="round"/><polyline points="732,371 732,375" fill="none" stroke="#8a8f98" stroke-width="10" stroke-linecap="round"/><polyline points="729,331 732,371" fill="none" stroke="#8a8f98" stroke-width="10" stroke-linecap="round"/><polyline points="627,590 561,644" fill="none" stroke="#8a8f98" stroke-width="5" stroke-linecap="round"/><polyline points="-17,478 -58,479" fill="none" stroke="#8a8f98" stroke-width="5" stroke-linecap="round"/><polyline points="389,561 376,550 367,548" fill="none" stroke="#8a8f98" stroke-width="5" stroke-linecap="round"/><polyline points="389,561 399,571" fill="none" stroke="#8a8f98" stroke-width="5" stroke-linecap="round"/><polyline points="464,518 526,599" fill="none" stroke="#8a8f98" stroke-width="5" stroke-linecap="round"/><polyline points="115,121 164,130" fill="none" stroke="#8a8f98" stroke-width="5" stroke-linecap="round"/><polyline points="420,597 471,663" fill="none" stroke="#8a8f98" stroke-width="5" stroke-linecap="round"/><polyline points="732,378 735,413" fill="none" stroke="#8a8f98" stroke-width="10" stroke-linecap="round"/><polyline points="748,202 734,268 729,331" fill="none" stroke="#8a8f98" stroke-width="10" stroke-linecap="round"/><polyline points="573,272 573,256" fill="none" stroke="#8a8f98" stroke-width="10" stroke-linecap="round"/><polyline points="573,256 574,220" fill="none" stroke="#8a8f98" stroke-width="10" stroke-linecap="round"/><polyline points="77,116 77,84 174,85 169,126 171,132" fill="none" stroke="#8a8f98" stroke-width="3" stroke-linecap="round"/><polyline points="571,542 538,503 544,498 549,499" fill="none" stroke="#8a8f98" stroke-width="3" stroke-linecap="round"/><polyline points="775,642 769,656 762,660" fill="none" stroke="#8a8f98" stroke-width="5" stroke-linecap="round"/><polyline points="66,508 67,534 69,539 87,538 89,535 81,352" fill="none" stroke="#8a8f98" stroke-width="3" stroke-linecap="round"/><polyline points="122,600 151,638" fill="none" stroke="#8a8f98" stroke-width="3" stroke-linecap="round"/><polyline points="520,727 648,627 656,601" fill="none" stroke="#8a8f98" stroke-width="3" stroke-linecap="round"/><polyline points="620,596 645,630" fill="none" stroke="#8a8f98" stroke-width="3" stroke-linecap="round"/><polyline points="759,-88 759,-49" fill="none" stroke="#8a8f98" stroke-width="10" stroke-linecap="round"/><polyline points="642,3 686,46" fill="none" stroke="#8a8f98" stroke-width="3" stroke-linecap="round"/><polyline points="31,46 -9,46" fill="none" stroke="#8a8f98" stroke-width="3" stroke-linecap="round"/><polyline points="31,25 -9,25" fill="none" stroke="#8a8f98" stroke-width="3" stroke-linecap="round"/><polyline points="710,35 708,2 684,-19 682,-20 659,-8" fill="none" stroke="#8a8f98" stroke-width="3" stroke-linecap="round"/><polyline points="626,-13 671,-32 689,-36" fill="none" stroke="#8a8f98" stroke-width="3" stroke-linecap="round"/><polyline points="52,-59 32,-19" fill="none" stroke="#8a8f98" stroke-width="3" stroke-linecap="round"/><polyline points="574,-83 621,-19" fill="none" stroke="#8a8f98" stroke-width="3" stroke-linecap="round"/><polyline points="702,38 670,3" fill="none" stroke="#8a8f98" stroke-width="3" stroke-linecap="round"/><polyline points="707,-39 757,-32" fill="none" stroke="#8a8f98" stroke-width="3" stroke-linecap="round"/><polyline points="759,-49 757,-32" fill="none" stroke="#8a8f98" stroke-width="10" stroke-linecap="round"/><polyline points="757,-32 754,42" fill="none" stroke="#8a8f98" stroke-width="10" stroke-linecap="round"/><polyline points="444,-60 506,-48 509,-43 506,-27" fill="none" stroke="#8a8f98" stroke-width="3" stroke-linecap="round"/><polyline points="668,54 629,15" fill="none" stroke="#8a8f98" stroke-width="3" stroke-linecap="round"/><polyline points="659,-8 642,3 596,46" fill="none" stroke="#8a8f98" stroke-width="3" stroke-linecap="round"/><polyline points="759,-88 768,-65 773,-22 783,-3 800,5 815,7 848,1" fill="none" stroke="#8a8f98" stroke-width="10" stroke-linecap="round"/><polyline points="849,39 812,50 802,71 806,96 821,110 831,112 860,109 891,140" fill="none" stroke="#8a8f98" stroke-width="3" stroke-linecap="round"/><polyline points="934,573 962,538 970,523" fill="none" stroke="#8a8f98" stroke-width="10" stroke-linecap="round"/><polyline points="970,523 1033,425 1069,375 1119,328 1167,299 1187,290" fill="none" stroke="#8a8f98" stroke-width="13" stroke-linecap="round"/><polyline points="934,573 932,567" fill="none" stroke="#8a8f98" stroke-width="5" stroke-linecap="round"/><polyline points="955,628 943,646 935,668 935,675 941,705" fill="none" stroke="#8a8f98" stroke-width="10" stroke-linecap="round"/><polyline points="838,605 852,611 869,614 884,612 902,605" fill="none" stroke="#8a8f98" stroke-width="10" stroke-linecap="round"/><polyline points="884,661 884,645 890,623 902,605" fill="none" stroke="#8a8f98" stroke-width="10" stroke-linecap="round"/><polyline points="1000,148 1076,117" fill="none" stroke="#8a8f98" stroke-width="5" stroke-linecap="round"/><polyline points="858,674 822,625" fill="none" stroke="#8a8f98" stroke-width="10" stroke-linecap="round"/><polyline points="806,563 809,576 855,653 858,674" fill="none" stroke="#8a8f98" stroke-width="10" stroke-linecap="round"/><polyline points="783,523 797,549" fill="none" stroke="#8a8f98" stroke-width="10" stroke-linecap="round"/><polyline points="955,628 900,675" fill="none" stroke="#8a8f98" stroke-width="10" stroke-linecap="round"/><polyline points="998,574 976,604 955,628" fill="none" stroke="#8a8f98" stroke-width="10" stroke-linecap="round"/><polyline points="838,605 865,640 884,661" fill="none" stroke="#8a8f98" stroke-width="10" stroke-linecap="round"/><polyline points="825,588 838,605" fill="none" stroke="#8a8f98" stroke-width="10" stroke-linecap="round"/><polyline points="806,563 825,588" fill="none" stroke="#8a8f98" stroke-width="10" stroke-linecap="round"/><polyline points="970,523 991,475" fill="none" stroke="#8a8f98" stroke-width="10" stroke-linecap="round"/><polyline points="902,605 934,573" fill="none" stroke="#8a8f98" stroke-width="10" stroke-linecap="round"/><polyline points="996,162 1000,148" fill="none" stroke="#8a8f98" stroke-width="5" stroke-linecap="round"/><polyline points="981,218 996,162" fill="none" stroke="#8a8f98" stroke-width="5" stroke-linecap="round"/><polyline points="932,567 865,395" fill="none" stroke="#8a8f98" stroke-width="5" stroke-linecap="round"/><polyline points="786,351 834,328" fill="none" stroke="#8a8f98" stroke-width="3" stroke-linecap="round"/><polyline points="822,625 801,590" fill="none" stroke="#8a8f98" stroke-width="10" stroke-linecap="round"/><polyline points="785,672 807,664 823,648 825,641 822,625" fill="none" stroke="#8a8f98" stroke-width="13" stroke-linecap="round"/><polyline points="797,549 806,563" fill="none" stroke="#8a8f98" stroke-width="10" stroke-linecap="round"/><polyline points="991,475 1026,416" fill="none" stroke="#8a8f98" stroke-width="10" stroke-linecap="round"/><polyline points="857,560 877,613" fill="none" stroke="#8a8f98" stroke-width="3" stroke-linecap="round"/><polyline points="1028,533 998,574" fill="none" stroke="#8a8f98" stroke-width="10" stroke-linecap="round"/><polyline points="890,-11 901,8 900,22 896,28" fill="none" stroke="#8a8f98" stroke-width="3" stroke-linecap="round"/><polyline points="1008,-17 966,-19 961,-22" fill="none" stroke="#8a8f98" stroke-width="3" stroke-linecap="round"/><polyline points="890,-11 879,-3 844,11" fill="none" stroke="#8a8f98" stroke-width="10" stroke-linecap="round"/><polyline points="848,1 884,-17" fill="none" stroke="#8a8f98" stroke-width="10" stroke-linecap="round"/><polyline points="884,-17 899,-31 904,-44 904,-54 895,-72 873,-93" fill="none" stroke="#8a8f98" stroke-width="10" stroke-linecap="round"/><polyline points="896,28 877,26 858,37 849,39" fill="none" stroke="#8a8f98" stroke-width="3" stroke-linecap="round"/><polyline points="936,49 926,49 916,45 904,31 896,28" fill="none" stroke="#8a8f98" stroke-width="3" stroke-linecap="round"/><polyline points="884,-17 890,-11" fill="none" stroke="#8a8f98" stroke-width="10" stroke-linecap="round"/><polyline points="896,28 892,30 886,46 874,53 861,49 849,39" fill="none" stroke="#8a8f98" stroke-width="3" stroke-linecap="round"/><polyline points="943,-57 926,-47 905,-22 890,-11" fill="none" stroke="#8a8f98" stroke-width="10" stroke-linecap="round"/><polygon points="629,-26 635,-22 638,-27 635,-31 646,-31 662,-43 677,-38 693,-42 702,-52 704,-59 728,-77 702,-111 683,-97 664,-121 658,-121 656,-116 648,-129 644,-129 641,-129 638,-122 627,-136 621,-135 620,-129 612,-140 607,-136 603,-142 600,-139 595,-147 592,-144 587,-150 585,-144 579,-151 577,-125 568,-120 570,-109 574,-105 574,-90 629,-26" fill="#c8c2b8" stroke="#00000033"/><polygon points="971,61 931,145 920,152 893,140 901,127 887,135 864,103 843,110 841,103 825,105 812,97 807,83 809,71 821,60 832,58 845,62 852,70 855,79 883,63 899,45 913,55 911,58 924,68 935,57 950,60 955,50 971,61" fill="#c8c2b8" stroke="#00000033"/><polygon points="84,17 84,30 92,30 92,76 180,76 180,15 176,15 176,7 114,7 114,12 104,13 104,17 84,17" fill="#c8c2b8" stroke="#00000033"/><polygon points="628,22 603,51 607,152 633,178 656,154 646,143 651,136 648,130 639,130 636,72 647,71 649,64 639,57 652,44 628,22" fill="#c8c2b8" stroke="#00000033"/><polygon points="507,698 525,720 641,627 623,605 507,698" fill="#c8c2b8" stroke="#00000033"/><polygon points="999,-8 999,16 1007,16 1007,41 984,46 938,43 940,23 927,16 924,6 925,0 932,-8 938,-9 943,-17 948,-19 958,-14 988,-14 995,-12 999,-14 1001,-11 999,-8" fill="#c8c2b8" stroke="#00000033"/><polygon points="112,686 133,670 131,657 144,637 172,622 180,622 189,626 210,610 194,598 163,592 135,605 135,610 130,614 126,612 106,638 106,672 112,686" fill="#c8c2b8" stroke="#00000033"/><polygon points="0,151 87,148 89,189 1,192 0,151" fill="#c8c2b8" stroke="#00000033"/><polygon points="726,415 697,427 657,327 686,315 726,415" fill="#c8c2b8" stroke="#00000033"/><polygon points="592,479 614,462 620,462 675,531 673,545 655,559 592,479" fill="#c8c2b8" stroke="#00000033"/><polygon points="521,479 499,495 515,515 505,523 542,570 550,564 564,584 590,564 573,543 563,551 528,505 536,499 521,479" fill="#c8c2b8" stroke="#00000033"/><polygon points="393,582 372,598 387,618 378,625 414,673 422,667 437,686 462,667 446,646 436,654 400,607 408,601 393,582" fill="#c8c2b8" stroke="#00000033"/><polygon points="429,551 407,568 423,588 434,580 469,625 458,634 475,655 497,637 481,617 493,608 455,561 444,570 429,551" fill="#c8c2b8" stroke="#00000033"/><polygon points="844,322 861,365 938,332 936,328 879,301 882,307 844,322" fill="#c8c2b8" stroke="#00000033"/><polygon points="-129,-98 18,-34 10,-17 -136,-80 -129,-98" fill="#c8c2b8" stroke="#00000033"/><polygon points="189,626 210,610 217,610 230,628 231,633 250,653 265,675 239,694 203,653 204,649 187,628 189,626" fill="#c8c2b8" stroke="#00000033"/><polygon points="726,524 709,518 699,511 599,384 610,375 714,503 726,509 729,520 726,524" fill="#c8c2b8" stroke="#00000033"/><polygon points="585,484 563,501 624,581 647,563 585,484" fill="#c8c2b8" stroke="#00000033"/><polygon points="388,658 374,669 366,659 359,665 342,644 339,647 351,661 343,668 373,707 364,715 363,720 373,732 382,728 395,715 384,701 412,679 413,688 420,693 425,694 433,688 433,684 423,671 419,671 406,681 388,658" fill="#c8c2b8" stroke="#00000033"/><polygon points="97,509 42,510 43,555 99,555 97,509" fill="#c8c2b8" stroke="#00000033"/><polygon points="-55,209 -55,205 19,205 19,208 58,208 58,223 27,222 23,224 23,240 -8,239 -15,243 -12,223 -55,223 -55,209" fill="#c8c2b8" stroke="#00000033"/><polygon points="95,340 36,340 38,382 96,382 95,340" fill="#c8c2b8" stroke="#00000033"/><polygon points="39,422 41,465 97,464 96,421 39,422" fill="#c8c2b8" stroke="#00000033"/><polygon points="204,-61 203,-58 205,-60 213,-55 193,-33 187,-40 190,-46 174,-39 176,-36 170,-32 179,-34 184,-25 157,-14 154,-23 162,-29 155,-40 143,-35 147,-35 150,-27 127,-17 124,-26 131,-33 117,-33 116,-24 105,-22 105,-31 109,-33 106,-33 109,-38 105,-38 104,-47 134,-47 133,-40 129,-36 137,-35 145,-39 142,-39 137,-47 164,-59 166,-53 164,-47 170,-50 174,-42 178,-44 177,-53 187,-59 190,-51 187,-49 190,-49 196,-56 188,-68 193,-76 204,-61" fill="#c8c2b8" stroke="#00000033"/><polygon points="394,-57 447,-48 440,-5 387,-14 394,-57" fill="#c8c2b8" stroke="#00000033"/><polygon points="254,-22 255,-27 251,-26 249,-34 260,-36 263,-27 276,-32 277,-34 268,-37 268,-46 286,-42 293,-43 292,-34 288,-33 302,-32 305,-45 296,-48 296,-57 325,-54 323,-45 313,-44 320,-42 320,-38 336,-37 332,-41 336,-50 361,-35 358,-29 352,-28 355,-26 354,-18 349,-9 341,-15 345,-29 337,-33 335,-32 338,-32 337,-23 330,-24 324,-29 325,-35 320,-35 319,-27 312,-28 315,-26 315,-16 304,-18 305,-20 286,-20 288,-29 292,-30 275,-28 279,-28 283,-20 255,-10 253,-20 257,-21 254,-22" fill="#c8c2b8" stroke="#00000033"/><polygon points="662,-43 677,-38 686,-39 698,-46 705,-67 697,-85 678,-93 664,-89 655,-80 651,-72 651,-53 660,-41 662,-43" fill="#c8c2b8" stroke="#00000033"/><polygon points="542,162 543,225 522,225 522,216 504,216 504,162 542,162" fill="#c8c2b8" stroke="#00000033"/><polygon points="-97,280 -107,279 -106,293 -100,302 7,295 7,278 -97,280" fill="#c8c2b8" stroke="#00000033"/><polygon points="311,602 306,602 259,639 259,645 274,664 278,664 327,626 327,622 311,602" fill="#c8c2b8" stroke="#00000033"/><polygon points="811,546 876,517 884,533 872,539 885,570 910,559 916,575 883,589 865,540 818,561 811,546" fill="#c8c2b8" stroke="#00000033"/><polygon points="374,553 369,552 322,589 322,595 337,614 340,614 389,576 389,572 374,553" fill="#c8c2b8" stroke="#00000033"/><polygon points="514,438 536,421 581,479 560,496 514,438" fill="#c8c2b8" stroke="#00000033"/><polygon points="440,498 387,539 405,563 458,521 440,498" fill="#c8c2b8" stroke="#00000033"/><polygon points="532,619 480,660 498,683 550,642 532,619" fill="#c8c2b8" stroke="#00000033"/><polygon points="594,571 542,611 560,634 612,594 594,571" fill="#c8c2b8" stroke="#00000033"/><polygon points="501,450 449,490 466,513 519,473 501,450" fill="#c8c2b8" stroke="#00000033"/><polygon points="-79,569 -86,583 -71,591 -26,591 -26,609 -29,607 -41,631 -28,637 -14,609 -14,603 -2,603 -1,590 -15,590 -15,575 -68,576 -79,569" fill="#c8c2b8" stroke="#00000033"/><polygon points="476,391 465,385 487,339 497,340 539,372 537,380 504,414 494,405 524,375 494,354 476,391" fill="#c8c2b8" stroke="#00000033"/><polygon points="-41,-23 -23,-23 -23,67 -42,67 -41,-23" fill="#c8c2b8" stroke="#00000033"/><polygon points="214,221 214,203 231,203 232,236 172,237 172,199 188,199 189,221 214,221" fill="#c8c2b8" stroke="#00000033"/><polygon points="687,560 682,573 789,609 793,595 687,560" fill="#c8c2b8" stroke="#00000033"/><polygon points="653,630 659,608 727,632 722,647 705,649 653,630" fill="#c8c2b8" stroke="#00000033"/><polygon points="238,183 297,181 298,220 282,220 281,195 255,196 255,216 239,217 238,183" fill="#c8c2b8" stroke="#00000033"/><polygon points="730,619 736,602 810,627 814,633 809,640 798,644 730,619" fill="#c8c2b8" stroke="#00000033"/><polygon points="37,7 36,65 -18,65 -18,76 49,76 49,8 37,7" fill="#c8c2b8" stroke="#00000033"/><polygon points="363,214 362,192 377,191 378,228 320,229 319,197 335,197 336,215 363,214" fill="#c8c2b8" stroke="#00000033"/><polygon points="160,160 160,197 147,197 146,173 117,173 118,193 102,193 102,160 160,160" fill="#c8c2b8" stroke="#00000033"/><polygon points="80,237 79,208 95,207 95,223 122,222 121,200 136,200 137,236 80,237" fill="#c8c2b8" stroke="#00000033"/><polygon points="730,600 724,617 660,596 654,585 660,576 730,600" fill="#c8c2b8" stroke="#00000033"/><polygon points="-103,381 -104,363 -36,360 -35,378 -103,381" fill="#c8c2b8" stroke="#00000033"/><polygon points="-14,80 -14,103 -3,114 26,108 27,80 -14,80" fill="#c8c2b8" stroke="#00000033"/><polygon points="365,604 311,646 322,660 376,617 365,604" fill="#c8c2b8" stroke="#00000033"/><polygon points="651,328 618,355 635,379 663,358 651,328" fill="#c8c2b8" stroke="#00000033"/><polygon points="-10,494 -32,495 -31,545 -8,544 -10,494" fill="#c8c2b8" stroke="#00000033"/><polygon points="192,10 267,22 264,36 218,28 217,38 205,35 207,26 196,24 197,18 190,17 192,10" fill="#c8c2b8" stroke="#00000033"/><polygon points="421,48 496,60 494,74 448,66 446,76 435,74 436,64 426,62 427,57 420,56 421,48" fill="#c8c2b8" stroke="#00000033"/><polygon points="269,22 343,35 341,48 295,41 293,50 282,48 283,39 273,37 274,31 267,30 269,22" fill="#c8c2b8" stroke="#00000033"/><polygon points="989,342 976,368 1008,383 1010,377 1014,379 1024,358 989,342" fill="#c8c2b8" stroke="#00000033"/><polygon points="345,35 420,48 418,61 371,53 370,63 359,61 360,52 349,50 350,44 344,43 345,35" fill="#c8c2b8" stroke="#00000033"/><polygon points="528,-89 532,-46 524,-45 527,-12 541,-13 538,-44 546,-44 542,-90 528,-89" fill="#c8c2b8" stroke="#00000033"/><polygon points="403,195 435,195 435,228 403,228 403,195" fill="#c8c2b8" stroke="#00000033"/><polygon points="-41,631 -48,645 -54,642 -48,630 -61,623 -77,653 -65,659 -63,651 -55,656 -57,660 -44,667 -28,637 -41,631" fill="#c8c2b8" stroke="#00000033"/><polygon points="226,99 290,118 286,133 222,114 226,99" fill="#c8c2b8" stroke="#00000033"/><polygon points="450,172 481,171 482,204 450,204 450,172" fill="#c8c2b8" stroke="#00000033"/><polygon points="491,216 522,216 522,248 491,248 491,216" fill="#c8c2b8" stroke="#00000033"/><polygon points="404,110 479,104 480,116 405,123 404,110" fill="#c8c2b8" stroke="#00000033"/><polygon points="559,402 539,417 545,427 553,429 560,439 586,419 575,405 573,408 559,402" fill="#c8c2b8" stroke="#00000033"/><polygon points="329,92 392,100 390,114 327,107 329,92" fill="#c8c2b8" stroke="#00000033"/><polygon points="200,276 201,290 266,288 265,274 200,276" fill="#c8c2b8" stroke="#00000033"/><polygon points="363,271 364,285 428,283 428,269 363,271" fill="#c8c2b8" stroke="#00000033"/><polygon points="307,123 378,131 376,143 305,136 307,123" fill="#c8c2b8" stroke="#00000033"/><polygon points="455,-43 484,-38 479,-8 450,-13 455,-43" fill="#c8c2b8" stroke="#00000033"/><polygon points="313,103 248,87 252,74 316,90 313,103" fill="#c8c2b8" stroke="#00000033"/><polygon points="505,-9 533,-4 528,27 500,22 505,-9" fill="#c8c2b8" stroke="#00000033"/><polygon points="461,267 457,280 519,299 523,286 461,267" fill="#c8c2b8" stroke="#00000033"/><polygon points="8,263 8,257 14,255 14,247 8,245 8,239 23,242 34,240 34,246 30,250 36,250 41,240 57,238 58,245 53,245 55,250 49,250 49,252 58,252 56,261 39,261 39,252 33,252 37,255 37,262 23,259 19,263 8,263" fill="#c8c2b8" stroke="#00000033"/><polygon points="119,274 119,288 184,285 183,272 119,274" fill="#c8c2b8" stroke="#00000033"/><polygon points="266,411 266,424 332,422 332,409 266,411" fill="#c8c2b8" stroke="#00000033"/><polygon points="660,643 658,647 665,667 678,671 688,664 694,667 719,664 718,653 709,654 710,659 702,660 700,656 660,643" fill="#c8c2b8" stroke="#00000033"/><polygon points="124,416 124,429 190,427 189,414 124,416" fill="#c8c2b8" stroke="#00000033"/><polygon points="270,529 271,542 336,540 336,527 270,529" fill="#c8c2b8" stroke="#00000033"/><polygon points="281,269 282,282 346,280 346,267 281,269" fill="#c8c2b8" stroke="#00000033"/><polygon points="267,440 267,452 333,450 333,438 267,440" fill="#c8c2b8" stroke="#00000033"/><polygon points="127,520 128,532 193,530 193,518 127,520" fill="#c8c2b8" stroke="#00000033"/><polygon points="127,550 128,562 193,560 193,548 127,550" fill="#c8c2b8" stroke="#00000033"/><polygon points="269,501 270,513 335,511 335,499 269,501" fill="#c8c2b8" stroke="#00000033"/><polygon points="124,445 125,457 190,455 190,443 124,445" fill="#c8c2b8" stroke="#00000033"/><polygon points="269,468 269,480 335,478 334,466 269,468" fill="#c8c2b8" stroke="#00000033"/><polygon points="587,183 586,232 602,232 603,183 587,183" fill="#c8c2b8" stroke="#00000033"/><polyline points="315,154 365,155 436,138 551,136 564,133 579,120 574,220 571,378 574,382 504,438 478,409 498,432 435,481" fill="none" stroke="#ffdd44" stroke-width="6" opacity="0.85"/><circle cx="315" cy="154" r="10" fill="#a0f"/><circle cx="435" cy="481" r="10" fill="#f00"/><path d="M320.88337469054545,-66.99751861042597 L336.88337469054545,-66.99751861042597 M328.88337469054545,-74.99751861042597 L328.88337469054545,-58.99751861042597" stroke="#0ff" stroke-width="2"/><path d="M452.2510582409993,419.06291052403174 L468.2510582409993,419.06291052403174 M460.2510582409993,411.06291052403174 L460.2510582409993,427.06291052403174" stroke="#0ff" stroke-width="2"/><path d="M399.70398482119117,458.47321558898307 L415.70398482119117,458.47321558898307 M407.70398482119117,450.47321558898307 L407.70398482119117,466.47321558898307" stroke="#0ff" stroke-width="2"/><rect x="377" y="240" width="22" height="16" fill="#b8c2cc" stroke="#333"/><rect x="341" y="192" width="22" height="16" fill="#b8c2cc" stroke="#333"/><rect x="449" y="216" width="22" height="16" fill="#b8c2cc" stroke="#333"/><rect x="389" y="84" width="22" height="16" fill="#b8c2cc" stroke="#333"/><rect x="497" y="84" width="22" height="16" fill="#b8c2cc" stroke="#333"/><rect x="485" y="168" width="22" height="16" fill="#b8c2cc" stroke="#333"/><rect x="521" y="228" width="22" height="16" fill="#b8c2cc" stroke="#333"/><rect x="581" y="48" width="22" height="16" fill="#b8c2cc" stroke="#333"/><rect x="653" y="72" width="22" height="16" fill="#b8c2cc" stroke="#333"/><rect x="665" y="192" width="22" height="16" fill="#b8c2cc" stroke="#333"/><rect x="629" y="252" width="22" height="16" fill="#b8c2cc" stroke="#333"/><rect x="605" y="312" width="22" height="16" fill="#b8c2cc" stroke="#333"/><rect x="521" y="312" width="22" height="16" fill="#b8c2cc" stroke="#333"/><rect x="449" y="324" width="22" height="16" fill="#b8c2cc" stroke="#333"/><rect x="641" y="384" width="22" height="16" fill="#b8c2cc" stroke="#333"/><rect x="581" y="432" width="22" height="16" fill="#b8c2cc" stroke="#333"/><rect x="401" y="360" width="22" height="16" fill="#b8c2cc" stroke="#333"/><rect x="497" y="372" width="22" height="16" fill="#b8c2cc" stroke="#333"/><circle cx="168" cy="495" r="6" fill="#e8862a" stroke="#333"/><text x="381" y="432" font-size="13" fill="#fff" text-anchor="middle" stroke="#000" stroke-width="0.4">Tiong Bahru Market</text><text x="480" y="20" font-size="16" fill="#fff" text-anchor="middle">22: Tiong Bahru Estate</text></svg>