<svg xmlns="http://www.w3.org/2000/svg" width="960" height="600" viewBox="0 0 960 600"><rect width="960" height="600" fill="#6aa03c"/><polygon points="99,291 68,287 43,289 19,303 6,327 -58,292 -61,279 -58,261 -45,243 -20,260 30,200 136,251 127,270 147,280 141,290 196,323 147,406 76,368 99,331 82,320 99,291" fill="#4c8a2c" opacity="0.7"/><polygon points="721,505 704,649 714,658 703,789 740,792 751,682 748,670 770,480 721,505" fill="#4c8a2c" opacity="0.7"/><polygon points="864,134 900,164 843,230 778,268 738,263 757,240 762,244 786,218 801,208 807,200 808,189 802,175 818,154 832,164 844,162 864,134" fill="#4c8a2c" opacity="0.7"/><polygon points="745,102 818,154 835,131 855,145 864,134 844,109 836,62 836,44 825,26 814,20 808,20 795,37 810,51 812,60 808,68 796,73 776,64 745,102" fill="#4c8a2c" opacity="0.7"/><polygon points="940,-40 1017,-51 1053,-111 1050,-123 997,-154 986,-131 996,-124 996,-111 985,-104 974,-107 940,-40" fill="#4c8a2c" opacity="0.7"/><polygon points="946,60 949,58 948,18 940,13 936,4 939,-4 945,-10 935,-31 881,42 879,57 946,60" fill="#4c8a2c" opacity="0.7"/><polygon points="946,-35 1014,-44 984,2 966,1 961,-8 951,-11 943,-28 946,-35" fill="#4c8a2c" opacity="0.7"/><polygon points="872,70 874,62 904,73 947,65 938,85 928,88 912,86 904,90 891,106 880,93 872,70" fill="#4c8a2c" opacity="0.7"/><polygon points="984,281 1008,282 1010,302 976,389 966,391 964,385 969,384 969,379 973,378 975,341 982,341 983,335 992,335 998,320 997,294 993,285 984,285 984,281" fill="#4c8a2c" opacity="0.7"/><polygon points="331,18 289,81 254,57 295,-6 331,18" fill="#9aa0a8"/><polygon points="171,270 164,282 193,298 184,313 143,289 159,263 171,270" fill="#9aa0a8"/><polygon points="82,323 64,352 78,361 96,332 82,323" fill="#9aa0a8"/><polygon points="866,-103 847,-69 882,-49 901,-83 866,-103" fill="#3d8b46" stroke="#fff"/><polygon points="25,52 34,59 -6,104 -14,97 25,52" fill="#3ec6e8"/><polygon points="901,270 908,275 924,248 920,247 901,270" fill="#3ec6e8"/><polygon points="-26,176 -19,182 -87,262 -94,256 -26,176" fill="#2e7bb4"/><polygon points="1731,506 1671,552 1662,565 1644,596 1637,618 1631,667 1574,751 1517,798 1489,836 1473,846 1459,847 1455,853 1460,857 1441,885 1445,887 1457,877 1469,878 1476,890 1474,907 1462,926 1436,952 1393,1018 1388,1037 1376,1057 1365,1069 1357,1068 1353,1062 1357,1080 1352,1081 1353,1097 1341,1113 1317,1131 1161,1031 1199,971 1174,956 1154,864 1061,882 1037,866 999,925 933,885 940,875 948,874 956,861 962,863 962,871 968,873 967,829 1050,833 1054,761 1023,760 1021,798 988,796 991,752 1054,756 1057,695 1012,692 1015,647 1053,648 1053,656 1066,657 1069,598 1009,593 1009,581 1007,578 1015,578 1016,563 1022,563 1023,538 1017,538 1018,532 1032,533 1034,513 1020,513 1021,501 1026,501 1027,491 1069,486 1137,295 1139,295 1138,300 1143,301 1163,261 1152,253 1148,214 1160,210 1179,227 1189,217 1168,198 1092,225 1137,-51 1159,-45 1213,-49 1311,-45 1318,-36 1314,-32 1324,-23 1341,-16 1352,-16 1378,-23 1384,-27 1382,-32 1391,-41 1527,-34 1548,-20 1574,33 1600,73 1616,92 1662,121 1727,124 1917,115 1921,-13 1925,-17 2067,-8 2208,-4 2418,8 2471,6 2536,-38 2570,-100 2575,-181 2487,-851 2464,-959 2475,-1030 2450,-1047 2453,-1052 2478,-1036 2483,-1086 2442,-1088 2439,-1108 2439,-1133 2449,-1230 2493,-1359 2512,-1397 2561,-1466 2633,-1538 2749,-1629 2777,-1647 2815,-1685 2830,-1670 2836,-1676 2820,-1691 2856,-1733 2894,-1742 2900,-1738 2908,-1741 2938,-1795 2935,-1805 2922,-1812 2918,-1832 2928,-1859 2935,-1902 2934,-1953 2929,-1980 3011,-2005 3012,-1939 3020,-1939 3018,-2019 2943,-2136 2917,-2149 2915,-2143 2934,-2135 2912,-2123 2901,-2121 2881,-2124 2815,-2146 2734,-2239 2741,-2257 2792,-2302 2795,-2307 2785,-2312 2828,-2304 2831,-2287 2839,-2281 2855,-2280 2882,-2290 2916,-2308 2992,-2421 3033,-2491 3193,-2658 3207,-2702 3223,-2710 3195,-2888 3195,-2913 3252,-2989 3251,-3009 3246,-3019 3331,-3061 3342,-3041 3358,-3020 3359,-2991 3346,-2963 3315,-2918 3310,-2892 3310,-2876 3331,-2758 3346,-2731 3345,-2621 3326,-2565 3257,-2489 3236,-2484 3182,-2420 3166,-2418 3159,-2389 3108,-2306 3097,-2291 3094,-2297 3088,-2295 3108,-2243 3181,-2131 3367,-2149 3529,-2115 3529,-2087 3518,-2065 3526,-1941 3548,-1833 3597,-1718 3683,-1602 3719,-1568 3788,-1522 3709,-1401 3655,-1437 3640,-1439 3630,-1424 3636,-1412 3653,-1412 3659,-1420 3704,-1388 3699,-1364 3592,-1348 3542,-1457 3410,-1458 3430,-1415 3482,-1413 3498,-1376 3339,-1322 3204,-1301 2916,-1298 2916,-1334 2896,-1351 2874,-1362 2849,-1368 2827,-1368 2805,-1364 2783,-1354 2759,-1335 2742,-1313 2718,-1232 2707,-1167 2703,-1110 2711,-991 2721,-931 2761,-755 2783,-669 2810,-585 2882,-382 2949,-230 3022,-79 3109,74 3199,218 3312,378 3434,528 3492,592 3651,759 3760,861 3454,1087 3441,1070 3436,1072 3337,929 3308,951 3198,851 3188,866 3170,854 3181,841 2996,699 2979,699 2969,695 2926,661 2885,639 2850,616 2598,475 2513,443 2291,388 2276,383 2245,364 2139,329 2041,308 1918,270 1922,259 1873,243 1871,248 1824,235 1788,239 1756,255 1732,280 1717,315 1715,332 1719,369 1743,409 1747,428 1742,468 1734,488 1731,506" fill="#2e7bb4"/><polygon points="-1445,-253 -1448,-272 -1446,-283 -1407,-388 -1402,-431 -1429,-501 -1441,-515 -1453,-525 -1476,-525 -1489,-521 -1592,-518 -1681,-507 -1701,-514 -1711,-532 -1664,-537 -1582,-552 -1469,-565 -1440,-562 -1413,-547 -1391,-516 -1370,-442 -1363,-398 -1394,-292 -1400,-264 -1394,-253 -1384,-243 -1343,-225 -1277,-212 -1169,-162 -1032,-123 -979,-127 -936,-143 -916,-157 -889,-189 -845,-258 -833,-270 -789,-292 -724,-315 -723,-311 -705,-318 -706,-321 -697,-323 -674,-323 -589,-310 -535,-315 -508,-325 -393,-347 -364,-363 -341,-370 -315,-372 -303,-373 -281,-360 -216,-291 -194,-275 -196,-247 -194,-218 -186,-191 -169,-142 -160,-132 -144,-122 -116,-123 -115,-127 -100,-131 -47,-156 -12,-180 22,-209 76,-219 174,-216 228,-208 322,-177 350,-159 347,-154 396,-123 399,-129 480,-79 493,-61 494,-46 536,3 591,80 587,82 661,171 714,243 732,262 757,269 777,270 799,262 841,235 924,137 937,118 937,103 988,9 1005,6 1004,0 1006,-1 1005,-6 1009,-7 1007,-15 1017,-16 1015,-22 1019,-23 1018,-28 1022,-28 1020,-37 1034,-39 1032,-47 1037,-48 1036,-52 1083,-60 1137,-51 1092,225 1017,169 1020,152 1035,125 1029,120 1001,147 973,153 974,163 970,171 977,180 915,237 883,284 886,288 861,308 867,317 844,330 845,333 797,360 795,358 757,378 726,384 726,387 615,369 572,356 503,279 481,239 464,192 459,164 457,124 464,64 438,-42 381,-84 273,-134 212,-154 201,-157 194,-152 135,-163 112,-161 84,-151 -1,-110 -105,-69 -126,-56 -153,-63 -202,-90 -225,-113 -248,-153 -258,-173 -269,-216 -265,-274 -268,-297 -300,-317 -322,-319 -343,-318 -382,-291 -470,-267 -590,-266 -742,-257 -769,-244 -780,-235 -838,-155 -881,-120 -931,-94 -981,-80 -1031,-79 -1064,-84 -1118,-103 -1227,-124 -1274,-154 -1383,-194 -1409,-208 -1435,-234 -1445,-253" fill="#2e7bb4"/><polyline points="287,90 310,106 318,123" fill="none" stroke="#8a8f98" stroke-width="5" stroke-linecap="round"/><polyline points="320,338 307,339 299,344 282,379" fill="none" stroke="#8a8f98" stroke-width="3" stroke-linecap="round"/><polyline points="358,417 282,379" fill="none" stroke="#8a8f98" stroke-width="3" stroke-linecap="round"/><polyline points="122,103 154,58" fill="none" stroke="#8a8f98" stroke-width="3" stroke-linecap="round"/><polyline points="57,101 43,103 39,101 36,95 36,89" fill="none" stroke="#8a8f98" stroke-width="10" stroke-linecap="round"/><polyline points="403,741 299,629" fill="none" stroke="#8a8f98" stroke-width="3" stroke-linecap="round"/><polyline points="248,642 256,644 286,639 325,608 364,550" fill="none" stroke="#8a8f98" stroke-width="3" stroke-linecap="round"/><polyline points="320,338 227,288" fill="none" stroke="#8a8f98" stroke-width="8" stroke-linecap="round"/><polyline points="235,469 309,511" fill="none" stroke="#8a8f98" stroke-width="10" stroke-linecap="round"/><polyline points="318,123 283,186" fill="none" stroke="#8a8f98" stroke-width="8" stroke-linecap="round"/><polyline points="57,101 9,158" fill="none" stroke="#8a8f98" stroke-width="10" stroke-linecap="round"/><polyline points="-12,143 36,89" fill="none" stroke="#8a8f98" stroke-width="10" stroke-linecap="round"/><polyline points="154,58 245,116" fill="none" stroke="#8a8f98" stroke-width="3" stroke-linecap="round"/><polyline points="287,90 265,128" fill="none" stroke="#8a8f98" stroke-width="3" stroke-linecap="round"/><polyline points="84,143 111,96" fill="none" stroke="#8a8f98" stroke-width="3" stroke-linecap="round"/><polyline points="309,548 292,579" fill="none" stroke="#8a8f98" stroke-width="8" stroke-linecap="round"/><polyline points="302,549 321,517" fill="none" stroke="#8a8f98" stroke-width="8" stroke-linecap="round"/><polyline points="277,296 317,316" fill="none" stroke="#8a8f98" stroke-width="8" stroke-linecap="round"/><polyline points="237,171 111,96" fill="none" stroke="#8a8f98" stroke-width="5" stroke-linecap="round"/><polyline points="283,186 270,189 263,187 242,175" fill="none" stroke="#8a8f98" stroke-width="5" stroke-linecap="round"/><polyline points="-12,143 9,158" fill="none" stroke="#8a8f98" stroke-width="8" stroke-linecap="round"/><polyline points="112,477 82,461" fill="none" stroke="#8a8f98" stroke-width="5" stroke-linecap="round"/><polyline points="194,255 242,175" fill="none" stroke="#8a8f98" stroke-width="3" stroke-linecap="round"/><polyline points="-64,302 -26,323" fill="none" stroke="#8a8f98" stroke-width="10" stroke-linecap="round"/><polyline points="147,419 189,442" fill="none" stroke="#8a8f98" stroke-width="10" stroke-linecap="round"/><polyline points="227,288 170,257" fill="none" stroke="#8a8f98" stroke-width="8" stroke-linecap="round"/><polyline points="-21,155 -12,143" fill="none" stroke="#8a8f98" stroke-width="10" stroke-linecap="round"/><polyline points="9,158 -1,169" fill="none" stroke="#8a8f98" stroke-width="10" stroke-linecap="round"/><polyline points="-1,169 -9,180" fill="none" stroke="#8a8f98" stroke-width="10" stroke-linecap="round"/><polyline points="9,158 59,187" fill="none" stroke="#8a8f98" stroke-width="8" stroke-linecap="round"/><polyline points="-1,169 -21,155" fill="none" stroke="#8a8f98" stroke-width="8" stroke-linecap="round"/><polyline points="27,430 -31,524" fill="none" stroke="#8a8f98" stroke-width="3" stroke-linecap="round"/><polyline points="59,187 84,143" fill="none" stroke="#8a8f98" stroke-width="3" stroke-linecap="round"/><polyline points="292,579 287,576" fill="none" stroke="#8a8f98" stroke-width="8" stroke-linecap="round"/><polyline points="112,477 165,506" fill="none" stroke="#8a8f98" stroke-width="3" stroke-linecap="round"/><polyline points="248,642 76,539" fill="none" stroke="#8a8f98" stroke-width="3" stroke-linecap="round"/><polyline points="227,288 176,372" fill="none" stroke="#8a8f98" stroke-width="8" stroke-linecap="round"/><polyline points="234,276 277,296" fill="none" stroke="#8a8f98" stroke-width="8" stroke-linecap="round"/><polyline points="82,212 66,203" fill="none" stroke="#8a8f98" stroke-width="8" stroke-linecap="round"/><polyline points="234,276 227,288" fill="none" stroke="#8a8f98" stroke-width="8" stroke-linecap="round"/><polyline points="283,186 234,276" fill="none" stroke="#8a8f98" stroke-width="8" stroke-linecap="round"/><polyline points="176,372 147,419" fill="none" stroke="#8a8f98" stroke-width="8" stroke-linecap="round"/><polyline points="112,477 71,548" fill="none" stroke="#8a8f98" stroke-width="8" stroke-linecap="round"/><polyline points="40,599 2,667" fill="none" stroke="#8a8f98" stroke-width="8" stroke-linecap="round"/><polyline points="-56,196 -30,165" fill="none" stroke="#8a8f98" stroke-width="10" stroke-linecap="round"/><polyline points="-41,218 -56,236" fill="none" stroke="#8a8f98" stroke-width="10" stroke-linecap="round"/><polyline points="46,364 60,371" fill="none" stroke="#8a8f98" stroke-width="10" stroke-linecap="round"/><polyline points="-9,180 -41,218" fill="none" stroke="#8a8f98" stroke-width="10" stroke-linecap="round"/><polyline points="-30,165 -21,155" fill="none" stroke="#8a8f98" stroke-width="10" stroke-linecap="round"/><polyline points="-121,471 -31,524" fill="none" stroke="#8a8f98" stroke-width="3" stroke-linecap="round"/><polyline points="2,667 -38,643" fill="none" stroke="#8a8f98" stroke-width="10" stroke-linecap="round"/><polyline points="147,419 112,477" fill="none" stroke="#8a8f98" stroke-width="8" stroke-linecap="round"/><polyline points="194,255 234,276" fill="none" stroke="#8a8f98" stroke-width="8" stroke-linecap="round"/><polyline points="282,379 257,426" fill="none" stroke="#8a8f98" stroke-width="3" stroke-linecap="round"/><polyline points="170,257 118,230" fill="none" stroke="#8a8f98" stroke-width="8" stroke-linecap="round"/><polyline points="287,576 302,549" fill="none" stroke="#8a8f98" stroke-width="8" stroke-linecap="round"/><polyline points="208,700 244,640 278,590" fill="none" stroke="#8a8f98" stroke-width="8" stroke-linecap="round"/><polyline points="287,576 165,506" fill="none" stroke="#8a8f98" stroke-width="3" stroke-linecap="round"/><polyline points="292,579 248,642" fill="none" stroke="#8a8f98" stroke-width="8" stroke-linecap="round"/><polyline points="-38,643 -85,615" fill="none" stroke="#8a8f98" stroke-width="10" stroke-linecap="round"/><polyline points="-31,524 -65,581" fill="none" stroke="#8a8f98" stroke-width="3" stroke-linecap="round"/><polyline points="118,230 82,212" fill="none" stroke="#8a8f98" stroke-width="8" stroke-linecap="round"/><polyline points="-21,155 -79,117" fill="none" stroke="#8a8f98" stroke-width="8" stroke-linecap="round"/><polyline points="-74,102 -12,143" fill="none" stroke="#8a8f98" stroke-width="8" stroke-linecap="round"/><polyline points="82,461 55,445" fill="none" stroke="#8a8f98" stroke-width="5" stroke-linecap="round"/><polyline points="55,445 27,430" fill="none" stroke="#8a8f98" stroke-width="5" stroke-linecap="round"/><polyline points="2,416 -58,383" fill="none" stroke="#8a8f98" stroke-width="5" stroke-linecap="round"/><polyline points="27,430 2,416" fill="none" stroke="#8a8f98" stroke-width="5" stroke-linecap="round"/><polyline points="59,187 194,255" fill="none" stroke="#8a8f98" stroke-width="8" stroke-linecap="round"/><polyline points="265,128 237,171" fill="none" stroke="#8a8f98" stroke-width="3" stroke-linecap="round"/><polyline points="71,548 40,599" fill="none" stroke="#8a8f98" stroke-width="8" stroke-linecap="round"/><polyline points="60,371 86,323" fill="none" stroke="#8a8f98" stroke-width="3" stroke-linecap="round"/><polyline points="116,161 217,217" fill="none" stroke="#8a8f98" stroke-width="3" stroke-linecap="round"/><polyline points="278,590 287,576" fill="none" stroke="#8a8f98" stroke-width="8" stroke-linecap="round"/><polyline points="257,426 235,469" fill="none" stroke="#8a8f98" stroke-width="3" stroke-linecap="round"/><polyline points="210,455 235,469" fill="none" stroke="#8a8f98" stroke-width="10" stroke-linecap="round"/><polyline points="-26,323 46,364" fill="none" stroke="#8a8f98" stroke-width="10" stroke-linecap="round"/><polyline points="242,175 237,171" fill="none" stroke="#8a8f98" stroke-width="5" stroke-linecap="round"/><polyline points="66,203 -1,169" fill="none" stroke="#8a8f98" stroke-width="8" stroke-linecap="round"/><polyline points="40,599 100,635" fill="none" stroke="#8a8f98" stroke-width="3" stroke-linecap="round"/><polyline points="60,371 147,419" fill="none" stroke="#8a8f98" stroke-width="10" stroke-linecap="round"/><polyline points="184,458 182,465 185,470 248,506 255,507 261,503" fill="none" stroke="#8a8f98" stroke-width="3" stroke-linecap="round"/><polyline points="189,442 210,455" fill="none" stroke="#8a8f98" stroke-width="10" stroke-linecap="round"/><polyline points="248,642 212,702" fill="none" stroke="#8a8f98" stroke-width="8" stroke-linecap="round"/><polyline points="-35,363 -41,368 -51,366 -55,360 -53,350 -46,347 -39,348 -34,357 -35,363" fill="none" stroke="#8a8f98" stroke-width="3" stroke-linecap="round"/><polyline points="636,124 685,59" fill="none" stroke="#8a8f98" stroke-width="3" stroke-linecap="round"/><polyline points="745,102 816,1" fill="none" stroke="#8a8f98" stroke-width="3" stroke-linecap="round"/><polyline points="375,79 379,106 380,162" fill="none" stroke="#8a8f98" stroke-width="5" stroke-linecap="round"/><polyline points="685,59 752,107" fill="none" stroke="#8a8f98" stroke-width="5" stroke-linecap="round"/><polyline points="915,134 878,95 872,80 871,59" fill="none" stroke="#8a8f98" stroke-width="3" stroke-linecap="round"/><polyline points="509,-48 556,13 654,150" fill="none" stroke="#8a8f98" stroke-width="3" stroke-linecap="round"/><polyline points="743,110 745,102 784,53 819,2 808,-10 793,13 800,18 789,34 782,29 763,56 770,61 759,76 752,72 747,80 738,74 740,71 700,44 704,37 697,33 710,14 716,18 720,12 723,14 732,-3 725,-7 739,-27 745,-24 749,-30 712,-53 704,-43 709,-39 701,-28 709,-21 704,-14 706,-12 690,9 683,5 671,21 665,16 656,26 655,33 659,43 663,46 668,40 676,46 662,65 668,69 662,77 656,72 645,88 640,83 634,89 628,83 612,100 654,150 668,132 654,123 663,110 654,104 661,93 669,99 688,72 705,84 686,111 709,126 723,107 737,117 743,110" fill="none" stroke="#8a8f98" stroke-width="3" stroke-linecap="round"/><polyline points="808,20 819,2 847,29 869,44 866,61 872,91 883,108 912,138 900,154 879,137 874,143 853,122 844,109 836,62 836,44 825,26 814,20 808,20" fill="none" stroke="#8a8f98" stroke-width="3" stroke-linecap="round"/><polyline points="462,301 438,258 417,196 413,172 414,87 402,40" fill="none" stroke="#8a8f98" stroke-width="3" stroke-linecap="round"/><polyline points="442,9 451,63 445,118 446,145 457,195 473,235 497,279" fill="none" stroke="#8a8f98" stroke-width="3" stroke-linecap="round"/><polyline points="349,74 318,123" fill="none" stroke="#8a8f98" stroke-width="8" stroke-linecap="round"/><polyline points="461,413 431,397" fill="none" stroke="#8a8f98" stroke-width="8" stroke-linecap="round"/><polyline points="953,472 952,459 949,454 944,449 922,441" fill="none" stroke="#8a8f98" stroke-width="8" stroke-linecap="round"/><polyline points="317,316 368,218" fill="none" stroke="#8a8f98" stroke-width="5" stroke-linecap="round"/><polyline points="382,369 358,417" fill="none" stroke="#8a8f98" stroke-width="3" stroke-linecap="round"/><polyline points="928,415 927,403 915,382" fill="none" stroke="#8a8f98" stroke-width="5" stroke-linecap="round"/><polyline points="475,395 470,406 461,413" fill="none" stroke="#8a8f98" stroke-width="5" stroke-linecap="round"/><polyline points="363,543 410,570 440,594" fill="none" stroke="#8a8f98" stroke-width="10" stroke-linecap="round"/><polyline points="533,719 565,720 572,717 576,710 579,646 582,642" fill="none" stroke="#8a8f98" stroke-width="3" stroke-linecap="round"/><polyline points="539,456 527,461 518,476" fill="none" stroke="#8a8f98" stroke-width="5" stroke-linecap="round"/><polyline points="720,487 721,478" fill="none" stroke="#8a8f98" stroke-width="5" stroke-linecap="round"/><polyline points="853,353 872,395 868,424" fill="none" stroke="#8a8f98" stroke-width="5" stroke-linecap="round"/><polyline points="624,475 592,471" fill="none" stroke="#8a8f98" stroke-width="8" stroke-linecap="round"/><polyline points="396,248 407,277 435,319" fill="none" stroke="#8a8f98" stroke-width="5" stroke-linecap="round"/><polyline points="743,258 757,240 762,244 786,218 801,208 807,200 808,189 802,175 818,154" fill="none" stroke="#8a8f98" stroke-width="3" stroke-linecap="round"/><polyline points="829,224 847,213 893,163" fill="none" stroke="#8a8f98" stroke-width="3" stroke-linecap="round"/><polyline points="875,149 905,117" fill="none" stroke="#8a8f98" stroke-width="3" stroke-linecap="round"/><polyline points="533,331 507,352 499,353" fill="none" stroke="#8a8f98" stroke-width="3" stroke-linecap="round"/><polyline points="1001,162 1029,124" fill="none" stroke="#8a8f98" stroke-width="3" stroke-linecap="round"/><polyline points="748,674 763,558 745,555" fill="none" stroke="#8a8f98" stroke-width="3" stroke-linecap="round"/><polyline points="752,107 818,154" fill="none" stroke="#8a8f98" stroke-width="5" stroke-linecap="round"/><polyline points="387,725 473,643 454,618" fill="none" stroke="#8a8f98" stroke-width="3" stroke-linecap="round"/><polyline points="965,204 901,153" fill="none" stroke="#8a8f98" stroke-width="3" stroke-linecap="round"/><polyline points="1069,479 1065,483 1028,486 1018,493 1006,522 999,583 991,589 976,592 967,610" fill="none" stroke="#8a8f98" stroke-width="3" stroke-linecap="round"/><polyline points="501,588 516,587 532,582 538,572 557,465" fill="none" stroke="#8a8f98" stroke-width="3" stroke-linecap="round"/><polyline points="478,422 476,414 476,406 481,399 488,396" fill="none" stroke="#8a8f98" stroke-width="8" stroke-linecap="round"/><polyline points="503,394 527,383 558,363" fill="none" stroke="#8a8f98" stroke-width="3" stroke-linecap="round"/><polyline points="828,221 875,149" fill="none" stroke="#8a8f98" stroke-width="3" stroke-linecap="round"/><polyline points="757,195 736,224 762,244 786,218 801,208 807,200 808,189 802,175 818,154 745,102 743,110 749,114 734,135 759,153 765,145 782,158 777,166 793,178 790,183 797,188 785,206 777,201 773,206 757,195" fill="none" stroke="#8a8f98" stroke-width="3" stroke-linecap="round"/><polyline points="654,150 713,235 743,258 757,263 773,263 787,258 828,221" fill="none" stroke="#8a8f98" stroke-width="3" stroke-linecap="round"/><polyline points="558,363 591,380 625,386" fill="none" stroke="#8a8f98" stroke-width="3" stroke-linecap="round"/><polyline points="497,279 558,363" fill="none" stroke="#8a8f98" stroke-width="3" stroke-linecap="round"/><polyline points="470,621 490,644" fill="none" stroke="#8a8f98" stroke-width="10" stroke-linecap="round"/><polyline points="557,465 539,456" fill="none" stroke="#8a8f98" stroke-width="8" stroke-linecap="round"/><polyline points="539,456 478,422" fill="none" stroke="#8a8f98" stroke-width="8" stroke-linecap="round"/><polyline points="317,316 475,395" fill="none" stroke="#8a8f98" stroke-width="8" stroke-linecap="round"/><polyline points="897,649 911,613" fill="none" stroke="#8a8f98" stroke-width="13" stroke-linecap="round"/><polyline points="911,613 928,565" fill="none" stroke="#8a8f98" stroke-width="13" stroke-linecap="round"/><polyline points="977,459 1013,373" fill="none" stroke="#8a8f98" stroke-width="13" stroke-linecap="round"/><polyline points="868,424 851,428 741,484 734,486" fill="none" stroke="#8a8f98" stroke-width="8" stroke-linecap="round"/><polyline points="931,634 925,654" fill="none" stroke="#8a8f98" stroke-width="13" stroke-linecap="round"/><polyline points="1001,506 995,521 992,583 999,583 998,606" fill="none" stroke="#8a8f98" stroke-width="3" stroke-linecap="round"/><polyline points="986,189 1001,162 1041,193" fill="none" stroke="#8a8f98" stroke-width="3" stroke-linecap="round"/><polyline points="833,234 871,300" fill="none" stroke="#8a8f98" stroke-width="3" stroke-linecap="round"/><polyline points="966,636 965,648 972,670 971,689" fill="none" stroke="#8a8f98" stroke-width="3" stroke-linecap="round"/><polyline points="1053,644 1002,641 1002,647" fill="none" stroke="#8a8f98" stroke-width="3" stroke-linecap="round"/><polyline points="382,369 320,338" fill="none" stroke="#8a8f98" stroke-width="8" stroke-linecap="round"/><polyline points="478,422 461,413" fill="none" stroke="#8a8f98" stroke-width="8" stroke-linecap="round"/><polyline points="431,397 382,369" fill="none" stroke="#8a8f98" stroke-width="8" stroke-linecap="round"/><polyline points="358,417 331,470" fill="none" stroke="#8a8f98" stroke-width="3" stroke-linecap="round"/><polyline points="928,415 922,441" fill="none" stroke="#8a8f98" stroke-width="5" stroke-linecap="round"/><polyline points="922,441 890,431" fill="none" stroke="#8a8f98" stroke-width="8" stroke-linecap="round"/><polyline points="580,638 585,557" fill="none" stroke="#8a8f98" stroke-width="5" stroke-linecap="round"/><polyline points="934,549 977,459" fill="none" stroke="#8a8f98" stroke-width="13" stroke-linecap="round"/><polyline points="321,517 326,520" fill="none" stroke="#8a8f98" stroke-width="10" stroke-linecap="round"/><polyline points="309,511 321,517" fill="none" stroke="#8a8f98" stroke-width="10" stroke-linecap="round"/><polyline points="326,520 309,548" fill="none" stroke="#8a8f98" stroke-width="8" stroke-linecap="round"/><polyline points="380,162 380,194" fill="none" stroke="#8a8f98" stroke-width="5" stroke-linecap="round"/><polyline points="934,549 953,472" fill="none" stroke="#8a8f98" stroke-width="8" stroke-linecap="round"/><polyline points="928,565 934,549" fill="none" stroke="#8a8f98" stroke-width="13" stroke-linecap="round"/><polyline points="490,644 518,694" fill="none" stroke="#8a8f98" stroke-width="10" stroke-linecap="round"/><polyline points="518,476 496,557" fill="none" stroke="#8a8f98" stroke-width="5" stroke-linecap="round"/><polyline points="490,578 487,589" fill="none" stroke="#8a8f98" stroke-width="5" stroke-linecap="round"/><polyline points="487,589 470,621" fill="none" stroke="#8a8f98" stroke-width="5" stroke-linecap="round"/><polyline points="723,463 727,435" fill="none" stroke="#8a8f98" stroke-width="5" stroke-linecap="round"/><polyline points="727,435 732,395" fill="none" stroke="#8a8f98" stroke-width="5" stroke-linecap="round"/><polyline points="1022,416 975,520 931,634" fill="none" stroke="#8a8f98" stroke-width="13" stroke-linecap="round"/><polyline points="732,395 825,353 869,325 885,296 889,279 923,239 943,228 973,227 978,221 974,216" fill="none" stroke="#8a8f98" stroke-width="3" stroke-linecap="round"/><polyline points="589,508 592,471" fill="none" stroke="#8a8f98" stroke-width="5" stroke-linecap="round"/><polyline points="589,514 589,508" fill="none" stroke="#8a8f98" stroke-width="5" stroke-linecap="round"/><polyline points="890,431 883,467 884,485 864,552" fill="none" stroke="#8a8f98" stroke-width="3" stroke-linecap="round"/><polyline points="777,481 813,464 811,485 773,516 777,481" fill="none" stroke="#8a8f98" stroke-width="3" stroke-linecap="round"/><polyline points="478,422 461,424 449,419 439,411 431,397" fill="none" stroke="#8a8f98" stroke-width="3" stroke-linecap="round"/><polyline points="490,644 456,674" fill="none" stroke="#8a8f98" stroke-width="5" stroke-linecap="round"/><polyline points="621,648 586,644 580,638" fill="none" stroke="#8a8f98" stroke-width="5" stroke-linecap="round"/><polyline points="662,652 621,648" fill="none" stroke="#8a8f98" stroke-width="5" stroke-linecap="round"/><polyline points="496,557 490,578" fill="none" stroke="#8a8f98" stroke-width="5" stroke-linecap="round"/><polyline points="326,520 363,543" fill="none" stroke="#8a8f98" stroke-width="10" stroke-linecap="round"/><polyline points="592,471 557,465" fill="none" stroke="#8a8f98" stroke-width="8" stroke-linecap="round"/><polyline points="587,541 589,514" fill="none" stroke="#8a8f98" stroke-width="5" stroke-linecap="round"/><polyline points="585,557 587,541" fill="none" stroke="#8a8f98" stroke-width="5" stroke-linecap="round"/><polyline points="868,726 880,699 897,649" fill="none" stroke="#8a8f98" stroke-width="13" stroke-linecap="round"/><polyline points="966,544 968,590" fill="none" stroke="#8a8f98" stroke-width="3" stroke-linecap="round"/><polyline points="499,353 462,301" fill="none" stroke="#8a8f98" stroke-width="3" stroke-linecap="round"/><polyline points="449,341 473,378" fill="none" stroke="#8a8f98" stroke-width="5" stroke-linecap="round"/><polyline points="473,378 475,395" fill="none" stroke="#8a8f98" stroke-width="5" stroke-linecap="round"/><polyline points="380,194 396,248" fill="none" stroke="#8a8f98" stroke-width="5" stroke-linecap="round"/><polyline points="368,218 380,194" fill="none" stroke="#8a8f98" stroke-width="5" stroke-linecap="round"/><polyline points="435,319 449,341" fill="none" stroke="#8a8f98" stroke-width="5" stroke-linecap="round"/><polyline points="915,382 890,329 891,304" fill="none" stroke="#8a8f98" stroke-width="5" stroke-linecap="round"/><polyline points="613,647 617,603 641,603" fill="none" stroke="#8a8f98" stroke-width="3" stroke-linecap="round"/><polyline points="646,548 587,541" fill="none" stroke="#8a8f98" stroke-width="3" stroke-linecap="round"/><polyline points="440,594 470,621" fill="none" stroke="#8a8f98" stroke-width="10" stroke-linecap="round"/><polyline points="734,486 720,487" fill="none" stroke="#8a8f98" stroke-width="8" stroke-linecap="round"/><polyline points="721,478 723,463" fill="none" stroke="#8a8f98" stroke-width="5" stroke-linecap="round"/><polyline points="890,431 868,424" fill="none" stroke="#8a8f98" stroke-width="8" stroke-linecap="round"/><polyline points="641,603 646,548" fill="none" stroke="#8a8f98" stroke-width="3" stroke-linecap="round"/><polyline points="697,484 694,492 689,494 633,486 624,475" fill="none" stroke="#8a8f98" stroke-width="3" stroke-linecap="round"/><polyline points="1003,399 1017,386 1037,379" fill="none" stroke="#8a8f98" stroke-width="13" stroke-linecap="round"/><polyline points="1000,226 1029,267" fill="none" stroke="#8a8f98" stroke-width="3" stroke-linecap="round"/><polyline points="1032,253 1026,249 986,189" fill="none" stroke="#8a8f98" stroke-width="3" stroke-linecap="round"/><polyline points="720,487 624,475" fill="none" stroke="#8a8f98" stroke-width="8" stroke-linecap="round"/><polyline points="1000,226 983,220 975,209 972,201 977,195" fill="none" stroke="#8a8f98" stroke-width="3" stroke-linecap="round"/><polyline points="1009,593 976,592 987,511 991,498 1000,501 1008,476 1014,474 1014,490 1027,491 1026,501 1021,501 1020,513 1034,513 1032,533 1018,532 1017,538 1023,538 1022,563 1016,563 1015,578 1007,578 1009,581 1009,593" fill="none" stroke="#8a8f98" stroke-width="3" stroke-linecap="round"/><polyline points="581,624 573,615 575,585 584,578" fill="none" stroke="#8a8f98" stroke-width="3" stroke-linecap="round"/><polyline points="364,550 412,582 454,618" fill="none" stroke="#8a8f98" stroke-width="3" stroke-linecap="round"/><polyline points="643,389 702,397 732,395" fill="none" stroke="#8a8f98" stroke-width="3" stroke-linecap="round"/><polyline points="829,440 811,437 785,449 780,465" fill="none" stroke="#8a8f98" stroke-width="3" stroke-linecap="round"/><polyline points="115,-3 137,-9 147,-4" fill="none" stroke="#8a8f98" stroke-width="10" stroke-linecap="round"/><polyline points="60,62 89,27" fill="none" stroke="#8a8f98" stroke-width="10" stroke-linecap="round"/><polyline points="199,-69 147,-4" fill="none" stroke="#8a8f98" stroke-width="10" stroke-linecap="round"/><polyline points="147,-4 101,48" fill="none" stroke="#8a8f98" stroke-width="10" stroke-linecap="round"/><polyline points="115,-3 190,-95" fill="none" stroke="#8a8f98" stroke-width="10" stroke-linecap="round"/><polyline points="154,58 183,20" fill="none" stroke="#8a8f98" stroke-width="3" stroke-linecap="round"/><polyline points="288,-33 259,-57" fill="none" stroke="#8a8f98" stroke-width="5" stroke-linecap="round"/><polyline points="89,27 115,-3" fill="none" stroke="#8a8f98" stroke-width="10" stroke-linecap="round"/><polyline points="36,89 60,62" fill="none" stroke="#8a8f98" stroke-width="10" stroke-linecap="round"/><polyline points="96,89 74,81" fill="none" stroke="#8a8f98" stroke-width="5" stroke-linecap="round"/><polyline points="111,96 96,89" fill="none" stroke="#8a8f98" stroke-width="5" stroke-linecap="round"/><polyline points="147,-4 183,20" fill="none" stroke="#8a8f98" stroke-width="5" stroke-linecap="round"/><polyline points="183,20 192,26" fill="none" stroke="#8a8f98" stroke-width="5" stroke-linecap="round"/><polyline points="67,90 57,101" fill="none" stroke="#8a8f98" stroke-width="10" stroke-linecap="round"/><polyline points="101,48 74,81" fill="none" stroke="#8a8f98" stroke-width="10" stroke-linecap="round"/><polyline points="74,81 67,90" fill="none" stroke="#8a8f98" stroke-width="10" stroke-linecap="round"/><polyline points="192,26 257,69" fill="none" stroke="#8a8f98" stroke-width="5" stroke-linecap="round"/><polyline points="257,69 287,90" fill="none" stroke="#8a8f98" stroke-width="5" stroke-linecap="round"/><polyline points="-16,-40 -1,-47 26,-25 23,-8" fill="none" stroke="#8a8f98" stroke-width="3" stroke-linecap="round"/><polyline points="310,-15 288,-33" fill="none" stroke="#8a8f98" stroke-width="5" stroke-linecap="round"/><polyline points="454,-110 411,-41" fill="none" stroke="#8a8f98" stroke-width="8" stroke-linecap="round"/><polyline points="755,-56 740,-35" fill="none" stroke="#8a8f98" stroke-width="5" stroke-linecap="round"/><polyline points="411,-41 410,-29" fill="none" stroke="#8a8f98" stroke-width="8" stroke-linecap="round"/><polyline points="432,-33 442,9" fill="none" stroke="#8a8f98" stroke-width="3" stroke-linecap="round"/><polyline points="961,10 955,15 945,13 941,7 942,-2 949,-8 958,-6 962,0 961,10" fill="none" stroke="#8a8f98" stroke-width="3" stroke-linecap="round"/><polyline points="887,29 927,-20 936,-36 1045,-262 1072,-305 1104,-377 1118,-384 1135,-380" fill="none" stroke="#8a8f98" stroke-width="3" stroke-linecap="round"/><polyline points="851,18 852,9 858,4" fill="none" stroke="#8a8f98" stroke-width="5" stroke-linecap="round"/><polyline points="755,-56 786,-33" fill="none" stroke="#8a8f98" stroke-width="5" stroke-linecap="round"/><polyline points="695,-100 637,-8" fill="none" stroke="#8a8f98" stroke-width="3" stroke-linecap="round"/><polyline points="1023,-54 1006,-47 936,-36 949,-8" fill="none" stroke="#8a8f98" stroke-width="3" stroke-linecap="round"/><polyline points="928,91 939,85 1023,-54" fill="none" stroke="#8a8f98" stroke-width="3" stroke-linecap="round"/><polyline points="628,-89 596,-42 637,-8" fill="none" stroke="#8a8f98" stroke-width="3" stroke-linecap="round"/><polyline points="541,-47 555,-71 547,-86 547,-95 554,-107" fill="none" stroke="#8a8f98" stroke-width="3" stroke-linecap="round"/><polyline points="464,-103 421,-34" fill="none" stroke="#8a8f98" stroke-width="8" stroke-linecap="round"/><polyline points="421,-34 410,-29" fill="none" stroke="#8a8f98" stroke-width="8" stroke-linecap="round"/><polyline points="410,-29 383,23" fill="none" stroke="#8a8f98" stroke-width="8" stroke-linecap="round"/><polyline points="626,-91 606,-62 598,-62 586,-43 581,-47 577,-41 631,-4 637,-13 607,-34 640,-80 626,-91" fill="none" stroke="#8a8f98" stroke-width="3" stroke-linecap="round"/><polyline points="862,60 871,59 904,71 952,62 950,15" fill="none" stroke="#8a8f98" stroke-width="3" stroke-linecap="round"/><polyline points="383,23 375,36" fill="none" stroke="#8a8f98" stroke-width="8" stroke-linecap="round"/><polyline points="375,36 366,50" fill="none" stroke="#8a8f98" stroke-width="8" stroke-linecap="round"/><polyline points="366,50 349,74" fill="none" stroke="#8a8f98" stroke-width="8" stroke-linecap="round"/><polyline points="375,36 338,8" fill="none" stroke="#8a8f98" stroke-width="5" stroke-linecap="round"/><polyline points="637,-8 639,23 650,31" fill="none" stroke="#8a8f98" stroke-width="3" stroke-linecap="round"/><polyline points="338,8 310,-15" fill="none" stroke="#8a8f98" stroke-width="5" stroke-linecap="round"/><polyline points="740,-35 688,40 685,59" fill="none" stroke="#8a8f98" stroke-width="5" stroke-linecap="round"/><polyline points="795,-37 787,-46 790,-58 778,-69" fill="none" stroke="#8a8f98" stroke-width="3" stroke-linecap="round"/><polyline points="815,-14 858,4" fill="none" stroke="#8a8f98" stroke-width="5" stroke-linecap="round"/><polyline points="786,-33 809,-17" fill="none" stroke="#8a8f98" stroke-width="5" stroke-linecap="round"/><polyline points="366,50 375,79" fill="none" stroke="#8a8f98" stroke-width="5" stroke-linecap="round"/><polyline points="375,79 364,69 349,74" fill="none" stroke="#8a8f98" stroke-width="5" stroke-linecap="round"/><polyline points="851,18 815,-14" fill="none" stroke="#8a8f98" stroke-width="5" stroke-linecap="round"/><polyline points="809,-17 815,-14" fill="none" stroke="#8a8f98" stroke-width="5" stroke-linecap="round"/><polyline points="1098,-402 1098,-422 916,-83 930,-77 919,-55 906,-37 881,-11 896,0 924,-37 1098,-402" fill="none" stroke="#8a8f98" stroke-width="3" stroke-linecap="round"/><polyline points="860,27 851,18" fill="none" stroke="#8a8f98" stroke-width="5" stroke-linecap="round"/><polyline points="858,4 869,6 874,13 872,22 860,27" fill="none" stroke="#8a8f98" stroke-width="5" stroke-linecap="round"/><polyline points="509,-48 485,-82 471,-91" fill="none" stroke="#8a8f98" stroke-width="3" stroke-linecap="round"/><polygon points="179,-113 182,-120 179,-131 162,-142 159,-138 135,-141 118,-140 92,-131 -34,-72 -31,-64 -12,-45 -1,-51 30,-25 29,-19 37,-11 49,-6 46,-3 71,19 115,-32 104,-36 103,-46 105,-51 115,-53 124,-44 167,-95 179,-113" fill="#c8c2b8" stroke="#00000033"/><polygon points="363,428 344,465 359,473 355,481 348,480 341,483 337,490 338,503 343,508 392,535 399,536 412,529 412,514 383,495 386,489 447,520 465,485 475,490 463,532 492,541 515,464 510,463 512,456 497,455 486,460 472,479 478,481 476,486 452,474 455,468 468,470 477,460 475,449 467,444 470,436 428,416 425,422 414,420 404,427 405,441 413,447 410,452 363,428" fill="#c8c2b8" stroke="#00000033"/><polygon points="901,315 901,297 939,237 961,238 972,244 972,250 975,251 976,278 983,278 982,285 992,285 997,295 997,320 993,333 982,333 982,340 974,340 972,377 969,378 968,384 964,384 965,390 940,395 939,389 934,390 927,374 924,375 902,326 907,324 901,315" fill="#c8c2b8" stroke="#00000033"/><polygon points="103,644 195,699 171,740 160,743 28,666 26,658 51,614 103,644" fill="#c8c2b8" stroke="#00000033"/><polygon points="709,504 692,518 691,534 696,534 695,540 701,540 700,545 705,546 697,647 663,645 666,605 648,603 653,545 598,539 603,486 659,492 658,499 709,504" fill="#c8c2b8" stroke="#00000033"/><polygon points="842,547 838,569 766,557 761,609 843,624 844,619 888,635 911,561 842,547" fill="#c8c2b8" stroke="#00000033"/><polygon points="245,-92 245,-85 358,9 388,-29 385,-33 385,-58 366,-74 357,-69 354,-72 358,-80 349,-86 340,-77 338,-79 341,-85 335,-90 332,-89 305,-104 302,-102 285,-112 282,-111 269,-120 245,-92" fill="#c8c2b8" stroke="#00000033"/><polygon points="497,600 497,611 501,614 497,617 540,693 549,695 558,694 568,683 567,570 578,491 572,481 562,479 557,482 541,579 525,595 506,595 497,600" fill="#c8c2b8" stroke="#00000033"/><polygon points="688,72 705,84 686,111 709,126 723,107 737,117 743,110 749,114 734,135 759,153 765,145 782,158 777,166 793,178 790,183 797,188 785,206 777,201 773,206 757,195 736,224 718,212 726,201 701,183 719,158 744,175 748,170 716,148 703,167 688,156 697,144 682,133 666,155 656,149 668,132 654,123 663,110 654,104 661,93 669,99 688,72" fill="#c8c2b8" stroke="#00000033"/><polygon points="155,441 303,528 280,568 132,481 155,441" fill="#c8c2b8" stroke="#00000033"/><polygon points="-70,364 -50,328 118,423 110,434 102,455 97,456 -70,364" fill="#c8c2b8" stroke="#00000033"/><polygon points="359,566 352,578 358,585 354,588 359,594 356,597 360,601 342,613 380,659 356,681 389,719 440,672 418,646 415,649 410,643 431,626 410,603 408,605 392,589 359,566" fill="#c8c2b8" stroke="#00000033"/><polygon points="-115,-39 -119,-34 -118,-28 -114,-24 -118,-23 -116,6 -118,16 -113,20 -107,20 -110,24 -87,42 -83,52 -59,68 -65,75 -51,86 -48,82 -38,86 -28,75 -32,66 -29,62 -22,61 -12,49 -10,39 -1,41 8,30 8,24 0,17 -4,17 0,11 -25,-10 -30,-4 -32,-5 -33,-27 -60,-50 -61,-58 -70,-60 -74,-55 -73,-49 -64,-45 -71,-36 -48,-17 -47,-6 -53,0 -53,6 -46,14 -64,35 -72,30 -78,30 -101,12 -102,14 -103,9 -108,5 -99,4 -102,-25 -107,-24 -103,-29 -104,-36 -108,-39 -115,-39" fill="#c8c2b8" stroke="#00000033"/><polygon points="226,320 287,356 238,440 177,404 226,320" fill="#c8c2b8" stroke="#00000033"/><polygon points="770,515 766,557 838,569 842,547 851,547 856,488 811,485 770,515" fill="#c8c2b8" stroke="#00000033"/><polygon points="833,422 808,366 738,399 733,461 740,465 833,422" fill="#c8c2b8" stroke="#00000033"/><polygon points="587,427 589,406 592,407 594,394 673,401 673,406 678,408 672,412 670,430 684,445 683,450 679,449 678,454 673,454 673,459 667,459 666,464 587,455 590,428 587,427" fill="#ef8354" stroke="#00000033"/><polygon points="991,752 1054,756 1057,703 1004,700 1007,654 998,654 998,643 983,642 982,661 987,661 985,696 980,696 978,752 991,752" fill="#c8c2b8" stroke="#00000033"/><polygon points="-86,444 -17,487 -2,463 1,462 15,435 -57,396 -86,444" fill="#c8c2b8" stroke="#00000033"/><polygon points="619,-137 590,-94 584,-98 587,-103 577,-110 559,-84 563,-82 560,-78 566,-74 534,-22 553,-8 581,-47 586,-43 598,-62 606,-62 626,-91 618,-97 638,-124 619,-137" fill="#c8c2b8" stroke="#00000033"/><polygon points="26,446 32,445 87,475 91,486 72,520 61,524 5,488 4,484 26,446" fill="#c8c2b8" stroke="#00000033"/><polygon points="961,610 959,636 968,636 968,641 998,643 1002,647 1066,646 1067,612 1062,617 1060,610 994,606 994,594 983,593 983,607 970,606 969,611 961,610" fill="#c8c2b8" stroke="#00000033"/><polygon points="872,436 813,464 811,485 856,488 851,547 859,533 875,485 879,485 882,438 872,436" fill="#c8c2b8" stroke="#00000033"/><polygon points="874,673 867,698 751,666 758,641 874,673" fill="#c8c2b8" stroke="#00000033"/><polygon points="577,-41 631,-4 628,2 633,6 630,11 633,14 624,27 620,25 617,28 607,21 602,28 553,-8 577,-41" fill="#c8c2b8" stroke="#00000033"/><polygon points="687,-91 661,-109 607,-34 633,-15 687,-91" fill="#c8c2b8" stroke="#00000033"/><polygon points="697,-59 709,-50 704,-43 709,-39 701,-28 709,-21 704,-14 706,-12 690,9 683,5 671,21 665,16 658,24 646,15 652,7 649,5 661,-10 654,-15 660,-22 657,-25 667,-39 671,-36 677,-44 681,-40 697,-59" fill="#c8c2b8" stroke="#00000033"/><polygon points="20,26 -35,88 -11,110 44,48 20,26" fill="#c8c2b8" stroke="#00000033"/><polygon points="786,-97 813,-82 816,-70 830,-61 840,-65 867,-49 861,-33 859,-36 857,-31 837,-42 840,-46 833,-44 826,-32 819,-37 817,-35 812,-38 808,-31 801,-34 805,-41 800,-44 802,-47 793,-51 801,-63 798,-72 796,-66 776,-77 778,-82 775,-84 786,-97" fill="#c8c2b8" stroke="#00000033"/><polygon points="773,516 811,485 841,524 803,554 773,516" fill="#c8c2b8" stroke="#00000033"/><polygon points="868,395 866,407 834,420 810,370 847,352 868,395" fill="#c8c2b8" stroke="#00000033"/><polygon points="892,442 940,457 943,463 945,478 938,497 890,484 884,467 892,442" fill="#c8c2b8" stroke="#00000033"/><polygon points="592,564 587,639 609,640 612,591 636,592 638,567 592,564" fill="#c8c2b8" stroke="#00000033"/><polygon points="573,396 576,393 574,390 553,389 550,391 552,395 543,394 542,405 539,401 536,404 534,425 536,428 540,425 539,434 549,435 546,438 549,442 569,444 572,441 570,437 579,438 580,427 584,430 587,427 589,406 586,403 582,406 583,397 573,396" fill="#ef8354" stroke="#00000033"/><polygon points="782,575 835,581 834,609 820,608 820,614 771,608 764,597 764,587 771,579 782,575" fill="#c8c2b8" stroke="#00000033"/><polygon points="886,537 880,529 884,510 899,503 909,503 919,509 925,527 911,561 879,555 886,537" fill="#c8c2b8" stroke="#00000033"/><polygon points="123,585 104,616 150,643 168,612 123,585" fill="#c8c2b8" stroke="#00000033"/><polygon points="-129,137 -121,126 -118,128 -109,119 -46,160 -58,178 -129,137" fill="#c8c2b8" stroke="#00000033"/><polygon points="75,151 65,168 62,166 59,171 43,161 39,155 83,98 86,101 88,98 96,103 95,105 99,108 75,151" fill="#c8c2b8" stroke="#00000033"/><polygon points="259,454 255,456 257,462 299,482 303,481 304,474 307,476 315,462 311,460 314,457 313,452 271,431 267,433 267,440 264,438 257,451 259,454" fill="#c8c2b8" stroke="#00000033"/><polygon points="704,403 695,399 686,401 672,412 669,421 670,430 682,444 700,446 714,434 715,417 704,403" fill="#ef8354" stroke="#00000033"/><polygon points="659,492 603,486 598,539 659,492" fill="#c8c2b8" stroke="#00000033"/><polygon points="659,492 598,539 653,545 659,492" fill="#c8c2b8" stroke="#00000033"/><polygon points="853,341 876,329 898,375 887,391 881,393 877,390 853,341" fill="#c8c2b8" stroke="#00000033"/><polygon points="305,357 294,379 340,402 351,379 305,357" fill="#c8c2b8" stroke="#00000033"/><polygon points="526,494 513,539 541,546 551,500 526,494" fill="#c8c2b8" stroke="#00000033"/><polygon points="876,566 864,605 869,615 878,619 884,618 891,610 902,574 876,566" fill="#c8c2b8" stroke="#00000033"/><polygon points="-37,515 -27,502 -96,460 -103,475 -92,482 -90,480 -86,482 -88,484 -52,506 -51,504 -47,506 -48,509 -37,515" fill="#c8c2b8" stroke="#00000033"/><polygon points="146,62 124,97 102,82 101,76 124,46 146,62" fill="#c8c2b8" stroke="#00000033"/><polygon points="317,452 323,437 327,438 330,431 304,419 306,416 290,408 278,434 317,452" fill="#c8c2b8" stroke="#00000033"/><polygon points="666,464 667,459 673,459 673,454 678,454 679,449 683,450 684,445 700,446 714,434 709,471 703,475 678,472 666,464" fill="#c8c2b8" stroke="#00000033"/><polygon points="245,-49 222,-17 244,-1 267,-33 245,-49" fill="#c8c2b8" stroke="#00000033"/><polygon points="885,642 950,664 955,650 890,628 885,642" fill="#c8c2b8" stroke="#00000033"/><polygon points="167,-8 183,-28 210,-8 194,15 168,-2 167,-8" fill="#c8c2b8" stroke="#00000033"/><polygon points="592,564 594,544 639,547 638,567 592,564" fill="#c8c2b8" stroke="#00000033"/><polygon points="676,46 662,65 668,69 662,77 656,72 645,88 640,83 634,89 628,83 659,43 663,46 668,40 676,46" fill="#c8c2b8" stroke="#00000033"/><polygon points="664,615 661,645 631,642 634,613 664,615" fill="#c8c2b8" stroke="#00000033"/><polygon points="1014,213 1007,213 1003,200 995,191 1004,181 1013,180 1013,185 1017,185 1017,182 1030,194 1029,211 1018,219 1014,219 1014,213" fill="#c8c2b8" stroke="#00000033"/><polygon points="245,166 268,180 275,179 286,160 259,144 245,166" fill="#c8c2b8" stroke="#00000033"/><polygon points="-40,569 -47,580 8,614 15,603 4,595 3,597 -25,578 -26,581 -30,579 -28,576 -40,569" fill="#c8c2b8" stroke="#00000033"/><polygon points="41,562 47,551 -8,517 -15,529 -4,536 -2,534 25,553 26,551 30,553 28,555 41,562" fill="#c8c2b8" stroke="#00000033"/><polygon points="43,295 47,292 57,292 70,295 72,306 65,314 43,320 37,317 33,303 43,295" fill="#c8c2b8" stroke="#00000033"/><polygon points="238,63 219,94 200,82 220,52 238,63" fill="#c8c2b8" stroke="#00000033"/><polygon points="30,332 61,349 78,319 69,314 66,319 46,326 37,322 30,332" fill="#c8c2b8" stroke="#00000033"/><polygon points="187,84 204,95 183,127 166,117 187,84" fill="#c8c2b8" stroke="#00000033"/><polygon points="449,558 458,534 430,524 422,549 449,558" fill="#c8c2b8" stroke="#00000033"/><polygon points="216,31 199,20 221,-11 237,1 216,31" fill="#c8c2b8" stroke="#00000033"/><polygon points="197,37 177,68 162,58 182,27 197,37" fill="#c8c2b8" stroke="#00000033"/><polygon points="246,53 233,44 255,13 268,22 246,53" fill="#c8c2b8" stroke="#00000033"/><polygon points="193,207 179,232 194,240 199,239 211,220 209,216 193,207" fill="#c8c2b8" stroke="#00000033"/><polygon points="491,368 498,378 536,348 528,339 491,368" fill="#c8c2b8" stroke="#00000033"/><polygon points="228,157 249,124 261,131 240,164 228,157" fill="#c8c2b8" stroke="#00000033"/><polygon points="337,289 357,301 369,281 348,270 337,289" fill="#c8c2b8" stroke="#00000033"/><polygon points="252,262 246,275 276,289 283,273 252,262" fill="#c8c2b8" stroke="#00000033"/><polygon points="377,58 382,79 406,73 401,53 377,58" fill="#c8c2b8" stroke="#00000033"/><polygon points="260,77 272,85 252,115 240,108 260,77" fill="#c8c2b8" stroke="#00000033"/><polygon points="141,80 153,66 165,70 144,103 135,97 134,93 141,80" fill="#c8c2b8" stroke="#00000033"/><polygon points="618,503 640,506 637,530 616,525 618,503" fill="#c8c2b8" stroke="#00000033"/><polygon points="543,469 532,476 527,493 549,498 553,483 549,483 551,476 543,469" fill="#c8c2b8" stroke="#00000033"/><polygon points="83,155 90,151 98,156 81,187 68,181 83,155" fill="#c8c2b8" stroke="#00000033"/><polygon points="265,14 255,7 278,-25 288,-18 265,14" fill="#c8c2b8" stroke="#00000033"/><polygon points="360,76 347,100 372,110 367,78 360,76" fill="#c8c2b8" stroke="#00000033"/><polygon points="238,63 249,70 229,101 219,94 238,63" fill="#c8c2b8" stroke="#00000033"/><polygon points="512,541 508,557 534,564 538,548 512,541" fill="#c8c2b8" stroke="#00000033"/><polygon points="-12,209 -6,213 4,200 14,208 -3,231 -18,217 -12,209" fill="#c8c2b8" stroke="#00000033"/><polygon points="276,115 303,131 308,124 306,117 283,102 276,115" fill="#c8c2b8" stroke="#00000033"/><polygon points="252,115 272,85 282,91 262,122 252,115" fill="#c8c2b8" stroke="#00000033"/><polygon points="502,581 507,559 527,564 523,579 520,581 502,581" fill="#c8c2b8" stroke="#00000033"/><polygon points="746,525 732,524 729,551 743,552 746,525" fill="#c8c2b8" stroke="#00000033"/><polygon points="724,609 738,610 736,637 722,636 724,609" fill="#c8c2b8" stroke="#00000033"/><polyline points="-3,20 115,-3 140,-8 287,90 314,112 318,123 227,288 557,465 720,487 732,395" fill="none" stroke="#ffdd44" stroke-width="6" opacity="0.85"/><circle cx="-3" cy="20" r="10" fill="#a0f"/><circle cx="732" cy="395" r="10" fill="#f00"/><path d="M-33.15222482422925,-144.73067915694196 L-17.152224824229254,-144.73067915694196 M-25.152224824229254,-152.73067915694196 L-25.152224824229254,-136.73067915694196" stroke="#0ff" stroke-width="2"/><path d="M673.9566367003712,399.1992143234658 L689.9566367003712,399.1992143234658 M681.9566367003712,391.1992143234658 L681.9566367003712,407.1992143234658" stroke="#0ff" stroke-width="2"/><rect x="101" y="108" width="22" height="16" fill="#b8c2cc" stroke="#333"/><rect x="161" y="72" width="22" height="16" fill="#b8c2cc" stroke="#333"/><rect x="197" y="120" width="22" height="16" fill="#b8c2cc" stroke="#333"/><rect x="305" y="48" width="22" height="16" fill="#b8c2cc" stroke="#333"/><rect x="353" y="132" width="22" height="16" fill="#b8c2cc" stroke="#333"/><rect x="317" y="192" width="22" height="16" fill="#b8c2cc" stroke="#333"/><rect x="209" y="180" width="22" height="16" fill="#b8c2cc" stroke="#333"/><rect x="293" y="252" width="22" height="16" fill="#b8c2cc" stroke="#333"/><rect x="173" y="300" width="22" height="16" fill="#b8c2cc" stroke="#333"/><rect x="377" y="312" width="22" height="16" fill="#b8c2cc" stroke="#333"/><rect x="365" y="252" width="22" height="16" fill="#b8c2cc" stroke="#333"/><rect x="437" y="300" width="22" height="16" fill="#b8c2cc" stroke="#333"/><rect x="377" y="420" width="22" height="16" fill="#b8c2cc" stroke="#333"/><rect x="497" y="312" width="22" height="16" fill="#b8c2cc" stroke="#333"/><rect x="509" y="384" width="22" height="16" fill="#b8c2cc" stroke="#333"/><rect x="569" y="372" width="22" height="16" fill="#b8c2cc" stroke="#333"/><rect x="509" y="480" width="22" height="16" fill="#b8c2cc" stroke="#333"/><rect x="701" y="528" width="22" height="16" fill="#b8c2cc" stroke="#333"/><text x="645" y="432" font-size="13" fill="#fff" text-anchor="middle" stroke="#000" stroke-width="0.4">UOB Plaza</text><text x="396" y="209" font-size="13" fill="#fff" text-anchor="middle" stroke="#000" stroke-width="0.4">Boat Quay</text><text x="480" y="20" font-size="16" fill="#fff" text-anchor="middle">24: Boat Quay</text></svg>