<svg xmlns="http://www.w3.org/2000/svg" width="960" height="600" viewBox="0 0 960 600"><rect width="960" height="600" fill="#6aa03c"/><polygon points="1136,-283 1174,-310 1147,-352 986,-249 975,-234 976,-215 1014,-156 1034,-115 1041,-58 1037,-14 1026,19 1070,37 1045,83 1011,127 979,151 959,130 948,132 935,121 876,167 881,200 888,211 909,210 926,228 1098,117 1191,35 1166,9 1160,7 1154,12 1144,1 1142,-5 1144,-19 1134,-45 1124,-128 1133,-130 1119,-186 1105,-205 1111,-212 1091,-243 1057,-282 1103,-312 1136,-283" fill="#4c8a2c" opacity="0.7"/><polygon points="-135,476 -133,493 -102,516 -8,372 9,354 -12,351 -12,349 13,349 39,327 23,305 -34,329 -69,334 -110,319 -120,321 -127,333 -107,347 -98,363 -96,397 -103,410 -137,434 -135,476" fill="#4c8a2c" opacity="0.7"/><polygon points="-74,256 -65,273 -51,268 3,268 22,230 49,200 40,170 39,146 46,117 60,95 57,92 34,112 12,123 -7,125 -27,121 -39,147 -50,160 -75,175 -63,206 -62,224 -68,246 -74,256" fill="#4c8a2c" opacity="0.7"/><polygon points="120,657 150,670 162,672 195,666 209,661 322,589 284,564 264,581 137,465 123,478 246,597 184,648 173,651 155,649 139,639 52,584 51,578 33,605 40,605 120,657" fill="#4c8a2c" opacity="0.7"/><polygon points="320,335 262,425 223,400 169,382 171,364 164,321 166,315 201,311 253,315 320,335" fill="#4c8a2c" opacity="0.7"/><polygon points="404,412 312,563 334,582 435,515 424,499 435,465 432,433 404,412" fill="#4c8a2c" opacity="0.7"/><polygon points="169,382 223,400 262,425 202,518 136,454 135,448 161,408 169,382" fill="#4c8a2c" opacity="0.7"/><polygon points="56,518 54,513 -16,467 -23,469 -51,512 -50,518 21,564 26,563 56,518" fill="#4c8a2c" opacity="0.7"/><polygon points="83,529 115,479 123,478 188,541 158,585 83,529" fill="#4c8a2c" opacity="0.7"/><polygon points="-8,446 29,395 34,395 93,452 94,459 69,496 64,497 -7,451 -8,446" fill="#4c8a2c" opacity="0.7"/><polygon points="83,529 51,578 52,584 126,631 158,585 83,529" fill="#4c8a2c" opacity="0.7"/><polygon points="114,428 141,379 141,362 135,328 131,325 98,339 54,370 55,375 110,429 114,428" fill="#4c8a2c" opacity="0.7"/><polygon points="343,484 280,436 312,385 379,436 343,484" fill="#4c8a2c" opacity="0.7"/><polygon points="339,344 312,385 379,436 414,390 414,384 339,344" fill="#4c8a2c" opacity="0.7"/><polygon points="203,555 246,597 182,649 173,651 155,649 141,641 155,626 203,555" fill="#4c8a2c" opacity="0.7"/><polygon points="217,532 248,483 309,529 289,555 267,576 263,576 217,532" fill="#4c8a2c" opacity="0.7"/><polygon points="309,529 248,483 280,436 343,484 309,529" fill="#4c8a2c" opacity="0.7"/><polygon points="433,432 421,422 434,404 440,403 475,433 499,456 500,461 500,465 437,508 428,496 437,481 438,465 433,432" fill="#4c8a2c" opacity="0.7"/><polygon points="7,431 47,458 13,507 4,508 -10,495 -22,491 -42,517 -47,510 4,430 7,431" fill="#4c8a2c" opacity="0.7"/><polygon points="-28,561 -60,613 -25,636 -21,636 8,590 7,583 -28,561" fill="#4c8a2c" opacity="0.7"/><polygon points="29,395 54,370 55,375 110,429 114,428 94,459 93,452 34,395 29,395" fill="#4c8a2c" opacity="0.7"/><polygon points="-68,541 -51,512 -50,518 21,564 26,563 8,590 7,583 -63,539 -68,541" fill="#4c8a2c" opacity="0.7"/><polygon points="141,641 155,626 203,555 188,541 126,631 141,641" fill="#4c8a2c" opacity="0.7"/><polygon points="-23,469 -8,446 -7,451 64,497 69,496 56,518 54,513 -16,467 -23,469" fill="#4c8a2c" opacity="0.7"/><polygon points="-22,38 -21,42 -31,47 -45,38 -48,41 -30,51 -33,54 -25,59 -27,65 -23,67 -23,69 34,61 34,57 18,58 -4,44 -5,47 -22,38" fill="#4c8a2c" opacity="0.7"/><polygon points="1,367 74,302 96,293 102,286 120,285 127,283 127,279 103,281 80,298 73,299 13,349 -12,349 -12,351 9,354 -2,365 1,367" fill="#2e7bb4"/><polygon points="476,269 473,275 478,288 490,301 497,302 500,298 499,286 488,273 476,269" fill="#2e7bb4"/><polygon points="285,165 264,201 263,208 267,214 278,208 292,192 293,188 307,179 305,165 312,164 315,157 305,148 297,150 285,165" fill="#2e7bb4"/><polygon points="156,275 214,268 218,244 215,204 217,197 254,177 246,158 263,151 268,134 283,123 289,101 301,83 292,83 276,109 267,100 273,92 273,88 249,73 238,85 237,93 259,96 273,113 238,153 234,155 221,152 219,155 230,158 235,163 238,176 219,189 210,201 215,255 209,264 203,266 156,272 156,275" fill="#2e7bb4"/><polygon points="151,136 161,155 171,148 186,152 185,157 195,148 204,148 211,156 218,151 203,126 200,134 183,126 183,131 175,136 165,137 153,134 151,136" fill="#2e7bb4"/><polygon points="-396,-24 -435,9 -448,38 -452,65 -483,112 -514,138 -530,158 -539,164 -547,164 -549,168 -546,170 -556,186 -547,181 -541,182 -537,188 -538,197 -559,222 -583,259 -592,280 -598,287 -605,283 -603,293 -605,293 -605,303 -625,321 -711,266 -690,233 -703,224 -715,174 -766,184 -779,175 -800,207 -836,185 -824,172 -817,179 -818,155 -772,157 -770,117 -787,116 -788,137 -806,136 -805,112 -770,114 -768,81 -793,79 -791,54 -770,55 -771,59 -763,60 -761,27 -795,24 -796,16 -791,16 -791,8 -788,8 -787,-6 -790,-6 -790,-9 -782,-9 -781,-19 -788,-20 -788,-26 -785,-27 -785,-32 -762,-35 -724,-140 -721,-137 -710,-159 -716,-163 -718,-185 -711,-187 -701,-178 -695,-183 -707,-193 -749,-179 -724,-331 -712,-328 -682,-330 -628,-328 -624,-323 -626,-320 -621,-316 -606,-311 -591,-315 -584,-325 -509,-322 -498,-314 -483,-284 -460,-252 -434,-236 -399,-234 -294,-239 -289,-312 -18,-298 12,-299 48,-324 66,-358 69,-403 21,-772 8,-832 14,-871 0,-880 2,-883 16,-874 18,-901 -4,-903 -6,-914 0,-981 24,-1052 61,-1111 101,-1151 181,-1211 201,-1232 210,-1224 213,-1227 204,-1235 224,-1259 253,-1263 269,-1293 268,-1298 261,-1302 258,-1313 268,-1352 264,-1394 309,-1409 310,-1372 315,-1372 313,-1416 272,-1481 258,-1488 256,-1485 267,-1480 249,-1473 201,-1486 157,-1538 161,-1547 189,-1572 190,-1575 185,-1578 209,-1574 210,-1564 223,-1560 257,-1576 321,-1677 410,-1769 418,-1793 426,-1797 411,-1909 443,-1951 439,-1968 486,-1991 501,-1969 502,-1952 477,-1912 474,-1889 486,-1824 494,-1809 494,-1748 483,-1717 445,-1675 434,-1673 404,-1637 395,-1636 391,-1620 363,-1575 357,-1566 355,-1570 352,-1569 363,-1540 403,-1478 506,-1488 595,-1469 595,-1454 589,-1442 593,-1373 606,-1314 633,-1250 680,-1186 700,-1168 738,-1142 695,-1076 665,-1095 656,-1096 651,-1088 654,-1081 664,-1082 667,-1086 692,-1068 689,-1055 630,-1046 602,-1106 530,-1107 541,-1083 569,-1082 578,-1062 491,-1032 416,-1020 257,-1019 257,-1038 234,-1054 208,-1057 184,-1049 170,-1039 161,-1027 148,-982 140,-915 144,-849 172,-719 199,-625 238,-514 316,-346 364,-262 413,-183 476,-94 575,24 663,116 722,172 554,297 547,287 544,289 489,210 474,222 413,167 407,175 397,168 403,161 301,83 286,81 263,62 221,37 82,-41 35,-58 -87,-89 -113,-102 -172,-121 -225,-133 -293,-154 -291,-160 -318,-169 -319,-166 -345,-173 -365,-171 -383,-162 -396,-148 -405,-120 -403,-99 -390,-77 -387,-67 -396,-24" fill="#2e7bb4"/><polygon points="580,-1 595,12 625,16 644,30 652,44 670,64 724,101 729,100 724,90 726,87 736,104 734,107 721,107 713,98 700,93 682,79 669,77 665,69 632,54 614,40 581,4 580,-1" fill="#2e7bb4"/><polygon points="824,-141 836,-144 848,-140 866,-132 873,-126 901,-25 897,6 892,18 902,45 902,58 897,70 882,87 865,97 850,95 824,78 821,72 824,52 833,50 843,61 855,65 866,59 867,52 860,41 845,37 836,43 832,40 812,-16 805,-75 798,-100 799,-110 809,-128 824,-141" fill="#2e7bb4"/><rect x="712" y="176" width="16" height="8" fill="#2e7bb4"/><rect x="704" y="184" width="40" height="8" fill="#2e7bb4"/><rect x="688" y="192" width="64" height="8" fill="#2e7bb4"/><rect x="680" y="200" width="80" height="8" fill="#2e7bb4"/><rect x="672" y="208" width="96" height="8" fill="#2e7bb4"/><rect x="656" y="216" width="128" height="8" fill="#2e7bb4"/><rect x="648" y="224" width="144" height="8" fill="#2e7bb4"/><rect x="640" y="232" width="160" height="8" fill="#2e7bb4"/><rect x="944" y="232" width="16" height="8" fill="#2e7bb4"/><rect x="624" y="240" width="184" height="8" fill="#2e7bb4"/><rect x="936" y="240" width="24" height="8" fill="#2e7bb4"/><rect x="616" y="248" width="208" height="8" fill="#2e7bb4"/><rect x="920" y="248" width="40" height="8" fill="#2e7bb4"/><rect x="600" y="256" width="232" height="8" fill="#2e7bb4"/><rect x="912" y="256" width="48" height="8" fill="#2e7bb4"/><rect x="592" y="264" width="256" height="8" fill="#2e7bb4"/><rect x="904" y="264" width="56" height="8" fill="#2e7bb4"/><rect x="584" y="272" width="272" height="8" fill="#2e7bb4"/><rect x="888" y="272" width="72" height="8" fill="#2e7bb4"/><rect x="568" y="280" width="304" height="8" fill="#2e7bb4"/><rect x="896" y="280" width="64" height="8" fill="#2e7bb4"/><rect x="560" y="288" width="336" height="8" fill="#2e7bb4"/><rect x="944" y="288" width="16" height="8" fill="#2e7bb4"/><rect x="552" y="296" width="408" height="24" fill="#2e7bb4"/><rect x="544" y="320" width="416" height="8" fill="#2e7bb4"/><rect x="560" y="328" width="400" height="16" fill="#2e7bb4"/><rect x="568" y="344" width="392" height="16" fill="#2e7bb4"/><rect x="576" y="360" width="384" height="16" fill="#2e7bb4"/><rect x="584" y="376" width="376" height="24" fill="#2e7bb4"/><rect x="592" y="400" width="368" height="24" fill="#2e7bb4"/><rect x="600" y="424" width="360" height="80" fill="#2e7bb4"/><rect x="592" y="504" width="368" height="32" fill="#2e7bb4"/><rect x="584" y="536" width="376" height="16" fill="#2e7bb4"/><rect x="576" y="552" width="384" height="16" fill="#2e7bb4"/><rect x="568" y="568" width="392" height="8" fill="#2e7bb4"/><rect x="560" y="576" width="400" height="8" fill="#2e7bb4"/><rect x="552" y="584" width="408" height="8" fill="#2e7bb4"/><rect x="544" y="592" width="416" height="8" fill="#2e7bb4"/><polyline points="-252,1009 44,802 172,707 378,564" fill="none" stroke="#8a8f98" stroke-width="13" stroke-linecap="round"/><polyline points="379,586 91,779 -244,1017" fill="none" stroke="#8a8f98" stroke-width="13" stroke-linecap="round"/><polyline points="-164,654 3,394 13,383" fill="none" stroke="#8a8f98" stroke-width="8" stroke-linecap="round"/><polyline points="149,254 138,252 130,245" fill="none" stroke="#8a8f98" stroke-width="5" stroke-linecap="round"/><polyline points="116,306 139,299" fill="none" stroke="#8a8f98" stroke-width="8" stroke-linecap="round"/><polyline points="226,290 264,294" fill="none" stroke="#8a8f98" stroke-width="8" stroke-linecap="round"/><polyline points="85,322 116,306" fill="none" stroke="#8a8f98" stroke-width="8" stroke-linecap="round"/><polyline points="99,326 51,359 13,402 -112,593" fill="none" stroke="#8a8f98" stroke-width="8" stroke-linecap="round"/><polyline points="99,433 117,450" fill="none" stroke="#8a8f98" stroke-width="5" stroke-linecap="round"/><polyline points="149,296 166,293" fill="none" stroke="#8a8f98" stroke-width="8" stroke-linecap="round"/><polyline points="145,308 142,298" fill="none" stroke="#8a8f98" stroke-width="5" stroke-linecap="round"/><polyline points="149,296 151,306" fill="none" stroke="#8a8f98" stroke-width="5" stroke-linecap="round"/><polyline points="196,500 145,481 109,451" fill="none" stroke="#8a8f98" stroke-width="5" stroke-linecap="round"/><polyline points="117,450 145,475 176,486 196,500" fill="none" stroke="#8a8f98" stroke-width="5" stroke-linecap="round"/><polyline points="145,308 142,309" fill="none" stroke="#8a8f98" stroke-width="8" stroke-linecap="round"/><polyline points="151,306 145,308" fill="none" stroke="#8a8f98" stroke-width="8" stroke-linecap="round"/><polyline points="213,298 187,300 151,306" fill="none" stroke="#8a8f98" stroke-width="8" stroke-linecap="round"/><polyline points="13,383 44,350 85,322" fill="none" stroke="#8a8f98" stroke-width="8" stroke-linecap="round"/><polyline points="166,293 196,290" fill="none" stroke="#8a8f98" stroke-width="8" stroke-linecap="round"/><polyline points="-11,326 37,300 73,267" fill="none" stroke="#8a8f98" stroke-width="3" stroke-linecap="round"/><polyline points="142,298 149,296" fill="none" stroke="#8a8f98" stroke-width="8" stroke-linecap="round"/><polyline points="142,298 139,285" fill="none" stroke="#8a8f98" stroke-width="5" stroke-linecap="round"/><polyline points="149,254 142,261 145,283" fill="none" stroke="#8a8f98" stroke-width="5" stroke-linecap="round"/><polyline points="139,299 142,298" fill="none" stroke="#8a8f98" stroke-width="8" stroke-linecap="round"/><polyline points="145,283 149,296" fill="none" stroke="#8a8f98" stroke-width="5" stroke-linecap="round"/><polyline points="43,264 -1,300 -17,301" fill="none" stroke="#8a8f98" stroke-width="3" stroke-linecap="round"/><polyline points="187,249 149,254" fill="none" stroke="#8a8f98" stroke-width="5" stroke-linecap="round"/><polyline points="133,263 132,257" fill="none" stroke="#8a8f98" stroke-width="5" stroke-linecap="round"/><polyline points="139,285 133,263" fill="none" stroke="#8a8f98" stroke-width="5" stroke-linecap="round"/><polyline points="142,309 99,326" fill="none" stroke="#8a8f98" stroke-width="8" stroke-linecap="round"/><polyline points="291,314 264,306 213,298" fill="none" stroke="#8a8f98" stroke-width="8" stroke-linecap="round"/><polyline points="196,290 226,290" fill="none" stroke="#8a8f98" stroke-width="8" stroke-linecap="round"/><polyline points="-66,718 149,385" fill="none" stroke="#8a8f98" stroke-width="8" stroke-linecap="round"/><polyline points="149,385 152,359 145,308" fill="none" stroke="#8a8f98" stroke-width="8" stroke-linecap="round"/><polyline points="117,450 89,491 -56,725" fill="none" stroke="#8a8f98" stroke-width="8" stroke-linecap="round"/><polyline points="151,306 159,357 158,378 155,387 117,450" fill="none" stroke="#8a8f98" stroke-width="8" stroke-linecap="round"/><polyline points="109,451 75,424 32,398 40,392 41,402 99,433" fill="none" stroke="#8a8f98" stroke-width="5" stroke-linecap="round"/><polyline points="341,608 326,588 309,572" fill="none" stroke="#8a8f98" stroke-width="5" stroke-linecap="round"/><polyline points="455,404 421,377 386,355" fill="none" stroke="#8a8f98" stroke-width="8" stroke-linecap="round"/><polyline points="401,354 412,361" fill="none" stroke="#8a8f98" stroke-width="8" stroke-linecap="round"/><polyline points="386,355 364,343" fill="none" stroke="#8a8f98" stroke-width="8" stroke-linecap="round"/><polyline points="470,399 478,409" fill="none" stroke="#8a8f98" stroke-width="5" stroke-linecap="round"/><polyline points="455,404 455,397 460,393" fill="none" stroke="#8a8f98" stroke-width="8" stroke-linecap="round"/><polyline points="460,393 468,395 469,404 461,408 455,404" fill="none" stroke="#8a8f98" stroke-width="8" stroke-linecap="round"/><polyline points="501,430 519,448 523,463 519,477 503,490" fill="none" stroke="#8a8f98" stroke-width="5" stroke-linecap="round"/><polyline points="478,409 461,408" fill="none" stroke="#8a8f98" stroke-width="5" stroke-linecap="round"/><polyline points="368,462 419,498" fill="none" stroke="#8a8f98" stroke-width="3" stroke-linecap="round"/><polyline points="426,370 442,381" fill="none" stroke="#8a8f98" stroke-width="8" stroke-linecap="round"/><polyline points="442,381 460,393" fill="none" stroke="#8a8f98" stroke-width="8" stroke-linecap="round"/><polyline points="412,361 426,370" fill="none" stroke="#8a8f98" stroke-width="8" stroke-linecap="round"/><polyline points="338,320 401,354" fill="none" stroke="#8a8f98" stroke-width="8" stroke-linecap="round"/><polyline points="309,572 303,568" fill="none" stroke="#8a8f98" stroke-width="5" stroke-linecap="round"/><polyline points="303,568 368,462" fill="none" stroke="#8a8f98" stroke-width="3" stroke-linecap="round"/><polyline points="628,404 379,586" fill="none" stroke="#8a8f98" stroke-width="13" stroke-linecap="round"/><polyline points="297,303 338,320" fill="none" stroke="#8a8f98" stroke-width="8" stroke-linecap="round"/><polyline points="503,490 341,608" fill="none" stroke="#8a8f98" stroke-width="5" stroke-linecap="round"/><polyline points="478,409 501,430" fill="none" stroke="#8a8f98" stroke-width="5" stroke-linecap="round"/><polyline points="364,343 337,330" fill="none" stroke="#8a8f98" stroke-width="8" stroke-linecap="round"/><polyline points="543,386 551,405 521,411 514,406" fill="none" stroke="#8a8f98" stroke-width="3" stroke-linecap="round"/><polyline points="991,136 909,199 628,404" fill="none" stroke="#8a8f98" stroke-width="13" stroke-linecap="round"/><polyline points="198,229 201,233 203,255 174,262 168,259" fill="none" stroke="#8a8f98" stroke-width="3" stroke-linecap="round"/><polyline points="170,258 175,260 200,255 200,247 193,244" fill="none" stroke="#8a8f98" stroke-width="3" stroke-linecap="round"/><polyline points="75,96 64,138 68,210 52,254" fill="none" stroke="#8a8f98" stroke-width="3" stroke-linecap="round"/><polyline points="132,257 113,246 115,225" fill="none" stroke="#8a8f98" stroke-width="3" stroke-linecap="round"/><polyline points="868,165 862,164 800,110 793,109 779,113 770,108 685,12 657,-26" fill="none" stroke="#8a8f98" stroke-width="3" stroke-linecap="round"/><polyline points="240,647 378,564" fill="none" stroke="#8a8f98" stroke-width="13" stroke-linecap="round"/><polyline points="379,586 360,607 304,656 281,673" fill="none" stroke="#8a8f98" stroke-width="13" stroke-linecap="round"/><polyline points="378,564 526,459 978,121" fill="none" stroke="#8a8f98" stroke-width="13" stroke-linecap="round"/><polyline points="120,218 117,204 191,192 199,245 126,256 120,218" fill="none" stroke="#8a8f98" stroke-width="3" stroke-linecap="round"/><polyline points="229,495 337,330" fill="none" stroke="#8a8f98" stroke-width="3" stroke-linecap="round"/><polyline points="197,223 195,241 187,249" fill="none" stroke="#8a8f98" stroke-width="5" stroke-linecap="round"/><polyline points="322,270 284,245 278,244 269,252" fill="none" stroke="#8a8f98" stroke-width="3" stroke-linecap="round"/><polyline points="73,267 87,245 96,213 98,187 90,144" fill="none" stroke="#8a8f98" stroke-width="3" stroke-linecap="round"/><polyline points="132,257 124,217" fill="none" stroke="#8a8f98" stroke-width="5" stroke-linecap="round"/><polyline points="196,500 303,568" fill="none" stroke="#8a8f98" stroke-width="5" stroke-linecap="round"/><polyline points="264,294 297,303" fill="none" stroke="#8a8f98" stroke-width="8" stroke-linecap="round"/><polyline points="337,330 291,314" fill="none" stroke="#8a8f98" stroke-width="8" stroke-linecap="round"/><polyline points="124,217 150,191" fill="none" stroke="#8a8f98" stroke-width="5" stroke-linecap="round"/><polyline points="197,223 190,227 179,229 144,213" fill="none" stroke="#8a8f98" stroke-width="3" stroke-linecap="round"/><polyline points="-88,172 -88,156 -57,142 -39,105 -28,107 -5,103 50,79 68,63 83,59" fill="none" stroke="#8a8f98" stroke-width="3" stroke-linecap="round"/><polyline points="95,93 75,96 64,94 60,91 52,78" fill="none" stroke="#8a8f98" stroke-width="3" stroke-linecap="round"/><polyline points="150,191 165,190 183,201" fill="none" stroke="#8a8f98" stroke-width="5" stroke-linecap="round"/><polyline points="83,59 78,82 64,94" fill="none" stroke="#8a8f98" stroke-width="3" stroke-linecap="round"/><polyline points="95,82 108,137" fill="none" stroke="#8a8f98" stroke-width="3" stroke-linecap="round"/><polyline points="183,201 195,214" fill="none" stroke="#8a8f98" stroke-width="5" stroke-linecap="round"/><polyline points="121,197 125,191 138,189" fill="none" stroke="#8a8f98" stroke-width="5" stroke-linecap="round"/><polyline points="122,208 121,197" fill="none" stroke="#8a8f98" stroke-width="5" stroke-linecap="round"/><polyline points="124,217 122,208" fill="none" stroke="#8a8f98" stroke-width="5" stroke-linecap="round"/><polyline points="195,214 197,223" fill="none" stroke="#8a8f98" stroke-width="5" stroke-linecap="round"/><polyline points="138,189 150,191" fill="none" stroke="#8a8f98" stroke-width="5" stroke-linecap="round"/><polyline points="343,237 350,226" fill="none" stroke="#8a8f98" stroke-width="5" stroke-linecap="round"/><polyline points="938,113 884,155" fill="none" stroke="#8a8f98" stroke-width="5" stroke-linecap="round"/><polyline points="958,99 938,113" fill="none" stroke="#8a8f98" stroke-width="5" stroke-linecap="round"/><polyline points="982,-197 1009,-162 1022,-139 1032,-112 1036,-86 1036,-30 1032,-6 1011,41 993,68 958,99" fill="none" stroke="#8a8f98" stroke-width="5" stroke-linecap="round"/><polygon points="457,348 474,358 491,360 504,358 517,353 535,336 547,312 547,302 532,273 486,212 460,236 454,248 451,264 458,286 469,302 482,314 498,317 502,315 499,312 491,313 472,299 462,283 455,264 460,255 466,252 475,254 489,264 502,280 509,295 509,305 498,318 481,316 461,297 422,215 388,270 476,323 493,327 505,321 508,325 494,332 474,328 457,348" fill="#ef8354" stroke="#00000033"/><polygon points="97,14 99,8 79,-16 47,-33 16,-37 -9,-31 -9,-17 12,19 25,30 38,33 56,32 94,20 91,18 97,14" fill="#c8c2b8" stroke="#00000033"/><polygon points="126,72 152,77 178,73 179,49 169,32 152,21 141,17 125,16 116,20 111,27 111,40 114,53 126,72" fill="#c8c2b8" stroke="#00000033"/><polygon points="113,6 102,5 91,18 94,20 84,22 72,32 54,39 55,43 68,41 60,46 52,59 57,63 65,50 79,47 90,40 90,51 97,70 94,88 100,88 103,60 119,78 120,75 111,62 107,46 109,32 116,20 110,17 113,6" fill="#c8c2b8" stroke="#00000033"/><polygon points="97,150 107,181 104,190 110,195 108,201 110,201 110,211 115,214 119,238 124,240 117,191 155,185 163,186 182,197 183,192 164,181 117,186 104,150 111,131 100,88 97,88 94,88 103,129 97,150" fill="#c8c2b8" stroke="#00000033"/><polygon points="293,214 278,240 319,263 334,237 293,214" fill="#c8c2b8" stroke="#00000033"/><polygon points="329,146 322,149 324,155 317,159 313,166 321,170 329,163 331,172 337,177 344,169 351,179 358,180 363,169 360,162 348,158 340,147 329,146" fill="#c8c2b8" stroke="#00000033"/><polygon points="278,251 274,260 263,254 259,262 307,286 315,270 278,251" fill="#c8c2b8" stroke="#00000033"/><polygon points="97,150 103,129 101,119 89,127 100,199 110,198 104,190 107,181 97,150" fill="#c8c2b8" stroke="#00000033"/><polygon points="110,211 110,201 100,201 97,222 90,246 101,250 108,232 110,211" fill="#c8c2b8" stroke="#00000033"/><polygon points="64,282 34,309 41,318 74,292 64,282" fill="#c8c2b8" stroke="#00000033"/><polygon points="353,279 362,277 368,286 356,307 348,311 342,307 341,300 353,279" fill="#c8c2b8" stroke="#00000033"/><polygon points="474,326 468,322 459,324 457,328 452,329 450,336 439,340 435,337 428,339 417,348 420,351 432,344 432,352 447,360 449,353 437,346 444,346 455,335 459,334 463,328 472,330 474,326" fill="#c8c2b8" stroke="#00000033"/><polygon points="259,431 253,428 214,490 220,493 259,431" fill="#c8c2b8" stroke="#00000033"/><polygon points="391,241 395,242 391,255 382,265 385,281 378,284 382,287 380,291 372,291 370,289 377,276 373,272 374,262 383,248 391,241" fill="#c8c2b8" stroke="#00000033"/><polygon points="71,167 74,196 87,196 89,183 85,165 71,167" fill="#c8c2b8" stroke="#00000033"/><polygon points="341,340 346,343 314,394 309,391 341,340" fill="#c8c2b8" stroke="#00000033"/><polyline points="145,481 114,455 158,378 159,357 151,306 213,298 264,306 333,328 364,343 421,377 455,404 456,395 466,394" fill="none" stroke="#ffdd44" stroke-width="6" opacity="0.85"/><circle cx="145" cy="481" r="10" fill="#a0f"/><circle cx="466" cy="394" r="10" fill="#f00"/><path d="M126.99999999916733,517.4999999999925 L142.99999999916733,517.4999999999925 M134.99999999916733,509.4999999999925 L134.99999999916733,525.4999999999925" stroke="#0ff" stroke-width="2"/><path d="M584.4999999994837,164.99999999999835 L600.4999999994837,164.99999999999835 M592.4999999994837,156.99999999999835 L592.4999999994837,172.99999999999835" stroke="#0ff" stroke-width="2"/><rect x="101" y="504" width="22" height="16" fill="#b8c2cc" stroke="#333"/><rect x="77" y="396" width="22" height="16" fill="#b8c2cc" stroke="#333"/><rect x="173" y="420" width="22" height="16" fill="#b8c2cc" stroke="#333"/><rect x="197" y="360" width="22" height="16" fill="#b8c2cc" stroke="#333"/><rect x="101" y="336" width="22" height="16" fill="#b8c2cc" stroke="#333"/><rect x="77" y="264" width="22" height="16" fill="#b8c2cc" stroke="#333"/><rect x="257" y="348" width="22" height="16" fill="#b8c2cc" stroke="#333"/><rect x="137" y="228" width="22" height="16" fill="#b8c2cc" stroke="#333"/><rect x="233" y="228" width="22" height="16" fill="#b8c2cc" stroke="#333"/><rect x="185" y="180" width="22" height="16" fill="#b8c2cc" stroke="#333"/><rect x="317" y="276" width="22" height="16" fill="#b8c2cc" stroke="#333"/><rect x="293" y="408" width="22" height="16" fill="#b8c2cc" stroke="#333"/><rect x="353" y="228" width="22" height="16" fill="#b8c2cc" stroke="#333"/><rect x="389" y="300" width="22" height="16" fill="#b8c2cc" stroke="#333"/><rect x="353" y="396" width="22" height="16" fill="#b8c2cc" stroke="#333"/><rect x="401" y="432" width="22" height="16" fill="#b8c2cc" stroke="#333"/><rect x="497" y="372" width="22" height="16" fill="#b8c2cc" stroke="#333"/><rect x="461" y="444" width="22" height="16" fill="#b8c2cc" stroke="#333"/><text x="484" y="300" font-size="13" fill="#fff" text-anchor="middle" stroke="#000" stroke-width="0.4">Marina Barrage</text><text x="480" y="20" font-size="16" fill="#fff" text-anchor="middle">27: Marina Barrage</text></svg>