<svg xmlns="http://www.w3.org/2000/svg" width="960" height="600" viewBox="0 0 960 600"><rect width="960" height="600" fill="#6aa03c"/><polygon points="-190,475 -186,499 -143,531 -12,329 12,304 -17,300 -17,297 19,297 55,266 32,235 -48,269 -96,276 -130,266 -154,255 -168,257 -178,275 -164,281 -149,294 -137,317 -134,341 -134,364 -144,383 -192,416 -190,475" fill="#4c8a2c" opacity="0.7"/><polygon points="-104,167 -91,191 -72,184 4,184 30,131 68,89 56,47 55,13 64,-27 84,-59 80,-63 48,-35 17,-19 -10,-16 -38,-22 -55,15 -70,32 -104,53 -88,96 -86,122 -95,153 -104,167" fill="#4c8a2c" opacity="0.7"/><polygon points="168,728 210,746 227,750 273,741 292,733 451,633 398,598 370,623 191,460 172,478 345,644 258,715 242,720 217,717 194,704 73,626 71,617 46,656 56,655 168,728" fill="#4c8a2c" opacity="0.7"/><polygon points="448,278 366,404 312,369 287,357 237,343 239,318 229,258 233,250 281,245 354,250 413,265 448,278" fill="#4c8a2c" opacity="0.7"/><polygon points="565,385 436,597 467,624 610,529 594,507 608,459 605,415 565,385" fill="#4c8a2c" opacity="0.7"/><polygon points="237,343 287,357 312,369 366,404 283,534 190,444 189,436 225,380 237,343" fill="#4c8a2c" opacity="0.7"/><polygon points="78,534 76,526 -23,463 -32,465 -71,525 -70,534 29,598 37,596 78,534" fill="#4c8a2c" opacity="0.7"/><polygon points="-11,433 40,361 48,362 130,442 131,451 97,504 89,505 -10,441 -11,433" fill="#4c8a2c" opacity="0.7"/><polygon points="116,549 71,617 73,626 177,693 221,627 116,549" fill="#4c8a2c" opacity="0.7"/><polygon points="116,549 161,480 172,478 263,566 221,627 116,549" fill="#4c8a2c" opacity="0.7"/><polygon points="159,408 191,357 198,340 198,315 190,268 183,264 138,284 99,307 76,326 76,334 153,409 159,408" fill="#4c8a2c" opacity="0.7"/><polygon points="481,486 392,419 437,347 531,419 481,486" fill="#4c8a2c" opacity="0.7"/><polygon points="475,290 437,347 531,419 580,355 579,347 475,290" fill="#4c8a2c" opacity="0.7"/><polygon points="304,554 347,485 433,550 405,586 374,615 368,615 304,554" fill="#4c8a2c" opacity="0.7"/><polygon points="284,586 345,644 255,717 242,720 217,717 198,706 217,685 284,586" fill="#4c8a2c" opacity="0.7"/><polygon points="433,550 347,485 392,419 481,486 433,550" fill="#4c8a2c" opacity="0.7"/><polygon points="607,414 589,399 608,374 616,373 666,414 699,447 701,454 699,460 612,520 599,504 612,482 613,460 607,414" fill="#4c8a2c" opacity="0.7"/><polygon points="9,413 65,450 18,519 6,520 -14,502 -31,496 -59,533 -66,523 5,410 9,413" fill="#4c8a2c" opacity="0.7"/><polygon points="-40,595 -84,667 -34,699 -29,698 12,635 10,625 -40,595" fill="#4c8a2c" opacity="0.7"/><polygon points="40,361 76,326 76,334 153,409 159,408 131,451 130,442 48,362 40,361" fill="#4c8a2c" opacity="0.7"/><polygon points="-96,566 -71,525 -70,534 29,598 37,596 12,635 10,625 -88,564 -96,566" fill="#4c8a2c" opacity="0.7"/><polygon points="198,706 217,685 284,586 263,566 177,693 198,706" fill="#4c8a2c" opacity="0.7"/><polygon points="-32,465 -11,433 -10,441 89,505 97,504 78,534 76,526 -23,463 -32,465" fill="#4c8a2c" opacity="0.7"/><polygon points="19,187 -1,200 -1,220 20,235 42,223 43,198 19,187" fill="#4c8a2c" opacity="0.7"/><polygon points="13,-84 3,-73 1,-66 3,-54 17,-43 29,-42 37,-46 46,-61 45,-71 39,-81 30,-86 13,-84" fill="#4c8a2c" opacity="0.7"/><polygon points="80,73 67,80 70,90 63,100 76,116 101,115 99,78 93,72 80,73" fill="#4c8a2c" opacity="0.7"/><polygon points="69,-4 72,11 91,22 110,4 98,-21 82,-22 69,-4" fill="#4c8a2c" opacity="0.7"/><polygon points="-5,122 -22,125 -29,135 -28,148 -19,157 -6,158 -1,155 6,146 7,135 -5,122" fill="#4c8a2c" opacity="0.7"/><polygon points="79,151 86,159 85,175 72,186 58,183 50,165 63,148 79,151" fill="#4c8a2c" opacity="0.7"/><polygon points="669,355 628,328 642,315 669,332 708,334 732,324 765,298 790,329 768,347 780,375 780,382 776,386 718,389 669,355" fill="#9aa0a8"/><polygon points="433,67 413,101 486,143 528,71 519,66 502,96 497,92 491,101 433,67" fill="#9aa0a8"/><polygon points="209,94 192,123 219,139 250,145 254,115 231,100 209,94" fill="#9aa0a8"/><polygon points="1,323 21,302 104,231 135,218 142,209 168,208 178,205 178,200 170,203 145,202 112,226 102,227 19,297 -17,297 -17,300 12,304 -3,320 1,323" fill="#2e7bb4"/><polygon points="667,185 662,193 669,212 686,231 696,231 700,226 698,210 683,191 667,185" fill="#2e7bb4"/><polygon points="399,39 383,64 384,70 370,90 368,100 374,108 389,100 409,78 410,71 429,60 431,52 427,39 437,38 441,28 435,19 427,16 416,18 399,39" fill="#2e7bb4"/><polygon points="219,193 300,184 305,171 306,150 301,95 304,85 355,57 356,54 344,34 345,30 368,20 376,-3 397,-20 398,-33 405,-49 422,-75 408,-76 386,-38 374,-51 383,-63 382,-68 349,-89 333,-73 332,-61 362,-57 382,-34 365,-11 333,22 327,25 309,21 306,25 321,30 329,37 334,55 306,73 295,90 301,165 293,178 285,181 218,189 219,193" fill="#2e7bb4"/><polygon points="211,0 226,25 239,16 252,17 260,21 259,28 265,27 267,20 274,16 285,15 293,20 295,27 305,19 285,-16 281,-4 256,-15 256,-8 245,-1 231,1 214,-4 211,0" fill="#2e7bb4"/><polygon points="-555,-224 -601,-189 -608,-179 -622,-155 -627,-138 -632,-100 -676,-35 -720,1 -742,30 -754,38 -765,39 -768,44 -764,46 -779,68 -776,70 -766,62 -757,63 -752,72 -754,85 -763,100 -783,120 -816,171 -820,185 -829,201 -838,211 -844,210 -847,205 -844,219 -848,219 -847,232 -856,244 -874,258 -995,181 -966,135 -985,123 -1001,52 -1072,66 -1091,53 -1120,99 -1171,68 -1165,60 -1160,60 -1153,49 -1149,51 -1149,58 -1144,59 -1145,25 -1081,28 -1078,-27 -1102,-29 -1103,1 -1128,-1 -1127,-34 -1078,-32 -1075,-78 -1110,-81 -1108,-116 -1078,-114 -1079,-109 -1068,-108 -1066,-154 -1113,-157 -1114,-169 -1107,-169 -1107,-180 -1103,-181 -1102,-200 -1106,-200 -1106,-204 -1095,-204 -1093,-219 -1104,-219 -1103,-228 -1099,-229 -1099,-236 -1066,-240 -1014,-387 -1013,-383 -1009,-383 -994,-413 -1002,-420 -1005,-450 -996,-453 -981,-440 -974,-447 -990,-462 -1048,-441 -1013,-655 -996,-650 -955,-653 -879,-650 -874,-643 -877,-640 -869,-633 -848,-627 -827,-633 -823,-636 -825,-640 -818,-647 -713,-642 -697,-631 -676,-590 -644,-544 -608,-522 -558,-519 -411,-526 -408,-625 -405,-628 -25,-609 16,-611 67,-645 93,-692 97,-755 29,-1272 11,-1356 19,-1411 0,-1424 2,-1427 22,-1415 25,-1453 -6,-1455 -8,-1470 0,-1565 33,-1665 48,-1693 86,-1747 141,-1803 231,-1873 253,-1887 282,-1916 294,-1905 298,-1909 286,-1921 314,-1954 343,-1960 348,-1957 354,-1960 377,-2001 375,-2009 365,-2014 361,-2030 369,-2050 375,-2084 374,-2123 370,-2144 433,-2163 434,-2112 440,-2112 439,-2174 381,-2265 361,-2275 359,-2270 374,-2263 357,-2254 349,-2253 333,-2256 282,-2272 220,-2344 225,-2358 264,-2393 266,-2397 259,-2401 292,-2394 294,-2381 300,-2376 313,-2375 360,-2397 419,-2485 450,-2539 574,-2667 585,-2702 597,-2708 575,-2845 575,-2864 620,-2923 619,-2939 615,-2946 680,-2979 702,-2947 702,-2925 692,-2903 668,-2868 664,-2836 681,-2745 692,-2724 691,-2639 677,-2595 624,-2537 607,-2533 565,-2484 553,-2482 548,-2460 509,-2396 499,-2384 497,-2389 493,-2387 508,-2347 565,-2261 708,-2274 833,-2249 833,-2227 825,-2210 831,-2114 848,-2031 886,-1941 952,-1852 980,-1826 1033,-1791 972,-1697 931,-1725 919,-1726 912,-1715 916,-1705 929,-1706 934,-1712 968,-1687 965,-1668 882,-1656 843,-1740 741,-1741 757,-1708 797,-1706 809,-1678 687,-1636 583,-1620 360,-1618 360,-1645 345,-1659 328,-1666 308,-1671 291,-1671 275,-1668 258,-1661 238,-1646 225,-1629 207,-1566 198,-1516 196,-1472 202,-1380 241,-1198 278,-1067 334,-910 385,-793 442,-676 509,-558 579,-447 666,-323 760,-207 805,-158 928,-29 1011,49 775,224 765,211 761,213 685,103 663,119 578,42 570,53 556,44 564,34 422,-75 401,-79 368,-105 309,-140 114,-248 49,-273 -122,-316 -158,-334 -240,-361 -316,-377 -411,-406 -408,-415 -445,-428 -447,-423 -483,-434 -511,-430 -536,-418 -554,-399 -566,-372 -567,-359 -564,-330 -545,-299 -542,-285 -546,-254 -553,-239 -555,-224" fill="#2e7bb4"/><polygon points="813,-193 833,-175 875,-169 901,-149 912,-130 938,-102 1014,-50 1020,-51 1013,-65 1016,-69 1022,-65 1031,-45 1028,-41 1009,-41 998,-54 980,-61 955,-80 936,-84 930,-95 885,-116 860,-136 813,-185 813,-193" fill="#2e7bb4"/><rect x="952" y="88" width="8" height="8" fill="#2e7bb4"/><rect x="944" y="96" width="16" height="8" fill="#2e7bb4"/><rect x="928" y="104" width="32" height="8" fill="#2e7bb4"/><rect x="920" y="112" width="40" height="8" fill="#2e7bb4"/><rect x="912" y="120" width="48" height="8" fill="#2e7bb4"/><rect x="896" y="128" width="64" height="8" fill="#2e7bb4"/><rect x="888" y="136" width="72" height="8" fill="#2e7bb4"/><rect x="880" y="144" width="80" height="8" fill="#2e7bb4"/><rect x="864" y="152" width="96" height="8" fill="#2e7bb4"/><rect x="856" y="160" width="104" height="8" fill="#2e7bb4"/><rect x="848" y="168" width="112" height="8" fill="#2e7bb4"/><rect x="832" y="176" width="128" height="8" fill="#2e7bb4"/><rect x="824" y="184" width="136" height="8" fill="#2e7bb4"/><rect x="816" y="192" width="144" height="8" fill="#2e7bb4"/><rect x="800" y="200" width="160" height="8" fill="#2e7bb4"/><rect x="792" y="208" width="168" height="8" fill="#2e7bb4"/><rect x="784" y="216" width="176" height="8" fill="#2e7bb4"/><rect x="768" y="224" width="192" height="48" fill="#2e7bb4"/><rect x="784" y="272" width="176" height="16" fill="#2e7bb4"/><rect x="792" y="288" width="168" height="16" fill="#2e7bb4"/><rect x="800" y="304" width="160" height="16" fill="#2e7bb4"/><rect x="808" y="320" width="152" height="16" fill="#2e7bb4"/><rect x="816" y="336" width="144" height="16" fill="#2e7bb4"/><rect x="824" y="352" width="136" height="24" fill="#2e7bb4"/><rect x="832" y="376" width="128" height="40" fill="#2e7bb4"/><rect x="840" y="416" width="120" height="96" fill="#2e7bb4"/><rect x="832" y="512" width="128" height="32" fill="#2e7bb4"/><rect x="824" y="544" width="136" height="24" fill="#2e7bb4"/><rect x="816" y="568" width="144" height="16" fill="#2e7bb4"/><rect x="808" y="584" width="152" height="8" fill="#2e7bb4"/><rect x="800" y="592" width="160" height="8" fill="#2e7bb4"/><polyline points="-353,1221 62,932 241,798 529,598" fill="none" stroke="#8a8f98" stroke-width="13" stroke-linecap="round"/><polyline points="531,629 128,899 91,928 -91,1053 -342,1232" fill="none" stroke="#8a8f98" stroke-width="13" stroke-linecap="round"/><polyline points="-230,724 5,361 18,344" fill="none" stroke="#8a8f98" stroke-width="8" stroke-linecap="round"/><polyline points="209,165 194,161 182,152" fill="none" stroke="#8a8f98" stroke-width="5" stroke-linecap="round"/><polyline points="162,237 195,227" fill="none" stroke="#8a8f98" stroke-width="8" stroke-linecap="round"/><polyline points="316,214 370,221" fill="none" stroke="#8a8f98" stroke-width="8" stroke-linecap="round"/><polyline points="119,259 162,237" fill="none" stroke="#8a8f98" stroke-width="8" stroke-linecap="round"/><polyline points="139,265 72,311 18,371 -157,639" fill="none" stroke="#8a8f98" stroke-width="8" stroke-linecap="round"/><polyline points="139,415 164,439" fill="none" stroke="#8a8f98" stroke-width="5" stroke-linecap="round"/><polyline points="209,224 233,219" fill="none" stroke="#8a8f98" stroke-width="8" stroke-linecap="round"/><polyline points="202,240 199,226" fill="none" stroke="#8a8f98" stroke-width="5" stroke-linecap="round"/><polyline points="209,224 211,237" fill="none" stroke="#8a8f98" stroke-width="5" stroke-linecap="round"/><polyline points="275,509 203,482 186,471 152,439" fill="none" stroke="#8a8f98" stroke-width="5" stroke-linecap="round"/><polyline points="164,439 203,473 246,489 264,498 275,509" fill="none" stroke="#8a8f98" stroke-width="5" stroke-linecap="round"/><polyline points="202,240 198,241" fill="none" stroke="#8a8f98" stroke-width="8" stroke-linecap="round"/><polyline points="211,237 202,240" fill="none" stroke="#8a8f98" stroke-width="8" stroke-linecap="round"/><polyline points="298,226 262,228 211,237" fill="none" stroke="#8a8f98" stroke-width="8" stroke-linecap="round"/><polyline points="18,344 32,328 62,299 119,259" fill="none" stroke="#8a8f98" stroke-width="8" stroke-linecap="round"/><polyline points="233,219 275,215" fill="none" stroke="#8a8f98" stroke-width="8" stroke-linecap="round"/><polyline points="-16,264 26,245 52,229 102,183" fill="none" stroke="#8a8f98" stroke-width="3" stroke-linecap="round"/><polyline points="199,226 209,224" fill="none" stroke="#8a8f98" stroke-width="8" stroke-linecap="round"/><polyline points="199,226 195,208" fill="none" stroke="#8a8f98" stroke-width="5" stroke-linecap="round"/><polyline points="209,165 199,174 204,205" fill="none" stroke="#8a8f98" stroke-width="5" stroke-linecap="round"/><polyline points="195,227 199,226" fill="none" stroke="#8a8f98" stroke-width="8" stroke-linecap="round"/><polyline points="204,205 209,224" fill="none" stroke="#8a8f98" stroke-width="5" stroke-linecap="round"/><polyline points="60,178 -1,229 -23,230" fill="none" stroke="#8a8f98" stroke-width="3" stroke-linecap="round"/><polyline points="261,157 209,165" fill="none" stroke="#8a8f98" stroke-width="5" stroke-linecap="round"/><polyline points="187,176 185,168" fill="none" stroke="#8a8f98" stroke-width="5" stroke-linecap="round"/><polyline points="195,208 187,176" fill="none" stroke="#8a8f98" stroke-width="5" stroke-linecap="round"/><polyline points="198,241 158,256 139,265" fill="none" stroke="#8a8f98" stroke-width="8" stroke-linecap="round"/><polyline points="407,248 370,237 298,226" fill="none" stroke="#8a8f98" stroke-width="8" stroke-linecap="round"/><polyline points="275,215 316,214" fill="none" stroke="#8a8f98" stroke-width="8" stroke-linecap="round"/><polyline points="131,196 172,181" fill="none" stroke="#8a8f98" stroke-width="3" stroke-linecap="round"/><polyline points="-92,814 157,432 209,348" fill="none" stroke="#8a8f98" stroke-width="8" stroke-linecap="round"/><polyline points="209,348 213,311 202,240" fill="none" stroke="#8a8f98" stroke-width="8" stroke-linecap="round"/><polyline points="164,439 125,495 -78,823" fill="none" stroke="#8a8f98" stroke-width="8" stroke-linecap="round"/><polyline points="211,237 222,308 221,338 217,351 164,439" fill="none" stroke="#8a8f98" stroke-width="8" stroke-linecap="round"/><polyline points="152,439 104,402 44,366 48,360 55,357 58,371 139,415" fill="none" stroke="#8a8f98" stroke-width="5" stroke-linecap="round"/><polyline points="477,660 456,632 432,609" fill="none" stroke="#8a8f98" stroke-width="5" stroke-linecap="round"/><polyline points="637,374 624,361 590,336 540,305" fill="none" stroke="#8a8f98" stroke-width="8" stroke-linecap="round"/><polyline points="561,304 577,314" fill="none" stroke="#8a8f98" stroke-width="8" stroke-linecap="round"/><polyline points="540,305 510,289" fill="none" stroke="#8a8f98" stroke-width="8" stroke-linecap="round"/><polyline points="657,368 669,382" fill="none" stroke="#8a8f98" stroke-width="5" stroke-linecap="round"/><polyline points="637,374 637,364 645,359" fill="none" stroke="#8a8f98" stroke-width="8" stroke-linecap="round"/><polyline points="645,359 655,362 657,368 657,374 652,379 646,380 637,374" fill="none" stroke="#8a8f98" stroke-width="8" stroke-linecap="round"/><polyline points="701,411 726,436 733,457 727,476 704,494" fill="none" stroke="#8a8f98" stroke-width="5" stroke-linecap="round"/><polyline points="669,382 646,380" fill="none" stroke="#8a8f98" stroke-width="5" stroke-linecap="round"/><polyline points="515,456 587,506" fill="none" stroke="#8a8f98" stroke-width="3" stroke-linecap="round"/><polyline points="596,326 619,342" fill="none" stroke="#8a8f98" stroke-width="8" stroke-linecap="round"/><polyline points="619,342 645,359" fill="none" stroke="#8a8f98" stroke-width="8" stroke-linecap="round"/><polyline points="577,314 596,326" fill="none" stroke="#8a8f98" stroke-width="8" stroke-linecap="round"/><polyline points="473,256 509,273 561,304" fill="none" stroke="#8a8f98" stroke-width="8" stroke-linecap="round"/><polyline points="432,609 424,604" fill="none" stroke="#8a8f98" stroke-width="5" stroke-linecap="round"/><polyline points="424,604 515,456" fill="none" stroke="#8a8f98" stroke-width="3" stroke-linecap="round"/><polyline points="879,374 531,629" fill="none" stroke="#8a8f98" stroke-width="13" stroke-linecap="round"/><polyline points="416,233 473,256" fill="none" stroke="#8a8f98" stroke-width="8" stroke-linecap="round"/><polyline points="704,494 477,660" fill="none" stroke="#8a8f98" stroke-width="5" stroke-linecap="round"/><polyline points="669,382 701,411" fill="none" stroke="#8a8f98" stroke-width="5" stroke-linecap="round"/><polyline points="510,289 471,270" fill="none" stroke="#8a8f98" stroke-width="8" stroke-linecap="round"/><polyline points="760,350 771,375 730,384 720,377" fill="none" stroke="#8a8f98" stroke-width="3" stroke-linecap="round"/><polyline points="1388,-1 1272,87 879,374" fill="none" stroke="#8a8f98" stroke-width="13" stroke-linecap="round"/><polyline points="277,129 282,135 286,158 284,166 278,170 244,175 235,172" fill="none" stroke="#8a8f98" stroke-width="3" stroke-linecap="round"/><polyline points="238,169 245,172 280,165 280,155 270,150" fill="none" stroke="#8a8f98" stroke-width="3" stroke-linecap="round"/><polyline points="105,-57 90,1 95,102 72,164" fill="none" stroke="#8a8f98" stroke-width="3" stroke-linecap="round"/><polyline points="185,168 158,153 160,123" fill="none" stroke="#8a8f98" stroke-width="3" stroke-linecap="round"/><polyline points="336,714 529,598" fill="none" stroke="#8a8f98" stroke-width="13" stroke-linecap="round"/><polyline points="531,629 504,659 426,728 394,751" fill="none" stroke="#8a8f98" stroke-width="13" stroke-linecap="round"/><polyline points="529,598 736,451 1369,-22" fill="none" stroke="#8a8f98" stroke-width="13" stroke-linecap="round"/><polyline points="167,114 164,94 267,77 278,151 176,167 167,114" fill="none" stroke="#8a8f98" stroke-width="3" stroke-linecap="round"/><polyline points="320,502 471,270" fill="none" stroke="#8a8f98" stroke-width="3" stroke-linecap="round"/><polyline points="275,120 277,129 273,146 261,157" fill="none" stroke="#8a8f98" stroke-width="5" stroke-linecap="round"/><polyline points="451,186 398,152 389,150 377,162" fill="none" stroke="#8a8f98" stroke-width="3" stroke-linecap="round"/><polyline points="102,183 122,151 135,107 137,71 126,10" fill="none" stroke="#8a8f98" stroke-width="3" stroke-linecap="round"/><polyline points="185,168 174,112" fill="none" stroke="#8a8f98" stroke-width="5" stroke-linecap="round"/><polyline points="275,509 424,604" fill="none" stroke="#8a8f98" stroke-width="5" stroke-linecap="round"/><polyline points="370,221 416,233" fill="none" stroke="#8a8f98" stroke-width="8" stroke-linecap="round"/><polyline points="471,270 407,248" fill="none" stroke="#8a8f98" stroke-width="8" stroke-linecap="round"/><polyline points="174,112 210,75" fill="none" stroke="#8a8f98" stroke-width="5" stroke-linecap="round"/><polyline points="275,120 267,127 251,130 201,107" fill="none" stroke="#8a8f98" stroke-width="3" stroke-linecap="round"/><polyline points="-123,49 -124,27 -80,7 -55,-44 -39,-42 -7,-48 24,-64 70,-81 95,-103 117,-109" fill="none" stroke="#8a8f98" stroke-width="3" stroke-linecap="round"/><polyline points="210,75 221,72 231,74 256,90" fill="none" stroke="#8a8f98" stroke-width="5" stroke-linecap="round"/><polyline points="133,-77 152,0" fill="none" stroke="#8a8f98" stroke-width="3" stroke-linecap="round"/><polyline points="256,90 272,108" fill="none" stroke="#8a8f98" stroke-width="5" stroke-linecap="round"/><polyline points="169,85 175,77 193,73" fill="none" stroke="#8a8f98" stroke-width="5" stroke-linecap="round"/><polyline points="171,99 169,85" fill="none" stroke="#8a8f98" stroke-width="5" stroke-linecap="round"/><polyline points="174,112 171,99" fill="none" stroke="#8a8f98" stroke-width="5" stroke-linecap="round"/><polyline points="272,108 275,120" fill="none" stroke="#8a8f98" stroke-width="5" stroke-linecap="round"/><polyline points="193,73 210,75" fill="none" stroke="#8a8f98" stroke-width="5" stroke-linecap="round"/><polyline points="443,77 484,101" fill="none" stroke="#8a8f98" stroke-width="3" stroke-linecap="round"/><polyline points="481,140 489,124" fill="none" stroke="#8a8f98" stroke-width="5" stroke-linecap="round"/><polyline points="489,124 450,100" fill="none" stroke="#8a8f98" stroke-width="3" stroke-linecap="round"/><polygon points="640,295 646,301 663,309 687,313 706,310 724,303 750,280 761,262 766,245 766,231 745,191 700,127 681,106 644,139 635,155 631,178 641,208 656,232 675,248 686,252 697,252 702,249 699,245 688,246 661,227 647,205 637,178 644,165 652,161 665,164 684,179 703,201 712,222 713,236 705,249 697,254 686,254 673,250 663,243 645,224 591,109 543,187 667,261 690,266 707,258 711,264 691,273 677,273 664,267 640,295" fill="#ef8354" stroke="#00000033"/><polygon points="136,18 149,62 146,74 154,82 151,90 155,90 154,104 160,108 166,142 173,144 164,75 218,68 228,69 254,84 257,77 229,62 218,61 163,69 146,18 155,-8 140,-68 135,-68 131,-68 144,-11 136,18" fill="#c8c2b8" stroke="#00000033"/><polygon points="410,108 389,145 447,177 468,141 410,108" fill="#c8c2b8" stroke="#00000033"/><polygon points="460,13 451,18 454,25 443,31 438,40 449,46 457,43 461,37 464,39 463,49 472,56 474,57 482,45 491,59 502,60 507,54 508,46 503,35 487,30 476,14 470,11 460,13" fill="#c8c2b8" stroke="#00000033"/><polygon points="390,160 383,173 368,165 362,175 429,209 441,186 390,160" fill="#c8c2b8" stroke="#00000033"/><polygon points="136,18 144,-11 141,-24 125,-13 141,88 154,85 146,74 149,62 136,18" fill="#c8c2b8" stroke="#00000033"/><polygon points="154,104 155,90 140,91 136,120 125,153 142,159 151,134 154,104" fill="#c8c2b8" stroke="#00000033"/><polygon points="89,203 48,241 58,254 104,217 89,203" fill="#c8c2b8" stroke="#00000033"/><polygon points="494,200 507,196 513,201 515,209 498,239 487,244 478,238 478,229 494,200" fill="#c8c2b8" stroke="#00000033"/><polygon points="100,42 99,65 104,83 121,83 124,78 125,65 123,47 119,39 106,38 100,42" fill="#c8c2b8" stroke="#00000033"/><polygon points="363,412 355,407 300,494 308,499 363,412" fill="#c8c2b8" stroke="#00000033"/><polygon points="664,265 655,260 648,263 642,262 640,267 633,269 630,278 615,284 610,281 604,284 599,283 593,292 586,292 584,296 589,300 599,292 605,290 602,298 604,301 626,313 630,308 629,303 614,296 612,292 615,290 622,292 626,286 631,286 636,278 643,277 644,271 648,268 653,271 661,270 664,265" fill="#c8c2b8" stroke="#00000033"/><polygon points="548,146 553,148 548,165 534,179 539,192 538,202 531,203 529,206 535,211 531,216 525,213 521,216 518,213 523,208 527,195 522,189 524,175 532,165 536,155 548,146" fill="#c8c2b8" stroke="#00000033"/><polygon points="477,285 485,289 440,361 432,356 477,285" fill="#c8c2b8" stroke="#00000033"/><polygon points="127,158 113,179 125,187 139,166 127,158" fill="#c8c2b8" stroke="#00000033"/><polygon points="744,221 738,230 739,243 746,235 758,243 757,227 751,222 744,221" fill="#c8c2b8" stroke="#00000033"/><polyline points="203,482 186,471 159,445 217,351 221,338 222,308 211,237 262,228 298,226 370,237 466,268 510,289 590,336 637,374 639,362 653,360" fill="none" stroke="#ffdd44" stroke-width="6" opacity="0.85"/><circle cx="203" cy="482" r="10" fill="#a0f"/><circle cx="653" cy="360" r="10" fill="#f00"/><path d="M180.9999999990021,533.0999999999855 L196.9999999990021,533.0999999999855 M188.9999999990021,525.0999999999855 L188.9999999990021,541.0999999999855" stroke="#0ff" stroke-width="2"/><path d="M821.500000000014,39.59999999999916 L837.500000000014,39.59999999999916 M829.500000000014,31.599999999999163 L829.500000000014,47.59999999999916" stroke="#0ff" stroke-width="2"/><rect x="209" y="432" width="22" height="16" fill="#b8c2cc" stroke="#333"/><rect x="137" y="492" width="22" height="16" fill="#b8c2cc" stroke="#333"/><rect x="125" y="384" width="22" height="16" fill="#b8c2cc" stroke="#333"/><rect x="161" y="324" width="22" height="16" fill="#b8c2cc" stroke="#333"/><rect x="245" y="384" width="22" height="16" fill="#b8c2cc" stroke="#333"/><rect x="257" y="324" width="22" height="16" fill="#b8c2cc" stroke="#333"/><rect x="257" y="264" width="22" height="16" fill="#b8c2cc" stroke="#333"/><rect x="113" y="288" width="22" height="16" fill="#b8c2cc" stroke="#333"/><rect x="233" y="132" width="22" height="16" fill="#b8c2cc" stroke="#333"/><rect x="317" y="168" width="22" height="16" fill="#b8c2cc" stroke="#333"/><rect x="317" y="276" width="22" height="16" fill="#b8c2cc" stroke="#333"/><rect x="377" y="288" width="22" height="16" fill="#b8c2cc" stroke="#333"/><rect x="449" y="204" width="22" height="16" fill="#b8c2cc" stroke="#333"/><rect x="473" y="324" width="22" height="16" fill="#b8c2cc" stroke="#333"/><rect x="521" y="240" width="22" height="16" fill="#b8c2cc" stroke="#333"/><rect x="521" y="360" width="22" height="16" fill="#b8c2cc" stroke="#333"/><rect x="581" y="252" width="22" height="16" fill="#b8c2cc" stroke="#333"/><rect x="593" y="396" width="22" height="16" fill="#b8c2cc" stroke="#333"/><circle cx="626" cy="137" r="6" fill="#e8862a" stroke="#333"/><text x="679" y="231" font-size="13" fill="#fff" text-anchor="middle" stroke="#000" stroke-width="0.4">Marina Barrage</text><text x="480" y="20" font-size="16" fill="#fff" text-anchor="middle">27: Marina Barrage</text></svg>