<svg xmlns="http://www.w3.org/2000/svg" width="960" height="600" viewBox="0 0 960 600"><rect width="960" height="600" fill="#6aa03c"/><polygon points="640,426 663,407 650,397 677,394 674,355 634,352 615,344 618,339 583,311 586,308 583,304 588,301 598,308 602,317 614,320 623,312 617,300 603,299 584,286 573,275 557,267 541,250 525,238 508,231 470,185 437,158 430,146 425,108 502,62 548,46 561,44 574,47 587,86 597,95 625,100 651,89 662,89 676,94 689,103 698,117 714,145 723,179 720,250 721,276 725,296 716,299 719,305 727,304 730,308 722,323 727,337 737,341 750,337 802,353 819,341 826,332 836,332 836,339 847,347 849,357 848,380 816,414 801,459 803,485 816,508 840,526 866,532 883,530 898,523 891,555 883,566 889,572 885,584 841,562 827,582 837,587 837,600 818,597 804,586 815,545 799,542 778,574 766,558 724,523 706,499 640,426" fill="#4c8a2c" opacity="0.7"/><polygon points="958,324 949,319 931,277 922,267 852,225 839,222 820,228 795,244 746,244 739,241 734,222 733,165 726,141 701,97 688,86 671,78 645,80 623,87 604,84 597,72 587,37 578,30 568,27 559,29 496,53 423,96 375,120 346,111 348,103 343,97 383,75 393,90 430,66 407,5 460,15 506,15 543,11 572,14 622,29 688,60 741,80 768,123 778,165 798,180 818,191 837,195 910,197 920,205 945,296 958,324" fill="#4c8a2c" opacity="0.7"/><polygon points="799,33 799,39 776,67 798,85 792,92 854,140 849,185 877,188 911,187 950,83 969,91 989,74 1009,69 1010,63 1024,64 1032,36 1024,37 1023,31 1034,27 1020,-5 1002,-9 974,-19 937,-7 922,6 897,20 888,18 865,-1 841,10 828,12 817,10 812,22 799,33" fill="#4c8a2c" opacity="0.7"/><polygon points="415,113 369,134 389,159 391,167 379,181 385,187 383,193 444,257 490,283 574,367 584,354 548,320 566,298 557,284 550,292 538,281 548,269 528,250 493,230 462,194 426,162 415,113" fill="#4c8a2c" opacity="0.7"/><polygon points="860,616 879,600 893,573 906,559 905,541 910,533 917,530 929,533 934,531 936,526 929,516 929,509 933,500 938,493 957,493 961,489 960,483 955,479 952,471 954,460 969,443 983,410 977,390 977,362 1022,396 1031,408 1002,436 956,515 960,540 978,575 961,577 950,584 940,585 921,576 896,618 860,616" fill="#4c8a2c" opacity="0.7"/><polygon points="947,395 874,369 872,355 876,346 887,348 891,324 880,318 884,281 864,276 865,265 832,255 831,259 826,259 825,263 769,272 737,285 734,278 738,263 748,257 795,257 828,238 839,236 850,238 906,268 921,284 928,301 914,300 914,337 940,368 961,366 963,377 947,395" fill="#4c8a2c" opacity="0.7"/><polygon points="941,475 955,450 979,441 978,436 967,435 945,421 936,418 912,420 906,438 896,433 894,437 879,433 869,462 851,455 849,458 851,462 847,466 862,475 893,446 898,449 905,448 917,456 926,441 941,449 937,458 942,460 936,474 931,472 925,483 889,467 861,495 835,479 843,469 837,464 818,466 807,461 805,470 814,493 830,510 841,519 869,526 879,525 902,513 892,502 900,494 913,506 931,493 941,475" fill="#4c8a2c" opacity="0.7"/><polygon points="149,168 168,190 177,185 194,196 218,201 201,243 186,247 186,260 149,213 134,176 149,168" fill="#4c8a2c" opacity="0.7"/><polygon points="452,444 447,445 438,453 438,465 465,504 478,515 492,519 505,519 514,514 520,508 522,502 519,500 523,488 521,486 519,485 511,501 490,489 473,472 460,452 477,444 475,441 456,448 452,444" fill="#4c8a2c" opacity="0.7"/><polygon points="454,455 447,452 438,459 438,465 465,504 478,515 492,519 505,519 520,508 516,502 503,508 480,492 456,467 451,457 454,455" fill="#4c8a2c" opacity="0.7"/><polygon points="456,454 451,457 453,461 468,480 487,497 505,508 511,501 490,489 473,472 460,452 456,454" fill="#e8d8a8"/><polygon points="185,262 188,258 186,249 202,246 218,201 228,195 256,184 261,194 289,193 303,179 334,194 356,208 360,221 481,324 487,337 493,337 501,347 507,340 514,347 498,365 531,427 550,428 569,407 584,417 588,413 592,417 589,424 582,426 583,431 597,438 607,439 620,450 606,465 617,468 623,464 657,494 651,498 649,505 657,522 662,526 682,532 691,526 702,530 706,533 705,542 721,551 745,580 753,596 760,598 760,608 774,611 773,614 765,614 752,622 739,592 724,569 694,553 656,551 637,562 629,558 620,547 624,522 620,502 597,465 565,446 549,443 516,445 512,442 504,402 498,388 474,360 461,352 426,341 386,340 378,315 361,288 340,276 300,243 286,238 255,240 231,256 225,272 227,275 244,283 251,291 249,295 242,296 217,291 185,262" fill="#e8d8a8"/><polygon points="256,173 281,151 293,134 310,135 300,162 303,179 289,193 261,194 254,178 256,173" fill="#9aa0a8"/><polygon points="353,76 321,98 315,72 341,55 353,76" fill="#9aa0a8"/><polygon points="817,401 811,405 805,416 799,417 795,412 798,403 817,377 817,368 812,364 800,362 776,372 775,379 783,405 780,409 763,408 755,412 749,431 725,443 720,452 722,467 719,475 723,493" fill="#3d8b46" stroke="#fff"/><polygon points="347,-5 307,28 313,57 337,55 367,35 347,-5" fill="#3d8b46" stroke="#fff"/><polygon points="789,471 795,488 789,506 781,509 777,506 776,489 773,487 758,491 751,487 750,482 761,466 761,460 746,446" fill="#3d8b46" stroke="#fff"/><polygon points="780,451 784,434 779,428 778,421 766,416 759,423 759,441 750,446 738,445 733,448 722,467" fill="#3d8b46" stroke="#fff"/><polygon points="817,401 808,425 796,439 789,454 789,482 782,483 779,479 781,442 777,437 772,439 761,456" fill="#3d8b46" stroke="#fff"/><polygon points="757,458 748,472 743,475 738,472 737,468 744,457 741,454 734,454 724,473 723,493" fill="#3d8b46" stroke="#fff"/><polygon points="841,372 843,378 839,386 817,401" fill="#3d8b46" stroke="#fff"/><polygon points="551,389 539,406 545,415 548,414 548,405 552,406 559,398 551,389" fill="#3ec6e8"/><polygon points="504,366 503,362 514,362 517,371 512,373 513,377 508,378 504,366" fill="#3ec6e8"/><polygon points="602,423 596,419 594,423 607,435 610,435 612,431 602,423" fill="#3ec6e8"/><polygon points="664,495 661,500 671,510 674,510 675,507 664,495" fill="#3ec6e8"/><polygon points="205,160 203,170 197,171 191,168 187,172 184,180 190,190 195,188 199,181 205,181 211,188 219,181 215,171 218,161 211,157 205,157 205,160" fill="#3ec6e8"/><polygon points="575,321 577,328 573,332 569,332 565,324 575,321" fill="#3ec6e8"/><polygon points="494,324 486,329 487,337 493,337 499,329 494,324" fill="#3ec6e8"/><polygon points="904,128 905,132 896,141 898,153 886,154 886,143 877,137 876,129 892,124 904,128" fill="#3ec6e8"/><polygon points="935,2 945,-1 949,6 943,12 932,16 929,7 935,2" fill="#3ec6e8"/><polygon points="736,12 712,7 699,11 687,21 701,28 717,29 725,21 731,19 736,12" fill="#2e7bb4"/><polygon points="904,128 905,132 896,141 898,153 886,154 886,143 877,137 876,129 892,124 904,128" fill="#2e7bb4"/><rect x="432" y="0" width="16" height="8" fill="#2e7bb4"/><rect x="552" y="0" width="88" height="8" fill="#2e7bb4"/><rect x="600" y="8" width="24" height="8" fill="#2e7bb4"/><rect x="0" y="40" width="8" height="8" fill="#2e7bb4"/><rect x="0" y="48" width="16" height="8" fill="#2e7bb4"/><rect x="0" y="56" width="24" height="8" fill="#2e7bb4"/><rect x="0" y="64" width="40" height="8" fill="#2e7bb4"/><rect x="0" y="72" width="48" height="8" fill="#2e7bb4"/><rect x="0" y="80" width="56" height="8" fill="#2e7bb4"/><rect x="0" y="88" width="64" height="8" fill="#2e7bb4"/><rect x="0" y="96" width="72" height="8" fill="#2e7bb4"/><rect x="0" y="104" width="80" height="8" fill="#2e7bb4"/><rect x="0" y="112" width="88" height="8" fill="#2e7bb4"/><rect x="0" y="120" width="96" height="8" fill="#2e7bb4"/><rect x="0" y="128" width="104" height="8" fill="#2e7bb4"/><rect x="0" y="136" width="112" height="8" fill="#2e7bb4"/><rect x="0" y="144" width="120" height="8" fill="#2e7bb4"/><rect x="0" y="152" width="128" height="24" fill="#2e7bb4"/><rect x="0" y="176" width="136" height="16" fill="#2e7bb4"/><rect x="0" y="192" width="144" height="24" fill="#2e7bb4"/><rect x="0" y="216" width="152" height="8" fill="#2e7bb4"/><rect x="0" y="224" width="160" height="8" fill="#2e7bb4"/><rect x="0" y="232" width="168" height="16" fill="#2e7bb4"/><rect x="248" y="240" width="56" height="8" fill="#2e7bb4"/><rect x="0" y="248" width="176" height="8" fill="#2e7bb4"/><rect x="240" y="248" width="72" height="8" fill="#2e7bb4"/><rect x="0" y="256" width="184" height="8" fill="#2e7bb4"/><rect x="232" y="256" width="88" height="8" fill="#2e7bb4"/><rect x="0" y="264" width="192" height="8" fill="#2e7bb4"/><rect x="224" y="264" width="104" height="8" fill="#2e7bb4"/><rect x="0" y="272" width="200" height="8" fill="#2e7bb4"/><rect x="232" y="272" width="104" height="8" fill="#2e7bb4"/><rect x="0" y="280" width="208" height="8" fill="#2e7bb4"/><rect x="248" y="280" width="104" height="8" fill="#2e7bb4"/><rect x="0" y="288" width="224" height="8" fill="#2e7bb4"/><rect x="248" y="288" width="120" height="8" fill="#2e7bb4"/><rect x="0" y="296" width="368" height="8" fill="#2e7bb4"/><rect x="0" y="304" width="376" height="8" fill="#2e7bb4"/><rect x="0" y="312" width="280" height="8" fill="#2e7bb4"/><rect x="312" y="312" width="64" height="8" fill="#2e7bb4"/><rect x="0" y="320" width="256" height="8" fill="#2e7bb4"/><rect x="312" y="320" width="32" height="8" fill="#2e7bb4"/><rect x="352" y="320" width="32" height="16" fill="#2e7bb4"/><rect x="0" y="328" width="264" height="16" fill="#2e7bb4"/><rect x="304" y="328" width="40" height="8" fill="#2e7bb4"/><rect x="296" y="336" width="88" height="8" fill="#2e7bb4"/><rect x="0" y="344" width="272" height="8" fill="#2e7bb4"/><rect x="288" y="344" width="160" height="8" fill="#2e7bb4"/><rect x="0" y="352" width="264" height="8" fill="#2e7bb4"/><rect x="280" y="352" width="64" height="8" fill="#2e7bb4"/><rect x="352" y="352" width="112" height="8" fill="#2e7bb4"/><rect x="0" y="360" width="328" height="8" fill="#2e7bb4"/><rect x="344" y="360" width="136" height="8" fill="#2e7bb4"/><rect x="0" y="368" width="320" height="8" fill="#2e7bb4"/><rect x="352" y="368" width="136" height="8" fill="#2e7bb4"/><rect x="0" y="376" width="328" height="8" fill="#2e7bb4"/><rect x="352" y="376" width="24" height="8" fill="#2e7bb4"/><rect x="384" y="376" width="104" height="8" fill="#2e7bb4"/><rect x="0" y="384" width="336" height="8" fill="#2e7bb4"/><rect x="360" y="384" width="136" height="8" fill="#2e7bb4"/><rect x="0" y="392" width="344" height="8" fill="#2e7bb4"/><rect x="376" y="392" width="128" height="8" fill="#2e7bb4"/><rect x="0" y="400" width="352" height="8" fill="#2e7bb4"/><rect x="392" y="400" width="112" height="24" fill="#2e7bb4"/><rect x="0" y="408" width="360" height="8" fill="#2e7bb4"/><rect x="0" y="416" width="368" height="8" fill="#2e7bb4"/><rect x="0" y="424" width="512" height="8" fill="#2e7bb4"/><rect x="0" y="432" width="488" height="8" fill="#2e7bb4"/><rect x="496" y="432" width="16" height="8" fill="#2e7bb4"/><rect x="0" y="440" width="448" height="8" fill="#2e7bb4"/><rect x="456" y="440" width="8" height="8" fill="#2e7bb4"/><rect x="480" y="440" width="32" height="8" fill="#2e7bb4"/><rect x="536" y="440" width="16" height="8" fill="#2e7bb4"/><rect x="0" y="448" width="440" height="24" fill="#2e7bb4"/><rect x="464" y="448" width="112" height="8" fill="#2e7bb4"/><rect x="464" y="456" width="128" height="8" fill="#2e7bb4"/><rect x="472" y="464" width="128" height="8" fill="#2e7bb4"/><rect x="0" y="472" width="448" height="16" fill="#2e7bb4"/><rect x="480" y="472" width="128" height="8" fill="#2e7bb4"/><rect x="488" y="480" width="120" height="8" fill="#2e7bb4"/><rect x="0" y="488" width="456" height="8" fill="#2e7bb4"/><rect x="496" y="488" width="16" height="8" fill="#2e7bb4"/><rect x="520" y="488" width="96" height="16" fill="#2e7bb4"/><rect x="0" y="496" width="464" height="8" fill="#2e7bb4"/><rect x="0" y="504" width="472" height="8" fill="#2e7bb4"/><rect x="520" y="504" width="104" height="8" fill="#2e7bb4"/><rect x="0" y="512" width="480" height="8" fill="#2e7bb4"/><rect x="512" y="512" width="112" height="8" fill="#2e7bb4"/><rect x="0" y="520" width="624" height="16" fill="#2e7bb4"/><rect x="0" y="536" width="568" height="32" fill="#2e7bb4"/><rect x="576" y="536" width="48" height="24" fill="#2e7bb4"/><rect x="648" y="552" width="48" height="8" fill="#2e7bb4"/><rect x="584" y="560" width="56" height="8" fill="#2e7bb4"/><rect x="648" y="560" width="64" height="8" fill="#2e7bb4"/><rect x="0" y="568" width="576" height="8" fill="#2e7bb4"/><rect x="600" y="568" width="40" height="8" fill="#2e7bb4"/><rect x="648" y="568" width="80" height="16" fill="#2e7bb4"/><rect x="0" y="576" width="584" height="8" fill="#2e7bb4"/><rect x="616" y="576" width="24" height="8" fill="#2e7bb4"/><rect x="0" y="584" width="600" height="8" fill="#2e7bb4"/><rect x="648" y="584" width="88" height="8" fill="#2e7bb4"/><rect x="0" y="592" width="616" height="8" fill="#2e7bb4"/><rect x="640" y="592" width="104" height="8" fill="#2e7bb4"/><polyline points="97,28 74,0 42,-24" fill="none" stroke="#8a8f98" stroke-width="3" stroke-linecap="round"/><polyline points="894,449 861,480" fill="none" stroke="#8a8f98" stroke-width="3" stroke-linecap="round"/><polyline points="893,582 877,603 839,597 838,600 853,606 860,615 873,615 890,618 908,590 893,582" fill="none" stroke="#8a8f98" stroke-width="3" stroke-linecap="round"/><polyline points="855,394 900,407 901,399 895,385 880,377 866,380 855,394" fill="none" stroke="#8a8f98" stroke-width="3" stroke-linecap="round"/><polyline points="804,457 802,475 811,495 827,514 843,524 861,529 879,528 904,517 919,504" fill="none" stroke="#8a8f98" stroke-width="3" stroke-linecap="round"/><polyline points="919,504 945,480 955,455 971,447 981,449" fill="none" stroke="#8a8f98" stroke-width="3" stroke-linecap="round"/><polyline points="971,346 946,329 929,287 915,270 849,232 840,231 825,236 798,254 764,255" fill="none" stroke="#8a8f98" stroke-width="5" stroke-linecap="round"/><polyline points="726,250 726,178 720,151 695,104 669,86" fill="none" stroke="#8a8f98" stroke-width="5" stroke-linecap="round"/><polyline points="665,166 682,188 694,243 693,267 709,295" fill="none" stroke="#8a8f98" stroke-width="5" stroke-linecap="round"/><polyline points="415,105 501,55 558,33 575,33 586,47 594,78 606,88 624,91 662,81 671,82 697,99 724,147 730,176 731,221" fill="none" stroke="#8a8f98" stroke-width="5" stroke-linecap="round"/><polyline points="847,336 853,362 852,377 845,388 824,408 804,457" fill="none" stroke="#8a8f98" stroke-width="3" stroke-linecap="round"/><polyline points="438,256 479,281 562,365 618,407 702,502 710,515 746,543 764,561 773,576 777,595 785,603 803,606 817,602 835,603 846,606 856,615" fill="none" stroke="#8a8f98" stroke-width="5" stroke-linecap="round"/><polyline points="978,404 973,386 972,359 949,339 950,326" fill="none" stroke="#8a8f98" stroke-width="3" stroke-linecap="round"/><polyline points="296,163 269,188 262,183 262,178" fill="none" stroke="#8a8f98" stroke-width="3" stroke-linecap="round"/><polyline points="213,92 205,86 210,80 226,80 239,89" fill="none" stroke="#8a8f98" stroke-width="3" stroke-linecap="round"/><polyline points="416,108 423,125" fill="none" stroke="#8a8f98" stroke-width="5" stroke-linecap="round"/><polyline points="394,210 434,253" fill="none" stroke="#8a8f98" stroke-width="5" stroke-linecap="round"/><polyline points="296,163 297,177 280,190 269,188" fill="none" stroke="#8a8f98" stroke-width="3" stroke-linecap="round"/><polyline points="354,182 358,183 362,188 356,197 351,196 347,190 348,185 354,182" fill="none" stroke="#8a8f98" stroke-width="5" stroke-linecap="round"/><polyline points="361,185 370,191" fill="none" stroke="#8a8f98" stroke-width="5" stroke-linecap="round"/><polyline points="553,270 573,279 591,296" fill="none" stroke="#8a8f98" stroke-width="5" stroke-linecap="round"/><polyline points="506,234 525,245" fill="none" stroke="#8a8f98" stroke-width="5" stroke-linecap="round"/><polyline points="603,305 607,302 613,303 616,307 614,314 605,315 602,309 603,305" fill="none" stroke="#8a8f98" stroke-width="5" stroke-linecap="round"/><polyline points="380,198 356,197" fill="none" stroke="#8a8f98" stroke-width="5" stroke-linecap="round"/><polyline points="669,86 655,84 616,94 605,91 591,80 581,43 568,35 548,39 501,58 416,108" fill="none" stroke="#8a8f98" stroke-width="5" stroke-linecap="round"/><polyline points="369,130 356,135 333,134 319,122" fill="none" stroke="#8a8f98" stroke-width="5" stroke-linecap="round"/><polyline points="370,191 380,198" fill="none" stroke="#8a8f98" stroke-width="5" stroke-linecap="round"/><polyline points="380,198 394,210" fill="none" stroke="#8a8f98" stroke-width="5" stroke-linecap="round"/><polyline points="553,270 572,300 581,303 591,296" fill="none" stroke="#8a8f98" stroke-width="5" stroke-linecap="round"/><polyline points="456,183 506,234" fill="none" stroke="#8a8f98" stroke-width="5" stroke-linecap="round"/><polyline points="415,105 416,108" fill="none" stroke="#8a8f98" stroke-width="5" stroke-linecap="round"/><polyline points="416,108 369,130" fill="none" stroke="#8a8f98" stroke-width="5" stroke-linecap="round"/><polyline points="368,127 415,105" fill="none" stroke="#8a8f98" stroke-width="5" stroke-linecap="round"/><polyline points="525,245 535,251" fill="none" stroke="#8a8f98" stroke-width="5" stroke-linecap="round"/><polyline points="535,251 553,270" fill="none" stroke="#8a8f98" stroke-width="5" stroke-linecap="round"/><polyline points="591,296 603,305" fill="none" stroke="#8a8f98" stroke-width="5" stroke-linecap="round"/><polyline points="262,178 283,157 300,134" fill="none" stroke="#8a8f98" stroke-width="3" stroke-linecap="round"/><polyline points="239,89 262,91 274,96 299,115" fill="none" stroke="#8a8f98" stroke-width="3" stroke-linecap="round"/><polyline points="423,125 433,158 456,183" fill="none" stroke="#8a8f98" stroke-width="5" stroke-linecap="round"/><polyline points="434,253 438,256" fill="none" stroke="#8a8f98" stroke-width="5" stroke-linecap="round"/><polyline points="319,122 368,127" fill="none" stroke="#8a8f98" stroke-width="5" stroke-linecap="round"/><polyline points="294,27 307,55 309,118" fill="none" stroke="#8a8f98" stroke-width="3" stroke-linecap="round"/><polyline points="341,63 349,74 325,89 322,76" fill="none" stroke="#8a8f98" stroke-width="3" stroke-linecap="round"/><polyline points="951,267 962,306 980,324" fill="none" stroke="#8a8f98" stroke-width="3" stroke-linecap="round"/><polyline points="775,131 748,85 747,78 753,72" fill="none" stroke="#8a8f98" stroke-width="3" stroke-linecap="round"/><polyline points="931,144 942,116 941,106 949,91 958,88 962,93 962,97" fill="none" stroke="#8a8f98" stroke-width="3" stroke-linecap="round"/><polyline points="746,255 732,267" fill="none" stroke="#8a8f98" stroke-width="5" stroke-linecap="round"/><polyline points="762,326 770,328 814,322" fill="none" stroke="#8a8f98" stroke-width="5" stroke-linecap="round"/><polyline points="748,319 762,326" fill="none" stroke="#8a8f98" stroke-width="5" stroke-linecap="round"/><polyline points="731,283 735,297 745,314" fill="none" stroke="#8a8f98" stroke-width="5" stroke-linecap="round"/><polyline points="736,316 725,278 725,255" fill="none" stroke="#8a8f98" stroke-width="5" stroke-linecap="round"/><polyline points="753,72 761,62 769,64 770,69 764,76 759,77 753,72" fill="none" stroke="#8a8f98" stroke-width="3" stroke-linecap="round"/><polyline points="746,324 738,324 735,320 737,315 742,313 746,315 746,324" fill="none" stroke="#8a8f98" stroke-width="5" stroke-linecap="round"/><polyline points="750,326 746,324" fill="none" stroke="#8a8f98" stroke-width="5" stroke-linecap="round"/><polyline points="813,329 791,327 768,332 750,326" fill="none" stroke="#8a8f98" stroke-width="5" stroke-linecap="round"/><polyline points="960,321 948,296 928,215" fill="none" stroke="#8a8f98" stroke-width="3" stroke-linecap="round"/><polyline points="833,305 847,309 845,325 826,317 826,311 832,312 833,305" fill="none" stroke="#8a8f98" stroke-width="3" stroke-linecap="round"/><polyline points="813,329 816,320 824,323 824,328 821,331 813,329" fill="none" stroke="#8a8f98" stroke-width="5" stroke-linecap="round"/><polyline points="726,250 731,250" fill="none" stroke="#8a8f98" stroke-width="5" stroke-linecap="round"/><polyline points="764,255 746,255" fill="none" stroke="#8a8f98" stroke-width="5" stroke-linecap="round"/><polyline points="746,255 731,255" fill="none" stroke="#8a8f98" stroke-width="5" stroke-linecap="round"/><polyline points="731,250 731,255" fill="none" stroke="#8a8f98" stroke-width="5" stroke-linecap="round"/><polyline points="731,250 791,249 831,227 850,228 916,267 933,286 950,326 968,338" fill="none" stroke="#8a8f98" stroke-width="5" stroke-linecap="round"/><polyline points="845,191 849,149" fill="none" stroke="#8a8f98" stroke-width="3" stroke-linecap="round"/><polyline points="731,255 732,267" fill="none" stroke="#8a8f98" stroke-width="5" stroke-linecap="round"/><polyline points="725,255 726,250" fill="none" stroke="#8a8f98" stroke-width="5" stroke-linecap="round"/><polyline points="731,255 725,255" fill="none" stroke="#8a8f98" stroke-width="5" stroke-linecap="round"/><polyline points="918,172 914,166 912,154 924,117" fill="none" stroke="#8a8f98" stroke-width="3" stroke-linecap="round"/><polyline points="914,190 887,193 845,191" fill="none" stroke="#8a8f98" stroke-width="3" stroke-linecap="round"/><polyline points="845,191 817,184 803,177 784,156" fill="none" stroke="#8a8f98" stroke-width="3" stroke-linecap="round"/><polyline points="732,267 731,283" fill="none" stroke="#8a8f98" stroke-width="5" stroke-linecap="round"/><polyline points="731,221 731,250" fill="none" stroke="#8a8f98" stroke-width="5" stroke-linecap="round"/><polyline points="933,198 951,267" fill="none" stroke="#8a8f98" stroke-width="3" stroke-linecap="round"/><polyline points="1187,247 1087,373 995,460 896,627 907,602 974,492" fill="none" stroke="#444" stroke-width="4" stroke-dasharray="8,4"/><polygon points="957,126 953,126 952,136 961,137 963,151 952,158 956,163 962,161 949,171 959,184 972,173 968,178 972,183 981,175 994,185 995,182 1009,185 1014,169 996,162 981,143 979,126 985,126 992,109 987,107 1002,97 1016,95 1028,98 1043,107 1052,93 1037,83 1021,78 1004,79 982,91 977,84 969,91 972,95 970,98 967,100 957,95 948,112 959,117 957,126" fill="#c8c2b8" stroke="#00000033"/><polygon points="791,82 796,86 789,94 850,141 851,144 843,154 847,156 832,170 797,143 801,138 797,136 803,129 765,100 767,98 764,95 770,88 773,90 775,87 766,80 766,76 771,73 777,77 782,68 778,66 791,52 801,59 799,62 802,64 791,82" fill="#c8c2b8" stroke="#00000033"/><polygon points="161,178 166,178 161,165 161,158 169,136 183,121 195,113 206,109 208,118 212,122 225,122 225,127 242,133 239,137 254,152 272,144 274,139 269,133 272,125 247,106 223,101 222,88 213,89 213,96 198,100 196,96 184,101 172,109 155,130 158,133 155,138 157,141 150,159 152,168 161,178" fill="#c8c2b8" stroke="#00000033"/><polygon points="933,588 932,604 921,604 921,639 987,638 988,590 933,588" fill="#c8c2b8" stroke="#00000033"/><polygon points="856,50 880,87 904,71 901,60 905,58 901,51 907,45 896,40 889,26 884,26 882,21 872,20 868,14 864,17 863,14 840,30 839,35 851,53 856,50" fill="#c8c2b8" stroke="#00000033"/><polygon points="977,278 978,282 997,277 984,228 1046,211 1041,192 960,214 977,278" fill="#c8c2b8" stroke="#00000033"/><polygon points="854,397 867,399 866,401 891,410 892,407 899,409 900,413 892,435 873,428 864,455 837,445 854,397" fill="#c8c2b8" stroke="#00000033"/><polygon points="876,601 886,584 841,562 829,581 840,586 839,595 876,601" fill="#c8c2b8" stroke="#00000033"/><polygon points="323,145 336,165 350,171 365,172 366,169 373,171 376,163 369,159 372,155 356,143 332,141 317,136 318,139 327,142 323,145" fill="#c8c2b8" stroke="#00000033"/><polygon points="525,335 512,351 526,364 527,378 549,377 552,389 559,394 560,391 565,395 572,391 570,381 562,378 553,387 551,381 558,380 551,371 546,357 527,351 525,346 530,340 525,335" fill="#c8c2b8" stroke="#00000033"/><polygon points="386,59 368,28 391,14 410,44 386,59" fill="#c8c2b8" stroke="#00000033"/><polygon points="664,384 671,384 672,391 642,393 589,348 605,331 616,340 605,352 645,386 661,385 657,379 666,378 664,384" fill="#c8c2b8" stroke="#00000033"/><polygon points="639,448 624,464 646,485 648,482 650,486 657,487 662,482 662,477 657,474 662,469 639,448" fill="#c8c2b8" stroke="#00000033"/><polygon points="758,306 761,296 766,292 767,299 763,301 770,320 787,316 788,313 786,314 782,307 776,291 771,293 762,281 756,285 757,289 746,286 742,296 752,303 750,306 755,311 758,306" fill="#c8c2b8" stroke="#00000033"/><polygon points="354,75 342,54 370,38 382,58 354,75" fill="#c8c2b8" stroke="#00000033"/><polygon points="553,316 567,300 574,307 578,303 582,307 579,310 598,327 579,348 572,341 584,327 575,319 572,322 570,320 560,322 553,316" fill="#c8c2b8" stroke="#00000033"/><polygon points="727,538 756,557 749,568 706,541 706,532 714,527 724,532 719,538 725,541 727,538" fill="#c8c2b8" stroke="#00000033"/><polygon points="824,309 824,315 816,315 816,311 811,313 805,310 797,293 793,295 784,292 796,288 827,292 834,295 831,309 824,309" fill="#c8c2b8" stroke="#00000033"/><polygon points="859,318 863,319 867,280 876,279 875,281 881,282 877,320 883,323 883,334 879,334 880,326 858,324 859,318" fill="#c8c2b8" stroke="#00000033"/><polygon points="935,2 929,7 937,33 951,29 953,35 968,30 962,11 954,10 946,15 939,16 935,2" fill="#c8c2b8" stroke="#00000033"/><polygon points="745,25 754,13 778,30 756,57 746,49 761,29 756,26 752,30 745,25" fill="#c8c2b8" stroke="#00000033"/><polygon points="698,513 678,487 675,490 671,484 663,491 667,495 664,498 684,524 698,513" fill="#c8c2b8" stroke="#00000033"/><polygon points="809,343 792,345 769,333 783,324 794,323 818,335 809,343" fill="#c8c2b8" stroke="#00000033"/><polygon points="958,398 982,410 975,424 968,427 948,417 958,398" fill="#c8c2b8" stroke="#00000033"/><polygon points="822,102 849,86 857,101 831,117 822,102" fill="#c8c2b8" stroke="#00000033"/><polygon points="467,284 454,298 475,316 488,302 467,284" fill="#c8c2b8" stroke="#00000033"/><polygon points="717,51 726,39 757,61 748,73 736,64 740,59 733,53 729,59 717,51" fill="#c8c2b8" stroke="#00000033"/><polygon points="191,231 196,227 200,217 199,210 191,205 187,209 176,210 173,214 182,230 186,228 191,231" fill="#c8c2b8" stroke="#00000033"/><polygon points="859,312 853,311 849,330 864,332 864,335 879,334 880,326 858,324 859,312" fill="#c8c2b8" stroke="#00000033"/><polygon points="913,17 911,25 918,28 917,34 929,36 930,28 934,28 932,20 925,19 924,11 918,13 918,17 913,17" fill="#c8c2b8" stroke="#00000033"/><polygon points="828,275 830,260 857,267 855,275 837,271 835,277 831,279 828,275" fill="#c8c2b8" stroke="#00000033"/><polygon points="967,212 967,196 964,195 953,195 940,198 940,204 957,202 960,214 967,212" fill="#c8c2b8" stroke="#00000033"/><polygon points="789,297 792,303 783,306 786,314 793,311 798,317 806,314 797,293 789,297" fill="#c8c2b8" stroke="#00000033"/><polygon points="693,40 689,56 705,60 709,44 693,40" fill="#c8c2b8" stroke="#00000033"/><polygon points="957,-4 960,5 966,7 977,4 976,2 979,1 976,-10 980,-11 973,-11 957,-4" fill="#c8c2b8" stroke="#00000033"/><polygon points="607,409 602,415 606,418 604,420 618,430 615,433 621,438 626,430 621,425 623,423 607,409" fill="#c8c2b8" stroke="#00000033"/><polyline points="1000,12 953,88 941,106 942,116 926,147 914,190 924,200 948,296 968,338 950,326 933,286 916,267 850,228 831,227 791,249 731,250 730,176 724,147 703,106 687,91 671,82 654,82 624,91 606,88 594,78 586,47 575,33 558,33 501,55 427,98 368,127 319,122 299,115 300,134 283,157 262,178 262,183" fill="none" stroke="#ffdd44" stroke-width="6" opacity="0.85"/><circle cx="1000" cy="12" r="10" fill="#a0f"/><circle cx="262" cy="183" r="10" fill="#f00"/><path d="M905.3333333338761,8.33333333335081 L921.3333333338761,8.33333333335081 M913.3333333338761,0.3333333333508097 L913.3333333338761,16.333333333350808" stroke="#0ff" stroke-width="2"/><path d="M171.99999999925984,225.00000000000927 L187.99999999925984,225.00000000000927 M179.99999999925984,217.00000000000927 L179.99999999925984,233.00000000000927" stroke="#0ff" stroke-width="2"/><rect x="881" y="96" width="22" height="16" fill="#b8c2cc" stroke="#333"/><rect x="857" y="156" width="22" height="16" fill="#b8c2cc" stroke="#333"/><rect x="785" y="180" width="22" height="16" fill="#b8c2cc" stroke="#333"/><rect x="893" y="324" width="22" height="16" fill="#b8c2cc" stroke="#333"/><rect x="905" y="384" width="22" height="16" fill="#b8c2cc" stroke="#333"/><rect x="833" y="276" width="22" height="16" fill="#b8c2cc" stroke="#333"/><rect x="845" y="360" width="22" height="16" fill="#b8c2cc" stroke="#333"/><rect x="785" y="348" width="22" height="16" fill="#b8c2cc" stroke="#333"/><rect x="713" y="324" width="22" height="16" fill="#b8c2cc" stroke="#333"/><rect x="665" y="240" width="22" height="16" fill="#b8c2cc" stroke="#333"/><rect x="665" y="144" width="22" height="16" fill="#b8c2cc" stroke="#333"/><rect x="605" y="132" width="22" height="16" fill="#b8c2cc" stroke="#333"/><rect x="545" y="96" width="22" height="16" fill="#b8c2cc" stroke="#333"/><rect x="485" y="108" width="22" height="16" fill="#b8c2cc" stroke="#333"/><rect x="437" y="144" width="22" height="16" fill="#b8c2cc" stroke="#333"/><rect x="389" y="180" width="22" height="16" fill="#b8c2cc" stroke="#333"/><rect x="317" y="180" width="22" height="16" fill="#b8c2cc" stroke="#333"/><rect x="209" y="144" width="22" height="16" fill="#b8c2cc" stroke="#333"/><circle cx="949" cy="562" r="6" fill="#e8862a" stroke="#333"/><circle cx="163" cy="55" r="6" fill="#e8862a" stroke="#333"/><text x="172" y="192" font-size="13" fill="#fff" text-anchor="middle" stroke="#000" stroke-width="0.4">Fort Siloso</text><text x="480" y="20" font-size="16" fill="#fff" text-anchor="middle">28: Sentosa Siloso</text></svg>