<svg xmlns="http://www.w3.org/2000/svg" width="960" height="600" viewBox="0 0 960 600"><rect width="960" height="600" fill="#6aa03c"/><polygon points="205,408 189,549 198,558 187,686 224,688 234,581 231,570 253,385 205,408" fill="#4c8a2c" opacity="0.7"/><polygon points="660,129 640,110 566,136 557,181 580,181 599,198 537,379 490,379 490,395 544,391 610,204 612,205 611,209 616,210 635,172 625,163 621,125 633,122 651,138 660,129" fill="#4c8a2c" opacity="0.7"/><polygon points="344,48 379,77 324,141 261,179 222,173 240,151 245,155 268,129 283,120 288,112 290,102 284,87 299,67 313,77 324,75 344,48" fill="#4c8a2c" opacity="0.7"/><polygon points="228,16 299,67 316,44 335,59 344,48 324,23 317,-23 317,-40 306,-57 296,-63 290,-64 277,-46 292,-33 293,-24 290,-17 278,-11 259,-21 228,16" fill="#4c8a2c" opacity="0.7"/><polygon points="424,-24 426,-26 425,-65 418,-70 415,-79 417,-87 423,-92 414,-112 360,-41 359,-27 424,-24" fill="#4c8a2c" opacity="0.7"/><polygon points="352,-15 354,-22 383,-11 425,-19 416,0 406,3 391,1 383,5 371,21 360,8 352,-15" fill="#4c8a2c" opacity="0.7"/><polygon points="461,191 485,192 486,211 453,296 444,298 442,292 446,292 447,286 450,286 452,249 459,249 460,243 469,243 474,229 474,204 470,195 461,194 461,191" fill="#4c8a2c" opacity="0.7"/><polygon points="380,180 387,185 403,159 399,157 380,180" fill="#3ec6e8"/><polygon points="1188,410 1130,455 1121,467 1104,497 1097,519 1091,566 1035,649 980,694 953,731 937,740 923,741 919,748 924,751 906,779 909,781 922,771 933,772 940,784 938,800 926,818 901,844 859,908 854,926 842,946 831,958 824,957 821,951 824,968 819,969 820,985 809,1001 785,1019 633,920 670,862 646,847 626,758 536,776 513,760 475,818 412,779 419,769 426,768 434,755 439,757 440,765 445,767 444,724 525,728 529,658 499,657 497,694 465,692 468,650 529,653 533,594 488,591 491,547 528,548 528,556 541,557 544,499 485,495 486,483 483,480 492,480 492,465 498,465 499,441 493,441 494,435 508,436 510,417 496,416 497,405 502,405 503,395 544,391 610,204 612,205 611,209 616,210 635,172 625,163 621,125 633,122 651,138 660,129 640,110 566,136 610,-133 632,-127 684,-130 779,-127 786,-118 783,-114 792,-106 809,-98 819,-98 845,-105 851,-109 848,-114 857,-123 989,-116 1010,-102 1036,-51 1061,-11 1076,7 1121,35 1184,38 1369,29 1373,-95 1377,-99 1515,-90 1653,-86 1856,-75 1908,-77 1972,-120 2005,-180 2010,-259 1924,-911 1901,-1016 1912,-1086 1888,-1102 1890,-1106 1915,-1091 1920,-1139 1880,-1141 1877,-1161 1877,-1185 1887,-1280 1930,-1406 1948,-1442 1995,-1510 2066,-1579 2179,-1669 2206,-1685 2243,-1723 2258,-1708 2263,-1714 2248,-1728 2283,-1770 2320,-1778 2326,-1774 2334,-1778 2363,-1830 2360,-1840 2348,-1846 2343,-1866 2353,-1892 2360,-1934 2359,-1983 2354,-2009 2434,-2034 2435,-1970 2443,-1970 2441,-2048 2368,-2162 2342,-2174 2340,-2169 2359,-2160 2337,-2149 2327,-2147 2307,-2150 2243,-2172 2164,-2262 2172,-2279 2221,-2323 2223,-2328 2214,-2333 2256,-2326 2259,-2308 2266,-2302 2282,-2301 2309,-2311 2341,-2329 2415,-2439 2455,-2507 2611,-2669 2624,-2713 2640,-2721 2613,-2894 2613,-2918 2669,-2992 2667,-3011 2662,-3021 2745,-3062 2756,-3042 2772,-3022 2773,-2994 2760,-2967 2730,-2922 2724,-2897 2725,-2882 2745,-2767 2760,-2741 2759,-2634 2741,-2579 2674,-2505 2653,-2500 2600,-2438 2585,-2436 2578,-2408 2529,-2327 2517,-2313 2514,-2319 2508,-2317 2528,-2266 2600,-2157 2780,-2174 2938,-2142 2938,-2114 2927,-2093 2935,-1972 2957,-1867 3005,-1754 3088,-1642 3123,-1609 3190,-1565 3113,-1447 3061,-1481 3046,-1483 3037,-1469 3043,-1457 3059,-1457 3065,-1465 3108,-1433 3104,-1410 2999,-1394 2950,-1501 2822,-1502 2842,-1460 2892,-1458 2908,-1422 2753,-1369 2622,-1349 2342,-1346 2341,-1381 2322,-1398 2301,-1408 2276,-1414 2255,-1414 2234,-1410 2212,-1400 2188,-1382 2172,-1360 2148,-1282 2138,-1219 2134,-1163 2142,-1047 2152,-989 2191,-817 2212,-734 2238,-652 2308,-455 2373,-306 2444,-160 2529,-11 2617,129 2727,285 2846,431 2902,494 3057,656 3163,755 2865,975 2852,958 2847,961 2751,822 2723,843 2616,746 2606,760 2589,748 2599,736 2419,598 2402,597 2393,594 2351,560 2311,539 2278,517 2031,380 1949,349 1733,295 1719,290 1689,271 1585,238 1490,217 1370,180 1374,169 1326,154 1325,159 1279,146 1243,150 1212,166 1189,190 1174,224 1173,240 1177,277 1200,315 1204,334 1199,373 1191,392 1188,410" fill="#2e7bb4"/><polygon points="-1903,-329 -1906,-347 -1904,-358 -1866,-461 -1862,-502 -1887,-570 -1899,-584 -1911,-594 -1933,-594 -1946,-590 -2047,-587 -2133,-576 -2152,-582 -2162,-601 -2116,-606 -2036,-620 -1927,-632 -1898,-630 -1872,-615 -1850,-585 -1830,-512 -1823,-470 -1854,-367 -1859,-339 -1854,-329 -1844,-319 -1804,-301 -1740,-289 -1635,-240 -1501,-203 -1449,-206 -1408,-221 -1388,-235 -1362,-266 -1319,-333 -1307,-345 -1264,-367 -1202,-390 -1200,-386 -1183,-392 -1184,-396 -1176,-397 -1153,-397 -1070,-385 -1017,-389 -991,-399 -879,-420 -851,-436 -829,-443 -804,-445 -792,-446 -771,-433 -707,-366 -685,-350 -685,-295 -678,-268 -661,-221 -653,-212 -637,-202 -610,-202 -609,-206 -594,-210 -543,-234 -509,-258 -475,-286 -423,-296 -328,-293 -275,-285 -183,-255 -156,-238 -159,-232 -111,-203 -108,-208 -30,-159 -17,-142 -15,-128 25,-80 78,-5 75,-2 147,83 198,154 216,173 240,179 259,180 280,172 322,146 403,51 415,32 415,17 465,-74 481,-77 480,-83 483,-83 482,-89 485,-89 484,-97 493,-99 492,-104 495,-105 494,-110 498,-110 497,-119 509,-121 508,-129 512,-129 512,-133 558,-141 610,-133 566,136 493,82 496,65 510,39 505,34 478,61 450,66 452,76 448,83 454,93 394,148 363,194 365,197 341,217 347,226 325,239 325,242 279,268 277,266 240,286 210,291 210,294 102,277 60,264 -7,189 -28,150 -45,104 -52,38 -45,-20 -70,-123 -126,-165 -231,-213 -291,-232 -301,-236 -308,-231 -365,-241 -388,-239 -415,-230 -498,-190 -599,-150 -619,-137 -646,-144 -693,-171 -715,-193 -738,-232 -748,-251 -759,-292 -755,-349 -758,-372 -788,-391 -811,-394 -830,-392 -868,-366 -954,-343 -1071,-342 -1219,-332 -1246,-320 -1256,-311 -1312,-234 -1354,-200 -1403,-174 -1451,-161 -1500,-160 -1532,-164 -1585,-183 -1691,-204 -1737,-233 -1843,-271 -1868,-285 -1894,-310 -1903,-329" fill="#2e7bb4"/><polyline points="600,-135 571,15" fill="none" stroke="#8a8f98" stroke-width="13" stroke-linecap="round"/><polyline points="522,160 586,-179" fill="none" stroke="#8a8f98" stroke-width="13" stroke-linecap="round"/><polyline points="122,38 170,-25" fill="none" stroke="#8a8f98" stroke-width="3" stroke-linecap="round"/><polyline points="228,16 297,-81" fill="none" stroke="#8a8f98" stroke-width="3" stroke-linecap="round"/><polyline points="607,122 597,74 595,16 602,-29 615,-68" fill="none" stroke="#8a8f98" stroke-width="3" stroke-linecap="round"/><polyline points="170,-25 235,21" fill="none" stroke="#8a8f98" stroke-width="5" stroke-linecap="round"/><polyline points="394,48 358,10 352,-5 351,-25" fill="none" stroke="#8a8f98" stroke-width="3" stroke-linecap="round"/><polyline points="-2,-129 45,-70 140,64" fill="none" stroke="#8a8f98" stroke-width="3" stroke-linecap="round"/><polyline points="226,24 228,16 266,-31 301,-81 290,-92 275,-70 282,-65 271,-50 264,-55 246,-28 253,-23 242,-8 236,-13 230,-5 221,-11 223,-14 185,-40 189,-46 182,-51 195,-69 200,-65 204,-71 207,-69 216,-86 209,-90 223,-109 228,-106 232,-112 196,-135 189,-125 194,-121 185,-110 194,-103 188,-97 191,-95 174,-73 168,-78 157,-63 150,-67 141,-57 140,-50 145,-41 149,-38 153,-43 161,-38 148,-20 153,-15 147,-8 142,-12 131,3 126,-2 121,4 114,-2 99,15 140,64 153,46 140,37 148,25 139,18 147,8 155,14 173,-13 190,-1 171,25 194,40 207,22 221,32 226,24" fill="none" stroke="#8a8f98" stroke-width="3" stroke-linecap="round"/><polyline points="290,-64 301,-81 327,-55 349,-40 346,-24 352,6 363,23 391,52 379,68 359,51 354,57 333,36 324,23 317,-23 317,-40 306,-57 296,-63 290,-64" fill="none" stroke="#8a8f98" stroke-width="3" stroke-linecap="round"/><polyline points="-47,211 -70,168 -91,108 -95,84 -94,2 -105,-44" fill="none" stroke="#8a8f98" stroke-width="3" stroke-linecap="round"/><polyline points="462,589 449,588 447,607 442,612 440,691 430,727 399,777 476,824 543,885 627,923 800,1030 801,1028" fill="none" stroke="#8a8f98" stroke-width="3" stroke-linecap="round"/><polyline points="-66,-74 -57,-22 -64,32 -63,59 -52,107 -36,146 -13,188" fill="none" stroke="#8a8f98" stroke-width="3" stroke-linecap="round"/><polyline points="-48,319 -77,304" fill="none" stroke="#8a8f98" stroke-width="8" stroke-linecap="round"/><polyline points="431,377 427,359 422,354 401,347" fill="none" stroke="#8a8f98" stroke-width="8" stroke-linecap="round"/><polyline points="534,211 529,235 513,286 498,322" fill="none" stroke="#8a8f98" stroke-width="13" stroke-linecap="round"/><polyline points="406,321 405,309 394,289" fill="none" stroke="#8a8f98" stroke-width="5" stroke-linecap="round"/><polyline points="-34,302 -39,313 -48,319" fill="none" stroke="#8a8f98" stroke-width="5" stroke-linecap="round"/><polyline points="22,618 53,618 60,615 64,608 67,546 70,542" fill="none" stroke="#8a8f98" stroke-width="3" stroke-linecap="round"/><polyline points="190,558 185,555 148,552" fill="none" stroke="#8a8f98" stroke-width="5" stroke-linecap="round"/><polyline points="28,361 16,366 8,381" fill="none" stroke="#8a8f98" stroke-width="5" stroke-linecap="round"/><polyline points="204,392 205,383" fill="none" stroke="#8a8f98" stroke-width="5" stroke-linecap="round"/><polyline points="334,261 352,302 348,330" fill="none" stroke="#8a8f98" stroke-width="5" stroke-linecap="round"/><polyline points="110,380 79,376" fill="none" stroke="#8a8f98" stroke-width="8" stroke-linecap="round"/><polyline points="188,624 192,585" fill="none" stroke="#8a8f98" stroke-width="5" stroke-linecap="round"/><polyline points="542,165 537,196" fill="none" stroke="#8a8f98" stroke-width="13" stroke-linecap="round"/><polyline points="227,169 240,151 245,155 268,129 283,120 288,112 290,102 284,87 299,67" fill="none" stroke="#8a8f98" stroke-width="3" stroke-linecap="round"/><polyline points="311,136 328,125 372,76" fill="none" stroke="#8a8f98" stroke-width="3" stroke-linecap="round"/><polyline points="355,62 384,31" fill="none" stroke="#8a8f98" stroke-width="3" stroke-linecap="round"/><polyline points="22,239 -3,260 -11,261" fill="none" stroke="#8a8f98" stroke-width="3" stroke-linecap="round"/><polyline points="478,75 505,38" fill="none" stroke="#8a8f98" stroke-width="3" stroke-linecap="round"/><polyline points="567,141 638,115 653,129" fill="none" stroke="#8a8f98" stroke-width="3" stroke-linecap="round"/><polyline points="611,173 606,128" fill="none" stroke="#8a8f98" stroke-width="3" stroke-linecap="round"/><polyline points="231,573 246,461 228,458" fill="none" stroke="#8a8f98" stroke-width="3" stroke-linecap="round"/><polyline points="513,201 519,173" fill="none" stroke="#8a8f98" stroke-width="13" stroke-linecap="round"/><polyline points="537,196 534,211" fill="none" stroke="#8a8f98" stroke-width="13" stroke-linecap="round"/><polyline points="533,387 527,499" fill="none" stroke="#8a8f98" stroke-width="3" stroke-linecap="round"/><polyline points="235,21 299,67" fill="none" stroke="#8a8f98" stroke-width="5" stroke-linecap="round"/><polyline points="-120,623 -37,543 -55,519" fill="none" stroke="#8a8f98" stroke-width="3" stroke-linecap="round"/><polyline points="442,116 380,66" fill="none" stroke="#8a8f98" stroke-width="3" stroke-linecap="round"/><polyline points="544,384 540,387 504,391 494,397 482,425 475,485 468,490 454,493 444,512" fill="none" stroke="#8a8f98" stroke-width="3" stroke-linecap="round"/><polyline points="-9,490 5,489 21,483 27,474 45,370" fill="none" stroke="#8a8f98" stroke-width="3" stroke-linecap="round"/><polyline points="231,573 236,581 224,694" fill="none" stroke="#8a8f98" stroke-width="3" stroke-linecap="round"/><polyline points="-31,328 -34,320 -33,312 -28,306 -21,303" fill="none" stroke="#8a8f98" stroke-width="8" stroke-linecap="round"/><polyline points="-7,301 16,290 47,271" fill="none" stroke="#8a8f98" stroke-width="3" stroke-linecap="round"/><polyline points="309,133 355,62" fill="none" stroke="#8a8f98" stroke-width="3" stroke-linecap="round"/><polyline points="240,107 220,136 245,155 288,112 290,102 284,87 299,67 228,16 226,24 232,28 218,49 242,66 247,59 265,71 259,79 275,90 272,95 279,100 267,118 260,113 256,118 240,107" fill="none" stroke="#8a8f98" stroke-width="3" stroke-linecap="round"/><polyline points="140,64 197,146 227,169 240,173 255,174 269,169 309,133" fill="none" stroke="#8a8f98" stroke-width="3" stroke-linecap="round"/><polyline points="47,271 78,287 112,293" fill="none" stroke="#8a8f98" stroke-width="3" stroke-linecap="round"/><polyline points="-13,188 47,271" fill="none" stroke="#8a8f98" stroke-width="3" stroke-linecap="round"/><polyline points="22,618 61,675 78,691" fill="none" stroke="#8a8f98" stroke-width="10" stroke-linecap="round"/><polyline points="-39,521 -20,544" fill="none" stroke="#8a8f98" stroke-width="10" stroke-linecap="round"/><polyline points="45,370 28,361" fill="none" stroke="#8a8f98" stroke-width="8" stroke-linecap="round"/><polyline points="28,361 -31,328" fill="none" stroke="#8a8f98" stroke-width="8" stroke-linecap="round"/><polyline points="567,141 571,149 611,173 612,185 544,384" fill="none" stroke="#8a8f98" stroke-width="3" stroke-linecap="round"/><polyline points="517,105 567,141" fill="none" stroke="#8a8f98" stroke-width="3" stroke-linecap="round"/><polyline points="-188,225 -34,302" fill="none" stroke="#8a8f98" stroke-width="8" stroke-linecap="round"/><polyline points="376,549 390,514" fill="none" stroke="#8a8f98" stroke-width="13" stroke-linecap="round"/><polyline points="390,514 407,468" fill="none" stroke="#8a8f98" stroke-width="13" stroke-linecap="round"/><polyline points="455,364 489,281" fill="none" stroke="#8a8f98" stroke-width="13" stroke-linecap="round"/><polyline points="348,330 331,334 225,389 217,391" fill="none" stroke="#8a8f98" stroke-width="8" stroke-linecap="round"/><polyline points="409,534 403,554" fill="none" stroke="#8a8f98" stroke-width="13" stroke-linecap="round"/><polyline points="477,410 472,425 469,484 475,485 475,508" fill="none" stroke="#8a8f98" stroke-width="3" stroke-linecap="round"/><polyline points="519,173 522,160" fill="none" stroke="#8a8f98" stroke-width="13" stroke-linecap="round"/><polyline points="462,101 478,75 517,105" fill="none" stroke="#8a8f98" stroke-width="3" stroke-linecap="round"/><polyline points="314,145 351,210" fill="none" stroke="#8a8f98" stroke-width="3" stroke-linecap="round"/><polyline points="443,536 443,548 450,570 449,588" fill="none" stroke="#8a8f98" stroke-width="3" stroke-linecap="round"/><polyline points="478,554 476,589 462,589" fill="none" stroke="#8a8f98" stroke-width="3" stroke-linecap="round"/><polyline points="528,544 479,541 478,547" fill="none" stroke="#8a8f98" stroke-width="3" stroke-linecap="round"/><polyline points="-31,328 -48,319" fill="none" stroke="#8a8f98" stroke-width="8" stroke-linecap="round"/><polyline points="325,657 349,624" fill="none" stroke="#8a8f98" stroke-width="13" stroke-linecap="round"/><polyline points="406,321 401,347" fill="none" stroke="#8a8f98" stroke-width="5" stroke-linecap="round"/><polyline points="401,347 370,337" fill="none" stroke="#8a8f98" stroke-width="8" stroke-linecap="round"/><polyline points="68,538 73,460" fill="none" stroke="#8a8f98" stroke-width="5" stroke-linecap="round"/><polyline points="489,281 510,210" fill="none" stroke="#8a8f98" stroke-width="13" stroke-linecap="round"/><polyline points="412,452 455,364" fill="none" stroke="#8a8f98" stroke-width="13" stroke-linecap="round"/><polyline points="412,452 431,377" fill="none" stroke="#8a8f98" stroke-width="8" stroke-linecap="round"/><polyline points="407,468 412,452" fill="none" stroke="#8a8f98" stroke-width="13" stroke-linecap="round"/><polyline points="403,554 383,609" fill="none" stroke="#8a8f98" stroke-width="13" stroke-linecap="round"/><polyline points="-20,544 8,592" fill="none" stroke="#8a8f98" stroke-width="10" stroke-linecap="round"/><polyline points="8,381 -14,460" fill="none" stroke="#8a8f98" stroke-width="5" stroke-linecap="round"/><polyline points="-20,480 -23,490" fill="none" stroke="#8a8f98" stroke-width="5" stroke-linecap="round"/><polyline points="-23,490 -39,521" fill="none" stroke="#8a8f98" stroke-width="5" stroke-linecap="round"/><polyline points="207,368 211,341" fill="none" stroke="#8a8f98" stroke-width="5" stroke-linecap="round"/><polyline points="211,341 216,301" fill="none" stroke="#8a8f98" stroke-width="5" stroke-linecap="round"/><polyline points="498,322 452,423 409,534" fill="none" stroke="#8a8f98" stroke-width="13" stroke-linecap="round"/><polyline points="513,286 528,296 521,314 503,311" fill="none" stroke="#8a8f98" stroke-width="3" stroke-linecap="round"/><polyline points="216,301 306,261 349,233 365,206 368,189 401,149 421,139 450,138 455,132 452,127" fill="none" stroke="#8a8f98" stroke-width="3" stroke-linecap="round"/><polyline points="77,412 79,376" fill="none" stroke="#8a8f98" stroke-width="5" stroke-linecap="round"/><polyline points="76,418 77,412" fill="none" stroke="#8a8f98" stroke-width="5" stroke-linecap="round"/><polyline points="370,337 362,372 364,389 345,454" fill="none" stroke="#8a8f98" stroke-width="3" stroke-linecap="round"/><polyline points="260,386 295,369 293,390 255,419 260,386" fill="none" stroke="#8a8f98" stroke-width="3" stroke-linecap="round"/><polyline points="-31,328 -48,330 -60,325 -70,317 -77,304" fill="none" stroke="#8a8f98" stroke-width="3" stroke-linecap="round"/><polyline points="8,592 22,618" fill="none" stroke="#8a8f98" stroke-width="10" stroke-linecap="round"/><polyline points="-20,544 -53,574" fill="none" stroke="#8a8f98" stroke-width="5" stroke-linecap="round"/><polyline points="108,548 74,544 68,538" fill="none" stroke="#8a8f98" stroke-width="5" stroke-linecap="round"/><polyline points="148,552 108,548" fill="none" stroke="#8a8f98" stroke-width="5" stroke-linecap="round"/><polyline points="-14,460 -20,480" fill="none" stroke="#8a8f98" stroke-width="5" stroke-linecap="round"/><polyline points="79,376 45,370" fill="none" stroke="#8a8f98" stroke-width="8" stroke-linecap="round"/><polyline points="74,444 76,418" fill="none" stroke="#8a8f98" stroke-width="5" stroke-linecap="round"/><polyline points="73,460 74,444" fill="none" stroke="#8a8f98" stroke-width="5" stroke-linecap="round"/><polyline points="187,652 188,624" fill="none" stroke="#8a8f98" stroke-width="5" stroke-linecap="round"/><polyline points="192,585 190,558" fill="none" stroke="#8a8f98" stroke-width="5" stroke-linecap="round"/><polyline points="383,609 377,625 362,650" fill="none" stroke="#8a8f98" stroke-width="13" stroke-linecap="round"/><polyline points="349,624 360,598 376,549" fill="none" stroke="#8a8f98" stroke-width="13" stroke-linecap="round"/><polyline points="443,446 446,491" fill="none" stroke="#8a8f98" stroke-width="3" stroke-linecap="round"/><polyline points="-11,261 -47,211" fill="none" stroke="#8a8f98" stroke-width="3" stroke-linecap="round"/><polyline points="-60,249 -37,285" fill="none" stroke="#8a8f98" stroke-width="5" stroke-linecap="round"/><polyline points="-37,285 -34,302" fill="none" stroke="#8a8f98" stroke-width="5" stroke-linecap="round"/><polyline points="571,15 542,165" fill="none" stroke="#8a8f98" stroke-width="13" stroke-linecap="round"/><polyline points="394,289 370,237 370,213" fill="none" stroke="#8a8f98" stroke-width="5" stroke-linecap="round"/><polyline points="100,547 104,504 127,504" fill="none" stroke="#8a8f98" stroke-width="3" stroke-linecap="round"/><polyline points="132,451 74,444" fill="none" stroke="#8a8f98" stroke-width="3" stroke-linecap="round"/><polyline points="-68,496 -39,521" fill="none" stroke="#8a8f98" stroke-width="10" stroke-linecap="round"/><polyline points="217,391 204,392" fill="none" stroke="#8a8f98" stroke-width="8" stroke-linecap="round"/><polyline points="179,660 172,653 172,637 174,631 181,626" fill="none" stroke="#8a8f98" stroke-width="3" stroke-linecap="round"/><polyline points="205,383 207,368" fill="none" stroke="#8a8f98" stroke-width="5" stroke-linecap="round"/><polyline points="370,337 348,330" fill="none" stroke="#8a8f98" stroke-width="8" stroke-linecap="round"/><polyline points="127,504 132,451" fill="none" stroke="#8a8f98" stroke-width="3" stroke-linecap="round"/><polyline points="182,389 179,396 174,398 119,390 110,380" fill="none" stroke="#8a8f98" stroke-width="3" stroke-linecap="round"/><polyline points="101,586 105,583 112,585 114,588 113,595 104,597 100,593 101,586" fill="none" stroke="#8a8f98" stroke-width="3" stroke-linecap="round"/><polyline points="479,306 493,293 513,286" fill="none" stroke="#8a8f98" stroke-width="13" stroke-linecap="round"/><polyline points="477,137 505,177" fill="none" stroke="#8a8f98" stroke-width="3" stroke-linecap="round"/><polyline points="510,210 513,201" fill="none" stroke="#8a8f98" stroke-width="13" stroke-linecap="round"/><polyline points="508,164 502,159 462,101" fill="none" stroke="#8a8f98" stroke-width="3" stroke-linecap="round"/><polyline points="204,392 110,380" fill="none" stroke="#8a8f98" stroke-width="8" stroke-linecap="round"/><polyline points="477,137 460,132 452,121 449,113 454,107" fill="none" stroke="#8a8f98" stroke-width="3" stroke-linecap="round"/><polyline points="535,206 513,201" fill="none" stroke="#8a8f98" stroke-width="13" stroke-linecap="round"/><polyline points="485,495 454,493 464,415 468,402 477,405 485,381 490,379 490,395 503,395 502,405 497,405 496,416 510,417 508,436 494,435 493,441 499,441 498,465 492,465 492,480 483,480 486,483 485,495" fill="none" stroke="#8a8f98" stroke-width="3" stroke-linecap="round"/><polyline points="69,525 61,516 63,487 72,480" fill="none" stroke="#8a8f98" stroke-width="3" stroke-linecap="round"/><polyline points="129,296 186,304 216,301" fill="none" stroke="#8a8f98" stroke-width="3" stroke-linecap="round"/><polyline points="310,345 293,342 267,354 262,370" fill="none" stroke="#8a8f98" stroke-width="3" stroke-linecap="round"/><polyline points="406,6 417,0 499,-135" fill="none" stroke="#8a8f98" stroke-width="3" stroke-linecap="round"/><polyline points="342,-25 351,-25 383,-14 430,-22 428,-68" fill="none" stroke="#8a8f98" stroke-width="3" stroke-linecap="round"/><polyline points="224,-117 173,-44 170,-25" fill="none" stroke="#8a8f98" stroke-width="5" stroke-linecap="round"/><polygon points="-144,334 -162,370 -147,378 -151,385 -164,388 -169,394 -168,407 -162,412 -109,439 -96,432 -96,418 -124,399 -121,393 -62,424 -44,389 -34,394 -46,435 -18,444 4,369 0,368 1,361 -13,360 -24,365 -37,383 -31,386 -33,391 -57,378 -54,373 -41,375 -32,365 -35,354 -42,349 -39,342 -80,322 -83,328 -94,326 -103,333 -102,346 -95,353 -98,358 -144,334" fill="#c8c2b8" stroke="#00000033"/><polygon points="381,223 380,206 417,148 439,149 449,155 449,161 452,161 453,188 460,188 459,195 469,195 473,204 474,229 469,242 459,242 459,248 452,248 449,285 446,285 446,291 441,291 442,297 419,302 417,296 413,297 406,281 402,282 381,235 386,232 381,223" fill="#ef8354" stroke="#00000033"/><polygon points="193,407 177,421 176,437 180,437 180,442 185,443 185,448 190,448 181,548 148,545 152,506 134,505 139,448 85,442 90,391 145,396 144,403 193,407" fill="#c8c2b8" stroke="#00000033"/><polygon points="160,573 74,566 71,607 111,610 106,685 177,690 182,617 157,615 160,573" fill="#c8c2b8" stroke="#00000033"/><polygon points="346,600 238,569 226,670 234,678 247,680 291,669 310,656 326,639 339,618 346,600" fill="#c8c2b8" stroke="#00000033"/><polygon points="322,450 319,471 249,459 244,510 323,524 325,520 367,535 390,464 322,450" fill="#c8c2b8" stroke="#00000033"/><polygon points="-13,502 -13,512 -9,515 -13,518 29,591 38,594 47,592 56,582 56,472 66,395 60,385 50,383 46,386 29,481 15,496 -5,496 -13,502" fill="#c8c2b8" stroke="#00000033"/><polygon points="173,-13 190,-1 171,25 193,40 207,22 221,32 226,24 232,28 218,49 242,66 247,59 265,71 259,79 275,90 272,95 279,100 267,118 260,113 256,118 240,107 220,136 202,123 210,113 186,96 203,71 227,88 231,82 200,61 187,79 173,69 182,57 167,47 151,69 142,62 153,46 140,37 148,25 139,18 147,8 155,14 173,-13" fill="#c8c2b8" stroke="#00000033"/><polygon points="561,192 569,183 581,183 592,192 593,205 531,376 516,379 502,370 502,360 561,192" fill="#c8c2b8" stroke="#00000033"/><polygon points="253,419 249,459 319,471 322,450 331,450 337,392 293,390 253,419" fill="#c8c2b8" stroke="#00000033"/><polygon points="314,328 290,274 221,306 217,366 223,369 314,328" fill="#c8c2b8" stroke="#00000033"/><polygon points="74,333 76,313 80,313 81,301 158,307 158,313 164,314 158,318 156,336 169,350 168,355 164,355 163,360 159,359 158,364 153,364 152,369 75,361 77,333 74,333" fill="#c8c2b8" stroke="#00000033"/><polygon points="468,650 529,653 532,601 481,599 483,554 474,554 475,543 460,542 459,561 464,561 462,595 458,594 455,649 468,650" fill="#c8c2b8" stroke="#00000033"/><polygon points="438,511 437,536 446,536 446,541 475,543 478,547 541,546 542,513 537,518 535,511 470,507 471,495 460,495 460,508 447,507 447,512 438,511" fill="#c8c2b8" stroke="#00000033"/><polygon points="-27,566 -37,572 -38,576 -66,603 -64,609 -28,651 -15,640 -10,647 12,629 -2,610 -2,605 -27,566" fill="#c8c2b8" stroke="#00000033"/><polygon points="365,682 403,699 401,690 422,693 425,626 398,614 365,682" fill="#c8c2b8" stroke="#00000033"/><polygon points="352,342 295,369 293,390 337,392 331,450 340,436 355,389 359,389 362,343 352,342" fill="#c8c2b8" stroke="#00000033"/><polygon points="354,572 347,596 234,565 241,541 354,572" fill="#c8c2b8" stroke="#00000033"/><polygon points="12,629 35,669 36,679 31,690 24,694 8,714 -25,695 -3,656 -10,647 12,629" fill="#c8c2b8" stroke="#00000033"/><polygon points="109,612 77,610 65,615 64,623 56,622 58,644 69,662 80,669 100,674 101,669 107,666 109,612" fill="#c8c2b8" stroke="#00000033"/><polygon points="255,419 293,390 322,427 284,456 255,419" fill="#c8c2b8" stroke="#00000033"/><polygon points="349,302 346,313 315,326 292,277 328,260 349,302" fill="#c8c2b8" stroke="#00000033"/><polygon points="371,347 418,363 421,367 423,382 416,401 369,388 364,372 371,347" fill="#c8c2b8" stroke="#00000033"/><polygon points="61,303 64,300 62,297 41,296 38,298 40,301 32,301 31,311 28,308 24,311 23,331 25,334 29,331 28,340 38,341 35,344 38,347 57,349 60,347 58,343 67,344 68,333 71,336 74,333 76,313 73,310 70,312 71,304 61,303" fill="#c8c2b8" stroke="#00000033"/><polygon points="80,466 75,539 96,541 99,492 122,494 124,469 80,466" fill="#c8c2b8" stroke="#00000033"/><polygon points="264,477 316,483 315,510 302,509 301,515 254,509 247,499 247,489 254,481 264,477" fill="#c8c2b8" stroke="#00000033"/><polygon points="365,440 360,432 364,414 378,407 388,407 398,413 403,430 390,464 359,457 365,440" fill="#c8c2b8" stroke="#00000033"/><polygon points="74,566 114,569 111,610 71,607 74,566" fill="#c8c2b8" stroke="#00000033"/><polygon points="189,309 180,306 171,308 158,318 155,327 156,336 167,350 184,352 198,340 200,323 189,309" fill="#c8c2b8" stroke="#00000033"/><polygon points="333,249 356,237 378,282 367,298 361,300 356,297 333,249" fill="#c8c2b8" stroke="#00000033"/><polygon points="145,396 85,442 139,448 145,396" fill="#c8c2b8" stroke="#00000033"/><polygon points="145,396 90,391 85,442 145,396" fill="#c8c2b8" stroke="#00000033"/><polygon points="15,398 2,442 29,449 39,404 15,398" fill="#c8c2b8" stroke="#00000033"/><polygon points="356,468 345,506 349,515 358,520 364,519 371,511 381,476 356,468" fill="#c8c2b8" stroke="#00000033"/><polygon points="1042,599 1034,590 1017,588 1008,595 1005,612 1017,625 1030,625 1040,617 1042,612 1042,599" fill="#c8c2b8" stroke="#00000033"/><polygon points="441,579 430,569 416,569 406,580 406,594 416,604 431,604 441,594 441,579" fill="#c8c2b8" stroke="#00000033"/><polygon points="152,369 153,364 158,364 159,359 163,360 164,355 168,355 169,350 184,352 198,340 193,376 188,379 163,376 152,369" fill="#c8c2b8" stroke="#00000033"/><polygon points="365,542 428,563 433,550 369,529 365,542" fill="#c8c2b8" stroke="#00000033"/><polygon points="80,466 81,446 125,449 124,469 80,466" fill="#c8c2b8" stroke="#00000033"/><polygon points="161,-38 148,-20 153,-15 147,-8 142,-12 131,3 126,-2 121,4 114,-2 145,-41 149,-38 153,-43 161,-38" fill="#c8c2b8" stroke="#00000033"/><polygon points="149,516 147,545 118,542 120,514 149,516" fill="#c8c2b8" stroke="#00000033"/><polygon points="490,125 483,125 479,112 472,104 480,93 490,93 490,98 493,98 493,94 506,106 505,123 494,130 490,131 490,125" fill="#c8c2b8" stroke="#00000033"/><polygon points="157,615 160,569 176,569 182,576 182,586 169,590 167,608 182,609 182,617 157,615" fill="#c8c2b8" stroke="#00000033"/><polygon points="543,415 554,414 563,420 563,436 555,443 544,442 537,434 536,423 543,415" fill="#c8c2b8" stroke="#00000033"/><polygon points="-19,276 -12,285 25,256 17,248 -19,276" fill="#c8c2b8" stroke="#00000033"/><polygon points="212,586 227,588 226,599 231,599 230,611 225,611 225,617 209,615 212,586" fill="#c8c2b8" stroke="#00000033"/><polygon points="105,407 127,410 124,433 103,429 105,407" fill="#c8c2b8" stroke="#00000033"/><polygon points="32,374 21,380 16,397 38,402 41,388 38,387 40,380 32,374" fill="#c8c2b8" stroke="#00000033"/><polygon points="2,444 -2,460 23,466 27,451 2,444" fill="#c8c2b8" stroke="#00000033"/><polygon points="-8,482 -3,461 17,466 13,481 10,483 -8,482" fill="#c8c2b8" stroke="#00000033"/><polygon points="229,429 216,427 213,454 227,455 229,429" fill="#c8c2b8" stroke="#00000033"/><polygon points="208,510 221,511 220,538 206,536 208,510" fill="#c8c2b8" stroke="#00000033"/><polygon points="120,514 107,515 105,541 118,542 120,514" fill="#c8c2b8" stroke="#00000033"/><polygon points="-19,287 -17,290 -4,286 28,262 25,256 -12,285 -14,283 -19,287" fill="#c8c2b8" stroke="#00000033"/><polyline points="597,-229 519,173 501,244 471,328 412,452 431,377 430,364 422,354 401,347 406,315 370,237 370,213 370,237 394,289" fill="none" stroke="#ffdd44" stroke-width="6" opacity="0.85"/><circle cx="597" cy="-229" r="10" fill="#a0f"/><circle cx="394" cy="289" r="10" fill="#f00"/><path d="M436.97058823528994,-289.72058823529716 L452.97058823528994,-289.72058823529716 M444.97058823528994,-297.72058823529716 L444.97058823528994,-281.72058823529716" stroke="#0ff" stroke-width="2"/><path d="M423.7352941171865,147.04411764707174 L439.7352941171865,147.04411764707174 M431.7352941171865,139.04411764707174 L431.7352941171865,155.04411764707174" stroke="#0ff" stroke-width="2"/><path d="M384.02941176475707,279.3970588235294 L400.02941176475707,279.3970588235294 M392.02941176475707,271.3970588235294 L392.02941176475707,287.3970588235294" stroke="#0ff" stroke-width="2"/><rect x="449" y="108" width="22" height="16" fill="#b8c2cc" stroke="#333"/><rect x="461" y="168" width="22" height="16" fill="#b8c2cc" stroke="#333"/><rect x="437" y="288" width="22" height="16" fill="#b8c2cc" stroke="#333"/><rect x="545" y="300" width="22" height="16" fill="#b8c2cc" stroke="#333"/><rect x="485" y="372" width="22" height="16" fill="#b8c2cc" stroke="#333"/><rect x="341" y="288" width="22" height="16" fill="#b8c2cc" stroke="#333"/><rect x="461" y="432" width="22" height="16" fill="#b8c2cc" stroke="#333"/><rect x="365" y="396" width="22" height="16" fill="#b8c2cc" stroke="#333"/><rect x="437" y="492" width="22" height="16" fill="#b8c2cc" stroke="#333"/><rect x="329" y="444" width="22" height="16" fill="#b8c2cc" stroke="#333"/><rect x="329" y="528" width="22" height="16" fill="#b8c2cc" stroke="#333"/><rect x="269" y="372" width="22" height="16" fill="#b8c2cc" stroke="#333"/><rect x="305" y="120" width="22" height="16" fill="#b8c2cc" stroke="#333"/><text x="591" y="147" font-size="13" fill="#fff" text-anchor="middle" stroke="#000" stroke-width="0.4">The Merlion</text><text x="434" y="233" font-size="13" fill="#fff" text-anchor="middle" stroke="#000" stroke-width="0.4">Fullerton Hotel</text><text x="480" y="20" font-size="16" fill="#fff" text-anchor="middle">29: Merlion Park</text></svg>